<svg width="100" height="100" fill="none" xmlns="http://www.w3.org/2000/svg"><path fill="#0e0e0e" d="M0 0h1e2v1e2H0z"/><g clip-path="url(#a)"><path d="M50 49.996a8.484 8.484.0 1116.969.0 8.484 8.484.0 01-16.968.0z" fill="#008afc"/><path d="M33.032 66.968a8.484 8.484.0 018.484-8.484h8.485v8.484a8.484 8.484.0 01-16.969.0z" fill="#0acf83"/><path d="M50 24.544v16.968h8.485a8.484 8.484.0 100-16.968H50z" fill="#ff7262"/><path d="M33.032 33.028a8.484 8.484.0 008.484 8.484h8.485V24.544h-8.485a8.484 8.484.0 00-8.484 8.484z" fill="#f24e1e"/><path d="M33.032 49.996a8.484 8.484.0 008.484 8.484h8.485V41.512h-8.485a8.484 8.484.0 00-8.484 8.484z" fill="#a259ff"/></g><defs><clipPath id="a"><path fill="#fff" transform="translate(32.857 24.284)" d="M0 0h34.286v51.429H0z"/></clipPath></defs></svg>