<svg width="100" height="100" fill="none" xmlns="http://www.w3.org/2000/svg"><path fill="#385601" d="M0 0h100v100H0z"/><path fill-rule="evenodd" clip-rule="evenodd" d="m60.184 76.229-.126-48.32c-.326-.325-.961-.226-1.21-.154l-1.655.512a11.54 11.54 0 0 0-.791-1.946c-1.175-2.24-2.89-3.424-4.968-3.427h-.007c-.138 0-.276.013-.414.024l-.016.002a4.57 4.57 0 0 0-.187-.216c-.904-.967-2.065-1.439-3.455-1.398-2.68.077-5.35 2.014-7.516 5.453-1.525 2.422-2.681 5.462-3.012 7.816l-5.279 1.636c-1.553.488-1.601.536-1.806 2-.153 1.11-4.22 32.558-4.22 32.558L59.6 76.662l.584-.435v.002ZM49.019 23.514c-.453-.298-.984-.436-1.613-.423-4.138.119-7.748 6.585-8.669 10.893l3.965-1.228.708-.219c.519-2.736 1.822-5.575 3.527-7.402a7.778 7.778 0 0 1 2.08-1.62h.002Zm-3.65 8.416 5.69-1.763c.018-1.482-.143-3.673-.885-5.22-.79.325-1.455.896-1.932 1.406-1.28 1.375-2.323 3.47-2.871 5.577h-.002Zm7.473-2.314 2.645-.82c-.423-1.373-1.426-3.674-3.46-4.06.633 1.632.795 3.522.815 4.88Z" fill="#95BF47"/><path d="M67.82 31.504c-.204-.016-4.142-.077-4.142-.077s-3.296-3.2-3.621-3.527a.813.813 0 0 0-.457-.21v48.964l14.766-3.672s-6.026-40.748-6.064-41.027a.536.536 0 0 0-.484-.45h.002Z" fill="#5E8E3E"/><path d="M51.416 39.108 49.7 45.526s-1.913-.871-4.182-.728c-3.326.21-3.362 2.309-3.328 2.836.18 2.868 7.73 3.496 8.155 10.22.334 5.289-2.805 8.91-7.327 9.193-5.428.343-8.416-2.86-8.416-2.86l1.15-4.895s3.008 2.27 5.414 2.117c1.574-.098 2.136-1.377 2.08-2.283-.238-3.742-6.386-3.523-6.775-9.675-.326-5.18 3.073-10.424 10.574-10.898 2.89-.183 4.371.556 4.371.556" fill="#fff"/></svg>