<svg width="100" height="100" fill="none" xmlns="http://www.w3.org/2000/svg"><path fill="#F3F3F3" d="M0 0h100v100H0z"/><g clip-path="url(#a)"><path fill-rule="evenodd" clip-rule="evenodd" d="M54.789 38.314c-1.32.691-1.812 1.86-1.812 5.087 0 0 .668-.647 1.66-1.007a7.03 7.03 0 0 0 1.697-.921c1.116-.818 1.289-1.87 1.289-3.642 0 0-1.82-.049-2.834.483Zm-7.83.756c-1.078.949-1.393 2.462-1.393 2.462l-3.564 13.812-2.965-11.305c-.289-1.202-.81-2.687-1.633-3.692-1.05-1.28-3.182-1.36-3.409-1.36-.228 0-2.36.08-3.41 1.36-.823 1.005-1.344 2.49-1.632 3.692l-2.965 11.305-3.566-13.812s-.314-1.513-1.39-2.462c-1.747-1.54-4.366-1.21-4.366-1.21l6.827 25.812s2.252.163 3.38-.412c1.48-.754 2.184-1.337 3.08-4.849.799-3.131 3.031-12.328 3.24-12.983.103-.323.234-1.096.802-1.096.58 0 .7.772.801 1.096.205.656 2.44 9.852 3.24 12.983.896 3.512 1.6 4.095 3.08 4.849 1.127.575 3.38.412 3.38.412l6.826-25.813s-2.617-.328-4.364 1.21Zm10.662 3.003s-.427.662-1.402 1.206c-.625.35-1.226.587-1.87.896-1.08.518-1.373 1.095-1.373 1.974v17.523s1.724.218 2.85-.357c1.45-.739 1.784-1.452 1.797-4.662V43.01h-.002v-.936Zm17.016 8.755L83.3 37.945s-3.655-.622-5.465 1.025c-1.159 1.055-2.454 2.95-2.454 2.95l-3.187 4.595c-.155.24-.358.5-.68.5-.324 0-.526-.26-.68-.5l-3.187-4.594s-1.296-1.896-2.454-2.951c-1.81-1.647-5.466-1.025-5.466-1.025l8.661 12.883-8.639 12.844s3.808.481 5.618-1.168c1.158-1.054 2.28-2.768 2.28-2.768l3.187-4.594c.154-.24.356-.499.68-.499.322 0 .525.26.68.5l3.187 4.593s1.186 1.714 2.344 2.768c1.811 1.65 5.552 1.168 5.552 1.168l-8.639-12.844Z" fill="#000"/></g><defs><clipPath id="a"><path fill="#fff" transform="translate(16.666 37.5)" d="M0 0h66.667v26.852H0z"/></clipPath></defs></svg>