<svg width="100" height="100" fill="none" xmlns="http://www.w3.org/2000/svg"><path fill="#F3F3F3" d="M0 0h100v100H0z"/><path d="M74.856 36.722a27.957 27.957 0 0 1 3.441 13.479c0 10.365-5.617 19.415-13.97 24.285l8.582-24.812c1.602-4.008 2.136-7.213 2.136-10.063a21.57 21.57 0 0 0-.189-2.889Zm-20.782.306c1.691-.09 3.215-.267 3.215-.267 1.514-.18 1.336-2.404-.179-2.316 0 0-4.55.358-7.489.358-2.76 0-7.399-.357-7.399-.357-1.515-.09-1.693 2.225-.178 2.315 0 0 1.433.178 2.947.267l4.377 11.994-6.15 18.44-10.23-30.434c1.692-.09 3.215-.267 3.215-.267 1.513-.18 1.334-2.404-.18-2.316 0 0-4.55.358-7.488.358-.527 0-1.148-.013-1.808-.034 5.024-7.627 13.659-12.664 23.475-12.664a27.99 27.99 0 0 1 18.972 7.377c-.12-.008-.239-.023-.363-.023-2.76 0-4.719 2.404-4.719 4.987 0 2.315 1.336 4.274 2.76 6.59 1.069 1.87 2.317 4.274 2.317 7.748 0 2.404-.925 5.195-2.138 9.083l-2.803 9.363-10.154-30.202Zm-3.872 41.271c-2.758 0-5.42-.404-7.938-1.145l8.431-24.495 8.636 23.66c.057.139.126.267.2.387a28.037 28.037 0 0 1-9.33 1.593ZM22.106 50.201c0-4.074.874-7.94 2.433-11.434l13.402 36.72C28.568 70.933 22.106 61.322 22.106 50.2Zm28.096-31.25c-17.231 0-31.25 14.019-31.25 31.25s14.019 31.251 31.25 31.251c17.23 0 31.25-14.02 31.25-31.251s-14.02-31.25-31.25-31.25Z" fill="#3F3C3C"/></svg>