<svg version="1.1" id="Layer_1" xmlns="http://www.w3.org/2000/svg" x="0" y="0" viewBox="0 0 200 138" style="enable-background:new 0 0 200 138" xml:space="preserve"><style>.st0{fill:#2b3033}</style><g id="Logo-_x2F_-"><path id="Fill-6" class="st0" d="M12.8 112.3c-7.1 0-12.8 5.8-12.8 12.8 0 7.1 5.8 12.8 12.8 12.8 3 0 5.8-1.1 8-2.8v2.3h4.9v-12.6c-.2-6.9-5.9-12.5-12.9-12.5m0 20.8c-4.4 0-8-3.6-8-8s3.6-8 8-8 8 3.6 8 8c0 4.5-3.6 8-8 8"/><path id="Fill-8" class="st0" d="M79.4 125.2c0 4.4-3.6 8-8 8s-8-3.6-8-8v-12h-4.9v12c0 7.1 5.8 12.8 12.8 12.8 7.1 0 12.8-5.8 12.8-12.8v-12h-4.9v12z"/><path id="Fill-10" class="st0" d="M101.8 112.3c-7.1 0-12.8 5.8-12.8 12.8v12h4.9v-12c0-4.4 3.6-8 8-8s8 3.6 8 8v12h4.9v-12c-.2-7-5.9-12.8-13-12.8"/><path id="Fill-12" class="st0" d="M43.1 117.2c3.1 0 5.7 1.8 7.1 4.3l3.9-3c-2.3-3.7-6.3-6.2-11-6.2-7.1 0-12.8 5.8-12.8 12.8 0 7.1 5.8 12.8 12.8 12.8 4.7 0 8.7-2.5 11-6.2l-3.9-3c-1.3 2.6-4 4.3-7.1 4.3-4.4 0-8-3.6-8-8 .1-4.2 3.6-7.8 8-7.8"/><path id="Fill-14" class="st0" d="M168.2 109.3c1.7 0 3-1.4 3-3s-1.4-3-3-3c-1.7 0-3 1.4-3 3s1.3 3 3 3"/><path id="Fill-16" class="st0" d="M165.5 137.1h5.3v-23.9h-5.3z"/><path id="Fill-18" class="st0" d="M200 113.2h-6.6l-5.7 7.5-5.7-7.5h-6.6l9 12-9 11.9h6.6l5.7-7.5 5.7 7.5h6.6l-9-11.9z"/><path id="Fill-19" class="st0" d="M159 118.1v-4.9h-4.9v-3.8l-4.9.3v21.8c0 3 2.7 5.6 6 5.6h3.8v-4.9h-3.8c-.6 0-1.1-.5-1.1-1.1V118h4.9z"/><path id="Fill-20" class="st0" d="M123.1 116.1c-5 5-5 13.1 0 18.2 5 5 13.1 5 18.2 0 1.5-1.5 2.5-3.2 3.1-5.1l-4.5-1.7c-.4 1.3-1 2.4-2 3.4-2.5 2.5-6.3 3-9.3 1.4l10.7-10.7.8-.8 2.8-2.8c-.5-.7-1-1.3-1.5-1.9-5.2-5-13.3-5-18.3 0zm2 12.7c-1.5-3-1.1-6.7 1.4-9.3 2.5-2.5 6.3-3 9.3-1.4l-10.7 10.7z"/></g><g id="Logo-_x2F_-Icon" transform="translate(0 4.636)"><path id="Combined-Shape" d="M100 69.1c-9 0-16.2-7.3-16.2-16.2S91 36.7 100 36.7s16.2 7.3 16.2 16.2S109 69.1 100 69.1zm38.1 16.3c-2.1 0-4.3-.4-6.3-1.3-8.2-3.5-12.1-13-8.6-21.3 4-9.5 2-20.4-5.3-27.7-9.8-9.8-25.8-9.8-35.6 0-7.3 7.3-9.4 18.2-5.3 27.7 3.5 8.2-.3 17.8-8.6 21.3-8.4 3.5-17.9-.4-21.4-8.6-9.3-21.8-4.4-46.6 12.2-63.3 22.5-22.5 59-22.5 81.5 0 16.7 16.7 21.5 41.5 12.2 63.3-2.5 6.2-8.5 9.9-14.8 9.9z" style="fill:#e03b4f"/></g></svg>