<svg version="1.1" id="Layer_1" xmlns="http://www.w3.org/2000/svg" x="0" y="0" viewBox="0 0 902.9 250" style="enable-background:new 0 0 902.9 250" xml:space="preserve"><style>.st1{fill:#fff}</style><switch><g><linearGradient id="SVGID_1_" gradientUnits="userSpaceOnUse" x1="125" y1="17.857" x2="125" y2="267.857"><stop offset="0" style="stop-color:#cf1f27"/><stop offset="1" style="stop-color:#9d1c21"/></linearGradient><path style="fill:url(#SVGID_1_)" d="M0 0h250v250H0z"/><path class="st1" d="M194.4 170.8c-3 0-5.4-2.4-5.4-5.4V88.2l-64-34.6-64.1 34.6v77.2c0 3-2.4 5.4-5.4 5.4s-5.4-2.4-5.4-5.4V85c0-2 1.1-3.8 2.8-4.7l69.4-37.5c1.6-.9 3.5-.9 5.1 0L197 80.3c1.7.9 2.8 2.7 2.8 4.7v80.4c0 3-2.4 5.4-5.4 5.4z"/><path class="st1" d="M125 206.6c-.5 0-.9-.1-1.3-.4L85 184.1c-.8-.5-1.3-1.4-1.3-2.3v-81.3c0-1.5 1.2-2.7 2.7-2.7s2.7 1.2 2.7 2.7v79.7l35.9 20.7 35.9-20.7v-79.7c0-1.5 1.2-2.7 2.7-2.7 1.5 0 2.7 1.2 2.7 2.7v81.3c0 1-.5 1.8-1.3 2.3l-38.6 22.2c-.5.2-.9.3-1.4.3z"/><path class="st1" d="M125 170.8c-3 0-5.4-2.4-5.4-5.4V47.5c0-3 2.4-5.4 5.4-5.4 3 0 5.4 2.4 5.4 5.4v117.9c0 3-2.4 5.4-5.4 5.4z"/><path d="m419.5 132.3-12.1-33.6h-46.2l-11.8 33.6h-20.8l45.3-121.4h21.5l45.3 121.4h-21.2zm-17.3-50.6-11.3-32.9c-.8-2.2-2-5.7-3.4-10.4-1.5-4.7-2.5-8.2-3-10.4-1.5 6.8-3.7 14.2-6.5 22.3l-11 31.4h35.2zM485.3 134c-11.4 0-20.3-4.1-26.7-12.4-6.4-8.3-9.6-19.9-9.6-34.8 0-15 3.2-26.7 9.7-35 6.5-8.4 15.5-12.5 26.9-12.5 12 0 21.2 4.4 27.5 13.3h1c-.9-6.6-1.4-11.7-1.4-15.6V3.6h19.5v128.7H517l-3.4-12h-.9c-6.3 9.1-15.4 13.7-27.4 13.7zm5.2-15.7c8 0 13.8-2.2 17.5-6.7 3.6-4.5 5.5-11.8 5.6-21.9V87c0-11.5-1.9-19.7-5.6-24.6-3.8-4.9-9.6-7.3-17.6-7.3-6.8 0-12.1 2.8-15.8 8.3-3.7 5.5-5.5 13.4-5.5 23.7 0 10.1 1.8 17.9 5.4 23.2 3.5 5.3 8.8 8 16 8zM641.2 86.4c0 14.9-3.8 26.6-11.5 35-7.7 8.4-18.3 12.6-32 12.6-8.5 0-16.1-1.9-22.7-5.8-6.6-3.9-11.6-9.4-15.1-16.6-3.5-7.2-5.3-15.6-5.3-25.1 0-14.8 3.8-26.4 11.4-34.7 7.6-8.3 18.3-12.5 32.2-12.5 13.2 0 23.7 4.3 31.4 12.8 7.7 8.4 11.6 19.9 11.6 34.3zm-66.6 0c0 21.1 7.8 31.7 23.4 31.7 15.4 0 23.2-10.6 23.2-31.7 0-20.9-7.8-31.4-23.3-31.4-8.2 0-14.1 2.7-17.7 8.1-3.8 5.5-5.6 13.2-5.6 23.3zM710.2 39.2c11.4 0 20.3 4.1 26.7 12.4 6.4 8.3 9.6 19.9 9.6 34.8 0 15-3.2 26.7-9.7 35-6.5 8.4-15.4 12.5-26.9 12.5-11.6 0-20.6-4.2-27-12.5h-1.3l-3.6 10.8h-14.6V3.6h19.4v30.6c0 2.3-.1 5.6-.3 10.1-.2 4.5-.4 7.3-.5 8.5h.8c6.3-9.1 15.4-13.6 27.4-13.6zm-5 15.9c-7.8 0-13.5 2.3-16.9 6.9-3.4 4.6-5.2 12.3-5.3 23.1v1.3c0 11.1 1.8 19.2 5.3 24.2s9.3 7.5 17.3 7.5c6.9 0 12.1-2.7 15.7-8.2 3.6-5.5 5.3-13.3 5.3-23.7-.1-20.7-7.2-31.1-21.4-31.1zM809 134c-14.2 0-25.4-4.1-33.4-12.5-8-8.3-12-19.7-12-34.3 0-14.9 3.7-26.7 11.2-35.2 7.4-8.5 17.7-12.8 30.7-12.8 12.1 0 21.6 3.7 28.6 11s10.5 17.4 10.5 30.3V91h-61c.3 8.9 2.7 15.7 7.2 20.5 4.5 4.8 10.9 7.2 19.1 7.2 5.4 0 10.4-.5 15.1-1.5 4.7-1 9.7-2.7 15-5.1v15.8c-4.7 2.3-9.5 3.9-14.4 4.8-4.8.8-10.4 1.3-16.6 1.3zm-3.5-80.1c-6.2 0-11.1 2-14.9 5.9-3.7 3.9-5.9 9.6-6.7 17.1h41.5c-.1-7.6-1.9-13.3-5.5-17.2-3.4-3.9-8.3-5.8-14.4-5.8zM366.5 175.4c-7.5 0-13.4 2.7-17.7 8-4.3 5.3-6.5 12.7-6.5 22 0 9.8 2.1 17.2 6.2 22.3 4.1 5 10.1 7.5 18 7.5 3.4 0 6.7-.3 9.8-1 3.2-.7 6.5-1.5 9.9-2.6v11.2c-6.3 2.4-13.4 3.6-21.3 3.6-11.7 0-20.7-3.5-27-10.6s-9.4-17.2-9.4-30.4c0-8.3 1.5-15.6 4.6-21.8s7.4-11 13.2-14.3c5.8-3.3 12.5-5 20.3-5 8.2 0 15.7 1.7 22.6 5.1l-4.7 10.9c-2.7-1.3-5.6-2.4-8.6-3.4-2.9-1-6.1-1.5-9.4-1.5zM455.7 215c0 9.9-2.5 17.6-7.6 23.1s-12.1 8.3-21.2 8.3c-5.7 0-10.6-1.3-15-3.8-4.3-2.6-7.7-6.2-10-11s-3.5-10.3-3.5-16.6c0-9.8 2.5-17.5 7.5-23s12.1-8.3 21.3-8.3c8.8 0 15.7 2.8 20.8 8.4 5.2 5.7 7.7 13.3 7.7 22.9zm-44 0c0 14 5.2 20.9 15.5 20.9 10.2 0 15.3-7 15.3-20.9 0-13.8-5.1-20.7-15.4-20.7-5.4 0-9.3 1.8-11.7 5.4-2.5 3.5-3.7 8.6-3.7 15.3zM521.5 245.3h-12.9V208c0-4.6-.9-8.1-2.6-10.4-1.8-2.3-4.5-3.4-8.2-3.4-5 0-8.6 1.6-10.9 4.8-2.3 3.2-3.5 8.6-3.5 16.1v30.1h-12.9v-60.5h10.1l1.8 7.9h.7c1.7-2.9 4.1-5.1 7.3-6.7 3.2-1.6 6.7-2.4 10.5-2.4 9.3 0 15.5 3.2 18.5 9.5h.9c1.8-3 4.3-5.3 7.5-7 3.2-1.7 7-2.5 11.2-2.5 7.2 0 12.5 1.8 15.8 5.5 3.3 3.6 4.9 9.2 4.9 16.7v39.4h-12.9V208c0-4.6-.9-8.1-2.7-10.4-1.8-2.3-4.5-3.4-8.2-3.4-5 0-8.6 1.6-11 4.7-2.3 3.1-3.5 7.9-3.5 14.4v32zM628.6 245.3h-12.9V208c0-4.6-.9-8.1-2.6-10.4-1.8-2.3-4.5-3.4-8.2-3.4-5 0-8.6 1.6-10.9 4.8-2.3 3.2-3.5 8.6-3.5 16.1v30.1h-12.9v-60.5h10.1l1.8 7.9h.7c1.7-2.9 4.1-5.1 7.3-6.7 3.2-1.6 6.7-2.4 10.5-2.4 9.3 0 15.5 3.2 18.5 9.5h.9c1.8-3 4.3-5.3 7.5-7 3.2-1.7 7-2.5 11.2-2.5 7.2 0 12.5 1.8 15.8 5.5 3.3 3.6 4.9 9.2 4.9 16.7v39.4h-12.9V208c0-4.6-.9-8.1-2.7-10.4-1.8-2.3-4.5-3.4-8.2-3.4-5 0-8.7 1.6-11 4.7-2.3 3.1-3.5 7.9-3.5 14.4v32zM711.1 246.4c-9.4 0-16.8-2.7-22.1-8.2-5.3-5.5-8-13-8-22.7 0-9.9 2.5-17.6 7.4-23.3 4.9-5.7 11.7-8.5 20.3-8.5 8 0 14.3 2.4 18.9 7.3 4.6 4.9 6.9 11.5 6.9 20v6.9h-40.3c.2 5.9 1.8 10.4 4.8 13.5 3 3.2 7.2 4.7 12.6 4.7 3.6 0 6.9-.3 10-1 3.1-.7 6.4-1.8 9.9-3.4v10.4c-3.1 1.5-6.3 2.6-9.5 3.2-3.1.8-6.8 1.1-10.9 1.1zm-2.4-52.9c-4.1 0-7.4 1.3-9.8 3.9-2.5 2.6-3.9 6.4-4.4 11.3H722c-.1-5-1.3-8.8-3.6-11.3-2.4-2.7-5.6-3.9-9.7-3.9zM779.9 183.7c2.6 0 4.7.2 6.4.5l-1.3 12c-1.8-.4-3.7-.7-5.7-.7-5.1 0-9.3 1.7-12.5 5-3.2 3.4-4.8 7.7-4.8 13.1v31.6h-12.9v-60.5h10.1l1.7 10.7h.7c2-3.6 4.6-6.5 7.8-8.6 3.3-2 6.8-3.1 10.5-3.1zM821.9 246.4c-9.2 0-16.1-2.7-20.9-8-4.8-5.3-7.1-13-7.1-23 0-10.2 2.5-18 7.5-23.5s12.2-8.2 21.6-8.2c6.4 0 12.1 1.2 17.2 3.6l-3.9 10.3c-5.4-2.1-9.9-3.2-13.5-3.2-10.5 0-15.7 6.9-15.7 20.8 0 6.8 1.3 11.9 3.9 15.3 2.6 3.4 6.4 5.1 11.5 5.1 5.7 0 11.1-1.4 16.2-4.3v11.2c-2.3 1.3-4.7 2.3-7.4 2.9-2.5.7-5.7 1-9.4 1zM879.4 246.4c-9.4 0-16.8-2.7-22.1-8.2-5.3-5.5-8-13-8-22.7 0-9.9 2.5-17.6 7.4-23.3 4.9-5.7 11.7-8.5 20.3-8.5 8 0 14.3 2.4 18.9 7.3 4.6 4.9 6.9 11.5 6.9 20v6.9h-40.3c.2 5.9 1.8 10.4 4.8 13.5 3 3.2 7.2 4.7 12.6 4.7 3.6 0 6.9-.3 10-1s6.4-1.8 9.9-3.4v10.4c-3.1 1.5-6.3 2.6-9.5 3.2-3.1.8-6.8 1.1-10.9 1.1zm-2.4-52.9c-4.1 0-7.4 1.3-9.8 3.9-2.5 2.6-3.9 6.4-4.4 11.3h27.5c-.1-5-1.3-8.8-3.6-11.3-2.4-2.7-5.6-3.9-9.7-3.9z"/></g></switch></svg>