<svg xmlns="http://www.w3.org/2000/svg" viewBox="0 0 83 67"><path data-name="Turquoise Gradient" style="fill:#a166ff" d="M22.5 0h38v38h-38z"/><path d="M44.65 31.81a.44.44 0 0 1-.26-.08L41.48 30l-2.89 1.73a.52.52 0 0 1-.51 0l-6-3.63a.5.5 0 0 1-.24-.44V24l-2.8-1.58a.56.56 0 0 1-.26-.44V16a.49.49 0 0 1 .26-.44L31.87 14v-3.66a.51.51 0 0 1 .24-.44l6-3.63a.47.47 0 0 1 .51 0L41.48 8l2.91-1.73a.47.47 0 0 1 .51 0l6 3.63a.5.5 0 0 1 .24.44V14l2.8 1.58a.56.56 0 0 1 .26.44v6a.49.49 0 0 1-.26.44L51.13 24v3.64a.51.51 0 0 1-.24.44l-6 3.65a.61.61 0 0 1-.24.08ZM42 29.11l2.66 1.57 5.46-3.34v-3.65a.46.46 0 0 1 .26-.43L52.61 22l-1.88-1a1.46 1.46 0 1 1 .16-2.05 1.37 1.37 0 0 1 .34.95v.1l1.94 1.07V16.3l-2.82-1.58a.53.53 0 0 1-.26-.43v-1.37h-1.41a1.46 1.46 0 1 1-.85-1.92 1.38 1.38 0 0 1 .85.85h1.41v-1.21L44.64 7.3 42 8.87v5.57l2.82 1.63a1.45 1.45 0 1 1-.29 2 1.42 1.42 0 0 1-.28-.88v-.3l-3-1.73a.51.51 0 0 1-.24-.44V8.89l-2.66-1.58-2.42 1.47v3.57h-1v-3l-2 1.25V14l2.53 1.45L38 14v-2.6h1v2.89a.46.46 0 0 1-.26.43L35.9 16.3v2.41l2.79 1.83a.48.48 0 0 1 .23.42v1.71l2-1.2v-2.15l-2.66-1.57.51-.88 2.93 1.73a.54.54 0 0 1 .3.4v6.59h2.32a1.44 1.44 0 1 1 1.26 1.88 1.48 1.48 0 0 1-1.26-.87H42Zm-5.77.28 2.11 1.29L41 29.11v-6.44L35.33 26l-.52-.87L38 23.27v-2l-2.53-1.67-2.83 1.6-.51-.9 2.85-1.59V16.3l-2.58-1.42-2.53 1.42v1.84L32 16.87l.51.88-2.68 1.57v2.38l2.53 1.42L35 21.6l.52.88L32.91 24v3.36l2.28 1.41 2.64-1.56.11-.08.52.87Zm9.48-3.76a.44.44 0 1 0 .44.44.44.44 0 0 0-.44-.42Zm4.08-6.23a.44.44 0 1 0 .44.44.45.45 0 0 0-.44-.42Zm-4.09-2.6a.44.44 0 1 0 .44.43.44.44 0 0 0-.44-.42Zm1.63-4.8a.44.44 0 1 0 .44.44.44.44 0 0 0-.44-.44Z" style="fill:#fff" data-name="Icon Test"/><path d="m22.93 48.93-.84 2.54H21l2.75-8.08H25l2.75 8.08h-1.09l-.87-2.54Zm2.65-.82-.79-2.33c-.18-.52-.3-1-.42-1.47-.12.48-.25 1-.4 1.46l-.8 2.34ZM28.89 47.24v-1.58h.92l.05.94a2 2 0 0 1 1.83-1.07 1.71 1.71 0 0 1 1.64 1.17 2.35 2.35 0 0 1 .65-.76 2 2 0 0 1 1.28-.41c.77 0 1.91.51 1.91 2.52v3.42h-1v-3.29c0-1.11-.41-1.78-1.26-1.78a1.36 1.36 0 0 0-1.25 1 1.62 1.62 0 0 0-.08.52v3.59h-1V48c0-.92-.41-1.59-1.21-1.59A1.44 1.44 0 0 0 30 47.45a1.5 1.5 0 0 0-.09.52v3.5h-1ZM42.12 51.47l-.12-.73a2.19 2.19 0 0 1-1.78.86 1.65 1.65 0 0 1-1.77-1.67c0-1.4 1.24-2.17 3.49-2.16v-.11a1.21 1.21 0 0 0-1.32-1.35 3 3 0 0 0-1.52.43l-.24-.69a3.64 3.64 0 0 1 1.91-.52c1.78 0 2.21 1.21 2.21 2.38v2.17a8.47 8.47 0 0 0 .09 1.39Zm-.16-3c-1.15 0-2.46.18-2.46 1.3a.94.94 0 0 0 1 1 1.45 1.45 0 0 0 1.4-1 1 1 0 0 0 .06-.34ZM44 50.86l2.62-3.42c.25-.31.49-.59.76-.9h-3.11v-.86h4.42v.66l-2.59 3.37a11.13 11.13 0 0 1-.75.92h3.4v.84H44ZM55 48.52a2.83 2.83 0 0 1-2.9 3.08 2.76 2.76 0 0 1-2.78-3 2.83 2.83 0 0 1 2.88-3.08 2.75 2.75 0 0 1 2.8 3Zm-4.61.06c0 1.27.74 2.23 1.77 2.23s1.76-1 1.76-2.25c0-1-.49-2.24-1.74-2.24s-1.8 1.15-1.8 2.26ZM56.33 47.24v-1.58h.93l.06 1a2.12 2.12 0 0 1 1.91-1.09c.81 0 2.06.48 2.06 2.47v3.47h-1.08v-3.39c0-.93-.35-1.71-1.34-1.71a1.5 1.5 0 0 0-1.42 1.08 1.45 1.45 0 0 0-.07.49v3.49h-1.05ZM14.42 63.2a3.65 3.65 0 0 0 1.87.53c1.06 0 1.69-.57 1.69-1.38s-.43-1.19-1.53-1.61c-1.31-.47-2.13-1.15-2.13-2.29a2.33 2.33 0 0 1 2.61-2.2 3.72 3.72 0 0 1 1.79.4l-.29.85a3.24 3.24 0 0 0-1.53-.38c-1.11 0-1.52.66-1.52 1.21 0 .75.49 1.13 1.6 1.56 1.37.53 2.06 1.18 2.06 2.37s-.92 2.33-2.83 2.33a4.16 4.16 0 0 1-2.06-.52ZM23.69 64.47l-.08-.73a2.18 2.18 0 0 1-1.78.86A1.65 1.65 0 0 1 20 62.93c0-1.4 1.25-2.17 3.49-2.16v-.11a1.2 1.2 0 0 0-1.32-1.35 2.93 2.93 0 0 0-1.51.43l-.24-.69a3.61 3.61 0 0 1 1.91-.52c1.77 0 2.2 1.21 2.2 2.38v2.17a8.4 8.4 0 0 0 .1 1.39Zm-.16-3c-1.15 0-2.46.18-2.46 1.3a.94.94 0 0 0 1 1 1.43 1.43 0 0 0 1.4-1 1 1 0 0 0 .06-.34ZM31.26 58.66c0 .42-.05.89-.05 1.6v3.37a3.35 3.35 0 0 1-.82 2.65 3.09 3.09 0 0 1-2.12.7 3.78 3.78 0 0 1-1.93-.48l.27-.81a3.25 3.25 0 0 0 1.7.46c1.08 0 1.87-.57 1.87-2v-.65a2.08 2.08 0 0 1-1.85 1 2.59 2.59 0 0 1-2.47-2.83 2.79 2.79 0 0 1 2.61-3.08 2 2 0 0 1 1.82 1l.05-.88ZM30.17 61a1.5 1.5 0 0 0-.06-.49 1.52 1.52 0 0 0-1.48-1.11c-1 0-1.72.85-1.72 2.2 0 1.13.57 2.08 1.71 2.08a1.53 1.53 0 0 0 1.46-1.08 1.56 1.56 0 0 0 .09-.56ZM33.56 61.76a1.85 1.85 0 0 0 2 2 3.75 3.75 0 0 0 1.6-.3l.18.76a4.63 4.63 0 0 1-1.93.36 2.69 2.69 0 0 1-2.85-2.93c0-1.75 1-3.13 2.72-3.13a2.46 2.46 0 0 1 2.4 2.74 4.35 4.35 0 0 1 0 .49Zm3.09-.76a1.5 1.5 0 0 0-1.46-1.71A1.74 1.74 0 0 0 33.57 61ZM45.83 60.92c-.06-1.13-.13-2.48-.12-3.49-.27 1-.61 2-1 3.07l-1.43 3.92h-.79l-1.3-3.85c-.39-1.14-.71-2.18-.94-3.14 0 1-.09 2.36-.16 3.57l-.22 3.47h-1l.56-8.08h1.33l1.38 3.91c.34 1 .61 1.88.82 2.72.21-.82.5-1.71.86-2.72l1.44-3.91h1.33l.5 8.08H46ZM51.91 64.47l-.08-.73a2.16 2.16 0 0 1-1.83.86 1.66 1.66 0 0 1-1.78-1.67c0-1.4 1.25-2.17 3.49-2.16v-.11a1.2 1.2 0 0 0-1.32-1.35 2.93 2.93 0 0 0-1.51.43l-.24-.69a3.64 3.64 0 0 1 1.91-.52c1.77 0 2.21 1.21 2.21 2.38v2.17a8.47 8.47 0 0 0 .09 1.39Zm-.15-3c-1.15 0-2.46.18-2.46 1.3a.93.93 0 0 0 1 1 1.45 1.45 0 0 0 1.41-1 1.35 1.35 0 0 0 .06-.34ZM55.53 61.33a7.91 7.91 0 0 1 .52-.66l1.7-2H59l-2.2 2.38 2.55 3.42h-1.28l-2-2.78-.54.6v2.18h-1.05V56h1.05ZM60.7 61.76a1.85 1.85 0 0 0 2 2 3.8 3.8 0 0 0 1.61-.3l.18.76a4.71 4.71 0 0 1-1.93.36 2.7 2.7 0 0 1-2.86-2.93c0-1.75 1-3.13 2.72-3.13a2.46 2.46 0 0 1 2.4 2.74 4.88 4.88 0 0 1 0 .49Zm3.09-.76a1.5 1.5 0 0 0-1.46-1.71A1.74 1.74 0 0 0 60.71 61ZM66.12 60.47c0-.68 0-1.27-.05-1.81H67v1.14a1.75 1.75 0 0 1 1.61-1.27 1 1 0 0 1 .3 0v1a1.94 1.94 0 0 0-.36 0 1.49 1.49 0 0 0-1.42 1.35 3.6 3.6 0 0 0 0 .49v3.1h-1Z"/></svg>