<svg xmlns="http://www.w3.org/2000/svg" viewBox="0 0 352.16 169.34"><defs><style>.cls-1{fill:#201c1d}.cls-2{fill:#9d5025}.cls-3{fill:#f58536}.cls-5{fill:#fbbf93}</style></defs><g id="Layer_2" data-name="Layer 2"><g id="Layer_1-2" data-name="Layer 1"><g id="Layer_2-2" data-name="Layer 2"><g id="Layer_1-2-2" data-name="Layer 1-2"><path class="cls-1" d="M351.81 50.46a2 2 0 0 1-1.89.91h-4.33c-1.45 0-1.68-.34-1.68-1.66v-18a10.45 10.45 0 0 0-.52-3.2 2.69 2.69 0 0 0-2.39-2.03 3.06 3.06 0 0 0-3.08 1.66 10.13 10.13 0 0 0-1.25 5V49.6c0 1.3-.32 1.62-1.62 1.62h-4.92c-.95 0-1.37-.42-1.37-1.37V21c0-1 .42-1.37 1.41-1.37h4.62c1 0 1.41.4 1.42 1.44s0 2.06 0 3.18a4.4 4.4 0 0 0 .8-1.32 6.82 6.82 0 0 1 4.36-3.64c5-1.24 9.34 1.24 10.08 6.3a16.78 16.78 0 0 1 .29 3 .76.76 0 0 0 .14.56ZM209.23 23.45c1.7-3 4-4.55 7.54-4.51s5.6 2.06 7.06 5.15c.34-.57.61-1.06.91-1.52a8.23 8.23 0 0 1 12.55-1.31 7 7 0 0 1 2.06 4.62c.36 4 .1 8 .14 12.06s0 7.9 0 11.85c0 1.07-.31 1.37-1.37 1.37h-5.22c-.86 0-1.31-.4-1.32-1.24V33.59a40.09 40.09 0 0 0-.16-4.64 2.84 2.84 0 0 0-3.79-2.44 3.68 3.68 0 0 0-2.78 3.13 17 17 0 0 0-.32 3.46v16.4c0 1.37-.31 1.65-1.66 1.65h-4.7c-1.2 0-1.55-.34-1.55-1.54V32.55a13.21 13.21 0 0 0-.22-3.61 3.1 3.1 0 0 0-2.74-2.46 3.3 3.3 0 0 0-3.43 2.15 9.9 9.9 0 0 0-.57 3c-.31 6.13 0 12.26-.14 18.39 0 .86-.29 1.15-1.17 1.16h-5.22c-1.08 0-1.37-.28-1.37-1.37V20.95c0-1.18.23-1.37 1.37-1.37H208c1 0 1.3.33 1.31 1.28s-.08 1.75-.08 2.59ZM268.74 34.87v5.27a7.46 7.46 0 0 0 1.92 5.15 1.3 1.3 0 0 1-.19 2.09c-1.12 1-2.24 2-3.31 3-1.26 1.2-1.69 1.21-2.94 0a10.93 10.93 0 0 1-1.88-2.19c-.29-.51-.53-.56-.93-.1A10.88 10.88 0 0 1 254 51.5a11.71 11.71 0 0 1-4.69-.53 7.43 7.43 0 0 1-4.84-5.91 11.21 11.21 0 0 1 .53-6.82 9.6 9.6 0 0 1 6.17-5.49 43.14 43.14 0 0 1 7.39-1.5 7.88 7.88 0 0 0 1.7-.14c.27-.1.42-.19.43-.49a10.54 10.54 0 0 0-.38-3.53c-.61-1.91-2.84-2.46-4.16-2.23a4.36 4.36 0 0 0-3.69 3.5c-.23.91-.64 1.12-1.57 1-1.44-.21-2.89-.38-4.34-.49-1.12-.09-1.6-.62-1.37-1.69a9.68 9.68 0 0 1 6.1-7.32 15.62 15.62 0 0 1 11.32-.38c4 1.45 5.77 3.74 6 8.32.14 2.46.1 4.93.14 7.07ZM260.68 38v-1.64c0-.4-.2-.58-.55-.49-.87.21-1.77.08-2.65.28a6.34 6.34 0 0 0-3.75 1.85 5.38 5.38 0 0 0-.8 5.58 3.17 3.17 0 0 0 1 1.37c1.81 1.5 4.2.37 5.16-.95a9.6 9.6 0 0 0 1.59-6ZM195.21 33.7v6.17a7.87 7.87 0 0 0 2 5.37 1.33 1.33 0 0 1 0 1.88l-.1.09q-2.06 1.88-4.15 3.7a1.2 1.2 0 0 1-1.67-.05 12.87 12.87 0 0 1-2.48-2.86c-.21-.29-.31-.49-.69-.1a10.6 10.6 0 0 1-6.74 3.54c-3 .32-5.93.1-8.23-2.23a8.63 8.63 0 0 1-2.28-5.11 10.93 10.93 0 0 1 .3-4.69 9.43 9.43 0 0 1 6.65-6.68 43.85 43.85 0 0 1 7.32-1.49 8.73 8.73 0 0 0 1.7-.13c.32-.1.45-.23.45-.56a12.35 12.35 0 0 0-.35-3.38c-.52-1.88-2.74-2.59-4.16-2.32a4.21 4.21 0 0 0-3.72 3.61 1.15 1.15 0 0 1-1.32.94h-.05c-1.52-.21-3-.4-4.55-.56-1.14-.12-1.52-.61-1.25-1.73 1.11-4.7 4.25-7.21 8.82-8.1a15.67 15.67 0 0 1 7.65.15c2.35.69 4.53 1.76 5.78 4.07a9 9 0 0 1 1 4.12c.11 2.13.07 4.24.07 6.35Zm-15.95 7.83a4.29 4.29 0 0 0 .48 2.46 3 3 0 0 0 3 1.69 4.49 4.49 0 0 0 3.57-2.57 13.24 13.24 0 0 0 1-6.86c0-.35-.25-.42-.51-.37a28.64 28.64 0 0 0-3.43.48c-2.66.76-4.24 2.27-4.1 5.17ZM299.17 35.63A20.14 20.14 0 0 1 301.55 25a10.87 10.87 0 0 1 8.19-5.84 11.93 11.93 0 0 1 8.26 1.5 12.74 12.74 0 0 1 5 6.09A22.48 22.48 0 0 1 324.64 37a18.07 18.07 0 0 1-3.2 9.78 11.41 11.41 0 0 1-9.43 5 11.06 11.06 0 0 1-8.7-3.59 15.42 15.42 0 0 1-3.68-7.74 19.07 19.07 0 0 1-.46-4.82Zm13.24 10.06a3 3 0 0 0 2.15-1.37 10.07 10.07 0 0 0 1.58-5.84 45.31 45.31 0 0 0 0-5.56 23.63 23.63 0 0 0-.92-5.31 3.59 3.59 0 0 0-3.76-2.44 3.15 3.15 0 0 0-2.83 2 11.8 11.8 0 0 0-1.14 5.38 39.28 39.28 0 0 0 .28 7.49 11 11 0 0 0 1.23 3.83 3.36 3.36 0 0 0 3.41 1.82ZM285.75 26h-9c-.94 0-1.28-.19-1.37-1.09a19.89 19.89 0 0 1 0-4.52c.1-.73.55-.95 1.19-.95h17.67c1.3 0 1.62.32 1.62 1.61v2a5.34 5.34 0 0 1-1.17 3.65c-2 2.78-3.87 5.62-5.79 8.43l-3.38 5c-.11.16-.33.3-.24.51s.39.15.6.14a19.27 19.27 0 0 1 9.37 2.22 2 2 0 0 1 1.22 1.94v4.25c0 1.07-.69 1.52-1.67 1a21.74 21.74 0 0 0-6.6-2.09 20.11 20.11 0 0 0-10.54 1.32c-.69.29-1.37.63-2.11.9a.93.93 0 0 1-1.26-.75 35.78 35.78 0 0 1 .12-5.94 6.8 6.8 0 0 1 1.34-2.63l9.6-14.24a1.91 1.91 0 0 0 .4-.76Z"/></g></g><path class="cls-2" d="M0 60.66V34.77L70.63 0v42.73L0 60.66z"/><path class="cls-3" d="M70.63 0v42.73l70.32 17.93v-25.6L70.63 0z"/><path style="fill:#6b3a19" d="m0 60.66 70.63-17.93 70.32 17.93-70.32 7.08L0 60.66z"/><path class="cls-2" d="M23.01 74.81 0 76.7v24.21l23.01 3.88V74.81zM35.26 73.81v32.98l35.17 5.87V71.02l-35.17 2.79zM19.32 143.84l15.94 7.87v-33.57l-15.94-3.98v29.68zM11.36 112.17 0 109.38v24.8l11.36 5.68v-27.69zM45.13 120.53v36.16l25.5 12.65v-42.43l-25.5-6.38z"/><path class="cls-3" d="M23.01 74.81h12.25v29.58l-12.25.4V74.81z"/><path class="cls-5" d="m11.36 112.17 24.2-2.7-14.44-2.49L0 109.38l11.36 2.79zM42.24 110.67l-22.92 3.49 15.94 3.98 24.91-4.28-17.93-3.19z"/><path class="cls-3" d="M35.56 109.47v2.2l-16.24 2.49v24.1l-7.96 1.6v-27.69l24.2-2.7zM60.17 113.86v3.78l-15.04 2.89v27.99l-9.87 3.19v-33.57l24.91-4.28zM118.14 74.81l23.01 1.89v24.21l-23.01 3.88V74.81zM105.79 73.81v32.98l-35.16 5.87V71.02l35.16 2.79zM121.83 143.84l-15.94 7.87v-33.57l15.94-3.98v29.68zM129.9 112.17l11.25-2.79v24.8l-11.25 5.68v-27.69zM96.03 120.53v36.16l-25.4 12.65v-42.43l25.4-6.38z"/><path class="cls-2" d="M118.14 74.81h-12.25v29.58l12.25.4V74.81z"/><path class="cls-5" d="m129.9 112.17-24.31-2.7 14.44-2.49 21.12 2.4-11.25 2.79zM70.63 115.65l-25.5 4.88 25.5 6.38 25.4-6.38-25.4-4.88zM98.92 110.67l22.91 3.49-15.94 3.98-24.81-4.28 17.84-3.19z"/><path class="cls-2" d="M105.59 109.47v2.2l16.24 2.49v24.1l8.07 1.6v-27.69l-24.31-2.7zM81.08 113.86v3.78l14.95 2.89v27.99l9.86 3.19v-33.57l-24.81-4.28z"/><path class="cls-1" d="M198.36 98.49V76.95l-6.87 14h-6l-6.87-14v21.54h-5.92v-31.1h7.36l8.48 17.68 8.53-17.68h7.23v31.1ZM224.17 98.49l-.54-2a10.84 10.84 0 0 1-3.21 2 9.3 9.3 0 0 1-3.52.74 7.43 7.43 0 0 1-5.32-1.88 6.58 6.58 0 0 1-2-5 6.74 6.74 0 0 1 1.08-3.79 7.28 7.28 0 0 1 3.1-2.58 11.16 11.16 0 0 1 4.76-.94 21.93 21.93 0 0 1 4.76.58v-2.3a3.71 3.71 0 0 0-.85-2.83 4.81 4.81 0 0 0-3.14-.76 27.41 27.41 0 0 0-8.12 1.39v-4.35a16.46 16.46 0 0 1 4.17-1.37 25.39 25.39 0 0 1 5.12-.52q4.62 0 6.75 1.86t2.13 5.86v15.89Zm-5.43-3.68a6 6 0 0 0 2.31-.49 8.73 8.73 0 0 0 2.22-1.32v-3.9a22.85 22.85 0 0 0-3.55-.31q-3.9 0-3.9 3.14a2.66 2.66 0 0 0 2.92 2.92ZM252.08 97.5a10 10 0 0 1-2.92 1.1 16.23 16.23 0 0 1-3.55.38q-5.48 0-8.37-3.05t-2.89-8.8q0-5.7 3.05-8.89t8.48-3.19a13 13 0 0 1 6.06 1.44v4.35a17.67 17.67 0 0 0-4.85-.76 6 6 0 0 0-4.62 1.59q-1.48 1.59-1.48 5v.63q0 3.41 1.46 5A5.83 5.83 0 0 0 247 94a19.5 19.5 0 0 0 5.12-.81ZM271.47 98.49v-15a3.81 3.81 0 0 0-.81-2.69 3.25 3.25 0 0 0-2.47-.85 9.11 9.11 0 0 0-4.89 1.53v17.01h-6.55V65.28h6.55v12.34a13.76 13.76 0 0 1 8.08-2.74 6 6 0 0 1 6.62 6.65v17ZM287.67 72a3.91 3.91 0 0 1-2.74-.94 3.69 3.69 0 0 1 0-5.12 4.45 4.45 0 0 1 5.48 0 3.69 3.69 0 0 1 0 5.12 3.9 3.9 0 0 1-2.74.94Zm-3.28 26.48V75.56h6.55v22.93ZM312.13 98.49v-15a3.81 3.81 0 0 0-.81-2.69 3.25 3.25 0 0 0-2.47-.85 9.11 9.11 0 0 0-4.85 1.49v17.05h-6.55V75.56h5.39l.63 2.47a13.8 13.8 0 0 1 8.53-3.14 6 6 0 0 1 6.64 6.64v17ZM329.76 88.62a5.7 5.7 0 0 0 1.79 4.29q1.62 1.33 5.07 1.32a26.37 26.37 0 0 0 7-1.12v4.35a14.69 14.69 0 0 1-3.75 1.26 22.31 22.31 0 0 1-4.51.45q-5.7 0-8.68-3.1t-3-9.07q0-5.74 3-8.93a10.66 10.66 0 0 1 8.21-3.19q4.44 0 6.84 2.45t2.4 7a21.28 21.28 0 0 1-.13 2.24 19.2 19.2 0 0 1-.31 2.06Zm4.89-9.2a4.61 4.61 0 0 0-3.48 1.32 6 6 0 0 0-1.46 3.84h8.8v-.76q.01-4.4-3.85-4.4ZM172.69 143.49v-31.1h6.73v25.71h13.64v5.39ZM201.5 133.62a5.7 5.7 0 0 0 1.8 4.29q1.62 1.33 5.07 1.32a26.36 26.36 0 0 0 7-1.12v4.35a14.68 14.68 0 0 1-3.75 1.26 22.31 22.31 0 0 1-4.51.45q-5.7 0-8.68-3.1t-3-9.07q0-5.74 3-8.93a10.66 10.66 0 0 1 8.21-3.19 9.16 9.16 0 0 1 6.84 2.45q2.4 2.45 2.4 7a21.28 21.28 0 0 1-.13 2.24 19.47 19.47 0 0 1-.31 2.06Zm4.89-9.2a4.61 4.61 0 0 0-3.48 1.32 6 6 0 0 0-1.46 3.84h8.8v-.76q0-4.4-3.86-4.4ZM234 143.49l-.54-2a10.84 10.84 0 0 1-3.21 2 9.3 9.3 0 0 1-3.52.74 7.43 7.43 0 0 1-5.32-1.88 6.58 6.58 0 0 1-2-5 6.74 6.74 0 0 1 1.08-3.79 7.28 7.28 0 0 1 3.1-2.58 11.17 11.17 0 0 1 4.76-.94 21.94 21.94 0 0 1 4.76.58v-2.24a3.71 3.71 0 0 0-.85-2.83 4.81 4.81 0 0 0-3.14-.76 27.41 27.41 0 0 0-8.12 1.39v-4.35a16.45 16.45 0 0 1 4.17-1.37 25.39 25.39 0 0 1 5.12-.52q4.62 0 6.75 1.86t2.13 5.86v15.89Zm-5.43-3.68a6 6 0 0 0 2.31-.49 8.74 8.74 0 0 0 2.22-1.35v-3.9a22.87 22.87 0 0 0-3.55-.31q-3.9 0-3.91 3.14a2.66 2.66 0 0 0 2.92 2.92ZM245.39 143.49v-22.93h5.39l.81 3.41a12.81 12.81 0 0 1 3.39-2.8 7.22 7.22 0 0 1 3.39-.83 12.69 12.69 0 0 1 1.79.13v6.06a13.29 13.29 0 0 0-2.78-.27 14.15 14.15 0 0 0-5.43 1v16.2ZM278.29 143.49v-15a3.81 3.81 0 0 0-.81-2.69 3.25 3.25 0 0 0-2.47-.85 9.11 9.11 0 0 0-4.89 1.53v17.05h-6.55v-22.97H269l.63 2.47a13.8 13.8 0 0 1 8.62-3.14 6 6 0 0 1 6.64 6.64v17ZM294.49 117a3.91 3.91 0 0 1-2.74-.94 3.69 3.69 0 0 1 0-5.12 4.45 4.45 0 0 1 5.48 0 3.69 3.69 0 0 1 0 5.12 3.9 3.9 0 0 1-2.74.94Zm-3.28 26.48v-22.92h6.55v22.93ZM318.95 143.49v-15a3.81 3.81 0 0 0-.81-2.69 3.25 3.25 0 0 0-2.47-.85 9.11 9.11 0 0 0-4.89 1.53v17.05h-6.55v-22.97h5.39l.63 2.47a13.8 13.8 0 0 1 8.62-3.14 6 6 0 0 1 6.64 6.64v17ZM345.7 140.71a8.73 8.73 0 0 1-6 2.29 8.09 8.09 0 0 1-6.66-3.12 13 13 0 0 1-2.49-8.33 13.31 13.31 0 0 1 2.51-8.48 8.13 8.13 0 0 1 6.73-3.19 9.36 9.36 0 0 1 3.55.67 8.88 8.88 0 0 1 3 2l.49-2h5.39v21.15q0 5.47-3.05 8.53t-8.44 3.05a18.4 18.4 0 0 1-8.26-1.93v-4.4a26.33 26.33 0 0 0 7.67 1.39 5.76 5.76 0 0 0 4.29-1.37q1.32-1.37 1.32-4.47Zm-4-2.56a6.86 6.86 0 0 0 2.09-.34 7.25 7.25 0 0 0 1.91-.92v-11a8.12 8.12 0 0 0-4.31-1.12q-4.31 0-4.31 6.64a9.25 9.25 0 0 0 1.12 5.12 3.92 3.92 0 0 0 3.5 1.62Z"/></g></g></svg>