<svg xmlns="http://www.w3.org/2000/svg" viewBox="0 0 461.92 184.04"><defs><style>.cls-1{fill:#201c1d}.cls-4{fill:#2d72b8}</style></defs><g id="Layer_2" data-name="Layer 2"><g id="Layer_1-2" data-name="Layer 1"><path class="cls-1" d="M461.4 86.39a2.88 2.88 0 0 1-2.76 1.32c-2.1-.05-4.2 0-6.31 0s-2.45-.5-2.45-2.42v-26.2a15.24 15.24 0 0 0-.76-4.67 3.92 3.92 0 0 0-3.56-3 4.46 4.46 0 0 0-4.49 2.42 14.77 14.77 0 0 0-1.82 7.27c-.05 8 0 16 0 24 0 1.9-.46 2.36-2.36 2.36h-7.18c-1.38 0-2-.61-2-2V43.4c0-1.43.61-2 2.06-2h6.74c1.51 0 2.06.58 2.07 2.1s0 3 0 4.63a6.41 6.41 0 0 0 1.17-1.92 9.94 9.94 0 0 1 6.35-5.31c7.27-1.81 13.62 1.81 14.69 9.19a24.47 24.47 0 0 1 .42 4.41c0 .28 0 .59.21.81ZM253.51 47c2.48-4.32 5.9-6.64 11-6.57s8.16 3 10.3 7.51c.5-.83.89-1.54 1.33-2.22a12 12 0 0 1 18.3-1.91 10.21 10.21 0 0 1 3 6.74c.52 5.85.15 11.72.21 17.58s0 11.52 0 17.28c0 1.56-.45 2-2 2h-7.61c-1.25 0-1.91-.59-1.92-1.81 0-7.94-.05-15.87 0-23.81a58.45 58.45 0 0 0-.24-6.77c-.31-2.92-2.85-4.26-5.52-3.56a5.37 5.37 0 0 0-4.05 4.57 24.76 24.76 0 0 0-.46 5.05v23.91c0 2-.45 2.41-2.42 2.41h-6.85c-1.75 0-2.26-.5-2.26-2.24V60.27A19.26 19.26 0 0 0 264 55a4.52 4.52 0 0 0-4-3.58 4.81 4.81 0 0 0-5 3.14 14.43 14.43 0 0 0-.83 4.43c-.45 8.94-.07 17.88-.2 26.82 0 1.25-.42 1.68-1.7 1.69h-7.61c-1.58 0-2-.41-2-2V43.43c0-1.72.33-2 2-2h7c1.42 0 1.9.48 1.91 1.87s-.06 2.48-.06 3.7ZM340.28 63.65c0 2.9.06 5.29 0 7.68a10.88 10.88 0 0 0 2.8 7.51 1.9 1.9 0 0 1-.28 3.05c-1.64 1.41-3.26 2.85-4.83 4.34-1.83 1.75-2.46 1.77-4.29 0a15.93 15.93 0 0 1-2.74-3.2c-.43-.74-.78-.81-1.35-.15a15.87 15.87 0 0 1-10.79 5.02 17.08 17.08 0 0 1-6.84-.78 10.83 10.83 0 0 1-7.06-8.61 16.35 16.35 0 0 1 .78-9.95 14 14 0 0 1 9-8 62.9 62.9 0 0 1 10.77-2.19 11.49 11.49 0 0 0 2.48-.2c.4-.14.61-.28.63-.72a15.37 15.37 0 0 0-.56-5.15c-.89-2.78-4.14-3.58-6.06-3.25a6.36 6.36 0 0 0-5.38 5.1c-.34 1.32-.94 1.63-2.29 1.44-2.1-.3-4.21-.55-6.33-.72-1.63-.13-2.34-.9-2-2.46a14.12 14.12 0 0 1 8.89-10.67 22.77 22.77 0 0 1 16.5-.56c5.81 2.11 8.41 5.45 8.73 12.13.21 3.62.16 7.23.22 10.34Zm-11.75 4.56v-2.39c0-.58-.29-.84-.8-.72-1.27.31-2.58.12-3.86.41-2.07.47-4.11 1.07-5.48 2.75a7.84 7.84 0 0 0-1.17 8.13 4.62 4.62 0 0 0 1.4 2c2.64 2.18 6.12.54 7.52-1.38a14 14 0 0 0 2.39-8.8ZM233.07 61.95v9a11.47 11.47 0 0 0 2.93 7.83 1.94 1.94 0 0 1-.08 2.88q-3 2.74-6.05 5.4a1.75 1.75 0 0 1-2.43-.08 18.76 18.76 0 0 1-3.71-4.19c-.31-.42-.45-.72-1-.15a15.45 15.45 0 0 1-9.83 5.16c-4.36.47-8.65.15-12-3.25a12.59 12.59 0 0 1-3.33-7.45 15.94 15.94 0 0 1 .44-6.84 13.75 13.75 0 0 1 9.69-9.74 63.94 63.94 0 0 1 10.67-2.17 12.73 12.73 0 0 0 2.48-.19c.46-.15.66-.33.66-.81a18 18 0 0 0-.51-4.93c-.76-2.74-4-3.77-6.06-3.38-2.92.55-4.88 2.19-5.42 5.26a1.67 1.67 0 0 1-2 1.36c-2.21-.3-4.42-.59-6.63-.82-1.66-.17-2.21-.89-1.82-2.52 1.62-6.85 6.2-10.51 12.86-11.81a22.85 22.85 0 0 1 11.15.22c3.42 1 6.6 2.57 8.43 5.93a13.06 13.06 0 0 1 1.52 6c.1 3.13.04 6.21.04 9.29Zm-23.25 11.41a6.26 6.26 0 0 0 .7 3.58 4.44 4.44 0 0 0 4.34 2.47 6.55 6.55 0 0 0 5.21-3.75 19.3 19.3 0 0 0 1.47-10c0-.51-.37-.61-.75-.54a41.75 41.75 0 0 0-5 .7c-3.87 1.12-6.16 3.31-5.97 7.54ZM384.64 64.76c-.11-5.76.83-10.85 3.48-15.53s6.5-7.74 11.94-8.52a17.4 17.4 0 0 1 12.07 2.22 18.58 18.58 0 0 1 7.27 8.88 32.78 32.78 0 0 1 2.38 14.93A26.34 26.34 0 0 1 417.11 81a16.63 16.63 0 0 1-13.75 7.33 16.12 16.12 0 0 1-12.69-5.24 22.48 22.48 0 0 1-5.36-11.28 27.8 27.8 0 0 1-.67-7.05Zm19.3 14.67a4.35 4.35 0 0 0 3.13-2c1.87-2.55 2.2-5.54 2.31-8.52a66.07 66.07 0 0 0 .07-8.1 34.46 34.46 0 0 0-1.34-7.74c-.85-2.61-3-3.53-5.48-3.56-2 0-3.22 1.21-4.12 2.87a17.21 17.21 0 0 0-1.66 7.85 57.27 57.27 0 0 0 .41 10.92 16 16 0 0 0 1.74 5.63c.93 1.65 2.24 2.69 4.94 2.65ZM365.07 50.73H352c-1.37 0-1.87-.28-2-1.59a29 29 0 0 1 0-6.59c.15-1.06.8-1.38 1.73-1.38h25.77c1.9 0 2.36.46 2.36 2.35 0 1-.07 2 0 2.93a7.79 7.79 0 0 1-1.71 5.32c-2.87 4.06-5.64 8.19-8.44 12.29l-4.93 7.23c-.16.23-.48.44-.35.75s.57.22.87.21a28.09 28.09 0 0 1 13.63 3.24 2.91 2.91 0 0 1 1.78 2.83v6.19c0 1.56-1 2.21-2.43 1.53a31.7 31.7 0 0 0-9.62-3.04 29.32 29.32 0 0 0-15.37 1.93c-1 .42-2 .92-3.08 1.31a1.35 1.35 0 0 1-1.84-1.1c0-2.89-.3-5.79.18-8.66a9.91 9.91 0 0 1 1.94-3.83q7-10.39 14-20.76a2.78 2.78 0 0 0 .58-1.16Z"/><path d="M105.42 184h2.24l36.53-18.27.61-.86V19.11l-.61-.86L107.66 0h-2.27v184" style="fill:#5294cf"/><path d="M57.88 184h-2.26l-36.5-18.27-.74-1.27L18 19.86l1.12-1.61L55.62 0h2.3v184" style="fill:#1f5b98"/><path class="cls-4" d="M55.68 0h51.94v184H55.68Z"/><path d="m163.3 87.88-1.23-.27L144.45 86l-.26.13-36.56-1.46H55.68L19.12 86.1V58.14l36.56-8.47h51.94l36.56 8.47 13.44 7.14v-4.57l5.68-.62-.59-1.15-18-12.86-.55.18-36.54-11.33H55.68L19.12 46.26v-28L0 40.65v19.56l.15-.11 5.53.6v4.69L0 68.43V87.9h.15l5.53.1v8.17l-4.77.07-.91-.12v19.47l5.68 3.05v4.74L.24 124l-.24-.19v19.56l19.12 22.4v-28l36.56 11.33h51.94l36.67-11.36.49.21 17.75-12.67.78-1.26-5.68-.63v-4.65l-.74-.3-12.16 6.56-.44.92-36.67 8.42H55.68l-36.56-8.46v-28l36.56 1.46h51.94l36.56-1.49.83.38 17.08-1.47 1.21-.59-5.68-.08V88l5.68-.08" style="fill:#1a476f"/><path class="cls-4" d="M144.18 137.77v28l19.12-22.4v-19.43l-19 13.8h-.11M144.18 125.94h.11l19-10.22V96.13l-19.12 1.76v28M144.29 58.18h-.11V86.1l19.12 1.79V68.34l-19-10.16M144.29 46.37l19 13.72V40.65l-19.12-22.4v28h.11v.07"/><path class="cls-1" d="M200.74 141.47v-37.21h10.74q20.58 0 20.58 18.14 0 8.62-5.71 13.84T211 141.47Zm6.15-32v26.76h4.93q6.51 0 10.13-3.58t3.62-10.12q0-13.05-13.52-13.05ZM261.21 114.9l-12 30.83q-3.73 8.27-10.48 8.27a12.59 12.59 0 0 1-3.17-.34v-5a8.42 8.42 0 0 0 2.6.47 5.36 5.36 0 0 0 5-3.32l1.79-4.36-10.52-26.55h6.67l6.33 19.31q.1.36.47 1.92h.1q.13-.6.47-1.87l6.64-19.36ZM288.43 141.47h-6v-15q0-7.45-5.27-7.45a5.75 5.75 0 0 0-4.54 2.06 7.65 7.65 0 0 0-1.79 5.2v15.16h-6V114.9h6v4.41h.1a9.47 9.47 0 0 1 8.62-5 8 8 0 0 1 6.62 2.82q2.28 2.82 2.28 8.14ZM315.47 141.47h-5.84v-4.15h-.1a8.79 8.79 0 0 1-8.07 4.77 8.5 8.5 0 0 1-6.14-2.13 7.44 7.44 0 0 1-2.22-5.63q0-7.53 8.67-8.77l7.89-1.12q0-5.68-5.4-5.68a12.82 12.82 0 0 0-8.56 3.24v-5.27a18.67 18.67 0 0 1 9.71-2.49q10.07 0 10.07 9.91Zm-5.81-13.05-5.58.78a8.84 8.84 0 0 0-3.91 1.26 3.68 3.68 0 0 0-1.31 3.23 3.54 3.54 0 0 0 1.21 2.76 4.67 4.67 0 0 0 3.23 1.08 6 6 0 0 0 4.55-1.93 6.86 6.86 0 0 0 1.8-4.87ZM361.66 141.47h-6V127q0-4.18-1.18-6a4.34 4.34 0 0 0-4-1.87 4.8 4.8 0 0 0-4 2.36 9.63 9.63 0 0 0-1.65 5.66v14.38h-6v-15q0-7.42-5.24-7.42a4.73 4.73 0 0 0-4 2.23 9.84 9.84 0 0 0-1.57 5.79v14.38h-6V114.9h6v4.2h.1a9.21 9.21 0 0 1 8.38-4.83 7.9 7.9 0 0 1 4.81 1.52 7.56 7.56 0 0 1 2.82 4q3-5.5 8.82-5.5 8.77 0 8.77 10.82ZM380 142.09a13.17 13.17 0 0 1-9.82-3.72 13.45 13.45 0 0 1-3.67-9.87q0-6.7 3.83-10.46t10.32-3.76q6.23 0 9.71 3.66t3.48 10.15q0 6.36-3.75 10.19t-10.1 3.81Zm.29-23a6.87 6.87 0 0 0-5.58 2.47 10.32 10.32 0 0 0-2.05 6.8 9.72 9.72 0 0 0 2.08 6.58 7 7 0 0 0 5.55 2.4 6.62 6.62 0 0 0 5.46-2.36q1.91-2.36 1.91-6.72t-1.91-6.77a6.59 6.59 0 0 0-5.43-2.42ZM399.74 141.47v-37.21h10.74q20.58 0 20.58 18.14 0 8.62-5.71 13.84T410 141.47Zm6.15-32v26.76h4.93q6.51 0 10.13-3.58t3.62-10.12q0-13.05-13.52-13.05ZM436.72 141.47v-37.21h11.81q5.4 0 8.55 2.36a7.34 7.34 0 0 1 3.15 6.15 8.78 8.78 0 0 1-1.79 5.5 9.66 9.66 0 0 1-5 3.32v.1a9.72 9.72 0 0 1 6.14 2.84 8.66 8.66 0 0 1 2.3 6.24 9.37 9.37 0 0 1-3.76 7.73 14.9 14.9 0 0 1-9.5 3Zm6.15-32.26v10.59h4a7.68 7.68 0 0 0 5-1.52 5.27 5.27 0 0 0 1.83-4.29q0-4.77-6.38-4.77Zm0 15.54v11.78h5.27a8 8 0 0 0 5.33-1.6 5.46 5.46 0 0 0 1.88-4.4q0-5.79-8-5.79Z"/></g></g></svg>