<svg xmlns="http://www.w3.org/2000/svg" viewBox="0 0 461.65 180"><defs><style>.cls-2{fill:#5293ce}.cls-3{fill:#205b97}.cls-4{fill:#201c1d}</style></defs><g id="Layer_2" data-name="Layer 2"><g id="Layer_1-2" data-name="Layer 1"><path d="M64.15 0h35.23v178.48c0 1.45 0 1.49-1.44 1.49H64.13v-2Q64.15 89 64.15 0Z" style="fill:#2d72b7"/><path class="cls-2" d="M64.13 180h33.8c1.4 0 1.43 0 1.44-1.49s0-2.9 0-4.35V.03h.43a16.47 16.47 0 0 0 2.76 1.49q10.86 5.46 21.75 10.86a1.81 1.81 0 0 1 1.17 1.9v151.61a1.81 1.81 0 0 1-1.18 1.9c-7.69 3.8-15.35 7.65-23 11.49a3.86 3.86 0 0 0-1.3.8H63.54Z"/><path class="cls-3" d="M64.13 180h-.59c-8.07-4-16.12-8.08-24.21-12.09A2 2 0 0 1 38 165.8V31.33c0-5.53.06-11.07 0-16.6a2.42 2.42 0 0 1 1.56-2.58C47.19 8.41 54.74 4.6 62.31.81c.48-.24.94-.54 1.4-.81h.43v178c.01.66 0 1.31-.01 2ZM0 147.87V32l11.88-6a4.17 4.17 0 0 1 1.39-.56v128.89c-2.84-1.41-5.66-2.83-8.51-4.22A48.83 48.83 0 0 0 0 147.87Z"/><path class="cls-4" d="M461.65 84.37a2.88 2.88 0 0 1-2.76 1.32c-2.1-.05-4.2 0-6.31 0s-2.45-.5-2.45-2.42v-26.2a15.24 15.24 0 0 0-.76-4.67 3.92 3.92 0 0 0-3.56-3 4.46 4.46 0 0 0-4.49 2.42 14.77 14.77 0 0 0-1.82 7.27c-.05 8 0 16 0 24 0 1.9-.46 2.36-2.36 2.36h-7.18c-1.38 0-2-.61-2-2V41.38c0-1.43.61-2 2.06-2h6.74c1.51 0 2.06.58 2.07 2.1s0 3 0 4.63a6.41 6.41 0 0 0 1.17-1.93 9.94 9.94 0 0 1 6.35-5.31c7.25-1.8 13.65 1.82 14.65 9.19a24.47 24.47 0 0 1 .42 4.41c0 .28 0 .59.21.81Z"/><path d="M461.65 106.12h-10.54c-1.42 0-1.42 0-1.42 1.38v32.59c0 1.47 0 1.47-1.45 1.47h-3c-.79 0-1-.27-1-1v-33.03c0-1.43 0-1.43-1.38-1.43h-9.56c-.81 0-1.12-.23-1-1 .12-1.14-.49-2.62.25-3.34s2.14-.19 3.25-.2h25.86Z"/><path class="cls-3" d="M125.51 148.3V31.26l15.8-3.79c2.91-.69 5.83-1.37 8.75-2.05v128.75c-3.08-.58-6.11-1.4-9.16-2.14Z"/><path class="cls-4" d="M253.77 45c2.48-4.32 5.9-6.64 11-6.57s8.16 3 10.3 7.51c.5-.83.89-1.54 1.33-2.22a12 12 0 0 1 18.3-1.91 10.21 10.21 0 0 1 3 6.74c.52 5.85.15 11.72.21 17.58s0 11.52 0 17.28c0 1.56-.45 2-2 2h-7.61c-1.25 0-1.91-.59-1.92-1.81 0-7.94-.05-15.87 0-23.81a58.45 58.45 0 0 0-.24-6.77c-.31-2.92-2.85-4.26-5.52-3.56a5.37 5.37 0 0 0-4.05 4.57 24.76 24.76 0 0 0-.46 5.05v23.91c0 2-.45 2.41-2.42 2.41h-6.79c-1.75 0-2.26-.5-2.26-2.24V58.27a19.26 19.26 0 0 0-.4-5.38 4.52 4.52 0 0 0-4-3.58 4.81 4.81 0 0 0-5 3.14 14.43 14.43 0 0 0-.83 4.43c-.45 8.94-.07 17.88-.2 26.82 0 1.25-.42 1.68-1.7 1.69h-7.61c-1.58 0-2-.41-2-2V41.32c0-1.72.33-2 2-2h7c1.42 0 1.9.48 1.91 1.87s-.04 2.57-.04 3.81Z"/><path class="cls-2" d="M150 154.18V25.43a2.19 2.19 0 0 1 1.32.42c3.69 1.84 7.36 3.71 11.07 5.51a1.75 1.75 0 0 1 1.1 1.85v112.9a2.24 2.24 0 0 1-1.49 2.38c-3.66 1.74-7.25 3.6-10.89 5.4-.28.2-.62.63-1.11.29Z"/><path class="cls-4" d="M340.53 61.63c0 2.9.06 5.29 0 7.68a10.88 10.88 0 0 0 2.8 7.51 1.9 1.9 0 0 1-.28 3.05c-1.64 1.41-3.26 2.85-4.83 4.34-1.83 1.75-2.46 1.77-4.29 0a15.93 15.93 0 0 1-2.74-3.2c-.43-.74-.78-.81-1.35-.15A15.87 15.87 0 0 1 319 85.88a17.08 17.08 0 0 1-6.84-.78 10.83 10.83 0 0 1-7.06-8.61 16.35 16.35 0 0 1 .78-9.95 14 14 0 0 1 9-8 62.9 62.9 0 0 1 10.77-2.19 11.49 11.49 0 0 0 2.48-.2c.4-.14.61-.28.63-.72a15.37 15.37 0 0 0-.51-5.14c-.89-2.78-4.14-3.58-6.06-3.25a6.36 6.36 0 0 0-5.38 5.1c-.34 1.32-.94 1.63-2.29 1.44-2.1-.3-4.21-.55-6.33-.72-1.63-.13-2.34-.9-2-2.46a14.12 14.12 0 0 1 8.89-10.67 22.77 22.77 0 0 1 16.5-.56c5.81 2.11 8.41 5.45 8.73 12.13.21 3.61.16 7.22.22 10.33Zm-11.75 4.56V63.8c0-.58-.29-.84-.8-.72-1.27.31-2.58.12-3.86.41-2.07.47-4.11 1.07-5.48 2.75a7.84 7.84 0 0 0-1.17 8.13 4.62 4.62 0 0 0 1.4 2c2.64 2.18 6.12.54 7.52-1.38a14 14 0 0 0 2.39-8.8ZM233.33 59.93v9a11.47 11.47 0 0 0 2.92 7.82 1.94 1.94 0 0 1-.08 2.88q-3 2.74-6.05 5.4a1.75 1.75 0 0 1-2.42-.03 18.76 18.76 0 0 1-3.7-4.22c-.31-.42-.45-.72-1-.15a15.45 15.45 0 0 1-9.83 5.16c-4.36.47-8.65.15-12-3.25a12.59 12.59 0 0 1-3.33-7.45 15.94 15.94 0 0 1 .44-6.84 13.75 13.75 0 0 1 9.72-9.74 63.94 63.94 0 0 1 10.67-2.17 12.73 12.73 0 0 0 2.48-.19c.46-.15.66-.33.66-.81a18 18 0 0 0-.51-4.93c-.76-2.74-4-3.77-6.06-3.38-2.92.55-4.88 2.19-5.42 5.26a1.67 1.67 0 0 1-2 1.36c-2.21-.3-4.42-.59-6.63-.82-1.66-.17-2.21-.89-1.82-2.52 1.62-6.85 6.2-10.51 12.86-11.81a22.85 22.85 0 0 1 11.15.22c3.42 1 6.6 2.57 8.43 5.93a13.06 13.06 0 0 1 1.52 6c.05 3.12-.01 6.2 0 9.28Zm-23.26 11.41a6.26 6.26 0 0 0 .7 3.58 4.44 4.44 0 0 0 4.34 2.47 6.55 6.55 0 0 0 5.21-3.75 19.3 19.3 0 0 0 1.47-10c0-.51-.37-.61-.75-.54a41.75 41.75 0 0 0-5 .7c-3.87 1.12-6.16 3.31-5.97 7.54ZM384.89 62.74c-.11-5.76.83-10.85 3.48-15.53s6.5-7.74 11.94-8.52a17.4 17.4 0 0 1 12.07 2.22 18.58 18.58 0 0 1 7.27 8.88A32.78 32.78 0 0 1 422 64.73 26.34 26.34 0 0 1 417.36 79a16.63 16.63 0 0 1-13.75 7.33 16.12 16.12 0 0 1-12.69-5.24 22.48 22.48 0 0 1-5.36-11.28 27.8 27.8 0 0 1-.67-7.07Zm19.3 14.67a4.35 4.35 0 0 0 3.13-2c1.87-2.55 2.2-5.54 2.31-8.52a66.07 66.07 0 0 0 .07-8.1 34.46 34.46 0 0 0-1.34-7.79c-.85-2.61-3-3.53-5.48-3.56-2 0-3.22 1.21-4.12 2.87a17.21 17.21 0 0 0-1.66 7.85 57.27 57.27 0 0 0 .41 10.92 16 16 0 0 0 1.72 5.65c.95 1.69 2.26 2.72 4.96 2.68ZM365.32 48.71H352.2c-1.37 0-1.87-.28-2-1.59a29 29 0 0 1 0-6.59c.15-1.06.8-1.38 1.73-1.38h25.75c1.9 0 2.36.46 2.36 2.35 0 1-.07 2 0 2.93a7.79 7.79 0 0 1-1.71 5.32c-2.87 4.06-5.64 8.19-8.44 12.29L365 69.27c-.16.23-.48.44-.35.75s.57.22.87.21a28.09 28.09 0 0 1 13.63 3.24A2.91 2.91 0 0 1 381 76.3v6.19c0 1.56-1 2.21-2.43 1.53a31.7 31.7 0 0 0-9.63-3.08 29.32 29.32 0 0 0-15.37 1.93c-1 .42-2 .92-3.08 1.31a1.35 1.35 0 0 1-1.84-1.1c0-2.89-.3-5.79.18-8.66a9.91 9.91 0 0 1 1.94-3.83q7-10.39 14-20.76a2.78 2.78 0 0 0 .55-1.12Z"/><path d="M266.38 121.82v-18.36c0-1 .15-1.37 1.31-1.53a65.31 65.31 0 0 1 12.4-.55c4.47.24 8.81 1.15 12.48 4a16.57 16.57 0 0 1 6.39 10.53 24.42 24.42 0 0 1-1.7 14.92 16.91 16.91 0 0 1-10 9.23 39.13 39.13 0 0 1-9.13 1.79c-3 .28-6-.16-9-.1-.74 0-1.48-.26-2.25-.2-.53 0-.56-.33-.55-.72V138q.05-8.09.05-16.18Zm5.44-.12v14.77c0 .39-.18.9.53 1a30.18 30.18 0 0 0 10.26-.6 13.37 13.37 0 0 0 9.32-7.47 20.54 20.54 0 0 0 1.3-12.8 12.6 12.6 0 0 0-2.91-6.14c-2.86-3.22-6.63-4.55-10.83-4.72a38.73 38.73 0 0 0-6.42.17c-1 .12-1.28.42-1.27 1.39.04 4.77.01 9.58.01 14.4ZM341.83 121.53v-18.8c0-1 .28-1.26 1.22-1.19a23.16 23.16 0 0 0 3.15 0c.84-.05 1.12.2 1.11 1.08v14.35c0 1.13.33 1.37 1.39 1.36 5.47-.05 10.94 0 16.41 0 .89 0 1.17-.22 1.16-1.14v-14.45c0-1 .29-1.25 1.23-1.19 1.15.08 2.32 0 3.48 0 .56 0 .81.18.76.75v37.93c0 1.12-.31 1.46-1.39 1.36a17.47 17.47 0 0 0-2.93 0c-.89.07-1.17-.22-1.16-1.14v-16.19c0-1.38 0-1.39-1.42-1.39h-16.3c-.94 0-1.23.21-1.22 1.19v16.3c0 1-.31 1.31-1.28 1.24a23.69 23.69 0 0 0-3.15 0c-.8 0-1.06-.21-1-1v-10.11q-.06-4.49-.06-8.96ZM215 122.44c3.36 1.51 4.74 4.25 5.48 7.31a98.49 98.49 0 0 0 3 11c.24.66.11.89-.62.86h-3.8a1 1 0 0 1-1.17-.81 62.32 62.32 0 0 1-2.59-9.4 10.29 10.29 0 0 0-2.41-5 6.76 6.76 0 0 0-4.73-2c-1.41-.08-2.83 0-4.24 0-.85 0-1 .28-1 1.06v14.89c0 1-.26 1.35-1.26 1.26a17.41 17.41 0 0 0-2.82 0c-.88.07-1.2-.19-1.18-1.13.06-2.5 0-5 0-7.5v-28.7c0-2.14 0-2.17 2-2.46a50.34 50.34 0 0 1 10.58-.41c2.7.19 5.44.63 7.72 2.32a9.59 9.59 0 0 1 4.26 7.83 11 11 0 0 1-2.41 7.62 11.39 11.39 0 0 1-3.74 2.83c-.26.12-.59.23-1.07.43Zm-12.1-9.38v6.3c0 .63.15.94.84.89 2-.12 4 .07 5.94-.19 4.68-.6 7.15-3.25 7.13-7.92a5.8 5.8 0 0 0-3.32-5.39c-3.15-1.67-6.49-1.48-9.87-.92-.63.1-.74.37-.73.92.01 2.11-.01 4.25-.01 6.31ZM233.76 121.59v-18.91c0-.91.26-1.15 1.15-1.15q9.73.05 19.45 0c.87 0 1.26.18 1.17 1.12a15.22 15.22 0 0 0 0 2.5c.05.77-.24 1-1 1h-14c-1 0-1.37.21-1.34 1.3.08 3.37.05 6.74 0 10.11 0 .82.25 1 1 1h13.37c.78 0 1.13.17 1.06 1a14.89 14.89 0 0 0 0 2.39c.06.78-.25 1-1 1h-13.15c-1 0-1.35.23-1.34 1.3.07 3.91.06 7.82 0 11.74 0 .92.28 1.14 1.17 1.14h14.89c.88 0 1.24.21 1.16 1.14a18.15 18.15 0 0 0 0 2.61c0 .69-.25.85-.89.85h-20.87c-.89 0-.88-.45-.88-1.08q.06-9.65.05-19.06ZM318.11 142a20.7 20.7 0 0 1-10.2-2.39c-.56-.3-.73-.53-.46-1.15.41-1 .67-2 1.05-2.93.22-.55.42-.47.76-.27a22 22 0 0 0 7.75 2.36c2.72.45 7-1.25 8.14-3.42a6.7 6.7 0 0 0-3.2-9.59c-1.94-1-4-1.54-6-2.44-3-1.4-5.69-3.19-7.16-6.37a10.79 10.79 0 0 1 1.82-10.8c2.68-2.87 6.05-4 9.84-4.13a20.09 20.09 0 0 1 8.73 1.53c.57.24.79.45.51 1.11-.41 1-.7 2-1 3.05-.15.47-.29.77-.89.44a13.51 13.51 0 0 0-6.39-1.65c-2.82 0-5.51.5-7.12 3.09s-.92 6.1 2.63 8.13c2.62 1.5 5.54 2.36 8.16 3.86s5.08 3.4 5.93 6.61c1.59 6-1 11.71-7 13.88a16.54 16.54 0 0 1-5.9 1.08ZM402.72 121.51V102.7c0-.88.21-1.17 1.13-1.17q9.68.06 19.35 0c.88 0 1.14.28 1.07 1.11a15 15 0 0 0 0 2.39c.07.85-.22 1.11-1.09 1.1h-13.59c-1.43 0-1.43 0-1.43 1.38v10.65c0 .82.24 1 1 1h12.94c.79 0 1.13.18 1.05 1a14.92 14.92 0 0 0 0 2.39c.06.79-.26 1-1 1h-12.83c-1 0-1.22.24-1.21 1.2v15.65c0 .91-.17 1.32-1.18 1.23a22.18 22.18 0 0 0-3.26 0c-.83.05-1-.25-1-1 .06-6.44.05-12.78.05-19.12ZM384.45 121.5v-18.8c0-.89.21-1.23 1.14-1.16a22.84 22.84 0 0 0 3.26 0c.9-.06 1.1.3 1.07 1.12-.05 1.66 0 3.33 0 5v32.61c0 1-.23 1.43-1.31 1.33a19.84 19.84 0 0 0-3.15 0c-.85.06-1-.28-1-1.06.01-6.36-.01-12.7-.01-19.04Z"/><path class="cls-2" d="M13.27 25.47c2.91.48 5.74 1.33 8.6 2C27.26 28.75 32.64 30 38 31.32v116.97l-24.13 5.88c-.21.05-.41.12-.62.19q.02-64.44.02-128.89Z"/></g></g></svg>