<svg xmlns="http://www.w3.org/2000/svg" viewBox="0 0 500 552.9" style="enable-background:new 0 0 500 552.9" xml:space="preserve"><switch><g><linearGradient id="a" gradientUnits="userSpaceOnUse" x1="91.287" y1="178.884" x2="330.51" y2="178.884"><stop offset="0" style="stop-color:#d25535"/><stop offset="1" style="stop-color:#e08b20"/></linearGradient><path d="M325.7 93c2.7 0 4.8-2.2 4.8-4.8V51.8C330.5 23 278 .5 210.9.5S91.3 23 91.3 51.8V306c0 28.8 52.5 51.3 119.6 51.3s119.6-22.5 119.6-51.3v-6.1c0-2.7-2.2-4.8-4.8-4.8-2.7 0-4.8 2.2-4.8 4.8v6.1c0 20.1-44.2 41.6-109.9 41.6S101 326.1 101 306v-60.2c18.2 18.2 60 30.7 109.9 30.7 8.4 0 16.9-.4 25.1-1.1 2.7-.2 4.6-2.6 4.4-5.3-.2-2.7-2.6-4.6-5.3-4.4-7.9.7-16 1.1-24.2 1.1-65.7 0-109.9-21.5-109.9-41.6v-63.5c18.2 18.2 60 30.7 109.9 30.7 8.5 0 16.9-.4 25.1-1.1 2.7-.2 4.6-2.6 4.4-5.3-.2-2.7-2.6-4.6-5.3-4.4-7.9.7-16.1 1.1-24.3 1.1-65.7 0-109.9-21.5-109.9-41.6V72.4c18.2 18.2 60 30.7 109.9 30.7s91.8-12.5 109.9-30.7v15.8c.1 2.6 2.3 4.8 5 4.8zm-114.8.4C145.2 93.4 101 71.9 101 51.8s44.2-41.6 109.9-41.6 109.9 21.5 109.9 41.6-44.2 41.6-109.9 41.6z" style="fill:url(#a)"/><linearGradient id="b" gradientUnits="userSpaceOnUse" x1="259.929" y1="195.628" x2="444.246" y2="195.628"><stop offset="0" style="stop-color:#d25535"/><stop offset="1" style="stop-color:#e08b20"/></linearGradient><path d="M406 164.2c-.1-.4-.2-.8-.4-1.2 0-.1-.1-.2-.2-.3-.2-.4-.5-.7-.8-1l-24.4-24.4-16.2-16.2-16.2-16.2c-.9-.9-2.1-1.4-3.4-1.4H265c-2.7 0-4.8 2.2-4.8 4.8v142.2c0 2.7 2.2 4.8 4.8 4.8h11.3v11.3c0 2.7 2.2 4.8 4.8 4.8h11.3v11.3c0 2.7 2.2 4.8 4.8 4.8h103.9c2.7 0 4.8-2.2 4.8-4.8V165.1c.2-.3.1-.6.1-.9zm-24.4-11.8 7.9 7.9h-7.9v-7.9zm-111.7 93.3V113.2h72.5l6.5 6.5h-67.7c-2.7 0-4.8 2.2-4.8 4.8v121.2h-6.5zm16.2 16.2V129.4h72.5l6.5 6.5h-67.7c-2.7 0-4.8 2.2-4.8 4.8v121.2h-6.5zm16.1 16.2V145.5h69.7v19.6c0 2.7 2.2 4.8 4.8 4.8h19.6V278h-94.1z" style="fill:url(#b)"/><linearGradient id="c" gradientUnits="userSpaceOnUse" x1="259.929" y1="217.044" x2="444.246" y2="217.044"><stop offset="0" style="stop-color:#d25535"/><stop offset="1" style="stop-color:#e08b20"/></linearGradient><path d="M339 187.7c2.3-1.3 3.2-4.3 1.9-6.6-1.3-2.3-4.3-3.2-6.6-1.9-.4.2-10.5 6-10.5 20.4 0 11.4-5.7 12.3-7.5 12.6-2.4.4-4.1 2.4-4.1 4.8s1.7 4.4 4.1 4.8c1.9.3 7.5 1.2 7.5 12.6 0 14.4 10 20.2 10.5 20.4.7.4 1.6.6 2.4.6 1.7 0 3.4-.9 4.2-2.5 1.3-2.3.5-5.3-1.9-6.6-.1 0-5.5-3.3-5.5-11.9 0-8.8-2.7-14.1-6-17.4 3.3-3.2 6-8.6 6-17.4 0-8.5 5.3-11.8 5.5-11.9z" style="fill:url(#c)"/><linearGradient id="d" gradientUnits="userSpaceOnUse" x1="259.929" y1="217.044" x2="444.246" y2="217.044"><stop offset="0" style="stop-color:#d25535"/><stop offset="1" style="stop-color:#e08b20"/></linearGradient><path d="M382.4 212.3c-1.9-.3-7.5-1.2-7.5-12.6 0-14.4-10-20.2-10.5-20.4-2.3-1.3-5.3-.5-6.6 1.9-1.3 2.3-.5 5.3 1.9 6.6.1 0 5.5 3.3 5.5 11.9 0 8.8 2.7 14.1 6 17.4-3.3 3.2-6 8.6-6 17.4 0 8.4-5.2 11.8-5.5 12-2.3 1.3-3.1 4.2-1.8 6.6.9 1.6 2.5 2.5 4.2 2.5.8 0 1.6-.2 2.4-.6.4-.2 10.5-6 10.5-20.4 0-11.4 5.7-12.3 7.5-12.6 2.4-.4 4.1-2.4 4.1-4.8-.2-2.5-1.9-4.6-4.2-4.9z" style="fill:url(#d)"/><path d="m135.4 457-5.7-15.8H108l-5.6 15.8h-9.8l21.3-57.1H124l21.3 57.1h-9.9zm-8.2-23.8-5.3-15.5c-.4-1-.9-2.7-1.6-4.9-.7-2.2-1.2-3.9-1.4-4.9-.7 3.2-1.7 6.7-3.1 10.5l-5.1 14.8h16.5zM188 457h-9.2v-26.5c0-3.3-.6-5.7-1.9-7.4-1.2-1.6-3.2-2.4-5.8-2.4-3.5 0-6.1 1.1-7.8 3.4-1.6 2.3-2.5 6.1-2.5 11.4V457h-9.1v-43h7.2l1.3 5.6h.5c1.2-2 2.9-3.6 5.2-4.7 2.3-1.1 4.8-1.7 7.5-1.7 6.6 0 11 2.3 13.1 6.8h.6c1.3-2.1 3.1-3.8 5.4-5 2.3-1.2 4.9-1.8 7.9-1.8 5.1 0 8.9 1.3 11.2 3.9 2.3 2.6 3.5 6.5 3.5 11.9v28H206v-26.5c0-3.3-.6-5.7-1.9-7.4-1.3-1.6-3.2-2.4-5.9-2.4-3.6 0-6.1 1.1-7.8 3.3-1.6 2.2-2.5 5.6-2.5 10.2V457zM254.8 457l-1.8-6h-.3c-2.1 2.6-4.2 4.4-6.3 5.3-2.1.9-4.8 1.4-8.1 1.4-4.2 0-7.5-1.1-9.9-3.4-2.4-2.3-3.6-5.5-3.6-9.7 0-4.4 1.6-7.8 4.9-10 3.3-2.3 8.3-3.5 15-3.7l7.4-.2v-2.3c0-2.7-.6-4.8-1.9-6.2-1.3-1.4-3.3-2-6-2-2.2 0-4.3.3-6.3 1-2 .6-4 1.4-5.8 2.3l-3-6.5c2.3-1.2 4.9-2.1 7.7-2.8 2.8-.6 5.4-1 7.9-1 5.5 0 9.6 1.2 12.4 3.6 2.8 2.4 4.2 6.1 4.2 11.2v29h-6.5zm-13.6-6.2c3.3 0 6-.9 8-2.8s3-4.5 3-7.8v-3.7l-5.5.2c-4.3.2-7.4.9-9.4 2.2-2 1.3-2.9 3.2-2.9 5.9 0 1.9.6 3.4 1.7 4.4 1.1 1.1 2.8 1.6 5.1 1.6zM302.8 457h-32.6v-5.6l21.7-30.4h-20.4v-7h30.7v6.4L280.9 450h21.9v7zM350.3 435.4c0 7-1.8 12.5-5.4 16.4-3.6 3.9-8.6 5.9-15 5.9-4 0-7.6-.9-10.7-2.7-3.1-1.8-5.5-4.4-7.1-7.8-1.7-3.4-2.5-7.3-2.5-11.8 0-7 1.8-12.4 5.4-16.3 3.6-3.9 8.6-5.9 15.1-5.9 6.2 0 11.1 2 14.8 6 3.5 4 5.4 9.4 5.4 16.2zm-31.3 0c0 9.9 3.7 14.9 11 14.9s10.9-5 10.9-14.9c0-9.8-3.7-14.7-11-14.7-3.8 0-6.6 1.3-8.3 3.8-1.8 2.5-2.6 6.2-2.6 10.9zM398.6 457h-9.2v-26.4c0-3.3-.7-5.8-2-7.4-1.3-1.6-3.5-2.5-6.4-2.5-3.9 0-6.7 1.1-8.5 3.4-1.8 2.3-2.7 6.1-2.7 11.5V457h-9.1v-43h7.2l1.3 5.6h.5c1.3-2 3.1-3.6 5.5-4.7s5-1.7 7.9-1.7c10.3 0 15.5 5.2 15.5 15.7V457zM46.5 523.6c0 9.4-2.6 16.6-7.8 21.5-5.2 5-12.7 7.4-22.5 7.4H.3v-56.8h17.6c9 0 16.1 2.4 21.1 7.3s7.5 11.7 7.5 20.6zm-9.8.3c0-13.6-6.4-20.4-19.1-20.4h-8v41.2h6.6c13.7 0 20.5-6.9 20.5-20.8zM95.9 531c0 7-1.8 12.5-5.4 16.4-3.6 3.9-8.6 5.9-15 5.9-4 0-7.6-.9-10.7-2.7-3.1-1.8-5.5-4.4-7.1-7.8-1.7-3.4-2.5-7.3-2.5-11.8 0-7 1.8-12.4 5.4-16.3 3.6-3.9 8.6-5.9 15.1-5.9 6.2 0 11.1 2 14.8 6 3.6 4 5.4 9.4 5.4 16.2zm-31.3 0c0 9.9 3.7 14.9 11 14.9s10.9-5 10.9-14.9c0-9.8-3.7-14.7-11-14.7-3.8 0-6.6 1.3-8.3 3.8-1.8 2.5-2.6 6.1-2.6 10.9zM123.7 553.3c-6.5 0-11.4-1.9-14.8-5.7-3.4-3.8-5.1-9.2-5.1-16.3 0-7.2 1.8-12.8 5.3-16.7 3.5-3.9 8.6-5.8 15.3-5.8 4.5 0 8.6.8 12.2 2.5l-2.8 7.3c-3.9-1.5-7-2.3-9.6-2.3-7.4 0-11.2 4.9-11.2 14.8 0 4.8.9 8.4 2.8 10.9 1.9 2.4 4.6 3.6 8.1 3.6 4.1 0 7.9-1 11.5-3v8c-1.6 1-3.4 1.6-5.2 2.1-1.6.4-3.9.6-6.5.6zM176.1 552.5l-1.3-5.6h-.5c-1.3 2-3.1 3.6-5.4 4.7-2.3 1.1-5 1.7-8 1.7-5.2 0-9.1-1.3-11.7-3.9-2.6-2.6-3.8-6.5-3.8-11.8v-28.1h9.2V536c0 3.3.7 5.8 2 7.4s3.5 2.5 6.3 2.5c3.8 0 6.7-1.1 8.5-3.4 1.8-2.3 2.7-6.1 2.7-11.5v-21.4h9.2v43h-7.2zM232.5 552.5h-9.2V526c0-3.3-.6-5.7-1.9-7.4-1.2-1.6-3.2-2.4-5.8-2.4-3.5 0-6.1 1.1-7.8 3.4-1.6 2.3-2.5 6.1-2.5 11.4v21.4h-9.1v-43h7.2l1.3 5.6h.5c1.2-2 2.9-3.6 5.2-4.7 2.3-1.1 4.8-1.7 7.5-1.7 6.6 0 11 2.3 13.1 6.8h.6c1.3-2.1 3.1-3.8 5.4-5 2.3-1.2 4.9-1.8 7.9-1.8 5.1 0 8.9 1.3 11.2 3.9 2.3 2.6 3.5 6.5 3.5 11.9v28h-9.1V526c0-3.3-.6-5.7-1.9-7.4-1.3-1.6-3.2-2.4-5.9-2.4-3.6 0-6.1 1.1-7.8 3.3-1.6 2.2-2.5 5.6-2.5 10.2v22.8zM291.2 553.3c-6.7 0-11.9-1.9-15.7-5.8-3.8-3.9-5.7-9.3-5.7-16.1 0-7 1.7-12.5 5.2-16.6 3.5-4 8.3-6 14.4-6 5.7 0 10.2 1.7 13.5 5.2 3.3 3.4 4.9 8.2 4.9 14.2v4.9h-28.6c.1 4.2 1.3 7.4 3.4 9.6 2.1 2.2 5.1 3.4 9 3.4 2.5 0 4.9-.2 7.1-.7s4.5-1.3 7.1-2.4v7.4c-2.2 1.1-4.5 1.8-6.8 2.3-2.3.4-4.9.6-7.8.6zm-1.7-37.6c-2.9 0-5.2.9-7 2.8-1.7 1.8-2.8 4.5-3.1 8h19.5c-.1-3.5-.9-6.2-2.6-8.1-1.6-1.8-3.9-2.7-6.8-2.7zM356.1 552.5H347v-26.4c0-3.3-.7-5.8-2-7.4-1.3-1.6-3.5-2.5-6.4-2.5-3.9 0-6.7 1.1-8.5 3.4-1.8 2.3-2.7 6.1-2.7 11.5v21.4h-9.1v-43h7.2l1.3 5.6h.5c1.3-2 3.1-3.6 5.5-4.7s5-1.7 7.9-1.7c10.3 0 15.5 5.2 15.5 15.7v28.1zM384.9 545.9c2.2 0 4.5-.4 6.7-1.1v6.9c-1 .4-2.3.8-3.9 1.1-1.6.3-3.2.4-5 .4-8.7 0-13-4.6-13-13.7v-23.2h-5.9v-4l6.3-3.3 3.1-9.1h5.6v9.6H391v6.9h-12.2v23c0 2.2.5 3.8 1.7 4.9 1.1 1.1 2.6 1.6 4.4 1.6zM447.3 523.6c0 9.4-2.6 16.6-7.8 21.5-5.2 5-12.7 7.4-22.5 7.4h-15.9v-56.8h17.6c9 0 16.1 2.4 21.1 7.3s7.5 11.7 7.5 20.6zm-9.8.3c0-13.6-6.4-20.4-19.1-20.4h-8v41.2h6.6c13.7 0 20.5-6.9 20.5-20.8zM459.5 495.7h16.9c7.8 0 13.5 1.1 17 3.4s5.2 5.9 5.2 10.8c0 3.3-.9 6.1-2.6 8.3-1.7 2.2-4.2 3.6-7.4 4.2v.4c4 .8 6.9 2.2 8.8 4.5 1.9 2.2 2.8 5.2 2.8 9 0 5.1-1.8 9.1-5.3 12-3.6 2.9-8.5 4.3-14.9 4.3h-20.5v-56.9zm9.3 23.5h8.9c3.9 0 6.7-.6 8.5-1.8 1.8-1.2 2.7-3.3 2.7-6.3 0-2.7-1-4.6-2.9-5.8-1.9-1.2-5-1.8-9.2-1.8h-8v15.7zm0 7.5v18h9.9c3.9 0 6.8-.7 8.8-2.2 2-1.5 3-3.8 3-7.1 0-3-1-5.1-3-6.6s-5.1-2.1-9.2-2.1h-9.5z"/></g></switch></svg>