<svg version="1.1" id="Layer_1" xmlns="http://www.w3.org/2000/svg" x="0" y="0" viewBox="0 0 382.9 161.1" style="enable-background:new 0 0 382.9 161.1" xml:space="preserve"><style>.st0{fill:#201c1d}.st1{fill:#2d72b7}.st2{fill:#5294ce}</style><g id="Layer_2"><g id="Layer_1-2"><path id="path12" class="st0" d="M289.2 45.4v-5c0-.7.5-1.3 1.2-1.3H313.1c.7 0 1.3.5 1.3 1.2V44.7c0 .7-.6 1.7-1.7 3.2L301 64.6c4.5-.3 8.9.7 12.9 2.8.7.4 1.2 1.2 1.2 2v5.4c0 .7-.8 1.6-1.7 1.2-7.5-3.9-16.4-3.9-23.9 0-.8.4-1.6-.4-1.6-1.2v-5.1c-.1-1.2.2-2.4.8-3.5l13.5-19.4h-11.8c-.6-.1-1.1-.6-1.2-1.4 0 .1 0 0 0 0"/><path id="path14" class="st0" d="M206.9 76.9H200c-.6 0-1.2-.5-1.2-1.2V40.5c0-.7.6-1.3 1.3-1.3h6.4c.7 0 1.2.5 1.3 1.2V45h.1c1.7-4.5 4.8-6.5 9-6.5s7 2.1 8.9 6.5c2-5.2 7.8-7.9 13.1-5.9 1.7.7 3.2 1.8 4.4 3.2 2.2 3 1.7 7.3 1.7 11v22.3c0 .7-.6 1.3-1.3 1.3h-6.9c-.7 0-1.2-.6-1.2-1.3V56.9c.1-2.2 0-4.4-.2-6.6-.5-2.4-2-3-4-3-1.8.1-3.4 1.2-4.1 2.9-.7 1.8-.6 4.8-.6 6.8v18.7c0 .7-.6 1.3-1.3 1.3h-6.9c-.7 0-1.2-.6-1.2-1.3V56.9c0-3.9.6-9.7-4.2-9.7s-4.7 5.6-4.7 9.7v18.7c-.2.7-.8 1.3-1.5 1.3"/><path id="path16" class="st0" d="M333.8 38.5c10.2 0 15.7 8.8 15.7 19.9 0 10.8-6.1 19.3-15.7 19.3-10 0-15.5-8.8-15.5-19.7s5.6-19.5 15.5-19.5m.1 7.2c-5.1 0-5.4 6.9-5.4 11.2s-.1 13.5 5.3 13.5 5.6-7.4 5.6-11.9c.1-3.1-.2-6.3-1-9.4-.4-2.1-2.4-3.6-4.5-3.4"/><path id="path18" class="st0" d="M362.7 76.9h-6.8c-.7 0-1.2-.6-1.2-1.3V40.4c.1-.7.7-1.2 1.3-1.2h6.4c.6 0 1.1.4 1.2 1v5.4h.1c1.9-4.8 4.6-7.1 9.4-7.1 3.2-.1 6.3 1.4 8 4.2 1.8 2.8 1.8 7.6 1.8 11v22.1c-.1.6-.7 1.1-1.3 1.1h-6.9c-.6 0-1.1-.5-1.2-1.1V56.6c0-3.8.4-9.5-4.3-9.5-1.8.1-3.3 1.2-4 2.8-.8 2.1-1.2 4.4-1.1 6.7v19c-.1.8-.6 1.3-1.4 1.3"/><path class="st0" d="M193.4 70.4c-1.3-1.7-2.6-3.2-2.6-6.4V53.4c0-4.5.3-8.7-3-11.8-2.6-2.5-7-3.4-10.4-3.4-6.5 0-13.8 2.4-15.4 10.5-.1.7.3 1.3 1 1.4l6.7.7c.6-.1 1.1-.6 1.2-1.3.6-2.8 2.9-4.1 5.5-4.1 1.5-.1 2.9.6 3.9 1.8 1 1.4.8 3.3.8 5v.9c-4 .5-9.2.7-12.9 2.4-4.6 1.8-7.5 6.3-7.3 11.2 0 7.1 4.5 10.7 10.3 10.7 4.9 0 7.6-1.2 11.3-5 1 1.8 2.3 3.3 3.9 4.6.5.3 1.2.2 1.6-.2 1.4-1.2 3.9-3.4 5.3-4.6.6-.4.6-1.2.1-1.8zm-13.5-3.1c-.9 1.8-2.7 3-4.8 3.1-2.6 0-4.2-2-4.2-5 0-5.8 5.3-6.9 10.2-6.9V60c.1 2.7.2 5-1.2 7.3zM283.5 70.4c-1.3-1.7-2.6-3.2-2.6-6.4V53.4c0-4.5.3-8.7-3-11.8-2.6-2.5-7-3.4-10.4-3.4-6.5 0-13.8 2.4-15.4 10.5-.1.7.3 1.3.9 1.4h.1l6.7.7c.6-.1 1.1-.6 1.2-1.3.6-2.8 2.9-4.1 5.5-4.1 1.5-.1 2.9.6 3.9 1.8 1 1.4.8 3.3.8 5v.9c-4 .5-9.2.7-12.9 2.4-4.5 1.8-7.5 6.3-7.3 11.2 0 7.1 4.5 10.7 10.3 10.7 4.9 0 7.5-1.2 11.3-5 1 1.8 2.3 3.3 3.9 4.6.5.3 1.2.2 1.6-.2 1.4-1.2 3.9-3.4 5.3-4.6.5-.4.6-1.2.1-1.8zm-13.6-3.1c-.9 1.8-2.7 3-4.8 3.1-2.6 0-4.2-2-4.2-5 0-5.8 5.3-6.9 10.2-6.9V60c.1 2.7.2 5-1.2 7.3z"/></g></g><path class="st1" d="M83.1 151.9c-13 0-25.8.1-38.8.1-.4 0-.7-.1-1.1-.3v-.6c.7-.7.4-1.7.4-2.6v-136c0-.9.3-1.7-.4-2.6v-.6c.4-.1.9-.3 1.4-.3h37.2c.4 0 .9.1 1.1.1 0 1 .1 2.1.1 3.1v105.4c0 11.7 0 23 .1 34.3z"/><path class="st2" d="M83.1 151.9V12.7c0-1 0-2.1-.1-3.1.6-.3.9 0 1.3.3 8.7 4.4 17.5 8.7 26.2 13.1.6.3 1.3.6 1.7 1.3-.7.7-.4 1.7-.4 2.6V135c0 .9-.3 1.7.4 2.6-.3.7-.9.9-1.4 1.1-8.6 4.3-17.3 8.6-25.8 13-.7-.1-1.3.3-1.9.2z"/><path d="M43.2 151.3v.6c-.6.1-.9-.1-1.3-.4-8.6-4.3-17.3-8.6-25.8-13-.4-.1-.7-.6-1.1-.9V23.8c1.9-1.6 4.1-2.3 6.3-3.4 6.6-3.3 13.3-6.7 19.8-10 .7-.3 1.3-1 2.1-.9V151.3z" style="fill:#205b98"/><path d="M14.8 23.8v113.8c-4.7-5.4-9.4-10.8-14.1-16.3-.6-.7-.7-1.6-.7-2.4V42.5c0-.9 0-1.7.7-2.4 4.7-5.4 9.4-10.9 14.1-16.3z" style="fill:#1c4870"/><path class="st1" d="M112.2 137.3c-.7-.7-.4-1.7-.4-2.6V26.6c0-.9-.3-1.7.4-2.6 4.6 5.3 9.1 10.6 13.7 15.8.7.9.9 1.7.9 2.7v76.3c0 1.1-.3 2-1 2.9-4.6 5.2-9.2 10.3-13.6 15.6z"/><path class="st2" d="M43.2 151.3v-141c.7.7.4 1.7.4 2.6v136c0 .7.3 1.7-.4 2.4z"/><path class="st0" d="M160.9 132.6V89.7h15.6c3.3 0 5.7.4 7.2 1.2 1.5.8 2.8 2.1 3.8 4s1.5 4 1.5 6.5c0 3.2-.8 5.9-2.5 7.9s-4.1 3.3-7.4 3.8c1.3.8 2.3 1.6 3 2.4 1.4 1.6 2.6 3.5 3.7 5.5l6.1 11.7H186l-4.7-8.9c-1.8-3.5-3.2-5.8-4.1-7-.9-1.2-1.8-2-2.7-2.4-.9-.4-2.1-.6-3.6-.6h-5.4v19h-4.6zm4.6-24h10c2.2 0 3.8-.3 5-.8 1.1-.5 2-1.4 2.7-2.5.7-1.1 1-2.4 1-3.9 0-2.2-.6-3.9-1.9-5.1-1.3-1.2-3.1-1.9-5.6-1.9h-11.1v14.2zM196.2 132.6V89.7h12.1c3 0 5.3.3 6.8.8 2 .7 3.8 1.9 5.3 3.7 1.5 1.8 2.7 4.1 3.5 6.9.8 2.8 1.3 6 1.3 9.8 0 4.9-.7 9-2.1 12.3-1.4 3.4-3.2 5.8-5.5 7.2-2.2 1.4-5.1 2.1-8.8 2.1h-12.6zm4.7-5.1h7.5c3 0 5.3-.5 6.9-1.5 1.6-1 2.8-2.6 3.6-4.7 1.1-2.9 1.7-6.4 1.7-10.4 0-4.3-.6-7.8-1.8-10.2-1.2-2.5-2.7-4.1-4.5-5-1.2-.6-3.2-.8-5.9-.8H201v32.6zM230.2 118.8l4.4-.5c.2 2.4.8 4.2 1.6 5.5.8 1.3 2 2.4 3.6 3.2 1.5.8 3.3 1.2 5.2 1.2 2.8 0 4.9-.7 6.4-2 1.5-1.4 2.3-3.1 2.3-5.3 0-1.3-.3-2.4-.8-3.3-.6-.9-1.4-1.7-2.5-2.3-1.1-.6-3.5-1.5-7.3-2.6-3.3-1-5.7-2-7.1-3-1.4-1-2.5-2.3-3.3-3.8-.8-1.5-1.2-3.3-1.2-5.2 0-3.5 1.1-6.3 3.4-8.5 2.2-2.2 5.3-3.3 9.1-3.3 2.6 0 4.9.5 6.9 1.5s3.5 2.5 4.6 4.4c1.1 1.9 1.7 4.2 1.7 6.8l-4.5.4c-.2-2.8-1.1-4.9-2.5-6.2-1.4-1.3-3.4-2-6-2s-4.6.6-6 1.8c-1.4 1.2-2.1 2.7-2.1 4.6 0 1.7.5 3.1 1.5 4 1 1 3.3 1.9 6.8 2.9s5.9 1.8 7.3 2.5c2.1 1.1 3.8 2.5 4.9 4.3 1.1 1.8 1.6 3.9 1.6 6.4 0 2.5-.6 4.7-1.7 6.7s-2.7 3.5-4.7 4.6c-2 1.1-4.4 1.6-7.1 1.6-4.3 0-7.8-1.3-10.4-3.9-2.7-2.5-4-6.1-4.1-10.5z"/></svg>