<svg version="1.1" id="design" xmlns="http://www.w3.org/2000/svg" x="0" y="0" viewBox="0 0 138.5 170" style="enable-background:new 0 0 138.5 170" xml:space="preserve"><style>.st0{fill:#1a1918}</style><path class="st0" d="M36.4-112c-.3 0-.6-.1-.8-.4l-9.4-12.4v12.6H24v-15.6c0-.6.5-1.1 1.1-1.1.3 0 .6.1.9.4l9.4 12.4v-12.6h2.1v15.5c0 .7-.5 1.2-1.1 1.2M54.2-111.9c-2.1 0-4.4-.4-6.5-1.2l.5-1.8c1.9.6 4 1.1 6 1.1 2.7 0 4.1-1 4.1-2.3 0-1.2-1.1-1.9-4.9-3.6-3.8-1.8-5.3-2.9-5.3-5.2 0-2.8 2.1-3.9 6.2-3.9 1.7 0 4.3.3 5.8.8l-.3 1.8c-1.6-.4-3.7-.7-5.4-.7-2.9 0-4 .5-4 1.9 0 1.3.9 1.9 4.9 3.8 4.2 2 5.3 2.9 5.3 5-.1 2.9-2.8 4.3-6.4 4.3M70.7-128.6h2.2v16.5h-2.2v-16.5zM91.8-119.6h-5.5v5.6h5.5c1.9 0 3-1.2 3-2.8 0-1.6-1.2-2.8-3-2.8m-1.1-7.1h-4.4v5.3h4.4c1.8 0 3.1-1.1 3.1-2.7 0-1.7-1.1-2.6-3.1-2.6m1.1 14.6h-6.6c-.6 0-1.1-.5-1.1-1.1v-14.3c0-.6.5-1.1 1.1-1.1h5.5c3.4 0 5.4 1.7 5.4 4.3 0 1.4-.8 2.7-2.1 3.5 1.9.6 3.1 2.1 3.1 4 0 2.6-2.2 4.7-5.3 4.7M107.8-112.1c-.6 0-1.1-.5-1.1-1.1v-15.4h2.2v14.5h8.8v2h-9.9zM132.9-111.9c-4.5 0-7.3-1.7-7.3-5.1 0-1.6.9-3.1 2.7-3.9-1.4-.9-2.1-2.2-2.1-3.5 0-3.1 2.4-4.5 6.8-4.5 1.5 0 3.6.2 5.3.6l-.2 1.8c-1.9-.3-3.6-.5-5.3-.5-2.9 0-4.4.8-4.4 2.7 0 1.5 1.4 2.7 3.3 2.7h3.8c.5 0 1 .4 1 .9s-.4 1-1 1h-4.1c-2.1 0-3.5 1.1-3.5 2.7 0 2.4 2.2 3.1 5 3.1 1.5 0 3.6-.2 5.2-.6l.3 1.8c-1.6.5-3.7.8-5.5.8M7.5-125.5l3.9 9.7-5.9-4.7 2-5zm6.9 12-6-14.6c-.2-.4-.5-.6-.9-.6s-.8.2-1 .6l-6.6 16h2.2l2.6-6.6 7.8 6.4c.3.3.5.4.8.4.6 0 1.1-.4 1.1-1.1.1-.2.1-.4 0-.5z" transform="translate(0 281.86)"/><path class="st0" d="M138.5 69.1c0 38.2-30.9 69.1-69.1 69.1C31.2 138.2.3 107.3.3 69.1.3 30.9 31.2 0 69.4 0c38.1 0 69.1 30.9 69.1 69.1"/><path d="m70.5 42.2 17.9 44.1-27-21.3 9.1-22.8zm31.8 54.3L74.8 30.3c-.8-1.9-2.4-2.9-4.3-2.9s-3.6 1-4.4 2.9L36 102.9h10.3l12-29.9L94 101.8c1.4 1.2 2.5 1.7 3.8 1.7 2.7 0 5-2 5-4.9 0-.5-.2-1.3-.5-2.1z" style="fill:#fff"/></svg>