<svg data-name="Layer 1" xmlns="http://www.w3.org/2000/svg" viewBox="0 0 300 137.05"><path d="M45.36 61a25 25 0 0 1 1.18 7.4 23.43 23.43 0 0 1-1.16 7.5l7.79 4.51a18.69 18.69 0 0 1 15.18-5.51 18.21 18.21 0 0 1 11 5 18.63 18.63 0 0 1-18.6 31.27 18.62 18.62 0 0 1-12-22.83l-7.57-4.43a25.27 25.27 0 0 1-12.85 7.61v8.72a18.74 18.74 0 0 1-5.87 36.78 18.45 18.45 0 0 1-17.4-14.73 17.61 17.61 0 0 1 2.53-13.77 19.49 19.49 0 0 1 11.49-8.32v-8.61c-6.54-1.38-11.79-4.66-15.39-10.32A23 23 0 0 1 .06 67.08C.71 57.32 6.88 48.12 19 45.42v-8.57l-1.12-.41c-7.56-2.76-12.19-8.08-13.07-16.08-.73-6.67 1.84-12.28 7.13-16.48A17.55 17.55 0 0 1 24.45.05a18.71 18.71 0 0 1 8.34 34.77c-1.38.79-2.9 1.34-4.46 2v8.4c2.24 1 4.55 1.87 6.74 3A22.06 22.06 0 0 1 41 53.05l7.48-4.4c-2.71-12.34 4.83-20.13 11.71-22.6a18.66 18.66 0 0 1 18.88 31.34c-5.43 5.12-16.65 8-26.1-.78ZM9.67 68.45c-.38 7.26 6.1 13.5 13.22 13.61A13.532 13.532 0 0 0 23.32 55c-7.49-.13-13.97 6.35-13.65 13.45Zm22.11-49.77a8.685 8.685 0 1 0-17.37 0 8.685 8.685 0 0 0 17.37 0Zm-8.67 108.39a8.69 8.69 0 0 0 8.69-8.64 8.695 8.695 0 1 0-17.39 0 8.68 8.68 0 0 0 8.7 8.64Zm52.07-83.49a8.64 8.64 0 0 0-8.63-8.69 8.695 8.695 0 1 0 0 17.39 8.65 8.65 0 0 0 8.63-8.7ZM66.6 84.82a8.62 8.62 0 0 0-8.77 8.55 8.69 8.69 0 1 0 17.38.15 8.63 8.63 0 0 0-8.61-8.7ZM101.94 101.36c-.34-1.63-.29-65.43 0-66.51h8.86v40.09c.87-.79 1.56-1.37 2.2-2 3.07-3 6.14-6.1 9.17-9.19a3.18 3.18 0 0 1 2.55-1.06c3 .07 6 0 9 0 .43 0 .87 0 1.65.1-5.6 5.58-11.14 10.74-16.63 16.2 5.81 7.38 11.77 14.6 17.67 22.09a5.32 5.32 0 0 1-1 .25h-9.53a2.36 2.36 0 0 1-2-1.23l-11-14c-.19-.25-.41-.47-.61-.71a2.4 2.4 0 0 0-1.4 2.48c.06 3.91 0 7.82 0 11.73v1.62c-3.06.25-5.97.1-8.93.14ZM218.52 74.88c1.41-1.38 2.59-2.52 3.76-3.69 2.54-2.53 5.09-5.06 7.6-7.62a2.6 2.6 0 0 1 2.05-.87h10.66c-.35.86-2.85 3.37-5.28 5.56-1.88 1.69-3.63 3.52-5.45 5.28s-3.7 3.55-5.62 5.39l17.76 22.2a5.41 5.41 0 0 1-1 .23h-9.66a1.85 1.85 0 0 1-1.63-.81q-5.46-7-11-14c-.31-.39-.63-.76-.95-1.14a2.15 2.15 0 0 0-1.28 2.17v13.44c-1.21.44-7.77.46-9.08.07V34.85h9c.18 3.34.06 6.63.08 9.93s0 6.63 0 9.94v9.94c.04 3.31.04 6.62.04 10.22Z"/><path d="M282.17 101.27h-8.93c-.61-1.05 0-2.22-.45-3.39-.31.21-.6.37-.86.58a16.82 16.82 0 0 1-21.47.28 19.36 19.36 0 0 1-7.16-13.07 23.16 23.16 0 0 1 1.16-11.94c2.45-6.15 6.71-10.38 13.39-11.69a15.84 15.84 0 0 1 14.06 3.92l1 .9.09-4c3.1-.17 6-.06 9.09-.08a11.65 11.65 0 0 1 .18 1.39v35.88c0 .31-.06.67-.1 1.22Zm-8.67-18.92a12.76 12.76 0 0 0-2.57-8.58 10.36 10.36 0 0 0-13.55-2.19 10.75 10.75 0 0 0-4 5 15.27 15.27 0 0 0-.22 10.52 10.67 10.67 0 0 0 4 5.46c3.62 2.65 10.69 2.48 14.12-2.56a12.48 12.48 0 0 0 2.22-7.65ZM174.57 62.73v38.31c-1.07.41-7.52.47-9.07.07v-3.53c-.77.59-1.34 1-1.92 1.48a15.82 15.82 0 0 1-9.45 3.38 17 17 0 0 1-14.36-6.87 21.11 21.11 0 0 1-4.22-11.47A22.92 22.92 0 0 1 137 73.43c2.24-5.48 6-9.46 11.85-11.07a15.77 15.77 0 0 1 15 3.19l1.57 1.29v-4.07c3.11-.1 6.07-.05 9.15-.04Zm-8.41 19.4a38.14 38.14 0 0 0-.8-4.44 10.32 10.32 0 0 0-19.92-.17 15.28 15.28 0 0 0-.36 7.62c.88 4.83 4.65 9.45 10.87 9a9.76 9.76 0 0 0 8.25-4.94 14.88 14.88 0 0 0 1.96-7.08ZM202.92 35.11v9.23c-.6-.26-1-.43-1.47-.65a12 12 0 0 0-3.64-1.17 3.27 3.27 0 0 0-4.09 2.86 20 20 0 0 0-.32 3.14v13c0 .36 0 .71.09 1.23h9.17c.45 1.18.49 7.17.08 8.6h-9.31v29.66c-1 .44-7.17.56-9.13.19-.14-3.25 0-6.55-.06-9.83s0-6.62 0-9.94v-10l-2.92-.14a29.67 29.67 0 0 1 0-8.51h2.84c0-.6.06-1.08.06-1.57 0-5 0-10 .05-15a23.58 23.58 0 0 1 .68-4.61 9 9 0 0 1 4.61-6.08c4.35-2.49 8.81-2.37 13.36-.41ZM293.21 87.82a6.76 6.76 0 1 1-6.78 6.83 6.64 6.64 0 0 1 6.78-6.83Zm.05 1.41a5.19 5.19 0 0 0-5.42 5.29 5.34 5.34 0 0 0 5.26 5.42 5.4 5.4 0 0 0 5.51-5.32 5.23 5.23 0 0 0-5.34-5.39ZM165.73 46.63h-1.68v-5h-4.35l-.11 5h-1.82V35.52h1.79c0 .73.07 1.41.08 2.08s0 1.27 0 2.06c1.47.1 2.83 0 4.36 0v-4.14h1.71c.38 1.14.4 9.76.02 11.11ZM174.59 46.65h-6.1a66.78 66.78 0 0 1-.11-11.05 27.25 27.25 0 0 1 6.12-.08v1.74h-4.18v2.26l4 .15v1.81h-3.8a6.08 6.08 0 0 0-.06 3.37h4.05ZM123.43 34.97l5.22 11.65h-2.06l-1.19-2.51H121c-.22.41-.46.84-.68 1.29-.71 1.48-.72 1.49-2.57 1.13 1.74-3.9 3.55-7.72 5.35-11.54Zm-.23 4.2a9.93 9.93 0 0 0-1.25 3h2.61c-.35-.83-.64-1.54-.95-2.25a8.26 8.26 0 0 0-.41-.75ZM137.76 46.64h-2c.77-2.15 1.77-4 2.66-6s1.77-3.81 2.8-6c1.92 4 3.61 7.86 5.38 11.91l-1.94.2-1.28-2.67H139Zm4.87-4.48-1.38-3.11-1.44 3.11ZM129.88 35.6a8.9 8.9 0 0 1 4.34.14 3.32 3.32 0 0 1-.11 6.28c-.66.19-1.35.26-2.21.41l-.1 4.19h-1.71a12.14 12.14 0 0 1-.2-3.65v-3.59Zm2 1.83v2.86c.89.11 1.71.2 2.3-.56a1.35 1.35 0 0 0 .12-1.55c-.48-.91-1.3-.93-2.38-.75ZM155.49 43.87v2c-2.21 1.72-5.62 1-7.26-.8a5.77 5.77 0 0 1-.31-7.56 5.64 5.64 0 0 1 7.58-1.37v1.88c-.59.09-.92-.37-1.35-.56a3.81 3.81 0 0 0-5.23 2.08 3.92 3.92 0 0 0 2.21 5.22 3.63 3.63 0 0 0 3.06-.18c.39-.18.81-.41 1.3-.71Z"/><path d="M292.26 95.87v2.38h-1.16v-7.36a17.72 17.72 0 0 1 2.41 0 2 2 0 0 1 1.79 1.5 2.12 2.12 0 0 1-1 2.48c-.15.1-.31.19-.51.31l2.21 2.94c-.83.36-1.37.34-1.84-.29s-1.07-1.36-1.6-2Zm.13-2c.6.07 1.17.22 1.51-.34a1.17 1.17 0 0 0 0-1c-.34-.62-.93-.56-1.55-.4Z"/></svg>