<svg xmlns="http://www.w3.org/2000/svg" viewBox="0 0 158.15 121.63"><defs><style>.cls-1{fill:#ba160c}</style></defs><g id="Layer_2" data-name="Layer 2"><g id="Layer_1-2" data-name="Layer 1"><path id="path3269" class="cls-1" d="M30.64 121.63H27.7v-15.37h2.95Zm-2.91-15.37v-9.52h2.95v9.53Zm0 15.37h-2.98v-9.57H5.8v9.57H0v-24.9h5.8v9.52h21.9v15.37Zm0-24.89h-2.98v9.53h3Z"/><path id="path3271" class="cls-1" d="M61.14 109a6.3 6.3 0 0 1 3 5.75 6.69 6.69 0 0 1-7 6.86h-8.49v-5.8h8.53q1.26 0 1.26-1.89t-1.26-1.88h-8.53v-5.74h8.1q1.26 0 1.26-1.89t-1.26-1.88h-8.1v-5.8h8.1A6.71 6.71 0 0 1 62 98.86a6.83 6.83 0 0 1 1.74 4.74 6.39 6.39 0 0 1-2.6 5.4Zm-12.49 12.63H33.06V106.3h15.59v5.75h-9.79v3.77h9.79v5.8Zm0-19.09h-9.79v3.95l-5.8-.14v-9.6h15.59v5.8Z"/><path id="path3273" d="M66.86 90.26v-2.65h4.33V86q0-.86-.58-.86h-3.75v-2.65h3.75a2.94 2.94 0 0 1 2.34 1 3.68 3.68 0 0 1 .9 2.48v7.93h-2.66v-3.64h-4.33Zm35.34 3.64h-8.82a3.69 3.69 0 0 1-2.64-1 3.41 3.41 0 0 1-1.09-2.58V86.1a3.41 3.41 0 0 1 1.09-2.58 3.69 3.69 0 0 1 2.64-1h8.82v2.66h-8.82q-1.06 0-1.06 1v4.19q0 1 1.06 1h8.82Zm28 0h-2.68v-4.39h-6.82v4.39H118V82.49h2.66v4.36h6.82v-4.36h2.68Zm28-8.75h-9.5v1.71h8.88v2.66h-8.88v1.73h9.48v2.65H146V82.49h12.16v2.66Zm-91.34-2.66v2.66h-3.78q-.55 0-.55.86v1.6h4.33v2.66h-4.33v3.63h-2.66V86a3.68 3.68 0 0 1 .9-2.48 2.91 2.91 0 0 1 2.31-1h3.78Zm-29.94 7.69v-2.66h3.9q.58 0 .58-1.17t-.58-1.2h-3.9v-2.66h3.9a2.84 2.84 0 0 1 2.39 1.22 4.23 4.23 0 0 1 .84 2.64 4.14 4.14 0 0 1-.84 2.65 2.84 2.84 0 0 1-2.39 1.22ZM14 93.9h-2.68v-3.64H7v-2.65h4.33V86q0-.86-.58-.86H7v-2.65h3.75a2.94 2.94 0 0 1 2.34 1A3.68 3.68 0 0 1 14 86Zm22.92-11.41v2.66h-4.47v2.37h4.47v2.66h-4.47v3.72h-2.66V82.49h7.13ZM7 90.26H2.66v3.64H0V86a3.68 3.68 0 0 1 .9-2.48 2.91 2.91 0 0 1 2.31-1H7v2.66H3.21q-.55 0-.55.86v1.6H7Z" style="fill:#666"/><path id="path3275" class="cls-1" d="M97 121.63h-5.8v-7.93h-9.44v-5.8h9.45v-3.48q0-1.88-1.26-1.88h-8.19v-5.8H90A6.41 6.41 0 0 1 95.06 99a8 8 0 0 1 2 5.41Zm-15.24-7.93h-9.45v7.93h-5.8v-17.21a8 8 0 0 1 2-5.41 6.36 6.36 0 0 1 5.05-2.27h8.24v5.8h-8.28q-1.21 0-1.21 1.88v3.48h9.45Z"/><path id="path3277" class="cls-1" d="M129.2 113.94a8 8 0 0 1-1.89 5.37 6.52 6.52 0 0 1-5.12 2.32h-21.46v-5.8h21.46q1.21 0 1.21-1.89t-1.21-1.88h-15.61a6.52 6.52 0 0 1-5.12-2.32 7.71 7.71 0 0 1-1.93-5.32 8 8 0 0 1 2-5.41 6.43 6.43 0 0 1 5.08-2.27H128v5.8h-21.42q-1.21 0-1.21 1.88t1.21 1.84h15.61a6.52 6.52 0 0 1 5.12 2.32 8 8 0 0 1 1.89 5.36Z"/><path id="polygon3279" class="cls-1" d="M131.61 121.63v-24.9h26.54v5.8h-20.74v3.73h19.38v5.8h-19.38v3.77h20.69v5.8h-26.49z"/><path id="path18940" d="M126.19 52.32a2.54 2.54 0 0 1-.37-.67 3 3 0 0 0-1.73-1.5 6.83 6.83 0 0 1-1.42-.81c-.79-.61-1.45-.72-3.75-.65-2.52.08-3.42-.28-4.11-1.63l-.34-.67-.21.74c-.41 1.45-.89 1.82-2.16 1.69a2.11 2.11 0 0 0-1.83.5c-.32.28-.39.3-.7.16s-.36-.14-.66.2a1.34 1.34 0 0 1-.91.46c-.74.13-1 .46-1.26 1.37-.41 1.71-1.26 1.28-2-1-.87-2.56-.15-4.42 2.78-7.23 1.51-1.44 2.13-2.26 2.4-3.12.2-.67.23-.7.48-.52a39.63 39.63 0 0 1 3.67 3.7c1.22 1.41 1.53 1.65 1.7 1.31s-.89-1.62-2.6-3.38c-4.25-4.36-9.19-6.84-14.45-7.24a12.68 12.68 0 0 0-6.25.91 15.91 15.91 0 0 0-3.88 1.7 48.53 48.53 0 0 0-6.49 4.8c-2.56 2.17-2.56 2.17-5.89 2.11h-3.56a9.9 9.9 0 0 0-3.83 1.17 16 16 0 0 0-3.71 4 15.49 15.49 0 0 1-4.23 4.4c-1.29.84-1.78 1.37-1.93 2.06a1.31 1.31 0 0 0 .34 1.33 14.35 14.35 0 0 0 3.95 1.24 5.8 5.8 0 0 1 1.08.3c.15.12-1.69 2-3.09 3.12A47.63 47.63 0 0 1 51.38 67a26.27 26.27 0 0 0-5.51 3.23c-.82.6-2 1.41-2.7 1.8-2.91 1.71-6 1.9-7 .43a2.5 2.5 0 0 0-.56-.62 3.76 3.76 0 0 1-1.46-3 16 16 0 0 0-.24-2.29 21.87 21.87 0 0 1-.16-7.87c.74-4.57 3.16-10.88 6.56-17.12 2.25-4.12 4.57-7.49 10.14-14.71 3.44-4.46 3.47-4.51 3.5-6.11 0-.36-.13-2.58-.31-4.94-.55-7.36-.3-10.3 1.11-13C55.57 1.42 57.2.1 58.38 0c.67-.05.81.24 1 2.11a28.45 28.45 0 0 0 1.49 7.57c.85 2.53 1.34 3.45 2.34 4.43 1.37 1.34 2 1.47 5.48 1 12.19-1.53 21-.59 28.23 3 6.71 3.32 13.45 9.8 19.4 18.63l1.13 1.68 1.22.41a12.42 12.42 0 0 1 6.72 4.76 14.54 14.54 0 0 1 1.86 5.88c.12 1.95 0 2.84-.53 3a.49.49 0 0 1-.48-.21Zm-1.06-3.81a11.57 11.57 0 0 0-.58-1.78 9.35 9.35 0 0 0-4.77-5.28c-1.85-1-4.91-1.88-5.6-1.64-.26.09-.26.14 0 .69a12.87 12.87 0 0 0 1.29 1.82 12.89 12.89 0 0 1 1.29 1.81c.24.51.25.64.06 1s-.64.68-1.34.53c-.29-.06-.54-.08-.56 0a1.5 1.5 0 0 0 .22.57c.53 1 1.27 1.19 3.82 1.1 3.73-.15 4.58.08 5.66 1.49.23.3.55.12.51-.3Zm-82.38 22.6a28.09 28.09 0 0 0 2.41-1.58 46 46 0 0 1 6.66-3.92A55.77 55.77 0 0 0 59.7 61c1.16-.86 2.16-1.79 2.1-2a4.12 4.12 0 0 0-1.06-.32 14.61 14.61 0 0 1-2.47-.92 8.8 8.8 0 0 0-1.57-.65 6.37 6.37 0 0 0-1.76 2c-2.22 3.17-3.11 4-7.48 6.55a12.31 12.31 0 0 0-3.77 2.9 8.68 8.68 0 0 1-2.38 2.29 10 10 0 0 1-1.86.92c-1.35.46-1.36.93 0 .72a11.19 11.19 0 0 0 3.32-1.35Zm64.12-22a2.68 2.68 0 0 1 .57-.71l.47-.43h1.31c1.64-.05 3.61-.65 4-1.21l.57-.81c.2-.28.44-.47.59-.47h.25s-3.28-3.68-3.54-3.88l-.31-.24-.47.73c-.26.4-1.21 1.59-2.1 2.65-2.29 2.71-2.9 3.9-2.38 4.69.15.23.27.27.56.17a.84.84 0 0 0 .47-.4Zm-56.79 11a2.36 2.36 0 0 0 .52-.73c.24-1.08-1.89-.26-2.17.84-.07.29 0 .35.19.47s.9 0 1.45-.58Zm3.11-4.19a23.85 23.85 0 0 0 2.81-2.2 5.56 5.56 0 0 0 1.38-3.09 5.52 5.52 0 0 1 .47-1.54 1.72 1.72 0 0 0 .27-.84c-.34-1-3.94-.29-5.92 1.17-2.4 1.77-4 5.39-3.4 7.49.39 1.29 1.11 1.11 4.36-1.06ZM104.75 34a7.25 7.25 0 0 0-2.13-1.45 13.39 13.39 0 0 0-5.62-1.1c-1.56-.06-2.23-.18-2.32-.44a1 1 0 0 1 .13-.45c.48-1 4.25-1.25 7.21-.54a22.2 22.2 0 0 1 3.77 1.31c.93.42 1.06.45 1 .2a7.87 7.87 0 0 0-2.29-2.11A16.68 16.68 0 0 0 94 26.84a14.49 14.49 0 0 0-7.5 2.4 19.72 19.72 0 0 0-5.13 6.25 49.26 49.26 0 0 1-3.56 5.87 2.81 2.81 0 0 0-.62 1 2.41 2.41 0 0 0 .95.1H79l1.61-1.53a37.75 37.75 0 0 1 8.76-6.5 19.34 19.34 0 0 1 13.49-.69c1.49.42 2 .49 1.89.28ZM73.53 56.73a26.27 26.27 0 0 1-12.4-.34c-.87-.25-1.15-.39-1.28-.67-.32-.69.19-1.33 1.82-2.3 1.44-.85 2.29-1.72 4.08-4.17 2.42-3.3 3.5-4.24 5.61-4.82 1-.27 1.65-.32 5.22-.33 5.35 0 11.07.06 11.54.18 1.07.26.25 2.84-1.63 5.13a20.64 20.64 0 0 1-5.77 4.68 43.3 43.3 0 0 1-7.19 2.64Zm-36.76-9.85a6.73 6.73 0 0 1-.5-1.41 13.29 13.29 0 0 1 1.13-9.29 6.87 6.87 0 0 1 2-2.36c.42-.14.84.21 1.58 1.35a6.67 6.67 0 0 0 1.11 1.37c.22.15.39.3.37.33l-1 1.51a61.31 61.31 0 0 0-3.82 7c-.62 1.39-.78 1.64-.92 1.47Z" style="fill:#050505"/></g></g></svg>