<svg version="1.1" id="Layer_1" xmlns="http://www.w3.org/2000/svg" x="0" y="0" viewBox="0 0 250 84.8" style="enable-background:new 0 0 250 84.8" xml:space="preserve"><style>.st1{fill:none}.st2,.st3{fill:#be202e}.st3{opacity:.35;enable-background:new}.st12{fill:#b0afb0}.st14{fill:#d22128}</style><switch><g><g id="layer1"><g id="g3203"><linearGradient id="path3212_1_" gradientUnits="userSpaceOnUse" x1="-9430.523" y1="519.458" x2="-9400.777" y2="554.241" gradientTransform="rotate(-64.8 -2009.228 -2906.489) scale(.4)"><stop offset="0" style="stop-color:#f69923"/><stop offset=".31" style="stop-color:#f79a23"/><stop offset=".84" style="stop-color:#e97826"/></linearGradient><path id="path3212" d="M36 .4c-1.3.8-3.5 3-6.2 6.2l2.4 4.6c1.6-2.3 3.3-4.5 5.2-6.5l.2-.2-.2.2C35.7 6.8 34 9 32.6 11.3c3.2-.2 6.3-.6 9.4-1.2 1-5.1-.8-7.5-.8-7.5S38.8-1.2 36 .4z" style="fill:url(#path3212_1_)"/><path id="path3214" class="st1" d="M31.9 26.5s.1 0 0 0h-.4.4z"/><path id="path3216" class="st1" d="M29.5 34.7c-.2.1-.4.1-.6.1.2-.1.4-.1.6-.1z"/><path id="path3218" class="st1" d="M12.7 53c0-.1.1-.1.1-.2.5-1.4 1.1-2.8 1.6-4.1.6-1.5 1.2-2.9 1.7-4.4s1.2-2.9 1.8-4.3l1.8-4.2c.5-1.1 1-2.2 1.4-3.2.2-.3.3-.7.5-1l.9-1.9c.3-.6.6-1.2.9-1.7l.3-.6.1-.1h-.3l-.2-.5c0 .1-.1.1-.1.1-.4.9-.9 1.7-1.3 2.6-.2.5-.5 1-.7 1.5-.7 1.4-1.3 2.8-1.9 4.2-.6 1.4-1.3 2.9-1.9 4.3l-1.8 4.2c-.6 1.4-1.2 2.8-1.7 4.2S12.5 51 12 52.4c-.1.3-.2.6-.4 1-.4 1.2-.9 2.3-1.3 3.4l.4.7h.3v-.1c.6-1.5 1.1-3 1.7-4.4z"/><path id="path3222" class="st2" d="M27.9 38.8c-.3.1-.6.1-.9.2.2 0 .3-.1.5-.1.1 0 .2-.1.4-.1z"/><path id="path3224" class="st3" d="M27.9 38.8c-.3.1-.6.1-.9.2.2 0 .3-.1.5-.1.1 0 .2-.1.4-.1z"/><path id="path3226" class="st2" d="M28.7 34.8h.1c.2 0 .4-.1.6-.1l-.7.1z"/><path id="path3228" class="st3" d="M28.7 34.8h.1c.2 0 .4-.1.6-.1l-.7.1z"/><linearGradient id="path3239_1_" gradientUnits="userSpaceOnUse" x1="-9581.758" y1="491.105" x2="-9369.526" y2="491.105" gradientTransform="rotate(-64.8 -2009.228 -2906.489) scale(.4)"><stop offset=".32" style="stop-color:#9e2064"/><stop offset=".63" style="stop-color:#c92037"/><stop offset=".75" style="stop-color:#cd2335"/><stop offset="1" style="stop-color:#e97826"/></linearGradient><path id="path3239" d="M25.1 23c.7-1.4 1.5-2.7 2.2-4 .8-1.4 1.6-2.7 2.4-4 .1-.1.1-.2.1-.2.8-1.2 1.6-2.5 2.4-3.6l-2.4-4.6-.6.7c-.7.9-1.4 1.8-2.2 2.8-.7 1-1.7 2.3-2.6 3.6s-1.6 2.4-2.5 3.6l-2.1 3.3-.1.1 3.1 6.2c1-1.3 1.7-2.6 2.3-3.9z" style="fill:url(#path3239_1_)"/><linearGradient id="path3250_1_" gradientUnits="userSpaceOnUse" x1="-9556.133" y1="513.15" x2="-9429.666" y2="513.15" gradientTransform="rotate(-64.8 -2009.228 -2906.489) scale(.4)"><stop offset="0" style="stop-color:#282662"/><stop offset=".1" style="stop-color:#662e8d"/><stop offset=".79" style="stop-color:#9f2064"/><stop offset=".95" style="stop-color:#cd2032"/></linearGradient><path id="path3250" d="M10.8 58.1c-.4 1.1-.9 2.3-1.2 3.5v.1c-.1.2-.1.3-.2.5-.3.8-.5 1.5-1.1 3.2 1.1.7 1.9 1.7 2.4 2.8-.1-1.3-.7-2.6-1.6-3.5 4.6.2 8.5-.9 10.6-4.3.2-.3.3-.6.5-.9-.9 1.2-2.1 1.7-4.2 1.5 3.2-1.4 4.8-2.8 6.2-5.1.3-.5.7-1.1 1-1.8-2.4 2.6-6 3.8-9.4 3l-2.8.3-.2.7z" style="fill:url(#path3250_1_)"/><linearGradient id="path3261_1_" gradientUnits="userSpaceOnUse" x1="-9569.837" y1="489.552" x2="-9357.605" y2="489.552" gradientTransform="rotate(-64.8 -2009.228 -2906.489) scale(.4)"><stop offset=".32" style="stop-color:#9e2064"/><stop offset=".63" style="stop-color:#c92037"/><stop offset=".75" style="stop-color:#cd2335"/><stop offset="1" style="stop-color:#e97826"/></linearGradient><path id="path3261" d="M12 52.4c.6-1.4 1.1-2.9 1.7-4.3s1.1-2.8 1.7-4.2l1.8-4.2c.6-1.4 1.2-2.9 1.9-4.3s1.3-2.8 1.9-4.2c.2-.5.5-1 .7-1.5.4-.9.9-1.7 1.3-2.6 0-.1.1-.1.1-.1L20 20.7c0 .1-.1.2-.2.2-.7 1.2-1.5 2.4-2.2 3.7l-2.1 3.9c-.6 1.1-1.2 2.2-1.7 3.3l-.3.7c-.7 1.4-1.3 2.8-1.9 4.1-.6 1.5-1.2 2.9-1.7 4.3-.3.9-.6 1.7-.9 2.6-.2.9-.4 1.4-.6 2.1-.5 1.6-.9 3.3-1.2 4.9l3.2 6.2c.4-1.1.9-2.2 1.3-3.4 0-.3.2-.6.3-.9z" style="fill:url(#path3261_1_)"/><linearGradient id="path3272_1_" gradientUnits="userSpaceOnUse" x1="-9554.352" y1="492.787" x2="-9442.818" y2="492.787" gradientTransform="rotate(-64.8 -2009.228 -2906.489) scale(.4)"><stop offset="0" style="stop-color:#282662"/><stop offset=".1" style="stop-color:#662e8d"/><stop offset=".79" style="stop-color:#9f2064"/><stop offset=".95" style="stop-color:#cd2032"/></linearGradient><path id="path3272" d="M7.1 50.7c-.4 2-.7 4-.9 6v.2c-1-1.6-3.6-3.2-3.6-3.2 1.9 2.8 3.3 5.5 3.5 8.2-1.4.1-2.7-.1-4-.7 1 1 2.1 1.7 3.4 2.1-1.5.1-3.1 1.2-4.8 2.4 2.4-1 4.3-1.3 5.6-1-2 6.1-4.1 12.9-6.3 20.1.6-.2 1.1-.6 1.3-1.2.4-1.3 3-9.8 7-21.1.1-.3.2-.6.3-1l.1-.3c.4-1.1.9-2.3 1.3-3.6l.3-.9-3.2-6.2c.1.1 0 .1 0 .2z" style="fill:url(#path3272_1_)"/><linearGradient id="path3283_1_" gradientUnits="userSpaceOnUse" x1="-9569.837" y1="511.565" x2="-9357.605" y2="511.565" gradientTransform="rotate(-64.8 -2009.228 -2906.489) scale(.4)"><stop offset=".32" style="stop-color:#9e2064"/><stop offset=".63" style="stop-color:#c92037"/><stop offset=".75" style="stop-color:#cd2335"/><stop offset="1" style="stop-color:#e97826"/></linearGradient><path id="path3283" d="m23.6 27.5-.3.5c-.3.6-.6 1.1-.9 1.7l-.9 1.9c-.2.3-.3.7-.5 1-.5 1-.9 2.1-1.4 3.2-.6 1.3-1.2 2.7-1.8 4.2-.6 1.5-1.2 2.8-1.8 4.3s-1.2 2.8-1.7 4.4c-.5 1.3-1 2.7-1.6 4.1 0 .1-.1.1-.1.2-.5 1.4-1.1 2.8-1.6 4.3v.1l2.6-.3h-.2c3.1-.4 7.1-2.7 9.7-5.5 1.3-1.4 2.4-2.9 3.3-4.6.8-1.5 1.5-3 2.1-4.5.6-1.4 1.2-3 1.7-4.7-.8.4-1.6.7-2.4.9l-.5.1-.4.2c2.7-1.1 4.8-3.2 5.9-5.8-1 .7-2.2 1.2-3.4 1.5-.2.1-.4.1-.6.1h-.2c.9-.4 1.8-.8 2.6-1.4.2-.1.3-.2.4-.4l.6-.6.4-.4c.3-.3.6-.7.8-1.1.1-.1.2-.2.2-.4.1-.1.2-.4.3-.5.4-.8.7-1.5 1-2.1l.3-.9c0-.1.1-.2.1-.3.1-.3.2-.6.2-.8.1-.3.1-.6.2-.9-.1.1-.2.2-.3.2-1.1.6-2.3 1-3.5 1.2l2.3-.2-2.2.2h-.1c-.1 0-.2 0-.4.1h.1l-8 .9v.1z" style="fill:url(#path3283_1_)"/><linearGradient id="path3294_1_" gradientUnits="userSpaceOnUse" x1="-9582.997" y1="510.272" x2="-9370.767" y2="510.272" gradientTransform="rotate(-64.8 -2009.228 -2906.489) scale(.4)"><stop offset=".32" style="stop-color:#9e2064"/><stop offset=".63" style="stop-color:#c92037"/><stop offset=".75" style="stop-color:#cd2335"/><stop offset="1" style="stop-color:#e97826"/></linearGradient><path id="path3294" d="M32.6 11.3c-.7 1.1-1.5 2.3-2.3 3.7 0 .1-.1.1-.1.2-.7 1.2-1.5 2.6-2.3 4-.7 1.3-1.4 2.6-2.2 4.1-.7 1.3-1.3 2.6-2 4l8-.9c1.8-.7 3.3-1.9 4.4-3.4.3-.4.5-.8.8-1.2.8-1.3 1.6-2.7 2.3-4.1.7-1.3 1.3-2.6 1.8-3.9.3-.7.5-1.4.7-2.1.1-.6.2-1.1.3-1.6-3.1.6-6.2 1-9.4 1.2z" style="fill:url(#path3294_1_)"/><path id="path3296" class="st2" d="m27.4 38.9-.5.1c.2-.1.4-.1.5-.1z"/><path id="path3298" class="st3" d="m27.4 38.9-.5.1c.2-.1.4-.1.5-.1z"/><linearGradient id="path3309_1_" gradientUnits="userSpaceOnUse" x1="-9569.837" y1="518.221" x2="-9357.605" y2="518.221" gradientTransform="rotate(-64.8 -2009.228 -2906.489) scale(.4)"><stop offset=".32" style="stop-color:#9e2064"/><stop offset=".63" style="stop-color:#c92037"/><stop offset=".75" style="stop-color:#cd2335"/><stop offset="1" style="stop-color:#e97826"/></linearGradient><path id="path3309" d="m27.4 38.9-.5.1c.2-.1.4-.1.5-.1z" style="fill:url(#path3309_1_)"/><path id="path3311" class="st2" d="M28.7 34.8h.2-.2z"/><path id="path3313" class="st3" d="M28.7 34.8h.2-.2z"/><linearGradient id="path3324_1_" gradientUnits="userSpaceOnUse" x1="-9569.837" y1="517.383" x2="-9357.605" y2="517.383" gradientTransform="rotate(-64.8 -2009.228 -2906.489) scale(.4)"><stop offset=".32" style="stop-color:#9e2064"/><stop offset=".63" style="stop-color:#c92037"/><stop offset=".75" style="stop-color:#cd2335"/><stop offset="1" style="stop-color:#e97826"/></linearGradient><path id="path3324" d="M28.7 34.8h.2-.2z" style="fill:url(#path3324_1_)"/></g><g id="g3341"><path id="path3343" class="st12" d="M32.4 26.4v1.2h-.3v-1.2h-.4v-.3h1.1v.3h-.4z"/><path id="path3345" class="st12" d="m34.3 26.6-.4.8h-.2l-.3-.8v.9h-.3v-1.4h.4l.4.8.4-.8h.4v1.4h-.3l-.1-.9z"/></g><linearGradient id="path3718_1_" gradientUnits="userSpaceOnUse" x1="-5535.417" y1="-478.725" x2="-5514.037" y2="-478.725" gradientTransform="rotate(-65.2 -3911.179 -7033.703)"><stop offset="0" style="stop-color:#f69923"/><stop offset=".31" style="stop-color:#f79a23"/><stop offset=".84" style="stop-color:#e97826"/></linearGradient><path id="path3718" d="M45.5 82.5c-1.2 0-2.4-.1-3.5-.2-.9-.1-1.7-.3-2.6-.5v-8c.8.2 1.6.3 2.4.4.9.1 1.8.2 2.7.2.9 0 1.7-.1 2.6-.3.8-.2 1.5-.6 2.1-1.1.6-.5 1.1-1.2 1.4-2 .4-1 .6-2.1.5-3.2V24.1h9.6v43.5c.1 2.3-.3 4.6-1.1 6.7-.7 1.8-1.8 3.4-3.2 4.6-1.4 1.3-3 2.2-4.8 2.7-1.9.6-4 .9-6.1.9" style="fill:url(#path3718_1_);stroke:#d22128"/><path id="path3720" d="m84.1 69.3-9.9-35.4h-.3c.1 1.9.2 3.7.3 5.5 0 .8.1 1.5.1 2.3 0 .8.1 1.6.1 2.4 0 .8.1 1.5.1 2.3v22.9H66V24.1h13l9.8 34.5h.2l10.3-34.5h13v45.2h-8.9V46.1c0-.7 0-1.4.1-2.2 0-.8 0-1.5.1-2.3 0-.8.1-1.5.1-2.3.1-1.7.2-3.5.2-5.4h-.2L92.9 69.3h-8.8"/><path id="path3722" d="M131.4 40.8c-1.6 0-3.1.6-4.2 1.7s-1.7 3-1.9 5.5h12c0-1-.1-2-.4-2.9-.2-.8-.6-1.6-1.1-2.3-.5-.7-1.1-1.2-1.9-1.5-.7-.4-1.6-.6-2.5-.5m1.3 29c-2.3 0-4.6-.3-6.8-1.1-2-.7-3.8-1.8-5.4-3.2-1.6-1.6-2.8-3.4-3.5-5.5-.9-2.5-1.3-5.2-1.2-7.8 0-2.7.3-5.3 1.2-7.9.7-2.1 1.7-4 3.2-5.6 1.4-1.5 3-2.7 4.9-3.4 2-.8 4.2-1.2 6.4-1.1 2.1 0 4.2.3 6.1 1.1 1.8.6 3.4 1.7 4.7 3 1.3 1.4 2.3 3.1 3 4.9.7 2.1 1.1 4.4 1.1 6.7v4.6h-21c0 1.2.2 2.4.6 3.6.4 1 .9 1.9 1.6 2.7.7.7 1.6 1.3 2.5 1.7 1.1.4 2.2.6 3.4.6 1 0 2 0 3-.2.9-.1 1.8-.3 2.7-.5.9-.2 1.7-.5 2.6-.9l2.7-1.2v7.3c-.8.4-1.6.8-2.5 1.1-.8.3-1.7.5-2.6.7-1 .2-2 .4-3 .4h-3.7"/><path id="path3724" d="M165.1 62.4c.9 0 1.7-.1 2.6-.3.9-.2 1.7-.5 2.6-.8v7c-1.1.5-2.2.9-3.3 1.1-1.4.3-2.8.5-4.3.5-1.4 0-2.8-.2-4.2-.5-1.3-.3-2.4-1-3.4-1.8-1-1-1.8-2.2-2.3-3.5-.6-1.8-.9-3.7-.8-5.6V41.8h-4.5v-4l5.2-3.2 2.7-7.3h6v7.3h8.4v7.1h-8.4v16.6c-.1 1.1.3 2.2 1 3 .8.7 1.8 1.1 2.7 1.1"/><path id="path3726" d="M188.1 40.8c-1.6 0-3.1.6-4.2 1.7s-1.7 3-1.9 5.5h12c0-1-.1-2-.4-2.9-.2-.8-.6-1.6-1.1-2.3-.5-.7-1.1-1.2-1.9-1.5-.7-.4-1.6-.6-2.5-.5m1.2 29c-2.3 0-4.6-.3-6.8-1.1-2-.7-3.8-1.8-5.4-3.2-1.6-1.6-2.8-3.4-3.5-5.5-.9-2.5-1.3-5.2-1.2-7.8 0-2.7.3-5.4 1.1-7.9.7-2.1 1.7-4 3.2-5.6 1.4-1.5 3-2.7 4.9-3.4 2-.8 4.2-1.2 6.4-1.1 2.1 0 4.2.3 6.2 1.1 1.8.6 3.4 1.7 4.7 3 1.3 1.4 2.3 3.1 3 4.9.7 2.1 1.1 4.4 1.1 6.7v4.6h-21.1c0 1.2.2 2.4.6 3.6.4 1 .9 1.9 1.6 2.7.7.7 1.6 1.3 2.5 1.7 1.1.4 2.2.6 3.4.6 1 0 2 0 3-.2.9-.1 1.8-.3 2.7-.5.9-.2 1.7-.5 2.6-.9l2.7-1.2v7.3c-.8.4-1.6.8-2.5 1.1-.8.3-1.7.5-2.6.7-1 .2-2 .4-3 .4h-3.6"/><path id="path3728" d="M223.4 34.1h.8c.3 0 .6 0 .9.1.3 0 .5 0 .8.1.2 0 .4 0 .6.1v8.9c-.2 0-.4-.1-.7-.1-.3 0-.6-.1-.9-.1-.3 0-.6-.1-.9-.1h-.8c-1.1 0-2.3.1-3.4.5-1 .3-1.8.8-2.6 1.5-.8.8-1.4 1.7-1.7 2.7-.4 1.3-.6 2.7-.6 4.1v17.6h-9.4V34.7h7.1l1.4 5.2h.5c.5-.8 1-1.7 1.6-2.4.6-.7 1.2-1.3 1.9-1.8s1.5-.9 2.4-1.2c1-.3 2-.4 3-.4"/><g id="text3756"><path id="path3109" d="M235.9 34h-2.1v-8.1h-2.5v-1.7h7.1v1.7h-2.5V34"/><path id="path3111" d="m243.9 34-2.2-7.7c0 .4 0 .8.1 1.2V34h-1.9v-9.9h2.9l2.1 7.6 2.3-7.6h2.9V34h-2v-6.6c0-.4 0-.8.1-1.2h-.2l-2.3 7.7-1.8.1"/></g><g id="g8126"><g id="g8128"><path id="path8130" class="st14" d="M51.1 17.2 57.9 1h1.3L66 17.2h-1.7l-2.1-5H55l-2.1 5h-1.8zm7.5-14.3-3.3 8h6.5l-3.2-8z"/><path id="path8132" class="st14" d="M67.7 17.2V1h6.7c2.7.1 4.8 2.4 4.8 5.1 0 2.6-1.9 5.1-4.6 5.1h-5.2v6h-1.7zm1.6-7.4h5.2c1.9 0 3.1-1.7 3.1-3.7.1-1.9-1.4-3.5-3.3-3.7h-5v7.4z"/><path id="path8134" class="st14" d="M78.3 17.2 85 1h1.3l6.8 16.1h-1.7l-2.1-5H82l-2.1 5h-1.6zm7.4-14.3-3.3 8H89l-3.3-8z"/><path id="path8136" class="st14" d="M100.7.9c2.5-.1 4.8 1.3 6 3.5l-1.3.8c-.9-1.8-2.8-2.9-4.8-2.9-3.9 0-6 3.4-6 6.7 0 3.6 2.6 6.8 6 6.8 2.1 0 4-1.1 5-3l1.3.7c-1 2.4-3.9 3.8-6.4 3.8-4.4 0-7.5-4.2-7.5-8.3.1-3.9 2.9-8.1 7.7-8.1z"/><path id="path8138" class="st14" d="M121.9 1v16.1h-1.6V9.6h-9.5v7.5h-1.6V1h1.6v7.2h9.5V1h1.6z"/><path id="path8140" class="st14" d="M136.4 15.8v1.4h-10.8V1h10.6v1.4h-9.1v5.8h7.9v1.3h-7.9v6.2l9.3.1z"/></g></g></g></g></switch></svg>