<svg xmlns="http://www.w3.org/2000/svg" viewBox="0 0 151.15 179.34"><defs><style>.cls-1{fill:#34a9d8}.cls-2{fill:#024561}.cls-3{isolation:isolate}</style></defs><g id="Layer_2" data-name="Layer 2"><g id="svg8"><path id="path830" class="cls-1" d="M60.16 130.73c-7-4.05-12.75-7.52-12.75-7.71 0-.39 25.4-15.19 25.73-15s.27 29.75 0 29.92c-.12.08-6-3.18-13-7.23Zm16.48 7.2c-.09-.09-.16-6.83-.16-15 0-13.61 0-14.82.43-14.82s24 13.5 25.26 14.45c.45.33.46.42.12.76s-22.6 13.27-24.67 14.33c-.45.26-.89.35-.98.28Zm-31.17-18.3c-.43-.8-.38-28.73.05-29.3.29-.39 1.68.35 13 6.92 8.75 5.06 12.69 7.48 12.64 7.75s-16.38 10-24.49 14.6c-1 .54-1 .54-1.24 0Zm45.87-6.88c-7-4-12.67-7.53-12.72-7.75s3.82-2.64 12.64-7.74c11.28-6.51 12.75-7.3 13-6.92s.33 3.67.33 14.66-.07 14.34-.33 14.67-1.62-.34-12.92-6.92Zm-62.44-.21c-6.88-4-12.51-7.41-12.51-7.57s25-14.82 25.45-14.82c.13 0 .23 6.5.23 14.86 0 11.72-.07 14.86-.33 14.84s-5.96-3.3-12.84-7.31Zm78.86-7.54c0-12.51.06-14.9.36-14.82s6 3.31 12.9 7.25c8.08 4.62 12.52 7.3 12.48 7.54s-24.28 14.53-25.29 14.82c-.43.12-.46-.71-.46-14.78ZM14.17 86.88v-15l1.24.64c3.95 2 24.44 14.18 24.44 14.47s-24.74 14.87-25.35 14.88c-.26.01-.33-3.16-.33-14.99Zm45.75 7.72c-6.88-4-12.51-7.41-12.51-7.6 0-.4 25.38-15.16 25.71-15 .12.08.22 6.82.22 15 0 14 0 14.84-.46 14.83-.24.03-6.07-3.24-12.96-7.23ZM76.48 87c0-8.18.1-14.91.23-15 .41-.26 25.71 14.46 25.71 15s-24.75 14.85-25.48 14.86c-.43 0-.46-.87-.46-14.84Zm46.14 7.59C115.23 90.39 110 87.23 110 87s19.14-11.55 24.85-14.63c.5-.27.65-.26.84.05s.35 28.36.09 29c-.09.23-.23.41-.33.41s-5.86-3.26-12.81-7.25ZM29.29 76.71c-6.8-3.93-12.52-7.32-12.73-7.52s-.28-.42.25-.75c2.19-1.38 24.76-14.26 25-14.26s.39 29.35.06 29.56c-.11.07-5.77-3.09-12.57-7Zm16.06 6.77c-.21-.54-.2-28.22 0-29 .11-.42.29-.55.58-.44s6 3.4 12.88 7.37c8.28 4.79 12.45 7.34 12.4 7.59S46.42 83.9 45.84 83.9a.62.62 0 0 1-.48-.41Zm45.85-6.84c-8.55-5-12.51-7.39-12.51-7.68s4-2.74 12.64-7.74c7-4 12.72-7.31 12.81-7.31s.24.26.32.58c.21.77.21 28.44 0 29a.61.61 0 0 1-.46.41c-.17 0-5.93-3.26-12.81-7.25ZM107.76 69c0-10.67.08-14.86.29-14.86.64 0 25.52 14.48 25.46 14.82s-25 14.9-25.51 14.9c-.14 0-.24-6-.24-14.86ZM14.17 50.91c0-14.15 0-15 .46-14.79.75.28 24.67 14.17 25.08 14.57.24.23.29.45.13.59-.48.44-24.76 14.42-25.21 14.51s-.46-.76-.46-14.87Zm46 7.69c-6.88-4-12.51-7.41-12.51-7.6 0-.44 24.87-14.88 25.33-14.7.29.11.34 2.69.28 14.78 0 9.49-.16 14.67-.33 14.71s-5.89-3.2-12.77-7.2Zm16.6 7c-.37-.37-.43-28.53-.07-29.1a.49.49 0 0 1 .49-.26c.15.05 5.85 3.32 12.67 7.27 7.74 4.48 12.38 7.3 12.34 7.52s-5.58 3.54-12.32 7.44L77.37 65.7a.51.51 0 0 1-.59-.12Zm45.84-7c-7-4-12.67-7.41-12.71-7.61s4.4-2.92 12.21-7.4c6.75-3.87 12.51-7.15 12.79-7.28s.58-.14.75.13.34 28.36.09 29c-.09.23-.23.41-.33.4s-5.86-3.28-12.81-7.26ZM29.29 40.73c-6.8-3.93-12.52-7.32-12.73-7.52s-.28-.42.25-.76c2-1.29 24.4-14.1 24.79-14.2s.47.6.47 14.62c0 8.11-.09 14.8-.21 14.87s-5.77-3.09-12.57-7Zm16.34 7c-.1-.1-.17-6.78-.17-14.86 0-12.15.06-14.69.35-14.69s22.08 12.49 24.9 14.26c.52.33.56.44.26.75S46 47.92 45.85 47.92a.78.78 0 0 1-.22-.17Zm46-7c-6.79-3.94-12.51-7.32-12.71-7.52s-.28-.42.25-.75c2.32-1.46 24.33-14.08 24.74-14.19s.51.09.51 14.61c0 8.11-.1 14.81-.22 14.88s-5.83-3.08-12.62-7.02ZM107.76 33c0-14.6 0-14.89.51-14.76 1.15.3 25.3 14.41 25.24 14.75S108.44 47.92 108 47.92c-.15 0-.24-6.7-.24-14.92ZM60.07 22.63c-6.94-4-12.68-7.36-12.76-7.44s0-.3.24-.5C48 14.21 72.27.17 72.88 0c.45-.12.47.55.47 14.9 0 11.91-.07 15-.33 15S67 26.64 60.07 22.63Zm16.59 7.13c-.31-.31-.22-29.5.09-29.69s25.8 14.49 25.8 14.9c0 .25-24.08 14.36-25.3 14.82a.63.63 0 0 1-.59 0Z"/><path id="path828" class="cls-2" d="M60.24 130.4c-6.84-4-12.44-7.27-12.44-7.38s24.79-14.62 25.12-14.62c.09 0 .17 6.57.17 14.6s-.09 14.6-.21 14.6-5.8-3.24-12.64-7.2Zm16.67 7c-.25-.25-.21-28.71 0-28.87S101.9 122.66 101.9 123s-24.4 14.59-24.76 14.59a.69.69 0 0 1-.23-.17ZM45.72 105c0-8 .07-14.63.16-14.63s5.78 3.25 12.65 7.22c9.86 5.7 12.42 7.29 12.16 7.54s-23.91 14.09-24.57 14.34c-.35.14-.4-1.49-.4-14.47Zm45.88 7.5c-6.67-3.88-12.27-7.2-12.45-7.37s2.2-1.78 12.17-7.54c6.88-4 12.57-7.22 12.65-7.22s.14 6.57.14 14.6-.09 14.6-.2 14.59-5.65-3.18-12.32-7.06ZM60.31 94.44c-6.81-3.94-12.41-7.27-12.45-7.39S72 72.65 72.75 72.47c.28-.07.34 2.59.34 14.53 0 8-.09 14.61-.2 14.61s-5.77-3.23-12.58-7.17Zm16.59 7c-.26-.26-.2-28.71.07-28.87s24.86 14 25 14.4c.06.18-19.7 11.8-24.73 14.55a.3.3 0 0 1-.33-.08ZM45.72 69c0-13.49 0-14.61.43-14.46.24.09 5.93 3.35 12.66 7.23 9.85 5.7 12.19 7.14 11.89 7.4S46 83.63 45.82 83.63s-.1-6.63-.1-14.63Zm45.8 7.47c-6.71-3.91-12.32-7.22-12.46-7.37s3.73-2.57 12-7.34c6.74-3.89 12.44-7.15 12.66-7.23s.4 1.46.4 14.47c0 8-.09 14.62-.2 14.6s-5.69-3.22-12.4-7.13ZM60.13 22.3c-6.77-3.91-12.27-7.22-12.23-7.36C48 14.62 72.3.49 72.76.48c.26 0 .33 3.06.33 14.46S73 29.41 72.76 29.4s-5.86-3.19-12.63-7.1ZM76.74 15c0-11.43.07-14.5.33-14.49.46 0 24.78 14.15 24.88 14.46s-23.74 14.11-24.7 14.36c-.5.14-.51-.05-.51-14.33Z"/><path class="cls-1" d="M73.16 179a14 14 0 0 1-4.45-2.2c-1-.72-1.87-1.7-1.87-2a11.77 11.77 0 0 1 2-2 6.75 6.75 0 0 1 .93.75c2.12 1.88 3.89 2.62 6 2.51 3.43-.18 5.49-2.66 4.64-5.59-.52-1.8-2-2.94-5.3-4.1-4-1.39-5.64-2.62-6.72-4.9a4.73 4.73 0 0 1-.52-2.84 6.75 6.75 0 0 1 1.29-4.41 7.67 7.67 0 0 1 3.44-2.44 11 11 0 0 1 7.16.52 10.68 10.68 0 0 1 2.85 2 11 11 0 0 1-1.84 2.33 4.61 4.61 0 0 1-1-.57 6.66 6.66 0 0 0-4.2-1.31 3.92 3.92 0 0 0-2.16.35 4 4 0 0 0-2.1 3.67 2.87 2.87 0 0 0 .38 1.77c.55 1 1.25 1.4 3.9 2.41 1.26.48 2.7 1.08 3.2 1.34 3.88 1.95 5.67 4.94 5.13 8.57a6.8 6.8 0 0 1-1.99 4.14 8.2 8.2 0 0 1-6.19 2.37 12 12 0 0 1-2.58-.37ZM121.09 161.84a15 15 0 0 0-5-7.55 13.93 13.93 0 0 0-19.71 2.25 17 17 0 0 0-2.63 5.1 18.8 18.8 0 0 0-.17 6.52 14.35 14.35 0 0 0 6.87 9.44 17.57 17.57 0 0 0 4.32 1.57 19.23 19.23 0 0 0 5.25-.05 14.49 14.49 0 0 0 11-10.29 16.93 16.93 0 0 0 .07-6.99Zm-4.16 8.24a11 11 0 0 1-7.1 5.73 11.9 11.9 0 0 1-5.05-.08 10.76 10.76 0 0 1-6.78-5.44 9.75 9.75 0 0 1-1.18-4.94 10 10 0 0 1 3.2-7.67 9.67 9.67 0 0 1 7.26-3.09 9.47 9.47 0 0 1 5.08 1.23 10.27 10.27 0 0 1 4.47 4.61 10.45 10.45 0 0 1 .1 9.65ZM135.87 179a14.9 14.9 0 0 1-4-1.81c-1-.69-2.24-2-2.24-2.3a4.12 4.12 0 0 1 1-1.26l1-1 .62.58c2.53 2.38 5.12 3.24 7.67 2.55a4.2 4.2 0 0 0 3.39-3.91 3.88 3.88 0 0 0-1.35-3.4 8.86 8.86 0 0 0-3.95-2.12c-3.84-1.33-5.77-2.66-6.75-4.68a8.28 8.28 0 0 1-.12-6.13 7.33 7.33 0 0 1 2.54-3.05 9.94 9.94 0 0 1 9-.21 7.94 7.94 0 0 1 2.68 2 9.19 9.19 0 0 1-1.73 2.23 2.15 2.15 0 0 1-1-.49c-2.23-1.6-5.21-1.86-7-.6a4 4 0 0 0-1.51 3.25 5.22 5.22 0 0 0 .23 1.58c.37.9 1.45 1.66 3.29 2.35a25.69 25.69 0 0 1 5.41 2.47 7.63 7.63 0 0 1-2.18 14 11.81 11.81 0 0 1-5-.06ZM1 178.92c-.06-.06-.12-4.22-.12-9.24 0-7.67 0-9.12.23-9.12a10.7 10.7 0 0 1 1.73 2l1.5 2v14.36H2.77a6.87 6.87 0 0 1-1.77 0ZM26.41 178.92c-.06-.06-.12-4.29-.12-9.4s-.06-9.28-.12-9.28a17.22 17.22 0 0 0-1.56 2c-.79 1.11-2.93 3.91-4.75 6.22-4.68 5.95-4.43 5.66-4.72 5.41S6 162.12 3.42 158.48L.91 155v-2.24a7.56 7.56 0 0 1 .16-2.24c.23 0 .67.55 7.72 9.72 3.52 4.58 6.47 8.32 6.55 8.32s3.15-3.91 6.83-8.68 6.83-8.84 7-9 .38-.29.45-.21.12 6.47.09 14.22v14.08h-1.57a6.87 6.87 0 0 1-1.69-.07ZM40.38 178.82c0-.11-.06-6.29 0-13.72v-13.51H57.2v3.13l-6.67.08-6.67.08v8.57l5.93.08 5.93.08v3.13l-5.93.08-5.93.08v8.82h6.92c6.67 0 6.93 0 7.09.32a6.47 6.47 0 0 1 .07 2.61l-.1.37H49.1c-6.76 0-8.66 0-8.72-.21Z"/><path class="cls-2" d="M73.95 179a13.85 13.85 0 0 1-4.24-1.71c-1.18-.76-2.54-2-2.54-2.37a5.82 5.82 0 0 1 1.7-1.83 8.3 8.3 0 0 1 1.22.93c3.1 2.63 6.94 3 9.34.88a3.68 3.68 0 0 0 1.34-3.29 3.27 3.27 0 0 0-.45-2.17c-.83-1.4-2.27-2.33-5.29-3.37-3.47-1.2-5.33-2.52-6.29-4.46a5.13 5.13 0 0 1-.54-2.62 6.88 6.88 0 0 1 1-4.4c1.75-2.75 5.93-3.79 9.81-2.43a10.27 10.27 0 0 1 3.28 2.06c.1.26-1.37 2.28-1.57 2.15l-1-.66c-2.39-1.61-5.93-1.64-7.37-.06a4.84 4.84 0 0 0-1 4.5 4.62 4.62 0 0 0 2.12 2.16c.29.13 1.58.65 2.87 1.15a32.25 32.25 0 0 1 3.39 1.54 10.21 10.21 0 0 1 3.51 3.6c.47.94.49 1.08.49 3a6.72 6.72 0 0 1-.39 3 8.44 8.44 0 0 1-3.13 3.46 10.13 10.13 0 0 1-6.26.92ZM120.9 162.11a14.23 14.23 0 0 0-10.8-10.45 18.62 18.62 0 0 0-5.44 0 14.94 14.94 0 0 0-6.4 3.2 15.43 15.43 0 0 0-4.33 7.14 18.45 18.45 0 0 0 0 6.65 12.73 12.73 0 0 0 3.74 6.45 13.38 13.38 0 0 0 7.55 4 18.14 18.14 0 0 0 5.75-.32 14 14 0 0 0 9.93-10.07 16.07 16.07 0 0 0 0-6.6Zm-3.83 8.17a11.38 11.38 0 0 1-7 5.67 10.59 10.59 0 0 1-10.29-2.86 10.92 10.92 0 0 1-2.76-4.52 12.22 12.22 0 0 1-.16-6 11.8 11.8 0 0 1 4.42-6.29 10.46 10.46 0 0 1 10.84-.78 12.23 12.23 0 0 1 4.83 4.71 11 11 0 0 1 .12 10.07ZM136.45 178.94a14 14 0 0 1-4-1.59 9.08 9.08 0 0 1-2.69-2.42 6.29 6.29 0 0 1 1.69-1.84 7 7 0 0 1 1.25.91c3.36 2.8 7.42 3 9.65.56a3.6 3.6 0 0 0 1.09-2.83 3.79 3.79 0 0 0-1-3c-1-1.09-1.95-1.65-4.66-2.66-3.11-1.16-4.2-1.75-5.24-2.84a5.93 5.93 0 0 1-1.77-4.21c-.26-4.53 2.56-7.4 7.3-7.44a9.33 9.33 0 0 1 6.34 2.14l.67.58-.44.6c-.24.33-.63.8-.86 1.05l-.41.45-.55-.42c-2.46-1.88-6.1-2.08-7.75-.44a4.34 4.34 0 0 0-1.28 3.28 2.41 2.41 0 0 0 .49 1.9c.63.9 1.7 1.55 3.89 2.35 5.38 2 7.7 4.05 8.25 7.38a7.66 7.66 0 0 1-2 6.38 8.91 8.91 0 0 1-7.97 2.11ZM1.19 178.75c-.18-.18-.14-17.86 0-17.86a13.61 13.61 0 0 1 1.57 1.91l1.42 1.91v14H2.77a5.65 5.65 0 0 1-1.52-.07ZM26.57 178.75c-.07-.07-.11-4.35-.11-9.52 0-5.6 0-9.42-.14-9.45a12.87 12.87 0 0 0-1.72 2.14c-.86 1.2-2.74 3.68-4.18 5.5s-3.13 4-3.77 4.81a8.52 8.52 0 0 1-1.32 1.51c-.2 0-8.34-10.63-11.73-15.32L1.16 155l-.06-2c0-1.64 0-2 .16-2s1.11 1.19 8.94 11.39c3.11 4 5 6.38 5.16 6.35s3.3-4 7-8.85 6.88-8.84 7-8.87.2 2.74.16 13.83v13.9h-1.41a5.52 5.52 0 0 1-1.53-.07ZM40.54 178.65c0-.11-.06-6.21 0-13.56v-13.35H57v2.8H43.6l-.1.37c-.13.48-.13 7.84 0 8.32l.1.37h12v2.8h-12l-.1.37c-.05.2-.1 2.2-.1 4.44 0 3.48 0 4.1.26 4.33s1.1.26 7.09.26h6.83v2.8h-8.46c-6.64 0-8.51 0-8.57-.21Z"/><g class="cls-3"><path class="cls-2" d="m0 142.45 3.58-9.33h1.33l3.82 9.33h-1.4l-1.09-2.83h-3.9l-1 2.83Zm2.69-3.83h3.17l-1-2.58q-.45-1.18-.66-1.94a11.89 11.89 0 0 1-.5 1.78ZM9.57 145v-9.35h1v.88a2.57 2.57 0 0 1 .83-.77 2.29 2.29 0 0 1 1.13-.26 2.67 2.67 0 0 1 1.53.45 2.74 2.74 0 0 1 1 1.26 4.59 4.59 0 0 1 .34 1.78 4.52 4.52 0 0 1-.37 1.87 2.81 2.81 0 0 1-1.03 1.3 2.78 2.78 0 0 1-1.49.44 2.15 2.15 0 0 1-1-.24 2.34 2.34 0 0 1-.75-.61V145Zm1-5.93a2.94 2.94 0 0 0 .53 1.93 1.62 1.62 0 0 0 1.28.62 1.66 1.66 0 0 0 1.31-.65 3.07 3.07 0 0 0 .54-2 3 3 0 0 0-.53-1.94 1.6 1.6 0 0 0-1.27-.64 1.65 1.65 0 0 0-1.3.68 3.06 3.06 0 0 0-.52 2.03ZM21.24 141.61a4.27 4.27 0 0 1-1.23.76 3.54 3.54 0 0 1-1.26.22 2.46 2.46 0 0 1-1.71-.54 1.8 1.8 0 0 1-.6-1.39 1.85 1.85 0 0 1 .23-.91 1.87 1.87 0 0 1 .59-.66 2.79 2.79 0 0 1 .82-.38 8.19 8.19 0 0 1 1-.17 10.48 10.48 0 0 0 2-.39v-.3a1.27 1.27 0 0 0-.32-1 1.92 1.92 0 0 0-1.3-.39 2 2 0 0 0-1.19.28 1.73 1.73 0 0 0-.57 1l-1.12-.15a2.78 2.78 0 0 1 .5-1.16 2.2 2.2 0 0 1 1-.68 4.52 4.52 0 0 1 1.53-.24 4.06 4.06 0 0 1 1.41.2 1.85 1.85 0 0 1 .8.51 1.8 1.8 0 0 1 .36.78 6.44 6.44 0 0 1 .06 1.06v1.53a16.23 16.23 0 0 0 .07 2 2.54 2.54 0 0 0 .29.81h-1.2a2.43 2.43 0 0 1-.16-.79Zm-.1-2.56a8.41 8.41 0 0 1-1.87.43 4.33 4.33 0 0 0-1 .23 1 1 0 0 0-.45.37 1 1 0 0 0 .18 1.32 1.49 1.49 0 0 0 1 .31 2.36 2.36 0 0 0 1.18-.29 1.78 1.78 0 0 0 .76-.79 2.77 2.77 0 0 0 .18-1.15ZM28.49 140l1.13.15a2.92 2.92 0 0 1-.95 1.82 2.75 2.75 0 0 1-1.87.66 2.9 2.9 0 0 1-2.23-.91 3.68 3.68 0 0 1-.84-2.6 4.71 4.71 0 0 1 .36-1.92 2.53 2.53 0 0 1 1.1-1.23 3.28 3.28 0 0 1 1.61-.41 2.81 2.81 0 0 1 1.8.56 2.55 2.55 0 0 1 .9 1.58l-1.11.17a1.85 1.85 0 0 0-.56-1 1.46 1.46 0 0 0-1-.34 1.78 1.78 0 0 0-1.41.62 3 3 0 0 0-.54 2 3 3 0 0 0 .52 2 1.7 1.7 0 0 0 1.36.62 1.61 1.61 0 0 0 1.13-.41 2.06 2.06 0 0 0 .6-1.36ZM30.59 142.45v-9.33h1.15v3.35a2.56 2.56 0 0 1 2-.93 2.73 2.73 0 0 1 1.3.3 1.74 1.74 0 0 1 .79.82 3.77 3.77 0 0 1 .24 1.52v4.28H35v-4.28a1.77 1.77 0 0 0-.37-1.25 1.38 1.38 0 0 0-1.05-.39 1.86 1.86 0 0 0-1 .26 1.49 1.49 0 0 0-.64.72 3.29 3.29 0 0 0-.19 1.25v3.7ZM42.47 140.27l1.18.15a2.89 2.89 0 0 1-1 1.61 3.52 3.52 0 0 1-4.29-.34 3.57 3.57 0 0 1-.87-2.56 3.74 3.74 0 0 1 .88-2.65 3 3 0 0 1 2.28-.94 2.89 2.89 0 0 1 2.22.92 3.67 3.67 0 0 1 .86 2.6v.31h-5a2.59 2.59 0 0 0 .63 1.71 1.88 1.88 0 0 0 1.41.59 1.75 1.75 0 0 0 1.08-.33 2.2 2.2 0 0 0 .62-1.07Zm-3.76-1.85h3.78a2.29 2.29 0 0 0-.43-1.28 1.76 1.76 0 0 0-1.42-.66 1.82 1.82 0 0 0-1.33.53 2.09 2.09 0 0 0-.6 1.41Z"/></g><g class="cls-3"><path class="cls-2" d="M146.88 147v-2.44H146v-.33h2.19v.33h-.91V147ZM148.52 147v-2.76h.55l.65 2 .13.41.15-.44.66-1.92h.49V147h-.35v-2.31L150 147h-.33l-.8-2.35V147Z"/></g></g></g></svg>