<svg version="1.1" id="Layer_1" xmlns="http://www.w3.org/2000/svg" x="0" y="0" viewBox="0 0 300 73" style="enable-background:new 0 0 300 73" xml:space="preserve"><style>.st0{fill:#513179}.st1{fill:#4f3078}.st2{fill:#4e2f77}</style><path class="st0" d="M253.2 41.2V27.1c0-2 .2-3 2.6-3.2 4.5-.9 9.1-1.1 13.6-.8 1.9 0 3.6.7 5 2 1.4 1.4 2.2 1 3.6.2 4-2.2 8.6-2.9 13-2 4.4.8 7.8 4.4 8.2 8.9 1.2 8.2.4 16.5.6 24.7.1.6-.3 1.1-.9 1.2H296c-1.8.2-2.4-.6-2.4-2.4 0-6.6 0-13-.2-19.7 0-3-.6-6-3.8-7.2-3.5-1.2-7.3-.8-10.4 1.2-1 .6-.6 1.4-.4 2.2 1.2 8 .2 16.2.6 24.3 0 1.4-.6 1.6-1.8 1.6h-2.4c-1.6.2-1.8-.6-1.8-2V38.6c-.2-9-4-12-12.8-10-1.6.4-1.4 1.2-1.4 2.4v24.7c0 2.2-.8 2.6-2.8 2.4-1.6-.2-3.6.6-3.4-2.4.4-4.9.2-9.7.2-14.5z"/><path class="st1" d="M126.5 56.3v11.4c0 1.8-.4 2.4-2.4 2.4-3.6-.2-3.6 0-3.6-3.6V27.8c0-2.4.4-3.6 3-4 3.9-.8 7.8-1 11.8-.8 8.6.4 15.4 7.4 15.4 16.1.2 2.6 0 5.3-.6 7.8-1.8 8.2-9.8 13.4-18 11.6-.8-.2-1.7-.4-2.5-.8-1-.3-2.1-.8-3.1-1.4zm5.4-28h-2.6c-2.2-.2-3 .6-3 3 .2 5.6.2 11.2 0 16.9-.1 1.6.8 3.1 2.4 3.6 7.4 3.6 14.1.4 15.4-7.6 1.5-8.9-2.4-16.3-12.2-15.7v-.2zM165.4 56.3v11.4c0 1.6-.4 2.2-2.2 2.2-4.7-.2-3.8.4-3.8-3.8V26.8c0-2 .4-2.6 2.4-3 4.8-1.3 9.9-1.5 14.8-.6 8.4 1.8 13.4 9.2 12.6 18.5-.1 1.8-.3 3.5-.8 5.2-1.7 8-9.5 13.2-17.5 11.6-1-.2-2-.5-2.9-.9-.9-.4-1.8-.8-2.6-1.3zm0-16.4v9c0 1 0 1.8 1 2.4 2.9 1.9 6.5 2.5 9.8 1.4 5-1.4 6.4-5.4 6.8-10 .8-7.2-1.8-15.7-13-14.6-.9 0-1.8 0-2.6.2-1.1-.2-2 .5-2.2 1.6v.6c.3 3.2.3 6.4.2 9.6v-.2z"/><path class="st0" d="M110 44.4v11c0 1.4-.4 2-2 2.2-5.2.6-10.2 1.6-15.4.6-6.4-1.2-9.4-4.7-9.4-10.8.2-5.4 4-9.2 10-10 3-.5 6.1-.5 9 .2 1.8.4 1.8-.4 1.8-1.6 0-5.6-2.6-8-8.2-8-2.2.1-4.4.3-6.6.8-.8.2-1.8.8-1.8-.8s-1.8-3.4.6-4c5.1-1.7 10.6-1.7 15.7 0 3.6 1.5 6 4.9 6.2 8.8.2 3.8 0 7.8 0 11.6h.1zm-6 3.4c-.1-.9-.1-1.7 0-2.6.4-2.2-.6-3-3-3.2-2.2-.2-4.4-.2-6.6.2-2.9.2-5.2 2.7-5 5.6-.2 2.8 2 5.2 4.8 5.4h.4c1.2.2 2.4.2 3.6.2 5.8 0 5.8 0 5.8-5.6z"/><path class="st2" d="M242.4 40.2V55c0 1 .2 1.8-1.2 2-5.2 1.3-10.7 1.7-16.1 1-5.3-.7-9.5-5.1-9.8-10.4-1-6-.2-12.2-.4-18.2.1-.9.1-1.7 0-2.6-.4-2.6.4-3.6 3.2-3.4 2.2.2 3 .4 3 2.8-.2 5.8-.2 11.6.2 17.4.4 7.6 3.2 9.8 10.8 9.4 4.7-.2 4.7-.2 4.7-4.7 0-7.6.2-15.2 0-22.7 0-2.4 1.2-2.2 2.8-2.2 1.6 0 3.4-1 3.4 2-.5 4.9-.7 9.9-.6 14.8z"/><path class="st0" d="M198.3 40.6V25.7c0-1.6.4-2.4 2.2-2.2.7.1 1.5.1 2.2 0 1.4-.2 2 .4 2 1.8v30.6c0 1.8-.6 2-2.2 2-5-.2-4 .4-4-4s-.2-8.9-.2-13.3zM201.3 9.3c2-.1 3.7 1.4 3.8 3.5v.5c0 2.2-1.8 4-4 4-2.1 0-3.8-1.8-3.8-3.9v-.1c0-2.2 1.8-4 4-4z"/><path d="M57.3 7.3C44.7-2 27.5-2.2 14.8 6.9 1.1 15.9.4 32.6.4 32.6c2.4 9 11.4 17.8 29.1 13.6-2-12.4 2-43.3 27.8-38.9z" style="fill:#00acd2"/><path d="M48.3 36.8C38.7 44.6 9.9 56.9.5 32.6-1.7 43.8 4.3 62.7 21 69.9c14.6 7.2 29.9-1.2 29.9-1.2 6.7-6.6 9.7-18.7-2.6-31.9" style="fill:#cfe5e1"/><path class="st2" d="M31 25.7c11.7 4.3 36.5 22.9 20.1 43 10.8-3.8 23.5-18.2 21.5-36.3-1-16.2-15.2-25.1-15.2-25.1-9.1-2.6-21.3 1-26.4 18.4"/></svg>