<svg version="1.1" id="Layer_1" xmlns="http://www.w3.org/2000/svg" x="0" y="0" viewBox="0 0 500 162.9" style="enable-background:new 0 0 500 162.9" xml:space="preserve"><style>.st0{fill:#f68d13}</style><switch><g><path class="st0" d="m180.4 8.1-11.2-2.9v17.3l11.2 2.8zM182.1 5.1l10-2.5-10-2.6L172 2.6zM183.7 8.1v17.2l11.2-2.8V5.2zM165.9 32.3l-11.2-2.9v17.3l11.2 2.9zM167.6 29.3l10.1-2.5-10.1-2.5-10.1 2.5zM169.2 32.3v17.3l11.2-2.9V29.4zM136.7 32.3l-11.3-2.9v17.3l11.3 2.9zM138.3 29.3l10.1-2.5-10.1-2.5-10.1 2.5zM139.9 32.3v17.3l11.3-2.9V29.4zM151.2 56.8l-11.3-2.9v17.3l11.3 2.8zM152.8 53.8l10.1-2.5-10.1-2.6-10.1 2.6zM154.4 56.8V74l11.3-2.8V53.9zM209.3 8.1l-11.2-2.9v17.3l11.2 2.8zM211 5.1l10-2.5L211 0l-10.1 2.6zM212.6 8.1v17.2l11.2-2.8V5.2z"/><path d="m211.6 85-3.3-10.8h-16.6L188.4 85H178l16.1-45.7h11.8L222 85h-10.4zM206 66.1c-3.1-9.8-4.8-15.4-5.2-16.7-.4-1.3-.7-2.3-.8-3.1-.7 2.7-2.6 9.2-5.9 19.7H206zM272 85h-11l-6.2-23.9c-.2-.9-.6-2.6-1.2-5.3s-.9-4.5-.9-5.4c-.1 1.1-.4 2.9-.9 5.4-.5 2.5-.9 4.2-1.2 5.3L244.5 85h-11L222 39.5h9.5l5.8 24.8c1 4.6 1.8 8.6 2.2 11.9.1-1.2.4-3 .9-5.5s.9-4.4 1.3-5.8l6.6-25.5h9.1L264 65c.3 1.1.7 2.9 1.1 5.2s.8 4.4 1 6c.2-1.6.5-3.6 1-6.1.5-2.4.9-4.4 1.2-5.9l5.8-24.8h9.5L272 85zM316.2 72.3c0 4.1-1.5 7.3-4.4 9.7-3 2.4-7.1 3.5-12.3 3.5-4.9 0-9.2-.9-12.9-2.7v-9c3.1 1.4 5.7 2.3 7.8 2.9 2.1.6 4.1.8 5.8.8 2.1 0 3.7-.4 4.9-1.2 1.1-.8 1.7-2 1.7-3.6 0-.9-.2-1.7-.7-2.4-.5-.7-1.2-1.4-2.2-2-1-.6-2.9-1.7-5.9-3.1-2.8-1.3-4.9-2.6-6.3-3.8-1.4-1.2-2.5-2.6-3.3-4.2s-1.2-3.5-1.2-5.6c0-4 1.4-7.2 4.1-9.5 2.7-2.3 6.5-3.5 11.3-3.5 2.4 0 4.6.3 6.8.8 2.1.6 4.4 1.3 6.7 2.4l-3.1 7.5c-2.4-1-4.4-1.7-6-2.1-1.6-.4-3.1-.6-4.7-.6-1.8 0-3.2.4-4.2 1.3s-1.5 2-1.5 3.3c0 .9.2 1.6.6 2.2.4.6 1 1.2 1.9 1.8s2.9 1.7 6.1 3.2c4.3 2 7.2 4.1 8.7 6.1 1.5 2.4 2.3 4.9 2.3 7.8zM37.8 124.4c0 7.5-2.1 13.2-6.4 17.2-4.3 4-10.4 6-18.5 6H0v-45.5h14.3c7.4 0 13.2 2 17.3 5.9 4.1 3.9 6.2 9.4 6.2 16.4zm-10.1.3c0-9.8-4.3-14.7-12.9-14.7H9.6v29.6h4.1c9.4 0 14-5 14-14.9zM62.2 148.2c-5.6 0-10-1.5-13.1-4.6-3.2-3.1-4.7-7.5-4.7-13.1 0-5.8 1.5-10.3 4.4-13.5 2.9-3.2 6.9-4.8 12.1-4.8 4.9 0 8.7 1.4 11.5 4.2 2.7 2.8 4.1 6.7 4.1 11.6v4.6H53.9c.1 2.7.9 4.8 2.4 6.3s3.6 2.3 6.3 2.3c2.1 0 4.1-.2 5.9-.7 1.9-.4 3.8-1.1 5.9-2.1v7.3c-1.7.8-3.4 1.4-5.3 1.9-1.9.4-4.2.6-6.9.6zm-1.4-29.3c-2 0-3.6.6-4.7 1.9-1.1 1.3-1.8 3.1-2 5.4h13.3c0-2.3-.7-4.2-1.8-5.4-1.1-1.3-2.7-1.9-4.8-1.9zM92.4 147.6l-13.3-34.8H89l6.7 19.8c.7 2.5 1.2 4.9 1.4 7.1h.2c.1-2 .6-4.4 1.4-7.1l6.7-19.8h9.9L102 147.6h-9.6zM136.1 148.2c-5.6 0-10-1.5-13.1-4.6-3.2-3.1-4.7-7.5-4.7-13.1 0-5.8 1.5-10.3 4.4-13.5 2.9-3.2 6.9-4.8 12.1-4.8 4.9 0 8.7 1.4 11.5 4.2 2.7 2.8 4.1 6.7 4.1 11.6v4.6H128c.1 2.7.9 4.8 2.4 6.3s3.6 2.3 6.3 2.3c2.1 0 4.1-.2 5.9-.7 1.9-.4 3.8-1.1 5.9-2.1v7.3c-1.7.8-3.4 1.4-5.3 1.9-2.1.4-4.4.6-7.1.6zm-1.3-29.3c-2 0-3.6.6-4.7 1.9-1.1 1.3-1.8 3.1-2 5.4h13.3c0-2.3-.7-4.2-1.8-5.4-1.2-1.3-2.8-1.9-4.8-1.9zM167.5 147.6H158V99.2h9.5v48.4zM209.1 130.1c0 5.7-1.5 10.1-4.5 13.3-3 3.2-7.1 4.8-12.5 4.8-3.3 0-6.3-.7-8.8-2.2-2.6-1.5-4.5-3.6-5.9-6.3-1.4-2.7-2.1-5.9-2.1-9.6 0-5.7 1.5-10.1 4.5-13.3s7.1-4.7 12.5-4.7c3.3 0 6.3.7 8.8 2.2 2.6 1.5 4.5 3.5 5.9 6.3 1.4 2.7 2.1 5.9 2.1 9.5zm-24.1 0c0 3.4.6 6 1.7 7.8 1.1 1.8 3 2.6 5.5 2.6s4.4-.9 5.5-2.6 1.7-4.4 1.7-7.8c0-3.4-.6-6-1.7-7.7-1.1-1.7-3-2.6-5.5-2.6s-4.4.9-5.5 2.6c-1.1 1.7-1.7 4.3-1.7 7.7zM236 148.2c-4.1 0-7.3-1.5-9.6-4.5h-.5c.3 2.9.5 4.6.5 5v14.1h-9.5v-50.1h7.7l1.3 4.5h.4c2.2-3.4 5.5-5.2 9.9-5.2 4.1 0 7.3 1.6 9.6 4.8 2.3 3.2 3.5 7.6 3.5 13.2 0 3.7-.5 6.9-1.6 9.7s-2.6 4.8-4.7 6.3c-1.9 1.5-4.2 2.2-7 2.2zm-2.8-28.5c-2.3 0-4.1.7-5.1 2.2-1.1 1.4-1.6 3.8-1.7 7.1v1c0 3.7.6 6.4 1.7 8 1.1 1.6 2.9 2.4 5.3 2.4 4.3 0 6.4-3.5 6.4-10.5 0-3.4-.5-6-1.6-7.7-1.1-1.6-2.7-2.5-5-2.5zM273 148.2c-5.6 0-10-1.5-13.1-4.6-3.2-3.1-4.7-7.5-4.7-13.1 0-5.8 1.5-10.3 4.4-13.5 2.9-3.2 6.9-4.8 12.1-4.8 4.9 0 8.7 1.4 11.5 4.2 2.7 2.8 4.1 6.7 4.1 11.6v4.6h-22.4c.1 2.7.9 4.8 2.4 6.3s3.6 2.3 6.3 2.3c2.1 0 4.1-.2 5.9-.7 1.9-.4 3.8-1.1 5.9-2.1v7.3c-1.7.8-3.4 1.4-5.3 1.9-2.1.4-4.4.6-7.1.6zm-1.3-29.3c-2 0-3.6.6-4.7 1.9-1.1 1.3-1.8 3.1-2 5.4h13.3c0-2.3-.7-4.2-1.8-5.4-1.2-1.3-2.8-1.9-4.8-1.9zM314.3 112.1c1.3 0 2.4.1 3.2.3l-.7 8.9c-.8-.2-1.7-.3-2.8-.3-3 0-5.4.8-7.1 2.3-1.7 1.6-2.5 3.7-2.5 6.5v17.7h-9.5v-34.8h7.2l1.4 5.9h.5c1.1-2 2.5-3.5 4.4-4.7 1.8-1.2 3.8-1.8 5.9-1.8zM358.7 147.6h-9.6v-37.5h-12.4v-8h34.4v8h-12.4v37.5zM409 130.1c0 5.7-1.5 10.1-4.5 13.3-3 3.2-7.1 4.8-12.5 4.8-3.3 0-6.3-.7-8.8-2.2-2.6-1.5-4.5-3.6-5.9-6.3-1.4-2.7-2.1-5.9-2.1-9.6 0-5.7 1.5-10.1 4.5-13.3 3-3.2 7.1-4.7 12.5-4.7 3.3 0 6.3.7 8.8 2.2 2.6 1.5 4.5 3.5 5.9 6.3 1.4 2.7 2.1 5.9 2.1 9.5zm-24.1 0c0 3.4.6 6 1.7 7.8 1.1 1.8 3 2.6 5.5 2.6s4.4-.9 5.5-2.6 1.7-4.4 1.7-7.8c0-3.4-.6-6-1.7-7.7-1.1-1.7-3-2.6-5.5-2.6s-4.4.9-5.5 2.6c-1.1 1.7-1.7 4.3-1.7 7.7zM448.4 130.1c0 5.7-1.5 10.1-4.5 13.3-3 3.2-7.1 4.8-12.5 4.8-3.3 0-6.3-.7-8.8-2.2-2.6-1.5-4.5-3.6-5.9-6.3-1.4-2.7-2.1-5.9-2.1-9.6 0-5.7 1.5-10.1 4.5-13.3s7.1-4.7 12.5-4.7c3.3 0 6.3.7 8.8 2.2 2.6 1.5 4.5 3.5 5.9 6.3 1.4 2.7 2.1 5.9 2.1 9.5zm-24 0c0 3.4.6 6 1.7 7.8s3 2.6 5.5 2.6 4.4-.9 5.5-2.6c1.1-1.8 1.7-4.4 1.7-7.8 0-3.4-.6-6-1.7-7.7-1.1-1.7-3-2.6-5.5-2.6s-4.4.9-5.5 2.6c-1.2 1.7-1.7 4.3-1.7 7.7zM465.8 147.6h-9.5V99.2h9.5v48.4zM500 137.3c0 3.6-1.2 6.3-3.7 8.2-2.5 1.9-6.2 2.8-11.1 2.8-2.5 0-4.7-.2-6.5-.5s-3.5-.8-5-1.5v-7.8c1.8.8 3.8 1.5 6 2.1s4.2.8 5.8.8c3.4 0 5.2-1 5.2-3 0-.7-.2-1.4-.7-1.8-.5-.5-1.2-1-2.4-1.6-1.1-.6-2.6-1.3-4.5-2.1-2.7-1.1-4.6-2.2-5.9-3.1s-2.2-2-2.7-3.3c-.6-1.2-.9-2.8-.9-4.6 0-3.1 1.2-5.5 3.6-7.2s5.8-2.5 10.2-2.5c4.2 0 8.3.9 12.2 2.7l-2.9 6.8c-1.7-.7-3.4-1.4-4.9-1.8s-3.1-.7-4.6-.7c-2.8 0-4.2.8-4.2 2.3 0 .9.5 1.6 1.4 2.2.9.6 2.9 1.5 5.9 2.8 2.7 1.1 4.7 2.1 6 3.1 1.3 1 2.2 2.1 2.8 3.3.6 1.2.9 2.6.9 4.4z"/></g></switch></svg>