<svg version="1.1" id="Layer_1" xmlns="http://www.w3.org/2000/svg" x="0" y="0" viewBox="0 0 500 158.6" style="enable-background:new 0 0 500 158.6" xml:space="preserve"><style>.st0{fill:#222}.st1{fill:#1f5b99}.st2{fill:#5194d0}</style><switch><g><path class="st0" d="m200.8 62.3-6.4-16.4h-20.7l-6.4 16.4h-6.1l20.4-51.9h5.1L207 62.3h-6.2zm-8.3-21.9-6-16c-.8-2-1.6-4.5-2.4-7.5-.5 2.3-1.3 4.7-2.2 7.5l-6.1 16h16.7zM259.2 62.3h-5.9l-10.4-34.6c-.5-1.5-1-3.5-1.7-5.8-.6-2.3-.9-3.7-1-4.2-.5 3.1-1.3 6.5-2.5 10.2l-10.1 34.4h-5.9L208 10.6h6.4l8.2 31.9c1.1 4.5 2 8.5 2.5 12.2.6-4.3 1.6-8.5 2.8-12.6l9.3-31.4h6.4l9.7 31.7c1.1 3.7 2.1 7.8 2.9 12.4.4-3.3 1.3-7.4 2.5-12.2l8.1-31.8h6.4l-14 51.5zM310.3 48.5c0 4.5-1.6 8.1-4.9 10.6-3.3 2.5-7.8 3.8-13.4 3.8-6.1 0-10.8-.8-14.1-2.4v-5.8c2.1.9 4.4 1.6 6.9 2.1s5 .8 7.4.8c4 0 7-.8 9-2.3 2-1.5 3-3.6 3-6.3 0-1.8-.4-3.3-1.1-4.4-.7-1.1-1.9-2.2-3.6-3.2-1.7-1-4.2-2.1-7.7-3.3-4.8-1.7-8.2-3.8-10.3-6.1-2.1-2.4-3.1-5.4-3.1-9.2 0-4 1.5-7.2 4.5-9.5 3-2.4 6.9-3.5 11.9-3.5 5.1 0 9.9.9 14.2 2.8l-1.9 5.2c-4.3-1.8-8.4-2.7-12.4-2.7-3.2 0-5.7.7-7.5 2-1.8 1.4-2.7 3.3-2.7 5.7 0 1.8.3 3.3 1 4.4.7 1.1 1.8 2.2 3.3 3.1 1.6 1 4 2 7.2 3.2 5.4 1.9 9.1 4 11.2 6.2 2.1 2.4 3.1 5.3 3.1 8.8z"/><path class="st1" d="M0 32.6v18.9l66.6-19.4V0zM0 126l66.6 32.6v-32.2L0 107.1zM38 60v38.6l28.6 4.1V55.9z"/><path class="st2" d="M133.2 32.6v18.9L66.6 32.1V0zM133.2 126l-66.6 32.6v-32.2l66.6-19.3zM95.2 60v38.6l-28.6 4.1V55.9z"/><path style="fill:#17496f" d="M66.6 32.1 0 51.5l51.1 6.6 15.5-2.2 15.5 2.2 51.1-6.6z"/><path style="fill:#99bce3" d="m82.1 100.4-15.5 2.3-15.5-2.3L0 107l66.6 19.4 66.6-19.4z"/><path d="M188.3 148.1h-27.1V99.5h27.1v5h-21.4v15.6H187v5h-20.1V143h21.4v5.1zM203.8 148.1h-5.5V96.4h5.5v51.7zM237.8 148.1l-1.1-5.2h-.3c-1.8 2.3-3.6 3.8-5.4 4.6-1.8.8-4.1 1.2-6.8 1.2-3.6 0-6.4-.9-8.5-2.8-2-1.9-3.1-4.5-3.1-7.9 0-7.4 5.9-11.2 17.6-11.6l6.2-.2V124c0-2.9-.6-5-1.8-6.3-1.2-1.4-3.2-2-5.9-2-3 0-6.5.9-10.3 2.8l-1.7-4.2c1.8-1 3.8-1.7 5.9-2.3 2.1-.6 4.3-.8 6.4-.8 4.3 0 7.6 1 9.6 2.9 2.1 1.9 3.1 5 3.1 9.3v24.8h-3.9zm-12.4-3.9c3.4 0 6.1-.9 8.1-2.8s2.9-4.5 2.9-7.9v-3.3l-5.5.2c-4.4.2-7.5.8-9.5 2-1.9 1.2-2.9 3.1-2.9 5.6 0 2 .6 3.5 1.8 4.5 1.2 1.2 2.9 1.7 5.1 1.7zM276.7 138.1c0 3.4-1.3 6-3.8 7.8s-6.1 2.8-10.6 2.8c-4.8 0-8.6-.8-11.3-2.3v-5.1c1.7.9 3.6 1.6 5.6 2.1 2 .5 3.9.8 5.8.8 2.9 0 5.1-.5 6.6-1.4 1.5-.9 2.3-2.3 2.3-4.2 0-1.4-.6-2.6-1.8-3.6-1.2-1-3.6-2.2-7.2-3.6-3.4-1.3-5.8-2.4-7.2-3.3-1.4-.9-2.5-2-3.2-3.2-.7-1.2-1-2.6-1-4.3 0-3 1.2-5.3 3.6-7 2.4-1.7 5.7-2.6 9.9-2.6 3.9 0 7.7.8 11.5 2.4l-2 4.5c-3.7-1.5-7-2.3-9.9-2.3-2.6 0-4.6.4-5.9 1.2-1.3.8-2 1.9-2 3.4 0 1 .2 1.8.7 2.5.5.7 1.3 1.3 2.4 2 1.1.6 3.2 1.5 6.4 2.7 4.3 1.6 7.2 3.2 8.8 4.7 1.6 1.6 2.3 3.6 2.3 6zM297.5 144.2c1 0 1.9-.1 2.8-.2.9-.1 1.6-.3 2.2-.4v4.2c-.6.3-1.5.5-2.6.7-1.2.2-2.2.3-3.1.3-7 0-10.6-3.7-10.6-11.1V116H281v-2.7l5.2-2.3 2.3-7.8h3.2v8.4h10.6v4.3h-10.6v21.4c0 2.2.5 3.9 1.6 5 .9 1.3 2.3 1.9 4.2 1.9zM309.3 101.8c0-1.3.3-2.2.9-2.8.6-.6 1.4-.9 2.3-.9.9 0 1.6.3 2.3.9s1 1.5 1 2.8-.3 2.2-1 2.8c-.6.6-1.4.9-2.3.9-.9 0-1.7-.3-2.3-.9-.6-.6-.9-1.6-.9-2.8zm5.9 46.3h-5.5v-36.4h5.5v36.4zM341.5 148.7c-5.3 0-9.3-1.6-12.2-4.9-2.9-3.2-4.3-7.8-4.3-13.8 0-6.1 1.5-10.8 4.4-14.1 2.9-3.3 7.1-5 12.5-5 1.7 0 3.5.2 5.2.6 1.7.4 3.1.8 4.1 1.3l-1.7 4.7c-1.2-.5-2.5-.9-4-1.2-1.4-.3-2.7-.5-3.8-.5-7.4 0-11.1 4.7-11.1 14.1 0 4.5.9 7.9 2.7 10.3 1.8 2.4 4.5 3.6 8 3.6 3 0 6.1-.7 9.3-2v4.9c-2.4 1.4-5.4 2-9.1 2zM381.7 148.1l-1.1-5.2h-.3c-1.8 2.3-3.6 3.8-5.4 4.6-1.8.8-4.1 1.2-6.8 1.2-3.6 0-6.4-.9-8.5-2.8-2-1.9-3.1-4.5-3.1-7.9 0-7.4 5.9-11.2 17.6-11.6l6.2-.2V124c0-2.9-.6-5-1.8-6.3-1.2-1.4-3.2-2-5.9-2-3 0-6.5.9-10.3 2.8l-1.7-4.2c1.8-1 3.8-1.7 5.9-2.3 2.1-.6 4.3-.8 6.4-.8 4.3 0 7.6 1 9.6 2.9 2.1 1.9 3.1 5 3.1 9.3v24.8h-3.9zm-12.5-3.9c3.4 0 6.1-.9 8.1-2.8s2.9-4.5 2.9-7.9v-3.3l-5.5.2c-4.4.2-7.5.8-9.5 2-1.9 1.2-2.9 3.1-2.9 5.6 0 2 .6 3.5 1.8 4.5 1.3 1.2 3 1.7 5.1 1.7zM411.7 148.7c-5.3 0-9.3-1.6-12.2-4.9-2.9-3.2-4.3-7.8-4.3-13.8 0-6.1 1.5-10.8 4.4-14.1 2.9-3.3 7.1-5 12.5-5 1.7 0 3.5.2 5.2.6s3.1.8 4.1 1.3l-1.7 4.7c-1.2-.5-2.5-.9-4-1.2-1.4-.3-2.7-.5-3.8-.5-7.4 0-11.1 4.7-11.1 14.1 0 4.5.9 7.9 2.7 10.3 1.8 2.4 4.5 3.6 8 3.6 3 0 6.1-.7 9.3-2v4.9c-2.4 1.4-5.4 2-9.1 2zM454.4 148.1v-23.5c0-3-.7-5.2-2-6.6-1.4-1.5-3.5-2.2-6.3-2.2-3.8 0-6.6 1-8.4 3.1-1.8 2.1-2.6 5.5-2.6 10.2v19h-5.5V96.4h5.5V112c0 1.9-.1 3.4-.3 4.7h.3c1.1-1.7 2.6-3.1 4.6-4.1 2-1 4.3-1.5 6.9-1.5 4.4 0 7.8 1.1 10 3.2s3.3 5.5 3.3 10.1v23.7h-5.5zM486.6 148.7c-5.4 0-9.6-1.6-12.7-4.9-3.1-3.3-4.7-7.8-4.7-13.6 0-5.9 1.4-10.5 4.3-14s6.8-5.2 11.6-5.2c4.6 0 8.2 1.5 10.8 4.5 2.7 3 4 7 4 11.9v3.5h-25.1c.1 4.3 1.2 7.5 3.2 9.7 2 2.2 4.9 3.3 8.7 3.3 3.9 0 7.8-.8 11.6-2.5v4.9c-1.9.8-3.8 1.4-5.5 1.8-1.6.4-3.7.6-6.2.6zm-1.5-33.1c-2.9 0-5.3 1-7 2.9-1.7 1.9-2.8 4.5-3.1 7.9h19c0-3.5-.8-6.1-2.3-8-1.5-1.9-3.7-2.8-6.6-2.8z"/></g></switch></svg>