<svg xmlns="http://www.w3.org/2000/svg" viewBox="0 0 203.71 171.15"><defs><linearGradient id="linear-gradient" x1="103.93" y1="396.45" x2="100.54" y2="261.26" gradientTransform="matrix(1 0 0 -1 0 386.89)" gradientUnits="userSpaceOnUse"><stop offset="0" stop-color="#32d4f5"/><stop offset=".23" stop-color="#31d0f1"/><stop offset=".46" stop-color="#2cc3e6"/><stop offset=".7" stop-color="#25afd4"/><stop offset=".94" stop-color="#1c92ba"/><stop offset="1" stop-color="#198ab3"/></linearGradient><style>.cls-1{fill:#465154}.cls-3{fill:#fff}</style></defs><g id="Layer_2" data-name="Layer 2"><g id="Layer_1-2" data-name="Layer 1"><path class="cls-1" d="M18.29 170.82h-3.57l-1.76-5H5.25l-1.7 5H0l7.34-19.61H11Zm-6.19-7.64-2.72-7.82a9.19 9.19 0 0 1-.26-1.23h-.06a8.08 8.08 0 0 1-.27 1.23l-2.69 7.82ZM31.67 158.15l-7.56 10.2h7.53v2.47h-12v-1.19l7.72-10.34h-7v-2.47h11.31ZM46.37 170.82H43.2v-2.21h-.05a4.57 4.57 0 0 1-4.29 2.54q-5 0-5-6v-8.37h3.17v8q0 3.77 2.91 3.77a2.94 2.94 0 0 0 2.32-1 4 4 0 0 0 .91-2.72v-8.05h3.17ZM58.24 159.84a2.63 2.63 0 0 0-1.65-.45 2.83 2.83 0 0 0-2.35 1.27 5.69 5.69 0 0 0-.94 3.46v6.7h-3.18v-14h3.17v2.88h.05a4.88 4.88 0 0 1 1.43-2.3 3.22 3.22 0 0 1 2.15-.83 2.68 2.68 0 0 1 1.31.26ZM72.29 164.68h-9.54a4 4 0 0 0 1.2 3 4.45 4.45 0 0 0 3.14 1.05 6.92 6.92 0 0 0 4.12-1.34v2.56a9.41 9.41 0 0 1-5.06 1.2 6.26 6.26 0 0 1-4.85-1.91 7.63 7.63 0 0 1-1.76-5.37 7.46 7.46 0 0 1 1.93-5.33 6.33 6.33 0 0 1 4.81-2.06 5.52 5.52 0 0 1 4.44 1.85 7.66 7.66 0 0 1 1.57 5.13Zm-3.06-2.24a4.09 4.09 0 0 0-.81-2.66 2.7 2.7 0 0 0-2.19-1 3.08 3.08 0 0 0-2.32 1 4.56 4.56 0 0 0-1.17 2.61ZM83.37 170.82v-19.6H89q10.84 0 10.84 9.56a9.42 9.42 0 0 1-3 7.29 11.48 11.48 0 0 1-8.07 2.75ZM86.61 154v14.1h2.6a7.26 7.26 0 0 0 5.34-1.89 7.17 7.17 0 0 0 1.91-5.33q0-6.88-7.12-6.88ZM113.48 170.82h-3.08v-2.19h-.05a4.63 4.63 0 0 1-4.25 2.52 4.48 4.48 0 0 1-3.23-1.12 3.92 3.92 0 0 1-1.17-3q0-4 4.57-4.62l4.16-.59q0-3-2.84-3a6.76 6.76 0 0 0-4.51 1.72v-2.78a9.84 9.84 0 0 1 5.11-1.31q5.3 0 5.3 5.22Zm-3.06-6.88-2.94.41a4.66 4.66 0 0 0-2.06.66 1.94 1.94 0 0 0-.69 1.7 1.86 1.86 0 0 0 .64 1.46 2.46 2.46 0 0 0 1.7.57 3.14 3.14 0 0 0 2.4-1 3.61 3.61 0 0 0 1-2.56ZM124.41 170.67a5.5 5.5 0 0 1-2.45.46q-4.07 0-4.07-3.91v-7.92h-2.34v-2.49h2.34v-3.24l3.17-.9v4.14h3.35v2.49h-3.35v7a2.76 2.76 0 0 0 .45 1.78 1.87 1.87 0 0 0 1.5.53 2.18 2.18 0 0 0 1.39-.46ZM138 170.82h-3v-2.19h-.05a4.63 4.63 0 0 1-4.25 2.52 4.48 4.48 0 0 1-3.23-1.12 3.92 3.92 0 0 1-1.17-3q0-4 4.57-4.62l4.16-.59q0-3-2.84-3a6.76 6.76 0 0 0-4.51 1.72v-2.78a9.84 9.84 0 0 1 5.11-1.31q5.3 0 5.3 5.22Zm-3-6.88-2.94.41a4.65 4.65 0 0 0-2.06.65 1.94 1.94 0 0 0-.69 1.7 1.86 1.86 0 0 0 .64 1.46 2.46 2.46 0 0 0 1.7.57 3.14 3.14 0 0 0 2.4-1 3.61 3.61 0 0 0 1-2.56ZM160.82 170.82H150v-19.6h3.25v16.86h7.6ZM174.34 170.82h-3.08v-2.19h-.05a4.63 4.63 0 0 1-4.25 2.52 4.48 4.48 0 0 1-3.23-1.12 3.92 3.92 0 0 1-1.17-3q0-4 4.57-4.62l4.16-.59q0-3-2.84-3a6.76 6.76 0 0 0-4.51 1.72v-2.78a9.84 9.84 0 0 1 5.11-1.31q5.3 0 5.3 5.22Zm-3.06-6.88-2.94.41a4.65 4.65 0 0 0-2.06.66 1.94 1.94 0 0 0-.69 1.7 1.86 1.86 0 0 0 .64 1.46 2.46 2.46 0 0 0 1.7.57 3.14 3.14 0 0 0 2.4-1 3.61 3.61 0 0 0 1-2.56ZM190.65 170.82h-4l-5.44-6.73h-.05v6.73h-3.19v-20.73h3.19v13.14h.05l5.14-6.41h3.81l-5.78 6.75ZM203.71 164.68h-9.54a4 4 0 0 0 1.2 3 4.45 4.45 0 0 0 3.14 1.05 6.92 6.92 0 0 0 4.12-1.34v2.56a9.4 9.4 0 0 1-5.06 1.2 6.26 6.26 0 0 1-4.85-1.91 7.63 7.63 0 0 1-1.76-5.37 7.46 7.46 0 0 1 1.93-5.33 6.33 6.33 0 0 1 4.81-2.06 5.52 5.52 0 0 1 4.44 1.85 7.66 7.66 0 0 1 1.57 5.13Zm-3.06-2.24a4.09 4.09 0 0 0-.81-2.66 2.69 2.69 0 0 0-2.19-1 3.08 3.08 0 0 0-2.32 1 4.56 4.56 0 0 0-1.17 2.61Z"/><path d="M172.23 13.38h-64.38a3 3 0 0 1-1.91-.61L87.52.52A3.74 3.74 0 0 0 85.61 0H31.48A3.48 3.48 0 0 0 28 3.39V117.2a3.48 3.48 0 0 0 3.48 3.39h140.75a3.48 3.48 0 0 0 3.48-3.39V16.86a3.48 3.48 0 0 0-3.48-3.48Z" style="fill:#005ba1"/><rect class="cls-3" x="41.47" y="6.6" width="33.54" height="6.69" rx="1.39" ry="1.39"/><rect x="41.47" y="6.6" width="6.69" height="6.69" rx=".96" ry=".96" style="fill:#1ac3f2"/><path d="M172.23 13.21h-70.38a3.13 3.13 0 0 0-2.43 1L87.69 25.54a3.74 3.74 0 0 1-2.43 1H31.48A3.48 3.48 0 0 0 28 30v86.88a3.48 3.48 0 0 0 3.48 3.39h140.75a3.48 3.48 0 0 0 3.48-3.39v-100a3.48 3.48 0 0 0-3.3-3.64Z" style="fill:url(#linear-gradient)"/><path class="cls-3" d="M112.11 31.63a1.3 1.3 0 0 0-.7 0 1.39 1.39 0 0 0-1.13.61L82.83 72.11a1.39 1.39 0 0 0 0 1.39 1.65 1.65 0 0 0 1.3.87h16.25l-7.21 24.15a1.13 1.13 0 0 0 .5 1.52h.11a.87.87 0 0 0 .61 0 1 1 0 0 0 1.13-.61L123.84 59v-.87a1.48 1.48 0 0 0-1.48-1.39H105L112 33a1.13 1.13 0 0 0 .11-1.37Z"/></g></g></svg>