<svg xmlns="http://www.w3.org/2000/svg" viewBox="0 0 143.68 171.07"><defs><radialGradient id="radial-gradient" cx="73.94" cy="285.09" r="39.23" gradientTransform="matrix(1 0 0 -1 0 340.96)" gradientUnits="userSpaceOnUse"><stop offset="0" stop-color="#f2f2f2"/><stop offset=".58" stop-color="#eee"/><stop offset="1" stop-color="#e6e6e6"/></radialGradient><linearGradient id="linear-gradient" x1="36.37" y1="287.36" x2="107.51" y2="287.36" gradientTransform="matrix(1 0 0 -1 0 340.96)" gradientUnits="userSpaceOnUse"><stop offset="0" stop-color="#005ba1"/><stop offset=".07" stop-color="#0060a9"/><stop offset=".36" stop-color="#0071c8"/><stop offset=".52" stop-color="#0078d4"/><stop offset=".64" stop-color="#0074cd"/><stop offset=".82" stop-color="#006abb"/><stop offset="1" stop-color="#005ba1"/></linearGradient><style>.cls-1{fill:#465154}</style></defs><g id="Layer_2" data-name="Layer 2"><g id="Layer_1-2" data-name="Layer 1"><path class="cls-1" d="M20.25 133.5h-4l-2-5.53H5.81l-1.87 5.53H0l8.13-21.7h4.06ZM13.4 125l-3-8.66a10.24 10.24 0 0 1-.3-1.34H10a8.9 8.9 0 0 1-.3 1.36l-3 8.66ZM35 119.47l-8.37 11.29H35v2.74H21.75v-1.32l8.55-11.44h-7.73V118H35ZM51.29 133.5h-3.51v-2.45h-.06a5.05 5.05 0 0 1-4.72 2.82q-5.49 0-5.49-6.6V118H41v8.9q0 4.18 3.22 4.18a3.26 3.26 0 0 0 2.57-1.15 4.41 4.41 0 0 0 1-3V118h3.51ZM64.41 121.35a2.91 2.91 0 0 0-1.83-.5 3.13 3.13 0 0 0-2.6 1.41 6.29 6.29 0 0 0-1 3.83v7.42h-3.56V118h3.51v3.19H59a5.4 5.4 0 0 1 1.58-2.55 3.57 3.57 0 0 1 2.38-.92 3 3 0 0 1 1.45.29ZM79.94 126.71H69.38A4.47 4.47 0 0 0 70.7 130a4.93 4.93 0 0 0 3.47 1.17 7.66 7.66 0 0 0 4.56-1.48v2.83a10.41 10.41 0 0 1-5.6 1.33 6.94 6.94 0 0 1-5.37-2.11 8.45 8.45 0 0 1-1.94-5.94 8.26 8.26 0 0 1 2.14-5.9 7 7 0 0 1 5.32-2.28 6.11 6.11 0 0 1 4.92 2 8.49 8.49 0 0 1 1.74 5.68Zm-3.39-2.48a4.53 4.53 0 0 0-.89-2.94 3 3 0 0 0-2.42-1.05 3.41 3.41 0 0 0-2.57 1.11 5 5 0 0 0-1.29 2.89ZM91.21 132.64v-3.71a5.73 5.73 0 0 0 1.19.82 9.26 9.26 0 0 0 1.46.61 11.58 11.58 0 0 0 1.54.39 8.23 8.23 0 0 0 1.42.14 6.08 6.08 0 0 0 3.38-.76 2.49 2.49 0 0 0 1.11-2.2 2.4 2.4 0 0 0-.37-1.34 3.9 3.9 0 0 0-1-1 11 11 0 0 0-1.57-.9l-1.93-.9q-1.11-.59-2.06-1.2a8.91 8.91 0 0 1-1.66-1.34 5.61 5.61 0 0 1-1.1-1.66 5.39 5.39 0 0 1-.4-2.16 5 5 0 0 1 .69-2.66 5.84 5.84 0 0 1 1.82-1.86 8.34 8.34 0 0 1 2.57-1.09 12.22 12.22 0 0 1 2.94-.36 11.84 11.84 0 0 1 5 .77v3.56a7.93 7.93 0 0 0-4.75-1.33 8.55 8.55 0 0 0-1.6.15 4.76 4.76 0 0 0-1.42.5 3.1 3.1 0 0 0-1 .89 2.19 2.19 0 0 0-.39 1.32 2.49 2.49 0 0 0 .3 1.26 3.24 3.24 0 0 0 .89 1 9 9 0 0 0 1.42.86q.84.42 1.95.9t2.14 1.24a10 10 0 0 1 1.77 1.44 6.29 6.29 0 0 1 1.21 1.75 5.13 5.13 0 0 1 .45 2.19 5.43 5.43 0 0 1-.67 2.79 5.37 5.37 0 0 1-1.79 1.85 8 8 0 0 1-2.6 1 14.58 14.58 0 0 1-3.1.32q-.54 0-1.34-.08t-1.71-.3a15.34 15.34 0 0 1-1.57-.39 5 5 0 0 1-1.22-.51ZM117.61 133.87a10.86 10.86 0 0 1-4.25-.8 9.33 9.33 0 0 1-3.25-2.25 10.15 10.15 0 0 1-2.09-3.46 12.79 12.79 0 0 1-.74-4.45 14.08 14.08 0 0 1 .75-4.72 10.31 10.31 0 0 1 2.13-3.62 9.38 9.38 0 0 1 3.37-2.32 11.54 11.54 0 0 1 4.44-.82 10.46 10.46 0 0 1 4.15.8 9.27 9.27 0 0 1 3.21 2.25 10.19 10.19 0 0 1 2.07 3.46 12.84 12.84 0 0 1 .73 4.44A13.73 13.73 0 0 1 127 128a9.68 9.68 0 0 1-3 3.88l6.3 4.54h-5.48l-3.87-3a13.29 13.29 0 0 1-1.6.33 12.06 12.06 0 0 1-1.74.12Zm.17-19.27a6.3 6.3 0 0 0-2.72.58 6.19 6.19 0 0 0-2.13 1.65 7.7 7.7 0 0 0-1.39 2.55 10.47 10.47 0 0 0-.49 3.3 10.68 10.68 0 0 0 .48 3.28 7.62 7.62 0 0 0 1.34 2.54 6 6 0 0 0 2.07 1.63 6.1 6.1 0 0 0 2.68.58 6.9 6.9 0 0 0 2.8-.54 5.8 5.8 0 0 0 2.11-1.57 7.11 7.11 0 0 0 1.34-2.51 11.18 11.18 0 0 0 .47-3.37 12 12 0 0 0-.45-3.45 7.3 7.3 0 0 0-1.3-2.55 5.58 5.58 0 0 0-2.07-1.58 6.66 6.66 0 0 0-2.74-.54ZM143.68 133.5h-12v-21.7h3.6v18.66h8.42ZM10.1 170.7V149h6.27q12 0 12 10.58a10.43 10.43 0 0 1-3.37 8.07 12.71 12.71 0 0 1-8.93 3Zm3.59-18.65v15.61h2.88a8 8 0 0 0 5.91-2.09 7.94 7.94 0 0 0 2.11-5.9q0-7.61-7.89-7.61ZM43.41 170.7H40v-2.42h-.06a5.13 5.13 0 0 1-4.71 2.79 5 5 0 0 1-3.58-1.24 4.34 4.34 0 0 1-1.29-3.28q0-4.39 5.06-5.12l4.6-.65q0-3.31-3.15-3.31a7.48 7.48 0 0 0-5 1.91v-3.07a10.89 10.89 0 0 1 5.66-1.45q5.87 0 5.87 5.78ZM40 163.09l-3.25.45a5.18 5.18 0 0 0-2.28.73 2.15 2.15 0 0 0-.76 1.88 2.06 2.06 0 0 0 .7 1.61 2.73 2.73 0 0 0 1.88.63 3.48 3.48 0 0 0 2.71-1.12 4 4 0 0 0 1-2.83ZM55.49 170.54a6.09 6.09 0 0 1-2.71.51q-4.51 0-4.51-4.33V158h-2.59v-2.8h2.59v-3.59l3.51-1v4.59h3.71v2.8h-3.71v7.75a3.05 3.05 0 0 0 .5 2 2.07 2.07 0 0 0 1.67.59 2.42 2.42 0 0 0 1.54-.51ZM70.56 170.7h-3.41v-2.42h-.06a5.13 5.13 0 0 1-4.71 2.79 5 5 0 0 1-3.58-1.24 4.34 4.34 0 0 1-1.29-3.28q0-4.39 5.06-5.12l4.6-.65q0-3.31-3.15-3.31a7.48 7.48 0 0 0-5 1.91v-3.07a10.89 10.89 0 0 1 5.66-1.45q5.87 0 5.87 5.78Zm-3.39-7.61-3.25.45a5.18 5.18 0 0 0-2.28.73 2.15 2.15 0 0 0-.76 1.88 2.06 2.06 0 0 0 .7 1.61 2.73 2.73 0 0 0 1.88.63 3.48 3.48 0 0 0 2.66-1.13 4 4 0 0 0 1.05-2.84ZM78.1 168.46H78v2.24h-3.48v-22.94H78v10.17h.06a5.75 5.75 0 0 1 5.27-3.09 5.55 5.55 0 0 1 4.67 2.08 8.71 8.71 0 0 1 1.66 5.58 9.71 9.71 0 0 1-1.86 6.23 6.15 6.15 0 0 1-5.09 2.34 5 5 0 0 1-4.61-2.61Zm-.1-6.16v1.92a4.1 4.1 0 0 0 1.08 2.88 3.82 3.82 0 0 0 5.81-.34 7.08 7.08 0 0 0 1.11-4.25 5.58 5.58 0 0 0-1-3.58 3.41 3.41 0 0 0-2.81-1.29 3.78 3.78 0 0 0-3 1.33A4.93 4.93 0 0 0 78 162.3ZM104.84 170.7h-3.41v-2.42h-.06a5.13 5.13 0 0 1-4.71 2.79 5 5 0 0 1-3.58-1.24 4.34 4.34 0 0 1-1.29-3.28q0-4.39 5.06-5.12l4.6-.65q0-3.31-3.15-3.31a7.48 7.48 0 0 0-5 1.91v-3.07a10.89 10.89 0 0 1 5.7-1.47q5.87 0 5.87 5.78Zm-3.39-7.61-3.25.45a5.18 5.18 0 0 0-2.28.73 2.15 2.15 0 0 0-.76 1.88 2.06 2.06 0 0 0 .7 1.61 2.73 2.73 0 0 0 1.88.63 3.48 3.48 0 0 0 2.66-1.13 4 4 0 0 0 1.05-2.84ZM108.09 170.22V167a7 7 0 0 0 4.34 1.5q3.18 0 3.18-1.88a1.48 1.48 0 0 0-.27-.9 2.6 2.6 0 0 0-.73-.66 5.78 5.78 0 0 0-1.09-.52l-1.4-.51a15 15 0 0 1-1.72-.8 5.17 5.17 0 0 1-1.27-1 3.64 3.64 0 0 1-.76-1.22 4.48 4.48 0 0 1-.26-1.59 3.67 3.67 0 0 1 .53-2 4.6 4.6 0 0 1 1.42-1.44 6.86 6.86 0 0 1 2-.88 9.31 9.31 0 0 1 2.35-.29 10.68 10.68 0 0 1 3.84.65v3.07a6.48 6.48 0 0 0-3.75-1.12 4.85 4.85 0 0 0-1.2.14 3.08 3.08 0 0 0-.92.38 1.85 1.85 0 0 0-.59.58 1.39 1.39 0 0 0-.21.75 1.6 1.6 0 0 0 .21.85 1.92 1.92 0 0 0 .63.61 5.42 5.42 0 0 0 1 .48l1.34.48a19.34 19.34 0 0 1 1.79.83 6 6 0 0 1 1.35 1 3.78 3.78 0 0 1 .86 1.24 4.22 4.22 0 0 1 .3 1.67 3.82 3.82 0 0 1-.54 2.06 4.55 4.55 0 0 1-1.45 1.45 6.82 6.82 0 0 1-2.1.85 10.9 10.9 0 0 1-2.5.28 10.55 10.55 0 0 1-4.38-.84ZM135.4 163.91h-10.57a4.46 4.46 0 0 0 1.32 3.32 4.93 4.93 0 0 0 3.47 1.17 7.67 7.67 0 0 0 4.56-1.48v2.83a10.41 10.41 0 0 1-5.6 1.33 6.93 6.93 0 0 1-5.37-2.11 8.45 8.45 0 0 1-1.95-5.94 8.25 8.25 0 0 1 2.14-5.9 7 7 0 0 1 5.32-2.28 6.11 6.11 0 0 1 4.92 2 8.49 8.49 0 0 1 1.74 5.68Zm-3.4-2.49a4.53 4.53 0 0 0-.89-2.94 3 3 0 0 0-2.42-1.05 3.41 3.41 0 0 0-2.57 1.11 5 5 0 0 0-1.29 2.89Z"/><path d="M71.94 25.75c-19.64 0-35.57-5.55-35.57-12.87v68.58c0 7 15.65 12.76 35.07 12.87h.5c19.64 0 35.57-5.55 35.57-12.87V12.87c0 7.13-15.93 12.88-35.57 12.88Z" style="fill:url(#linear-gradient)"/><path d="M107.51 12.87c0 7.16-15.92 12.87-35.57 12.87S36.37 20.2 36.37 12.87 52.3 0 71.94 0s35.57 5.55 35.57 12.87" style="fill:#e8e8e8"/><path d="M99.24 11.82C99.24 16.37 87 20 71.94 20s-27.3-3.66-27.3-8.21 12.26-8.13 27.3-8.13 27.3 3.66 27.3 8.16" style="fill:#50e6ff"/><path d="M71.94 13.87A64.09 64.09 0 0 0 50.35 17a63.37 63.37 0 0 0 21.58 3 61.87 61.87 0 0 0 21.58-3.22 65.7 65.7 0 0 0-21.57-2.91Z" style="fill:#198ab3"/><path d="M93.58 60.48V41.62h-5v22.91h13.65v-4.05ZM54 51.21a10.15 10.15 0 0 1-2.83-1.72 2.44 2.44 0 0 1-.67-1.78 1.89 1.89 0 0 1 .83-1.66 3.77 3.77 0 0 1 2.33-.67A9 9 0 0 1 59.18 47v-4.77a14.32 14.32 0 0 0-5.55-.89 9.1 9.1 0 0 0-6 1.89 6 6 0 0 0-2.33 4.94c0 2.83 1.78 5 5.55 6.71a16 16 0 0 1 3.44 2 2.33 2.33 0 0 1 .83 1.78 2.11 2.11 0 0 1-.89 1.72 4.49 4.49 0 0 1-2.5.61 9.21 9.21 0 0 1-6-2.33v5.16a12 12 0 0 0 5.94 1.33 10.43 10.43 0 0 0 6.55-1.83 6 6 0 0 0 1.83-5 5.83 5.83 0 0 0-1.39-3.88A13.43 13.43 0 0 0 54 51.21ZM83 60a12.16 12.16 0 0 0 0-12.87A10 10 0 0 0 79.15 43a11.1 11.1 0 0 0-5.55-1.44 11.71 11.71 0 0 0-6 1.5 10.32 10.32 0 0 0-4.05 4.11 13.65 13.65 0 0 0-1.44 6.33 12.54 12.54 0 0 0 1.34 5.5 9.77 9.77 0 0 0 3.83 4.11 11.43 11.43 0 0 0 5.55 1.66l4.77 5.55h6.71l-6.82-6.1A9.93 9.93 0 0 0 83 60Zm-5.55-1.39a5.22 5.22 0 0 1-4.22 1.94 5.1 5.1 0 0 1-4.22-2A8.43 8.43 0 0 1 67.44 53a8.49 8.49 0 0 1 1.61-5.55 5.55 5.55 0 0 1 4.33-2.05 4.83 4.83 0 0 1 4.16 2.05A9 9 0 0 1 79 53a8.1 8.1 0 0 1-1.51 5.65Z" style="fill:url(#radial-gradient)"/></g></g></svg>