<svg version="1.1" id="Layer_1" xmlns="http://www.w3.org/2000/svg" x="0" y="0" viewBox="0 0 160 180" style="enable-background:new 0 0 160 180" xml:space="preserve"><style>.st1{fill:none}.st2{fill:#fff}.st3{fill:#606060}</style><g id="paths_1_"><path style="fill:#0078d7" d="M106.8 0H53.4L26.7 46.5l26.7 46.8h53.4l26.5-46.8z" id="Storage_blob_1_"/></g><path class="st1" d="M86 43.4c2 0 3.2-2.4 3.2-6.4s-1-6.1-3.2-6.1c-2 0-3.2 2.2-3.2 6.4.3 3.9 1.5 6.1 3.2 6.1zM72.3 53.7c-2 0-3.2 2.2-3.2 6.4 0 3.9 1.2 6.1 3.2 6.1s3.2-2.4 3.2-6.4c0-3.7-1.3-6.1-3.2-6.1z"/><path class="st1" d="M95.1 23.8H59.3c-2 0-3.2 1.7-3.2 3.4v42.6c0 2 1.7 3.2 3.4 3.2h40.7c2 0 3.4-1.7 3.4-3.4V34.1H95V23.8zm-8.9 5.1c3.2 0 5.1 2.9 5.1 7.8 0 5.4-2 8.1-5.4 8.1-2.9 0-5.1-2.7-5.1-8.1.1-4.9 2.3-7.8 5.4-7.8zM72 67.9c-2.9 0-5.1-2.7-5.1-8.1 0-5.1 2.2-8.1 5.4-8.1s5.1 2.9 5.1 7.8c0 5.7-1.9 8.4-5.4 8.4zm6.4-22.8h-10v-2h4.2v-12l-3.9 2-1-2 5.1-2.7h2v14.2h3.7v2.5zm2.7 22v-2h4.2v-12l-3.9 2-.7-2 5.1-2.7h2v14.2h3.7v2l-10.4.5z"/><path class="st2" d="M72.5 52.2c-3.2 0-5.4 2.9-5.4 8.1 0 5.1 2 8.1 5.1 8.1 3.4 0 5.4-2.9 5.4-8.1.1-5.2-2.1-8.1-5.1-8.1zm-.2 14.2c-2 0-3.2-2.2-3.2-6.1 0-4.2 1.5-6.4 3.2-6.4 2 0 3.2 2.2 3.2 6.1s-1.5 6.4-3.2 6.4zM86 45.1c3.4 0 5.4-2.9 5.4-8.1 0-4.9-2-7.8-5.1-7.8-3.2 0-5.4 2.9-5.4 8.1 0 4.8 2.2 7.8 5.1 7.8zM83.1 37c0-4.2 1.5-6.4 3.2-6.4 2 0 3.2 2.2 3.2 6.1s-1.2 6.4-3.2 6.4-3.2-1.9-3.2-6.1zM75 28.7h-2l-5.1 2.7 1 1.9 3.6-2.2v11.8h-4.1v2.2h10v-2.2H75zM87.7 65.2V51h-1.9l-5.2 2.4.7 2 4-2.2v12h-4.2v1.9h10.3v-1.9z"/><path class="st2" d="M95.6 20.3H59.8c-3.9 0-7.1 3.2-7.3 7.1v41.4c0 3.9 3.2 7.1 7.3 7.1h39.7c3.9 0 7.1-3.2 7.3-7.1V31.4L95.6 20.3zm7.8 49.3c0 2-1.7 3.4-3.4 3.4H59.3c-2 0-3.2-1.5-3.4-3.2V27.2c0-2 1.5-3.2 3.2-3.4h35.7v10h8.6v35.8z"/><path class="st3" d="M21.9 134.1h-4.1l-2-5.7H7l-1.9 5.7H1l8.4-22.4h4.2l8.3 22.4zm-7-8.8-3.1-8.9c-.1-.3-.2-.8-.3-1.4h-.1c-.1.6-.2 1.1-.3 1.4L8 125.3h6.9zM36.4 119.6l-8.6 11.7h8.6v2.8H22.7v-1.4l8.8-11.8h-8v-2.8h12.9v1.5zM53.4 134.1h-3.6v-2.5h-.1c-1.1 1.9-2.7 2.9-4.9 2.9-3.8 0-5.7-2.3-5.7-6.8v-9.6h3.6v9.2c0 2.9 1.1 4.3 3.3 4.3 1.1 0 2-.4 2.6-1.2.7-.8 1-1.8 1-3.1v-9.2h3.6v16zM67.4 121.5c-.4-.3-1.1-.5-1.9-.5-1.1 0-2 .5-2.7 1.5s-1.1 2.3-1.1 4v7.7h-3.6v-16h3.6v3.3h.1c.4-1.1.9-2 1.6-2.6.7-.6 1.6-.9 2.5-.9.7 0 1.2.1 1.5.3v3.2zM83.3 127.1H72.4c0 1.5.5 2.6 1.4 3.4.9.8 2.1 1.2 3.6 1.2 1.7 0 3.3-.5 4.7-1.5v2.9c-1.5.9-3.4 1.4-5.8 1.4s-4.2-.7-5.5-2.2c-1.3-1.5-2-3.5-2-6.1 0-2.5.7-4.5 2.2-6.1 1.5-1.6 3.3-2.4 5.5-2.4s3.9.7 5.1 2.1c1.2 1.4 1.8 3.4 1.8 5.9v1.4zm-3.5-2.6c0-1.3-.3-2.3-.9-3-.6-.7-1.4-1.1-2.5-1.1-1 0-1.9.4-2.6 1.1-.7.8-1.2 1.8-1.3 3h7.3zM95.9 134.1v-22.4h7.1c2.2 0 3.9.5 5.1 1.4 1.3.9 1.9 2.2 1.9 3.7 0 1.3-.4 2.4-1.1 3.3s-1.7 1.6-3 2v.1c1.5.2 2.8.7 3.7 1.7.9 1 1.4 2.2 1.4 3.8 0 1.9-.8 3.5-2.3 4.7-1.5 1.2-3.4 1.8-5.7 1.8h-7.1zm3.7-19.5v6.4h2.4c1.3 0 2.3-.3 3-.9s1.1-1.5 1.1-2.6c0-1.9-1.3-2.9-3.8-2.9h-2.7zm0 9.4v7.1h3.2c1.4 0 2.5-.3 3.2-1 .8-.6 1.1-1.5 1.1-2.6 0-2.3-1.6-3.5-4.8-3.5h-2.7zM118.5 134.1h-3.6v-23.7h3.6v23.7zM130.3 134.4c-2.5 0-4.4-.7-5.9-2.2-1.5-1.5-2.2-3.5-2.2-5.9 0-2.7.8-4.8 2.3-6.3 1.5-1.5 3.6-2.3 6.2-2.3 2.5 0 4.4.7 5.8 2.2 1.4 1.5 2.1 3.5 2.1 6.1 0 2.6-.8 4.6-2.3 6.1-1.4 1.6-3.5 2.3-6 2.3zm.2-13.8c-1.4 0-2.5.5-3.4 1.5-.8 1-1.2 2.4-1.2 4.1 0 1.7.4 3 1.3 4 .8 1 1.9 1.4 3.3 1.4s2.5-.5 3.3-1.4c.8-.9 1.1-2.3 1.1-4 0-1.8-.4-3.1-1.1-4.1-.8-1-1.9-1.5-3.3-1.5zM146 131.8l-.1 2.3h-3.6v-23.7h3.6v10.5h.1c1.2-2.1 3.1-3.2 5.4-3.2 2 0 3.6.7 4.7 2.1 1.1 1.4 1.7 3.4 1.7 5.8 0 2.7-.6 4.8-1.9 6.4s-3 2.4-5.3 2.4c-2 0-3.5-.9-4.6-2.6zm-.1-6.4v2c0 1.2.4 2.2 1.1 3 .7.8 1.7 1.2 2.8 1.2 1.3 0 2.4-.5 3.2-1.6s1.1-2.5 1.1-4.4c0-1.6-.4-2.8-1.1-3.7-.7-.9-1.7-1.3-2.9-1.3-1.3 0-2.3.5-3.1 1.4-.7.9-1.1 2-1.1 3.4zM25.8 171.6v-3.8c.3.3.8.6 1.2.8.5.3 1 .5 1.5.6s1.1.3 1.6.4 1 .1 1.5.1c1.6 0 2.7-.3 3.5-.8.8-.5 1.1-1.3 1.1-2.3 0-.5-.1-1-.4-1.4-.3-.4-.6-.7-1.1-1.1-.5-.3-1-.6-1.6-.9-.6-.3-1.3-.6-2-.9-.8-.4-1.5-.8-2.1-1.2-.7-.4-1.2-.9-1.7-1.4-.5-.5-.9-1.1-1.1-1.7-.3-.6-.4-1.4-.4-2.2 0-1.1.2-2 .7-2.7.5-.8 1.1-1.4 1.9-1.9.8-.5 1.7-.9 2.6-1.1 1-.2 2-.4 3-.4 2.3 0 4.1.3 5.1.8v3.7c-1.3-.9-2.9-1.4-4.9-1.4-.6 0-1.1.1-1.6.2s-1 .3-1.5.5c-.4.2-.8.5-1.1.9-.3.4-.4.8-.4 1.4 0 .5.1.9.3 1.3.2.4.5.7.9 1 .4.3.9.6 1.5.9.6.3 1.2.6 2 .9.8.4 1.5.8 2.2 1.3.7.4 1.3.9 1.8 1.5.5.5.9 1.1 1.3 1.8.3.7.5 1.4.5 2.3 0 1.1-.2 2.1-.7 2.9-.5.8-1.1 1.4-1.9 1.9-.8.5-1.7.8-2.7 1.1-1 .2-2.1.3-3.2.3-.4 0-.8 0-1.4-.1-.5-.1-1.1-.1-1.7-.3-.6-.1-1.1-.2-1.6-.4-.3-.2-.8-.4-1.1-.6zM51.4 172.3c-.7.4-1.6.5-2.8.5-3.1 0-4.7-1.5-4.7-4.5v-9h-2.7v-2.8h2.7v-3.7l3.6-1v4.7h3.8v2.8h-3.8v8c0 .9.2 1.6.5 2s.9.6 1.7.6c.6 0 1.1-.2 1.6-.5v2.9zM61.4 172.8c-2.5 0-4.4-.7-5.9-2.2-1.5-1.5-2.2-3.5-2.2-5.9 0-2.7.8-4.8 2.3-6.3 1.5-1.5 3.6-2.3 6.2-2.3 2.5 0 4.4.7 5.8 2.2 1.4 1.5 2.1 3.5 2.1 6.1 0 2.6-.8 4.6-2.3 6.1-1.4 1.6-3.4 2.3-6 2.3zm.2-13.8c-1.4 0-2.5.5-3.4 1.5-.8 1-1.2 2.4-1.2 4.1 0 1.7.4 3 1.3 4 .8 1 1.9 1.4 3.3 1.4s2.5-.5 3.3-1.4c.8-.9 1.1-2.3 1.1-4 0-1.8-.4-3.1-1.1-4.1-.8-1-1.9-1.5-3.3-1.5zM82.7 159.9c-.4-.3-1.1-.5-1.9-.5-1.1 0-2 .5-2.7 1.5s-1.1 2.3-1.1 4v7.7h-3.6v-16H77v3.3h.1c.4-1.1.9-2 1.6-2.6.7-.6 1.6-.9 2.5-.9.7 0 1.2.1 1.5.3v3.2zM97.6 172.5H94V170c-1.1 1.9-2.7 2.9-4.9 2.9-1.6 0-2.8-.4-3.7-1.3-.9-.9-1.3-2-1.3-3.4 0-3 1.7-4.8 5.2-5.3l4.8-.7c0-2.3-1.1-3.4-3.3-3.4-1.9 0-3.6.7-5.2 2v-3.2c1.7-1 3.6-1.5 5.8-1.5 4 0 6.1 2 6.1 6v10.4zm-3.5-7.9-3.4.5c-1 .1-1.8.4-2.4.8-.5.4-.8 1-.8 1.9 0 .7.2 1.2.7 1.7.5.4 1.1.6 1.9.6 1.1 0 2-.4 2.7-1.2.7-.8 1.1-1.8 1.1-2.9v-1.4zM116.5 171.2c0 5.9-3 8.8-8.9 8.8-2.1 0-3.9-.3-5.5-1v-3.3c1.8 1 3.4 1.5 5 1.5 3.8 0 5.7-1.9 5.7-5.6v-1.8h-.1c-1.2 2-3 3.1-5.4 3.1-1.9 0-3.5-.7-4.7-2.1-1.2-1.4-1.8-3.3-1.8-5.7 0-2.7.6-4.9 1.9-6.5 1.3-1.6 3-2.4 5.3-2.4 2.1 0 3.7.9 4.7 2.6h.1v-2.2h3.6v14.6zm-3.5-6.1V163c0-1.1-.4-2.1-1.1-2.9-.7-.8-1.7-1.2-2.8-1.2-1.4 0-2.5.5-3.2 1.5-.8 1-1.2 2.4-1.2 4.3 0 1.6.4 2.8 1.1 3.8.7.9 1.7 1.4 3 1.4s2.3-.5 3-1.4c.8-.8 1.2-2 1.2-3.4zM134.8 165.5h-10.9c0 1.5.5 2.6 1.4 3.4.9.8 2.1 1.2 3.6 1.2 1.7 0 3.3-.5 4.7-1.5v2.9c-1.5.9-3.4 1.4-5.8 1.4s-4.2-.7-5.5-2.2c-1.3-1.5-2-3.5-2-6.1 0-2.5.7-4.5 2.2-6.1 1.5-1.6 3.3-2.4 5.5-2.4s3.9.7 5.1 2.1c1.2 1.4 1.8 3.4 1.8 5.9v1.4zm-3.5-2.6c0-1.3-.3-2.3-.9-3-.6-.7-1.4-1.1-2.5-1.1-1 0-1.9.4-2.6 1.1-.7.8-1.2 1.8-1.3 3h7.3z"/></svg>