<svg xmlns="http://www.w3.org/2000/svg" viewBox="0 0 187.04 184.77"><defs><style>.cls-1{fill:#465154}.cls-2{fill:#047fda}.cls-3{fill:#5be6ff}</style></defs><g id="Layer_2" data-name="Layer 2"><g id="Layer_1-2" data-name="Layer 1"><path class="cls-1" d="M18.29 144.58h-3.57l-1.76-5H5.25l-1.7 5H0L7.34 125H11Zm-6.19-7.64-2.72-7.82a9.35 9.35 0 0 1-.26-1.23h-.06a8 8 0 0 1-.27 1.23l-2.69 7.82ZM31.67 131.91l-7.56 10.2h7.53v2.47h-12v-1.19l7.72-10.34h-7v-2.47h11.31ZM46.37 144.58H43.2v-2.21h-.05a4.57 4.57 0 0 1-4.29 2.54q-5 0-5-6v-8.37h3.17v8q0 3.77 2.91 3.77a2.94 2.94 0 0 0 2.32-1 4 4 0 0 0 .91-2.72v-8.05h3.17ZM58.24 133.6a2.63 2.63 0 0 0-1.65-.45 2.83 2.83 0 0 0-2.35 1.27 5.69 5.69 0 0 0-.94 3.46v6.7h-3.18v-14h3.17v2.88h.05a4.87 4.87 0 0 1 1.43-2.3 3.23 3.23 0 0 1 2.15-.83 2.68 2.68 0 0 1 1.31.26ZM72.29 138.44h-9.54a4 4 0 0 0 1.2 3 4.45 4.45 0 0 0 3.14 1.05 6.91 6.91 0 0 0 4.12-1.34v2.56a9.4 9.4 0 0 1-5.06 1.2 6.26 6.26 0 0 1-4.86-1.91 7.63 7.63 0 0 1-1.76-5.37 7.45 7.45 0 0 1 1.94-5.33 6.32 6.32 0 0 1 4.8-2.06 5.52 5.52 0 0 1 4.44 1.85 7.66 7.66 0 0 1 1.57 5.13Zm-3.06-2.24a4.08 4.08 0 0 0-.81-2.66 2.69 2.69 0 0 0-2.19-1 3.08 3.08 0 0 0-2.32 1 4.56 4.56 0 0 0-1.17 2.61ZM104.42 144.58h-3.23v-12.69q0-1.56.19-3.81h-.05a13.11 13.11 0 0 1-.53 1.85l-5.85 14.66H92.7L86.84 130a13.76 13.76 0 0 1-.52-2h-.05q.11 1.18.11 3.84v12.66h-3V125h4.58l5.14 13a19.14 19.14 0 0 1 .77 2.24h.07q.51-1.55.82-2.3L100 125h4.42ZM119.35 144.58h-3.08v-2.19h-.05a4.63 4.63 0 0 1-4.25 2.52 4.48 4.48 0 0 1-3.23-1.12 3.92 3.92 0 0 1-1.17-3q0-4 4.57-4.62l4.16-.59q0-3-2.84-3a6.76 6.76 0 0 0-4.51 1.72v-2.78a9.84 9.84 0 0 1 5.11-1.31q5.3 0 5.3 5.22Zm-3.06-6.88-2.94.41a4.66 4.66 0 0 0-2.06.66 1.94 1.94 0 0 0-.69 1.7 1.86 1.86 0 0 0 .63 1.46 2.47 2.47 0 0 0 1.7.57 3.14 3.14 0 0 0 2.4-1 3.61 3.61 0 0 0 1-2.56ZM133 143.94a7.82 7.82 0 0 1-4 1 6.74 6.74 0 0 1-5-1.95 6.9 6.9 0 0 1-1.91-5.05 7.6 7.6 0 0 1 2.06-5.56 7.36 7.36 0 0 1 5.5-2.1 8 8 0 0 1 3.38.67v3a5.12 5.12 0 0 0-3.12-1.09 4.33 4.33 0 0 0-3.29 1.36 5 5 0 0 0-1.29 3.56 4.74 4.74 0 0 0 1.21 3.43 4.29 4.29 0 0 0 3.25 1.26 5.07 5.07 0 0 0 3.23-1.22ZM148.5 144.58h-3.17v-7.66q0-4.16-2.78-4.16a2.9 2.9 0 0 0-2.35 1.2 4.79 4.79 0 0 0-1 3.08v7.53h-3.19v-20.71h3.19v9.05h.05a5 5 0 0 1 4.54-2.65q4.66 0 4.66 5.7ZM153.66 127.64a1.91 1.91 0 0 1-1.33-.51 1.66 1.66 0 0 1-.55-1.29 1.71 1.71 0 0 1 .55-1.3 1.88 1.88 0 0 1 1.33-.52 1.94 1.94 0 0 1 1.37.52 1.7 1.7 0 0 1 .56 1.3 1.68 1.68 0 0 1-.56 1.26 1.93 1.93 0 0 1-1.37.54Zm1.57 16.94h-3.17v-14h3.17ZM171.5 144.58h-3.17v-7.89q0-3.92-2.78-3.92a3 3 0 0 0-2.39 1.09 4 4 0 0 0-.94 2.74v8H159v-14h3.19v2.32h.05a5 5 0 0 1 4.54-2.65 4.23 4.23 0 0 1 3.49 1.48 6.66 6.66 0 0 1 1.2 4.29ZM187 138.44h-9.54a4 4 0 0 0 1.2 3 4.45 4.45 0 0 0 3.14 1.05 6.92 6.92 0 0 0 4.12-1.34v2.56a9.4 9.4 0 0 1-5.06 1.2A6.26 6.26 0 0 1 176 143a7.63 7.63 0 0 1-1.76-5.37 7.46 7.46 0 0 1 1.93-5.33 6.33 6.33 0 0 1 4.81-2.06 5.52 5.52 0 0 1 4.44 1.85 7.66 7.66 0 0 1 1.57 5.13Zm-3-2.24a4.09 4.09 0 0 0-.81-2.66 2.69 2.69 0 0 0-2.19-1 3.08 3.08 0 0 0-2.32 1 4.56 4.56 0 0 0-1.17 2.61ZM52.66 178.18H41.8v-19.6h3.25v16.86h7.6ZM66.85 172H57.3a4 4 0 0 0 1.2 3 4.45 4.45 0 0 0 3.14 1.05 6.92 6.92 0 0 0 4.12-1.34v2.56a9.4 9.4 0 0 1-5.06 1.2 6.26 6.26 0 0 1-4.85-1.91 7.63 7.63 0 0 1-1.76-5.37 7.46 7.46 0 0 1 1.91-5.28 6.33 6.33 0 0 1 4.81-2.06 5.52 5.52 0 0 1 4.44 1.85 7.66 7.66 0 0 1 1.57 5.13Zm-3.06-2.24a4.09 4.09 0 0 0-.81-2.66 2.69 2.69 0 0 0-2.19-1 3.08 3.08 0 0 0-2.32 1 4.56 4.56 0 0 0-1.17 2.61ZM80.5 178.18h-3.08V176h-.05a4.63 4.63 0 0 1-4.25 2.52 4.48 4.48 0 0 1-3.23-1.12 3.92 3.92 0 0 1-1.17-3q0-4 4.57-4.62l4.16-.59q0-3-2.84-3a6.76 6.76 0 0 0-4.51 1.72v-2.78a9.84 9.84 0 0 1 5.11-1.31q5.31 0 5.3 5.22Zm-3.06-6.88-2.94.41a4.65 4.65 0 0 0-2.06.66 1.94 1.94 0 0 0-.69 1.7 1.86 1.86 0 0 0 .64 1.46 2.46 2.46 0 0 0 1.7.57 3.15 3.15 0 0 0 2.4-1 3.61 3.61 0 0 0 .95-2.56ZM92.22 167.2a2.63 2.63 0 0 0-1.65-.45 2.83 2.83 0 0 0-2.35 1.25 5.69 5.69 0 0 0-.94 3.46v6.7H84.1v-14h3.17v2.88h.05a4.88 4.88 0 0 1 1.43-2.3 3.22 3.22 0 0 1 2.15-.83 2.68 2.68 0 0 1 1.31.26ZM106.83 178.18h-3.17v-7.89q0-3.92-2.78-3.92a3 3 0 0 0-2.39 1.09 4 4 0 0 0-.94 2.74v8h-3.19v-14h3.19v2.32h.05a5 5 0 0 1 4.54-2.65 4.23 4.23 0 0 1 3.49 1.48 6.66 6.66 0 0 1 1.2 4.29ZM112 161.24a1.91 1.91 0 0 1-1.33-.51 1.66 1.66 0 0 1-.55-1.29 1.71 1.71 0 0 1 .55-1.3 1.88 1.88 0 0 1 1.33-.52 1.94 1.94 0 0 1 1.37.52 1.7 1.7 0 0 1 .56 1.3 1.68 1.68 0 0 1-.56 1.26 1.93 1.93 0 0 1-1.37.54Zm1.57 16.94h-3.17v-14h3.17ZM129.85 178.18h-3.17v-7.89q0-3.92-2.78-3.92a3 3 0 0 0-2.39 1.09 4 4 0 0 0-.94 2.74v8h-3.19v-14h3.19v2.32h.05a5 5 0 0 1 4.54-2.65 4.23 4.23 0 0 1 3.49 1.48 6.67 6.67 0 0 1 1.2 4.29ZM146.32 177.06q0 7.71-7.75 7.71a11.55 11.55 0 0 1-4.77-.92V181a8.83 8.83 0 0 0 4.36 1.31q5 0 5-4.91v-1.53h-.05a5.5 5.5 0 0 1-8.85.81 7.54 7.54 0 0 1-1.57-5 8.84 8.84 0 0 1 1.68-5.67 5.59 5.59 0 0 1 4.62-2.11 4.46 4.46 0 0 1 4.12 2.27h.05v-1.94h3.17Zm-3.14-5.29V170a3.56 3.56 0 0 0-1-2.52 3.2 3.2 0 0 0-2.44-1 3.35 3.35 0 0 0-2.82 1.33 6 6 0 0 0-1 3.73 5.18 5.18 0 0 0 1 3.3 3.14 3.14 0 0 0 2.59 1.24 3.36 3.36 0 0 0 2.67-1.18 4.46 4.46 0 0 0 .99-3.13Z"/><path class="cls-2" d="M81 0h25.75v38.38H81z"/><path class="cls-3" d="M81 38.38h25.76l-54.12 64.87-6.86-25.75L81 38.38zM113.44 45.85 97.89 64.5l37.23 38.75 6.86-25.75-28.54-31.65z"/><path class="cls-2" d="M52.64 103.25h82.48l-24.48-25.51H73.9l-21.26 25.51z"/></g></g></svg>