<svg xmlns="http://www.w3.org/2000/svg" viewBox="0 0 256 163.67"><defs><style>.cls-1{fill:#0078d3}</style></defs><g id="Layer_2" data-name="Layer 2"><g id="Layer_1-2" data-name="Layer 1"><path class="cls-1" d="M256 149.52a7.5 7.5 0 0 1-4.94 4.54 15.59 15.59 0 0 1-9.31-.29.85.85 0 0 1-.71-.91v-3.81a9.9 9.9 0 0 0 6.76 2 5.7 5.7 0 0 0 1.82-.37 2.11 2.11 0 0 0 .57-3.78 6.37 6.37 0 0 0-2-1 25.75 25.75 0 0 1-4.08-1.74c-4-2.25-4.12-7.35-.22-9.7 3.24-1.95 6.73-1.82 10.26-.84.79.22.67.8.66 1.36 0 .91.31 2.14-.15 2.63s-1.45-.51-2.26-.7a7.91 7.91 0 0 0-5.06.09 2.13 2.13 0 0 0-.14 4c.91.42 1.84.78 2.78 1.13 2.75 1 5.18 2.38 6 5.49ZM61.32 151.23a7.41 7.41 0 0 1-4.24 3.15c-5.21 1.23-9-1.49-9.3-7-.24-4.39-.06-8.8-.09-13.2 0-.62.2-.79.82-.83 4-.29 3.94-.3 4 3.61 0 3.2 0 6.41.12 9.61.12 2.62 1.45 4 3.64 4.2a4.56 4.56 0 0 0 5-3.62 9.27 9.27 0 0 0 .24-2.12v-10.62c0-.81.23-1 1-1.06 3.78-.09 3.77-.12 3.77 3.64v15.78c0 1.06-.24 1.54-1.34 1.33a2.8 2.8 0 0 0-.43 0c-1 0-2.08.26-2.8-.16s-.09-1.64-.39-2.71ZM38.52 137.12c-3.16 0-6-.05-8.9 0-1.1 0-1.38-.31-1.36-1.37 0-2.39 0-2.39 2.44-2.39h12.63c.56 0 1.4-.39 1.65.35a2.4 2.4 0 0 1-.41 2.29c-1.52 2-3 4-4.46 6l-6.19 8.36c3.4 0 6.53.06 9.67 0 1.16 0 1.44.33 1.41 1.44-.07 2.33 0 2.33-2.35 2.33H28.73c-1.55 0-2-.82-1.21-2.18a20.9 20.9 0 0 1 1.26-1.74l8.85-11.83c.26-.38.49-.7.89-1.26ZM175.13 149.77c1.65-5 3.34-10.06 5-15.14.28-.88.6-1.41 1.65-1.26 1.2.17 2.81-.52 3.48.33.39.49-.63 2.13-1.06 3.24-2.06 5.34-4.14 10.67-6.17 16-.31.82-.65 1.19-1.6 1.18-4 0-4 0-5.4-3.74-1.92-5.24-3.83-10.48-5.79-15.7-.4-1.07-.26-1.35.94-1.34 3.79 0 3.79 0 4.94 3.62ZM76.22 137.22c1.15-2.23 2.35-3.83 4.66-4.15s2.61 0 2.61 2.2v.43c0 .62.19 1.44-.12 1.81s-1.09-.21-1.68-.26a4.3 4.3 0 0 0-4.09 1.87 8 8 0 0 0-1.41 4.88c0 3-.05 5.94 0 8.9 0 1-.31 1.25-1.29 1.25-3.54 0-3.54 0-3.54-3.58v-15.8c0-1.17.36-1.42 1.45-1.41 3.33.05 3.33.01 3.41 3.86ZM214.32 137.54c-.53-5.5-2.86-10-8.21-12s-10.72-1.45-15.15 2.59c-3.84 3.5-4.74 8.2-4.42 13.14.36 5.49 2.64 10 7.95 12.14s10.66 1.73 15.22-2.17c3.61-3.09 4.62-7.34 4.62-11.89 0-.57.05-1.2-.01-1.81Zm-5.42 5.83c-1 4.12-3.85 6.71-7.85 7a8.29 8.29 0 0 1-8.7-6 13.88 13.88 0 0 1 .45-10.35 8.38 8.38 0 0 1 8.69-5 8.24 8.24 0 0 1 7.38 6.77 25 25 0 0 1 .43 4 28 28 0 0 1-.4 3.58ZM142.58 138c-.26-6.61-3.78-10.93-10.24-12.34-4.45-1-9-.39-13.44-.56-1 0-.75.65-.75 1.17V152.83c0 .94.14 1.36 1.22 1.32 2.63-.08 5.26 0 7.89 0a16.8 16.8 0 0 0 9.22-2.71c4.72-3.26 6.31-7.91 6.1-13.44Zm-5.3 4a9.16 9.16 0 0 1-8.3 7.85c-1.62.19-3.24.19-4.86.24-.92 0-1.12-.32-1.11-1.16v-18.5c0-.88.26-1.18 1.14-1.14 2.14.1 4.3-.15 6.42.35a8.09 8.09 0 0 1 6.71 7.08 16 16 0 0 1-.01 5.28Z"/><path class="cls-1" d="M17.82 129.06c-.48-1.3-.66-3.06-1.61-3.73s-2.67-.13-4-.26c-1.06-.1-1.48.35-1.83 1.29-1.95 5.34-4 10.64-6 16-1.45 3.88-2.89 7.77-4.38 11.78 1.52 0 2.91-.06 4.28 0a1.21 1.21 0 0 0 1.42-1c.57-1.82 1.23-3.62 1.79-5.44a1.23 1.23 0 0 1 1.42-1q4.59.08 9.19 0a1.25 1.25 0 0 1 1.42 1c.61 1.86 1.31 3.69 1.93 5.54.19.56.39.9 1.07.88h4.61c-3.13-8.52-6.23-16.79-9.31-25.06Zm-7.87 13.7c-1 0-.65-.52-.48-1L13 131.45l.47-1.41 4.39 12.71c-2.77 0-5.34-.01-7.92.01ZM238 139.07c-.84-3.13-2.69-5.38-6-6a7.87 7.87 0 0 0-8.36 3.12c-.13.18-.22.44-.53.34-.08-3.15-.08-3.15-3.26-3.14h-.14c-1.1-.2-1.34.28-1.33 1.33v25.57c0 3.4 0 3.36 3.45 3.39 1 0 1.28-.28 1.27-1.28-.06-3.62 0-7.24 0-11.18a9.39 9.39 0 0 0 3.06 2.69 8.53 8.53 0 0 0 11.23-4.57 15.19 15.19 0 0 0 .61-10.27Zm-5.17 8.51a4.92 4.92 0 0 1-5.78 3.12 5.16 5.16 0 0 1-4-5v-2a7.94 7.94 0 0 1 .77-4.22 5.19 5.19 0 0 1 5.19-2.84 4.9 4.9 0 0 1 4.33 4 10.89 10.89 0 0 1-.55 6.94ZM151 145.07h9.9c3.3 0 3.27 0 3.1-3.26-.24-4.58-2.74-7.92-6.52-8.69a9.79 9.79 0 0 0-11 4.81c-2.31 4.21-1.71 10.79 1.27 13.88s10.54 3.85 14.19 1.28a1 1 0 0 0 .5-.94v-3.14a14.26 14.26 0 0 1-4.6 1.83c-4.06.69-7.12-1.15-7.81-4.64-.12-.88.09-1.15.97-1.13Zm4.83-8.57a4.54 4.54 0 0 1 3.6 4.55c0 .62-.33.68-.82.68h-7.87c-.37 0-.83.08-.7-.56.63-3.06 2.96-5.17 5.84-4.68ZM90.66 145.06c3.16.07 6.31 0 9.47 0 3.56 0 3.56 0 3.3-3.61-.29-4.06-2.43-7.08-5.74-8.15a9.81 9.81 0 0 0-10.54 2.93c-3.21 3.81-3.51 10.7-.62 14.76a7.7 7.7 0 0 0 4.08 3 14.8 14.8 0 0 0 10.35-.7c.44-.19.9-.36.9-1v-3.39a11.41 11.41 0 0 1-4.57 1.89c-3.91.68-6.93-1.06-7.73-4.37-.25-1-.09-1.42 1.1-1.36ZM89.54 141a5.34 5.34 0 0 1 4.66-4.54 4.43 4.43 0 0 1 4.67 4.65c-.05.66-.4.64-.84.64h-7.87c-.56-.02-.72-.17-.62-.75ZM157.41 24.95c8.23-1.53 16.47-3 24.67-4.62 1.88-.37 1.78.52 1.77 1.8v64.99a3.75 3.75 0 0 1-1.5 3.36q-12.06 9.81-24 19.8a3.63 3.63 0 0 1-4 .75c-12.35-4.24-24.88-8.36-37.35-12.52-.77-.25-1.54-.49-2.47-.78V111c-.64.33-.86-.08-1.11-.38l-28.77-34a7.07 7.07 0 0 1-.53-.83.58.58 0 0 1 .12-.81c1.16-.72 2.4-.47 3.63-.29 21.44 3 42.87 6 64.32 9a15.68 15.68 0 0 0 2 .21 1.29 1.29 0 0 0 1.46-1.32c.07-.83.05-1.66.05-2.49V29.82a12.37 12.37 0 0 1 .29-4c.2-.66.88-.65 1.42-.87Z"/><path class="cls-1" d="M83.44 72.72V41.34c0-1.75.46-2.37 2.24-2.7 23.13-4.34 46.23-8.79 69.35-13.19a11.32 11.32 0 0 1 1.48-.09l1-.41c-1.14.19-1.83-.62-2.61-1.19q-15.35-11.19-30.7-22.4c-.86-.56-1.48-1.48-2.63-1.36 0 3-.07 6 .09 9 .1 1.77-.51 2.58-2.17 3.22-11.36 4.35-22.67 8.83-34 13.21a8.34 8.34 0 0 0-3.9 2.89c-3.11 4.19-6.3 8.32-9.45 12.48q0 14.76.07 29.52c0 1-.25 2 .55 2.82 2.51.46 5 .87 7.52 1.39 1.32.28 2.85.06 3.84 1.33l.05-.63c-.98-.65-.73-1.63-.73-2.51Z"/></g></g></svg>