<svg xmlns="http://www.w3.org/2000/svg" viewBox="0 0 222.63 179.97"><defs><radialGradient id="radial-gradient" cx="-31.32" cy="360.86" r="50.26" gradientTransform="matrix(1.04 0 0 -1.03 139.85 441.6)" gradientUnits="userSpaceOnUse"><stop offset=".18" stop-color="#5ea0ef"/><stop offset="1" stop-color="#0078d4"/></radialGradient><clipPath id="clip-path"><path d="M158.19 59a51.8 51.8 0 1 1-62.42-38.38A51.8 51.8 0 0 1 158.19 59Z" style="fill:none"/></clipPath><style>.cls-2{fill:#465154}.cls-3{fill:#50e6ff}.cls-6{fill:#f2f2f2}</style></defs><g id="Layer_2" data-name="Layer 2"><g id="Layer_1-2" data-name="Layer 1"><path class="cls-2" d="M18.29 179.65h-3.57l-1.76-5H5.25l-1.7 5H0L7.34 160H11ZM12.1 172l-2.72-7.82a9.19 9.19 0 0 1-.26-1.18h-.06a8 8 0 0 1-.27 1.23L6.1 172ZM31.67 167l-7.56 10.2h7.53v2.47h-12v-1.19l7.72-10.34h-7v-2.47h11.31ZM46.37 179.65H43.2v-2.21h-.05a4.57 4.57 0 0 1-4.3 2.56q-5 0-5-6v-8.37h3.17v8q0 3.77 2.91 3.77a2.94 2.94 0 0 0 2.32-1 4 4 0 0 0 .91-2.72v-8.05h3.17ZM58.24 168.67a2.63 2.63 0 0 0-1.65-.45 2.83 2.83 0 0 0-2.35 1.27 5.69 5.69 0 0 0-.94 3.46v6.7h-3.18v-14h3.17v2.88h.05a4.88 4.88 0 0 1 1.43-2.3 3.22 3.22 0 0 1 2.15-.83 2.68 2.68 0 0 1 1.31.26ZM72.29 173.51h-9.54a4 4 0 0 0 1.2 3 4.45 4.45 0 0 0 3.14 1.05 6.92 6.92 0 0 0 4.12-1.34v2.56a9.41 9.41 0 0 1-5.06 1.2 6.26 6.26 0 0 1-4.85-1.91 7.63 7.63 0 0 1-1.76-5.37 7.46 7.46 0 0 1 1.93-5.33 6.33 6.33 0 0 1 4.81-2.06 5.52 5.52 0 0 1 4.44 1.85 7.66 7.66 0 0 1 1.57 5.13Zm-3.06-2.24a4.09 4.09 0 0 0-.81-2.66 2.69 2.69 0 0 0-2.19-1 3.08 3.08 0 0 0-2.32 1 4.56 4.56 0 0 0-1.17 2.61ZM97 178.83a11.89 11.89 0 0 1-5.47 1.17 9 9 0 0 1-6.84-2.69 9.81 9.81 0 0 1-2.57-7.07 10.29 10.29 0 0 1 2.89-7.6 9.89 9.89 0 0 1 7.31-2.9 12 12 0 0 1 4.72.81v3.23a8.42 8.42 0 0 0-4.37-1.18 6.86 6.86 0 0 0-5.16 2 7.48 7.48 0 0 0-2 5.44 7.14 7.14 0 0 0 1.85 5.16 6.42 6.42 0 0 0 4.85 1.92 8.69 8.69 0 0 0 4.79-1.3ZM106.2 180a6.94 6.94 0 0 1-5.17-2 7.09 7.09 0 0 1-1.93-5.2 6.91 6.91 0 0 1 7.45-7.49 6.72 6.72 0 0 1 5.11 1.93 7.45 7.45 0 0 1 1.83 5.35 7.34 7.34 0 0 1-2 5.37 7.1 7.1 0 0 1-5.29 2.04Zm.15-12.13a3.62 3.62 0 0 0-2.94 1.3 5.44 5.44 0 0 0-1.08 3.58 5.12 5.12 0 0 0 1.09 3.47 3.67 3.67 0 0 0 2.93 1.26 3.49 3.49 0 0 0 2.88-1.24 5.51 5.51 0 0 0 1-3.54 5.59 5.59 0 0 0-1-3.57 3.47 3.47 0 0 0-2.88-1.28ZM115.67 179.21v-2.94a6.33 6.33 0 0 0 3.92 1.35q2.87 0 2.87-1.7a1.34 1.34 0 0 0-.25-.81 2.35 2.35 0 0 0-.66-.59 5.25 5.25 0 0 0-1-.46l-1.26-.46a13.36 13.36 0 0 1-1.55-.72 4.66 4.66 0 0 1-1.15-.87 3.26 3.26 0 0 1-.69-1.1 4 4 0 0 1-.23-1.44 3.31 3.31 0 0 1 .48-1.78 4.15 4.15 0 0 1 1.29-1.3 6.16 6.16 0 0 1 1.83-.79 8.39 8.39 0 0 1 2.12-.27 9.64 9.64 0 0 1 3.47.59v2.78a5.85 5.85 0 0 0-3.39-1 4.42 4.42 0 0 0-1.09.12 2.8 2.8 0 0 0-.83.34 1.66 1.66 0 0 0-.53.53 1.25 1.25 0 0 0-.19.68 1.44 1.44 0 0 0 .19.77 1.72 1.72 0 0 0 .57.55 4.86 4.86 0 0 0 .9.44l1.21.43a17.76 17.76 0 0 1 1.62.75 5.49 5.49 0 0 1 1.22.87 3.41 3.41 0 0 1 .78 1.12 3.82 3.82 0 0 1 .27 1.51 3.45 3.45 0 0 1-.49 1.86 4.11 4.11 0 0 1-1.31 1.31 6.15 6.15 0 0 1-1.89.77 9.82 9.82 0 0 1-2.26.25 9.53 9.53 0 0 1-3.97-.79ZM149.29 179.65h-3.17V172a6.18 6.18 0 0 0-.62-3.19 2.29 2.29 0 0 0-2.1-1 2.53 2.53 0 0 0-2.11 1.24 5.07 5.07 0 0 0-.87 3v7.57h-3.19v-7.89q0-3.91-2.76-3.91a2.49 2.49 0 0 0-2.11 1.18 5.18 5.18 0 0 0-.83 3v7.57h-3.17v-14h3.17v2.21h.05a4.85 4.85 0 0 1 4.42-2.54 4.16 4.16 0 0 1 2.54.8 4 4 0 0 1 1.48 2.1 5 5 0 0 1 4.65-2.9q4.62 0 4.62 5.7ZM159.18 180a6.94 6.94 0 0 1-5.17-2 7.09 7.09 0 0 1-1.93-5.2 6.91 6.91 0 0 1 7.45-7.49 6.72 6.72 0 0 1 5.11 1.93 7.45 7.45 0 0 1 1.83 5.35 7.34 7.34 0 0 1-2 5.37 7.1 7.1 0 0 1-5.29 2.04Zm.15-12.13a3.62 3.62 0 0 0-2.94 1.3 5.44 5.44 0 0 0-1.08 3.58 5.12 5.12 0 0 0 1.09 3.47 3.67 3.67 0 0 0 2.93 1.26 3.49 3.49 0 0 0 2.88-1.24 5.51 5.51 0 0 0 1-3.54 5.59 5.59 0 0 0-1-3.57 3.47 3.47 0 0 0-2.88-1.28ZM168.66 179.21v-2.94a6.33 6.33 0 0 0 3.92 1.35q2.87 0 2.87-1.7a1.34 1.34 0 0 0-.25-.81 2.34 2.34 0 0 0-.66-.59 5.25 5.25 0 0 0-1-.46l-1.26-.46a13.36 13.36 0 0 1-1.55-.72 4.7 4.7 0 0 1-1.15-.87 3.27 3.27 0 0 1-.69-1.1 4 4 0 0 1-.23-1.44 3.31 3.31 0 0 1 .48-1.78 4.16 4.16 0 0 1 1.29-1.3 6.17 6.17 0 0 1 1.83-.79 8.39 8.39 0 0 1 2.12-.27 9.64 9.64 0 0 1 3.47.59v2.78a5.85 5.85 0 0 0-3.39-1 4.42 4.42 0 0 0-1.09.12 2.81 2.81 0 0 0-.83.34 1.68 1.68 0 0 0-.53.53 1.25 1.25 0 0 0-.19.68 1.44 1.44 0 0 0 .19.77 1.73 1.73 0 0 0 .57.55 4.92 4.92 0 0 0 .9.44l1.21.43a17.76 17.76 0 0 1 1.62.75 5.47 5.47 0 0 1 1.22.87 3.41 3.41 0 0 1 .78 1.12 3.8 3.8 0 0 1 .27 1.51 3.45 3.45 0 0 1-.49 1.86 4.11 4.11 0 0 1-1.31 1.31 6.14 6.14 0 0 1-1.89.77 9.82 9.82 0 0 1-2.26.25 9.53 9.53 0 0 1-3.97-.79ZM189.66 179.65V160h5.66q10.84 0 10.84 9.56a9.42 9.42 0 0 1-3 7.29 11.48 11.48 0 0 1-8.07 2.75Zm3.24-16.84v14.1h2.6a7.26 7.26 0 0 0 5.34-1.89 7.17 7.17 0 0 0 1.91-5.33q0-6.88-7.12-6.88ZM209.35 179.65V160h6.22a7.35 7.35 0 0 1 4.5 1.24 3.87 3.87 0 0 1 1.66 3.24 4.63 4.63 0 0 1-.94 2.9 5.09 5.09 0 0 1-2.61 1.75v.05a5.12 5.12 0 0 1 3.23 1.5 4.56 4.56 0 0 1 1.21 3.29 4.94 4.94 0 0 1-2 4.07 7.85 7.85 0 0 1-5 1.56Zm3.24-17v5.58h2.11a4 4 0 0 0 2.66-.8 2.78 2.78 0 0 0 1-2.26q0-2.52-3.36-2.52Zm0 8.19V177h2.78a4.22 4.22 0 0 0 2.81-.84 2.88 2.88 0 0 0 1-2.32q0-3-4.22-3Z"/><path class="cls-3" d="M56.77 39.86a1.48 1.48 0 0 1-1.49-1.47 17 17 0 0 0-17-17 1.49 1.49 0 0 1-1.49-1.48 1.49 1.49 0 0 1 1.49-1.49 17 17 0 0 0 17-17A1.48 1.48 0 0 1 56.76 0a1.48 1.48 0 0 1 1.49 1.47 17 17 0 0 0 17 17 1.48 1.48 0 0 1 1.49 1.47 1.48 1.48 0 0 1-1.47 1.49 17 17 0 0 0-17 17 1.49 1.49 0 0 1-1.5 1.43ZM163.6 142.74a1.19 1.19 0 0 1-1.19-1.19A13.58 13.58 0 0 0 148.85 128a1.19 1.19 0 0 1-1.19-1.18 1.19 1.19 0 0 1 1.19-1.19 13.57 13.57 0 0 0 13.56-13.56 1.19 1.19 0 0 1 1.19-1.19 1.19 1.19 0 0 1 1.19 1.19 13.57 13.57 0 0 0 13.56 13.56 1.19 1.19 0 1 1 0 2.38 13.58 13.58 0 0 0-13.56 13.56 1.19 1.19 0 0 1-1.19 1.17Z"/><path d="M158.19 59a51.8 51.8 0 1 1-62.42-38.38A51.8 51.8 0 0 1 158.19 59Z" style="fill:url(#radial-gradient)"/><g style="clip-path:url(#clip-path)"><path class="cls-6" d="M80 106.1a13.83 13.83 0 0 0 .72-27.64h-.68a11 11 0 0 0 .06-1.18 13.93 13.93 0 0 0-14-13.81H55.75a52.76 52.76 0 0 0 13.46 42.63ZM158.83 61.37a.8.8 0 0 0-.06-.37 50.46 50.46 0 0 0-11.87-24.31 15.4 15.4 0 0 0-2.44-.76A15.24 15.24 0 0 0 125 50a16.88 16.88 0 0 0-1.69-.11 14.66 14.66 0 0 0-4.9 28.48 12.25 12.25 0 0 0 4.57.84h17.13a113.55 113.55 0 0 0 18.72-17.84Z"/></g><path class="cls-3" d="M176.94 27.75c-5.31-8.84-17.72-12.28-35.07-9.7a123.28 123.28 0 0 0-17.57 3.82 54.49 54.49 0 0 1 12.9 6.47c2-.45 4.08-1 6-1.27a63.22 63.22 0 0 1 9.31-.75 18.47 18.47 0 0 1 16.53 6.12c3.23 5.38.51 14.59-7.48 25.32a141.15 141.15 0 0 1-40.08 34.19A141.44 141.44 0 0 1 72.36 111c-13.2 2-22.64 0-25.87-5.37S46 91.07 54 80.39c1-1.33 1.23-2 2.35-3.31a52.77 52.77 0 0 1 .22-13.76 97.5 97.5 0 0 0-9.88 11.58c-10.46 14-13.29 26.56-8 35.4a26.71 26.71 0 0 0 24.48 10.54 71.19 71.19 0 0 0 10.54-.84 150.7 150.7 0 0 0 52.49-20.25 150.31 150.31 0 0 0 42.72-36.56c10.48-14.03 13.32-26.59 8.02-35.44Z"/></g></g></svg>