<svg xmlns="http://www.w3.org/2000/svg" viewBox="0 0 201.93 189.78"><defs><linearGradient id="linear-gradient" x1="98.12" y1="318.34" x2="98.12" y2="361.32" gradientTransform="matrix(1 0 0 -1 0 391.92)" gradientUnits="userSpaceOnUse"><stop offset="0" stop-color="#198ab3"/><stop offset=".17" stop-color="#32bedd"/><stop offset=".5" stop-color="#50e6ff"/><stop offset=".5" stop-color="#4fe4fd"/><stop offset=".5" stop-color="#4bddf8"/><stop offset=".5" stop-color="#44d2ee"/><stop offset=".5" stop-color="#3ac1e0"/><stop offset=".5" stop-color="#2dabce"/><stop offset=".5" stop-color="#1d90b8"/><stop offset=".5" stop-color="#198ab3"/><stop offset=".66" stop-color="#32bedd"/><stop offset=".97" stop-color="#50e6ff"/></linearGradient><style>.cls-1{fill:#465154}</style></defs><g id="Layer_2" data-name="Layer 2"><g id="Layer_1-2" data-name="Layer 1"><path class="cls-1" d="M20.25 145.28h-4l-2-5.53H5.81l-1.88 5.53H0l8.13-21.71h4.06Zm-6.86-8.46-3-8.66a10.25 10.25 0 0 1-.29-1.36H10a9 9 0 0 1-.3 1.36l-3 8.66ZM35 131.25l-8.37 11.29H35v2.74H21.75V144l8.55-11.44h-7.73v-2.74H35ZM51.29 145.28h-3.51v-2.45h-.06a5.05 5.05 0 0 1-4.72 2.82q-5.49 0-5.5-6.6v-9.26H41v8.9q0 4.18 3.22 4.18a3.26 3.26 0 0 0 2.57-1.15 4.41 4.41 0 0 0 1-3v-8.92h3.51ZM64.41 133.13a2.9 2.9 0 0 0-1.83-.5A3.13 3.13 0 0 0 60 134a6.29 6.29 0 0 0-1 3.83v7.42h-3.58v-15.5h3.51V133H59a5.4 5.4 0 0 1 1.58-2.55 3.57 3.57 0 0 1 2.38-.92 3 3 0 0 1 1.45.29ZM79.94 138.49H69.38a4.47 4.47 0 0 0 1.32 3.32 4.93 4.93 0 0 0 3.48 1.19 7.66 7.66 0 0 0 4.56-1.48v2.83a10.41 10.41 0 0 1-5.6 1.33 6.94 6.94 0 0 1-5.37-2.11 8.45 8.45 0 0 1-1.94-5.94A8.26 8.26 0 0 1 68 131.7a7 7 0 0 1 5.32-2.28 6.11 6.11 0 0 1 4.92 2 8.49 8.49 0 0 1 1.74 5.68ZM76.55 136a4.52 4.52 0 0 0-.89-2.94 3 3 0 0 0-2.42-1.06 3.41 3.41 0 0 0-2.57 1.11 5 5 0 0 0-1.29 2.89ZM91.21 144.42v-3.71a5.73 5.73 0 0 0 1.19.82 9.22 9.22 0 0 0 1.46.61 11.58 11.58 0 0 0 1.54.39 8.22 8.22 0 0 0 1.42.14 6.08 6.08 0 0 0 3.38-.76 2.49 2.49 0 0 0 1.11-2.2 2.4 2.4 0 0 0-.37-1.34 3.93 3.93 0 0 0-1-1 11 11 0 0 0-1.57-.9l-1.93-.9q-1.1-.59-2.06-1.2A8.91 8.91 0 0 1 92.7 133a5.59 5.59 0 0 1-1.1-1.66 5.39 5.39 0 0 1-.4-2.16 5 5 0 0 1 .69-2.66 5.82 5.82 0 0 1 1.82-1.86 8.33 8.33 0 0 1 2.57-1.09 12.23 12.23 0 0 1 2.94-.36 11.83 11.83 0 0 1 5 .77v3.56a7.93 7.93 0 0 0-4.75-1.33 8.54 8.54 0 0 0-1.6.15 4.76 4.76 0 0 0-1.42.5 3.08 3.08 0 0 0-1 .89 2.19 2.19 0 0 0-.39 1.32 2.49 2.49 0 0 0 .3 1.26 3.23 3.23 0 0 0 .89 1 9 9 0 0 0 1.42.86q.84.42 1.94.9t2.14 1.24a10.06 10.06 0 0 1 1.77 1.44 6.32 6.32 0 0 1 1.21 1.75 5.13 5.13 0 0 1 .45 2.19 5.13 5.13 0 0 1-2.46 4.63 8 8 0 0 1-2.6 1 14.57 14.57 0 0 1-3.1.32q-.54 0-1.34-.08t-1.68-.26a15.28 15.28 0 0 1-1.57-.39 5 5 0 0 1-1.22-.51ZM121 129.78l-7 18q-2.18 4.81-6.12 4.81a7.35 7.35 0 0 1-1.85-.2v-2.92a4.91 4.91 0 0 0 1.51.27 3.12 3.12 0 0 0 2.94-1.94l1-2.54-6.16-15.47h3.89L113 141q.06.21.27 1.12h.08q.08-.35.27-1.09l3.88-11.29ZM137.12 145.28h-3.51v-8.73q0-4.34-3.07-4.34a3.36 3.36 0 0 0-2.65 1.2 4.47 4.47 0 0 0-1 3v8.84h-3.53v-15.5h3.53v2.57h.06a5.52 5.52 0 0 1 5-2.94 4.68 4.68 0 0 1 3.86 1.64 7.38 7.38 0 0 1 1.33 4.75ZM153.09 145.28h-3.41v-2.42h-.06a5.13 5.13 0 0 1-4.71 2.79 5 5 0 0 1-3.58-1.24 4.34 4.34 0 0 1-1.29-3.28q0-4.39 5.06-5.12l4.6-.65q0-3.31-3.15-3.31a7.48 7.48 0 0 0-5 1.91v-3.07a10.89 10.89 0 0 1 5.66-1.45q5.87 0 5.87 5.78Zm-3.39-7.61-3.25.45a5.18 5.18 0 0 0-2.28.73 2.15 2.15 0 0 0-.76 1.88 2.06 2.06 0 0 0 .7 1.61 2.73 2.73 0 0 0 1.89.66 3.48 3.48 0 0 0 2.66-1.13 4 4 0 0 0 1.04-2.87ZM160.63 143h-.06v9.41h-3.51v-22.63h3.51v2.72h.06a5.76 5.76 0 0 1 5.27-3.09 5.55 5.55 0 0 1 4.6 2.07 8.7 8.7 0 0 1 1.65 5.57 9.65 9.65 0 0 1-1.86 6.21 6.16 6.16 0 0 1-5.09 2.33 5.08 5.08 0 0 1-4.57-2.59Zm-.09-6.12v1.92a4.1 4.1 0 0 0 1.08 2.88 3.82 3.82 0 0 0 5.81-.34 7.08 7.08 0 0 0 1.11-4.25 5.58 5.58 0 0 0-1-3.58 3.41 3.41 0 0 0-2.81-1.29 3.78 3.78 0 0 0-3 1.33 4.93 4.93 0 0 0-1.19 3.33ZM174.63 144.8v-3.25A7 7 0 0 0 179 143q3.18 0 3.18-1.88a1.48 1.48 0 0 0-.27-.9 2.6 2.6 0 0 0-.73-.66 5.78 5.78 0 0 0-1.09-.52l-1.4-.51a15 15 0 0 1-1.72-.8 5.17 5.17 0 0 1-1.27-1 3.64 3.64 0 0 1-.76-1.22 4.48 4.48 0 0 1-.26-1.59 3.67 3.67 0 0 1 .53-2 4.6 4.6 0 0 1 1.42-1.44 6.86 6.86 0 0 1 2-.88 9.31 9.31 0 0 1 2.35-.29 10.68 10.68 0 0 1 3.84.65v3.07a6.48 6.48 0 0 0-3.75-1.12 4.85 4.85 0 0 0-1.2.14 3.08 3.08 0 0 0-.92.38 1.85 1.85 0 0 0-.59.58 1.39 1.39 0 0 0-.21.75 1.6 1.6 0 0 0 .21.85 1.92 1.92 0 0 0 .63.61 5.42 5.42 0 0 0 1 .48l1.34.48a19.34 19.34 0 0 1 1.79.83 6 6 0 0 1 1.35 1 3.78 3.78 0 0 1 .86 1.24 4.22 4.22 0 0 1 .3 1.67 3.82 3.82 0 0 1-.54 2.06 4.55 4.55 0 0 1-1.45 1.45 6.82 6.82 0 0 1-2.1.85 10.9 10.9 0 0 1-2.5.28 10.55 10.55 0 0 1-4.41-.76ZM201.93 138.49h-10.56a4.46 4.46 0 0 0 1.32 3.32 4.93 4.93 0 0 0 3.47 1.17 7.67 7.67 0 0 0 4.56-1.48v2.83a10.41 10.41 0 0 1-5.6 1.33 6.93 6.93 0 0 1-5.37-2.11 8.45 8.45 0 0 1-1.95-5.94 8.25 8.25 0 0 1 2.14-5.9 7 7 0 0 1 5.32-2.28 6.11 6.11 0 0 1 4.92 2 8.49 8.49 0 0 1 1.74 5.68Zm-3.39-2.49a4.53 4.53 0 0 0-.89-2.94 3 3 0 0 0-2.42-1.05 3.41 3.41 0 0 0-2.57 1.11 5 5 0 0 0-1.29 2.89ZM59.18 182.48h-4l-2-5.53h-8.44l-1.88 5.53h-3.93l8.13-21.71h4.06ZM52.32 174l-3-8.66A10.22 10.22 0 0 1 49 164a8.84 8.84 0 0 1-.3 1.36l-3 8.66ZM75.39 182.48h-3.51v-8.73q0-4.34-3.07-4.34a3.36 3.36 0 0 0-2.65 1.2 4.47 4.47 0 0 0-1 3v8.84h-3.57V167h3.53v2.57h.06a5.52 5.52 0 0 1 5-2.94 4.68 4.68 0 0 1 3.86 1.64 7.38 7.38 0 0 1 1.35 4.73ZM91.36 182.48H88v-2.42h-.1a5.13 5.13 0 0 1-4.71 2.79 5 5 0 0 1-3.58-1.24 4.34 4.34 0 0 1-1.29-3.28q0-4.39 5.06-5.12l4.6-.65q0-3.31-3.15-3.31a7.48 7.48 0 0 0-5 1.91v-3.07a10.89 10.89 0 0 1 5.66-1.45q5.87 0 5.87 5.78ZM88 174.87l-3.25.45a5.18 5.18 0 0 0-2.28.73 2.15 2.15 0 0 0-.76 1.88 2.06 2.06 0 0 0 .7 1.61 2.73 2.73 0 0 0 1.88.63 3.48 3.48 0 0 0 2.66-1.13 4 4 0 0 0 1.05-2.82ZM98.87 182.48h-3.53v-22.94h3.53ZM116.79 167l-7 18q-2.18 4.81-6.12 4.81a7.34 7.34 0 0 1-1.85-.2v-2.92a4.91 4.91 0 0 0 1.51.27 3.12 3.12 0 0 0 2.94-1.94l1-2.54-6.1-15.48h3.89l3.69 11.26q.06.21.27 1.12h.08q.07-.35.27-1.09l3.88-11.29ZM128.08 182.32a6.09 6.09 0 0 1-2.71.51q-4.51 0-4.51-4.33v-8.76h-2.59V167h2.59v-3.59l3.51-1V167h3.71v2.75h-3.71v7.75a3.05 3.05 0 0 0 .5 2 2.07 2.07 0 0 0 1.67.59 2.42 2.42 0 0 0 1.54-.51ZM132.46 163.73a2.11 2.11 0 0 1-1.48-.56 1.84 1.84 0 0 1-.61-1.42 1.89 1.89 0 0 1 .61-1.44 2.08 2.08 0 0 1 1.48-.57 2.15 2.15 0 0 1 1.51.57 1.88 1.88 0 0 1 .62 1.44 1.86 1.86 0 0 1-.62 1.4 2.13 2.13 0 0 1-1.51.58Zm1.74 18.75h-3.51V167h3.51ZM149.51 181.77a8.66 8.66 0 0 1-4.4 1.07 7.46 7.46 0 0 1-5.57-2.16 7.64 7.64 0 0 1-2.12-5.59 8.41 8.41 0 0 1 2.28-6.15 8.15 8.15 0 0 1 6.09-2.32 8.89 8.89 0 0 1 3.74.74v3.27a5.66 5.66 0 0 0-3.45-1.21 4.8 4.8 0 0 0-3.65 1.51 5.51 5.51 0 0 0-1.42 3.94 5.25 5.25 0 0 0 1.34 3.8 4.75 4.75 0 0 0 3.59 1.39 5.62 5.62 0 0 0 3.57-1.35ZM152 182v-3.25a7 7 0 0 0 4.34 1.5q3.18 0 3.18-1.88a1.48 1.48 0 0 0-.27-.9 2.59 2.59 0 0 0-.73-.66 5.78 5.78 0 0 0-1.09-.52l-1.4-.51a15 15 0 0 1-1.72-.8 5.21 5.21 0 0 1-1.27-1 3.62 3.62 0 0 1-.76-1.22 4.48 4.48 0 0 1-.26-1.59 3.67 3.67 0 0 1 .53-2 4.59 4.59 0 0 1 1.42-1.44 6.85 6.85 0 0 1 2-.88 9.3 9.3 0 0 1 2.35-.29 10.67 10.67 0 0 1 3.84.65v3.07a6.48 6.48 0 0 0-3.75-1.12 4.85 4.85 0 0 0-1.2.14 3.08 3.08 0 0 0-.92.38 1.85 1.85 0 0 0-.59.58 1.39 1.39 0 0 0-.21.75 1.6 1.6 0 0 0 .21.85 1.92 1.92 0 0 0 .63.61 5.42 5.42 0 0 0 1 .48l1.34.48a19.32 19.32 0 0 1 1.79.83 6.05 6.05 0 0 1 1.36 1 3.77 3.77 0 0 1 .86 1.24 4.21 4.21 0 0 1 .3 1.67 3.82 3.82 0 0 1-.54 2.06 4.55 4.55 0 0 1-1.45 1.45 6.81 6.81 0 0 1-2.1.85 10.9 10.9 0 0 1-2.5.28A10.55 10.55 0 0 1 152 182Z"/><path d="M98.12 0 52.69 26v51.9l45.43 26.28 45.43-26V26.1Zm37 72.75-37 21.41L61.08 73V31.14l37-21.41 37 21.47Z" style="fill:#0078d4"/><path d="M119.77 60.63A4.23 4.23 0 0 0 117.9 59 33.77 33.77 0 0 0 92 39.61l37.49-21.66-8.72-5-42.71 24.67a4.34 4.34 0 0 0 2.18 8.1 4 4 0 0 0 .52-.13l.72 3a25 25 0 0 1 28 13L66.94 86.15l8.68 5 42.56-24.6a4.22 4.22 0 0 0 1.4-1.37l.43-.1c0-.17-.1-.32-.14-.49a4.25 4.25 0 0 0-.1-3.96Z" style="fill:#50e6ff"/><path d="M116 52.17a10.71 10.71 0 1 0 10.71 10.71A10.71 10.71 0 0 0 116 52.17ZM80.23 30.48a10.71 10.71 0 1 0 10.71 10.71 10.71 10.71 0 0 0-10.71-10.71Z" style="fill:url(#linear-gradient)"/></g></g></svg>