<svg id="Layer_1" data-name="Layer 1" xmlns="http://www.w3.org/2000/svg" viewBox="0 0 200 38.12"><defs><style>.cls-2{fill:#010101}.cls-3{fill:#fefefe}</style></defs><path d="M29.67 30.76H0V1.1h29.67ZM16 26.64V24.9a1.92 1.92 0 0 1 .54-1.48c1.27-1.52 2.51-3.07 3.75-4.61a12 12 0 0 0 1.32-1.74H16v-4.64h-3l2.72-3.36c.14-.17.32-.32.32-.56V5.24h-2.39v1.7a1.93 1.93 0 0 1-.56 1.55c-.66.74-1.26 1.53-1.88 2.3L8 14.8h5.69v4.64h3L14 22.77c-.15.19-.36.35-.36.62v3.26Z" transform="translate(0 -.94)" style="fill:#fe6633"/><path class="cls-2" d="M39 30.64V1.23h11.74a9.3 9.3 0 0 1 6 2c3.18 2.58 4 9.5-1.12 12.17a1.88 1.88 0 0 0-.18.13 6.92 6.92 0 0 1 3.79 3.87 8 8 0 0 1-6.57 11.12 15.19 15.19 0 0 1-1.91.11H39Zm4.5-4c2.62 0 5.22.11 7.81-.07a4.2 4.2 0 0 0 4-4.29 4.21 4.21 0 0 0-3.64-4.46 11.78 11.78 0 0 0-2.17-.1h-6Zm0-13c2.51-.05 5 .1 7.44-.08a4 4 0 0 0 3.9-3.74 3.94 3.94 0 0 0-3.13-4.4 6 6 0 0 0-1.5-.19h-6.15c-.19 0-.39-.07-.57.07ZM141 4.28l-2.84 2.84a8.6 8.6 0 0 0-6-2.22 5.8 5.8 0 0 0-4.52 1.43 4 4 0 0 0 1.6 6.83 33 33 0 0 0 4.81.82 11.79 11.79 0 0 1 4.5 1.39c2.72 1.69 3.64 4.29 3.51 7.34a7.48 7.48 0 0 1-4.9 7.05 15.35 15.35 0 0 1-13.77-.86 10.17 10.17 0 0 1-2.27-1.84l3-3a9.18 9.18 0 0 0 5.39 2.64 10.66 10.66 0 0 0 5.49-.4 4.05 4.05 0 0 0 2.66-4.3 3.65 3.65 0 0 0-3.09-3.67c-1.66-.43-3.39-.5-5.08-.8a9.71 9.71 0 0 1-5.27-2.36 6.34 6.34 0 0 1-1.83-3.17c-1.16-5.1 1.19-9.81 7.09-10.79a13.91 13.91 0 0 1 8.87 1.16A12.39 12.39 0 0 1 141 4.28ZM103 28.55v10.51h-4.23V9.73h4.11v2.1a6.6 6.6 0 0 1 3.26-2.12 9 9 0 0 1 5.19.22 6.16 6.16 0 0 1 4 4.85 24.11 24.11 0 0 1 0 10.8c-1 4.4-4.37 5.62-8.13 5.26a6.19 6.19 0 0 1-4.2-2.29Zm8.69-8.39c0-.85-.07-1.71-.16-2.56a8.24 8.24 0 0 0-.31-1.48 4.05 4.05 0 0 0-7.74-.09 15.52 15.52 0 0 0 0 8.4c.54 1.88 1.86 2.69 4 2.67a3.56 3.56 0 0 0 3.71-2.75 14.92 14.92 0 0 0 .47-4.19ZM186.39 21.37c.13 2.28.57 4.36 2.81 5.3a6.48 6.48 0 0 0 7.63-1.59l2.7 2.53a9.7 9.7 0 0 1-4.53 2.88 12.48 12.48 0 0 1-6.27.08 7.51 7.51 0 0 1-5.7-5.16 15.33 15.33 0 0 1 .27-11 8.17 8.17 0 0 1 8.31-5c4.9.27 7.66 3.64 8.25 8.07a37.42 37.42 0 0 1 .12 3.87Zm9.41-2.94c-.07-2.11-.66-3.89-2.6-4.9a4.32 4.32 0 0 0-4.84.39 5.23 5.23 0 0 0-2 4.52ZM75.09 9.72h4.19c.11.51.15 19.76 0 20.94h-4.05v-1.92c-.29 0-.39.22-.54.35-3.09 2.65-8.09 2.39-10.62-.55a6.82 6.82 0 0 1-1.65-4.49V9.73h4.15c.13.2.06.45.06.68V22.3a6.85 6.85 0 0 0 .22 1.83 3.79 3.79 0 0 0 4.12 3 3.94 3.94 0 0 0 4-3.09 6 6 0 0 0 .15-1.44V10.51ZM157 9.72h4.23v20.91h-4.1v-2c-.5.38-.9.72-1.33 1-3.43 2.28-8.35 1.38-10.42-1.91a8.68 8.68 0 0 1-1.1-4.72V9.66h4.17a1.33 1.33 0 0 1 .07.72v11.89a6.62 6.62 0 0 0 .22 1.89 3.86 3.86 0 0 0 4.26 2.93 3.94 3.94 0 0 0 3.86-3.25 6.62 6.62 0 0 0 .14-1.38V9.72ZM173.14 12.93h-2.38V9.71h2.36v-6h4.23v6h4v3.26h-3.92a1.2 1.2 0 0 0-.09.7v10.57a5.5 5.5 0 0 0 .1 1.18 1.8 1.8 0 0 0 1.81 1.58c.69.06 1.4 0 2.14 0v3.6a27.88 27.88 0 0 1-3.5 0 5.29 5.29 0 0 1-4.74-5.63v-11.1ZM87.08 30.62h-4.19V9.72H87v2.15a7.64 7.64 0 0 1 6.76-2.39 6.17 6.17 0 0 1 3.76 1.88l-3.2 3.2a4.22 4.22 0 0 0-2.06-1.25 4.16 4.16 0 0 0-5.12 4.09c-.09 2.46 0 4.93 0 7.4-.06 1.93-.06 3.84-.06 5.82ZM168.95 30.62h-4.15V9.72h4.15ZM164.66 5.53V1.14h4.43v4.4Z" transform="translate(0 -.94)"/><path class="cls-3" d="M16 26.64h-2.34v-3.26c0-.26.21-.43.36-.62l2.7-3.33h-3V14.8H8l3.24-4c.62-.77 1.22-1.56 1.88-2.3a1.93 1.93 0 0 0 .56-1.55v-1.7H16v3.27c0 .24-.19.39-.32.56l-2.72 3.36h3v4.64h5.59a12 12 0 0 1-1.32 1.74 278.93 278.93 0 0 1-3.75 4.61A1.92 1.92 0 0 0 16 24.9v1.74ZM43.51 26.61v-8.92h6a11.78 11.78 0 0 1 2.17.1 4.21 4.21 0 0 1 3.64 4.46 4.2 4.2 0 0 1-4 4.29c-2.59.19-5.19.03-7.81.07ZM43.5 13.66V5.34c.17-.15.38-.07.57-.07h6.13a6 6 0 0 1 1.5.19 3.94 3.94 0 0 1 3.13 4.4 4 4 0 0 1-3.9 3.74c-2.46.16-4.93.01-7.43.06Z" transform="translate(0 -.94)"/></svg>