<svg version="1.1" id="Capa_1" xmlns="http://www.w3.org/2000/svg" x="0" y="0" viewBox="0 0 50 50" style="enable-background:new 0 0 50 50" xml:space="preserve"><style>.st0{fill-rule:evenodd;clip-rule:evenodd;fill:#5e98cf}.st1{fill:#044e87}.st3{fill:#fff}</style><path class="st0" d="M25 17.6c-4.1 0-7.4 3.3-7.4 7.4 0 1.3.4 2.6 1 3.6l12.7-7.3c-1.2-2.2-3.6-3.7-6.3-3.7z"/><path class="st0" d="M10.2 25c0-8.2 6.6-14.8 14.8-14.8 5.5 0 10.2 3 12.8 7.4l8.9-5.1c-.4-.6-.9-1.2-1.6-1.6C39.2 7.5 33.2 4.1 27.3.7c-1.6-.9-3.1-.9-4.7 0C20.2 2.1 8.4 8.9 4.9 10.9c-1.4.8-2.2 2.1-2.2 3.8v20.6c0 .8.2 1.6.5 2.2l8.9-5.1c-1.2-2.2-1.9-4.7-1.9-7.4z"/><path class="st1" d="M18.6 28.6c1.3 2.2 3.7 3.7 6.4 3.7 2.8 0 5.1-1.5 6.4-3.7l-6.3-3.7-6.5 3.7zM25 39.8c-5.5 0-10.3-3-12.8-7.4l-8.9 5.1c.4.6.9 1.2 1.6 1.6 3.5 2 15.3 8.8 17.7 10.2 1.6.9 3.1 1 4.7 0 5.9-3.4 11.8-6.8 17.8-10.2.7-.4 1.3-1 1.6-1.6l-8.9-5.2c-2.5 4.5-7.3 7.5-12.8 7.5z"/><path d="M47.2 14.7c0-.8-.2-1.6-.5-2.2L25.1 24.9l21.7 12.5c.3-.6.5-1.4.5-2.2-.1.1-.1-13.6-.1-20.5zm-7.3 11.1h-1.7v1.7h-1.7v-1.7h-1.7v-1.7h1.7v-1.7h1.7v1.7h1.7v1.7zm6.2 0h-1.7v1.7h-1.7v-1.7H41v-1.7h1.7v-1.7h1.7v1.7h1.7v1.7z" style="fill:#0062a2"/><path class="st3" d="M44.4 22.4h-1.7v1.7H41v1.7h1.7v1.7h1.7v-1.7h1.7v-1.7h-1.7zM38.2 22.4h-1.7v1.7h-1.7v1.7h1.7v1.7h1.7v-1.7h1.7v-1.7h-1.7z"/><path class="st3" d="M31.4 28.6c-1.3 2.2-3.7 3.7-6.4 3.7s-5.1-1.5-6.4-3.7c-.6-1.1-1-2.3-1-3.6 0-4.1 3.3-7.4 7.4-7.4 2.7 0 5.1 1.5 6.4 3.7l6.4-3.7c-2.6-4.4-7.3-7.4-12.8-7.4-8.2 0-14.8 6.6-14.8 14.8 0 2.7.7 5.2 2 7.4 2.5 4.4 7.3 7.4 12.8 7.4 5.5 0 10.3-3 12.8-7.4l-6.4-3.8z"/></svg>