<svg xmlns="http://www.w3.org/2000/svg" viewBox="0 0 408.32 459.48"><defs><linearGradient id="linear-gradient" x1="324.21" y1="-82.02" x2="453.5" y2="83.46" gradientTransform="matrix(.9 0 0 .9 10.3 244.09)" gradientUnits="userSpaceOnUse"><stop offset="0" stop-color="#3b009b"/><stop offset="1" stop-color="#390086"/></linearGradient><linearGradient id="linear-gradient-2" x1="120.4" y1="237.8" x2="261.84" y2="418.85" gradientUnits="userSpaceOnUse"><stop offset="0" stop-color="#340084"/><stop offset="1" stop-color="#290064"/></linearGradient><linearGradient id="linear-gradient-3" x1="-5993.67" y1="-7703.14" x2="363.66" y2="433.78" gradientUnits="userSpaceOnUse"><stop offset="0" stop-color="#a47ede"/><stop offset="1" stop-color="#9866d3"/></linearGradient><style>.cls-4{fill:#fff}</style></defs><g id="Layer_2" data-name="Layer 2"><g id="Layer_1-2" data-name="Layer 1"><g id="Layer_2-2" data-name="Layer 2"><g id="Layer_1-2-2" data-name="Layer 1-2"><path d="M403.19 344.8a36.82 36.82 0 0 0 5.13-17.6V132.28a37 37 0 0 0-5.32-17.46L204.37 229.75Z" style="fill:url(#linear-gradient)"/><path d="m204.37 229.75-4.61 2.67L5.32 344.93a38.67 38.67 0 0 0 12.36 12.88l168.8 97.45c9.72 5.62 25.64 5.62 35.36 0l168.8-97.45c.32-.21.62-.44.94-.66a40.16 40.16 0 0 0 11.61-12.36Z" style="fill:url(#linear-gradient-2)"/><path d="M400.93 111.71a41.16 41.16 0 0 0-10.29-10.05L221.84 4.21c-9.72-5.62-25.64-5.62-35.36 0l-168.8 97.45C8 107.27 0 121.06 0 132.28v194.91a38.67 38.67 0 0 0 5.32 17.74l194.44-112.51 4.61-2.67L403 114.82q-1-1.59-2.07-3.11Z" style="fill:url(#linear-gradient-3)"/><path id="c" class="cls-4" d="M68.06 229.74c-.8-132.9 177.21-191.58 254-68.1l-58.9 34.09c-35.56-58.81-123.85-37.78-127 34 1 66.17 87.73 96.9 127 34l58.9 34.08c-67.68 117.46-250.59 75.19-254-68.07Z"/><g id="sharp"><path class="cls-4" d="M292.57 191.16h11.22l-7.67 74.03h-11.43l7.88-74.03zM316.6 191.16h11.21l-7.66 74.03h-11.43l7.88-74.03z"/><path class="cls-4" d="M280 208.73h56.09v10.83H280zM276.86 235.12h56.09v10.83h-56.09z"/></g></g></g></g></g></svg>