<svg version="1.1" id="design" xmlns="http://www.w3.org/2000/svg" x="0" y="0" viewBox="0 0 258.2 170" style="enable-background:new 0 0 258.2 170" xml:space="preserve"><style>.st2{fill:#373535}.st4{fill:#fff}.st5{fill:#1287b1}.st6{fill:#373535;fill-opacity:.35}</style><path class="st2" d="M15.2 14.1c2.2 0 4.2.5 5.3 1.5.2 1.6-1.3 4.2-2.2 4.2-1.1-.4-2.1-.6-3.4-.6C9.7 19.2 7 24.6 7 30c0 3.3 1.1 5.3 3.8 5.3 2.8 0 5.6-1.9 7.3-3.3.4.3.9 1.2.9 2.2 0 1.1-.3 2.2-1.4 3.3-1.8 1.8-4.9 3.4-9.5 3.4C3 40.9-.7 38-.7 31.1c.3-8.9 6.2-17 15.9-17zM32.2 35.1c2.8 0 8-4.9 9.4-14.4.1-.6.1-.7.2-1.3-.6-.2-1.5-.4-2.3-.4-2.1 0-4.3.6-6.2 3.3-2 2.8-2.9 6.3-2.9 9.2-.2 2.2.6 3.6 1.8 3.6zm-9.3-2.7c0-3.4 1.1-9.3 5.4-13.6 3.7-3.8 8.2-4.7 12.3-4.7 2.7 0 6.3.9 8.7 1.3-.6 2.5-1.9 12.1-2.6 17.6-.3 2.3-.4 5.6-.3 6.9-1.9.8-5.4 1-6.4 1-.5 0-.6-2.3-.5-4.6.1-.7.2-1.8.2-2.3-2.2 3.7-6.7 6.9-11.3 6.9-3.4 0-5.5-2.8-5.5-8.5zM63.6 14.1c2.3 0 4.6.9 5.6 1.9-.1 1.6-1.3 4.3-3.3 3.5-.9-.3-1.7-.5-2.9-.5-1.5 0-2.9.7-2.9 2.1 0 1.1.8 1.9 4.6 4.6 2.7 2 3.8 3.8 3.8 6.3 0 4.2-3.9 8.8-10.9 8.8-2.8 0-5.3-1.1-6-2.2-1-1.7-.2-5.1.9-4.5 1.5.7 3.9 1.5 5.9 1.5 1.9 0 3.1-.9 3.1-2 0-1-.9-1.8-4.3-4.3-2.9-2.2-3.8-4.2-3.8-6.4 0-4.9 4.2-8.8 10.2-8.8zM83.5 14.1c2.3 0 4.6.9 5.6 1.9-.1 1.6-1.3 4.3-3.3 3.5-.9-.3-1.7-.5-2.9-.5-1.5 0-2.9.7-2.9 2.1 0 1.1.8 1.9 4.6 4.6 2.7 2 3.8 3.8 3.8 6.3 0 4.2-3.9 8.8-10.9 8.8-2.8 0-5.2-1.1-6-2.2-1-1.7-.2-5.1.9-4.5 1.5.7 3.9 1.5 5.9 1.5 1.9 0 3.1-.9 3.1-2 0-1-.9-1.8-4.3-4.3-2.9-2.2-3.8-4.2-3.8-6.4 0-4.9 4.1-8.8 10.2-8.8zM101.5 35.1c2.8 0 8-4.9 9.4-14.4.1-.6.1-.7.2-1.3-.6-.2-1.5-.4-2.3-.4-2.1 0-4.3.6-6.2 3.3-2 2.8-2.9 6.3-2.9 9.2 0 2.2.6 3.6 1.8 3.6zm-9.3-2.7c0-3.4 1.1-9.3 5.4-13.6 3.7-3.8 8.2-4.7 12.3-4.7 2.7 0 6.3.9 8.7 1.3-.6 2.5-1.9 12.1-2.6 17.6-.3 2.3-.4 5.6-.3 6.9-1.9.8-5.4 1-6.4 1-.5 0-.6-2.3-.5-4.6.1-.7.2-1.8.2-2.3-2.2 3.7-6.7 6.9-11.3 6.9-3.3 0-5.5-2.8-5.5-8.5zM131.6 21.6c2.6-4.2 6-7.5 10.9-7.5 4.1 0 5.4 3.8 4.6 9.2-.4 2.5-1.1 6.1-1.5 9.5-.4 2.8-.7 5.3-.6 7.1-1.5.7-5.8 1-6.9 1-.4 0-.5-3.1.1-6.4.5-2.7 1.4-7.8 1.9-10.7.3-1.7.2-3.7-1.4-3.7-2.1 0-7.2 3.4-9.7 17.3-.2 1.1-.6 1.8-1.3 2.2-.9.5-2.7 1-6.4 1 .7-3.5 1.8-10.7 2.6-16 .7-4.8 1-8 .9-9.2 1-.3 6.1-1.4 6.7-1.4.6 0 .7 1.8.2 6-.1.4-.1 1-.2 1.4h.1v.2zM160.8 35c2.5 0 7.7-4.7 9.1-13.1.1-.5.2-1.3.3-1.8-.7-.7-1.7-1.1-3.3-1.1-5.8 0-8.4 7-8.4 12 .1 2.5 1 4 2.3 4zm-3.7 5.9c-3.7 0-5.9-3.3-5.9-8.9 0-9.3 5.8-17.8 15.6-17.8 1.7 0 3.3.5 4.2 1 .5-2.6 1.7-10.8 1.8-13.2 1.6-.3 5-.8 6.7-.8.6 0 .8.6.6 2.1-1.4 8.7-3.8 25.2-4.3 28.8-.3 3.1-.4 6.1-.3 7.9-1.8.8-5.5 1-6.6 1-.4 0-.6-2.6-.5-5 .1-.7.2-1.8.2-2-3.1 4.6-7.1 6.9-11.5 6.9zM190.8 22.4c3-6.8 6.7-8.3 9.1-8.3.7 0 1.9.5 2.4 1 .2 1.9-1.3 5.6-2.6 7.2-.7-.3-1.5-.7-2.5-.7-1.9 0-5.8 3-8.3 16.1-.2 1.1-.5 1.5-1.1 1.8-1 .6-4.8 1-6.7 1.1.9-4.7 2.3-14.3 2.9-20 .2-1.4.2-4.1.1-5.1 1.1-.5 5.4-1.5 6.3-1.5.5 0 .9 3.1.1 8.3h.2v.1h.1zM211 35.1c2.8 0 8-4.9 9.4-14.4.1-.6.1-.7.2-1.3-.6-.2-1.5-.4-2.3-.4-2.1 0-4.3.6-6.2 3.3-2 2.8-2.9 6.3-2.9 9.2 0 2.2.6 3.6 1.8 3.6zm-9.2-2.7c0-3.4 1.1-9.3 5.4-13.6 3.7-3.8 8.2-4.7 12.3-4.7 2.7 0 6.3.9 8.7 1.3-.6 2.5-1.9 12.1-2.6 17.6-.3 2.3-.4 5.6-.3 6.9-1.9.8-5.4 1-6.4 1-.5 0-.6-2.3-.5-4.6.1-.7.2-1.8.2-2.3-2.2 3.7-6.7 6.9-11.3 6.9-3.3 0-5.5-2.8-5.5-8.5z" transform="translate(15 129)"/><path d="M206.2 45.6c1.9 22.1-32.9 43.1-77.7 47-44.8 3.8-82.6-11-84.5-33.1s32.9-43.1 77.7-47c44.7-3.7 82.6 11 84.5 33.1" style="fill:#bbe6fb"/><path class="st4" d="M122.8 15.1c-17.1-.3-37.1 6.6-52 12.9-1.5 4.4-2.4 9.2-2.4 14.1 0 26.2 23.7 47.5 52.9 47.5s53-21.2 53-47.5c0-8.3-2.4-16.1-6.6-22.9-11.8-1.8-28.2-3.8-44.9-4.1"/><path class="st4" d="M121.4 15.1c-9.5-.6-25.8 4.3-39.4 9.3-2.1 4.8-3.2 10.2-3.2 15.8 0 23 20.9 41.6 42.8 41.6s41.2-18.6 42.8-41.6c.5-7.5-2-14.5-5.6-20.6-14-2.4-28.9-3.9-37.4-4.5"/><path class="st2" d="M97.1 37.3c1.2-2.6 2.9-3.8 4.6-5.9-.2-.5-.6-2.2-.6-2.7 0-2.6 2.1-4.6 4.6-4.6.6 0 1.2.1 1.7.3 7.8-5.9 17.9-8.5 28.2-6.1.9.2 1.8.5 2.7.7-10.1-1.4-21.6 2.2-29.3 8.5.2.6.9 2.1.9 2.8 0 2.6-1.7 3.2-4.2 3.2-.6 0-1.1-.1-1.7-.3-1.7 2.3-3.9 6.9-4.9 9.7 4.3 3.8 8.2 5.2 13.2 7.2 0-.2.2-.5.2-.7 0-7.8 6.9-14.1 14.6-14.1 7 0 12.8 5 13.9 11.7 3.5-2.2 6.9-3.9 9.4-7.2-.6-.7-1.2-2.8-1.2-3.8 0-2.3 1.9-4.2 4.2-4.2.3 0 .6 0 1 .1 1.3-2.7 2.3-5.5 2.9-8.5-12.2-9.1-35.8-7.8-35.8-7.8s-18.7-1-31.4 5.2c1 5.7 3.4 11.5 7 16.5"/><path class="st2" d="M155.4 33.8c.9.8 1.3 1.4 1.7 2.1 1.1 2-1.1 3.9-3.5 3.9-.2 0-.5 0-.7-.1-2.6 4.1-7.3 9.4-11.4 12.1 6.3 1 12.3 3.5 16.9 7.5 3.4-6.1 6-15.1 6-22.7 0-5.7-2.5-10-6.3-13.1-.1 3.1-1.8 7.4-2.7 10.3M104.2 72.9c2.1-5.8 7.3-10.3 12.2-14.2-.7-1-1.8-3.4-2.2-4.5-5.9-1.8-11.2-5.2-15.3-9.7 0 .1-.1.3-.1.4-.8 3.4-.9 7-.5 10.3 2.8.5 5 3 5 6 0 1.8-1.6 4.3-2.8 5.5 1.2 2.6 2.1 4 3.7 6.2M103.8 77.7c-2.5-2.5-4.2-7.5-5.8-10.6-.3 0-.6.1-.9.1-3.4 0-7-2.8-6.1-6.1.4-1.8 1.7-3 3.7-4-.5-3.8-.6-9.2.3-13.1.2-1.1.8-1.6 1.1-2.7-3.7-5.4-6.1-12.7-6.1-19.9v-.8c-6.3 3.2-11.1 8.2-11.1 16 0 17.4 10.1 34.6 25 41.2v-.1M140.6 53.6c-1.9 5.4-7.2 9.5-13.3 9.5-3.3 0-6.3-1.1-8.7-3-4.9 3.8-9.5 10.6-11.7 16.5 1 1.1 1.7 2 2.9 3 3.4.9 8.3 0 12 0 15 0 28.4-6.7 36.1-18.4-5.2-3.7-11.3-7.1-17.3-7.6"/><path class="st5" d="M96.7 39.3c1.2-2.6 2.6-4.9 4.3-7.2-.2-.5-.3-1.1-.3-1.6 0-2.6 2.1-4.6 4.6-4.6.6 0 1.2.1 1.7.3 7.8-5.9 17.9-8.5 28.2-6.1.9.2 1.8.5 2.7.7-10.1-1.4-20.6 1.7-28.3 8 .2.6.4 1.2.4 1.8 0 2.6-2.1 4.6-4.6 4.6-.6 0-1.1-.1-1.7-.3-1.7 2.3-3.2 4.9-4.2 7.8 3.7 3.9 8.3 7.2 13.3 9V51c0-7.8 6.3-14.1 14.1-14.1 7 0 12.8 5 13.9 11.7 3.5-2.2 6.6-5 9.2-8.4-.6-.7-1-1.6-1-2.6 0-2.3 1.9-4.2 4.2-4.2.3 0 .6 0 1 .1 1.3-2.7 2.3-5.5 2.9-8.5-12.2-9.1-35.8-7.8-35.8-7.8s-18.7-1-31.4 5.2c.8 6.1 3.2 12 6.8 16.9"/><path class="st5" d="M156 34.5c.9.8 1.4 1.9 1.4 3.1 0 2.3-1.9 4.2-4.2 4.2-.2 0-.5 0-.7-.1-2.6 4.1-6.1 7.7-10.3 10.3 6 .9 11.8 3.5 16.5 7.5 3.4-6.1 5.4-13.3 5.4-20.9 0-5.7-2.5-10-6.3-13.1-.2 3.1-.8 6.1-1.8 9M104.8 74.2c2.1-5.8 5.7-11 10.7-14.9-.7-1-1.3-2-1.7-3.2-5.9-1.8-11.2-5.2-15.3-9.7 0 .1-.1.3-.1.4-.8 3.4-.9 7-.5 10.3 2.8.5 5 3 5 6 0 1.8-.8 3.4-2 4.5 1 2.3 2.4 4.6 3.9 6.6"/><path class="st5" d="M103.8 77.6c-2.5-2.5-4.6-5.3-6.2-8.5-.3 0-.6.1-.9.1-3.4 0-6.1-2.7-6.1-6.1 0-2.4 1.4-4.5 3.4-5.5-.5-3.8-.3-7.7.6-11.6.2-1.1.6-2.2.9-3.3-3.7-5.4-5.9-12.1-5.9-19.2v-.8c-6.3 3.2-11.1 8.2-11.1 16 0 17.4 10.4 32.4 25.3 39.1v-.2M140.2 55.6c-1.9 5.4-7.2 9.5-13.3 9.5-3.3 0-6.3-1.1-8.7-3-4.9 3.8-8.7 9.1-11 15 1 1.1 2.1 2.1 3.2 3.1 3.4.9 7.1 1.4 10.8 1.4 15 0 28.3-7.8 36-19.5-5-3.7-11-6-17-6.5"/><path class="st4" d="m140.7 52 13-3.1-13.1-.7 10.7-8.1-12.1 4.3 8.2-11.4-11.4 7.6 3.9-13.3-7.8 11-.2-13.9-5.1 12.4-4.2-12.5.2 14.7-7.4-13.2 4 14-12-8.7 9.4 11.8-14.9-5.4 11.7 8.7-15 .5 15.4 3.9-15.4 3.3 15.2 1.1-12.8 8.2 13.2-4.7L105 70l11.6-9.4-4.1 15.5 9-12.7-1.2 14.9 5-13.6 4.3 14.2 1-14.3 6.4 12.2-3.8-13.8 11.7 9.1-7.6-11.6 12.9 5-9.9-9.7 13.2 1-12.8-4.8z"/><path class="st6" d="M1.9 76.9c40.4-40.4 72.7-52.9 102-58.5 3.8-.7 4.6-9.3 4.6-9.3s.5 6.2 3.2 7.1c2.7.8 6.2-9.8 6.2-9.8s-3.2 9.5 0 10.1c3.2.5 9.3-9.3 9.3-9.3s-2.4 8.4-.8 9c1.6.5 9.8-12.2 9.8-12.2s-4.8 8.4-.3 9.3c4.6.8 11.4-5.7 11.4-5.7s-5.2 5.9-2.9 6.9C154.5 18 162.5 5 162.5 5s-1.9 5.7-6.8 12c10.6 2.7 18.4-13.2 18.4-13.2l-7.9 15.9c4 2 20.3-16.7 20.3-16.7s-8.4 14.6-13.3 17.6c2.7 2.2 12.5-6.6 12.5-6.6s-7.9 9.8-4.8 10.3C185.3 27.7 201.3 6 201.3 6s-6.2 12.8-15.4 22.8C193.6 32.7 212.7 8 212.7 8s-.5 7.9-14.4 20.4c10.3-1.3 23.6-20.9 23.6-20.9s-4.8 14.6-16.5 25c10.1-1 26.3-26 26.3-26s-6.2 17.3-18.9 27.4C226.9 37 247.3 16 247.3 16s-8 14.9-18.4 21.1c11.7 4.4 27.7-14 27.7-14s-16 24.7-41.5 23.6c-8.4-.4-33.7-25.4-87.9-23.4-71.9 2.6-87 33-125.3 53.6"/><path class="st2" d="M3.5 73.9c40.4-40.4 72.7-52.9 102-58.5 3.8-.7 4.6-9.3 4.6-9.3s.5 6.2 3.2 7.1c2.7.8 6.2-9.8 6.2-9.8s-3.2 9.5 0 10.1c3.2.5 9.3-9.3 9.3-9.3s-2.4 8.4-.8 9c1.6.5 9.8-12.2 9.8-12.2s-4.8 8.4-.3 9.3c4.6.8 11.4-5.7 11.4-5.7s-5.2 5.9-2.9 6.9C156.1 15 164.1 2 164.1 2s-1.9 5.7-6.8 12C167.9 16.7 175.7.8 175.7.8L168 16.5C172 18.7 188.3 0 188.3 0S180 14.6 175 17.6c2.7 1.9 12.5-6.8 12.5-6.8s-7.9 9.8-4.8 10.3C187 24.7 203.1 3 203.1 3s-6.3 12.8-15.5 22.8c7.7 3.8 26.9-20.9 26.9-20.9s-.5 7.9-14.4 20.4c10.3-1.3 23.6-20.9 23.6-20.9s-4.8 14.6-16.5 25c10.1-1 26.3-26 26.3-26s-6.2 17.3-18.9 27.4c14.1 3.1 34.5-17.9 34.5-17.9s-8 14.9-18.4 21.1c11.7 4.4 27.7-14 27.7-14s-16 24.7-41.5 23.6c-8.4-.4-33.7-25.4-87.9-23.4-72 2.7-87.2 33-125.5 53.7"/><path class="st6" d="M.9 81.3c21.4 10.7 40.9-1.6 65.5 5.3 18.7 5.2 41.5 11.8 72.5 7.3 30.9-4.4 57.3-17.9 70-41.9 3.9-10.7 20 2.4 20 2.4s-11.7-4.8-11.4-2.6c.3 2.3 17.5 10.3 17.5 10.3s-15.6-4.8-14.6-1.2c.9 3.6 19.5 18.3 19.5 18.3s-21.3-15.9-23-13.7c-1.8 2.2 9 11 9 11s-17.7-11-24-7.8C197.4 71 220.3 86 220.3 86s-14.9-11.4-18.4-8.4c-3.5 3 16.8 27.4 16.8 27.4s-23.2-25-25.5-23.8c-2.3 1.2 6.3 13.2 6.3 13.2S188.3 82 185.2 84.1c-3.1 2.2 16.3 34.6 16.3 34.6s-21.1-33.2-29.8-27.6c13.6 29.9 8.6 34.2 8.6 34.2s-1.7-30.5-18.7-29.7c-8.6.4 4 22.8 4 22.8S154 97.8 146.2 98.3c14.2 27 9.2 37.9 9.2 37.9s2.3-23.1-16.9-35.9c7.4 6.6-4.6 35.9-4.6 35.9s10.5-43.2-7.8-35c-2.9 1.3-.2 21.6-.2 21.6s-3.6-23.2-9.2-22c-3.2.7-20.4 32.1-20.4 32.1s14-34 9.8-32.5c-3.1 1-9 15-9 15s2.8-13.8 0-14.6c-2.8-.8-18.7 14.6-18.7 14.6s11.8-13.8 9.8-16.7c-3.1-4.3-6.7-4.5-11-2.8-6.2 2.4-14.6 13.8-14.6 13.8s8.4-11.6 7-15.8c-2.3-7-26.4 13.4-26.4 13.4s14.2-13.4 11-16.3c-3.2-2.8-21-2-26.4-2-16.3.1-22-3.7-26.9-7.7"/><path class="st2" d="M0 78.9c21.4 10.7 40.9-1.6 65.5 5.3C84.2 89.5 107 96 138 91.5c30.9-4.4 57.3-17.9 70-41.9 3.9-10.7 20 2.4 20 2.4s-11.7-4.8-11.4-2.6c.3 2.3 17.5 10.3 17.5 10.3s-15.6-4.8-14.6-1.2c.9 3.6 19.5 18.3 19.5 18.3s-21-16-22.7-13.8c-1.7 2.2 9 11 9 11s-17.7-11-24-7.8c-4.5 2.3 18.4 17.3 18.4 17.3s-14.9-11.4-18.4-8.4c-3.5 3 16.8 27.4 16.8 27.4s-23.1-25-25.4-23.8C190.4 80 199 92 199 92s-11.5-12.4-14.6-10.3c-3.1 2.2 16.2 34.6 16.2 34.6s-21-33.3-29.7-27.7c13.7 30 8.6 34.3 8.6 34.3s-1.7-30.5-18.7-29.7c-8.6.4 4 22.8 4 22.8s-11.5-20.4-19.2-20c14.2 27 9.2 37.9 9.2 37.9s2.3-23.1-16.9-35.9c7.4 6.6-4.6 35.9-4.6 35.9s10.5-43.2-7.8-35c-2.9 1.3-.2 21.6-.2 21.6s-3.6-23.2-9.2-22c-3.2.7-20.4 32.1-20.4 32.1s14-34 9.8-32.5c-3.1 1-9 15-9 15s2.8-13.8 0-14.6c-2.8-.8-18.7 14.6-18.7 14.6s11.8-13.8 9.8-16.7c-3.1-4.3-6.7-4.5-11-2.8C70.4 96 62 107.4 62 107.4s8.4-11.6 7-15.8c-2.3-7-26.4 13.4-26.4 13.4s14.2-13.4 11-16.3c-3.2-2.8-21-2-26.4-2-16.6 0-22.3-3.9-27.2-7.8"/></svg>