<svg version="1.1" id="design" xmlns="http://www.w3.org/2000/svg" x="0" y="0" viewBox="0 0 159.1 170" style="enable-background:new 0 0 159.1 170" xml:space="preserve"><style>.st2{fill:#435363}.st3{fill:#f38b00}</style><path class="st2" d="M.1 150.8v-.1c0-10.6 8-19.3 19.4-19.3 7 0 11.2 2.3 14.7 5.8l-5.2 6c-2.9-2.6-5.8-4.2-9.5-4.2-6.3 0-10.8 5.2-10.8 11.6v.1c0 6.4 4.4 11.7 10.8 11.7 4.3 0 6.9-1.7 9.8-4.4l5.2 5.3c-3.8 4.1-8.1 6.7-15.3 6.7C8.3 170 .1 161.5.1 150.8m45.2-18.7h8.2v14.8h15.1v-14.8h8.2v37.3h-8.2v-15H53.5v15h-8.2v-37.3zm44.7 0h28.6v7.4H98.3v7.7h17.9v7.4H98.3v8h20.6v7.4H90v-37.9zm40.8 0h28.4v7.5H139v7.9h17.8v7.5H139v14.4h-8.2v-37.3zM80.8 79.5c-13.6 0-24.7-11.1-24.7-24.7s11.1-24.7 24.7-24.7c11.2 0 20.7 7.5 23.7 17.8h9.6c-3.2-15.5-16.9-27.1-33.3-27.1-18.7 0-34 15.2-34 34 0 18.7 15.2 34 34 34 16.4 0 30.1-11.7 33.3-27.1h-9.6c-3 10.2-12.5 17.8-23.7 17.8"/><path class="st2" d="M64.2 71.4c4.3 4.3 10.1 6.9 16.6 6.9v-9.8c-3.6 0-7.1-1.4-9.7-4l-6.9 6.9z"/><path class="st3" d="M57.3 54.8c0 3.4.7 6.6 2 9.5l9-4c-.8-1.7-1.2-3.6-1.2-5.5 0-7.6 6.1-13.7 13.7-13.7v-9.8c-13 0-23.5 10.5-23.5 23.5"/><path class="st2" d="M89.3 32.9 85.8 42c2.9 1.1 5.3 3.2 6.9 5.9h10.7c-2.2-6.9-7.4-12.4-14.1-15"/><path class="st3" d="m85.8 67.6 3.6 9.2c6.7-2.6 11.9-8.2 14-15.1H92.7c-1.6 2.6-4 4.7-6.9 5.9"/><path class="st2" d="M37.3 68c-.2-.5-.3-1-.4-1.6v-.1c-.1-.5-.2-1-.4-1.5-.1-.5-.2-1-.3-1.6 0-.2-.1-.4-.1-.6-.1-.3-.1-.7-.2-1 0-.3-.1-.6-.1-.9-.3-2-.4-4-.4-6H26c0 2.2.1 4.4.4 6.6v.1c.1.6.2 1.2.2 1.8 0 .2.1.3.1.5.1.5.2 1 .3 1.4 0 .3.1.5.2.8.1.4.2.8.2 1.1.1.3.2.7.2 1 .1.3.1.6.2.9l.3 1.2c0 .2.1.3.1.5.6 2.1 1.4 4.2 2.3 6.2l8.5-3.7c-.6-1.7-1.2-3.4-1.7-5.1z"/><path class="st3" d="M80.8 100.3c-12.5 0-23.9-5.1-32.2-13.3L42 93.6c9.9 9.9 23.6 16.1 38.7 16.1 27.9 0 51-20.9 54.4-48h-9.4c-3.2 21.8-22.1 38.6-44.9 38.6m0-91c10.2 0 19.6 3.4 27.2 9.1l5.6-7.5C104.4 4 93.1 0 80.8 0 57.6 0 37.7 14.5 29.7 34.9l8.7 3.4c6.6-17 23.1-29 42.4-29"/><path class="st2" d="M125.8 48h9.4c-1-7.9-3.7-15.4-7.9-22.2l-7.9 4.9c3.3 5.3 5.5 11.1 6.4 17.3"/><path class="st3" d="M115.2 48h9.4c-2.5-15.8-13.3-28.8-27.8-34.5l-3.4 8.6c11.1 4.3 19.5 14 21.8 25.9"/><path class="st2" d="M80.8 19.7v-9.3c-18.8 0-34.9 11.7-41.3 28.3l8.6 3.4C53.2 29 65.9 19.7 80.8 19.7"/><path class="st3" d="M45.7 54.8h-9.3C36.4 73.4 48 89.4 64.3 96l3.4-8.6c-12.8-5.2-22-17.9-22-32.6"/><path class="st2" d="M80.8 89.9v9.3c22.1 0 40.5-16.3 43.8-37.5h-9.4c-3.2 16-17.4 28.2-34.4 28.2"/></svg>