<svg version="1.1" id="design" xmlns="http://www.w3.org/2000/svg" x="0" y="0" viewBox="0 0 36.3 51.1" style="enable-background:new 0 0 36.3 51.1" xml:space="preserve"><style>.st0{fill:#e44d26}.st1{fill:#f16529}.st6{fill:#dab92d}.st7{fill:#ffd839}.st8{fill:#53c1de}.st9{fill:#002a41}.st10{fill:#0071b5}.st11{fill:#df4f4f}.st12{fill:#26262c}.st13{fill:#ccc}.st14{fill:#a6120d}.st15{fill:#b3b3b3}.st16{fill:#dd1b16}.st17{fill:#f2f2f2}</style><path d="M18 51.2 3.2 47.1-.1 10h36.3l-3.3 37L18 51.2z" style="fill:#264de4"/><path d="M30 44.7 32.8 13H18.1v35L30 44.7z" style="fill:#2965f1"/><path d="m7.4 26.8.4 4.6H18v-4.6H7.4zm-.8-9.2.4 4.6h11v-4.6H6.6zM18 38.7l-5.1-1.4-.3-3.6H8l.7 7.1 9.3 2.6v-4.7z" style="fill:#ebebeb"/><path d="M8.4 0h5.5v2.3h-3.2v2.3h3.2v2.3H8.4V0zM15 0h5.5v2h-3.2v.4h3.2V7H15V4.9h3.2v-.4H15V0zm6.6 0h5.5v2h-3.2v.4h3.2V7h-5.5V4.9h3.2v-.4h-3.2V0z"/><path d="m28.6 26.8.8-9.2H18v4.6h6.4l-.4 4.6h-6v4.6h5.6l-.5 5.9-5.1 1.4v4.8l9.3-2.6.1-.8 1.1-12 .1-1.3z" style="fill:#fff"/></svg>