<svg xmlns="http://www.w3.org/2000/svg" viewBox="0 0 497.8 500.1"><defs><style>.cls-2{fill:#75459b}</style></defs><g id="Layer_2" data-name="Layer 2"><g id="layer"><path d="m108.5 368.2 27.2-4.7c13.3 14.8 8.1 20.7 19.5 29.1 18.9 14 42.7 7.8 50.7-3.7 9.5-13.5 8.9-26.4 5.9-38.6l30.8-5.3 3.8 32 175.5-32.2-10.4-128.5-6 1.1-18.7-206.1L69.9 44.9Z" style="fill:#fff"/><path class="cls-2" d="M248.5 124.6c2.7-2.6-13.5-6.1-26.1 2.7-9.3 6.4-9.6 20.3-.7 28.1a25 25 0 0 0 2.3 1.8 80.15 80.15 0 0 1 9-3.6 78.79 78.79 0 0 1 14.5-3.4c1.9-2.1 4.1-5.9 3.5-12.7-.8-9.3-7.7-7.9-2.5-12.9m85.3 50.3c-1.5-.9-8.7-.5-13.8.1-9.6 1.2-20 4.6-22.3 6.4-4.1 3.3-2.3 8.9.8 11.3 8.6 6.5 16.1 10.9 24.1 9.8 4.9-.7 9.2-8.5 12.2-15.6 2.1-5 2.1-10.3-1-12M300.9 117c-.6 1.3-1.4 2.1-.1 6.3l.1.2.2.5.5 1.3c2.4 4.9 4.9 9.5 9.3 11.9 1.1-.2 2.3-.3 3.5-.4 4.1-.2 6.6.5 8.3 1.4a20.52 20.52 0 0 0 .1-3.8c-.3-6.2 1.2-16.8-10.5-22.3-4.4-2.1-10.7-1.4-12.7 1.2a3 3 0 0 1 1 .2c3 1 .9 2.1.3 3.5m120.9 85-10.1 2L392.3 0 61.2 39 102 375.2l38.7-5.7c-3.1-4.5-7.9-9.9-16.1-16.9-11.4-9.6-7.4-26-.6-36.3 8.9-17.5 54.8-39.6 52.2-67.5-.9-10.1-2.5-23.3-11.8-32.4a34.49 34.49 0 0 0 .3 7.4 37.66 37.66 0 0 1-5.7-11.7c-1.9-2.6-3.4-3.4-5.4-6.9a26.46 26.46 0 0 0-1.2 8.6s-3.1-7.5-3.6-13.8c-1.8 2.8-2.3 8.2-2.3 8.2s-4-11.8-3.1-18.1c-1.8-5.5-7.3-16.5-5.8-41.4 10.1 7.2 32.3 5.5 41-7.5 2.9-4.3 4.8-16-1.4-39.1-4-14.8-14-36.9-17.9-45.3l-.5.3c2 6.7 6.3 20.9 7.9 27.7 4.9 20.8 6.2 28 3.9 37.6-2 8.3-6.7 13.8-18.6 19.9s-27.8-8.8-28.8-9.6c-11.6-9.4-20.6-24.7-21.6-32.2-1-8.1 4.6-13 7.5-19.7a71.49 71.49 0 0 0-8.6 3.3 106.92 106.92 0 0 1 12.1-10.7 66.45 66.45 0 0 0 7.3-5.5c-4.2-.1-7.7 0-7.7 0a134.51 134.51 0 0 1 14.4-6.7c-5.4-.2-10.5 0-10.5 0s15.8-7.2 28.2-12.4c8.6-3.6 16.9-2.5 21.6 4.4 6.2 9 12.6 14 26.4 17 8.4-3.8 11-5.7 21.6-8.7 9.3-10.4 16.6-11.8 16.6-11.8a17.54 17.54 0 0 0-4.6 8.7c5.3-4.2 11.1-7.8 11.1-7.8a40.9 40.9 0 0 0-4.3 7.3l.5.7a103.93 103.93 0 0 1 13.4-6.7s-2.1 2.7-4.5 6.1c4.6 0 14.1.2 17.7.6 21.6.5 26.1-23.4 34.4-26.4 10.4-3.8 15-6 32.7 11.6 15.2 15.2 27 42.3 21.2 48.3-4.9 5-14.7-2-25.5-15.6a59.18 59.18 0 0 1-12-26.7 26.13 26.13 0 0 0-8.3-14.5s3.8 8.7 3.8 16.4c0 4.2.5 19.9 7.1 28.7-.7 1.3-1 6.4-1.7 7.3-7.7-9.5-24.3-16.2-27-18.2 9.1 7.6 30.1 25.1 38.2 41.8 7.6 15.8 3.1 30.3 7 34.1 1.1 1.1 16.4 20.4 19.3 30.2 5.1 17 .3 34.8-6.4 45.8l-18.8 3a30.26 30.26 0 0 1-7.1-2.6c1.4-2.4 4.1-8.5 4.1-9.8l-1.1-1.9c-5.8 8.4-15.6 16.6-23.8 21.3-10.6 6.1-22.9 5.2-30.9 2.7-22.7-7.1-44.1-22.7-49.2-26.7 0 0-.2 3.3.8 4 5.7 6.5 18.8 18.4 31.5 26.6l-27 3 12.8 100.9c-5.6.8-6.5 1.2-12.7 2.1-5.5-19.6-15.9-32.4-27.3-39.8-10.1-6.6-23.9-8-37.2-5.4l-.8 1a47.18 47.18 0 0 1 31.3 7.6c11 7.1 19.8 25.3 23.1 36.3 4.2 14 7.1 29-4.2 44.9-8 11.3-31.3 17.5-50.2 4 5 8.2 11.8 15 21 16.2 13.6 1.9 26.5-.5 35.4-9.8 7.6-7.9 11.6-24.5 10.5-41.9l12-1.8 4.3 31.3 198.8-24.3Zm-190.3 46.3 25-3.5a61.76 61.76 0 0 0 11.7 3.8c7.6 2 16.3 3.9 29.3-2.7 3-1.5 9.3-7.3 11.8-10.7l102.5-18.9 10.4 128.5-175.5 32.1ZM376.9 291l-33.6-22.5-28 47.5-32.6-9.7-28.7 44.5 1.5 14 155.9-29.2-9-99ZM484 469.1v17.6a35.93 35.93 0 0 1-8.5 1.3c-16.9 0-25.3-9-25.3-27.1 0-16.7 8.9-25 26.8-25a51.21 51.21 0 0 1 20.8 4.2v-12.6a59.87 59.87 0 0 0-21.9-3.7q-40.05 0-40.1 37.1 0 39.15 39.4 39.2c9 0 16.6-1.3 22.6-4v-39.4h-22.3l-4.7 12.4Zm-94.4 18.8c15 0 22.5-8.7 22.5-26.2 0-17.2-7.5-25.9-22.5-25.9-15.4 0-23.1 8.6-23.1 25.9.1 17.5 7.7 26.2 23.1 26.2M352.2 462q0-38.25 37.4-38.3 36.75 0 36.8 38.3 0 38.1-36.8 38.1c-23.8-.1-36.3-12.7-37.4-38.1m-62.7 25.4h16.4c15.4 0 23.2-9.2 23.2-27.6 0-15.7-7.7-23.5-23.2-23.5h-16.4Zm18.5 12.1h-32.3v-75.2H308q34.95 0 34.9 35.6 0 39.6-34.9 39.6m-106 0h-14.2l31.6-75.2h14.8l32.3 75.2h-14.8l-9.4-20.5h-23.8l4.7-12.1h15.5l-12.2-28.3Zm-63.6-75.2h56.5v12.1h-21.3v63.1h-13.8v-63.1h-21.4Zm-56.8 75.2H67.4L99 424.3h14.8l32.3 75.2h-14.7L122 479H98.1l4.7-12.1h15.5l-12.1-28.3Zm-67.8-12.1h16.4c15.5 0 23.2-9.2 23.2-27.6 0-15.7-7.7-23.5-23.2-23.5H13.8Zm18.5 12.1H0v-75.2h32.3q35 0 34.9 35.6c0 26.4-11.7 39.6-34.9 39.6"/></g></g></svg>