<svg version="1.1" id="Layer_1" xmlns="http://www.w3.org/2000/svg" x="0" y="0" viewBox="0 0 791 250" style="enable-background:new 0 0 791 250" xml:space="preserve"><style>.st0{fill:#2d2d2d}</style><switch><g><path class="st0" d="M207.2 122.5c0 41.1-11.7 72.7-35.1 94.8-23.4 22.1-57.2 33-101.4 32.8H0V0h78.4c40.8 0 72.4 10.8 94.8 32.3 22.4 21.5 33.7 51.6 34 90.2zm-55 1.4c0-53.4-23.7-80.2-71.1-80.2H52.9V206h22.7c51.1 0 76.7-27.4 76.6-82.1zM259 249.7V0h53v249.7h-53zM427.8 154v95.7h-53V0h72.9c34 0 59.1 6.2 75.4 18.5 16.2 12.3 24.4 31.1 24.4 56.3.2 14-4 27.8-12.1 39.2-8.7 12-20.6 21.3-34.3 26.9 37.6 56.1 62 92.4 73.5 108.8h-58.7L456 154h-28.2zm0-43h17.1c12.9.9 25.8-2 37.1-8.4 8.2-6.1 12.8-16.1 12-26.3.9-10-3.8-19.8-12.2-25.3-11.7-5.7-24.8-8.2-37.8-7.3h-16V111zM605.8 0h77.7c35.4 0 61.1 5 77.1 15.1 16 10.1 24 26.1 24 48.1.5 13-3.2 25.7-10.5 36.4-6.6 9.3-16.7 15.5-27.9 17.3v1.7c13.5 2.1 25.7 9.2 34.3 19.8 7.5 11.4 11.2 25 10.5 38.6.9 20.7-8.3 40.6-24.7 53.3-16.5 12.8-38.8 19.2-67.1 19.2h-93.4V0zm52.9 98.9h30.8c10.8.8 21.7-1.5 31.2-6.6 6.7-5.2 10.4-13.4 9.6-21.9.7-8.3-3.4-16.3-10.5-20.6-10.4-4.9-21.8-7-33.2-6.3h-27.8v55.4zm0 42.1v65.1h34.5c11.4.9 22.8-2 32.3-8.3 7.3-6.4 11.2-15.9 10.4-25.7 0-20.7-14.8-31.1-44.4-31.1h-32.8z"/></g></switch></svg>