<svg version="1.1" id="Layer_1" xmlns="http://www.w3.org/2000/svg" x="0" y="0" viewBox="0 0 261.8 250" style="enable-background:new 0 0 261.8 250" xml:space="preserve"><style>.st5{fill:#1969bc}.st13{fill:#0d82ca}.st23{fill:#1e5cb3}</style><switch><g><path d="M192.9 15c0-.4-.1-.8-.4-1-.3-.2-.8-.3-1.4-.3h-1v2.6h1.2c1.1 0 1.6-.4 1.6-1.3zm1.5 5.5h-1.3l-.8-1.8c-.4-.9-.9-1.4-1.4-1.4h-.7v3.2h-1.1v-7.7h2.2c1 0 1.7.2 2.2.6.4.4.6.9.6 1.5 0 .5-.2 1-.5 1.3-.3.4-.8.6-1.4.8.4.1.9.6 1.3 1.4l.9 2.1zm2.4-3.8c0-1.5-.5-2.8-1.5-3.8s-2.3-1.5-3.8-1.5-2.8.5-3.8 1.5-1.5 2.3-1.5 3.8.5 2.8 1.6 3.8c1 1 2.3 1.5 3.8 1.5s2.7-.5 3.8-1.5c.9-1 1.4-2.3 1.4-3.8zm.7 0c0 1.7-.6 3.1-1.8 4.3-1.2 1.2-2.6 1.7-4.3 1.7-1.7 0-3.2-.6-4.3-1.7-1.1-1.1-1.7-2.6-1.7-4.3 0-1.7.6-3.1 1.7-4.3 1.2-1.2 2.6-1.7 4.3-1.7 1.7 0 3.1.6 4.3 1.7 1.2 1.1 1.8 2.5 1.8 4.3zM33 38.1h-3.7V16.8c0-1.7.1-3.7.3-6.2h-.1c-.3 1.4-.7 2.4-1 3.1L17.7 38.1h-1.8L5 13.9c-.3-.7-.6-1.8-1-3.3h-.1c.1 1.3.2 3.3.2 6.2v21.3H.5V6.3h4.9l9.8 22.2c.7 1.7 1.2 2.9 1.4 3.8h.2c.6-1.7 1.1-3 1.5-3.9l10-22.1H33v31.8zM44.4 38.1h-3.6V15.4h3.6v22.7zm.7-30.8c0 .7-.2 1.2-.7 1.7-.5.5-1 .7-1.7.7S41.5 9.5 41 9c-.5-.4-.7-1-.7-1.7s.2-1.2.7-1.7c.5-.4 1-.6 1.7-.6s1.2.2 1.7.7c.4.4.7.9.7 1.6zM67.1 37.1c-1.7 1.1-3.8 1.6-6.2 1.6-3.3 0-5.9-1.1-7.9-3.2-1.9-2.1-2.9-4.8-2.9-8.1 0-3.7 1.1-6.7 3.2-9s5-3.4 8.6-3.4c2 0 3.7.4 5.3 1.2v3.7c-1.7-1.2-3.5-1.8-5.4-1.8-2.3 0-4.2.8-5.7 2.4-1.5 1.6-2.3 3.9-2.3 6.6 0 2.6.7 4.7 2.1 6.3 1.4 1.5 3.3 2.3 5.6 2.3 2 0 3.8-.7 5.6-2v3.4zM84.4 19.1c-.6-.5-1.6-.7-2.8-.7-1.5 0-2.7.7-3.7 2-1.1 1.5-1.7 3.6-1.7 6.2v11.6h-3.6V15.4h3.6v4.7h.1c.5-1.7 1.4-2.9 2.5-3.8 1-.8 2.2-1.2 3.5-1.2 1 0 1.7.1 2.2.3l-.1 3.7zM104.7 26.8c0-2.9-.7-5.1-2-6.7-1.3-1.5-3.1-2.2-5.3-2.2-2.3 0-4.1.7-5.4 2.2-1.4 1.6-2.1 3.8-2.1 6.7 0 2.7.7 4.9 2.1 6.4 1.4 1.5 3.2 2.3 5.5 2.3 2.4 0 4.2-.8 5.5-2.3 1.1-1.4 1.7-3.6 1.7-6.4m3.7-.1c0 3.6-1 6.5-3.1 8.7-2 2.2-4.8 3.3-8.3 3.3-3.4 0-6.1-1.1-8.1-3.3C87 33.3 86 30.5 86 27c0-4 1.1-7 3.3-9.2 2.1-2 4.8-3 8.2-3 3.4 0 6 1.1 7.9 3.1 2.1 2.2 3 5.1 3 8.8M126.5 32.1c0 1.9-.7 3.4-2.1 4.6-1.5 1.3-3.6 2-6.2 2-2.1 0-4-.5-5.6-1.4v-3.9c1.8 1.4 3.7 2.2 5.9 2.2 2.9 0 4.3-1.1 4.3-3.2 0-.9-.3-1.6-1-2.2-.6-.6-1.9-1.3-3.7-2.1-1.9-.8-3.3-1.7-4.1-2.6-1-1.1-1.4-2.4-1.4-4.1 0-1.9.8-3.5 2.2-4.7 1.5-1.3 3.4-1.9 5.8-1.9 1.8 0 3.4.4 4.9 1.1v3.7c-1.5-1.1-3.2-1.6-5.2-1.6-1.2 0-2.2.3-2.9.9-.7.6-1.1 1.4-1.1 2.3 0 1 .3 1.8.9 2.3.5.5 1.7 1.1 3.4 1.9 1.9.8 3.3 1.7 4.2 2.5 1.1 1.1 1.7 2.5 1.7 4.2M148.7 26.8c0-2.9-.7-5.1-2-6.7-1.3-1.5-3.1-2.2-5.3-2.2-2.3 0-4.1.7-5.4 2.2-1.4 1.6-2.1 3.8-2.1 6.7 0 2.7.7 4.9 2 6.4 1.4 1.5 3.2 2.3 5.5 2.3 2.4 0 4.2-.8 5.5-2.3 1.2-1.4 1.8-3.6 1.8-6.4m3.7-.1c0 3.6-1 6.5-3.1 8.7-2 2.2-4.8 3.3-8.2 3.3-3.4 0-6.1-1.1-8.1-3.3-1.9-2.1-2.9-4.9-2.9-8.4 0-4 1.1-7 3.3-9.2 2.1-2 4.8-3 8.2-3 3.4 0 6 1.1 7.9 3.1 1.9 2.2 2.9 5.1 2.9 8.8M168.4 7.7c-.7-.4-1.5-.6-2.4-.6-2.5 0-3.8 1.6-3.8 4.8v3.5h5.3v3.1h-5.3v19.6h-3.6V18.5h-3.9v-3.1h3.9v-3.7c0-2.5.8-4.5 2.3-5.9 1.3-1.2 3-1.8 4.9-1.8 1.1 0 2 .1 2.6.4v3.3zM182.8 37.9c-.9.5-2 .7-3.4.7-4 0-5.9-2.2-5.9-6.7V18.5h-3.9v-3.1h3.9V9.9l3.6-1.2v6.7h5.7v3.1h-5.7v12.8c0 1.5.2 2.6.8 3.2.5.7 1.4 1 2.6 1 .9 0 1.7-.2 2.4-.7v3.1h-.1z" transform="translate(26.734 116.658)"/><path d="M13 83c0 1.8-.6 3.3-1.9 4.6-1.3 1.3-2.8 1.9-4.7 1.9-1.8 0-3.3-.7-4.5-1.9C.7 86.3 0 84.8 0 83c0-1.8.6-3.4 1.9-4.7 1.2-1.3 2.8-1.9 4.5-1.9 1.8 0 3.4.6 4.7 1.9 1.3 1.4 1.9 2.9 1.9 4.7M94.4 88.3H82.5l-43-66.5c-1-1.6-1.9-3.3-2.6-5.2h-.4c.4 1.7.5 5.6.5 11.4v60.2h-9.8V4.9h12.7l41.7 65.4c1.7 2.6 2.8 4.5 3.4 5.6h.2c-.4-2.4-.6-6.5-.6-12.3V4.9h9.7l.1 83.4zM157 88.3h-44.2V4.9h42.3v8.8h-32.5v27.7h30.1v8.8h-30.1v29.1H157v9zM224.1 13.7h-24v74.5h-9.8V13.7h-24.1V4.9H224v8.8h.1z" transform="translate(0 160.405)"/><g transform="translate(.81)"><linearGradient id="SVGID_1_" gradientUnits="userSpaceOnUse" x1="-115.783" y1="251.207" x2="-115.783" y2="249.673" gradientTransform="matrix(45.6076 0 0 -81.335 5394.32 20433.463)"><stop offset="0" style="stop-color:#0994dc"/><stop offset=".35" style="stop-color:#66cef5"/><stop offset=".35" style="stop-color:#66cef5"/><stop offset=".846" style="stop-color:#127bca"/><stop offset=".846" style="stop-color:#127bca"/><stop offset="1" style="stop-color:#127bca"/></linearGradient><path d="M90.3 21.3c9.4 28.8 13 80.3 40.6 80.3 2.1 0 4.2-.2 6.3-.6-25.1-5.8-28-56.7-43.3-83.1-1.2 1.1-2.4 2.2-3.6 3.4" style="fill:url(#SVGID_1_)"/><linearGradient id="SVGID_2_" gradientUnits="userSpaceOnUse" x1="-115.905" y1="251.208" x2="-115.905" y2="249.674" gradientTransform="matrix(47.8692 0 0 -83.4083 5666.77 20951.188)"><stop offset="0" style="stop-color:#0e76bc"/><stop offset=".36" style="stop-color:#36aee8"/><stop offset=".36" style="stop-color:#36aee8"/><stop offset=".846" style="stop-color:#00adef"/><stop offset=".846" style="stop-color:#00adef"/><stop offset="1" style="stop-color:#00adef"/></linearGradient><path d="M93.9 17.9c15.3 26.3 18.3 77.2 43.3 83.1 2-.4 3.9-.9 5.9-1.6-22.5-11-28.7-60.4-46.1-84.2-1 .8-2.1 1.7-3.1 2.7" style="fill:url(#SVGID_2_)"/><path d="M115.9 2.2c-2.1 0-4.2.2-6.4.6-5.6 1.1-11.2 3.5-17 7.1 1.6 1.5 3 3.3 4.4 5.2 5.8-4.8 11.6-8.4 17.3-10.5 2.2-.8 4.3-1.4 6.5-1.8-1.4-.4-3.1-.6-4.8-.6" style="fill:#14559a"/><linearGradient id="SVGID_3_" gradientUnits="userSpaceOnUse" x1="-115.755" y1="249.87" x2="-115.755" y2="251.075" gradientTransform="matrix(45.4522 0 0 -84.5 5405.544 21212.691)"><stop offset="0" style="stop-color:#1c63b7"/><stop offset=".5" style="stop-color:#33bdf2"/><stop offset="1" style="stop-color:#33bdf2;stop-opacity:.4196"/></linearGradient><path d="M160.7 89.2c2.3-1.8 4.6-3.9 6.9-6.1-9.6-28.7-13-80.9-40.8-80.9-2 0-4 .2-6 .6 25.3 6.3 28.6 61.3 39.9 86.4" style="fill:url(#SVGID_3_)"/><path d="M120.8 2.8c-1.6-.4-3.2-.6-4.9-.6h10.9c-2 0-4 .2-6 .6" style="fill:#3092c4"/><path class="st5" d="M160.2 95.3c-1.1-1-2.1-2.2-3.1-3.4-4.7 3.3-9.3 5.8-13.9 7.4 1.6.8 3.4 1.4 5.2 1.8 1.4.3 2.9.4 4.4.4 5.2 0 9.3-.6 12.8-2.3-2-1-3.8-2.3-5.4-3.9"/><linearGradient id="SVGID_4_" gradientUnits="userSpaceOnUse" x1="-115.733" y1="251.211" x2="-115.733" y2="249.677" gradientTransform="matrix(45.0105 0 0 -86.5982 5346.73 21739.885)"><stop offset="0" style="stop-color:#166ab8"/><stop offset=".4" style="stop-color:#36aee8"/><stop offset=".4" style="stop-color:#36aee8"/><stop offset=".846" style="stop-color:#0798dd"/><stop offset=".846" style="stop-color:#0798dd"/><stop offset="1" style="stop-color:#0798dd"/></linearGradient><path d="M114.4 4.6C137 16.5 139 70.1 157.1 91.9l3.6-2.7c-11.3-25.1-14.5-80.1-39.8-86.4-2.2.4-4.4 1-6.5 1.8" style="fill:url(#SVGID_4_)"/><linearGradient id="SVGID_5_" gradientUnits="userSpaceOnUse" x1="-116.354" y1="251.21" x2="-116.354" y2="249.676" gradientTransform="matrix(58.3509 0 0 -92.0822 6916.399 23118.121)"><stop offset="0" style="stop-color:#124379"/><stop offset=".39" style="stop-color:#1487cb"/><stop offset=".39" style="stop-color:#1487cb"/><stop offset=".78" style="stop-color:#165197"/><stop offset=".78" style="stop-color:#165197"/><stop offset="1" style="stop-color:#165197"/></linearGradient><path d="M97 15.1c17.4 23.8 23.6 73.2 46.1 84.2 4.6-1.6 9.3-4.1 13.9-7.4-18-21.8-20-75.4-42.6-87.3-5.8 2.1-11.6 5.7-17.4 10.5" style="fill:url(#SVGID_5_)"/><linearGradient id="SVGID_6_" gradientUnits="userSpaceOnUse" x1="-112.781" y1="250.506" x2="-111.752" y2="250.506" gradientTransform="matrix(19.4176 0 0 -30.9219 2260.226 7775.597)"><stop offset="0" style="stop-color:#33bdf2;stop-opacity:.698"/><stop offset="1" style="stop-color:#1dacd8"/></linearGradient><path d="M79.2 20.6c-2.7 6.2-5.5 14.2-8.9 24.8 6.7-9.4 13.3-17.5 20-24.1-.9-2.8-1.9-5.4-2.9-7.7-2.8 2.1-5.5 4.4-8.2 7" style="fill:url(#SVGID_6_)"/><path d="m89.7 11.8-2.4 1.8c1.1 2.3 2 4.9 2.9 7.7 1.2-1.2 2.4-2.3 3.6-3.4-1.2-2.2-2.6-4.3-4.1-6.1" style="fill:#2b74b1"/><path d="M92.6 9.9c-1 .6-1.9 1.2-2.9 1.9 1.5 1.8 2.8 3.9 4.1 6.1 1.1-1 2.1-1.9 3.2-2.7-1.4-2-2.8-3.8-4.4-5.3" style="fill:#125a9e"/><linearGradient id="SVGID_7_" gradientUnits="userSpaceOnUse" x1="-116.865" y1="250.036" x2="-116.865" y2="251.041" gradientTransform="matrix(79.1425 0 0 -98.6787 9469.327 24769.35)"><stop offset="0" style="stop-color:#136ab4"/><stop offset=".6" style="stop-color:#59caf5;stop-opacity:.549"/><stop offset="1" style="stop-color:#59caf5;stop-opacity:.2353"/></linearGradient><path d="M247.1 0c-12.8 49.4-39.6 89.1-62 99.1-.4.2-.8.4-1.2.5-.1 0-.1 0-.1.1-.1 0-.2.1-.3.1-.1 0-.1 0-.2.1-.2.1-.4.1-.6.2-.1 0-.2.1-.2.1-.1 0-.2.1-.3.1-.1 0-.2.1-.3.1-.1 0-.2 0-.2.1-.2 0-.3.1-.5.1-.1 0-.1 0-.2.1-.1 0-.2.1-.3.1-.1 0-.1 0-.2.1-.1 0-.2.1-.4.1s-.3.1-.4.1c1 .4 2.1.6 3.2.6 21.3 0 42.7-38.1 78.2-101.5l-14-.2z" style="fill:url(#SVGID_7_)"/><linearGradient id="SVGID_8_" gradientUnits="userSpaceOnUse" x1="-117.297" y1="250.495" x2="-116.268" y2="250.495" gradientTransform="matrix(72.0226 0 0 -99.1613 8447.428 24892.606)"><stop offset="0" style="stop-color:#05a1e6;stop-opacity:.2471"/><stop offset="1" style="stop-color:#05a1e6"/></linearGradient><path d="M65.7 4.2s.1 0 0 0l.1-.1c.1 0 .2-.1.3-.1h.2c.1 0 .3-.1.4-.1.3-.1.5-.2.8-.3h.1c.1 0 .2-.1.3-.1.1 0 .1 0 .2-.1.1 0 .2-.1.4-.1h.1c.4-.2.8-.3 1.2-.4h.2c.1 0 .2-.1.3-.1.1 0 .1 0 .2-.1.1 0 .2 0 .3-.1h.1c.2 0 .5-.1.7-.1h.1c.1 0 .2 0 .3-.1h.7c.2 0 .5 0 .8-.1-.7-.1-1.5-.1-2.3-.1-24 0-57 44.4-71.8 102h2.9c4.8-8.5 9-16.5 12.9-24 10.4-40.8 31.6-68.6 50.5-76" style="fill:url(#SVGID_8_)"/><path class="st13" d="M79.2 20.6c2.7-2.6 5.5-4.9 8.2-7-.6-1.4-1.3-2.6-1.9-3.8-2.3 2.7-4.3 6.2-6.3 10.8M81.1 4.5c1.6 1.3 3 3.1 4.2 5.3.4-.5.8-1 1.2-1.4-1.8-1.7-3.7-3-5.8-4.1.2.1.3.2.4.2"/><linearGradient id="SVGID_9_" gradientUnits="userSpaceOnUse" x1="-116.01" y1="249.733" x2="-116.01" y2="251.109" gradientTransform="matrix(49.0511 0 0 -73.8222 5730.883 18534.467)"><stop offset="0" style="stop-color:#318ed5"/><stop offset="1" style="stop-color:#38a7e4"/></linearGradient><path d="M15.2 80.1c21.9-42 32.2-68.7 50.5-75.9-18.9 7.4-40.1 35.2-50.5 75.9" style="fill:url(#SVGID_9_)"/><path d="M86.6 8.4c-.4.4-.8.9-1.2 1.4.7 1.1 1.3 2.4 1.9 3.8l2.4-1.8c-1-1.2-2-2.3-3.1-3.4" style="fill:#127bca"/><linearGradient id="SVGID_10_" gradientUnits="userSpaceOnUse" x1="-115.824" y1="250.057" x2="-115.824" y2="251.785" gradientTransform="matrix(45.6036 0 0 -57.1283 5328.82 14384.324)"><stop offset="0" style="stop-color:#05a1e6"/><stop offset="1" style="stop-color:#05a1e6;stop-opacity:.549"/></linearGradient><path d="M25.1 104h-.9c-.3 0-.5 0-.8.1h-.1c22.1-.6 32.2-11.7 37.2-27.7 3.8-12.2 6.9-22.4 9.7-31-9.3 13-18.6 28.6-27.9 46-4.4 8.3-11.3 11.8-17.2 12.6" style="fill:url(#SVGID_10_)"/><linearGradient id="SVGID_11_" gradientUnits="userSpaceOnUse" x1="-116.164" y1="249.977" x2="-116.164" y2="251.005" gradientTransform="matrix(52.5191 0 0 -81.0936 6152.959 20375.496)"><stop offset="0" style="stop-color:#1959a6"/><stop offset=".5" style="stop-color:#05a1e6"/><stop offset=".5" style="stop-color:#05a1e6"/><stop offset=".918" style="stop-color:#7ec5ea"/><stop offset="1" style="stop-color:#7ec5ea"/></linearGradient><path d="M25.1 104c5.9-.7 12.7-4.2 17.2-12.6 9.4-17.4 18.7-33 28-46 3.4-10.6 6.1-18.6 8.9-24.8-18.5 17.5-37 46.7-54.1 83.4" style="fill:url(#SVGID_11_)"/><path d="M15.2 80.1c-3.9 7.5-8.2 15.6-12.9 24h8.3c1.1-8.3 2.7-16.4 4.6-24" style="fill:#05a1e6"/><linearGradient id="SVGID_12_" gradientUnits="userSpaceOnUse" x1="-116.692" y1="250.037" x2="-116.911" y2="250.95" gradientTransform="matrix(72.6768 0 0 -99.0047 8536.139 24853.475)"><stop offset="0" style="stop-color:#165096"/><stop offset="1" style="stop-color:#0d82ca"/></linearGradient><path d="M72.7 2.4H72c-.1 0-.2 0-.3.1h-.1c-.2 0-.5.1-.7.1h-.1c-.1 0-.2.1-.3.1h-.2c-.1 0-.2 0-.3.1h-.2c-.4.2-.8.3-1.2.4h-.1c-.1 0-.2.1-.4.1h-.2c-.1 0-.2.1-.3.1h-.1c-.3.1-.5.2-.8.3-.1 0-.2.1-.4.1-.1 0-.1 0-.2.1-.1 0-.2.1-.3.1 0 0-.1 0-.1.1C47.4 11.3 37.1 37.9 15.2 80c-1.9 7.6-3.5 15.6-4.6 24H23.6c.3 0 .5 0 .8-.1h.9c17.1-36.7 35.6-65.9 54-83.4 2-4.6 4-8.1 6.2-10.8-1.3-2.2-2.7-4-4.2-5.3-.1 0-.2-.1-.3-.1-.1 0-.2-.1-.3-.1-.1 0-.2-.1-.3-.1-.1 0-.2-.1-.3-.1h-.3c-.2-.1-.3-.1-.5-.2-.1 0-.1-.1-.2-.1s-.2-.1-.4-.1c-.1 0-.1 0-.2-.1-.2-.1-.3-.1-.5-.2s-.4-.1-.6-.2h-.1c-.2-.1-.3-.1-.5-.1h-.1l-1.2-.3h-.1c-.2 0-.3-.1-.5-.1h-.1c-.2 0-.4-.1-.6-.1H74c-.2 0-.3 0-.5-.1h-.8" style="fill:url(#SVGID_12_)"/><linearGradient id="SVGID_13_" gradientUnits="userSpaceOnUse" x1="-114.671" y1="250.224" x2="-114.671" y2="251.05" gradientTransform="matrix(32.7663 0 0 -57.2261 3960.674 14366.896)"><stop offset="0" style="stop-color:#05a1e6"/><stop offset=".874" style="stop-color:#0495d6"/><stop offset="1" style="stop-color:#0495d6"/></linearGradient><path d="M197 27.4c-4.2 13.5-7.6 24.6-10.6 33.7 11.5-15.9 22.9-35.8 33.7-58.9-12.5 4-19.3 13-23.1 25.2" style="fill:url(#SVGID_13_)"/><linearGradient id="SVGID_14_" gradientUnits="userSpaceOnUse" x1="-116.222" y1="251.053" x2="-116.541" y2="249.922" gradientTransform="matrix(60.2691 0 0 -96.3231 7230.127 24178.106)"><stop offset="0" style="stop-color:#38a7e4;stop-opacity:.3294"/><stop offset=".962" style="stop-color:#0e88d3"/><stop offset=".962" style="stop-color:#0e88d3"/><stop offset="1" style="stop-color:#0e88d3"/></linearGradient><path d="M186.8 98.3c-.6.3-1.2.6-1.8.8 22.4-10 49.2-49.7 62-99.1h-2.6c-29.3 52.6-38.8 87.8-57.6 98.3" style="fill:url(#SVGID_14_)"/><path d="M172.2 93.8c4.9-6 8.9-16.1 14.3-32.8-6.3 8.6-12.6 16-18.9 22v.1c1.4 4.2 2.9 7.8 4.6 10.7" style="fill:#079ae1"/><path class="st5" d="M172.2 93.8c-1.7 2-3.4 3.6-5.4 4.7-.4.2-.9.5-1.3.7 2.1 1.1 4.3 1.9 6.8 2.2.4 0 .7.1 1.1.1H177.2c.2 0 .3 0 .5-.1h.1c.2 0 .3-.1.5-.1h.1c.4-.1.7-.1 1-.2-2.7-1.1-5.1-3.6-7.2-7.3"/><path class="st23" d="M130.8 101.5c2.1 0 4.2-.2 6.3-.6 2-.4 3.9-.9 5.9-1.6 1.6.8 3.4 1.4 5.2 1.8 1.4.3 2.9.4 4.4.4h-21.8zM152.7 101.5c5.2 0 9.3-.6 12.8-2.3 2.1 1.1 4.3 1.9 6.8 2.2.4 0 .7.1 1.1.1H174.7h-22z"/><path d="M174.7 101.5H177.2c.2 0 .3 0 .5-.1h.1c.2 0 .3-.1.5-.1h.1c.4-.1.7-.1 1-.2 1 .4 2.1.6 3.2.6l-7.9-.2z" style="fill:#1d60b5"/><path d="M167.6 83.1c-2.3 2.2-4.6 4.2-6.9 6-1.2 1-2.4 1.9-3.6 2.7 1 1.2 2 2.3 3.1 3.4 1.6 1.6 3.4 2.9 5.3 4 .4-.2.9-.5 1.3-.7 2-1.1 3.7-2.7 5.4-4.7-1.7-2.9-3.2-6.5-4.6-10.7" style="fill:#175fab"/><linearGradient id="SVGID_15_" gradientUnits="userSpaceOnUse" x1="-116.674" y1="251.013" x2="-116.674" y2="249.962" gradientTransform="matrix(70.2816 0 0 -98.1105 8408.32 24626.736)"><stop offset="0" style="stop-color:#168cd4"/><stop offset=".5" style="stop-color:#1c87cc"/><stop offset="1" style="stop-color:#154b8d"/></linearGradient><path d="M236.3 0h-13c-.7 0-1.4.1-2.1.1-.3.7-.6 1.4-1 2.1-10.8 23-22.2 43-33.7 58.9-5.4 16.7-9.4 26.8-14.3 32.8 2.1 3.6 4.5 6.1 7.4 7.1.1 0 .2 0 .2-.1h.2c.1 0 .2-.1.4-.1.1 0 .1 0 .2-.1.1 0 .2-.1.3-.1.1 0 .1 0 .2-.1.2-.1.3-.1.5-.1.1 0 .2-.1.2-.1.1 0 .2-.1.3-.1.1 0 .2-.1.3-.1.1 0 .2-.1.2-.1.2-.1.4-.1.6-.2.1 0 .1 0 .2-.1.1 0 .2-.1.3-.1 0 0 .1 0 .1-.1.4-.2.8-.3 1.2-.5.6-.3 1.2-.5 1.8-.8C205.6 87.8 215 52.6 244.5 0h-8.2z" style="fill:url(#SVGID_15_)"/><path d="M73.5 2.3h.5c.2 0 .4.1.6.1h.1c.2 0 .3.1.5.1h.1l1.2.3h.1c.4.2.5.2.7.3h.1c.2.1.4.1.6.2.2.1.3.1.5.2.1 0 .1 0 .2.1s.2.1.4.1c.1 0 .1 0 .2.1.2.1.3.1.5.2.1 0 .1 0 .2.1.1 0 .2.1.3.1.1 0 .2.1.3.1.1 0 .2.1.3.1 2.1 1 4 2.4 5.8 4.1.7-.7 1.3-1.3 2.1-1.9-3.9-2.8-8.3-4.3-13.4-4.3h-1.9" style="fill:#7dcbec"/><path d="M86.6 8.4c1.1 1 2.1 2.1 3.1 3.4 1-.7 1.9-1.3 2.9-1.9-1.2-1.2-2.6-2.4-3.9-3.3-.7.5-1.4 1.2-2.1 1.8" style="fill:#5ec5ed"/><linearGradient id="SVGID_16_" gradientUnits="userSpaceOnUse" x1="-115.077" y1="248.693" x2="-114.346" y2="251.012" gradientTransform="matrix(32.4594 0 0 4.2491 3812.158 -1059.137)"><stop offset="0" style="stop-color:#97d6ee"/><stop offset=".703" style="stop-color:#55c1ea"/><stop offset="1" style="stop-color:#55c1ea"/></linearGradient><path d="M73.5 2.3c.6-.1 1.2-.1 1.8-.1 5.1 0 9.5 1.6 13.4 4.3 4.1-3.2 9.1-4.4 16-4.4H71.2c.8.1 1.6.2 2.3.2" style="fill:url(#SVGID_16_)"/><linearGradient id="SVGID_17_" gradientUnits="userSpaceOnUse" x1="-114.328" y1="250.839" x2="-113.619" y2="249.703" gradientTransform="matrix(26.4722 0 0 7.484 3117.06 -1867.863)"><stop offset="0" style="stop-color:#7accec"/><stop offset="1" style="stop-color:#3fb7ed"/></linearGradient><path d="M104.6 2.2c-6.9 0-11.9 1.1-16 4.4 1.4 1 2.7 2.1 3.9 3.3 5.7-3.6 11.4-6 17-7.1 2.1-.4 4.3-.6 6.3-.6h-11.2z" style="fill:url(#SVGID_17_)"/><linearGradient id="SVGID_18_" gradientUnits="userSpaceOnUse" x1="-116.067" y1="250.947" x2="-116.067" y2="249.696" gradientTransform="matrix(52.0449 0 0 -80.6355 6235.065 20240.654)"><stop offset="0" style="stop-color:#1da7e7"/><stop offset="1" style="stop-color:#37abe7;stop-opacity:0"/></linearGradient><path d="M186.5 61.1c3-9.1 6.4-20.2 10.6-33.7 3.8-12.1 10.5-21.2 23.1-25.2.3-.7.6-1.4 1-2.1-20.6 1.2-30.2 11.7-35 27.2-8.5 27-13.6 44.6-18.5 55.8 6.2-6 12.5-13.4 18.8-22" style="fill:url(#SVGID_18_)"/><path d="M216.6 94.3h-2.3v7.2h-1v-7.2H211v-.9h5.6v.9zM226.2 101.6h-.9v-5.4c0-.4 0-1 .1-1.6-.1.4-.2.6-.3.8l-2.8 6.2h-.5l-2.8-6.2c-.1-.2-.2-.5-.2-.8v7h-.9v-8.1h1.3l2.5 5.7c.2.4.3.8.4 1 .2-.4.3-.8.4-1l2.5-5.6h1.2v8z"/></g></g></switch></svg>