<svg xmlns="http://www.w3.org/2000/svg" viewBox="0 0 500 306.5" style="enable-background:new 0 0 500 306.5" xml:space="preserve"><switch><g><g style="enable-background:new"><path d="M21.8 306.3c-6.8 0-12.2-2-16-5.9C1.9 296.5 0 291 0 284c0-7.1 1.9-12.8 5.4-16.9s8.4-6.1 14.7-6.1c5.7 0 10.3 1.7 13.7 5.2 3.4 3.5 5.1 8.3 5.1 14.5v5.1H9.6c.2 4.2 1.4 7.4 3.4 9.8 2 2.4 5.2 3.4 9.1 3.4 2.5 0 5.1-.2 7.3-.7s4.6-1.4 7.3-2.4v7.6c-2.2 1-4.6 1.9-6.9 2.4-2.4.6-5.1.4-8 .4zm-1.9-38.2c-3 0-5.4 1-7.1 2.9-1.7 1.9-2.9 4.6-3.2 8.3h19.9c0-3.5-.8-6.4-2.5-8.3-1.7-1.8-4-2.9-7.1-2.9zM58.6 305.6h-9.3V244h9.3v61.6zM99.3 305.6l-1.9-6.1h-.3c-2 2.7-4.2 4.6-6.4 5.4s-4.9 1.5-8.3 1.5c-4.2 0-7.6-1.2-10.1-3.5-2.5-2.4-3.5-5.6-3.5-9.8 0-4.6 1.7-7.9 5.1-10.1 3.4-2.2 8.4-3.5 15.4-3.7l7.6-.2v-2.4c0-2.9-.7-4.9-2-6.3s-3.4-2-6.1-2c-2.2 0-4.4.3-6.4 1s-4.1 1.5-5.9 2.4l-3-6.6c2.4-1.2 4.9-2.2 7.8-2.9s5.4-1 7.9-1c5.6 0 9.8 1.2 12.7 3.7 2.9 2.5 4.2 6.3 4.2 11.5v29.1h-6.8zm-13.8-6.4c3.4 0 6.1-1 8.1-2.9s3-4.6 3-7.9v-3.7l-5.6.2c-4.4.2-7.6.8-9.6 2.2-2 1.4-3 3.4-3 6.1 0 2 .5 3.5 1.7 4.6 1.1.9 3 1.4 5.4 1.4zM148.3 293.1c0 4.2-1.5 7.6-4.7 9.8-3.2 2.2-7.6 3.4-13.3 3.4-5.9 0-10.5-.8-14-2.7v-8.1c5.1 2.4 10 3.5 14.4 3.5 5.7 0 8.6-1.7 8.6-5.2 0-1.2-.3-2-1-2.7-.7-.7-1.7-1.5-3.2-2.4-1.5-.8-3.5-1.7-6.1-2.7-5.1-2-8.4-3.9-10.3-5.9-1.9-2-2.7-4.6-2.7-7.6 0-3.7 1.5-6.6 4.6-8.8 3-2.2 7.1-3 12.3-3 5.1 0 10 1 14.5 3.2l-3 6.9c-4.7-2-8.6-2.9-12-2.9-4.9 0-7.4 1.4-7.4 4.2 0 1.4.7 2.5 1.9 3.5s4.1 2.2 8.4 3.9c3.5 1.4 6.3 2.7 7.9 3.9 1.7 1.2 2.9 2.5 3.7 4.1 1.1 1.8 1.4 3.5 1.4 5.6zM174.7 298.9c2.2 0 4.6-.3 6.8-1v6.9c-1 .5-2.4.8-4.1 1.2-1.7.3-3.4.5-5.1.5-8.8 0-13.2-4.7-13.2-13.9V269h-5.9v-4.1l6.4-3.4 3.2-9.3h5.7v9.8H181v7.1h-12.5v23.5c0 2.2.5 3.9 1.7 4.9 1.3 1.1 2.8 1.4 4.5 1.4zM189.7 250.2c0-1.7.5-2.9 1.4-3.9.8-1 2.2-1.4 3.9-1.4s2.9.5 3.9 1.4c1 .8 1.4 2.2 1.4 3.9 0 1.5-.5 2.9-1.4 3.7-.8.8-2.2 1.4-3.9 1.4s-3-.5-3.9-1.4c-.9-.8-1.4-2.1-1.4-3.7zm10 55.4h-9.3v-43.8h9.3v43.8zM230.6 306.3c-6.6 0-11.7-1.9-15-5.7-3.4-3.9-5.2-9.5-5.2-16.7 0-7.4 1.9-13 5.4-17.1 3.5-4.1 8.8-5.9 15.5-5.9 4.6 0 8.8.8 12.5 2.5l-2.9 7.4c-3.9-1.5-7.1-2.4-9.8-2.4-7.6 0-11.3 5.1-11.3 15 0 4.9 1 8.6 2.9 11.1s4.7 3.7 8.3 3.7c4.2 0 8.1-1 11.8-3v8.1c-1.7 1-3.4 1.7-5.4 2-2.1.5-4.1 1-6.8 1zM282.4 293.1c0 4.2-1.5 7.6-4.7 9.8-3.2 2.2-7.6 3.4-13.3 3.4-5.9 0-10.5-.8-14-2.7v-8.1c5.1 2.4 10 3.5 14.4 3.5 5.7 0 8.6-1.7 8.6-5.2 0-1.2-.3-2-1-2.7s-1.7-1.5-3.2-2.4c-1.5-.8-3.5-1.7-6.1-2.7-5.1-2-8.4-3.9-10.3-5.9-1.9-2-2.7-4.6-2.7-7.6 0-3.7 1.5-6.6 4.6-8.8 3-2.2 7.1-3 12.3-3 5.1 0 10 1 14.5 3.2l-3 6.9c-4.7-2-8.6-2.9-12-2.9-4.9 0-7.4 1.4-7.4 4.2 0 1.4.7 2.5 1.9 3.5s4.1 2.2 8.4 3.9c3.5 1.4 6.3 2.7 7.9 3.9s2.9 2.5 3.7 4.1c1.1 1.8 1.4 3.5 1.4 5.6zM311.7 306.3c-6.8 0-12.2-2-16-5.9-3.9-3.9-5.7-9.5-5.7-16.4 0-7.1 1.9-12.8 5.4-16.9s8.4-6.1 14.7-6.1c5.7 0 10.3 1.7 13.7 5.2 3.4 3.5 5.1 8.3 5.1 14.5v5.1h-29.2c.2 4.2 1.4 7.4 3.4 9.8 2 2.4 5.2 3.4 9.1 3.4 2.5 0 5.1-.2 7.3-.7s4.6-1.4 7.3-2.4v7.6c-2.2 1-4.6 1.9-6.9 2.4-2.7.6-5.2.4-8.2.4zm-1.7-38.2c-3 0-5.4 1-7.1 2.9-1.7 1.9-2.9 4.6-3.2 8.3h19.9c0-3.5-.8-6.4-2.5-8.3-1.7-1.8-4.3-2.9-7.1-2.9zM366.6 305.6l-1.9-6.1h-.3c-2 2.7-4.2 4.6-6.4 5.4s-4.9 1.5-8.3 1.5c-4.2 0-7.6-1.2-10.1-3.5-2.5-2.4-3.5-5.6-3.5-9.8 0-4.6 1.7-7.9 5.1-10.1 3.4-2.2 8.4-3.5 15.4-3.7l7.6-.2v-2.4c0-2.9-.7-4.9-2-6.3s-3.4-2-6.1-2c-2.2 0-4.4.3-6.4 1s-4.1 1.5-5.9 2.4l-3-6.6c2.4-1.2 4.9-2.2 7.8-2.9s5.4-1 7.9-1c5.6 0 9.8 1.2 12.7 3.7s4.2 6.3 4.2 11.5v29.1h-6.8zm-13.9-6.4c3.4 0 6.1-1 8.1-2.9s3-4.6 3-7.9v-3.7l-5.6.2c-4.4.2-7.6.8-9.6 2.2-2 1.4-3 3.4-3 6.1 0 2 .5 3.5 1.7 4.6s3.2 1.4 5.4 1.4zM408.4 261.1c1.9 0 3.4.2 4.6.3l-.8 8.6c-1.4-.3-2.7-.5-4.1-.5-3.7 0-6.8 1.2-9.1 3.7-2.4 2.5-3.5 5.6-3.5 9.5v23h-9.3v-43.8h7.3l1.2 7.8h.5c1.5-2.5 3.4-4.7 5.7-6.3 2.3-1.5 4.8-2.3 7.5-2.3zM438.9 306.3c-6.6 0-11.7-1.9-15-5.7-3.4-3.9-5.2-9.5-5.2-16.7 0-7.4 1.9-13 5.4-17.1s8.8-5.9 15.5-5.9c4.6 0 8.8.8 12.5 2.5l-2.9 7.4c-3.9-1.5-7.1-2.4-9.8-2.4-7.6 0-11.3 5.1-11.3 15 0 4.9 1 8.6 2.9 11.1s4.7 3.7 8.3 3.7c4.2 0 8.1-1 11.8-3v8.1c-1.7 1-3.4 1.7-5.4 2-2.1.5-4.1 1-6.8 1zM499.8 305.6h-9.3v-27c0-3.4-.7-5.9-2-7.6-1.4-1.7-3.5-2.5-6.4-2.5-3.9 0-6.8 1.2-8.6 3.5s-2.7 6.3-2.7 11.7v22h-9.3V244h9.3v15.7c0 2.5-.2 5.2-.5 8.1h.7c1.4-2 3-3.7 5.2-4.9 2.2-1.2 4.9-1.7 7.9-1.7 10.6 0 15.9 5.4 15.9 16v28.4h-.2z"/></g><path d="M299.4 75.2h-56.1c.3 1.3.8 2.7 1.1 3.8 1.9 6.4 3 13.2 3.5 20.1.3 2.7.3 5.6.3 8.3 0 2.7 0 5.6-.3 8.3-.5 7-1.6 13.7-3.5 20.1-.3 1.3-.8 2.7-1.1 3.8h56.1c17.7 0 32-14.5 32-32.2s-14.3-32.2-32-32.2z" style="fill:#00a9e5"/><path d="M247.9 115.7c.3-2.7.3-5.6.3-8.3 0-2.7 0-5.6-.3-8.3-.5-7-1.6-13.7-3.5-20.1-.3-1.3-.8-2.7-1.1-3.8h-86.7c-3.2 10.2-4.8 20.9-4.8 32.2 0 11.3 1.6 22 4.8 32.2h86.7c.3-1.3.8-2.7 1.1-3.8 1.8-6.4 2.9-13.1 3.5-20.1z" style="fill:#353535"/><path d="M309.1 150.4h-69.8c-2.1 4.8-4.6 9.4-7.3 13.7-4 6.7-8.9 12.6-14.2 18.3-1.9 1.9-3.8 3.5-5.6 5.4-3.8 3.5-8.1 6.4-12.4 9.4 16.9 11.3 37.3 17.7 59.1 17.7 37.3 0 70.1-19.1 89.4-47.8-10-10.3-23.9-16.7-39.2-16.7z" style="fill:#00bfb3"/><path d="M232 164.1c2.7-4.3 5.1-8.9 7.3-13.7h-78.7c8.3 19.1 22 35.4 39.5 46.7 4.3-3 8.3-5.9 12.4-9.4 1.9-1.6 3.8-3.5 5.6-5.4 5-5.3 9.9-11.5 13.9-18.2z" style="fill:#019b8f"/><path d="M217.8 32.5c-1.9-1.9-3.8-3.5-5.6-5.4-3.8-3.5-8.1-6.4-12.4-9.4-17.2 11.3-30.9 27.7-39.5 46.7H239c-2.1-4.8-4.6-9.4-7.3-13.7-3.7-6.7-8.6-12.8-13.9-18.2z" style="fill:#f9b110"/><path d="M258.9 0c-21.8 0-42.2 6.4-59.1 17.7 4.3 3 8.3 5.9 12.4 9.4 1.9 1.6 3.8 3.5 5.6 5.4C223.1 38.1 228 44 232 50.8c2.7 4.3 5.1 8.9 7.3 13.7h69.8c15.3 0 29.3-6.4 39.2-16.6C328.9 19.1 296.2 0 258.9 0z" style="fill:#fed10a"/></g></switch></svg>