<svg version="1.1" id="Layer_1" xmlns="http://www.w3.org/2000/svg" x="0" y="0" viewBox="0 0 300 300" style="enable-background:new 0 0 300 300" xml:space="preserve"><style>.st1{fill:#fff}</style><path style="fill:#1c1c1c" d="M0 0h300v300H0z"/><path class="st1" d="M65.1 139.1H56v31.6h-8v-31.6h-6.1v-3.8l6.2-2.5v-2.5c-.3-3.6.8-7.1 3.1-9.9 2.6-2.3 6.1-3.5 9.6-3.2 2.8 0 5.6.5 8.3 1.4l-2.1 6.1c-1.8-.6-3.7-.9-5.7-.9-1.5-.1-3 .5-4 1.7-.9 1.5-1.4 3.3-1.3 5v2.5h9.2l-.1 6.1zM93.9 170.7 79.8 129c.4 6.2.6 12 .6 17.3v24.2h-7.1V121h11.5L99 160.6l14-39.6h11.5v49.6h-7.9v-41.4l-14.9 41.6-7.8-.1zM136.8 120.9h14.8c5.1-.4 10.3.6 14.9 3 3.1 2.1 4.9 5.7 4.6 9.5.1 2.5-.7 5-2.3 7.1-1.6 2-3.9 3.3-6.4 3.6 2.9.4 5.7 1.7 7.7 3.9 1.7 2.2 2.6 5 2.5 7.9.2 4-1.6 7.9-4.7 10.5-3.8 2.7-8.4 4.1-13 3.8h-18.1v-49.3zm8.1 20.7h7.9c2.6.2 5.2-.4 7.4-1.6 1.5-1.4 2.3-3.4 2.1-5.5.2-2-.8-4-2.5-5.1-2.5-1.2-5.3-1.8-8.1-1.6h-7.1l.3 13.8zm0 6.6V164h8.6c2.7.2 5.4-.5 7.7-2 1.8-1.5 2.8-3.8 2.6-6.2.1-2.2-.9-4.4-2.7-5.7-2.4-1.4-5.3-2-8.1-1.8l-8.1-.1zM200 170.7h-8.1v-42.5h-14.7v-7.1h37.4v7.1H200v42.5z"/></svg>