<svg version="1.1" id="Layer_1" xmlns="http://www.w3.org/2000/svg" x="0" y="0" viewBox="0 0 500 117.7" style="enable-background:new 0 0 500 117.7" xml:space="preserve"><style>.st0{fill:#001a5e}</style><switch><g><circle class="st0" cx="59" cy="58.9" r="58.9"/><path d="M62.7.1c-27 1.7-48.4 24.2-48.4 51.7 0 28.6 23.2 51.8 51.8 51.8 27.5 0 49.9-21.4 51.7-48.4C115.9 25.6 92.2 2 62.7.1z" style="fill:#7a9aef"/><circle class="st0" cx="50.9" cy="65.6" r="29.1"/><path transform="rotate(-39.917 34.387 79.448)" class="st0" d="M12.8 69.2h43.1v20.6H12.8z"/><path class="st0" d="M166.9 65.9h13.5v9.7s-2.4 1.8-10.2 1.8c-5.8 0-16.3-1.4-16.3-17.3 0-18.2 10.6-19.8 20.4-19.8 9.8 0 19.4 3.3 19.4 3.3V26.3s-6.9-3.1-21.1-3.1c-16.2 0-39.5 7.6-39.5 33.4 0 24.4 11.1 37.9 37.4 37.9 18.9 0 26.9-6.3 26.9-6.3V53.5h-30.5v12.4zM395.8 24.9h20v68.3h-20zM306.8 61.1l-25.9-36.2h-17.4v68.3h20V57.4l26 35.8h17.3V24.9h-20zM220 24.9h-15.1v68.3h52.3V78.1h-32.3V66.6h28V51.5h-28V40h32.3V24.9h-32.3zM372.4 52.3c-11.2-3-17.4-4-17.4-7.7s2-5.2 10.6-5.2c11.3 0 19.1 3.9 19.1 3.9V26.5s-10.7-3.3-19.9-3.3c-16.4 0-30 4.2-30 19.6s7.5 18.9 17.8 21.8 15.5 5.2 15.5 8.7c0 3.4-2.6 5.5-10.2 5.5-13.1 0-22.5-5.1-22.5-5.1v16.5s9.2 4.4 24.5 4.4c21 0 28.7-10.4 28.7-20.9s-5-18.4-16.2-21.4zM480.1 24.9l-17.5 34.2-17.5-34.2h-19.9v68.3h20V57.4L457.3 82h10.6l12.2-24.6v35.8h20V24.9z"/></g></switch></svg>