<svg version="1.1" id="design" xmlns="http://www.w3.org/2000/svg" x="0" y="0" viewBox="0 0 103.8 170" style="enable-background:new 0 0 103.8 170" xml:space="preserve"><style>.st1{fill:#fff}.st16{fill:#d33833}.st17{fill:#ef3d3a}.st18{fill:#231f20}.st19{fill:#f0d6b7}.st20{fill:#335061}.st22{fill:#dcd9d8}.st23{fill:#f7e4cd}.st24{fill:#49728b}.st25{stroke:#d33833;stroke-width:.816}.st26{fill:#81b0c4}.st27{fill:#1d1919}</style><path class="st16" d="M102.1 68.9c0 28.3-22.5 51.3-50.2 51.3S1.7 97.3 1.7 68.9s22.5-51.3 50.2-51.3 50.2 23 50.2 51.3"/><path class="st17" d="M3.7 81.6S.1 28.1 49.4 26.5L46 20.8l-26.8 9-7.7 8.8-6.6 12.8-3.8 14.9 1.1 10"/><path class="st18" d="M17.5 33.9c-8.8 9-14.3 21.5-14.3 35.2 0 13.8 5.5 26.2 14.3 35.2 8.8 9 20.9 14.6 34.4 14.6 13.4 0 25.5-5.5 34.4-14.6 8.8-9 14.3-21.5 14.3-35.2 0-13.8-5.5-26.2-14.3-35.2-8.8-9-20.9-14.6-34.4-14.6-13.4 0-25.6 5.6-34.4 14.6zm-2.2 72.6C5.9 96.9.1 83.7.1 69.1c0-14.6 5.8-27.8 15.1-37.4 9.4-9.6 22.3-15.5 36.6-15.5s27.2 6 36.6 15.5c9.4 9.6 15.1 22.8 15.1 37.4 0 14.6-5.8 27.8-15.1 37.4C79 116.1 66.1 122 51.8 122c-14.2 0-27.2-5.9-36.5-15.5z"/><path class="st19" d="m73 69.2-7.7 1.1L55 71.5l-6.7.2-6.5-.2-5-1.5-4.4-4.8-3.4-9.8-.8-2.1-4.6-1.5-2.6-4.5-1.9-6.3 2.1-5.5 5-1.7 4 1.9 1.9 4.2 2.3-.4.8-1-.8-4.4-.2-5.5 1.1-7.7v-4.4l3.5-5.6 6.1-4.4L55.6 2l11.9 1.7 10.3 7.4 4.8 7.7 3.1 5.5.8 13.8L84.1 50l-4.2 10.5-4 5.6"/><path class="st20" d="m66.5 102.3-27.3 1.1v4.6l2.3 16.1-1.1 1.3-19.1-6.5-1.3-2.3-2-21.7-4.5-13-1-3.1 15.3-10.5 4.8-1.9 4.2 5.2 3.6 3.2 4.2 1.3 1.9.6 2.3 10 1.7 2.1 4.4-1.5-3.1 6 16.6 7.9-1.9 1.1"/><path d="m21.2 35.6 5-1.7 4 1.9 1.9 4.2 2.3-.4.6-2.3-1.1-4.4L35 22.4l-1-5.7 3.4-4 7.4-5.9-2.1-2.9L32.2 9l-4.4 3.4-2.5 5.3-3.8 5.2-1.1 6.1.8 6.6" style="fill:#6d6b6d"/><path class="st22" d="M29 17.6s2.9-7.1 14.3-10.5.6-2.5.6-2.5L31.5 9.4l-4.8 4.8-2.1 3.8 4.4-.4M23.3 34.2s-4-13.4 11.3-15.3l-.6-2.3-10.5 2.5-3.1 10 .8 6.5 2.1-1.4"/><path class="st23" d="m29.4 52 2.5-2.4s1.1.1 1.3 1.5c.2 1.3.8 13.4 9 19.9.8.6-6.1-1-6.1-1L30 60.4M64.6 48.3s.4-5.8 2-5.3c1.6.4 1.6 2 1.6 2s-3.8 2.5-3.6 3.3M80.4 27.1s-3.2.6-3.4 3.4c-.3 2.8 3.4.6 4 .4M57.3 27.3s-4.2.6-4.2 3.2 4.8 2.5 6.1 1.3M31.3 39.8s-7.2-4.4-8-.2-2.5 7.2 1.1 11.7l-2.4-.8-2.3-5.9-.8-5.7 4.4-4.6 5 .4 2.9 2.3.1 2.8M34.8 27.7S38 10.9 54.5 7.6c13.5-2.7 20.6.6 23.3 3.7 0 0-12.1-14.3-23.5-10-11.5 4.4-19.9 12.4-19.7 17.6.3 8.8.2 8.8.2 8.8M79.1 13.2s-5.5-.2-5.7 4.8c0 0 0 .8.4 1.5 0 0 4.4-5 7.1-2.3"/><path class="st23" d="M54.9 20s-1-7.6-7.4-3.2c-4.2 2.9-3.8 6.9-3.1 7.7.8.8.6 2.3 1.1 1.3.6-1.1.4-4.5 2.5-5.5 2-1 5.5-2.1 6.9-.3"/><path class="st24" d="m36.9 71.7-18 8s7.4 29.6 3.6 38.8l-2.7-1-.2-11.3-5-21.4-2-5.8 18.7-12.6 5.6 5.3M38.7 88.1l2.6 3.1v11.5h-3s-.4-8-.4-9 .4-4.4.4-4.4M38.8 104.4l-8.6.4 2.5 1.7 6.1 1"/><path class="st20" d="m68.2 102.5 7.1-.2 1.7 17.6-7.2 1-1.6-18.4"/><path class="st20" d="m70.1 102.5 10.7-.6s4.4-11.1 4.4-11.7c0-.6 3.8-16.1 3.8-16.1l-8.6-9-1.7-1.5-4.6 4.6V86l-4 16.5"/><path class="st24" d="m74.9 101.1-6.7 1.3 1 5.3c2.5 1.1 6.7-1.9 6.7-1.9M75.1 67.7l13.4 10 .4-4.6-10.1-9.4-3.7 4"/><path class="st1" d="m45.4 140.1-4-16.1-2-11.9-.3-8.8 17.9-1h11.1l-1 20.1L69 138l-.2 2.9-14.6 1.1-8.8-1.9"/><path class="st22" d="M65.8 102.3s-1 19.9 1.9 34c0 0-5.7 3.6-14.1 4.6l16.1-.6 1.9-1.1-2.3-31.3-.6-6.7"/><path class="st1" d="m77.3 118.3 7.4-2.1 14.1-.8 2.1-6.5-3.8-11.3-4.4-.6-6 2-5.8 2.9-3.1-.6-2.4 1"/><path class="st22" d="M77.2 114.5s5-2.3 5.7-2.1l-2.1-10.5 2.5-1s1.7 10 1.7 11.1c0 0 10.7.6 11.7.6 0 0 2.3-4.4 1.7-9l2.1 6.1.2 3.4-3.1 4.6-3.4.8-5.7-.2-1.9-2.5-6.7 1-2.1.8"/><path class="st1" d="m69.7 100.9-4.2-10.7-4.4-6.3s1-2.7 2.3-2.7h4.4l4.2 1.5-.4 7.1-1.9 11.1"/><path class="st22" d="M70.5 97.3S65.2 87 65.2 85.4c0 0 1-2.3 2.3-1.7 1.3.6 4.2 2.1 4.2 2.1v-3.6l-6.5-1.3-4.4.6L68.2 99l1.5.2"/><path class="st1" d="m47.1 72.1-5.3-.6-5-1.5v1.7l2.4 2.7 7.7 3.4"/><path class="st22" d="M38.6 72.6s5.9 2.5 7.9 1.9l.2 2.3-5.3-1.1-3.2-2.3.4-.8"/><path class="st16" d="M77.3 81.9c-3.2-.1-6.2-.5-8.7-1.2.2-1.1-.2-2.1.1-2.8.7-.5 1.9-.5 3-.6-.9-.4-2.3-.6-3.3-.4 0-.7-.4-1.2-.6-1.7 1.8-.6 6.1-4.9 8.5-3.5 1.2.7 1.7 4.5 1.7 6.4.2 1.4-.1 3-.7 3.8"/><path class="st25" d="M77.3 81.9c-3.2-.1-6.2-.5-8.7-1.2.2-1.1-.2-2.1.1-2.8.7-.5 1.9-.5 3-.6-.9-.4-2.3-.6-3.3-.4 0-.7-.4-1.2-.6-1.7 1.8-.6 6.1-4.9 8.5-3.5 1.2.7 1.7 4.5 1.7 6.4.2 1.4-.1 3-.7 3.8z"/><path class="st16" d="M61.8 76.6v.7c-1 .6-2.6.6-3.8 1.2 1.6.1 2.9.5 4 1 0 .6 0 1.3-.1 1.9-1.9 1.3-3.6 3.2-5.7 4.4-1.1.6-4.7 2-5.7 1.7-.6-.2-.7-.9-.9-1.7-.5-1.5-1.7-4-1.9-6.4-.1-3-.4-7.9 2.8-7.3 2.6.5 5.6 1.7 7.6 2.8 1.2.7 1.9 1.5 3.7 1.7"/><path class="st25" d="M61.8 76.6v.7c-1 .6-2.6.6-3.8 1.2 1.6.1 2.9.5 4 1 0 .6 0 1.3-.1 1.9-1.9 1.3-3.6 3.2-5.7 4.4-1.1.6-4.7 2-5.7 1.7-.6-.2-.7-.9-.9-1.7-.5-1.5-1.7-4-1.9-6.4-.1-3-.4-7.9 2.8-7.3 2.6.5 5.6 1.7 7.6 2.8 1.2.7 1.9 1.5 3.7 1.7z"/><path class="st16" d="M63.6 80.1c-.3-1.6-.6-2.1-.5-3.5 4.4-2.8 5.2 5 .5 3.5"/><path class="st25" d="M63.6 80.1c-.3-1.6-.6-2.1-.5-3.5 4.4-2.8 5.2 5 .5 3.5z"/><path class="st17" d="M69.9 81.4s-1.3-1.9-.4-2.5c1-.6 1.9 0 2.5-1 .6-1 0-1.5.2-2.7s1.1-1.3 2.1-1.5c1-.2 3.6-.6 4 .4l-1.1-3.4-2.3-.8-7.2 4.2-.4 2.1v4.2M49.8 87.7c-.2-3-.5-6-.7-8.9-.4-4.5 1.1-3.7 4.9-3.7.6 0 3.6.7 3.8 1.1 1.1 2.1-1.7 1.7 1.2 3.3 2.5 1.3 6.9-.8 5.9-3.8-.5-.7-2.9-.2-3.7-.7-1.5-.8-3-1.5-4.5-2.3-1.9-1-6.3-2.4-8.3-1.1-5.1 3.5.3 12.2 2.1 15.9"/><path class="st18" d="M54.9 20c-5.2-1.2-7.8 2.2-9.4 5.7-1.4-.3-.9-2.3-.5-3.2.9-2.6 4.7-6 7.8-5.5 1.3.1 3 1.3 2.1 3M80.2 25.9h.2c1.2 2.4 2.2 5 3.7 7.2-1 2.3-7.5 4.4-7.4.2 1.4-.6 3.8-.1 5.1-.9-.7-1.9-1.7-3.6-1.6-6.5M57.5 26c1.1 2.1 1.5 4.2 3.1 5.7.7.7 2.1 1.5 1.4 3.5-.2.4-1.3 1.5-2 1.7-2.5.7-8.3.2-6.3-3 2.1.1 4.8 1.3 6.4-.2-1.3-1.8-3.4-5.5-2.6-7.7M79.3 46.8c-3.7 2.4-7.9 5-14 4.4-1.3-1.1-1.8-3.7-.5-5.3.6 1.1.2 3.2 2.1 3.6 3.5.6 7.5-2.1 10-3.1 1.5-2.6-.1-3.6-1.5-5.3-2.9-3.4-6.7-7.7-6.6-12.9 1.2-.9 1.3 1.3 1.4 1.7 1.5 3.5 5.3 8 8 11 .7.7 1.8 1.5 1.9 1.9.3 1.4-.9 3.1-.8 4M30 44.3c-1.2-.7-1.5-3.6-2.8-3.7-2-.1-1.6 3.8-1.6 6.1-1.3-1.2-1.6-5-.6-7-1.1-.6-1.6.6-2.3 1 .8-5.8 8.6-2.6 7.3 3.6M81.7 49.3c-1.7 3.3-4.2 7-9.3 7.1-.1-1.1-.2-2.7 0-3.4 3.9-.4 6.3-2.4 9.3-3.7M57.2 51.4c3.2 1.7 9.2 1.9 13.7 1.8.2 1 .2 2.2.2 3.4-5.7.2-12.4-1.2-13.9-5.2M56.6 54.6c2.3 5.7 10 5 16.5 4.9-.3.7-.9 1.6-1.7 1.9-2.1.9-7.9 1.5-10.8 0-1.8-1-3-3.2-4-4.5-.4-.7-2.9-2.3 0-2.3"/><path class="st26" d="M79 85.8c-2.6 4.5-5.2 9.2-8.3 13.2 1.3-3.8 1.9-10.3 2.1-15.3 2.7-1.3 5.1.3 6.2 2.1"/><path class="st18" d="M93.2 102.1c-3 .6-5 3.5-7.9 3.3 1.6-2.3 4.4-3.2 7.9-3.3M94.5 106.7c-2.4.2-5.3.6-7.7.4 1.2-1.7 5.7-1.1 7.7-.4M95.4 110.7c-2.7 0-6.1 0-8.7-.2 1.6-1.7 6.9-.6 8.7.2"/><path class="st22" d="M73.9 121.6c.4 3.4 1.7 6.8 1.6 10.6-1.5.5-2.3.9-4.4.9-.1-3.2-.6-8-.4-11.1 1 .2 2.4-.6 3.2-.4"/><path class="st19" d="M69.6 71.4c-1.4.9-2.5 2-3.8 3-2.9.2-4.5-.2-6.6-1.9 0-.1.2-.1.2-.2 3.1 1.4 7-.6 10.2-.9"/><path class="st26" d="M53.3 92.6c.9-3.7 4.2-5.6 7.2-7.7 3.1 4 5 9.1 7.1 14-4.9-1.4-10-3.8-14.3-6.3"/><path class="st18" d="M70.7 122.1c-.1 3 .3 7.9.4 11.1 2 0 2.9-.4 4.4-.9.2-3.7-1.2-7.2-1.6-10.6-.8-.3-2.2.5-3.2.4zm-31.3-17.2c1.3 12.2 3.2 22.4 6.8 33.2 7.8 2.4 17.2 2.6 24.1.4-1.3-6.1-.7-13.5-1.5-20-.6-4.9-.3-9.8-1.1-14.8-8.3-1.6-20.1-.3-28.3 1.2zm30.4-1c-.1 5.2.2 10.4.6 15.6 2-.3 3.4-.5 5.2-.9-.6-5-.5-10.7-1.8-15.2-1.3.1-2.6 0-4 .5zM80 103c-1-.2-2.1 0-3 0 .4 4.3 1.5 8.9 1.8 13.4 1.4 0 2.2-.6 3.4-.9.1-3.8-.3-9.2-2.2-12.5zm15.4 14.1c3-.7 4.9-4.4 4-8.1-.6-2.5-1.5-7.3-2.6-8.9-.8-1.2-2.9-2.8-4.7-1.7-2.8 1.8-7.7 2.3-9.7 4.5 1 3.4 1.3 8 1.7 12.3 3.5.2 7.7-1 10.6.3-2 .6-4.6.6-6.4 1.6 1.6.7 4.9.6 7.1 0zM67.6 99c-2.1-4.9-4-10-7.1-14-3 2-6.4 4-7.2 7.7 4.3 2.4 9.4 4.8 14.3 6.3zm5.2-15.3c-.2 4.9-.8 11.4-2.1 15.3 3.1-4 5.7-8.6 8.3-13.2-1.1-1.8-3.5-3.4-6.2-2.1zm-5.9-2.1c-1.2-.1-2.2 1.4-3.7.7-.4.4-.7.8-1.1 1.2 3.4 4.1 5 10 7.6 14.8 1.4-4.7 1.3-9.7 1.6-14.8-1.9.2-3-1.7-4.4-1.9zm-3.7-5c-.1 1.4.2 1.9.5 3.5 4.6 1.5 3.8-6.3-.5-3.5zM58 74.9c-2-1.1-5-2.3-7.6-2.8-3.2-.6-2.9 4.4-2.8 7.3.1 2.3 1.3 4.8 1.9 6.4.2.7.3 1.5.9 1.7 1.1.2 4.7-1.2 5.7-1.7 2.2-1.2 3.9-3.1 5.7-4.4 0-.6 0-1.3.1-1.9-1.1-.6-2.4-.9-4-1 1.1-.6 2.8-.6 3.8-1.2v-.7c-1.7-.2-2.4-1-3.7-1.7zm-19-3.4c-1.7 1.7 4.7 4 6.6 4.1 0-1.1.6-2.1.5-2.8-2.4-.4-5.5-.2-7.1-1.3zm20.4.8c0 .2-.2.1-.2.2 2.1 1.7 3.7 2 6.6 1.9 1.3-.9 2.5-2.1 3.8-3-3.2.3-7.1 2.3-10.2.9zm18.7 5.6c-.1-1.9-.6-5.7-1.7-6.4-2.4-1.4-6.7 2.9-8.5 3.5.2.6.5 1 .6 1.7 1.1-.3 2.4-.1 3.3.4-1.1.1-2.3.1-3 .6-.2.8.1 1.8-.1 2.8 2.6.7 5.5 1.1 8.7 1.2.5-.6.8-2.2.7-3.8zm-41.9-4.8c-.5-.4-4-4.9-4.5-4.7-6.4 2.5-12.3 6.8-17.6 11 5.1 10.9 7.1 24.2 7.5 37 5.8 2.7 10.9 6.6 18.8 7-.9-6.4-1.7-12.2-2.3-18.3-2-.9-4.8 0-6.7-.2 0-2.2 2.8-1 3.1-2.5.2-1.1-1.6-1.2-1-3 1.5.5 2.2 1.7 3.8 2.1 1.4-3.1 0-8.5.2-11.1 0-.5.2-2.7 1.3-2.3 1 .3 0 5.9 0 8.3.1 2.3-.3 4.4.6 5.8 7.6-1.1 15.3-1.7 23.6-1.9-1.8-.8-4-1.5-6.3-2.8-1.3-.7-5.3-2.2-5.7-3.4-.6-1.9 1.5-3 1.9-4.6-3.8 2.1-4.6-2-5.5-4.9-.8-2.6-1.3-4.6-1.5-6.1-3.3-1.8-6.9-3.3-9.7-5.4zm38.5-4.2c5.3-2.6 6.3 9.6 4.2 13.5.3 1.2 1.4 1.6 1.9 2.7-3 5.3-6.2 10.2-9.3 15.5 2.2-1.4 5.5-.2 8.1-1.3 1-.4 1.7-2.6 2.4-4.4 2-4.9 4.1-11 5.1-15.6.2-1.1.8-3.4.6-4.3-.2-1.7-2.5-3-3.7-4-2.1-1.9-3.5-3.6-5.7-5.4-.9 1.3-2.8 2.2-3.6 3.3zm-50.6-47c-2.5 2.8-2 8-1.7 11.7 4.6-2.9 10.6.3 10.6 5.1 2.2 0 .8-2.7.4-4.5-1.3-5.6 2.2-11.7.2-16.8-4 .3-7.2 1.9-9.5 4.5zm18-16.1c-5.7 1.6-13 5.8-15.4 10.9 1.8-.3 3.1-1.2 4.9-1.3.7 0 1.6.3 2.3.1 1.5-.4 2.9-3.9 4-5.2 1.1-1.3 2.5-1.8 3.4-3 .8-.2 1.7-.2 1.7-1.1-.2-.3-.5-.5-.9-.4zm29.8 1.5c-6-3.4-16-5.9-22.3-2.7-5.1 2.6-12 6.8-14.3 12.1 2.2 5.1-.6 9.8-.9 15.1-.1 2.8 1.3 5.2 1.4 8.2-.8 1.3-3 1.4-4.6 1.3-.5-2.7-1.5-5.7-4.2-6-3.9-.4-6.8 2.8-6.9 6.2-.2 4 3 10.5 7.7 10.1 1.8-.2 2.2-1.9 4.2-1.9 1.1 2.1-1.6 2.8-1.9 4.3-.1.4.2 1.9.4 2.6.9 3.4 2.7 7.9 4.5 10.6 2.3 3.4 6.9 3.8 11.9 4.2.9-1.9 4.1-1.7 6.2-1.3-2.6-1-4.9-3.4-6.8-5.6-2.2-2.5-4.5-5.1-4.6-8.3 4.3 5.9 7.7 11 15.4 13.6 5.8 1.9 12.6-.9 17.1-4 1.9-1.3 3-3.4 4.3-5.3 4.9-7.1 7.2-17.2 6.8-27.1-.2-4-.2-8.1-1.6-10.8-1.4-2.8-6.2-5.4-9.1-2.8-.6-3.1 2.3-4.8 5.6-3.8-2.3-3.1-4.9-6.8-8.3-8.7zM83 98.8c4.7-2.3 13.3-6.2 16.2 0 1.1 2.3 2.3 6.2 2.9 8.5.8 3.3-.9 10.4-4.3 11.5-3 1-6.6.9-10.2.2-.4-.4-.9-1-1.3-1.6-2.6-.1-5.1.1-7.1 1.2.2 1.9-1.1 2.2-2.3 2.6-.9 3.6 1.8 8.3 1.2 11.5-.4 2.3-3.3 2.7-5.4 3.1-.1 1.3.1 2.4.2 3.5-.5 1.8-2.6 2.8-4.7 3-6.8.8-17 1.2-23.5-1.2-1.8-4.5-3.2-9.8-4.7-14.9-6.3.7-11.5-2.7-16.3-5-1.7-.8-4-1.2-4.6-2.6-.6-1.3-.4-3.8-.5-6.1-.4-6-.7-11.7-2.3-17.8-.7-2.8-1.9-5.1-2.8-7.8-.8-2.4-2.2-5.5-2.6-7.9-.5-3.6 2.9-3.8 5-5.4 3.4-2.4 6-3.8 9.6-6 1.1-.6 4.3-2.3 4.7-3 .7-1.5-1.3-3.6-1.8-4.8-.9-1.9-1.3-3.4-1.4-5.3-3-.5-5.4-2.3-6.8-4.3-2.3-3.4-3.9-9.7-1.9-14.4.2-.4.9-1.1 1.1-1.7.2-1.1-.4-2.6-.5-3.8-.2-6.2 1.1-11.5 5.2-13.4 1.7-6.8 7.8-9 13.5-12.3 2.1-1.3 4.5-2.1 6.9-3C53.3-1.3 66.7-.7 74 4.8c3.1 2.3 8 7.2 9.7 10.8 4.7 9.4 4.3 25 1.1 36.4-.4 1.5-1.1 3.8-1.9 5.6-.6 1.3-2.5 3.8-2.3 5 .2 1.2 4.4 4.3 5.3 5.1 1.6 1.5 4.6 3.6 4.9 5.5.3 2.1-.9 4.9-1.5 6.9-2.1 6.7-4.1 12.8-6.3 18.7z"/><path class="st23" d="M52 52.8c.2-.3 1.6-.9 3.6.1 0 0-2.3.4-2.1 4.2l-1-.2c.1.1-1-3.4-.5-4.1"/><path class="st27" d="M68.8 85.7c0 .6-.5 1.1-1.1 1.1-.6 0-1.1-.5-1.1-1.1s.5-1.1 1.1-1.1c.6.1 1.1.6 1.1 1.1M69.8 90.6c0 .6-.5 1.1-1.1 1.1s-1.1-.5-1.1-1.1.5-1.1 1.1-1.1c.7.1 1.1.5 1.1 1.1"/><path class="st18" d="M13.7-214.6c-.3 0-.6.1-.9.1-.2 0-.5.1-.8.2-.4.1-.6.2-.6.5-.1.2-.2.5-.2.8v9.9c0 .9-.2 1.7-.6 2.5-.4.8-.9 1.4-1.5 1.9s-1.4.9-2.2 1.1c-.8.2-1.7.4-2.6.4-1.6 0-2.8-.4-3.8-1.1-1-.8-1.5-1.8-1.5-3.1 0-.8.2-1.4.6-1.9.4-.5 1.1-.8 1.8-.8s1.3.2 1.7.6.6 1 .6 1.6c0 .5-.2 1.1-.6 1.5-.4.4-.8.9-1.3 1.3v.2c.1.2.2.3.5.4s.5.2.8.2c1 0 1.8-.4 2.4-1.1s.9-1.8.9-3.3v-10.1c0-.3 0-.6-.1-.8-.1-.2-.3-.4-.7-.5-.2-.1-.6-.2-.9-.3-.4-.1-.6-.1-.9-.2v-1h9.6v1h.3zM28.7-200.6c-.3.5-.6.9-1.1 1.4-.4.4-.9.8-1.4 1.1-.6.3-1.1.6-1.7.7s-1.3.2-2 .2c-1.3 0-2.3-.2-3.2-.5-.9-.4-1.7-.8-2.2-1.4-.6-.6-1-1.3-1.3-2.1-.3-.8-.4-1.7-.4-2.6 0-.9.2-1.7.5-2.5s.8-1.5 1.3-2.1a7.173 7.173 0 0 1 5.1-2.1c1.2 0 2.1.2 2.9.4.8.3 1.4.7 1.9 1.2s.8 1.1 1.1 1.7c.2.6.3 1.3.3 2.1v.8H20c0 1.7.3 3 1 3.9.6.9 1.7 1.3 3.2 1.3.8 0 1.5-.2 2.1-.6.6-.4 1.2-1 1.6-1.7l.8.8zm-4.8-4.9c0-.5 0-1-.1-1.5 0-.5-.1-1-.3-1.3-.2-.4-.3-.7-.6-.9-.2-.2-.6-.3-.9-.3-.6 0-1.2.3-1.5 1-.4.6-.6 1.7-.6 3.1l4-.1zM46.5-197.6h-7.6v-.9c.2 0 .4 0 .6-.1.2 0 .4-.1.5-.1.2-.1.3-.2.4-.4.1-.2.1-.4.1-.8v-5.9c0-.9-.2-1.5-.5-1.9s-.8-.6-1.4-.6c-.3 0-.6 0-.9.2-.3.1-.6.2-.9.4-.2.2-.4.3-.6.5-.2.2-.3.3-.4.5v6.8c0 .3 0 .5.1.7.1.2.2.4.4.4.1.1.3.2.5.2s.4.1.6.1v.9h-7.7v-.9c.2 0 .4 0 .6-.1.2 0 .4-.1.6-.1.3-.1.4-.2.6-.4.1-.2.2-.4.2-.8v-7.4c0-.2-.1-.5-.2-.8-.1-.2-.3-.4-.5-.6-.2-.1-.3-.2-.6-.2-.2-.1-.5-.1-.8-.1v-.9l6-.3.2.2v1.8c.2-.2.5-.4.9-.8.3-.3.6-.5.9-.7.3-.2.7-.4 1.2-.5.5-.2 1.1-.2 1.6-.2 1.4 0 2.4.4 3.1 1.2s1 1.8 1 3.1v6.2c0 .3 0 .6.1.7.1.2.3.3.5.4.1 0 .3.1.5.2.2 0 .4.1.7.1l.2.9zM64-197.6h-6c-.7-1.3-1.4-2.4-2-3.3-.6-.9-1.2-1.7-1.7-2.5l-.7.6v2.8c0 .3 0 .6.1.7.1.2.2.3.5.4.2.1.3.1.5.2.2 0 .4.1.6.1v.9h-7.9v-.9c.2 0 .4 0 .6-.1.2 0 .4-.1.6-.1.3-.1.4-.2.6-.4.1-.2.2-.4.2-.8v-14.1c0-.3-.1-.6-.2-.9-.1-.3-.3-.5-.5-.7-.2-.1-.4-.2-.7-.2-.3-.1-.6-.1-.9-.1v-.9l6.3-.3.2.2v13c.6-.6 1.3-1.2 2.1-1.9s1.4-1.3 1.9-1.8c.3-.3.4-.5.4-.6v-.3c0-.2-.1-.3-.4-.4s-.6-.2-1.2-.3v-.9h6.4v.9c-.9.2-1.5.4-1.9.6-.4.2-.9.5-1.5.8-.4.2-.7.5-1 .7-.3.2-.7.6-1.1.9.8 1.2 1.6 2.3 2.3 3.3.7 1 1.4 2.1 2.2 3.2.2.4.6.6 1 .8.4.1.8.2 1.2.2v1z" transform="translate(.992 367.132)"/><path class="st18" d="M72-197.6h-8v-.9c.2 0 .4 0 .6-.1s.4-.1.5-.1c.3-.1.4-.2.6-.4.1-.2.2-.4.2-.8v-7.4c0-.3-.1-.6-.2-.8-.1-.2-.3-.4-.5-.5-.2-.1-.4-.2-.7-.3-.3-.1-.6-.2-.9-.2v-.9l6.2-.3.2.2v10c0 .3.1.5.2.8.1.2.3.4.5.4.2.1.4.2.6.2s.4.1.6.1l.1 1zm-1.8-17.3c0 .6-.2 1.2-.7 1.6-.5.4-1.1.7-1.7.7-.7 0-1.3-.2-1.8-.7-.5-.4-.7-1-.7-1.6 0-.6.2-1.2.7-1.7.5-.4 1.1-.7 1.8-.7s1.3.2 1.7.7c.5.5.7 1.1.7 1.7zM89.9-197.6h-7.6v-.9c.2 0 .4 0 .6-.1.2 0 .4-.1.5-.1.2-.1.3-.2.4-.4.1-.2.1-.4.1-.8v-5.9c0-.9-.2-1.5-.5-1.9-.3-.4-.8-.6-1.4-.6-.3 0-.6 0-.9.2-.3.1-.6.2-.9.4-.2.2-.4.3-.6.5-.2.2-.3.3-.4.5v6.8c0 .3 0 .5.1.7.1.2.2.4.4.4.1.1.3.2.5.2s.4.1.6.1v.9h-7.7v-.9c.2 0 .4 0 .6-.1.2 0 .4-.1.6-.1.3-.1.4-.2.6-.4.1-.2.2-.4.2-.8v-7.4c0-.2-.1-.5-.2-.8-.1-.2-.3-.4-.5-.6-.2-.1-.3-.2-.6-.2-.2-.1-.5-.1-.8-.1v-.9l6-.3.2.2v1.8c.2-.2.5-.4.9-.8.3-.3.6-.5.9-.7.3-.2.7-.4 1.2-.5.5-.2 1.1-.2 1.6-.2 1.4 0 2.4.4 3.1 1.2.7.8 1 1.8 1 3.1v6.2c0 .3 0 .6.1.7.1.2.3.3.5.4.1 0 .3.1.5.2.2 0 .4.1.7.1l.2.9zM96.9-197.2c-.8 0-1.6-.1-2.4-.4-.8-.2-1.4-.5-1.8-.8l-.4.9h-1l-.2-4.7h.9c.1.4.3.8.6 1.3s.6.9 1 1.3.9.7 1.4 1c.5.2 1.1.4 1.6.4.8 0 1.3-.2 1.7-.4.4-.3.6-.8.6-1.4 0-.3-.1-.6-.2-.9-.2-.2-.4-.4-.7-.6-.3-.2-.7-.3-1.1-.4-.4-.1-.9-.2-1.5-.4s-1.1-.3-1.5-.5c-.4-.2-.9-.4-1.3-.8-.4-.3-.7-.7-.9-1.2-.2-.4-.3-1-.3-1.7 0-1.2.5-2.1 1.5-2.9 1-.7 2.3-1.1 3.9-1.1.8 0 1.5.1 2.1.2.6.2 1.2.3 1.6.5l.3-.7h1l.2 4.3h-.9c-.3-.9-.8-1.6-1.5-2.3-.7-.6-1.5-1-2.3-1-.6 0-1.2.1-1.5.4-.4.3-.6.6-.6 1.1 0 .6.3 1.1.8 1.4.5.3 1.3.6 2.3.8 1.5.4 2.6.9 3.3 1.6.7.7 1.1 1.5 1.1 2.6 0 1.4-.5 2.5-1.6 3.2-1 .8-2.5 1.2-4.2 1.2z" transform="translate(.992 367.132)"/></svg>