<svg xmlns="http://www.w3.org/2000/svg" viewBox="0 0 340 356.42"><defs><style>.cls-1{fill:#44417f}.cls-4{fill:#e24329}.cls-5{fill:#fc6d26}.cls-6{fill:#fca326}</style></defs><g id="Layer_2" data-name="Layer 2"><g id="design"><path class="cls-1" d="M0 271.73c3.32-9.16 10.34-12.31 19.5-12.18 8.16.11 16.34-.16 24.5.08 12.36.36 18.58 7.29 18 19.57-.09 2-.36 3.9-2.42 4.43-3.14.81-6.19 3-9.56 1.67-1.64-.63-1-2.64-1-4.08-.25-8-1.88-9.61-9.82-9.63-6.17 0-12.33-.09-18.5 0-5.38.1-7.73 2.26-7.78 7.58-.13 15.5 0 31 0 46.49 0 4.63 2.36 7 6.91 7.51a122.67 122.67 0 0 0 21 .15c6.59-.45 8-2.55 8.34-9.34.09-2.08-1.68-5.5 2.66-5.62 4.71-.13 9.91 3 10.26 6 1.38 11.93-4.18 19.32-16.15 20.71-9.44 1.1-19 .55-28.45.25-8.31-.24-14.25-3.9-17.49-11.59ZM200.16 304.26c0-9.69-.07-17.36 0-25 .15-13.68 5.91-19.5 19.5-19.65 8.17-.09 16.34-.19 24.5 0 13 .35 19.17 7.4 18 20.31-.58 6.2-6.18 4.73-9.67 5.59-4.1 1-2.86-3-3-5.17-.46-6.94-2.23-8.73-9.23-8.78-6.17 0-12.33-.07-18.5 0-6 .08-8.47 2.21-8.53 8-.15 15.16-.08 30.33 0 45.5 0 4.87 2.25 8 7.41 8.16 6.82.19 13.66.5 20.46.13s8-2.32 8.44-9.21c.13-2.14-1.45-5.5 2.65-5.75 5-.31 9.83 3 10 6.58.67 13.37-4.06 19.25-17.47 20.26-10.11.76-20.31 1-30.42-.41-8.06-1.15-12.52-5.57-13.59-13.62-1.31-9.63-.16-19.32-.55-26.94ZM114.16 302.67c0 9 .11 18-.06 27-.06 3 .82 4.1 3.93 4 5.32-.23 10.66.07 16-.11 3-.1 4 .92 4.05 4 .07 8.06.21 8.06-7.64 8.06-15.83 0-31.66-.19-47.48.11-5.15.1-5.6-2.35-5.61-6.42s.77-6.21 5.5-5.78 9.67-.11 14.48.16c3.41.2 4.19-1.11 4.17-4.3q-.19-27 0-54c0-3.19-1.07-4-4-3.84-4.66.21-9.33-.07-14 .09-5.48.19-4.33-3.66-4.52-6.87s.34-5.29 4.48-5.24q24.49.29 49 0c4.75-.06 4.44 2.69 4.43 5.82s.45 6.55-4.58 6.31c-4.82-.23-9.67.09-14.49-.1-2.83-.11-3.75.79-3.7 3.67.15 9.11.04 18.28.04 27.44Z"/><path d="M171.06 285.72c4.23 4.46 8.44 8.95 12.71 13.37a5.51 5.51 0 0 1 .95 7.23q-13.24 24-26.43 48.06c-.51.92-.8 2.6-2.36 1.87s-.54-2-.3-3.09c2.92-13.13 5.83-26.27 8.8-39.39a18 18 0 0 0 .7-5.9c0-7 2.37-13.49 3.93-20.16a2.73 2.73 0 0 1 2-1.99Z" style="fill:#fba226"/><path d="M171.06 285.72c-2.09 5.53-2.78 11.41-4.14 17.12a47.23 47.23 0 0 1-1.79 5c-4-4.21-8-8.48-12.05-12.6-2.39-2.4-2.51-4.8-.95-7.64 8.72-15.86 17.39-31.75 26.13-47.6.49-.89.78-2.69 2.29-2.06 1.7.71.67 2.37.41 3.53-3.25 14.77-6.58 29.53-9.9 44.25Z" style="fill:#e14329"/><path class="cls-1" d="M320.64 259.53q-19.23.2-38.47 0c-3.24 0-4.39 1-4.38 4.3q.13 38.72 0 77.44c0 3.31 1.3 4.38 4.45 4.36 12.82-.09 25.65 0 38.47-.07 8.72-.07 15.91-2.89 19.29-11.81v-62c-3.09-9.42-10.19-12.31-19.36-12.22Zm6.5 64.89c-.06 6.47-1.57 8.5-8.08 8.86-8.45.47-16.95.17-25.42.31-2.23 0-2.83-.91-2.83-3q.07-28.18 0-56.36c0-2.31 1-2.74 3-2.73 8.65.07 17.29-.07 25.94.07 5.12.09 7.22 2.21 7.33 7.41.16 7.81 0 15.63 0 23.44.08 7.37.13 14.68.06 22Z"/><path class="cls-4" d="m169.51 183.73 36.75-113h-73.5l36.75 113Z"/><path class="cls-5" d="m169.51 183.73-36.75-113H81.32l88.19 113Z"/><path class="cls-6" d="M81.32 70.68 70.19 105a7.7 7.7 0 0 0 2.81 8.59l96.51 70.14-88.19-113Z"/><path class="cls-4" d="M81.32 70.68h51.44l-22-68.09a3.82 3.82 0 0 0-7.24 0l-22.2 68.09Z"/><path class="cls-5" d="m169.51 183.73 36.75-113h51.44l-88.19 113Z"/><path class="cls-6" d="M257.7 70.68 268.83 105a7.7 7.7 0 0 1-2.81 8.54l-96.51 70.14 88.19-113Z"/><path class="cls-4" d="M257.7 70.68h-51.45l22.16-68.09a3.82 3.82 0 0 1 7.24 0l22 68.09Z"/></g></g></svg>