<svg version="1.1" id="layer" xmlns="http://www.w3.org/2000/svg" x="0" y="0" viewBox="0 0 500 653.8" style="enable-background:new 0 0 500 653.8" xml:space="preserve"><style>.st2{fill:#fefffd}.st3{fill:#7a7a7a}</style><switch><g><path d="M345.3 0H154.7c-12.1 0-23.3 6.5-29.4 17L29.9 182.1c-6.1 10.5-6.1 23.5 0 34l95.3 165.1c6.1 10.5 17.3 17 29.4 17h190.7c12.1 0 23.3-6.5 29.4-17L470 216.1c6.1-10.5 6.1-23.5 0-34L374.8 17c-6.1-10.5-17.3-17-29.5-17z" style="fill:#4683ed"/><path d="m326.5 150.5-19.4 37.4-30.4-30.4-26.7 6-20.8 8.9-21.9-21.9-44.9 15.7-1.9 42.8 19.2 19.2-31.6 20.4 149.6 149.6h47.6c12.1 0 23.3-6.5 29.4-17l66.8-115.7-115-115z" style="fill:#417bdc"/><path class="st2" d="M207.4 150.5h-42c-9.5 0-17.3 7.7-17.3 17.3v24.5c0 9.5 7.7 17.3 17.3 17.3h22.2v18.6h-33.9l-5.6 20.4h42c9.5 0 17.3-7.7 17.3-17.3v-24c0-9.5-7.7-17.3-17.3-17.3h-21.3v-19.5H202l5.4-20zM281.6 228.8v-58c0-11.2-9.1-20.3-20.3-20.3h-19.1c-11.2 0-20.3 9.1-20.3 20.3v57.4c0 11.2 9.1 20.3 20.3 20.3H290.8v-19.7h-9.2zm-19.7 0h-20.2v-58.6h20.2v58.6zM365.8 228.8h-39.3v-78.3H307v98.1h19.5v-.3h39.3z"/><path class="st3" d="M114.6 471.9h27.2V509c-4.4 1.4-8.7 2.5-12.8 3.1-4.1.6-8.5.9-13.3.9-11.2 0-19.8-3.3-25.9-9.9-6.1-6.6-9.1-16-9.1-28 0-11.9 3.4-21.2 10.3-27.9 6.8-6.7 16.3-10.1 28.2-10.1 7.7 0 15 1.5 21.9 4.4l-4.2 10.1c-6-2.8-12-4.1-18-4.1-7.9 0-14.1 2.5-18.7 7.4-4.6 5-6.9 11.7-6.9 20.3 0 9 2.1 15.9 6.2 20.6 4.1 4.7 10.1 7 17.8 7 3.9 0 8.1-.5 12.5-1.5v-19h-15.3v-10.4zM207.8 484c0 9.1-2.3 16.3-7 21.4-4.7 5.1-11.2 7.7-19.6 7.7-5.2 0-9.8-1.2-13.8-3.5-4-2.4-7.1-5.7-9.2-10.2-2.2-4.4-3.2-9.5-3.2-15.4 0-9.1 2.3-16.1 7-21.2 4.6-5.1 11.2-7.6 19.7-7.6 8.1 0 14.5 2.6 19.2 7.8 4.6 5.1 6.9 12.1 6.9 21zm-40.6 0c0 12.9 4.8 19.4 14.3 19.4 9.4 0 14.1-6.4 14.1-19.4 0-12.8-4.7-19.1-14.2-19.1-5 0-8.6 1.7-10.8 5-2.3 3.2-3.4 7.9-3.4 14.1zM271 484c0 9.1-2.3 16.3-7 21.4-4.7 5.1-11.2 7.7-19.6 7.7-5.2 0-9.8-1.2-13.8-3.5-4-2.4-7.1-5.7-9.2-10.2-2.2-4.4-3.2-9.5-3.2-15.4 0-9.1 2.3-16.1 7-21.2 4.6-5.1 11.2-7.6 19.7-7.6 8.1 0 14.5 2.6 19.2 7.8 4.6 5.1 6.9 12.1 6.9 21zm-40.6 0c0 12.9 4.8 19.4 14.3 19.4 9.4 0 14.1-6.4 14.1-19.4 0-12.8-4.7-19.1-14.2-19.1-5 0-8.6 1.7-10.8 5-2.3 3.2-3.4 7.9-3.4 14.1zM331.9 456.1v6.5l-9.5 1.8c.9 1.2 1.6 2.6 2.2 4.3.6 1.7.9 3.5.9 5.5 0 5.8-2 10.3-6 13.6-4 3.3-9.4 5-16.4 5-1.8 0-3.4-.1-4.9-.4-2.6 1.6-3.8 3.4-3.8 5.6 0 1.3.6 2.2 1.8 2.9 1.2.6 3.4 1 6.6 1h9.8c6.2 0 10.8 1.3 14 3.9 3.2 2.6 4.8 6.4 4.8 11.4 0 6.3-2.6 11.2-7.8 14.7-5.2 3.4-12.8 5.2-22.6 5.2-7.6 0-13.4-1.3-17.4-4s-6-6.5-6-11.5c0-3.4 1.1-6.3 3.3-8.7 2.2-2.3 5.2-4 9.1-4.9-1.6-.7-2.9-1.8-3.9-3.3-1-1.5-1.5-3.1-1.5-4.7 0-2.1.6-3.9 1.8-5.3 1.2-1.4 2.9-2.9 5.3-4.3-2.9-1.2-5.2-3.3-7-6.1-1.8-2.8-2.7-6.1-2.7-9.9 0-6.1 1.9-10.8 5.7-14.1 3.8-3.3 9.3-5 16.3-5 1.6 0 3.2.1 5 .3 1.7.2 3 .4 3.9.7h19zM288 520.7c0 2.6 1.2 4.5 3.5 5.9 2.3 1.4 5.6 2.1 9.7 2.1 6.5 0 11.3-.9 14.5-2.8 3.2-1.9 4.7-4.3 4.7-7.4 0-2.4-.9-4.2-2.6-5.2-1.7-1-5-1.5-9.7-1.5h-9c-3.4 0-6.1.8-8.1 2.4-2 1.6-3 3.8-3 6.5zm5.1-46.5c0 3.5.9 6.2 2.7 8.1 1.8 1.9 4.4 2.8 7.8 2.8 6.9 0 10.3-3.7 10.3-11 0-3.6-.9-6.4-2.6-8.4-1.7-2-4.3-3-7.8-3-3.4 0-6 1-7.8 2.9s-2.6 4.9-2.6 8.6zM354.1 512h-11.9v-78.6h11.9V512zM395.5 513c-8.7 0-15.5-2.5-20.4-7.6-4.9-5.1-7.4-12-7.4-20.9 0-9.1 2.3-16.3 6.8-21.5s10.8-7.8 18.7-7.8c7.4 0 13.2 2.2 17.5 6.7 4.3 4.5 6.4 10.6 6.4 18.5v6.4H380c.2 5.4 1.6 9.6 4.4 12.5 2.8 2.9 6.7 4.4 11.7 4.4 3.3 0 6.4-.3 9.2-.9 2.8-.6 5.9-1.7 9.2-3.1v9.7c-2.9 1.4-5.8 2.4-8.8 2.9-3 .4-6.4.7-10.2.7zm-2.2-48.9c-3.8 0-6.8 1.2-9.1 3.6-2.3 2.4-3.6 5.9-4.1 10.5h25.4c-.1-4.6-1.2-8.1-3.3-10.5s-5.1-3.6-8.9-3.6zM35.1 571.6c-6.9 0-12.4 2.5-16.4 7.4-4 4.9-6 11.7-6 20.4 0 9.1 1.9 15.9 5.7 20.6 3.8 4.6 9.4 7 16.6 7 3.1 0 6.2-.3 9.1-.9 2.9-.6 6-1.4 9.1-2.4v10.4c-5.8 2.2-12.4 3.3-19.7 3.3-10.8 0-19.1-3.3-24.9-9.8-5.7-6.8-8.6-16.2-8.6-28.4 0-7.7 1.4-14.4 4.2-20.2 2.8-5.8 6.9-10.2 12.2-13.2s11.6-4.6 18.7-4.6c7.5 0 14.5 1.6 20.9 4.7L51.7 576c-2.5-1.2-5.1-2.2-7.9-3.1-2.7-.8-5.7-1.3-8.7-1.3zM79.8 636.2H68v-78.6h11.9v78.6zM146.4 608.1c0 9.1-2.3 16.3-7 21.4-4.7 5.1-11.2 7.7-19.6 7.7-5.2 0-9.8-1.2-13.8-3.5-4-2.4-7.1-5.7-9.2-10.2-2.2-4.4-3.2-9.5-3.2-15.4 0-9.1 2.3-16.1 7-21.2 4.6-5.1 11.2-7.6 19.7-7.6 8.1 0 14.5 2.6 19.2 7.8 4.5 5.2 6.9 12.2 6.9 21zm-40.7 0c0 12.9 4.8 19.4 14.3 19.4 9.4 0 14.1-6.4 14.1-19.4 0-12.8-4.7-19.1-14.2-19.1-5 0-8.6 1.7-10.8 5-2.3 3.2-3.4 8-3.4 14.1zM199.4 636.2l-1.7-7.3h-.6c-1.7 2.6-4 4.6-7 6.1s-6.5 2.2-10.4 2.2c-6.8 0-11.8-1.7-15.2-5.1-3.3-3.4-5-8.5-5-15.3v-36.5h12v34.5c0 4.3.9 7.5 2.6 9.6 1.8 2.1 4.5 3.2 8.2 3.2 5 0 8.6-1.5 11-4.5 2.3-3 3.5-8 3.5-15v-27.8h11.9v55.9h-9.3zM244.5 637.2c-7 0-12.4-2.5-16.3-7.6-3.9-5.1-5.9-12.1-5.9-21.3 0-9.2 2-16.3 5.9-21.4 4-5.1 9.4-7.7 16.4-7.7 7.3 0 12.9 2.7 16.8 8.1h.6c-.6-4-.9-7.2-.9-9.5v-20.4H273V636h-9.3l-2.1-7.3h-.6c-3.5 5.7-9.1 8.5-16.5 8.5zm3.2-9.6c4.9 0 8.4-1.4 10.7-4.1 2.2-2.7 3.4-7.2 3.4-13.4v-1.7c0-7-1.1-12-3.4-15s-5.9-4.4-10.8-4.4c-4.2 0-7.4 1.7-9.7 5.1-2.3 3.4-3.4 8.2-3.4 14.5 0 6.2 1.1 10.9 3.3 14.2 2.3 3.2 5.5 4.8 9.9 4.8zM360.9 616.1c0 6.6-2.4 11.7-7.1 15.5-4.8 3.7-11.3 5.6-19.7 5.6-8.4 0-15.2-1.3-20.5-3.9v-11.4c3.4 1.6 6.9 2.8 10.7 3.7 3.8.9 7.3 1.4 10.6 1.4 4.8 0 8.3-.9 10.6-2.7 2.3-1.8 3.4-4.3 3.4-7.3 0-2.8-1-5.1-3.1-7-2.1-1.9-6.4-4.2-12.9-6.8-6.7-2.7-11.5-5.8-14.2-9.3-2.8-3.5-4.1-7.7-4.1-12.6 0-6.2 2.2-11 6.6-14.6 4.4-3.5 10.3-5.3 17.6-5.3 7.1 0 14.1 1.5 21.1 4.6l-3.8 9.9c-6.6-2.8-12.4-4.1-17.6-4.1-3.9 0-6.9.9-8.9 2.6-2 1.7-3 3.9-3 6.7 0 1.9.4 3.6 1.2 4.9.8 1.4 2.1 2.7 4 3.9 1.9 1.2 5.2 2.8 10 4.8 5.4 2.3 9.4 4.4 11.9 6.3 2.5 2 4.4 4.2 5.6 6.6 1 2.3 1.6 5.2 1.6 8.5zM440.8 599.1c0 9-1.7 16.5-5.1 22.6-3.4 6.1-8.4 10.4-14.9 12.9l17.7 19h-16.3L408.3 637h-2c-11.1 0-19.7-3.3-25.7-9.9-6-6.6-9-16-9-28.2s3-21.6 9-28.1 14.6-9.8 25.7-9.8c11 0 19.5 3.3 25.5 10s9 16.1 9 28.1zm-56.4 0c0 9.1 1.8 16 5.5 20.7 3.7 4.7 9.1 7 16.3 7 7.2 0 12.6-2.3 16.2-7 3.7-4.6 5.5-11.6 5.5-20.8 0-9.1-1.8-15.9-5.4-20.6-3.6-4.7-9-7-16.2-7-7.2 0-12.7 2.3-16.4 7-3.7 4.8-5.5 11.7-5.5 20.7zM456.6 636.2v-73.9h12.1v63.5H500v10.4h-43.4z"/></g></switch></svg>