<svg version="1.1" id="Layer_1" xmlns="http://www.w3.org/2000/svg" x="0" y="0" viewBox="0 0 500 126.7" style="enable-background:new 0 0 500 126.7" xml:space="preserve"><style>.st4{fill:#5f6368}</style><switch><g><path d="m86.7 38.8 4.4.1L103 27l.6-5C94 13.7 81.7 8.6 68.1 8.6c-24.6 0-45.3 16.7-51.4 39.3 1.3-.9 4.1-.2 4.1-.2l23.7-3.9s1.2-2 1.8-1.9C56.8 30.3 74.5 29 86.7 38.8z" style="fill:#ea4335"/><path d="M119.6 48c-2.7-10-8.3-19-16.1-25.9L86.7 38.8c7 5.6 11 14.1 11 23v3c8.2 0 14.8 6.6 14.8 14.8s-6.6 14.8-14.8 14.8H68.2l-3 3v17.8l3 2.9h29.6c21.2-.1 38.4-17.3 38.5-38.5-.1-13.1-6.7-24.7-16.7-31.6z" style="fill:#4285f4"/><path d="M38.5 118.1h29.6V94.4H38.5c-2.1 0-4.2-.5-6.1-1.3l-4.3 1.3-11.9 11.9-1 4c6.7 5.1 14.9 7.9 23.3 7.8z" style="fill:#34a853"/><path d="M38.5 41.1C17.2 41.2 0 58.4 0 79.6c0 12 5.6 23.4 15.3 30.7l17.2-17.2c-5.3-2.4-8.7-7.7-8.7-13.5 0-8.2 6.6-14.8 14.8-14.8 5.8 0 11.1 3.4 13.5 8.7l17.2-17.2C62.1 47.1 51 41.2 38.5 41.1z" style="fill:#fbbc05"/><path class="st4" d="M204.1 58.4c-8.1 0-15-2.9-20.9-8.6-5.8-5.7-8.8-12.6-8.8-20.6s2.9-14.9 8.8-20.6C189.1 2.9 196 0 204.1 0c7.5-.1 14.7 2.8 20 8l-5.6 5.6c-3.9-3.7-9-5.8-14.4-5.7-5.8 0-10.8 2.1-14.9 6.2-4 4-6.2 9.4-6.1 15 0 5.9 2 10.9 6.1 15 3.9 4.1 9.3 6.3 14.9 6.2 5.9 0 10.8-1.9 14.8-5.8 2.3-2.3 3.8-5.7 4.3-10h-19.1v-8H231c.3 1.4.4 3.1.4 5 0 7.8-2.3 14.1-6.9 18.7-5.3 5.5-12 8.2-20.4 8.2zm62.5-5.3c-3.7 3.6-8.1 5.3-13.4 5.3-5.3 0-9.7-1.8-13.4-5.3-3.7-3.5-5.5-8.1-5.5-13.4s1.8-9.8 5.5-13.4c3.7-3.6 8.1-5.3 13.4-5.3 5.3 0 9.7 1.8 13.4 5.3s5.5 8.1 5.5 13.4-1.9 9.8-5.5 13.4zm-20.9-5.3c1.9 2.1 4.6 3.3 7.5 3.2 2.9 0 5.4-1.1 7.5-3.2 2.1-2.2 3.1-4.9 3.1-8.2 0-3.3-1-6.1-3.1-8.2-2.1-2.1-4.6-3.2-7.5-3.2-2.8 0-5.6 1.1-7.5 3.2-2.1 2.1-3.1 4.9-3.1 8.2-.1 3.3 1 6 3.1 8.2zm62 5.3c-3.7 3.6-8.1 5.3-13.4 5.3s-9.7-1.8-13.4-5.3c-3.7-3.5-5.5-8.1-5.5-13.4s1.8-9.8 5.5-13.4S289 21 294.3 21s9.7 1.8 13.4 5.3 5.5 8.1 5.5 13.4-1.8 9.8-5.5 13.4zm-20.8-5.3c1.9 2.1 4.6 3.3 7.5 3.2 2.9 0 5.4-1.1 7.5-3.2 2.1-2.2 3.1-4.9 3.1-8.2 0-3.3-1-6.1-3.1-8.2-2.1-2.1-4.6-3.2-7.5-3.2-2.8 0-5.6 1.1-7.5 3.2-2.1 2.1-3.1 4.9-3.1 8.2-.1 3.3 1 6 3.1 8.2zm47.9 27.5c-4.2 0-7.7-1.1-10.5-3.4-2.8-2.2-4.9-4.8-6.1-7.8l7.2-3c.8 1.8 1.9 3.4 3.6 4.7 1.7 1.3 3.6 2 5.9 2 3.1 0 5.6-1 7.4-2.8 1.8-1.9 2.7-4.6 2.7-8.2v-2.7h-.3c-2.3 2.8-5.6 4.3-9.9 4.3-4.8 0-9-1.8-12.6-5.5-3.5-3.5-5.5-8.3-5.4-13.3-.1-5 1.9-9.8 5.4-13.4 3.6-3.7 7.8-5.5 12.6-5.5 2.1 0 4.1.4 5.8 1.2 1.7.8 3.1 1.8 4.1 3h.3v-3h7.8v33.8c0 6.6-1.7 11.5-5 14.7-3.5 3.4-7.8 5-13 4.9zm.6-24.3c2.8 0 5.4-1.1 7.2-3.2 1.9-2.2 2.9-4.9 2.9-8.1 0-3.3-1-6-2.9-8.2-1.8-2.1-4.4-3.3-7.2-3.3-2.9 0-5.4 1.1-7.4 3.3s-3.1 4.9-3.1 8.2c0 3.2 1 5.9 3.1 8.1s4.5 3.2 7.4 3.2zm31.3-49v55.3h-8.3V2h8.3zm22.6 56.4c-5.3 0-9.8-1.8-13.3-5.4-3.6-3.6-5.3-8.1-5.3-13.4 0-5.5 1.7-10 5.2-13.5 3.3-3.4 7.8-5.4 12.6-5.3 2.3 0 4.4.4 6.3 1.2 1.8.7 3.5 1.8 4.8 3.2 1.2 1.2 2.2 2.4 3.1 3.8.7 1.2 1.3 2.4 1.9 3.7l.9 2.1-25.1 10.4c1.9 3.8 5 5.7 9.1 5.7 3.8 0 6.9-1.7 9.3-5.2l6.4 4.3c-1.4 2.1-3.4 4.1-6.1 5.8-2.8 1.8-6 2.6-9.8 2.6zM378.8 39l16.8-7c-.5-1.2-1.3-2.2-2.7-2.9-1.3-.7-2.8-1.1-4.3-1.1-2.4 0-4.7 1-6.8 3-2.1 2.1-3.1 4.7-3 8zM203 101.2c0 5-1.4 8.8-4.1 11.4-2.8 2.6-6.7 3.9-11.9 3.9h-8.4V86.4h9.3c4.8 0 8.5 1.3 11.2 3.9 2.5 2.6 3.9 6.2 3.9 10.9zm-5.2.2c0-7.2-3.4-10.8-10.1-10.8h-4.3v21.9h3.5c7.2-.1 10.9-3.8 10.9-11.1zM218.9 117c-3.5 0-6.3-1-8.3-3.1-2-2.1-3-4.9-3-8.5 0-3.7.9-6.6 2.8-8.8 1.9-2.1 4.4-3.2 7.6-3.2 3 0 5.4.9 7.1 2.7 1.7 1.8 2.6 4.3 2.6 7.5v2.6h-15.2c.1 2.2.7 3.9 1.8 5.1 1.1 1.2 2.7 1.8 4.8 1.8 1.3 0 2.6-.1 3.8-.4 1.2-.3 2.4-.7 3.7-1.3v3.9c-1.2.6-2.4 1-3.6 1.2-1.2.4-2.6.5-4.1.5zm-.9-20c-1.5 0-2.8.5-3.7 1.5-.9 1-1.5 2.4-1.7 4.3H223c0-1.9-.5-3.3-1.4-4.3-.9-1-2.1-1.5-3.6-1.5zM238.4 116.6l-8.7-22.8h5.1l4.6 13.3c.8 2.2 1.3 4 1.4 5.4h.2c.1-1 .6-2.8 1.4-5.4l4.6-13.3h5.2l-8.7 22.8h-5.1zM265.8 117c-3.5 0-6.3-1-8.3-3.1-2-2.1-3-4.9-3-8.5 0-3.7.9-6.6 2.8-8.8 1.9-2.1 4.4-3.2 7.6-3.2 3 0 5.4.9 7.1 2.7 1.7 1.8 2.6 4.3 2.6 7.5v2.6h-15.2c.1 2.2.7 3.9 1.8 5.1 1.1 1.2 2.7 1.8 4.8 1.8 1.3 0 2.6-.1 3.8-.4 1.2-.3 2.4-.7 3.7-1.3v3.9c-1.2.6-2.4 1-3.6 1.2-1.2.4-2.6.5-4.1.5zm-.9-20c-1.5 0-2.8.5-3.7 1.5-.9 1-1.5 2.4-1.7 4.3h10.3c0-1.9-.5-3.3-1.4-4.3-.8-1-2-1.5-3.5-1.5zM285 116.6h-4.8V84.5h4.8v32.1zM312.1 105.1c0 3.7-1 6.6-2.9 8.7-1.9 2.1-4.6 3.1-8 3.1-2.1 0-4-.5-5.6-1.4-1.6-1-2.9-2.3-3.8-4.1-.9-1.8-1.3-3.9-1.3-6.3 0-3.7.9-6.6 2.8-8.7 1.9-2.1 4.6-3.1 8-3.1 3.3 0 5.9 1.1 7.8 3.2 2.1 2.2 3 5 3 8.6zm-16.6 0c0 5.3 1.9 7.9 5.8 7.9 3.8 0 5.8-2.6 5.8-7.9 0-5.2-1.9-7.8-5.8-7.8-2 0-3.5.7-4.4 2-.9 1.4-1.4 3.3-1.4 5.8zM329.3 117c-2.9 0-5.1-1-6.7-3.1h-.3c.2 1.9.3 3.1.3 3.5v9.3h-4.8V93.8h3.9c.1.4.3 1.4.7 3h.2c1.5-2.3 3.8-3.5 6.8-3.5 2.8 0 5.1 1 6.6 3.1 1.6 2.1 2.4 5 2.4 8.7 0 3.7-.8 6.6-2.4 8.7-1.7 2.1-3.9 3.2-6.7 3.2zm-1.2-19.7c-1.9 0-3.3.6-4.2 1.7-.9 1.1-1.3 2.9-1.3 5.4v.7c0 2.8.4 4.8 1.3 6 .9 1.2 2.3 1.9 4.3 1.9 1.7 0 3-.7 3.9-2.1.9-1.4 1.4-3.3 1.4-5.9 0-2.6-.5-4.5-1.3-5.8-1.1-1.2-2.4-1.9-4.1-1.9zM353.9 117c-3.5 0-6.3-1-8.3-3.1-2-2.1-3-4.9-3-8.5 0-3.7.9-6.6 2.8-8.8 1.9-2.1 4.4-3.2 7.6-3.2 3 0 5.4.9 7.1 2.7 1.7 1.8 2.6 4.3 2.6 7.5v2.6h-15.2c.1 2.2.7 3.9 1.8 5.1 1.1 1.2 2.7 1.8 4.8 1.8 1.3 0 2.6-.1 3.8-.4 1.2-.3 2.4-.7 3.7-1.3v3.9c-1.2.6-2.4 1-3.6 1.2-1.1.4-2.5.5-4.1.5zm-.8-20c-1.5 0-2.8.5-3.7 1.5-.9 1-1.5 2.4-1.7 4.3H358c0-1.9-.5-3.3-1.4-4.3-.8-1-2-1.5-3.5-1.5zM379.9 93.4c1 0 1.8.1 2.4.2l-.5 4.5c-.7-.2-1.4-.2-2.1-.2-1.9 0-3.5.6-4.7 1.9-1.2 1.3-1.8 2.9-1.8 4.9v11.9h-4.8V93.8h3.8l.6 4h.2c.8-1.4 1.7-2.4 3-3.2 1.2-.8 2.5-1.2 3.9-1.2zM408.4 116.6h-4.9V90.7h-8.9v-4.2h22.6v4.2h-8.9v25.9zM441.6 105.1c0 3.7-1 6.6-2.9 8.7-1.9 2.1-4.6 3.1-8 3.1-2.1 0-4-.5-5.6-1.4-1.6-1-2.9-2.3-3.8-4.1-.9-1.8-1.3-3.9-1.3-6.3 0-3.7.9-6.6 2.8-8.7 1.9-2.1 4.6-3.1 8-3.1 3.3 0 5.9 1.1 7.8 3.2 2 2.2 3 5 3 8.6zm-16.6 0c0 5.3 1.9 7.9 5.8 7.9 3.8 0 5.8-2.6 5.8-7.9 0-5.2-1.9-7.8-5.8-7.8-2 0-3.5.7-4.4 2-1 1.4-1.4 3.3-1.4 5.8zM467.4 105.1c0 3.7-1 6.6-2.9 8.7-1.9 2.1-4.6 3.1-8 3.1-2.1 0-4-.5-5.6-1.4-1.6-1-2.9-2.3-3.8-4.1-.9-1.8-1.3-3.9-1.3-6.3 0-3.7.9-6.6 2.8-8.7 1.9-2.1 4.6-3.1 8-3.1 3.3 0 5.9 1.1 7.8 3.2 2 2.2 3 5 3 8.6zm-16.6 0c0 5.3 1.9 7.9 5.8 7.9 3.8 0 5.8-2.6 5.8-7.9 0-5.2-1.9-7.8-5.8-7.8-2 0-3.5.7-4.4 2-1 1.4-1.4 3.3-1.4 5.8zM477.8 116.6H473V84.5h4.8v32.1zM500 110.1c0 2.2-.8 3.9-2.4 5.1s-3.9 1.8-7 1.8c-3 0-5.5-.5-7.3-1.4v-4.2c2.7 1.2 5.2 1.9 7.5 1.9 3 0 4.5-.9 4.5-2.7 0-.6-.2-1.1-.5-1.4-.3-.4-.9-.8-1.6-1.2-.8-.4-1.8-.9-3.2-1.4-2.6-1-4.4-2-5.3-3.1-.9-1-1.4-2.3-1.4-4 0-2 .8-3.5 2.4-4.5 1.6-1.1 3.7-1.6 6.4-1.6s5.2.5 7.6 1.6l-1.6 3.6c-2.5-1-4.5-1.5-6.2-1.5-2.6 0-3.8.7-3.8 2.2 0 .7.3 1.3 1 1.8s2.1 1.2 4.4 2c1.9.7 3.2 1.4 4.1 2 .9.6 1.5 1.3 1.9 2.1.3.8.5 1.8.5 2.9z"/></g></switch></svg>