<svg version="1.1" id="layer" xmlns="http://www.w3.org/2000/svg" x="0" y="0" viewBox="0 0 500 373.7" style="enable-background:new 0 0 500 373.7" xml:space="preserve"><style>.st0{fill:#7a7a7a}.st3{fill:#fefffd}</style><switch><g><path class="st0" d="M171.9 274.3h15.8v21.6c-2.6.8-5.1 1.4-7.4 1.8-2.4.4-4.9.5-7.7.5-6.5 0-11.5-1.9-15-5.8-3.5-3.8-5.3-9.3-5.3-16.3 0-6.9 2-12.3 6-16.2 4-3.9 9.4-5.9 16.4-5.9 4.5 0 8.7.9 12.7 2.6l-2.5 5.8c-3.5-1.6-7-2.4-10.5-2.4-4.6 0-8.2 1.4-10.9 4.3-2.7 2.9-4 6.8-4 11.8 0 5.2 1.2 9.2 3.6 12 2.4 2.7 5.9 4.1 10.4 4.1 2.3 0 4.7-.3 7.3-.9v-11.1h-8.9v-5.9zM226.1 281.3c0 5.3-1.4 9.4-4.1 12.4-2.7 3-6.5 4.5-11.4 4.5-3 0-5.7-.7-8-2.1-2.3-1.4-4.1-3.3-5.4-5.9-1.3-2.6-1.9-5.5-1.9-8.9 0-5.3 1.4-9.4 4.1-12.3 2.7-3 6.5-4.4 11.4-4.4 4.7 0 8.4 1.5 11.2 4.5 2.7 3 4.1 7.1 4.1 12.2zm-23.7 0c0 7.5 2.8 11.3 8.3 11.3 5.5 0 8.2-3.7 8.2-11.3 0-7.4-2.8-11.1-8.3-11.1-2.9 0-5 1-6.3 2.9-1.2 1.9-1.9 4.7-1.9 8.2zM262.8 281.3c0 5.3-1.4 9.4-4.1 12.4-2.7 3-6.5 4.5-11.4 4.5-3 0-5.7-.7-8-2.1-2.3-1.4-4.1-3.3-5.4-5.9-1.3-2.6-1.9-5.5-1.9-8.9 0-5.3 1.4-9.4 4.1-12.3 2.7-3 6.5-4.4 11.4-4.4 4.7 0 8.4 1.5 11.2 4.5 2.8 3 4.1 7.1 4.1 12.2zm-23.6 0c0 7.5 2.8 11.3 8.3 11.3 5.5 0 8.2-3.7 8.2-11.3 0-7.4-2.8-11.1-8.3-11.1-2.9 0-5 1-6.3 2.9-1.3 1.9-1.9 4.7-1.9 8.2zM298.2 265.1v3.8l-5.6 1c.5.7.9 1.5 1.3 2.5.3 1 .5 2.1.5 3.2 0 3.3-1.2 6-3.5 7.9-2.3 1.9-5.5 2.9-9.5 2.9-1 0-2-.1-2.8-.2-1.5.9-2.2 2-2.2 3.2 0 .7.3 1.3 1 1.7.7.4 2 .6 3.8.6h5.7c3.6 0 6.3.8 8.2 2.3 1.9 1.5 2.8 3.7 2.8 6.6 0 3.7-1.5 6.5-4.6 8.5-3 2-7.4 3-13.2 3-4.4 0-7.8-.8-10.1-2.4-2.3-1.6-3.5-3.8-3.5-6.7 0-2 .6-3.7 1.9-5s3-2.3 5.3-2.8c-.9-.4-1.7-1-2.3-1.9-.6-.9-.9-1.8-.9-2.7 0-1.2.3-2.2 1-3.1.7-.8 1.7-1.7 3.1-2.5-1.7-.7-3.1-1.9-4.1-3.5-1-1.6-1.6-3.5-1.6-5.7 0-3.5 1.1-6.3 3.3-8.2 2.2-1.9 5.4-2.9 9.5-2.9.9 0 1.9.1 2.9.2s1.8.3 2.3.4h11.3zm-25.5 37.6c0 1.5.7 2.6 2 3.4 1.3.8 3.2 1.2 5.7 1.2 3.8 0 6.6-.5 8.4-1.6 1.8-1.1 2.8-2.5 2.8-4.3 0-1.4-.5-2.4-1.5-3-1-.6-2.9-.9-5.6-.9h-5.2c-2 0-3.5.5-4.7 1.4-1.4.9-1.9 2.2-1.9 3.8zm2.9-27c0 2 .5 3.6 1.6 4.7 1 1.1 2.6 1.6 4.5 1.6 4 0 6-2.1 6-6.4 0-2.1-.5-3.7-1.5-4.9-1-1.1-2.5-1.7-4.5-1.7s-3.5.6-4.5 1.7c-1.1 1.1-1.6 2.8-1.6 5zM311.1 297.6h-6.9v-45.7h6.9v45.7zM335.2 298.2c-5.1 0-9-1.5-11.9-4.4-2.8-2.9-4.3-7-4.3-12.2 0-5.3 1.3-9.5 4-12.5 2.6-3 6.3-4.6 10.9-4.6 4.3 0 7.7 1.3 10.2 3.9 2.5 2.6 3.7 6.2 3.7 10.8v3.7h-21.6c.1 3.2.9 5.6 2.6 7.3 1.6 1.7 3.9 2.5 6.8 2.5 1.9 0 3.7-.2 5.4-.5 1.7-.4 3.4-1 5.3-1.8v5.6c-1.7.8-3.4 1.4-5.1 1.7-1.8.4-3.8.5-6 .5zm-1.3-28.4c-2.2 0-4 .7-5.3 2.1-1.3 1.4-2.1 3.4-2.4 6.1H341c0-2.7-.7-4.7-1.9-6.1-1.3-1.4-3-2.1-5.2-2.1zM20.3 335.8c-4 0-7.2 1.4-9.5 4.3-2.3 2.8-3.4 6.8-3.4 11.8 0 5.2 1.1 9.2 3.3 11.9 2.2 2.7 5.4 4 9.6 4 1.8 0 3.6-.2 5.3-.5 1.7-.4 3.5-.8 5.3-1.4v6c-3.3 1.3-7.1 1.9-11.4 1.9-6.3 0-11.1-1.9-14.4-5.7-3.3-3.8-5-9.2-5-16.3 0-4.4.8-8.3 2.4-11.7 1.6-3.3 4-5.9 7.1-7.7 3.1-1.8 6.7-2.7 10.8-2.7 4.4 0 8.4.9 12.1 2.7l-2.5 5.8c-1.4-.7-3-1.3-4.6-1.8-1.7-.4-3.4-.6-5.1-.6zM46.2 373.1h-6.9v-45.5h6.9v45.5zM84.6 356.9c0 5.3-1.4 9.4-4.1 12.4-2.7 3-6.5 4.4-11.3 4.4-3 0-5.7-.7-8-2-2.3-1.4-4.1-3.3-5.3-5.9-1.2-2.6-1.9-5.5-1.9-8.9 0-5.2 1.3-9.3 4-12.3 2.7-2.9 6.5-4.4 11.4-4.4 4.7 0 8.4 1.5 11.1 4.5 2.8 3 4.1 7.1 4.1 12.2zm-23.5 0c0 7.5 2.8 11.2 8.3 11.2 5.5 0 8.2-3.7 8.2-11.2 0-7.4-2.7-11.1-8.2-11.1-2.9 0-5 1-6.3 2.9-1.3 1.9-2 4.6-2 8.2zM115.3 373.1l-1-4.2h-.3c-1 1.5-2.3 2.7-4.1 3.5-1.8.9-3.8 1.3-6 1.3-3.9 0-6.8-1-8.8-2.9-1.9-1.9-2.9-4.9-2.9-8.9v-21.1h6.9v19.9c0 2.5.5 4.3 1.5 5.6 1 1.2 2.6 1.9 4.8 1.9 2.9 0 5-.9 6.4-2.6 1.4-1.7 2-4.6 2-8.7v-16.1h6.9v32.3h-5.4zM141.4 373.7c-4 0-7.2-1.5-9.4-4.4-2.3-2.9-3.4-7-3.4-12.3 0-5.3 1.1-9.4 3.4-12.4s5.5-4.4 9.5-4.4c4.2 0 7.5 1.6 9.7 4.7h.4c-.3-2.3-.5-4.1-.5-5.5v-11.8h6.9v45.5h-5.4l-1.2-4.2h-.4c-2.2 3.2-5.4 4.8-9.6 4.8zm1.8-5.6c2.8 0 4.9-.8 6.2-2.4 1.3-1.6 1.9-4.2 2-7.7v-1c0-4.1-.7-7-2-8.7-1.3-1.7-3.4-2.6-6.2-2.6-2.4 0-4.3 1-5.6 2.9-1.3 2-2 4.7-2 8.4 0 3.6.6 6.3 1.9 8.2 1.3 2 3.2 2.9 5.7 2.9zM210.5 373.1l-4.3-11.9h-16.3l-4.2 11.9h-7.4l16-42.9h7.6l16 42.9h-7.4zm-6.1-17.9-4-11.6c-.3-.8-.7-2-1.2-3.7-.5-1.7-.9-2.9-1.1-3.7-.5 2.4-1.3 5-2.3 7.9l-3.9 11.1h12.5zM223.6 373.1v-42.7h7v42.7h-7zM285.7 343.3c0 4.5-1.5 7.9-4.4 10.3-2.9 2.4-7.1 3.6-12.5 3.6h-4.4v16h-7v-42.7h12.3c5.3 0 9.3 1.1 12 3.3 2.6 2 4 5.2 4 9.5zm-21.3 7.9h3.7c3.6 0 6.2-.6 7.9-1.9 1.7-1.2 2.5-3.2 2.5-5.8 0-2.5-.7-4.3-2.2-5.5-1.5-1.2-3.8-1.8-7-1.8h-4.8v15zM300.3 373.1h-6.9v-45.5h6.9v45.5zM330.3 373.1l-1.4-4.5h-.2c-1.6 2-3.1 3.3-4.7 4-1.6.7-3.6 1.1-6.1 1.1-3.2 0-5.7-.9-7.4-2.6-1.8-1.7-2.7-4.1-2.7-7.3 0-3.3 1.2-5.8 3.7-7.5 2.5-1.7 6.2-2.6 11.3-2.8l5.6-.2v-1.7c0-2.1-.5-3.6-1.4-4.6-1-1-2.5-1.5-4.5-1.5-1.7 0-3.2.2-4.8.7-1.5.5-3 1.1-4.4 1.7l-2.2-4.9c1.8-.9 3.7-1.6 5.8-2.1 2.1-.5 4.1-.7 5.9-.7 4.1 0 7.2.9 9.3 2.7 2.1 1.8 3.1 4.6 3.1 8.4v21.8h-4.9zm-10.2-4.7c2.5 0 4.5-.7 6-2.1 1.5-1.4 2.3-3.3 2.3-5.9v-2.8l-4.1.2c-3.2.1-5.6.7-7.1 1.6-1.5 1-2.2 2.4-2.2 4.4 0 1.4.4 2.6 1.3 3.3.8.9 2.1 1.3 3.8 1.3zM356.9 368.1c1.7 0 3.3-.3 5-.8v5.2c-.8.3-1.7.6-2.9.8-1.2.2-2.4.3-3.7.3-6.5 0-9.8-3.4-9.8-10.3V346h-4.4v-3l4.7-2.5 2.3-6.8h4.2v7.2h9.2v5.2h-9.2v17.3c0 1.7.4 2.9 1.2 3.7.9.6 2 1 3.4 1zM384.6 346h-7.9v27.1h-6.9V346h-5.3v-3.2l5.3-2.1v-2.1c0-3.8.9-6.6 2.7-8.5 1.8-1.8 4.5-2.8 8.2-2.8 2.4 0 4.8.4 7.1 1.2l-1.8 5.2c-1.7-.5-3.3-.8-4.8-.8-1.6 0-2.7.5-3.4 1.4-.7 1-1.1 2.4-1.1 4.3v2.1h7.9v5.3zM418.7 356.9c0 5.3-1.4 9.4-4.1 12.4-2.7 3-6.5 4.4-11.3 4.4-3 0-5.7-.7-8-2-2.3-1.4-4.1-3.3-5.3-5.9-1.2-2.6-1.9-5.5-1.9-8.9 0-5.2 1.3-9.3 4-12.3 2.7-2.9 6.5-4.4 11.4-4.4 4.7 0 8.4 1.5 11.1 4.5 2.7 3 4.1 7.1 4.1 12.2zm-23.5 0c0 7.5 2.8 11.2 8.3 11.2 5.5 0 8.2-3.7 8.2-11.2 0-7.4-2.7-11.1-8.2-11.1-2.9 0-5 1-6.3 2.9-1.4 1.9-2 4.6-2 8.2zM443 340.2c1.4 0 2.5.1 3.4.3l-.7 6.4c-1-.2-2-.4-3-.4-2.7 0-5 .9-6.7 2.7-1.7 1.8-2.6 4.1-2.6 7v16.9h-6.9v-32.3h5.4l.9 5.7h.4c1.1-1.9 2.5-3.5 4.2-4.6 1.7-1.1 3.6-1.7 5.6-1.7zM479.6 373.1h-6.9v-19.9c0-2.5-.5-4.3-1.4-5.5-.9-1.2-2.4-1.8-4.4-1.8-2.6 0-4.6.9-5.8 2.6-1.2 1.7-1.9 4.6-1.9 8.6v16.1h-6.9v-32.3h5.4l1 4.2h.4c.9-1.5 2.2-2.7 3.9-3.6 1.7-.8 3.6-1.3 5.6-1.3 5 0 8.3 1.7 9.9 5.1h.5c1-1.6 2.3-2.8 4-3.7 1.7-.9 3.7-1.3 6-1.3 3.9 0 6.7 1 8.4 2.9 1.8 1.9 2.6 4.9 2.6 8.9v21.1h-6.9v-19.9c0-2.5-.5-4.3-1.4-5.5-.9-1.2-2.4-1.8-4.4-1.8-2.7 0-4.6.8-5.9 2.5-1.2 1.7-1.9 4.2-1.9 7.7v16.9z"/><path d="M305.4 0H194.6c-7.1 0-13.6 3.8-17.1 9.9l-55.4 96c-3.5 6.1-3.5 13.6 0 19.7l55.4 96c3.5 6.1 10 9.9 17.1 9.9h110.8c7.1 0 13.6-3.8 17.1-9.9l55.4-96c3.5-6.1 3.5-13.6 0-19.7l-55.4-96C319 3.8 312.5 0 305.4 0z" style="fill:#4683ed"/><path d="m284 57.2-26.1 11.4-11.4-11.4-25 8.8-20.2 16.8 13.3 13.3-15.9 6.5-10.5 24.1 14.3 14.3 13.5 33.9 56.5 56.5h32.9c7.1 0 13.6-3.8 17.1-9.9l46.1-79.8L284 57.2z" style="fill:#417bdc"/><path class="st3" d="m282.4 136.5 5.7-9.8h23.7l6.2-10.6-15.1-26.3h-24.3l-7.8-12.5h-6.5v-7h11.1l7 12.5h16.4L284 57.2h-30.5v35.4H266l4.4 7h-16.9v17h15.6l8-12.3h17.7l4.4 7h-17.9l-8.2 12.4h-19.6V155h25l-4.4 7h-20.6v12.9H284l23.8-41.1h-15.3l-6.5 9.7h-21.6v-7zM246.5 162h-20.6l-4.4-7h25v-31.3h-19.6l-8.2-12.4h-17.9l4.4-7h17.7l8 12.3h15.6v-17h-16.9l4.4-7h12.5V57.2H216l-14.8 25.6h16.4l7-12.5h11.1v7h-6.5l-7.8 12.5h-24.3L182 116.1l6.2 10.6h23.7l5.7 9.8h18v7H214l-6.5-9.7h-15.3l23.8 41.1h30.5z"/></g></switch></svg>