<svg version="1.1" id="layer" xmlns="http://www.w3.org/2000/svg" x="0" y="0" viewBox="0 0 500 397.6" style="enable-background:new 0 0 500 397.6" xml:space="preserve"><style>.st2{fill:#fff}.st3{fill:#7a7a7a}</style><switch><g><path d="M309.6 0H190.8c-7.6 0-14.5 4-18.3 10.6l-59.4 102.9c-3.8 6.5-3.8 14.6 0 21.2l59.4 102.9c3.8 6.5 10.8 10.6 18.3 10.6h118.8c7.6 0 14.5-4 18.3-10.6l59.4-102.9c3.8-6.5 3.8-14.6 0-21.2L327.9 10.6C324.1 4 317.1 0 309.6 0z" style="fill:#4683ed"/><path d="M299.3 97.6H278l-2.7 12.5-12.5-12.5-21.4-.6-1.6 14.1-13.6-13.6-21.2 21.2 14.5 14.5-15.1.6.5 21.4 92.6 92.6h11.8c7.6 0 14.5-4 18.3-10.6l40.7-70.5-69-69.1z" style="fill:#417bdc"/><path class="st2" d="M223.6 118.9h-18.5c-1.5 0-2.7-1.2-2.7-2.7V97.6c0-1.5 1.2-2.7 2.7-2.7h18.5c1.5 0 2.7 1.2 2.7 2.7v18.5c0 1.5-1.2 2.8-2.7 2.8zM260.1 94.9h-18.5c-1.5 0-2.7 1.2-2.7 2.7v18.5c0 1.5 1.2 2.7 2.7 2.7h18.5c1.5 0 2.7-1.2 2.7-2.7V97.6c0-1.5-1.2-2.7-2.7-2.7zm-2 19.2h-14.4V99.7h14.4v14.4zM296.6 94.9h-18.5c-1.5 0-2.7 1.2-2.7 2.7v18.5c0 1.5 1.2 2.7 2.7 2.7h18.5c1.5 0 2.7-1.2 2.7-2.7V97.6c0-1.5-1.2-2.7-2.7-2.7zm-2 19.2h-14.4V99.7h14.4v14.4zM223.6 131.4h-18.5c-1.5 0-2.7 1.2-2.7 2.7v18.5c0 1.5 1.2 2.7 2.7 2.7h18.5c1.5 0 2.7-1.2 2.7-2.7v-18.5c0-1.5-1.2-2.7-2.7-2.7zm-2 19.2h-14.4v-14.4h14.4v14.4zM260.1 155.4h-18.5c-1.5 0-2.7-1.2-2.7-2.7v-18.5c0-1.5 1.2-2.7 2.7-2.7h18.5c1.5 0 2.7 1.2 2.7 2.7v18.5c0 1.4-1.2 2.7-2.7 2.7zM296.6 155.4h-18.5c-1.5 0-2.7-1.2-2.7-2.7v-18.5c0-1.5 1.2-2.7 2.7-2.7h18.5c1.5 0 2.7 1.2 2.7 2.7v18.5c0 1.4-1.2 2.7-2.7 2.7z"/><path class="st3" d="M166.1 294.1h17v23.2c-2.8.9-5.5 1.6-8 1.9-2.6.4-5.3.6-8.3.6-7 0-12.4-2.1-16.2-6.2-3.8-4.1-5.7-10-5.7-17.5 0-7.4 2.1-13.3 6.4-17.5 4.3-4.2 10.2-6.3 17.7-6.3 4.8 0 9.4.9 13.7 2.8l-2.7 6.3c-3.8-1.7-7.5-2.6-11.3-2.6-4.9 0-8.8 1.6-11.7 4.6-2.9 3.1-4.3 7.3-4.3 12.7 0 5.7 1.3 9.9 3.9 12.9 2.6 2.9 6.3 4.4 11.1 4.4 2.4 0 5.1-.3 7.8-.9v-11.9h-9.6v-6.5zM224.4 301.6c0 5.7-1.5 10.2-4.4 13.4-2.9 3.2-7 4.8-12.2 4.8-3.3 0-6.2-.7-8.7-2.2-2.5-1.5-4.4-3.6-5.8-6.4-1.3-2.8-2-6-2-9.6 0-5.7 1.5-10.1 4.4-13.3 2.9-3.2 7-4.8 12.3-4.8 5.1 0 9.1 1.6 12 4.9 2.9 3.3 4.4 7.7 4.4 13.2zm-25.5 0c0 8.1 3 12.1 9 12.1 5.9 0 8.9-4 8.9-12.1 0-8-3-12-8.9-12-3.1 0-5.4 1-6.8 3.1-1.5 2.1-2.2 5.1-2.2 8.9zM264 301.6c0 5.7-1.5 10.2-4.4 13.4-2.9 3.2-7 4.8-12.2 4.8-3.3 0-6.2-.7-8.7-2.2-2.5-1.5-4.4-3.6-5.8-6.4-1.3-2.8-2-6-2-9.6 0-5.7 1.5-10.1 4.4-13.3 2.9-3.2 7-4.8 12.3-4.8 5.1 0 9.1 1.6 12 4.9 2.9 3.3 4.4 7.7 4.4 13.2zm-25.5 0c0 8.1 3 12.1 9 12.1 5.9 0 8.9-4 8.9-12.1 0-8-3-12-8.9-12-3.1 0-5.4 1-6.8 3.1-1.5 2.1-2.2 5.1-2.2 8.9zM302.1 284.2v4.1l-6 1.1c.5.7 1 1.6 1.4 2.7.4 1.1.5 2.2.5 3.4 0 3.6-1.2 6.4-3.7 8.5-2.5 2.1-5.9 3.1-10.3 3.1-1.1 0-2.1-.1-3-.3-1.6 1-2.4 2.2-2.4 3.5 0 .8.4 1.4 1.1 1.8.7.4 2.1.6 4.1.6h6.1c3.9 0 6.8.8 8.8 2.5 2 1.6 3 4 3 7.1 0 4-1.6 7-4.9 9.2-3.3 2.2-8 3.2-14.2 3.2-4.8 0-8.4-.8-10.9-2.5s-3.8-4.1-3.8-7.2c0-2.2.7-4 2-5.4 1.4-1.5 3.3-2.5 5.7-3.1-1-.4-1.8-1.1-2.5-2-.6-.9-1-1.9-1-3 0-1.3.4-2.4 1.1-3.3.7-.9 1.8-1.8 3.3-2.7-1.8-.8-3.3-2.1-4.4-3.8-1.1-1.8-1.7-3.8-1.7-6.2 0-3.8 1.2-6.7 3.6-8.8 2.4-2.1 5.8-3.1 10.2-3.1 1 0 2 .1 3.1.2s1.9.3 2.5.4h12.3zm-27.5 40.4c0 1.6.7 2.8 2.2 3.7 1.4.9 3.5 1.3 6.1 1.3 4 0 7.1-.6 9-1.7 2-1.2 3-2.7 3-4.6 0-1.5-.5-2.6-1.6-3.2-1.1-.6-3.1-1-6.1-1h-5.6c-2.1 0-3.8.5-5.1 1.5-1.3 1-1.9 2.3-1.9 4zm3.2-29.1c0 2.2.6 3.9 1.7 5.1 1.1 1.2 2.7 1.8 4.9 1.8 4.3 0 6.5-2.3 6.5-6.9 0-2.3-.5-4-1.6-5.3-1.1-1.2-2.7-1.9-4.9-1.9s-3.8.6-4.9 1.8c-1.2 1.3-1.7 3.1-1.7 5.4zM316 319.2h-7.4V270h7.4v49.2zM341.9 319.8c-5.4 0-9.7-1.6-12.8-4.8-3.1-3.2-4.6-7.5-4.6-13.1 0-5.7 1.4-10.2 4.3-13.5 2.8-3.3 6.8-4.9 11.7-4.9 4.6 0 8.3 1.4 10.9 4.2 2.7 2.8 4 6.7 4 11.6v4h-23.3c.1 3.4 1 6 2.8 7.8 1.7 1.8 4.2 2.7 7.3 2.7 2.1 0 4-.2 5.8-.6 1.8-.4 3.7-1 5.7-1.9v6c-1.8.9-3.6 1.5-5.5 1.8-1.8.5-3.9.7-6.3.7zm-1.4-30.6c-2.4 0-4.3.7-5.7 2.2-1.4 1.5-2.3 3.7-2.5 6.5h15.9c0-2.9-.7-5.1-2.1-6.6-1.4-1.3-3.2-2.1-5.6-2.1zM22.1 356.5c-4.3 0-7.8 1.5-10.2 4.6-2.5 3.1-3.7 7.3-3.7 12.7 0 5.7 1.2 10 3.6 12.9 2.4 2.9 5.9 4.4 10.4 4.4 2 0 3.9-.2 5.7-.6 1.8-.4 3.7-.9 5.7-1.5v6.5c-3.6 1.4-7.7 2.1-12.3 2.1-6.8 0-12-2.1-15.6-6.2-3.6-4.1-5.4-10-5.4-17.6 0-4.8.9-9 2.6-12.6 1.8-3.6 4.3-6.4 7.6-8.3 3.3-1.9 7.2-2.9 11.7-2.9 4.7 0 9.1 1 13.1 3l-2.7 6.3c-1.6-.7-3.2-1.4-5-1.9-1.7-.6-3.6-.9-5.5-.9zM50.1 396.9h-7.4v-49.2h7.4v49.2zM91.8 379.4c0 5.7-1.5 10.2-4.4 13.4-2.9 3.2-7 4.8-12.2 4.8-3.3 0-6.2-.7-8.7-2.2-2.5-1.5-4.4-3.6-5.8-6.4-1.3-2.8-2-6-2-9.6 0-5.7 1.5-10.1 4.4-13.3 2.9-3.2 7-4.8 12.3-4.8 5.1 0 9.1 1.6 12 4.9 2.9 3.3 4.4 7.6 4.4 13.2zm-25.5 0c0 8.1 3 12.1 9 12.1 5.9 0 8.9-4 8.9-12.1 0-8-3-12-8.9-12-3.1 0-5.4 1-6.8 3.1-1.5 2-2.2 5-2.2 8.9zM125 396.9l-1-4.6h-.4c-1 1.6-2.5 2.9-4.4 3.8-1.9.9-4.1 1.4-6.5 1.4-4.2 0-7.4-1.1-9.5-3.2-2.1-2.1-3.1-5.3-3.1-9.6v-22.9h7.5v21.6c0 2.7.5 4.7 1.6 6 1.1 1.3 2.8 2 5.2 2 3.1 0 5.4-.9 6.9-2.8s2.2-5 2.2-9.4v-17.4h7.5v35h-6zM153.3 397.6c-4.4 0-7.8-1.6-10.2-4.7-2.4-3.2-3.7-7.6-3.7-13.3 0-5.7 1.2-10.2 3.7-13.4 2.5-3.2 5.9-4.8 10.3-4.8 4.6 0 8.1 1.7 10.5 5.1h.4c-.4-2.5-.5-4.5-.5-5.9v-12.7h7.5v49.2h-5.8l-1.3-4.6h-.3c-2.6 3.3-6 5.1-10.6 5.1zm2-6.1c3.1 0 5.3-.9 6.7-2.6 1.4-1.7 2.1-4.5 2.2-8.4v-1c0-4.4-.7-7.5-2.2-9.4-1.4-1.9-3.7-2.8-6.7-2.8-2.6 0-4.6 1.1-6 3.2-1.4 2.1-2.1 5.1-2.1 9.1 0 3.9.7 6.8 2.1 8.9 1.2 2 3.2 3 6 3zM237 373.4c0 7.6-2.1 13.5-6.4 17.5-4.2 4-10.3 6.1-18.3 6.1h-12.9v-46.2h14.3c7.4 0 13.1 2 17.2 5.9 4.1 3.9 6.1 9.5 6.1 16.7zm-7.9.2c0-11.1-5.2-16.6-15.5-16.6H207v33.6h5.4c11.1 0 16.7-5.7 16.7-17zM268.1 396.9l-1.5-4.9h-.3c-1.7 2.1-3.4 3.6-5.1 4.3s-3.9 1.2-6.6 1.2c-3.4 0-6.1-.9-8-2.8-1.9-1.9-2.9-4.5-2.9-7.9 0-3.6 1.3-6.3 4-8.2 2.7-1.8 6.8-2.8 12.2-3l6-.2v-1.9c0-2.2-.5-3.9-1.6-5-1-1.1-2.7-1.7-4.9-1.7-1.8 0-3.5.3-5.2.8-1.6.5-3.2 1.1-4.7 1.9l-2.4-5.3c1.9-1 4-1.7 6.2-2.3 2.3-.5 4.4-.8 6.4-.8 4.4 0 7.8 1 10.1 2.9s3.4 5 3.4 9.1v23.6h-5.1zm-11.1-5c2.7 0 4.9-.8 6.5-2.3 1.6-1.5 2.5-3.6 2.5-6.3v-3l-4.5.2c-3.5.1-6 .7-7.6 1.8-1.6 1-2.4 2.6-2.4 4.8 0 1.6.5 2.8 1.4 3.6.9.7 2.2 1.2 4.1 1.2zM296.8 391.5c1.8 0 3.6-.3 5.4-.9v5.6c-.8.4-1.9.7-3.2.9-1.3.2-2.6.4-4 .4-7 0-10.6-3.7-10.6-11.1v-18.9h-4.8v-3.3l5.1-2.7 2.5-7.4h4.6v7.8h10v5.6h-10v18.7c0 1.8.4 3.1 1.3 4 1.1.9 2.2 1.3 3.7 1.3zM331.1 396.9l-1.5-4.9h-.3c-1.7 2.1-3.4 3.6-5.1 4.3-1.7.8-3.9 1.2-6.6 1.2-3.4 0-6.1-.9-8-2.8-1.9-1.9-2.9-4.5-2.9-7.9 0-3.6 1.3-6.3 4-8.2 2.7-1.8 6.8-2.8 12.2-3l6-.2v-1.9c0-2.2-.5-3.9-1.6-5s-2.7-1.7-4.9-1.7c-1.8 0-3.5.3-5.2.8-1.6.5-3.2 1.1-4.7 1.9l-2.4-5.3c1.9-1 4-1.7 6.2-2.3 2.3-.5 4.4-.8 6.4-.8 4.4 0 7.8 1 10.1 2.9s3.4 5 3.4 9.1v23.6h-5.1zm-11.1-5c2.7 0 4.9-.8 6.5-2.3 1.6-1.5 2.5-3.6 2.5-6.3v-3l-4.5.2c-3.5.1-6 .7-7.6 1.8-1.6 1-2.4 2.6-2.4 4.8 0 1.6.5 2.8 1.4 3.6.9.7 2.3 1.2 4.1 1.2zM370.3 387c0 3.4-1.2 6-3.7 7.9-2.5 1.8-6.1 2.7-10.7 2.7-4.7 0-8.4-.7-11.2-2.1V389c4.1 1.9 7.9 2.8 11.5 2.8 4.6 0 6.9-1.4 6.9-4.1 0-.9-.3-1.6-.8-2.2-.5-.6-1.3-1.2-2.5-1.8-1.2-.6-2.8-1.3-4.8-2.2-4-1.6-6.8-3.1-8.2-4.7-1.4-1.6-2.1-3.6-2.1-6.1 0-3 1.2-5.3 3.6-7 2.4-1.7 5.7-2.5 9.9-2.5 4.1 0 8 .8 11.7 2.5l-2.4 5.6c-3.8-1.6-6.9-2.3-9.5-2.3-3.9 0-5.9 1.1-5.9 3.4 0 1.1.5 2 1.5 2.8 1 .8 3.3 1.8 6.7 3.1 2.9 1.1 5 2.1 6.3 3.1 1.3.9 2.3 2 2.9 3.2.5 1.2.8 2.7.8 4.4zM391.4 391.5c1.8 0 3.6-.3 5.4-.9v5.6c-.8.4-1.9.7-3.2.9-1.3.2-2.6.4-4 .4-7 0-10.6-3.7-10.6-11.1v-18.9h-4.8v-3.3l5.1-2.7 2.5-7.4h4.6v7.8h10v5.6h-10v18.7c0 1.8.4 3.1 1.3 4 1 .9 2.2 1.3 3.7 1.3zM434.8 379.4c0 5.7-1.5 10.2-4.4 13.4-2.9 3.2-7 4.8-12.2 4.8-3.3 0-6.2-.7-8.7-2.2-2.5-1.5-4.4-3.6-5.8-6.4-1.3-2.8-2-6-2-9.6 0-5.7 1.5-10.1 4.4-13.3 2.9-3.2 7-4.8 12.3-4.8 5.1 0 9.1 1.6 12 4.9 2.9 3.3 4.4 7.6 4.4 13.2zm-25.4 0c0 8.1 3 12.1 9 12.1 5.9 0 8.9-4 8.9-12.1 0-8-3-12-8.9-12-3.1 0-5.4 1-6.8 3.1-1.5 2-2.2 5-2.2 8.9zM461.1 361.3c1.5 0 2.7.1 3.7.3l-.7 6.9c-1.1-.3-2.2-.4-3.3-.4-3 0-5.4 1-7.2 2.9-1.8 1.9-2.8 4.5-2.8 7.6v18.3h-7.4v-35h5.8l1 6.2h.4c1.2-2.1 2.7-3.7 4.5-5 1.8-1.2 3.9-1.8 6-1.8zM486.6 397.6c-5.4 0-9.7-1.6-12.8-4.8-3.1-3.2-4.6-7.5-4.6-13.1 0-5.7 1.4-10.2 4.3-13.5 2.8-3.3 6.8-4.9 11.7-4.9 4.6 0 8.3 1.4 10.9 4.2 2.7 2.8 4 6.7 4 11.6v4h-23.3c.1 3.4 1 6 2.8 7.8 1.7 1.8 4.2 2.7 7.3 2.7 2.1 0 4-.2 5.8-.6 1.8-.4 3.7-1 5.7-1.9v6c-1.8.9-3.6 1.5-5.5 1.8-1.8.5-3.9.7-6.3.7zm-1.4-30.7c-2.4 0-4.3.7-5.7 2.2-1.4 1.5-2.3 3.7-2.5 6.5h15.9c0-2.9-.7-5.1-2.1-6.6-1.4-1.3-3.2-2.1-5.6-2.1z"/></g></switch></svg>