<svg xmlns="http://www.w3.org/2000/svg" viewBox="0 0 268.2 121.68"><defs><style>.cls-1{fill:#6cf}.cls-2{fill:#030403}.cls-3{fill:none}.cls-5{fill:#fce94f}.cls-6{fill:#f9f3b6}.cls-7{fill:#e8d348}</style></defs><g id="Layer_2" data-name="Layer 2"><g id="Layer_3" data-name="Layer 3"><path class="cls-1" d="M75.05 70.89h15.81c4.31 0 6.94 3.21 6 7.4-2 9.11-4 18.18-6 27.26-.2.9-.52 1.27-1.53 1.24-10.55-.06-21.1 0-31.66 0-2.25 0-4.31-.52-5.64-2.57a6.22 6.22 0 0 1-.75-4.89c.49-2.4 1.07-4.8 1.62-7.17a9.67 9.67 0 0 1 9.4-7.49h22.12c.87 0 1.1-.32 1.24-1 .52-2.86-.69-4.31-3.64-4.31H56.87c-1 0-1.19-.26-.93-1.21.52-2 1-4.08 1.36-6.13.14-.84.49-1.13 1.36-1.13Zm-.72 22.2h-8.44a3.24 3.24 0 0 0-3 1.91c-.87 1.65 0 3.27 1.85 3.27 5.67.06 11.33 0 17 0a.73.73 0 0 0 .84-.72c.23-1.16.49-2.34.81-3.47.23-.78.09-1-.81-1-2.76.07-5.51.01-8.25.01ZM241.17 107h-10.18c-.81 0-1.1.23-1.27 1-.69 3.35-1.47 6.68-2.17 10-.17.78-.46 1-1.27 1-2.66-.06-5.35 0-8 0-.78 0-1-.14-.81-1q4.38-19.64 8.73-39.29c.52-2.28 1-4.57 1.5-6.88.12-.58.35-.75.93-.75h30.67c4.11 0 6.59 3.21 5.7 7.34q-2.25 10.62-4.74 21.22a9.71 9.71 0 0 1-9.22 7.2c-3.31.16-6.61.16-9.87.16Zm-1.5-8.44h6.71a5 5 0 0 0 4.83-3.64c.93-3.79 1.79-7.57 2.54-11.39.49-2.46-.84-3.87-3.35-3.87h-13.41c-.69 0-1 .17-1.16.87-1.26 5.68-2.53 11.47-3.83 17.16-.2.84.09.87.75.87ZM115.21 106.76h-14.75c-4.34 0-6.91-2.95-6.07-7.2 1.21-6.1 2.66-12.2 4-18.27a32.89 32.89 0 0 1 1-4.19 9.64 9.64 0 0 1 9.22-6.16h19.63c.9 0 1.24-.26 1.42-1.13.69-3.35 1.47-6.68 2.17-10 .14-.69.38-.93 1.13-.93 2.78.06 5.55 0 8.35 0 .58 0 .81.06.66.75q-5.16 23.11-10.26 46.26c-.17.75-.46.9-1.16.9-5.08-.05-10.23-.03-15.34-.03Zm12.34-27.38a3.22 3.22 0 0 0-.38-.09h-14.43a5 5 0 0 0-4.68 4c-.84 3.64-1.65 7.31-2.43 11-.52 2.46.75 4 3.3 4h13.56c.69 0 .93-.23 1-.87.4-2 .9-4 1.33-6 .94-4 1.83-8.01 2.73-12.03ZM154.12 107h-12.66c-2.31 0-4.34-.72-5.55-2.92a5.4 5.4 0 0 1-.66-3.87c1.59-7.26 3.15-14.51 4.86-21.74a9.56 9.56 0 0 1 9.31-7.37c8.5-.06 17-.06 25.47 0 4.57 0 7.05 3.32 6.07 7.78l-4.51 20.27a9.8 9.8 0 0 1-9.71 7.83c-4.24.07-8.43.02-12.62.02Zm1.94-8.44h6a5 5 0 0 0 5.32-4.13c.87-3.61 1.65-7.23 2.43-10.87.49-2.34-.84-4-3.27-4h-12.39a4.92 4.92 0 0 0-5.06 3.76c-1 3.82-1.79 7.66-2.54 11.51a3 3 0 0 0 3.15 3.7ZM197.17 107h-12.66c-4.22 0-7-3.24-6.13-7.11.55-2.46 1.1-4.91 1.65-7.4 1-4.6 2-9.22 3.09-13.82a9.68 9.68 0 0 1 9.6-7.55h25c4.74 0 7.26 3.27 6.22 7.92-1.5 6.76-3 13.53-4.48 20.27A9.91 9.91 0 0 1 210 107c-4.31.05-8.56 0-12.83 0Zm6.22-27.41h-6.16a5.05 5.05 0 0 0-5.15 4c-.87 3.64-1.68 7.29-2.46 11-.52 2.49.84 4 3.38 4h12.34a5.11 5.11 0 0 0 5-4c.84-3.73 1.68-7.46 2.46-11.19a3 3 0 0 0-3.09-3.82c-2.08.01-4.22.04-6.33.04ZM32.67 79.65h-6.94c-.61 0-.84.17-1 .81-1.83 8.38-3.73 16.74-5.56 25.12-.2.87-.46 1.24-1.45 1.21-2.63-.09-5.26-.06-7.92 0-.84 0-1-.26-.78-1 2.11-9.37 4.19-18.7 6.24-28.07 1.3-5.93 2.6-11.82 3.87-17.75.17-.81.43-1.13 1.3-1.1 2.66.06 5.35.06 8 0 1 0 1 .29.81 1-.78 3.38-1.47 6.76-2.31 10.12-.26 1 0 1.21 1 1.21h19.72c3.15 0 5.2 1.39 6 4a7.23 7.23 0 0 1 0 3.85l-6 26.8c-.14.69-.38 1-1.1 1-2.75 0-5.49-.06-8.24 0-.84 0-.9-.23-.72-1q2.47-11.06 4.91-22.17a3 3 0 0 0-3.15-4Z"/><path class="cls-2" d="M74.33 93.09h8.24c.9 0 1 .23.81 1-.32 1.16-.58 2.31-.81 3.47-.12.49-.29.72-.84.72h-17A2.07 2.07 0 0 1 62.88 95a3.27 3.27 0 0 1 3-1.91ZM239.66 98.55h-6.94c-.66 0-.93 0-.75-.87 1.33-5.72 2.57-11.45 3.82-17.2.14-.69.43-.9 1.16-.87h13.41c2.52 0 3.82 1.42 3.35 3.87-.75 3.82-1.62 7.6-2.54 11.39a5 5 0 0 1-4.83 3.64Zm3.85-6c.66-2.83 1.3-5.7 2-8.53.2-.9-.17-1.3-1.07-1.27h-5.32c-.52 0-.78.14-.9.66-.84 3.9-1.71 7.81-2.54 11.71-.23.49 0 .61.46.61h3.67c3.12-.04 3.12-.04 3.7-3.19ZM127.55 79.39c-.9 4-1.76 8-2.66 12-.43 2-1 4-1.33 6-.14.66-.35.9-1 .87H109c-2.54 0-3.82-1.56-3.3-4 .78-3.67 1.59-7.34 2.43-11a5 5 0 0 1 4.68-4c4.8-.06 9.6 0 14.43 0a.65.65 0 0 0 .31.13Zm-18.82 15.38c.17.61.69.52 1.13.52 1.56 0 3.09-.09 4.65 0 1.07.09 1.5-.29 1.5-1.3.81-3.58 1.62-7.17 2.46-10.73.14-.66.14-1-.75-1-1.62.09-3.24 0-4.86 0-1.24 0-1.65.35-1.94 1.56-.43 1.94-.93 3.85-1.27 5.78-.31 1.78-1.04 3.4-.92 5.17ZM156.06 98.58h-6.39a3 3 0 0 1-3.15-3.7c.78-3.85 1.62-7.69 2.54-11.51a4.92 4.92 0 0 1 5.06-3.76h12.34c2.4 0 3.76 1.62 3.27 4-.78 3.61-1.56 7.26-2.43 10.87a5 5 0 0 1-5.3 4.1Zm3.79-7.69c.23-1 .43-1.94.66-2.92a30.17 30.17 0 0 0 .93-4.19c.12-.69-.12-1.13-.9-1.13h-7.14a1.29 1.29 0 0 0-1.4 1.1c-.4 1.88-.81 3.79-1.21 5.7a12.82 12.82 0 0 0-.66 2.95c-.14.64-.29 1.24-.46 1.88-.26.9.06 1.3 1 1.3h6.91a1.46 1.46 0 0 0 1.62-1.27c.18-1.16.41-2.31.64-3.42ZM199.12 98.58h-6.39a3 3 0 0 1-3.15-3.7c.78-3.85 1.62-7.69 2.54-11.51a4.92 4.92 0 0 1 5.06-3.76h12.34c2.4 0 3.76 1.62 3.27 4-.78 3.61-1.56 7.26-2.43 10.87a5 5 0 0 1-5.36 4.1Zm3.79-7.69c.23-1 .43-1.94.66-2.92a30.17 30.17 0 0 0 .93-4.19c.12-.69-.12-1.13-.9-1.13h-7.14a1.29 1.29 0 0 0-1.46 1.1c-.4 1.88-.81 3.79-1.21 5.7a12.82 12.82 0 0 0-.66 2.95c-.14.64-.29 1.24-.46 1.88-.26.9.06 1.3 1 1.3h6.91a1.46 1.46 0 0 0 1.62-1.27c.25-1.16.48-2.31.71-3.42Z"/><path class="cls-3" d="M53.71 75.17c-.81-2.57-2.89-4-6-4H27.99c-1 0-1.27-.14-1-1.21.81-3.35 1.53-6.76 2.31-10.12.17-.75.14-1.07-.81-1-2.66.09-5.35.06-8 0-.87 0-1.13.29-1.3 1.1-1.27 5.93-2.57 11.82-3.87 17.75Q12.17 91.76 9 105.78c-.17.75-.06 1 .78 1 2.63-.06 5.26-.09 7.92 0 1 0 1.27-.35 1.45-1.21 1.85-8.37 3.78-16.73 5.63-25.11.14-.64.38-.81 1-.81h13.73a3 3 0 0 1 3.15 4C41 91 39.4 98.41 37.73 105.78c-.17.75-.12 1 .72 1q4.12-.09 8.24 0c.72 0 1-.26 1.1-1q2.95-13.4 6-26.8a7.23 7.23 0 0 0-.08-3.81ZM174.85 71.15c-8.5-.06-17-.06-25.47 0a9.58 9.58 0 0 0-9.31 7.37c-1.71 7.23-3.27 14.48-4.86 21.74a5.54 5.54 0 0 0 .66 3.87c1.21 2.17 3.24 2.89 5.55 2.92h25.27a9.88 9.88 0 0 0 9.71-7.83l4.51-20.27c.99-4.48-1.5-7.77-6.06-7.8ZM223.94 79.07c1-4.65-1.47-7.89-6.22-7.92h-25a9.73 9.73 0 0 0-9.6 7.55C182 83.29 181 87.92 180 92.51c-.55 2.46-1.1 4.91-1.65 7.4-.87 3.87 1.85 7.08 6.13 7.11s8.47 0 12.69 0h12.78a9.89 9.89 0 0 0 9.51-7.69c1.54-6.76 2.97-13.52 4.48-20.26ZM259.29 71.23c-10.23-.06-20.44 0-30.67 0-.58 0-.81.14-.93.75-.46 2.28-1 4.57-1.5 6.88q-4.34 19.64-8.73 39.29c-.17.84 0 1 .81 1 2.66 0 5.35-.06 8 0a1.05 1.05 0 0 0 1.27-1c.69-3.35 1.47-6.68 2.17-10a1.08 1.08 0 0 1 1.27-1c3.38 0 6.76-.06 10.18-.06h9.86a9.71 9.71 0 0 0 9.22-7.2c1.65-7.05 3.21-14.14 4.74-21.22.9-4.26-1.58-7.44-5.69-7.44ZM90.83 70.89H58.69c-.87 0-1.19.29-1.36 1.13-.33 1.98-.84 4.07-1.33 6.1-.26 1-.12 1.21.93 1.21h25.15c2.95 0 4.16 1.45 3.64 4.31-.12.75-.38 1.07-1.24 1.07-7.37-.06-14.74 0-22.12 0a9.64 9.64 0 0 0-9.4 7.49c-.55 2.4-1.16 4.77-1.62 7.17a6.2 6.2 0 0 0 .75 4.89c1.36 2.05 3.38 2.57 5.64 2.57h31.66c1 0 1.36-.35 1.53-1.24 2-9.11 4-18.18 6-27.26.88-4.23-1.78-7.44-6.09-7.44ZM141.34 58.86h-8.35c-.72 0-1 .23-1.13.93-.69 3.35-1.47 6.68-2.17 10-.17.87-.52 1.13-1.42 1.13-6.53-.06-13.07 0-19.63 0a9.63 9.63 0 0 0-9.22 6.16 34.15 34.15 0 0 0-1 4.19c-1.36 6.1-2.78 12.17-4 18.27-.87 4.28 1.73 7.2 6.07 7.2h30.15c.66 0 1-.14 1.16-.9q5.02-23.08 10.2-46.23c.18-.72-.05-.78-.66-.75Z"/><path class="cls-2" d="M268.17 75.46c-.38-4.37-3.15-7-7.69-7.31a6.58 6.58 0 0 1-.75-.06h-20.91c-2.89 0-5.75.06-8.64.06l-15.18-.1c-2.23 0-4.48.06-6.71.06h-19.92a13.45 13.45 0 0 0-6.37 1.48c-.38.2-.72.4-1.19.09a9.92 9.92 0 0 0-6.19-1.53c-1.3.06-2.6 0-3.9 0-.69 0-1.36.06-2.05.06h-24.66c-.87 0-1.1-.14-.87-1.07.87-3.56 1.62-7.14 2.43-10.87h-9c-3.67 0-7.34.06-11 0-.69 0-.93.17-1.1.9-.49 2.08-.81 4.22-1.47 6.27-.23 1.27-.49 2.54-.75 3.82a.66.66 0 0 1-.75.58l-4-.06a67.6 67.6 0 0 1-8.38 0q-2.65 0-5.29.09a17.1 17.1 0 0 0-5.75 1.24c0 .14-.12.17-.26.17a1.55 1.55 0 0 1-2.25.17 7.35 7.35 0 0 0-1.45-.66c-1.59-.75-3.3-.55-5-.64H30.63c-.81 0-.66-.38-.55-.87.78-3.38 1.53-6.76 2.37-10.12.26-1 0-1.13-.9-1.13H12.61c-1 0-5.19 21.19-6.94 28.28-1.48 6.95-3.01 13.89-4.6 20.81-.17.72-.09 1.59-.72 2.2.14.87-.35 1.62-.35 2.46 6.56 0 13.13-.06 19.69 0 .9 0 1.33-.2 1.45-1.07l.69-3c1.24-5.52 2.46-11 3.7-16.54.46-2 1-4 1.39-6.1.14-.64.4-.78 1-.78h5.84c.81 0 1.16.23 1 1.07l-4.9 21.44a2.27 2.27 0 0 1-.14.4c-.23 1-.43 2.05-.66 3.06-.29 1.47-.29 1.47 1.21 1.47h43.78a.37.37 0 0 1 .17 0h9.09c.93 0 1.88-.06 2.8-.06H165.6a14.57 14.57 0 0 0 6.74-1.33.92.92 0 0 1 1 0 10.63 10.63 0 0 0 5.44 1.59h32.41c-.75 3.47-1.5 7.14-2.34 10.78-.17.75 0 .9.72.9h19.08c.69 0 .93-.23 1.07-.87.69-3.32 1.45-6.62 2.14-9.95.17-.75.43-1 1.21-1 5.55.06 11.13.06 16.68 0a13.7 13.7 0 0 0 13.7-10.84c.64-2.75 1.19-5.49 1.82-8.24.58-2.4.93-4.86 1.71-7.23a29.32 29.32 0 0 1 .78-4.11 15 15 0 0 0 .41-3.91Zm-221.48 31.3q-4.12-.09-8.24 0c-.84 0-.9-.23-.72-1C39.4 98.41 41 91 42.64 83.61a3 3 0 0 0-3.15-4H25.76c-.61 0-.84.17-1 .81-1.83 8.42-3.76 16.78-5.56 25.16-.17.87-.46 1.24-1.45 1.21-2.66-.09-5.29-.06-7.92 0-.84 0-1-.26-.78-1q3.12-14 6.24-28.07c1.3-5.93 2.6-11.82 3.87-17.75.17-.81.43-1.13 1.3-1.1 2.66.06 5.35.09 8 0 1 0 1 .29.81 1-.76 3.39-1.49 6.8-2.27 10.13-.26 1.07 0 1.21 1 1.21 6.56-.06 13.15 0 19.72 0 3.12 0 5.2 1.39 6 4a7.23 7.23 0 0 1 0 3.84l-6 26.8c-.08.65-.31.91-1.03.91Zm42.67 0H57.7c-2.25 0-4.28-.52-5.64-2.57a6.2 6.2 0 0 1-.75-4.89c.46-2.4 1.07-4.77 1.62-7.17a9.64 9.64 0 0 1 9.4-7.49h22.12c.87 0 1.13-.32 1.24-1.07.52-2.82-.69-4.27-3.69-4.27H56.85c-1 0-1.19-.26-.93-1.21.52-2 1-4.08 1.36-6.13.17-.84.49-1.13 1.36-1.13 5.46.06 10.9 0 16.36 0h15.83c4.31 0 7 3.21 6 7.4-2 9.08-4 18.16-6 27.26-.11.96-.46 1.3-1.47 1.3Zm41.23 0h-30.15c-4.34 0-6.94-2.92-6.07-7.2 1.24-6.1 2.66-12.17 4-18.27a34.15 34.15 0 0 1 1-4.19 9.63 9.63 0 0 1 9.22-6.16h19.63c.9 0 1.24-.26 1.42-1.13.69-3.35 1.47-6.68 2.17-10 .14-.69.4-.93 1.13-.93h8.35c.61 0 .84 0 .66.75q-5.16 23.11-10.26 46.26c-.12.73-.44.87-1.1.87Zm36.11.26h-25.27c-2.31 0-4.34-.75-5.55-2.92a5.54 5.54 0 0 1-.66-3.87c1.59-7.26 3.15-14.51 4.86-21.74a9.58 9.58 0 0 1 9.31-7.37c8.5-.06 17-.06 25.47 0 4.57 0 7.05 3.32 6.07 7.78l-4.51 20.27a9.88 9.88 0 0 1-9.73 7.83Zm43.25 0h-25.47c-4.25 0-7-3.24-6.13-7.11.55-2.49 1.1-4.94 1.65-7.4 1-4.6 2-9.22 3.09-13.82a9.73 9.73 0 0 1 9.6-7.55h25c4.74 0 7.26 3.27 6.22 7.92-1.5 6.74-3 13.5-4.48 20.27a9.89 9.89 0 0 1-9.49 7.67Zm55-28.45c-1.53 7.08-3.09 14.17-4.74 21.22A9.71 9.71 0 0 1 251 107h-9.86c-3.3 0-6.79.06-10.18.06a1.08 1.08 0 0 0-1.27 1c-.69 3.35-1.47 6.68-2.17 10a1.05 1.05 0 0 1-1.27 1c-2.66-.06-5.35 0-8 0-.78 0-1-.14-.81-1q4.38-19.64 8.73-39.29c.49-2.31 1-4.6 1.5-6.88.12-.61.35-.75.93-.75h30.67c4.13.09 6.61 3.27 5.73 7.44ZM30.5 30.66c-.52-3.26.4-5.88 3.38-7.59a14.22 14.22 0 0 0-3.38 7.59ZM72.93 5.94c.32-3.09 2.54-5.17 6.15-5.77a14 14 0 0 0-6.15 5.77ZM73.14 2.62A2.76 2.76 0 0 1 75.7.37a27 27 0 0 0-2.56 2.25ZM31.16 24.28a11.06 11.06 0 0 0-1.53 2.94c-.57-.89.03-2.22 1.53-2.94Z"/><path d="M98.12 69.1a.2.2 0 0 1-.26.17 1.36 1.36 0 0 0 .26-.17Z" style="fill:#882a7a"/><path class="cls-5" d="M90.13 2.36c4.64-.89 8.63.52 12.12 3.52 0 .52.46.69.66 1 .75 1.36 2.86 2.25 1.47 4.44.92-.63 2 .12 2.83-.49a7.31 7.31 0 0 1 .79.17c.09.43.52.46.81.63a7.23 7.23 0 0 1 3.32 5.45 14.81 14.81 0 0 1-2.6 1c-.61 0-.87.23-.4.75a2.62 2.62 0 0 1 .63 1.73.72.72 0 0 0 .43.78 15.19 15.19 0 0 1 3.43-.09c1 .12.63.89.78 1.38.06.23-.32.2-.52.17-3.66-.61-4.67 0-6.06 3.38 0 0 0 .06.17.26.63-.66.89-1.62 1.62-2.16a6.55 6.55 0 0 1 2.91-1.07c-2.28 1.67-1.82 4-2.13 6a6.79 6.79 0 0 0 .87-2.31 4.57 4.57 0 0 1 2.15-2.9c1-.49 1.21-.32 1.38.69a17.89 17.89 0 0 1-.38 5.68 2.52 2.52 0 0 0 0 1.33c1-2.94 1.79-5.65 1.53-8.6-.06-.72-.2-1.41-.29-2.13-.12-.92.09-1.76 1-2 2.42-.66 4-2.37 5.39-4.24.81-1 1.33-1 2.45-.17a2.08 2.08 0 0 0 .09.84 46.21 46.21 0 0 1 1.56 8.11 30.39 30.39 0 0 1-1.1 11.28c-1.53 4.9-4.56 8.37-9.84 9.29a24.09 24.09 0 0 1-8.86-.29c-.29-.06-.55-.2-.75.14l-.4-.09c-.06-.29-.14-.49-.43-.17a13.81 13.81 0 0 1-4.73-2.08c.63 2.25-.17 4.15-.46 6.12-.43 2.83.66 3.89 3.46 3.58v.87a4.26 4.26 0 0 1-4.15-.84c-1.38-1.07-2.71-2.28-4-3.43a3.86 3.86 0 0 0-1.56-.89 35.37 35.37 0 0 1-5-2.28c-.09-.46-.49-.49-.87-.72a5.57 5.57 0 0 0 1.15 3 3.24 3.24 0 0 1 .55 2.57 64.3 64.3 0 0 1-2.31 8 10.89 10.89 0 0 1-2.57 4.18c-1.41 1.27-2.8 2.57-4.21 3.84a4 4 0 0 1-3.66 1c-.81-.14-1 .12-1.36.72-1 2-2.65 2.37-4.59 1.24a3.32 3.32 0 0 0-.45-.25c-.26-.43-.58-.81-.81-1.27-1.24-2.51-1.07-3.12 1.33-4.53q.82-.48 1.64-1c1.13-.72 1.13-.72 2 .23-.06-1-.14-1.85-.12-2.71a10.53 10.53 0 0 1 .2-2.68c-.06-.75.46-1.36.49-2.08.09-.09.29-.12.09-.29 0 .09-.06.17-.09.29-.38 0-.55.29-.72.55a6.41 6.41 0 0 1-4.24 3.14 49.73 49.73 0 0 1-8 .84c-.23-1-.46-2.08-.72-3.14-.09-.4-.14-.81-.23-1.21-.29 1.27-.43 2.51-.61 3.72-.46 3.4-1.76 6.32-5 7.93a1.75 1.75 0 0 0-1.1 1.9c.06 1.62-.69 2.34-2.34 2.45-.43 0-1-.17-1.33.23a8.14 8.14 0 0 1-3.14-1.07 1.7 1.7 0 0 1-.81-2.31A29.94 29.94 0 0 0 48 61.52a2.35 2.35 0 0 0-.38-1.9 35 35 0 0 1-4.1-7.93c-.17-1.38-.38-2.77-.52-4.15a25 25 0 0 1 .25-8.54c2-7.79 7.24-12.2 14.77-14.28-.75 1.41-1.47 2.83-2.22 4.24-.26.52-.49 1-.75 1.53a5 5 0 0 0 .63 5.42c-.26 3 1.56 5.19 3.09 7.47-.75 1.9-.09 3.32 1.47 4.53.84.66 1.64 1.36 2.54 2 1.59 2 3.78 2.16 6 1.82a30 30 0 0 0 6.32-2.08c2.54-1 5.08-2 7.88-1.9.52 0 .72-.26 1-.66 1.64-2.63 1.44-5.51 1-8.37a131.39 131.39 0 0 0-3.12-14.13c-.09-.29.06-.78-.46-.87-.06-.66-.12-1.33-.2-2a14.44 14.44 0 0 0-.78 4.67c-.12 2.54.49 5 .78 7.5.38 3 .46 6-.78 8.91-.17.38-.23.81-.81.87-3 .38-5.65 1.82-8.28 3.26A13.14 13.14 0 0 1 67 48.8c-3 .4-5-1.1-6.66-3.32-.55-.75-.12-1.76.2-2.57a41 41 0 0 1 3.17-6.12c.35-.61.66-1.18 1-1.79l.26-.38.09-.23c-.12-.06-.17 0-.2.12a3.29 3.29 0 0 0-.32.32 44.92 44.92 0 0 0-4.1 5.22 17.08 17.08 0 0 0-2.28-3.81 10.3 10.3 0 0 1 1.62-4.73C61 29.73 62 27.92 63.13 26.1c2.39-4 4.5-8.16 7.64-11.68.61-.66 1.5-1.13 1.7-2.13a.39.39 0 0 0 .43-.2l7-1.3c.14 0 .29 0 .32-.2a5.46 5.46 0 0 1 4.59 1.44c.23.2.43.49.78.52a.49.49 0 0 0 .26.4s0 .06 0 .09a.09.09 0 0 1 .06 0 .4.4 0 0 0-.12-.09.48.48 0 0 0-.17-.46 19.28 19.28 0 0 1-1-2.74c-.52-3.14-.14-4.93 2.74-6.2 1.09-.47 2.07-.5 2.77-1.19Zm10.38 17.39h-.2a6.91 6.91 0 0 0-5.71 3 20.1 20.1 0 0 1-1.41 1.7c-.06.2-.4.23-.35.49a.24.24 0 0 0 .35.14c.84-.43 1.13.14 1.44.72A2.4 2.4 0 0 0 96 27.11c.14.4.38.2.58 0l1.21-1.07a18 18 0 0 1 5.86-3.26 2.44 2.44 0 0 0-.61 0l-1 .12a2.89 2.89 0 0 0-1-2c-.35-.29-.69-.58-.61-1.1a1.45 1.45 0 0 0 .38-.14l-.09-.14Zm-30.72 3.72c-.75.75-.66 1.82-1 2.68l-2 4.41c-.09.09-.29.12-.09.29 0-.09.06-.17.09-.29a1.26 1.26 0 0 0 .49-.2 31.2 31.2 0 0 0 4.53-7.3 6.28 6.28 0 0 1 .63-1.24 1 1 0 0 1 1.18-.29c.43.12.29.52.32.81l.26 2.16c.72-5 3.55-8.22 8.13-10.13-.89-.72-1.62-.26-2.37 0a38 38 0 0 0-4.07.2 4.19 4.19 0 0 0-3.72 2.31 36.42 36.42 0 0 0-2.54 6.35c-.04.07.1.19.16.24ZM123.94 15c-2 2.54-3.84 4.85-7.13 4.73 2.39 1.41 5.88-.73 7.13-4.73ZM94 14.27c-3 .58-4.33 2.45-3.72 5.34A8.41 8.41 0 0 1 94 14.27ZM97.77 43c.38-2 2-2.65 3.52-3.43-3.29.66-3.29.66-3.52 3.43Z"/><path class="cls-6" d="M58.11 24.69C50.61 26.76 45.3 31.18 43.34 39a24.25 24.25 0 0 0-.23 8.54c.14 1.38.35 2.77.52 4.15-4.73-11-1.79-22.5 8-29.48 3.66-2.63 7.85-3.78 12.49-4.44-1.38 1.64-2.6 3.12-3.87 4.56a18.87 18.87 0 0 1-2.14 2.36Z"/><path class="cls-7" d="M70 68.24a2.45 2.45 0 0 1 .49.17c1.9 1.13 3.55.72 4.59-1.24.32-.61.55-.87 1.36-.72a4.09 4.09 0 0 0 3.66-1c1.41-1.27 2.8-2.57 4.21-3.84a9.88 9.88 0 0 0 2.57-4.18 69.71 69.71 0 0 0 2.31-8 3.07 3.07 0 0 0-.56-2.43 5.36 5.36 0 0 1-1.13-3.09c.4.23.78.26.87.72-.29.14-.12.23 0 .35a11.58 11.58 0 0 0 3.49 2.51.74.74 0 0 1 .52 1 35 35 0 0 1-7 16 26.55 26.55 0 0 1-3.66 3c-1.53 1.33-3.26 2.42-4.44 4.18a3 3 0 0 1-4.47.43A12.14 12.14 0 0 1 70 68.24ZM81.53 23.65c.52.09.38.58.46.87a140.45 140.45 0 0 1 3.12 14.13c.43 2.86.63 5.71-1 8.37-.26.4-.43.69-1 .66-2.8-.09-5.34 1-7.88 1.9a31.16 31.16 0 0 1-6.32 2.08c-2.25.35-4.44.17-6-1.82a8.62 8.62 0 0 0 7.93-.78c2.8-1.62 5.57-3.49 8.86-3.78 2-.17 2.34-1.24 2.74-2.71a24.61 24.61 0 0 0 .06-11.77 45.38 45.38 0 0 1-.97-7.15ZM93 52.38c1.64 2.91 1.88 6.06 1.85 9.23a4.17 4.17 0 0 0 .35 1.76c.72 1.79-.2 3.49-2 3.49a47.11 47.11 0 0 1-6.38-.23c-.29 0-.72 0-.84-.35s.32-.43.49-.66a30.15 30.15 0 0 0 5.77-11c.25-.77.51-1.52.76-2.24ZM105.68 43.84c.2-.35.46-.2.75-.14a22.91 22.91 0 0 0 8.86.29c5.31-.92 8.31-4.38 9.84-9.29a30.39 30.39 0 0 0 1.1-11.28 46.21 46.21 0 0 0-1.56-8.11 2.08 2.08 0 0 1-.09-.84 2.08 2.08 0 0 1 1 1.21c2.25 6.55 3.29 13.21 1.1 20-1.44 4.47-4.15 7.88-8.91 9.17a19.17 19.17 0 0 1-9.77-.35 9 9 0 0 1-2.32-.66Z"/><path class="cls-6" d="M72.59 12.17c-.2 1-1.1 1.47-1.7 2.13-3.15 3.52-5.25 7.7-7.65 11.7-1.1 1.82-2.16 3.66-3.32 5.42a10.77 10.77 0 0 0-1.62 4.73c-.35-.4-.66-.84-1-1.24a3.81 3.81 0 0 1-.4-4.15 32.85 32.85 0 0 1 6.52-9.43c2.28-2.51 4.38-5.16 6.81-7.53a5.2 5.2 0 0 1 2.36-1.63ZM90.13 2.36c-.69.69-1.67.72-2.51 1.1-2.88 1.27-3.26 3.06-2.74 6.2a14.74 14.74 0 0 0 1 2.74l-.06.06c-.35 0-.55-.29-.78-.52a5.4 5.4 0 0 0-4.59-1.44h-4.66c3.46-5.29 8.8-6.87 14.34-8.14Z"/><path class="cls-7" d="M50.52 70.61c.38-.4.89-.17 1.33-.23 1.64-.12 2.39-.84 2.34-2.45a1.74 1.74 0 0 1 1.1-1.9c3.23-1.62 4.5-4.53 5-7.93.17-1.24.32-2.48.61-3.72.09.4.14.81.23 1.21 0 1.85-.09 3.66-.06 5.51a6.42 6.42 0 0 1-1.15 4 7.09 7.09 0 0 0-1.62 4.56c.09 1.62-.55 2.11-2.16 2.11a16.9 16.9 0 0 1-5.62-1.16Z"/><path class="cls-5" d="M39.21 60.05a5.83 5.83 0 0 1-1.44-1.82c-1.3-2.22-1.18-3 .61-4.82l1.82-1.82c.46.2.46.69.61 1.1a14 14 0 0 0 2.11 4.44c.78 1 .26 1.82-.23 2.63s-1.21.49-1.93.38a6.9 6.9 0 0 0-1.55-.09Z"/><path class="cls-7" d="M39.21 60.05a13 13 0 0 1 1.5.06c.72.12 1.47.4 1.93-.38s1-1.59.23-2.63a15 15 0 0 1-2.11-4.44c-.12-.38-.12-.87-.61-1.1.52-.52.61-1.27 1-2a42.37 42.37 0 0 0 5 10.64.89.89 0 0 1 .12.81 2.12 2.12 0 0 1-3.12 1.64 9.59 9.59 0 0 1-3.94-2.6ZM61.8 58.7a49.73 49.73 0 0 0 8-.84 6.5 6.5 0 0 0 4.2-3.15c.17-.29.35-.55.72-.55 0 .72-.55 1.33-.49 2.08-.81.4-.81 1.27-1 2a1.1 1.1 0 0 1-.92.87 29.05 29.05 0 0 1-9.87.09c-.27-.07-.67.04-.64-.5ZM38.06 27.34c0 1.5.06 3-1.13 4.24-.52.55.26 1.07.46 1.59a1.08 1.08 0 0 0 1.36.61 10.57 10.57 0 0 0 2.71-1.27c-.2 2.13-.81 2.77-2.63 2.86a2.06 2.06 0 0 1-2.45-1.59c-.29-.72-.49-1.5-.75-2.25v-1.18a3.19 3.19 0 0 1 2.43-3.01ZM103.11 52v-.87l.61-.4c-1.18-.12-2.42.2-3.23-1.07.89.06 1.64.4 2.45.38a3.1 3.1 0 0 0 3.26-2.65c.09-.43.23-.84.35-1.24.14-.61.55-.23.87-.2s.55.17.46.55c-.58 2.51-1.67 4.59-4.3 5.48-.18.02-.33.02-.47.02ZM58.86 43.38c-1.53-2.28-3.35-4.44-3.09-7.47a33.38 33.38 0 0 1 3 4.18 2.91 2.91 0 0 1 .09 3.29ZM112.19 17.07a7.18 7.18 0 0 0-3.32-5.45c-.29-.17-.72-.2-.81-.63a6.35 6.35 0 0 1 3.55 2 13 13 0 0 1 2.91 4.64 4.85 4.85 0 0 0-2.33-.56ZM107.23 10.87c-.87.61-1.9-.12-2.83.49 1.38-2.19-.72-3.06-1.47-4.44-.2-.35-.69-.55-.66-1l5.48 4.44c-.08.22-.75.02-.52.51Z"/><path class="cls-5" d="M38.06 27.34a3.26 3.26 0 0 0-2.45 3v1.18a2.45 2.45 0 0 1-.32-3.09 7.67 7.67 0 0 1 3.38-3.52l.09.09c-.27.81-.5 1.59-.7 2.34Z"/><path class="cls-7" d="M110.23 21.28c-.38-.12-.4-.43-.43-.78a2.66 2.66 0 0 0-.63-1.73c-.43-.52-.2-.75.4-.75 1 .26.58 1.13.66 1.82a3.77 3.77 0 0 1 .66-.58.83.83 0 0 1 1.24.49c.23.55 0 .84-.61 1a1.69 1.69 0 0 0-1.29.53ZM40.08 27.14c-.69-.2-1.1-.52-.49-1.27a1.28 1.28 0 0 1 .49 1.27ZM104.84 43.55c.29-.32.38-.12.43.17a.43.43 0 0 1-.43-.17Z"/><path class="cls-6" d="M73 12a.43.43 0 0 1-.43.2c.08-.2.28-.2.43-.2Z"/><path class="cls-5" d="M38.64 24.95c0-.09 0-.17.14-.12a.89.89 0 0 0-.06.2Z"/><path class="cls-7" d="M41.46 32.53c0-.06.09-.09.12-.14a.29.29 0 0 0 0 .09c-.06.12-.12.12-.14.06ZM66.76 30.6l2-4.41c.4-.87.29-2 1-2.68a23.26 23.26 0 0 0 1.53-3.06c.75-1.38 1.36-2.88 2.71-3.84l.17.2a5 5 0 0 0-.17 3.92 9.63 9.63 0 0 1 1.9-4.24 3.24 3.24 0 0 1 1.88-1.27c.72-.2 1.56-.2 2.11-.87.75-.23 1.47-.69 2.37 0-4.56 1.9-7.41 5.16-8.13 10.13l-.26-2.16c0-.29.12-.72-.32-.81a1 1 0 0 0-1.18.29 6.28 6.28 0 0 0-.63 1.24 30.27 30.27 0 0 1-4.53 7.3c-.09.14-.29.14-.46.23Z"/><path class="cls-2" d="M93.16 24.51a19.21 19.21 0 0 0 1.41-1.7 6.91 6.91 0 0 1 5.71-3c-.06.49-.69.43-.87.92a3 3 0 0 1 1.64 1.85c.17.69.52.61 1 .4s.63-.09 1-.12h.61a19.14 19.14 0 0 0-5.86 3.26l-1.27 1.08c-.17.14-.4.38-.58 0 .58-.63 1.15-1.24 1.67-1.9.2-.26.87-.32.49-.87a1.16 1.16 0 0 0-1.38-.52c-.81.17-.89.89-1.1 1.53a3.63 3.63 0 0 1-.69-1.62c-.63.06-.94.87-1.78.69ZM79.94 14.36c-.55.66-1.38.63-2.11.87A3.16 3.16 0 0 0 76 16.49a9.63 9.63 0 0 0-1.9 4.24 5 5 0 0 1 .17-3.92c.12-.09.2-.2.06-.32s-.17.06-.26.09c-1.36 1-2 2.45-2.71 3.84a20.17 20.17 0 0 1-1.53 3.06c-.06-.09-.2-.17-.2-.23a36.42 36.42 0 0 1 2.54-6.35 4.08 4.08 0 0 1 3.72-2.31 32.2 32.2 0 0 1 4.05-.23Z"/><path class="cls-7" d="M93.16 24.51c.78.17 1.15-.63 1.85-.78a3.33 3.33 0 0 0 .69 1.62c.2-.66.29-1.36 1.1-1.53a1.18 1.18 0 0 1 1.38.52c.38.55-.29.63-.49.87-.52.66-1.13 1.27-1.67 1.9a2.4 2.4 0 0 1-1.38-1.27c-.32-.58-.61-1.18-1.44-.72-.12.06-.32.06-.35-.14s.25-.27.31-.47Z"/><path class="cls-2" d="M123.94 15c-1.27 4-4.73 6.12-7.13 4.73 3.29.14 5.13-2.2 7.13-4.73ZM94 14.27a8.26 8.26 0 0 0-3.72 5.34c-.61-2.89.72-4.73 3.72-5.34ZM97.77 43c.23-2.8.23-2.8 3.52-3.43-1.5.78-3.17 1.43-3.52 3.43Z"/><path class="cls-7" d="M102 22.93c-.46.2-.81.32-1-.4a3.05 3.05 0 0 0-1.64-1.85c.17-.49.81-.4.87-.92h.2c-.09.49.23.78.55 1.1a2.89 2.89 0 0 1 1.02 2.07ZM100.51 19.75a2.72 2.72 0 0 1 .29-.29l.09.14a3.24 3.24 0 0 1-.38.14ZM66.76 30.57c0 .09-.06.17-.09.29-.2-.14 0-.2.09-.29ZM74.78 54.17c0-.09.06-.17.09-.29.17.17 0 .2-.09.29Z"/><path class="cls-2" d="m65.12 34.58-.26.38-.17-.2a3.29 3.29 0 0 0 .32-.32.51.51 0 0 1 .11.14Z"/><path class="cls-6" d="M85.83 12.4a.41.41 0 0 1 .17.46c-.17-.06-.23-.23-.26-.4.03-.01.09-.06.09-.06Z"/><path class="cls-2" d="M65 34.46c0-.12.09-.2.2-.12l-.09.23a.23.23 0 0 0-.11-.11Z"/><path class="cls-6" d="M86 12.86a.4.4 0 0 0 .12.09s-.06 0-.06 0 0-.06-.06-.06Z"/><path class="cls-7" d="M74 16.58c.09 0 .23-.12.26-.09s.06.23-.06.32a1.44 1.44 0 0 1-.2-.23Z"/><path class="cls-3" d="M92.26 54.63a30.38 30.38 0 0 1-5.77 11c-.17.2-.55.38-.49.66s.55.29.84.35a46.93 46.93 0 0 0 6.38.23c1.76 0 2.71-1.67 2-3.49a4.66 4.66 0 0 1-.35-1.76c0-3.2-.23-6.35-1.88-9.26-.24.74-.5 1.49-.73 2.27ZM41.17 49.61c-.4.69-.49 1.44-1 2l-1.82 1.82c-1.79 1.79-1.9 2.6-.61 4.82a6.12 6.12 0 0 0 1.47 1.85 9.33 9.33 0 0 0 4 2.65 2.12 2.12 0 0 0 3.12-1.64.89.89 0 0 0-.12-.81 43.4 43.4 0 0 1-5.04-10.69Z"/><path class="cls-3" d="M125.55 15.6a2.08 2.08 0 0 0-1-1.21c-1.13-.84-1.64-.87-2.45.17-1.47 1.88-3 3.55-5.39 4.24-.92.26-1.15 1.13-1 2 .09.72.23 1.41.29 2.13.26 2.91-.55 5.65-1.53 8.6a2.52 2.52 0 0 1 0-1.33 17.89 17.89 0 0 0 .38-5.68c-.17-1-.43-1.21-1.38-.69a4.5 4.5 0 0 0-2.11 2.88 7.46 7.46 0 0 1-.87 2.31c.32-2-.14-4.33 2.13-6a6.42 6.42 0 0 0-2.91 1.07c-.69.55-1 1.5-1.62 2.16-.14-.2-.17-.23-.17-.26 1.36-3.4 2.39-4 6.06-3.38.2 0 .58.06.52-.17-.14-.49.17-1.27-.78-1.38a15.15 15.15 0 0 0-3.43.09 1.78 1.78 0 0 1 1.3-.61c.61-.12.87-.4.61-1a.86.86 0 0 0-1.24-.49 3.77 3.77 0 0 0-.66.58c-.09-.66.35-1.53-.66-1.82a19.92 19.92 0 0 0 2.6-1 5.24 5.24 0 0 1 2.37.58 13 13 0 0 0-2.91-4.64 6.35 6.35 0 0 0-3.55-2 7.3 7.3 0 0 1-.84-.12c-.2-.49.43-.29.52-.55L102.3 5.7c-3.52-3-7.47-4.41-12.12-3.52-5.53 1.25-10.9 2.82-14.39 8.14h4.62c-.06.17-.2.17-.32.2l-7 1.3c-.2.17-.4.14-.46.38a5 5 0 0 0-2.37 1.62c-2.42 2.37-4.53 5-6.81 7.53a32.85 32.85 0 0 0-6.52 9.43 3.81 3.81 0 0 0 .4 4.15c.32.43.66.84 1 1.24A19 19 0 0 1 60.59 40a48.25 48.25 0 0 1 4.1-5.22l.17.2c-.32.61-.66 1.18-1 1.79a47.19 47.19 0 0 0-3.17 6.12c-.32.84-.72 1.85-.2 2.57 1.62 2.25 3.69 3.72 6.66 3.32 1.62-.2 2.91-1.18 4.3-1.93 2.63-1.44 5.22-2.88 8.28-3.26.58-.06.66-.52.81-.87 1.24-2.88 1.15-5.88.78-8.91-.29-2.51-.89-5-.78-7.5a15 15 0 0 1 .78-4.62c.06.66.12 1.33.2 2a49.52 49.52 0 0 0 .92 7.15c.78 3.92 1.1 7.85-.06 11.77-.43 1.47-.78 2.54-2.74 2.71-3.29.29-6.09 2.16-8.86 3.78a8.62 8.62 0 0 1-7.93.78c-.89-.61-1.7-1.3-2.54-2-1.56-1.21-2.22-2.63-1.47-4.53a2.87 2.87 0 0 0-.12-3.29 30 30 0 0 0-3-4.18 5 5 0 0 1-.63-5.42c.26-.52.49-1 .75-1.53.72-1.41 1.47-2.83 2.22-4.24a16.92 16.92 0 0 0 2.11-2.42c1.27-1.44 2.48-2.91 3.87-4.56-4.64.66-8.83 1.85-12.49 4.44-9.78 7-12.72 18.49-8 29.48a33.38 33.38 0 0 0 4.1 7.93 2.39 2.39 0 0 1 .38 1.9 29.94 29.94 0 0 1-1.47 5.74 1.7 1.7 0 0 0 .81 2.31 7.55 7.55 0 0 0 3.14 1.07 16 16 0 0 0 5.57 1.07c1.62 0 2.28-.49 2.16-2.11A6.79 6.79 0 0 1 59.87 65a6.48 6.48 0 0 0 1.15-4c0-1.82 0-3.66.06-5.51.23 1 .46 2.08.72 3.14-.06.55.38.4.66.46a29.05 29.05 0 0 0 9.87-.09 1 1 0 0 0 .92-.87c.23-.69.2-1.59 1-2a9.29 9.29 0 0 0-.2 2.68c0 .89.06 1.79.12 2.71-.92-1-.92-1-2-.23l-1.64 1c-2.39 1.41-2.57 2-1.33 4.53.23.43.52.84.81 1.27a11.41 11.41 0 0 0 2.88 3.84 2.93 2.93 0 0 0 4.47-.43c1.21-1.76 2.91-2.83 4.44-4.18 1.18-1 2.65-1.79 3.66-3a35.65 35.65 0 0 0 7-16 .74.74 0 0 0-.52-1 11.11 11.11 0 0 1-3.49-2.51c-.12-.12-.32-.23 0-.35a39 39 0 0 0 5 2.28 4 4 0 0 1 1.56.89c1.33 1.18 2.63 2.37 4 3.43a4.32 4.32 0 0 0 4.15.84 2.23 2.23 0 0 0 .43-.06c2.65-.87 3.72-3 4.3-5.48.09-.4-.12-.52-.46-.55s-.69-.4-.87.2c-.12.4-.26.84-.35 1.24a3.1 3.1 0 0 1-3.28 2.75c-.81 0-1.56-.32-2.45-.38.84 1.27 2.08 1 3.23 1.07l-.61.4c-2.83.32-3.89-.75-3.46-3.58.29-2 1.13-3.84.46-6.12a13.57 13.57 0 0 0 4.73 2.08.43.43 0 0 0 .43.17l.4.09a10.16 10.16 0 0 0 2.25.69 18.86 18.86 0 0 0 9.81.32c4.76-1.3 7.47-4.73 8.91-9.17 2.21-6.76 1.2-13.42-1.08-19.97Z"/><path class="cls-3" d="M41.4 32.56a11.58 11.58 0 0 1-2.71 1.27c-.61.12-1.13 0-1.36-.61s-1-1-.46-1.59C38.06 30.4 38 28.9 38 27.4c.23-.78.43-1.53.66-2.31 0-.09.09-.2.06-.2s-.09 0-.09.06a7.81 7.81 0 0 0-3.38 3.52 2.49 2.49 0 0 0 .32 3.09c.26.75.46 1.5.75 2.25a2.06 2.06 0 0 0 2.45 1.59c1.82-.1 2.43-.76 2.63-2.84ZM41.55 32.5a.11.11 0 0 0 0-.09 1.13 1.13 0 0 1-.1.13c.02.07.07.07.1-.04Z"/><path class="cls-3" d="M40.08 27.14a1.28 1.28 0 0 0-.49-1.27c-.59.75-.2 1.07.49 1.27Z"/><path class="cls-2" d="M128.09 17.36a26.89 26.89 0 0 0-1.13-3 3.86 3.86 0 0 0-6.84-.61l-.61.89a5.66 5.66 0 0 1-2.34 2c-.55.29-.81.26-1.13-.38a12.57 12.57 0 0 0-4.16-5.26 80.39 80.39 0 0 1-8-6.26c-4-3.4-8.54-5.42-13.9-4.5C83.72 1.29 78 3.45 74.12 8.88A2.89 2.89 0 0 1 72 10.23a4.21 4.21 0 0 0-2.28 1.15c-1 .92-2.11 1.88-3.09 2.86a3.24 3.24 0 0 1-1.93 1 39.31 39.31 0 0 0-4 .78c-7.79 1.76-14 5.65-18.12 12.78a6.58 6.58 0 0 1-4.2 3.2c.92-.92 1-2.19 1.21-3.46.55.52.75 1.15 1.38 1.56.43-1.53.89-3.12.09-4.44a2.78 2.78 0 0 1 0-2.94c.06-.14.17-.32 0-.49-3 .17-7.21 3.72-7.85 6.58a2.89 2.89 0 0 0 .4 2.48 9.57 9.57 0 0 1 1.27 2.83A3.79 3.79 0 0 0 39 37c.78-.06.72.26.66.78a29.51 29.51 0 0 0 .2 8.28 2.63 2.63 0 0 1-.06 1.15 8.39 8.39 0 0 1-2.65 4.33c-.66.55-1.18 1.24-1.85 1.82a2.34 2.34 0 0 0-.75 2.42A11.38 11.38 0 0 0 44.87 65a2.65 2.65 0 0 1-.4 1.33c-1.15 2.83-.55 4.3 2.34 5.37a42.43 42.43 0 0 0 7.3 1.9 10.5 10.5 0 0 0 2.68.17c2.13-.17 3-1 3.46-3a4.48 4.48 0 0 0 .2-1.5 4.86 4.86 0 0 1 1.18-3.58 4.54 4.54 0 0 0 1.07-3.92c-.06-.23-.2-.61.32-.58 1.53.09 3.06.17 4.88.26-2.19 1.1-2.19 2.77-1.56 4.44a19.18 19.18 0 0 0 5.31 7.9 5.33 5.33 0 0 0 7.64-1 19.87 19.87 0 0 1 3.32-3.46c1-1 2-1.56 3.46-.87a3.08 3.08 0 0 0 1.27.17c2.08 0 4.13.06 6.17 0 3.12 0 4.76-2.48 3.66-5.42a8.63 8.63 0 0 1-.49-2.94 16 16 0 0 0-.81-5.94c-.58-1.36-1.1-2.71-1.64-4.1-.06-.2-.32-.43.09-.66 1 .92 2 1.88 3 2.77a5.94 5.94 0 0 0 5.21 1.66 7.73 7.73 0 0 0 6.55-6.06c.2-.87.55-1.07 1.38-.92a20.75 20.75 0 0 0 5.83 0 16.31 16.31 0 0 0 5.88-2c-.05.46 12.91-8.76 5.92-27.66Zm-88.5 8.51a1.28 1.28 0 0 1 .49 1.27c-.69-.2-1.08-.52-.49-1.27Zm-.81 9.52a2.06 2.06 0 0 1-2.45-1.59c-.29-.75-.49-1.5-.75-2.25a2.49 2.49 0 0 1-.32-3.09 7.81 7.81 0 0 1 3.38-3.52c0-.09 0-.17.09-.06s0 .12-.06.2c-.23.78-.43 1.53-.66 2.31 0 1.5.06 3-1.13 4.24-.52.55.26 1.07.46 1.59s.75.72 1.36.61a11.58 11.58 0 0 0 2.71-1.27 1.13 1.13 0 0 0 .1-.13.11.11 0 0 1 0 .09c0 .11-.08.1-.13 0-.18 2.12-.79 2.78-2.6 2.87Zm7.53 25.67a2.12 2.12 0 0 1-3.12 1.64 9.33 9.33 0 0 1-4-2.65 6.12 6.12 0 0 1-1.47-1.85c-1.3-2.22-1.18-3 .61-4.82l1.82-1.82c.52-.52.61-1.27 1-2a43.4 43.4 0 0 0 5 10.64.89.89 0 0 1 .16.86Zm48.55.58a4.66 4.66 0 0 0 .35 1.76c.72 1.82-.23 3.49-2 3.49a46.93 46.93 0 0 1-6.38-.23c-.29-.06-.75 0-.84-.35s.32-.46.49-.66a30.38 30.38 0 0 0 5.77-11c.23-.78.49-1.53.72-2.25 1.66 2.89 1.89 6.04 1.89 9.24Zm22.88-16.9a18.86 18.86 0 0 1-9.81-.32 10.16 10.16 0 0 1-2.25-.69l-.4-.09a.43.43 0 0 1-.43-.17 13.57 13.57 0 0 1-4.73-2.08c.66 2.28-.17 4.15-.46 6.12-.43 2.83.63 3.89 3.46 3.58l.61-.4c-1.15-.12-2.39.2-3.23-1.07.89.06 1.64.4 2.45.38a3.1 3.1 0 0 0 3.26-2.65c.09-.4.23-.84.35-1.24.17-.61.55-.23.87-.2s.55.14.46.55c-.58 2.51-1.64 4.62-4.3 5.48a2.23 2.23 0 0 1-.43.06 4.32 4.32 0 0 1-4.16-.86c-1.38-1.07-2.68-2.25-4-3.43a4 4 0 0 0-1.56-.89 39 39 0 0 1-5-2.28c-.29.12-.09.23 0 .35a11.11 11.11 0 0 0 3.49 2.51.74.74 0 0 1 .52 1 35.65 35.65 0 0 1-7 16c-1 1.24-2.48 2-3.66 3-1.53 1.36-3.23 2.42-4.44 4.18a2.93 2.93 0 0 1-4.47.43A11.41 11.41 0 0 1 70 68.22c-.29-.43-.58-.84-.81-1.27-1.24-2.51-1.07-3.12 1.33-4.53l1.64-1c1.1-.72 1.1-.72 2 .23-.06-.92-.14-1.82-.12-2.71a9.29 9.29 0 0 1 .2-2.68c-.84.4-.81 1.3-1 2a1 1 0 0 1-.92.87 29.05 29.05 0 0 1-9.87.09c-.29-.06-.72.09-.66-.46-.26-1.07-.49-2.11-.72-3.14 0 1.85-.09 3.69-.06 5.51a6.48 6.48 0 0 1-1.15 4 6.79 6.79 0 0 0-1.62 4.56c.12 1.62-.55 2.11-2.16 2.11a16 16 0 0 1-5.57-1.07 7.55 7.55 0 0 1-3.14-1.07 1.7 1.7 0 0 1-.81-2.31A29.94 29.94 0 0 0 48 61.49a2.39 2.39 0 0 0-.38-1.9 33.38 33.38 0 0 1-4.1-7.93c-4.73-11-1.79-22.5 8-29.48 3.66-2.6 7.85-3.78 12.49-4.44-1.38 1.64-2.6 3.12-3.87 4.56a16.92 16.92 0 0 1-2.11 2.42c-.75 1.41-1.5 2.83-2.22 4.24-.26.49-.49 1-.75 1.53a5 5 0 0 0 .63 5.42 30 30 0 0 1 3 4.18 2.87 2.87 0 0 1 .12 3.29c-.75 1.9-.09 3.32 1.47 4.53.84.66 1.64 1.36 2.54 2a8.62 8.62 0 0 0 7.93-.78c2.77-1.62 5.57-3.49 8.86-3.78 2-.17 2.31-1.24 2.74-2.71 1.15-3.92.84-7.85.06-11.77a49.52 49.52 0 0 1-.92-7.15c-.09-.69-.14-1.36-.2-2a15 15 0 0 0-.78 4.62c-.12 2.54.49 5 .78 7.5.38 3 .46 6-.78 8.91-.14.35-.23.81-.81.87-3.06.38-5.65 1.82-8.28 3.26-1.38.75-2.68 1.73-4.3 1.93-3 .4-5-1.07-6.66-3.32-.52-.72-.12-1.73.2-2.57a47.19 47.19 0 0 1 3.17-6.12c.32-.61.66-1.18 1-1.79l-.17-.2A48.25 48.25 0 0 0 60.59 40a19 19 0 0 0-2.28-3.81c-.35-.4-.69-.81-1-1.24a3.81 3.81 0 0 1-.4-4.15 32.85 32.85 0 0 1 6.52-9.43c2.28-2.51 4.38-5.16 6.81-7.53a5 5 0 0 1 2.37-1.62c.06-.23.26-.2.46-.38l7-1.3c.12 0 .26 0 .32-.2h-4.6C79.28 5 84.65 3.43 90.18 2.19c4.64-.89 8.6.52 12.12 3.52l5.48 4.44c-.09.26-.72.06-.52.55a7.3 7.3 0 0 0 .84.12 6.35 6.35 0 0 1 3.55 2 13 13 0 0 1 2.91 4.64 5.24 5.24 0 0 0-2.37-.58 19.92 19.92 0 0 1-2.6 1c1 .29.58 1.15.66 1.82a3.77 3.77 0 0 1 .66-.58.86.86 0 0 1 1.24.49c.26.55 0 .84-.61 1a1.78 1.78 0 0 0-1.3.61 15.15 15.15 0 0 1 3.43-.09c1 .12.63.89.78 1.38.06.23-.32.2-.52.17-3.66-.61-4.7 0-6.06 3.38 0 0 0 .06.17.26.66-.66.92-1.62 1.62-2.16A6.42 6.42 0 0 1 112.6 23c-2.28 1.67-1.82 4-2.13 6a7.46 7.46 0 0 0 .87-2.31 4.5 4.5 0 0 1 2.11-2.88c1-.52 1.21-.35 1.38.69a17.89 17.89 0 0 1-.38 5.68 2.52 2.52 0 0 0 0 1.33c1-2.94 1.79-5.68 1.53-8.6-.06-.72-.2-1.41-.29-2.13-.14-.89.09-1.76 1-2 2.39-.69 3.92-2.37 5.39-4.24.81-1 1.33-1 2.45-.17a2.08 2.08 0 0 1 1 1.21c2.28 6.55 3.29 13.21 1.1 20-1.43 4.42-4.14 7.86-8.9 9.15ZM41.42 32.54Z"/></g></g></svg>