<svg xmlns="http://www.w3.org/2000/svg" viewBox="0 0 189.6 170" style="enable-background:new 0 0 189.6 170" xml:space="preserve"><style>.st0{display:none}.st1{display:inline}.st2{stroke:#fcee21}.st4{fill:#fcee21;stroke:#000}.st5{fill:#fcf69f}.st7{display:inline;fill:none;stroke:#000}.st8{fill:#fcee21}.st9{fill:#c0c43d}.st11{fill:#fff}.st13{fill:#ffd075}</style><g id="Hive_Logo"><g id="Layer_12"><path class="st2" d="M113 133.5c0-.3.2-.5.5-.5h8.3c.3 0 .4.1.4.4v12.9c0 .2.1.3.3.3h1c.2 0 .4-.2.4-.3v-12.9c0-.2.1-.4.4-.4h8.3c.3 0 .5.2.5.4v36c0 .2-.1.5-.4.5h-8.4c-.2 0-.4-.3-.4-.5v-12.9c0-.2-.1-.4-.3-.4h-1.1c-.2 0-.3.2-.3.4v12.9c0 .2-.2.5-.4.5h-8.1c-.3 0-.6-.3-.6-.7v-35.7zM135.8 170c-.3 0-.6-.3-.6-.7v-35.7c0-.2.2-.5.4-.5h8.4c.3 0 .6.2.6.5v35.8c0 .3-.2.6-.6.6h-8.2zM157.8 149c0 .2.2.4.2.4.1 0 .2-.1.2-.4l2.1-15.3c.1-.3.3-.6.6-.6h8.5c.3 0 .5.3.4.6l-6.8 35.7c0 .3-.3.6-.6.6h-9.6c-.3 0-.5-.3-.6-.6l-6.6-35.8c0-.2 0-.5.3-.5h8.8c.3 0 .5.1.6.5l2.5 15.4zM170.9 133.7c0-.3.3-.6.6-.6H189c.3 0 .5.2.5.5v8.9c0 .3-.2.5-.5.5h-8.2c-.2 0-.3.1-.3.3v2.8c0 .2.2.3.3.3h3.9c.2 0 .3.1.3.3v9c0 .2-.2.4-.4.4h-4c-.2 0-.3.1-.3.4v2.9c0 .2.1.3.3.3h8.5c.3 0 .5.2.5.5v9.2c0 .3-.2.5-.5.5h-17.6c-.3 0-.5-.3-.5-.6v-35.6z"/></g><g id="bee"><path d="m103.9 162 29.5-9.9s-29.2 3.5-32.6-1.7c0 0-7.2-10-3.9 2.2-5-15.7-20.2 13.1 7 9.4z" style="stroke:#ffef00" id="Layer_49"/><path d="M138.8 104.7s-8.9 7.2-15.8 9c-6.8 1.8-27.3 5.9-29.2 10.2-2 4.3-3 6.8 2.7 16.8 5.7 9.9 4.9 16.8 9.2 18.4 4.3 1.7-7.8 3.7-7.9 3.7-.1 0-22.9-16.1-23.2-19.5-.3-3.4 1.4-37.8 6.7-40.3 5.3-2.5 21.9-17.7 31.9-18 9.9-.3 25.6 19.7 25.6 19.7" id="Layer_10"/><path d="M90.8 115.5c1.8 5.2 5.6 11.5 7.9 13.7 2.3 2.3 5.7 5 9.9 4.4 0 0-2.3.9-4.2.6-2-.4-7.5-1.6-9.6-3.9-2-2.3-7.6-9.1-7.6-9.1l-3.4 9.5s7.9 6.3 12.6 7.7c5.3 1.6 9.3 2 10.9.9 0 0-1.4 1.2-3.3 1.6-1.8.4-4.1.3-6.5 0-2.4-.3-10.4-1.4-10.4-1.4l10.3 7.2s3.8 2.1 8.7 2c0 0-3.8 1.2-5.4 1.1-1.6 0-14.3-1.8-14.3-1.8l-8.9-16.7 7.2-18.3 6.1 2.5z" id="Layer_6"/><path class="st4" d="M85.2 71.4c-2.8 0-25.5 2-31.9 10.9-4.6 6.3-11.2 19-3.8 44.3 8.2 27.9 43.9 38 50.1 35.2 6.2-2.8.6-6.7-.1-8.3-.6-1.5-8.6-12.1-10.3-16.5-1.8-4.3 3.4-19.5 5.7-20.1 2.4-.6 6.1-.9 8.1 1.3s7.2 4.5 7.8-4.5c.6-9 4-19.5 4-19.5L85.2 71.4z" id="Layer_5"/><path class="st5" d="M56.3 80.1s-9.8 9.3-9.8 24.7c0 11.3 3.8 24.6 7.4 31.6 2 5.2 20 22 34.7 24.4 12.6 2.9 12.8-1.2 12.8-1.2-1.1.3-6.8 2.8-17.7-1.4-11-4.2-21.8-14.2-25.2-23.9-3.5-9.7-5.4-25.3-5.3-33.3.1-8.1 7-23.3 7-23.3l-3.9 2.4z" id="Layer_22"/><g id="Layer_8"><path d="M67.8 74.6c0 4.4 14 36.6 21.4 42.5 7.4 5.9 18.7 3.9 21.1 3 2.4-.9-9.3-18.7-10.4-20.8C98.8 97 88.1 69 89 66.4c.9-2.6-7.1-1.3-10-.8-2.8.4-11.2 9-11.2 9z" style="stroke:#000"/><path d="M96 148.4s-12.8 1.8-21.5-.3-17.2-6.6-17.2-6.6 10.9 11.1 14.8 12.9c3.9 1.8 23.6 2.1 26.6-1.9 3.1-4.1-2.7-4.1-2.7-4.1zM91.3 141.2s-9.5.4-22.4-3.9c-12.9-4.3-19.1-9.5-19.1-9.5l-3.3-15.3s12.9 12.6 22.4 15.9c9.4 3.3 20.4 5.9 20.4 5.9M47.3 95.4s5.5 13 17.5 20.7c12.1 7.7 25.5 10 25.5 10l1.2-3.5s-2.3-.2-19.7-12.3C54.5 98.2 56 80.7 55.4 80.8c-2.3.4-5.9 8.1-5.9 8.1l-2.2 6.5z"/></g><path class="st4" d="M144.7 73.3c-2.1-10.5-13.7-15.5-21.7-17s-30.9.6-34.1 7.4C85.8 70.6 86.2 83.1 87 88c.8 4.9 8.8 7.1 11.6 8.5 2.9 1.3 6.6-2.7 9.9.9 3.2 3.6 16 11.5 18.6 11.4 2.7 0 9.2-6.6 9.2-6.6l8.4-28.9z" id="Layer_4"/></g><g id="other_ear"><path class="st8" d="m137 59.9 4.8-15 1.7-5.1S136 26 130.7 19.9c-5.3-6.2-9.5-5.8-9.5-5.8s-5.7-2.8-13.5.8c-7.8 3.6-10.8 7.6-10.8 7.6l3.3.9 12.5 27 11.8 13.7 13.8 3.1" id="Layer_20"/><g id="Layer_21"><path class="st5" d="M119.1 14.2s8 7.1 11.3 11.7c3.3 4.6 8.7 8 7.1 19.6-1.6 11.6-.3 15.2-.3 15.2l5.3-21.9s-2.8-7.2-9.7-15.9c-6.9-8.7-11.1-9.6-11.1-9.6l-2.6.9z"/><path class="st5" d="M122.6 22.6s-2-3.9-4-4.9c-2-1.1-3.9-.4-5.2-.7 0 0 3.5.6 4.8 2.3 1.3 1.7 4 7.1 5.3 9.4 1.3 2.3 1.5.6 3.3 5.6 1.8 5.1 5.5 10.1 5.4 12l-2-10.1-7.6-13.6z"/></g><g id="Layer_19"><path d="m136.5 79.3 3.6-10.3s-1-4.6-2.1-5.7c-1-1.1 4.4 4.5 4.4 4.5l-5.9 11.5z"/><path d="M138.4 68.7s.5-11.1 1.4-14.6c1-3.5 5.1-13.6 5.1-13.6s-10-25.4-22.5-27.9-17.6 1.2-21.2 4.9c-3.5 3.7-6.2 4.4-6.2 4.4l11.6 30.7s12.1 3 17.8 5.1l-5.7-4.4s-8.1-9.2-10.7-13.5c-2.6-4.3-9.4-14.9-9.4-14.9l-.6-2s6.6-6.8 8.5-7.3c1.9-.5 5.4-3.4 11.8-.9 6.4 2.4 2.4-.6 2.4-.6s4 .5 5.5 2.3c1.5 1.7 16.5 15.9 15.5 25-.6 5.6-5.8 16.1-5.4 18.5.2 2.3 2.1 8.8 2.1 8.8z"/><path d="M129.2 31.2c2.1 5.4 2.8 13.4 2.8 13.4s-3.1-12.4-5.9-15.5c-2.8-3.1-4.3-8-4.3-8s2.5 2.3 3.5 3.5c1 1.2 3.9 6.6 3.9 6.6z"/></g><g id="Layer_9"><path class="st8" d="m119.9 62.6-29.8 3.9L65 74.1l-22.2 8L25.6 80l-5-13L6.9 52.8S3 43.3 2.6 36.5s7.9-15.3 7.9-15.3l10.8-.7 8.1-5L40.2 2l9.5.7 5.6.3 28.6 13.5 19.7 12.2 8.2 5.9 8.1 28z"/><path class="st5" d="M51.5 31s9.3 2.8 12.8 3.8c3.5 1.1 21.2 4.5 21.2 4.5s11.4.7 15.3 6.9c3.9 6.2 9.4 21.6 9.4 21.6S103.3 56 93.3 52.5c-9.9-3.5-18.8-3-18.8-3s2.3-1.3 5.9-2.2l3.6-.9-.3-3s-7.8-1.9-12.1-3.6C67.3 37.9 51.5 31 51.5 31z"/><path class="st5" d="M35.6 12.5s.1-1 5.6.1 13.9 4.2 13.9 4.2 6.1 1.8 14.6 4.7c8.5 2.9 19.1 6.7 19.1 6.7s8.6 3.5 11.5 6.5c3 3 19.3 26.8 19.3 26.8-3.8-21-12.7-31.8-12.7-31.8S66.5 6.6 55.8 4.1 41.5 2.8 41.5 2.8 35.6 7 35 9.4c-.7 2.3.6 3.1.6 3.1z"/><path d="M119.9 62.6s-4.2-21.3-6.2-29.1c-7.1-6.8-11.6-9.2-11.6-9.2S88 17.5 86.5 15.9c-1.5-1.6-13-6.2-14.9-7.8-2-1.5-14.3-5.5-17.2-6.1-3-.7-11.5-2.3-13.4-1.9-1.9.4-4.5 4.1-6.2 5.4-1.7 1.4-9.9 11.3-12.5 12.3-2.6 1-8.6 1.5-9.4.9-.8-.6-4.4-.5-7.1 3.8C3.1 26.8-.5 34.9.1 40 .7 45.2 4 50.6 8.9 56c5 5.5 7.8 6.7 11.4 14 3.5 7.3 4.6 11.5 4.6 11.5s11.2 1.7 18 .6c6.8-1.1 19.1-5.2 23.2-7.4 4.1-2.2 19.6-6 22.2-7.5 0 0-16.9 3.7-22.3 5.5-5.4 1.8-18 7.6-23.8 7.6-8-.1-15.9-.6-15.9-.6s-3-10.9-6.1-14.8c-3.1-3.9-13.1-12-15-18-1.9-6-2.9-10.9-.5-16.3C7 25.2 11 22.1 11 22.1s4.2-.2 7.6.2c3.4.4 8.7 1.4 12.4 2.6 3.7 1.2 17 7.6 17 7.6l-14.5-8.2-9.6-3.7s4.3-2.5 8.2-7.3c3.9-4.8 4.2-6.5 6.8-8.2C41.5 3.4 43 3 46 3.1c3 .2 9 1.6 12.7 3 3.7 1.3 12.5 4.5 16.1 6.6 3.8 2.2 7.2 3.6 11 5.8 3.8 2.1 12.5 6.4 16.5 9.3 4 2.9 6.1 4.5 8.7 8.2 2.5 3.6 8.9 26.6 8.9 26.6z"/><path d="M106.9 59.7s-5.7-13.9-7-16.4c-1.3-2.5-4.7-3.7-6.5-4.1-1.8-.5-20.5-.5-20.5-.5L88.6 41s2.4.2 4.1.8c1.6.5 4 2.4 4 2.4s-2-.5-3.3-.5c-1.3 0-3.7 1.7-4.5 1.9-1 .2-2.9 1.4-2.9 1.4s4.3-1 6.7-.2c2.4.9 4.1.1 5.9 1.7 1.8 1.7 3.4 3.7 3.4 3.7l4.9 7.5z"/></g></g></g><g id="Layer_13"><path class="st8" d="m103.7 117.8-5.8-9.1s-1.7-7.1 2.7-12.1l4.4-5L119.5 73l16.1-3.2 6.6.1 7.8 20.7 6.7-.5 6.4-1.1 1.7 2.9-6.7 24.8-11.7 10.1-13.6.6-8.2-4.5-6.5 5-6.3.6-3.5-3.1-4.6-7.6z" id="Layer_17"/><g id="Layer_15"><path class="st9" d="M117.4 115s16.8 15.6 27.7 8.4c10.9-7.2 14.3-18 14.3-18s3.7-11.3 3.4-13.6c-.3-2.3 3 .9 3 .9l-6.8 24.9s-10 10.1-16.4 10.6c-6.4.5-17.8-5.2-17.8-5.2l-6.9 5.5-5.8.1 3.3-5.2 2-8.4zM110.1 114.1s2.2-1.6 3.7-2.1 4.9-1.4 4.9-1.4l-5.5-.3-3.1 3.8z"/><path class="st9" d="M149.5 93c.2-.5 3.6 1.1 5.8.4 2.2-.7 2.9-1.4 3.7-1.8.8-.5 1.8-1 2.4-1 .5 0 1.6.1 1 .5-.6.4-4.5 3.1-4.5 3.1l-4.4.6-4-1.8zM113.7 81.7s2.1-3.7 3.3-4.7c1.2-1 6.7-4.1 6.7-4.1l-6.8 1.6s-2.6 4.4-2.9 5.4c-.2 1-.3 1.8-.3 1.8zM140 68.7s-.6-.2-.4 1.3c.2 1.5 1 3.4-.1 4.2-1.1.7-1.8 1.1-1.8 1.1s3.2-.1 4.7 1.2c1.5 1.2 2.8 3.2 3.1 4.8.3 1.6.7 4.8-.5 6.1-1.2 1.3 2.7 4.7 2.7 4.7l2.4-1.3-2-10.2-8.1-11.9z"/><path class="st9" d="M140.3 86.8c0 .9.5 1.4.5 1.4s-.3.3-.6 1.3c-.2 1 .3 2 .3 2s0 .4 1.6.9 3.2 1.6 2 2.4c-1.2.8.7 1.8.7 1.8l2.3-2.4-.7-3.5-2.7-3.1-3.3-1.2M128.4 83.6l-.4.8s.8.8.7 2.7c-.1 1.9-.2 2.2-.2 2.2l2.4.5s-5.5.7-8 1.2-5.7 2.5-6.6 3.1l-.6.4s-.1-.7.7-1.6c.8-1 1.5-1.5 1.5-1.5l.7-.5s-1 .2-1.4-1.9c-.4-2.1-.3-2.2-.3-2.2s-1.6-.4-2-.6c-.4-.2 4.4-1.3 4.4-1.3l9.1-1.3"/></g><g id="Layer_14"><path d="M149.4 90.4s-.2-1.7.1-3.8c.3-2-2.6-7.9-3.7-9.6-1.1-1.7-4.3-8.7-4.3-8.7l-.1-.7" style="fill:none;stroke:#000;stroke-width:3"/><path d="M132.2 98.6c.8-.3 2.4-2.2 3.3-3.4.9-1.2 1.8-1.6 2.8-1.6 1 0 2.7.1 3.5.4.9.3 1.7.2 2.1.9.4.7-1.6.7-1.6.7s-1.4-.7-2.8-.7-2.8 0-3.6.8-3.7 2.9-3.7 2.9z"/><path d="M145 96.1s-4-1.4-5.4.4c-1.4 1.8-2 2.8-2.8 4.2-.8 1.4-2.2 3-2.2 3s3.2-3.2 3.8-4c.6-.7.9-1.3 1.9-2 1-.7 1.9-.7 2.9-.7 1 .1 1.6.4 1.6.4l.2-1.3z"/><path d="M139 107.9s3.6-4.5 4.2-6.1c.6-1.6 2.3-6.1 2.5-7.2.2-1.1 1.1-2.8 1.9-3.5.9-.7 1.1-.2 2.5-.4s3.6-.7 4.3-1.1c.7-.3 3.1-1.8 3.6-2.1.5-.3 2.7-1.3 3.1-1.2.5.2 2.3.4 3.2 1.4.9 1 1.9 2.6 2.2 3.5.3.8-2.5 23-10.3 30.7-8.2 8.1-10.4 8.4-17.8 8-7.4-.4-11.1-3.6-13-4.4-1.9-.8-1.2-.8-1.2-.8s-.9 1.3-2.4 2.8c-1.4 1.5-5.4 3.5-7.5 3.1-2.2-.3-5.8-.3-7.9-3.5-2.1-3.2-3.7-7.9-3.7-7.9l-1.2-3.1s-1.1-1.1-2.4-3.5c-1.3-2.4-1.8-4.9-1.8-4.9s1.7 3 3.1 4.6c1.4 1.6 3.9 4 3.9 4l2.7 6s1.1 4.2 4.6 5.2c3.4 1 5.7.4 7.1-.5 1.4-.8 4.3-3.9 4.3-3.9l-1.6-1.6-1.8 2.5s-1.3 1.9-3.4 1.6c-2.2-.2-3.5-1.2-4.3-1.8l-.8-.6s1.6 2.9 4.4 3.5c-1.1.2-4-.6-4.8-1.6 0 0-1.3-1.4-.5-3.1.7-1.7 1.6-2.9 2.2-3.6.5-.7 1.2-1.2 1.7-2.1.5-.9 1.3-3.6 1.4-3.8.1-.3.2-.2.2-.2s1.8 3.1 3.5 4.4c1.7 1.4 6.2 5.4 7.9 6.4 1.7 1 15 9.2 25-1.5s11.2-23.1 11.2-23.1 1.2-3.6.8-5.5c-.4-1.9-.7-2.8-2.4-3.4-1.7-.6-2.2.8-4 1.6-1.8.7-3.5 1.3-5.4 1.1-1.9-.2-3.3-.2-3.8.8-.5 1.1-2.4 7.4-3.2 8.3-.8 1-1.7 2.3-2.2 2.8-.8.5-4.1 3.7-4.1 3.7z"/><path d="M155.4 95.3c3.4-.4 4.9-2.1 5.3-2.5.5-.4 1.5-1.8 1.5-1.8s-3.7 2.4-5.5 2.6c-1.8.3-3.7 1.5-7.2-.7-.2-.1 1.8 2.3 3.4 2.4 1.7.2 2.5 0 2.5 0zM113.4 111c1.4-.7 5.2-.5 5.2-.5s-4.6-.8-5.5-.7c-.9.1-2.9 4.1-2.9 4.1l3.2-2.9zM127.5 86.5c.3 1.1-.3 2.3-.3 2.3s1 0 1.7.2 2.2.8 2.2.8-5.4-.4-7-.1c-1.7.3-3.2.7-3.8.9-.7.2-3.1 1.3-3.1 1.3s1.6-1.3 1.9-1.4c.3-.1.3-.3.3-.3s-.3-.6-.7-1.7c-.3-1.2.2-2.7.2-2.7s-.9.2-1.7.2c-.7.1-2.4.1-2.4.1s2.3-.9 3.3-1.5 2.5-1.3 3.3-1.5c.8-.2 2.8-.3 3.8-.1 1 .3 4 .6 4 .6s-1.2.4-1.9.4-1 .2-1 .2.9 1.3 1.2 2.3zM141.2 89.2c-.3.8-.2 2-.2 2h-1.4s1.3.3 1.7.6c.4.2 1.5.7 2.4 1 .9.3 2.4 1.1 2.4 1.1l2-2.7-.4-1.6c-.1-.3-.6-1.6-1.1-1.9-.5-.3-2.1-.8-2.6-.8s-1.1.3-1.6.2c-.5-.1-2.1-.5-2.1-.5l1.9 1c-.1.2-.8 1.1-1 1.6z"/><path class="st11" d="M141.1 91.5s.8-.2 1.1-.1c.3 0 1.2.3 1.2.3s.5-.8.4-1.3c-.1-.6-.3-.9-.7-1.1-.4-.2-1.1-.1-1.3 0-.2.1-.7.8-.7.8v1.4z"/><path d="M140.9 75.3s1.3 0 2 .3 1.5 1 1.5 1l.5.9s-1.5-1.3-2.1-1.4c-.6-.2-1.9-.8-1.9-.8zM124.7 72.8s-4.2.3-6.1 1.5c-1.9 1.2-3.6 3.3-3.6 3.3s.7-3.8 2.5-4.5c1.7-.7 7.2-.3 7.2-.3z"/></g><path class="st11" d="M120 87.2c.7-.3 2.1-.4 2.5.7.4 1.1 0 1.2 0 1.2s-.7 0-1.3.2c-.7.2-1.3.7-1.3.7l-.2.1-.7-2s.3-.6 1-.9z" id="Layer_16"/></g></svg>