<svg version="1.1" id="Layer_1" xmlns="http://www.w3.org/2000/svg" x="0" y="0" viewBox="0 0 250 193.4" style="enable-background:new 0 0 250 193.4" xml:space="preserve"><style>.st1{fill:#fbfdfd}.st2{fill:#054f8e}</style><switch><g><path d="M250 191.2V1.2c0-1.2-1-1.2-1.8-1.2H1.1C.6-.1.1.2 0 .8v191.4c-.1.6.4 1.2 1 1.2h248c.7 0 1-.2.9-.9.1-.4.1-.9.1-1.3z" style="fill:#1d63a4"/><path class="st1" d="M36.7 130.2c2.3 0 4.1-.4 5.9-.5 1 0 1.4.2 1.3 1.3v1.5c0 .4 0 .8-.6.7-5.4-.6-10.7.5-16.1 0-7-.1-12.8-5.4-13.6-12.3-1.1-4.8-.3-9.8 2.3-14 3.4-5.5 10-8 16.2-6.2 6.6 1.7 11.2 7.7 11.1 14.5.6 5.7-1.8 11.5-6.5 15zm-19.4-13.8c-.1 2.8.4 5.6 1.6 8.1 2.6 5.1 8.9 7.1 14 4.5 1.4-.7 2.7-1.8 3.7-3.1 3.1-4.7 3.5-10.6 1.1-15.7-2.2-5.3-8.3-7.7-13.6-5.5-1.3.5-2.4 1.3-3.4 2.3-2.3 2.5-3.6 5.8-3.6 9.3l.2.1zM127.5 110.1 118 119c-1.6 1.5-1.6 1.5 0 3l9.7 10.7c-2.4 0-4.3.6-6.2-1.7-2.4-3.2-5.4-6-8-8.9-.3-.3-.5-.8-1.1-.9s0 .9 0 1.4v9.1c0 .9-.2 1.2-1.2 1.2-2.6 0-2.6 0-2.6-2.5V99.8c0-1.2 0-1.8 1.6-1.6 2.2 0 2.2 0 2.2 2.2v19.5c.5 0 .9-.3 1.2-.6 2.7-2.5 5.4-5 8-7.6.9-1.1 2.3-1.6 3.7-1.5.7 0 1.5 0 2.2-.1zM166.1 122.2h-6.7c-1.1 0-1.2.3-1.2 1.3.3 3.8 3.5 6.7 7.3 6.6 2.1.2 4.2-.1 6.2-.7.8-.2 1.2-.3 1.2.8 0 2.1 0 2.1-2.1 2.6-2.8.7-5.8.7-8.6 0-3.2-.5-5.8-2.7-6.9-5.7-1.8-4.3-1.4-9.2 1.1-13.2 2.2-3.5 6.4-5.2 10.4-4.3 3.9.8 6.8 4.3 6.8 8.3 0 1.1 0 2.2.2 3.2.2 1.1-.2 1-1 1l-6.7.1zm-2-3.1h5c.6 0 .9 0 .9-.8.1-3-2.2-5.4-5.2-5.5h-.8c-2.8.4-5 2.6-5.5 5.4 0 .8.2.9.9.9h4.7zM13.9 159.4v-12.9c0-.6 0-1.3.9-1.2 3.7-.1 7.3 0 11 .3 3.8.2 6.9 3 7.4 6.8.5 4.7-2.9 8.9-7.6 9.4-2.2.5-4.4.6-6.6.4-1.2 0-1.6.3-1.6 1.5v8.6c0 1.2-.4 1.6-1.5 1.4H15c-1 0-1.2-.3-1.2-1.2.1-4.3.1-8.7.1-13.1zm7.3-11.1h-2.7c-.7 0-1 0-1 1v8.6c0 .5 0 .9.6.9 3.1.5 6.3 0 9.2-1.3 1.6-.9 2.5-2.7 2.3-4.6 0-1.8-1.1-3.3-2.7-4-2-.5-3.8-.8-5.7-.6zM143.8 118.5v12.9c0 .9 0 1.4-1.2 1.4-2.7 0-2.7 0-2.7-2.7v-24.3c0-1.2-.3-1.5-1.5-1.5h-7.9c-1 0-1.5 0-1.3-1.3.1-.4.1-.9 0-1.3 0-.7 0-.9.9-.9h23.5c.7 0 .9.2.9.9 0 2.6 0 2.6-2.4 2.6H145c-.9 0-1.2.2-1.2 1.2v13zM68.4 118.2v7c0 4.4-3.6 8-8 8.1-1.3.2-2.5.2-3.8 0-3.8-.5-6.6-3.7-6.7-7.5-.4-5 0-10 0-15 0-.6.2-.8.9-.9 2.8-.2 2.9-.2 2.9 2.5v12.3c-.2 2.2 1.2 4.3 3.4 4.9 2.7 1.3 5.9.2 7.2-2.5.4-.8.6-1.6.5-2.5V112c0-2.2-.3-1.9 2.1-2 1.3 0 1.8.3 1.7 1.7v6.4l-.2.1zM217.6 171.7c-2 2-4.8 2.9-7.5 2.6-3.5-.4-6.1-3.6-5.7-7.1.3-2.5 2-4.6 4.3-5.4 2.5-.8 5.2-.8 7.7 0 .8.2 1.1 0 1.1-.8.3-2.5-1.4-4.7-3.9-5.1h-.7c-1.9-.2-3.7 0-5.5.6-.8.2-1 0-1.1-.7a2 2 0 0 1 1.4-2.3h.3c2.6-.7 5.3-.7 7.8 0 3 .6 5 3.3 4.9 6.3v12.9c0 .5 0 1.2-.7 1.1-.7-.1-1.8.6-2.1-.8l-.3-1.3zm0-4.5c0-2.4 0-2.4-2.4-2.7-1.1-.1-2.2-.1-3.4 0-2.5.2-3.7 1.5-3.6 3.8 0 1.9 1.5 3.5 3.4 3.6h.6c2.7.1 5-2 5.2-4.7h.2zM100.1 164.6h-5.8c-1 0-1.2.3-1.1 1.3.3 2.6 2.2 4.8 4.8 5.4 2.3.5 4.6.4 6.8-.2.5 0 1.2-.8 1.4 0 .2.8.5 1.8-.4 2.4-5.3 2.6-11.7.8-15-4-1.9-4-1.6-8.6.7-12.4 2-3.3 6-4.8 9.7-3.8 3.4 1 5.8 4.2 5.8 7.8.2 3.3.2 3.3-3 3.3l-3.9.2zm-1.6-2.8h4.3c.6 0 .9 0 .9-.8.1-2.7-2-4.9-4.7-5h-.6c-2.6.3-4.6 2.3-5 4.8 0 .7 0 .9.7.9l4.4.1zM157.8 163.6c-.3-4 1.7-7.7 5.2-9.7 4.6-2.5 10.3-.8 12.8 3.7.4.8.8 1.7.9 2.5 1.3 4 .4 8.4-2.4 11.5-3.7 3.7-9.6 3.8-13.4.1-1.7-1.7-2.7-4-2.8-6.4-.3-.4-.3-1-.3-1.7zm3.6 0c-.1 1.5.2 3 .9 4.3.9 2.1 2.9 3.4 5.2 3.4 2.3.2 4.5-1.1 5.4-3.3 1.5-2.9 1.5-6.4 0-9.3-.9-2.1-3.1-3.4-5.4-3.2-2.2 0-4.2 1.3-5.1 3.4-.8 1.6-1.1 3.2-1 4.7zM52.2 163.6c-.2-3.9 1.8-7.6 5.2-9.6 4.6-2.5 10.3-.7 12.8 3.9.4.8.7 1.6.9 2.4 1.3 4 .4 8.4-2.4 11.5-3.7 3.7-9.8 3.8-13.6 0-1.6-1.6-2.6-3.8-2.8-6.1 0-.8 0-1.5-.1-2.1zm3.6 0c-.1 1.5.2 3 .9 4.3.9 2.1 2.9 3.4 5.2 3.4 2.3.2 4.4-1.1 5.4-3.2 1.5-2.9 1.5-6.4 0-9.3-.9-2.1-3.1-3.4-5.4-3.2-2.3 0-4.3 1.4-5.2 3.6-.7 1.5-1 3.1-.9 4.7v-.3zM185.1 133.4c-1.8 0-3.6-.3-5.4-.9-.9-.8-1.2-2-.8-3.2.3-.4.7 0 1 0 2 .7 4.2 1 6.4.7 2.1 0 3.9-1.4 4.3-3.4.1-1.3-.6-2.5-1.8-3-1.4-.6-2.8-1-4.3-1.3-4-1.1-5.6-2.9-5.4-6.1 0-3.4 2.6-6.2 6-6.5 2.5-.4 5.1-.2 7.5.7.9.8 1.3 2 .9 3.1-.3.4-.6 0-.9 0-1.4-.5-2.8-.8-4.3-.9-1.1-.1-2.3.1-3.3.5-1.2.5-2 1.6-2 3 0 1.2.7 2.3 1.9 2.7 1.3.5 2.7.9 4.1 1.2 4 1.1 5.6 2.9 5.5 6.4-.1 3.6-2.9 6.5-6.4 6.7-1 .2-2 .3-3 .3zM201.1 120.9v-6.4c0-1-.3-1.3-1.2-1.2-.5.1-1.1.1-1.6 0-1.2 0-1.6-.2-1.6-1.5s.6-1.8 1.9-1.7c2.6 0 2.6 0 2.6-2.5v-1.3c0-2.4.7-3 3.1-2.4.6 0 .6.5.6.9v4c0 1.3.3 1.4 1.4 1.4h4c1.3 0 1.4.5 1.5 1.6.1 1.1-.3 1.7-1.6 1.6-1.3-.1-2.5-.1-3.8 0-1.3 0-1.6.2-1.5 1.4v11.1c0 3.7 1.4 4.6 4.8 4.3l1.6-.2h.7c.5 1.2 0 2.6-1.2 3.1-1.5.3-3 .3-4.5 0-2.9-.3-5.1-2.8-5.1-5.7v-6.6l-.1.1zM185.9 156c1.5-1.7 3.5-2.8 5.8-3.1 3.4-.7 6.7 1.4 7.4 4.8.1.6.2 1.1.1 1.7v13.3c0 .8-.2 1-1 1-2.3 0-2.3 0-2.3-2.2v-11.4c.1-2.4-1.7-4.4-4.1-4.5-.9 0-1.7.2-2.4.6-2.3.8-3.8 3.1-3.6 5.5.2 3.6 0 7.1 0 10.7 0 1.6-.9 1.2-1.8 1.3-.9 0-1.6 0-1.6-1.3v-17.7c0-.6-.3-1.4.8-1.4s1.9-.3 2.1 1.1c-.1.6.1 1.1.6 1.6zM85.3 121.3c-.3-4.1 1.8-8.1 5.4-10.3 3.2-1.8 7-2 10.4-.6 1 .7 1.4 2 .9 3.1-.3.5-.7 0-1 0-2-.7-4.1-.9-6.2-.5-3.1.7-5.3 3.4-5.5 6.6v.3c-.8 7.9 4 11.9 11.6 9.7.5 0 1.3-1 1.5 0 .2 1 .8 2.3-.8 2.9-6.8 2.4-16.2.2-16.2-10.7-.1-.2-.1-.2-.1-.5zM81.2 165.1v7.5c0 .8 0 1.2-1.1 1.2-2.3 0-2.3 0-2.3-2.2v-13.9c0-1-.2-1.6-1.4-1.4h-.9c-1.1 0-1.4-.2-1.4-1.4 0-1.1 0-1.8 1.4-1.5h.9c1.1 0 1.6-.2 1.5-1.4-.1-.9-.1-1.9 0-2.8 0-3.9 3.1-7 6.9-7H87c1.6 0 2.1 1 1.7 2.6 0 .6-.6.4-.9.4-5.4-.3-6.5.9-6.5 6.2 0 2.3-.2 2 2.1 2h2.5c.9 0 1.7.7 1.7 1.6 0 .3-.1.6-.2.9-.2.5-.6.3-1 .3h-4c-1.3 0-1.1.3-1.1 1.1 0 2.7-.1 5.2-.1 7.8zM135.2 174.4c-1.6 0-3.1-.3-4.6-.8-.9-.7-1.2-1.8-.8-2.8.3-.4.7 0 1.1 0 2.1.8 4.3.9 6.5.4.9-.2 1.8-.7 2.3-1.5 1-1.2.8-3-.4-3.9-.2-.2-.4-.3-.6-.4-1.4-.6-2.8-1-4.3-1.3-3.1-.9-4.3-2.4-4.3-5.2-.1-2.7 1.7-5.1 4.3-5.8 2.6-.7 5.3-.5 7.8.4.7.2 1.2 2.2.7 2.8s-.7 0-1 0c-1.4-.5-2.8-.8-4.3-.8-.8 0-1.6.2-2.3.5-1.1.4-1.8 1.5-1.7 2.7 0 1 .7 2 1.7 2.3 1.4.5 2.8.9 4.3 1.2 2.4.4 4.3 2.5 4.3 4.9.3 2.8-1.3 5.4-4 6.2-1.6.7-3.2 1-4.7 1.1zM117.4 174.4c-1.6 0-3.2-.3-4.8-.8-.5-.1-.9-.6-.9-1.2 0-2 0-2 1.8-1.4 2 .6 4.1.6 6 0 1.4-.2 2.5-1.4 2.6-2.8.1-1.4-.8-2.7-2.2-3-1.8-.6-2.6-.7-4-1.1-2.4-.3-4.2-2.2-4.3-4.6-.2-2.5 1.3-4.8 3.6-5.7 2.9-1.3 6.2-1.3 9.1 0 1.2.5.7 1.8.5 2.6-.2.8-.9 0-1.3 0-1.7-.6-3.6-.8-5.4-.5-1.8.4-2.7 1.3-2.7 2.8-.1 1.4.9 2.6 2.3 2.8 1.2.4 2.5.6 3.8 1 2.2.3 4 2.1 4.3 4.3.5 2.5-.7 5-2.9 6.2-1.6 1-3.6 1.4-5.5 1.4zM230.6 158.4v14.3c0 1.5-.9 1.2-1.7 1.2s-1.8.3-1.8-1.2V144c0-.9.3-1.2 1.2-1.2 2.2 0 2.2 0 2.2 2.1 0 4.5.1 9 .1 13.5zM38.6 173.2c.2-2.8 0-5.7 0-8.6v-10.3c0-.6 0-1.2.9-1.1s1.8-.5 1.9.9c.1.7.2 1.4.5 2.1.7-.7 1.3-1.2 2-1.8 1.1-.9 2.4-1.4 3.7-1.6 2.3-.3 2.4-.2 2.3 2.1 0 .8-.3 1.1-1.1 1.1-1.1 0-2.2.3-3.3.7-2.3.4-3.9 2.6-3.6 4.9V172c0 1.2-.4 1.7-1.6 1.5-.6-.1-1.2-.1-1.8 0l.1-.3zM79.1 121.6v10c0 1.1-.2 1.5-1.4 1.4-2.8 0-2.4.3-2.4-2.3v-18.9c0-1.1.2-1.7 1.4-1.5.3.1.7.1 1 0 1 0 1.3.3 1.3 1.3.1 3.2.1 6.5.1 10zM152.3 163.6v8.9c0 1.5-.9 1.2-1.8 1.2s-1.8.3-1.8-1.2v-17.9c0-1.6.9-1.3 1.8-1.3s1.7 0 1.6 1.3c.1 3.1.2 6.1.2 9zM75.3 102.7c0-.6-.4-1.6.4-1.9 1-.2 1.9-.2 2.9 0 .4 0 .4.3.4.6v1.6c0 1.9 0 1.9-1.9 1.9s-1.8 0-1.8-2.2zM152.1 146.8c.3 1.4 0 2-1.6 2s-1.7-.7-1.8-2c-.1-1.2.3-1.8 1.8-1.8s2.1.3 1.6 1.8zM81 88.3H27.8c-5.1.3-10-2.3-12.5-6.8-1.2-2.1-1.7-4.5-1.6-6.9V22c-.2-6.1 3.9-11.4 9.8-12.9 1.4-.3 2.9-.5 4.3-.4h106.5c7.1-.7 13.4 4.4 14.1 11.5.1.9.1 1.8 0 2.6v51.9c.3 5.2-2.5 10-7.1 12.3-2.1 1-4.5 1.5-6.8 1.4L81 88.3z"/><path class="st2" d="M55 77.9c2.4 2.1 5.1 3.8 8 5 2.2 1.1 4.6 2 7 2.5.5 0 .8 0 1-.6 1.1-3.1 2.5-6.1 3.4-9.3 1.8-4.3 3.6-8.6 5.1-13.1 0-.3.3-.7.5-1.1l10.7-28h15.8c4.3.9 5.6 3.2 4 7.5l-7.2 19.1c-.4 1.6-1.2 3-2.2 4.3-1.4 1-3 1.4-4.7 1.3h-8.6c-.7-.1-1.3.3-1.6.9-2.4 6.4-4.8 12.8-7.4 19.1-.4 1 0 1.1.9.9.5.1.9.1 1.4 0 3 .1 6-.3 8.8-1.2h.6c2.1-.5 4.2-1.3 6-2.5 4.2-1.6 7.9-4.1 11.1-7.3 1.6-1.5 3.1-3.2 4.3-5 6.5-8.6 8.7-19.7 5.9-30.1-4.7-17.1-20.7-28.9-38.7-28.3-.7 0-1.3.4-1.5 1.1-2.4 6.3-4.8 12.6-7.3 18.9-.4 1 0 1 .8 1h6.1c2.5-.3 4.9 1.4 5.2 4 .1 1-.1 2.1-.6 3-3.1 8.2-6.3 16.5-9.5 24.7-.2.6-.5.9-1.1.9h-6.5c-.7 0-.8-.2-.6-.9.7-1.8 1.3-3.6 2-5.2 2.6-6.8 5.2-13.6 7.8-20.3.4-1 .2-1.3-.9-1.2-1.2.1-2.4.1-3.6 0-.9-.1-1.8.5-2 1.4-3.1 8.3-6.4 16.6-9.5 25-.2.9-1 1.5-1.9 1.3-1.8-.1-3.6-.1-5.4 0-1.2 0-1.4-.3-.9-1.4 3.9-10 7.7-20.1 11.5-30.1L68.5 15c.4-.4.5-.9.5-1.5-4.9 1.3-9.5 3.5-13.5 6.7-6.4 4.5-11.1 11.1-13.4 18.6-1.1 3.1-1.6 6.3-1.6 9.5-.3 7.3 1.8 14.6 6 20.7.1.4.4.8.8 1.1.2.6.6 1.2 1.2 1.6.2.4.5.8.9 1.1.1.3.3.5.6.6l.2.2c.3.5.7.9 1.2 1.2v.2c.6.8 1.3 1.4 2.1 1.9h.5c.1.6.5.9 1 1z"/><path class="st2" d="M91.7 60.6h1.2c1.1.4 2.3-.2 2.6-1.3.1-.2.1-.3.1-.5.3-.9.6-1.9 1-2.7 2.1-5.6 4.3-11.3 6.5-16.9.4-1.1 0-1.4-.9-1.3-1.2.1-2.4.1-3.6 0-.9-.1-1.7.5-1.9 1.3-2.4 6.2-4.7 12.4-7.1 18.6-1 2.8-1 2.8 2.1 2.8z"/></g></switch></svg>