<svg version="1.1" id="design" xmlns="http://www.w3.org/2000/svg" x="0" y="0" viewBox="0 0 36.2 51.3" style="enable-background:new 0 0 36.2 51.3" xml:space="preserve"><style>.st2{fill:#ebebeb}.st3{fill:#fff}</style><path style="fill:#e44d26" d="M3.3 47.1 0 10h36.3L33 47.1l-14.9 4.1z"/><path style="fill:#f16529" d="m18.2 48.1 11.9-3.4L33 13.1H18.2z"/><path class="st2" d="M18.2 26.8h-6l-.5-4.6h6.5v-4.6H6.7l.2 1.2L8 31.4h10.2zM18.2 38.7h-.1l-5-1.4-.3-3.7H8.2l.6 7.2 9.3 2.6h.1z"/><path d="M3.4 0h2.3v2.3h2.1V0h2.3v6.9H7.8V4.6H5.7v2.3H3.4V0zM13.2 2.3h-2V0h6.3v2.3h-2v4.6h-2.3V2.3zM18.5 0h2.4l1.5 2.4L23.9 0h2.4v6.9H24V3.5l-1.5 2.4h-.1l-1.6-2.4v3.4h-2.2L18.5 0zM27.4 0h2.3v4.6H33v2.3h-5.6V0z"/><path class="st3" d="M18.1 26.8v4.6h5.6l-.5 5.9-5.1 1.4v4.7l9.3-2.6.1-.7 1.1-12 .1-1.3h-1.2zM18.1 17.6v4.6h11l.1-1 .2-2.4.1-1.2z"/></svg>