<svg viewBox="0 0 119 59" xmlns="http://www.w3.org/2000/svg"><path d="M1.219 58h9.726V16.594H1.22V58zm4.844-46.836c3.046 0 5.43-2.344 5.43-5.273 0-2.97-2.384-5.313-5.43-5.313C3.055.578.672 2.922.672 5.891c0 2.93 2.383 5.273 5.39 5.273zM43.33.695c-16.445 0-26.758 11.211-26.758 29.141S26.884 58.938 43.33 58.938c16.406 0 26.719-11.172 26.719-29.102S59.737.695 43.329.695zm0 8.594c10.039 0 16.445 7.969 16.445 20.547 0 12.539-6.407 20.508-16.445 20.508-10.078 0-16.445-7.969-16.445-20.508 0-12.578 6.367-20.547 16.445-20.547zM74.152 42.14c.43 10.39 8.945 16.797 21.914 16.797 13.633 0 22.227-6.719 22.227-17.422 0-8.399-4.844-13.125-16.29-15.742l-6.484-1.485c-6.914-1.64-9.765-3.828-9.765-7.578 0-4.687 4.297-7.812 10.664-7.812 6.445 0 10.859 3.164 11.328 8.437h9.609c-.234-9.922-8.437-16.64-20.859-16.64-12.266 0-20.977 6.757-20.977 16.757 0 8.047 4.922 13.047 15.312 15.43l7.305 1.72c7.11 1.679 10 4.022 10 8.085 0 4.688-4.727 8.047-11.523 8.047-6.875 0-12.07-3.398-12.695-8.594h-9.766z"/></svg>