<svg version="1.1" id="Layer_1" xmlns="http://www.w3.org/2000/svg" x="0" y="0" viewBox="0 0 300 257" style="enable-background:new 0 0 300 257" xml:space="preserve"><style>.st0{fill:#2496ec}.st1{fill:#7bbff3}</style><path class="st0" d="M0 228.1c.5-.8.4-1.7.6-2.6 2.5-11 12.5-19.3 23.8-19.6 6-.2 11.5 1.4 16.3 5 .1.1.2.2.4.3.3-.4.2-.8.2-1.2v-20.4c0-.8 0-1.5.2-2.3.6-2.1 2.8-3.5 5.1-3.2 2.3.3 4.1 2.1 4.1 4.3.1 1.8 0 3.6 0 5.5 0 12.7.1 25.3 0 38-.1 11.1-7.5 20.8-18.2 23.9-1.4.4-2.9.7-4.4.8h-5.5c-9.7-.5-19.3-8.5-21.8-18.2l-.9-3.9c.1-2.1.1-4.3.1-6.4zm41.3 3.3c0-8.7-7.2-16-15.9-16s-15.9 7.1-15.9 15.9 7 16 15.9 16c8.8 0 15.9-7.1 15.9-15.9zM227.7 256.8c-.8-.5-1.7-.4-2.5-.6-11.3-2.6-19.4-12.7-19.7-24.3-.3-13.4 9.6-22.8 18.9-25.2 14.6-3.7 29.1 5.6 31.7 20.5.2 1.3.3 2.6.3 3.9 0 3.1-1.9 5-4.9 5H216c-.3.5 0 .8.1 1.1 3.9 10.2 17.3 13.4 25.4 6.1 1.5-1.4 3.2-2 5.2-1.3 1.8.7 2.8 2.1 3 4 .2 1.6-.4 3.1-1.6 4.2-3.9 3.6-8.4 5.8-13.7 6.4-.3 0-.5 0-.7.2h-6zm18.5-30.1c-1.1-6.5-9-11.7-16.8-11.1-6.1.5-13.3 6.4-13.4 11.1h30.2zM164.4 256.8c-.2-.3-.5-.2-.7-.3-1.8-.6-3.1-2.3-3.2-4.3V189.8c0-.8-.1-1.5.2-2.3.6-2.2 2.9-3.7 5.2-3.4 2.3.3 4.1 2.1 4.1 4.5.1 5.3 0 10.6 0 16v19.5c.6.1.9-.3 1.2-.5 8.6-5.6 17.1-11.1 25.7-16.7 3.2-2.1 7.1-.4 7.6 3.4.2 1.9-.5 3.4-2.1 4.5-5.8 3.8-11.7 7.6-17.5 11.3-.3.2-.7.5-1.2.8.8.9 1.5 1.7 2.2 2.6 5.5 6.2 10.9 12.6 16.6 18.6 2.9 3.1 2.4 7.6-2.1 8.9h-1.6c-1.3-.4-2.3-1.2-3.2-2.2-6.3-7.1-12.5-14.1-18.8-21.2-.4-.5-.8-1-1.4-1.4-1.5 1-2.9 2-4.5 2.9-.7.4-1 .9-1 1.8V252c0 2.1-1 3.6-2.9 4.5-.3.2-.7.3-1 .4-.6-.1-1.1-.1-1.6-.1zM300 213.3c-.8 2-2 3.5-4.4 3.7-1 .1-1.9-.3-2.9-.6-9-3.2-18.6 1.6-21.1 10.7-.4 1.4-.6 2.9-.6 4.4 0 6.4-.1 12.8 0 19.3.1 3.1-1 5.1-3.9 6.1h-1.8c-.1-.1-.2-.2-.4-.2-2.3-.9-3.4-2.4-3.4-4.8V211c0-2.6 1.7-4.6 4-4.9 2.6-.3 4.8 1.1 5.4 3.5.1.6.1 1.2.2 1.8.5-.1.8-.5 1.2-.8 5.5-3.9 11.7-5.2 18.4-4.4 1.3.2 2.6.4 3.9.7 2.3.7 4.3 1.8 5.4 4.1v2.3zM174.4.2c.9.6 1.2 1.3 1.2 2.4v16.8c0 1.7-.6 2.3-2.3 2.3h-19.2c-1.7 0-2.2-.6-2.2-2.3V2.6c0-1.1.3-1.8 1.2-2.4h21.3z"/><path class="st1" d="M22.8 256.8v-.2h5.5v.2h-5.5zM78.4 256.8v-.2h5.5v.2h-5.5zM139.5 256.6v.2H134v-.2h5.5z"/><path class="st0" d="M222.8 73.9c-9.7-15.6-2.7-33.7 4.3-42.1 10.6 5.7 17.4 14.2 19.6 26.2 1.4-.2 2.8-.3 4.2-.5 5.9-.6 11.7-.3 17.4 1.4 3 .9 5.7 2.3 8.1 4.3.6.5.8.9.5 1.7-3.4 9.8-10.2 15.9-19.8 19.3-4.5 1.6-9.2 2.1-14 2-1 0-1.4.3-1.7 1.2-4 10.2-8.8 20.1-15 29.2-14.4 21.4-34.1 35.3-58.9 42.4-10.8 3.1-21.8 4.7-33 5.1-12.3.5-24.5-.3-36.5-3.1-8.2-1.9-16-4.6-22.9-9.5-8.3-6-14-14-18.2-23.2-4-8.7-6.3-17.9-7.6-27.4-.7-5.1-.9-10.2-1-15.3-.1-4.9 3.6-7.9 7.8-7.9 49.7.1 99.5.1 149.2 0 5.6 0 11-1.1 16.2-3.3.5-.1.8-.3 1.3-.5zM83.9 256.6h-5.5c-7.5-.7-13.4-4.4-17.8-10.3-10.8-14.7-3-36.4 16-40 13.6-2.5 26.6 6.1 29.4 19.6 3.5 16.7-8.8 29-21.3 30.6-.2.1-.5.1-.8.1zm13.2-25.3c0-8.7-7.2-15.8-15.9-15.9-8.7 0-16 7.3-16 15.9.1 8.8 7.2 15.9 16 15.9 8.8.1 15.9-7.1 15.9-15.9zM139.5 256.6H134c-8-.8-14.2-4.8-18.5-11.5-9.9-15.3-1.1-35.6 16.8-38.8 7.7-1.4 14.8.3 20.8 5.5 2.3 2 2.5 5.1.6 7.2-1.7 1.8-4.5 1.9-6.6.3-2.2-1.7-4.6-3.1-7.4-3.6-9.1-1.8-18.1 5-18.8 14.2-.5 6.9 2.3 12.3 8.4 15.5 6.1 3.2 12 2.6 17.5-1.7 2.3-1.8 5.3-1.7 7 .3 1.8 2.1 1.4 5.1-.8 7-3.9 3.3-8.3 5.2-13.5 5.6z"/><path class="st0" d="M107.6 51.9h9.5c1.8 0 2.4.6 2.4 2.4V71c0 1.8-.6 2.4-2.3 2.4H98c-1.7 0-2.3-.6-2.3-2.3v-17c0-1.7.6-2.3 2.3-2.3 3.1.1 6.3.1 9.6.1zM107.5 47.6h-9.6c-1.7 0-2.3-.6-2.3-2.3V28.4c0-1.7.6-2.4 2.3-2.4H117c1.7 0 2.3.6 2.3 2.4v16.9c0 1.7-.6 2.3-2.3 2.3h-9.5zM135.9 51.9h9.6c1.6 0 2.2.6 2.2 2.2v17.1c0 1.6-.6 2.2-2.2 2.2h-19.4c-1.6 0-2.2-.7-2.2-2.2V54.1c0-1.6.7-2.2 2.3-2.2h9.7zM191.9 51.9h9.6c1.6 0 2.2.6 2.2 2.2v17.1c0 1.6-.6 2.2-2.2 2.2h-19.4c-1.6 0-2.2-.6-2.2-2.2V54.1c0-1.6.7-2.2 2.3-2.2h9.7zM135.8 47.6h-9.6c-1.7 0-2.3-.6-2.3-2.3V28.4c0-1.7.6-2.4 2.3-2.4h19.1c1.7 0 2.3.6 2.3 2.3v16.9c0 1.8-.6 2.4-2.4 2.4h-9.4zM79.7 73.4h-9.6c-1.8 0-2.3-.6-2.3-2.3v-17c0-1.6.6-2.2 2.3-2.2h19.1c1.7 0 2.3.6 2.3 2.3V71c0 1.8-.6 2.3-2.4 2.3-3.1.1-6.3.1-9.4.1zM163.6 47.6h-9.4c-1.8 0-2.3-.6-2.3-2.3v-17c0-1.7.6-2.2 2.2-2.3h19.2c1.7 0 2.2.6 2.2 2.3v17c0 1.7-.6 2.3-2.3 2.3h-9.6zM163.7 73.4h-9.6c-1.8 0-2.3-.6-2.3-2.3V54.3c0-1.8.6-2.3 2.3-2.3h19.1c1.7 0 2.3.6 2.3 2.3v17c0 1.6-.6 2.2-2.2 2.2-3.2-.1-6.4-.1-9.6-.1zM285.9 253.2c0 1.8-1.5 3.3-3.3 3.3-1.9 0-3.4-1.5-3.4-3.4 0-1.8 1.6-3.2 3.4-3.2 1.8 0 3.3 1.5 3.3 3.3zM284 255c1-.7 1.2-1.8.7-3-.5-1.1-1.7-1.7-2.9-1.4-1 .3-1.8 1.2-1.9 2.3-.1 1.1.6 2.2 1.6 2.5.9.5 1.9.6 2.5-.4z"/><path class="st0" d="M284.1 255c-.5-.1-.9-.2-1-.8-.1-.5-.4-.7-1-.5 0 .3-.1.7-.1 1.1-.8-.1-.9-1-.6-3.1.6-.2 1.2-.1 1.8-.1.5.1.9.5.7.8-.7 1 .2 1.8.2 2.6-.1 0 0 0 0 0zm-2-2c.5 0 .9.1 1-.4 0-.4-.3-.5-.6-.5-.7 0-.5.4-.4.9z"/></svg>