<svg version="1.1" id="Layer_1" xmlns="http://www.w3.org/2000/svg" x="0" y="0" viewBox="0 0 500 151.3" style="enable-background:new 0 0 500 151.3" xml:space="preserve"><style>.st2{fill:#2f2f2f}</style><switch><g><path d="M151.3 151.3H0V0h151.3v151.3z" style="fill:#d00000"/><path d="M41.3 116.7c0 .1.1.3.1.4l2.6 2.6c.1.1.2.1.4.1h8.9c.1 0 .3-.1.4-.1l2.6-2.6c.1-.1.1-.2.1-.4V88.6c0-.1.1-.3.2-.4l11.3-10.8c.1-.1.2-.1.3 0l28.4 42.1c.1.1.2.2.3.2h12.6c.1 0 .3-.1.3-.2l2.3-4.4c.1-.1 0-.3 0-.4l-33.5-48c-.1-.1-.1-.2 0-.3l30.6-30.5c.1-.1.1-.2.1-.4V35c0-.1 0-.3-.1-.4l-1.8-4.1c0-.1-.2-.2-.3-.2H94.8c-.1 0-.3.1-.4.1l-38 38.1c-.1.1-.1.1-.1-.1v-35c0-.1-.1-.3-.1-.4l-2.5-2.7c-.1-.1-.2-.2-.3-.2h-8.9c-.1 0-.3.1-.3.2l-2.6 2.8c-.1.1-.1.2-.1.4l-.2 83.2z" style="fill:#fff"/><path class="st2" d="M257.4 117.2h-12.6c-.5 0-.9-.2-1.1-.6L217.6 79l-8.1 6.6v30.2c0 .8-.6 1.4-1.4 1.4h-11c-.8 0-1.4-.6-1.4-1.4V34.3c0-.8.6-1.4 1.4-1.4h11c.8 0 1.4.6 1.4 1.4v38.9c3.8-4.6 7.5-9.1 11.2-13.3l22.4-26.4c.3-.3.6-.5 1.1-.5h12.1c1.2 0 1.8 1.4 1 2.3C243.6 51.4 233.7 63 227.6 70l31 45.2c.6.8-.1 2-1.2 2zM297.6 118.4c-9.9 0-17.7-2.9-23.3-8.7-5.6-5.8-8.4-13.8-8.4-23.9 0-10.4 2.6-18.6 7.8-24.6 5.2-6 12.3-8.9 21.4-8.9 8.4 0 15.1 2.6 19.9 7.7 4.9 5.1 7.3 12.1 7.3 21.1V87c0 .8-.6 1.4-1.4 1.4h-41.1c.2 6.2 1.9 10.9 5 14.3 3.2 3.3 7.6 5 13.3 5 3.8 0 7.3-.4 10.5-1.1 2.7-.6 5.5-1.5 8.6-2.7.9-.4 1.9.3 1.9 1.3v8c0 .5-.3 1-.8 1.3-3 1.4-6.1 2.4-9.2 3-3.3.5-7.2.9-11.5.9zm-2.5-55.9c-4.3 0-7.8 1.4-10.3 4.1-2.6 2.7-4.1 6.7-4.6 11.9h28.9c-.1-5.3-1.3-9.3-3.8-12-2.5-2.6-5.9-4-10.2-4zM370.1 52.3c2.1 0 3.9.1 5.5.3.7.1 1.2.8 1.2 1.5l-1 9.8c-.1.8-.8 1.4-1.6 1.2-1.5-.3-3-.4-4.5-.4-5.4 0-9.8 1.8-13.2 5.3-3.4 3.5-5 8.1-5 13.8v31.9c0 .8-.6 1.4-1.4 1.4h-10.8c-.8 0-1.4-.6-1.4-1.4v-61c0-.8.6-1.4 1.4-1.4h8c.7 0 1.3.5 1.4 1.2l1.6 10.1h.7c2.1-3.8 4.9-6.8 8.3-9.1 3.2-2.1 6.9-3.2 10.8-3.2zM429.6 117.2c-.6 0-1.1-.4-1.3-1l-2.4-7.9h-.5c-3.1 3.9-6.2 6.5-9.3 7.9-3.1 1.4-7.1 2.1-12 2.1-6.3 0-11.2-1.7-14.7-5.1-3.5-3.4-5.3-8.2-5.3-14.4 0-6.6 2.4-11.5 7.3-14.9 4.9-3.3 12.3-5.2 22.3-5.5l11-.3v-3.4c0-4.1-1-7.1-2.9-9.1s-4.9-3-8.8-3c-3.3 0-6.4.5-9.4 1.4-2.5.8-5 1.8-7.4 2.8-.7.3-1.5 0-1.8-.7l-3.3-7.2c-.3-.7 0-1.5.6-1.8 3.1-1.5 6.5-2.7 10.2-3.5 4.1-.9 8-1.4 11.6-1.4 8.1 0 14.2 1.8 18.4 5.3 4.1 3.5 6.2 9.1 6.2 16.7v41.6c0 .8-.6 1.4-1.4 1.4h-7.1zm-21.2-9.2c4.9 0 8.9-1.4 11.8-4.1 3-2.7 4.5-6.6 4.5-11.6v-5.5l-8.2.3c-6.4.2-11 1.3-13.9 3.2-2.9 1.9-4.4 4.8-4.4 8.7 0 2.8.8 5 2.5 6.6 1.8 1.6 4.3 2.4 7.7 2.4zM500 99c0 6.2-2.3 11-6.8 14.3-4.5 3.3-11 5-19.5 5-8.1 0-14.6-1.2-19.7-3.5-.5-.2-.8-.7-.8-1.2v-8.7c0-1 1-1.7 1.9-1.3 6.8 2.9 13.1 4.3 19 4.3 8.3 0 12.5-2.5 12.5-7.6 0-1.6-.5-3-1.4-4-.9-1.1-2.4-2.2-4.6-3.3-2.1-1.2-5.1-2.5-8.8-3.9-7.3-2.8-12.3-5.7-14.9-8.5-2.6-2.8-3.9-6.5-3.9-11.1 0-5.5 2.2-9.7 6.6-12.7 4.4-3 10.4-4.5 18-4.5 7 0 13.7 1.3 20 4 .7.3 1 1.1.7 1.8l-3.3 7.7c-.3.7-1.1 1-1.8.7-6.3-2.5-11.7-3.8-16.1-3.8-7.1 0-10.7 2-10.7 6.1 0 2 .9 3.7 2.8 5.1 1.9 1.4 5.9 3.3 12.2 5.7 5.3 2 9.1 3.9 11.5 5.6 2.4 1.7 4.2 3.6 5.3 5.9 1.2 2.2 1.8 4.9 1.8 7.9z"/></g></switch></svg>