<svg xmlns="http://www.w3.org/2000/svg" viewBox="0 0 184.06 144.94"><g data-name="Layer 2"><path d="M139.36 24.66a8.49 8.49 0 0 0-4.2-4.85L95.14.66A7.34 7.34 0 0 0 91.86 0a13.85 13.85 0 0 0-3.28.26l-40 19.29a7 7 0 0 0-3.94 4.85l-9.85 43.16a8.28 8.28 0 0 0 1.44 6.3l27.69 34.24a9.55 9.55 0 0 0 6 2.76H114a6.54 6.54 0 0 0 6-2.76l27.68-34.24a9 9 0 0 0 1.57-6.3l-10-42.9Z" style="fill:#326de6"/><path d="M133.25 65.86c-.13 0-.26 0-.26-.13s-.26-.13-.52-.13a6.39 6.39 0 0 0-1.57-.13 1.66 1.66 0 0 1-.79-.13H130a26.51 26.51 0 0 1-4.46-.79 1.58 1.58 0 0 1-.92-.92l-1-.26a34.22 34.22 0 0 0-.62-11.55 35.54 35.54 0 0 0-4.59-10.76l.79-.79v-.13a1.83 1.83 0 0 1 .4-1.14 23.5 23.5 0 0 1 3.67-2.62l.79-.39c.52-.26.92-.52 1.44-.79.13-.13.26-.13.39-.26s0-.13 0-.26a2.57 2.57 0 0 0 .52-3.67 2.51 2.51 0 0 0-1.84-.92 3.13 3.13 0 0 0-1.84.66l-.13.13c-.13.13-.26.26-.39.26a8.49 8.49 0 0 0-1 1.18c-.13.26-.39.39-.52.52a17.25 17.25 0 0 1-3.28 2.89 1.86 1.86 0 0 1-.79.26.79.79 0 0 1-.52-.13h-.13l-1 .66c-1-1-2.23-2.1-3.28-3.15a33.62 33.62 0 0 0-17.15-6.87l-.13-1v.13a1.8 1.8 0 0 1-.66-1 26.21 26.21 0 0 1 .25-4.56v-.13c0-.26.13-.52.13-.79.13-.52.13-1 .26-1.57v-.79A2.6 2.6 0 0 0 92.18 14 2.63 2.63 0 0 0 90 15a2.59 2.59 0 0 0-.79 1.84v.66a6.58 6.58 0 0 0 .22 1.5 1.66 1.66 0 0 1 .13.79v.13a24.72 24.72 0 0 1 .26 4.46 1.8 1.8 0 0 1-.66 1v.26l-.13 1c-1.44.13-2.89.39-4.46.66a31.27 31.27 0 0 0-16.13 9.3l-.79-.52h-.13c-.13 0-.26.13-.52.13a1.86 1.86 0 0 1-.79-.26 24.19 24.19 0 0 1-3.28-3c-.13-.26-.39-.39-.52-.52-.39-.39-.66-.79-1-1.18-.13-.13-.26-.13-.39-.26l-.13-.13a3.13 3.13 0 0 0-1.89-.69 2 2 0 0 0-1.84.92 2.82 2.82 0 0 0 .52 3.67.13.13 0 0 1 .13.13s.26.26.39.26a14.31 14.31 0 0 0 1.44.79l.79.39A18.63 18.63 0 0 1 64.11 39a1.32 1.32 0 0 1 .39 1.18V40l.79.79c-.13.26-.26.39-.39.66A31.15 31.15 0 0 0 60.3 63l-1 .26a.13.13 0 0 1-.13.13 2.07 2.07 0 0 1-.92.92 24.37 24.37 0 0 1-4.46.79 1.66 1.66 0 0 0-.79.13c-.52 0-1 .13-1.57.13-.13 0-.26.13-.52.13s-.13 0-.26.13a2.56 2.56 0 0 0-2.1 3 2.44 2.44 0 0 0 2.62 1.84 1.18 1.18 0 0 0 .66-.13c.13 0 .13 0 .13-.13s.39 0 .52 0c.52-.13 1-.39 1.44-.52a1.86 1.86 0 0 1 .79-.26h.13a23.39 23.39 0 0 1 4.33-1.18h.13a1.49 1.49 0 0 1 1 .39.13.13 0 0 1 .13.13l1.18-.13A31.67 31.67 0 0 0 72.37 84a20.81 20.81 0 0 0 3.54 2.36l-.66.92a.13.13 0 0 0 .13.13 1.55 1.55 0 0 1 .13 1.31 21.53 21.53 0 0 1-2.1 3.8v.13a2.3 2.3 0 0 1-.52.66c-.26.26-.52.79-.92 1.31-.13.13-.13.26-.26.39a.13.13 0 0 1-.13.13 2.7 2.7 0 0 0 1 3.54 2.43 2.43 0 0 0 .92.26 2.94 2.94 0 0 0 2.5-1.59.13.13 0 0 1 .13-.13c0-.13.13-.26.26-.39.13-.52.39-.92.52-1.44l.26-.79a22.2 22.2 0 0 1 1.71-4.07 2 2 0 0 1 1-.79c.13 0 .13 0 .13-.13l.52-1a30.88 30.88 0 0 0 11.41 2.1 26.27 26.27 0 0 0 7.08-.92 39.2 39.2 0 0 0 4.2-1.18l.52.92c.13 0 .13 0 .13.13a2 2 0 0 1 1 .79 22.2 22.2 0 0 1 1.71 4.07v.13l.26.79a4.7 4.7 0 0 0 .52 1.44c.13.13.13.26.26.39a.13.13 0 0 0 .13.13 2.94 2.94 0 0 0 2.49 1.57 3.09 3.09 0 0 0 1-.26 2.2 2.2 0 0 0 1.18-1.44 3.38 3.38 0 0 0-.13-2 .13.13 0 0 0-.13-.13c0-.13-.13-.26-.26-.39a4.71 4.71 0 0 0-.92-1.31 2.3 2.3 0 0 0-.52-.66v-.26a15.5 15.5 0 0 1-2.1-3.8 1.55 1.55 0 0 1 .13-1.31.13.13 0 0 1 .13-.13l-.39-1a32.43 32.43 0 0 0 14.17-17.84l1 .13a.13.13 0 0 0 .13-.13 1.49 1.49 0 0 1 1-.39h.47a22.06 22.06 0 0 1 4.2 1.18h.13a1.86 1.86 0 0 0 .79.26 7 7 0 0 0 1.44.66c.13 0 .26.13.52.13s.13 0 .26.13a1.18 1.18 0 0 0 .66.13 2.85 2.85 0 0 0 2.62-1.84 3.09 3.09 0 0 0-2.36-2.76Zm-37.92-4.07-3.54 1.71-3.54-1.71-.92-3.79 2.49-3.15h3.94L96.25 58Zm21.38-8.53a25.12 25.12 0 0 1 .52 8.27L104.78 58a2.15 2.15 0 0 1-1.57-2.62 2.11 2.11 0 0 1 .52-.92l9.84-8.92a26.69 26.69 0 0 1 3.15 7.72Zm-7.08-12.59-10.76 7.61a2.23 2.23 0 0 1-2.87-.53 1.19 1.19 0 0 1-.39-.92l-.79-13.25a24.69 24.69 0 0 1 14.82 7.08ZM85.89 34l2.62-.52-.66 13.12a2.19 2.19 0 0 1-2.23 2.1 3.09 3.09 0 0 1-1-.26l-10.94-7.77A26.05 26.05 0 0 1 85.89 34Zm-16 11.55 9.71 8.66a2.11 2.11 0 0 1 .26 3 1.48 1.48 0 0 1-1 .66l-12.78 3.66a27.62 27.62 0 0 1 3.8-16.01ZM67.65 67.7l13-2.23a2.15 2.15 0 0 1 2.23 1.71 1.55 1.55 0 0 1-.13 1.31l-5 12.07a25.81 25.81 0 0 1-10.1-12.86ZM97.43 84a26.55 26.55 0 0 1-5.64.66 29.4 29.4 0 0 1-8.27-1.31L90 71.63a2 2 0 0 1 2.62-.52 6.57 6.57 0 0 1 1 .92l6.3 11.41a21.31 21.31 0 0 0-2.49.56Zm16-11.41a25.05 25.05 0 0 1-7.87 7.87l-5.12-12.33a2.13 2.13 0 0 1 1.18-2.49 3.83 3.83 0 0 1 1.18-.26l13.12 2.23a19.7 19.7 0 0 1-2.48 4.94Z" style="fill:#fff"/><path d="M176.37 140.59a4.76 4.76 0 0 0 2-.29 1.06 1.06 0 0 0 .57-1 1.21 1.21 0 0 0-.76-1 10.31 10.31 0 0 0-2.34-1 18.93 18.93 0 0 1-2.19-1 6.5 6.5 0 0 1-1.67-1.14 4.53 4.53 0 0 1-1-1.62 6 6 0 0 1-.38-2.24 5 5 0 0 1 1.91-4.06 8.22 8.22 0 0 1 5.2-1.48 14.56 14.56 0 0 1 3.2.33 15.18 15.18 0 0 1 2.43.62l-.91 4.06c-.67-.24-1.29-.38-2-.57a9.73 9.73 0 0 0-2.34-.24c-1.62 0-2.43.43-2.43 1.34a2.39 2.39 0 0 0 .1.57 1.35 1.35 0 0 0 .43.48 9.26 9.26 0 0 0 .81.48 8.11 8.11 0 0 0 1.38.57 18.1 18.1 0 0 1 2.77 1.24 5.22 5.22 0 0 1 1.72 1.34 3.7 3.7 0 0 1 .91 1.57 7.26 7.26 0 0 1 .29 2 4.58 4.58 0 0 1-2.05 4.1 10.14 10.14 0 0 1-5.72 1.38 14.49 14.49 0 0 1-4.06-.43c-.76-.19-1.48-.43-2.19-.67l.86-4.2a17.26 17.26 0 0 0 2.67.81c1 0 1.86.14 2.81.14m-26.29-5.25a11.44 11.44 0 0 1 .72-4.2 9 9 0 0 1 2-3.05 7.54 7.54 0 0 1 2.77-1.81 8.52 8.52 0 0 1 3.24-.62 8 8 0 0 1 6.11 2.39c1.48 1.57 2.24 3.91 2.24 7a7.74 7.74 0 0 1 0 1v1h-11.8a3.43 3.43 0 0 0 1.48 2.53 6.16 6.16 0 0 0 3.53 1 18.06 18.06 0 0 0 2.77-.24 9.44 9.44 0 0 0 2.24-.72l.72 4.2a7.5 7.5 0 0 1-1.1.43 9.27 9.27 0 0 1-1.57.33c-.57.1-1.14.19-1.81.29s-1.29.1-2 .1a11 11 0 0 1-4.29-.72 7.71 7.71 0 0 1-4.77-5 15.31 15.31 0 0 1-.52-3.82m12.07-2a4.09 4.09 0 0 0-.24-1.29 3 3 0 0 0-.57-1.1 3.27 3.27 0 0 0-1-.81 3.44 3.44 0 0 0-3 0 3.3 3.3 0 0 0-1 .76 3.44 3.44 0 0 0-.67 1.14 6.25 6.25 0 0 0-.29 1.29h6.77m-26-11.83 5.15-.81v5.34h6.2v4.29h-6.2v6.39a4.77 4.77 0 0 0 .57 2.58 2.53 2.53 0 0 0 2.34 1 9.46 9.46 0 0 0 1.67-.14 9 9 0 0 0 1.62-.43l.72 4a15.37 15.37 0 0 1-2.1.67 13.74 13.74 0 0 1-2.81.29 8.63 8.63 0 0 1-3.48-.57 5.63 5.63 0 0 1-2.19-1.57 6.65 6.65 0 0 1-1.19-2.48 12.09 12.09 0 0 1-.29-3.2v-15.49m-20.85 13.79a11.44 11.44 0 0 1 .72-4.2 9 9 0 0 1 2-3.05 7.54 7.54 0 0 1 2.77-1.81 8.52 8.52 0 0 1 3.24-.62A8 8 0 0 1 130 128c1.48 1.57 2.24 3.91 2.24 7a7.74 7.74 0 0 1 0 1 7.06 7.06 0 0 0 0 1h-11.73a3.43 3.43 0 0 0 1.48 2.53 6.16 6.16 0 0 0 3.53 1 18.06 18.06 0 0 0 2.77-.24 10.56 10.56 0 0 0 2.29-.72l.72 4.2a7.5 7.5 0 0 1-1.1.43 9.27 9.27 0 0 1-1.57.33c-.57.1-1.14.19-1.81.29s-1.29.1-2 .1a11 11 0 0 1-4.29-.72 7.71 7.71 0 0 1-4.77-5 11.88 11.88 0 0 1-.52-3.82m12.07-2a4.09 4.09 0 0 0-.24-1.29 3 3 0 0 0-.57-1.1 3.27 3.27 0 0 0-1-.81 3.44 3.44 0 0 0-3 0 3.11 3.11 0 0 0-1 .76 3.44 3.44 0 0 0-.67 1.14 6.25 6.25 0 0 0-.29 1.29h6.73M95.7 126.7c1.1-.29 2.24-.52 3.39-.72a26.62 26.62 0 0 1 4.34-.33 10.5 10.5 0 0 1 3.82.62 5.45 5.45 0 0 1 2.43 1.67 6.75 6.75 0 0 1 1.29 2.62 13.42 13.42 0 0 1 .38 3.39v10.26h-5.1v-9.59a7.07 7.07 0 0 0-.67-3.53 2.69 2.69 0 0 0-2.43-1 10.38 10.38 0 0 0-1.19 0 7.23 7.23 0 0 0-1.1.1v14H95.7V126.7m-3.63 4c-.48-.1-1-.24-1.62-.33a9.5 9.5 0 0 0-2-.19 10.9 10.9 0 0 0-1.19.1 7.41 7.41 0 0 0-1 .19v13.88H81.1V127a25.13 25.13 0 0 1 3.24-.91 15.71 15.71 0 0 1 4.2-.43h1a5.41 5.41 0 0 1 1.19.14c.38 0 .76.1 1.19.19a4 4 0 0 1 1 .29l-.86 4.29m-32 4.68a11.44 11.44 0 0 1 .72-4.2 9 9 0 0 1 2-3.05 7.54 7.54 0 0 1 2.77-1.81 8.52 8.52 0 0 1 3.24-.62 8 8 0 0 1 6.06 2.43c1.48 1.57 2.24 3.91 2.24 6.92a7.74 7.74 0 0 1 0 1 7.06 7.06 0 0 0 0 1H65.31a3.43 3.43 0 0 0 1.48 2.53 6.16 6.16 0 0 0 3.53 1 18.06 18.06 0 0 0 2.77-.24 12.13 12.13 0 0 0 2.24-.67l.72 4.2a7.5 7.5 0 0 1-1.1.43 9.27 9.27 0 0 1-1.57.33c-.57.1-1.14.19-1.81.29s-1.29.1-2 .1a11 11 0 0 1-4.29-.72 7.71 7.71 0 0 1-4.77-5 17.41 17.41 0 0 1-.48-3.82m12.12-2a4.09 4.09 0 0 0-.24-1.29 3 3 0 0 0-.57-1.1 3.27 3.27 0 0 0-1-.81 3.44 3.44 0 0 0-3 0 3.3 3.3 0 0 0-1 .76 3.44 3.44 0 0 0-.67 1.14 6.25 6.25 0 0 0-.29 1.29h6.77m-20.47 1.67c0-3.34-1.24-5-3.67-5a5.93 5.93 0 0 0-1.57.19 4 4 0 0 0-1.24.52v9.35c.24 0 .57.1 1 .14a10.79 10.79 0 0 0 1.29 0 3.64 3.64 0 0 0 3.2-1.43 6.84 6.84 0 0 0 1-3.86m5.25.19a11.33 11.33 0 0 1-.67 4 8.06 8.06 0 0 1-1.81 3 8.65 8.65 0 0 1-3 2 11.41 11.41 0 0 1-4 .67c-.62 0-1.29 0-2-.1s-1.34-.14-2-.19-1.24-.19-1.86-.33a6.23 6.23 0 0 1-1.57-.43v-25.47l5.15-.81v9.06a11.45 11.45 0 0 1 1.81-.57 9.5 9.5 0 0 1 2-.19 7.8 7.8 0 0 1 3.43.72 6.93 6.93 0 0 1 2.58 1.9 8.16 8.16 0 0 1 1.53 3 16.83 16.83 0 0 1 .43 3.86m-21.75 8.4a26.58 26.58 0 0 1-3.39.67 26.62 26.62 0 0 1-4.34.33 10.59 10.59 0 0 1-3.86-.62 6.29 6.29 0 0 1-2.43-1.72 7.15 7.15 0 0 1-1.29-2.72 13.79 13.79 0 0 1-.38-3.43v-10.06h5.15v9.49a7.28 7.28 0 0 0 .67 3.58 2.61 2.61 0 0 0 2.43 1.1 10.38 10.38 0 0 0 1.19 0 6.83 6.83 0 0 0 1.1-.14v-14h5.15v17.56m-30.05-11c.52-.57 1-1.14 1.57-1.72s1-1.19 1.57-1.77 1-1.14 1.43-1.67.86-1 1.19-1.38H17c-1.24 1.38-2.43 2.77-3.58 4.06s-2.43 2.62-3.82 4a23.83 23.83 0 0 1 2.15 2.24c.72.86 1.43 1.72 2.15 2.67s1.34 1.86 1.91 2.77 1 1.77 1.43 2.53h-5.89c-.38-.62-.81-1.24-1.29-2s-1-1.43-1.48-2.19a23.58 23.58 0 0 0-1.72-2.1 11.34 11.34 0 0 0-1.72-1.67v8H0v-26.18l5.15-.81v15.22"/></g></svg>