<svg id="Layer_1" data-name="Layer 1" xmlns="http://www.w3.org/2000/svg" viewBox="0 0 200 100"><defs><style>.cls-1{fill:#2d2d2d}</style></defs><path class="cls-1" d="M14.56 67 6.28 40h-.21q.45 8.23.45 11v16H0V32.57h9.93l8.14 26.3h.14l8.63-26.3h9.93V67H30V48.02q0-1.51.32-8h-.21L21.24 67ZM61.56 67l-1.39-3.58H60a10.61 10.61 0 0 1-3.73 3.16 12.05 12.05 0 0 1-5 .88 8.08 8.08 0 0 1-6-2.16 8.31 8.31 0 0 1-2.18-6.16A6.94 6.94 0 0 1 46 52.93q2.93-2 8.83-2.2l4.56-.14v-1.15q0-4-4.09-4a18.65 18.65 0 0 0-7.41 1.9l-2.32-4.84a21.38 21.38 0 0 1 10.07-2.38q5.29 0 8.12 2.3t2.82 7V67Zm-2.12-12.22-2.78.09A8.9 8.9 0 0 0 52 56a3.55 3.55 0 0 0-1.53 3.15q0 3 3.48 3a5.52 5.52 0 0 0 4-1.43 5 5 0 0 0 1.49-3.81ZM92.31 59.15a7.24 7.24 0 0 1-2.81 6.16q-2.81 2.12-8.41 2.12a26.4 26.4 0 0 1-4.9-.43 18.47 18.47 0 0 1-3.79-1.14V60a25.08 25.08 0 0 0 4.51 1.58 18.23 18.23 0 0 0 4.41.63q3.91 0 3.91-2.26a1.88 1.88 0 0 0-.52-1.38 7.49 7.49 0 0 0-1.79-1.2q-1.27-.67-3.39-1.56a21.31 21.31 0 0 1-4.46-2.35A6.61 6.61 0 0 1 73 51a8.19 8.19 0 0 1-.65-3.45 6.25 6.25 0 0 1 2.72-5.42q2.72-1.92 7.7-1.92A21.87 21.87 0 0 1 92 42.24l-2.16 5.18q-2-.85-3.69-1.39a11.6 11.6 0 0 0-3.51-.54q-3.18 0-3.18 1.72a2 2 0 0 0 1 1.67A27.75 27.75 0 0 0 85 51a20.87 20.87 0 0 1 4.52 2.33 6.89 6.89 0 0 1 2.12 2.49 7.67 7.67 0 0 1 .67 3.33ZM116.25 59.15a7.24 7.24 0 0 1-2.81 6.16q-2.81 2.12-8.41 2.12a26.41 26.41 0 0 1-4.89-.39 18.47 18.47 0 0 1-3.79-1.14V60a25.09 25.09 0 0 0 4.5 1.58 18.24 18.24 0 0 0 4.41.63q3.91 0 3.91-2.26a1.88 1.88 0 0 0-.52-1.38 7.48 7.48 0 0 0-1.79-1.2q-1.27-.67-3.39-1.56A21.31 21.31 0 0 1 99 53.44 6.61 6.61 0 0 1 97 51a8.19 8.19 0 0 1-.65-3.45A6.25 6.25 0 0 1 99 42.08q2.72-1.92 7.7-1.92a21.87 21.87 0 0 1 9.3 2.08l-2.16 5.18q-2-.85-3.69-1.39a11.61 11.61 0 0 0-3.51-.54q-3.18 0-3.18 1.72a2 2 0 0 0 1 1.67 27.76 27.76 0 0 0 4.48 2.12 20.86 20.86 0 0 1 4.52 2.33 6.89 6.89 0 0 1 2.12 2.49 7.67 7.67 0 0 1 .67 3.33ZM132.53 67.43q-12.28 0-12.28-13.48 0-6.7 3.34-10.24t9.57-3.54a18.26 18.26 0 0 1 8.2 1.83l-2.12 5.55q-1.69-.68-3.15-1.12a10.18 10.18 0 0 0-2.92-.43q-5.6 0-5.6 8 0 7.72 5.6 7.72a12.77 12.77 0 0 0 3.84-.55 13.87 13.87 0 0 0 3.53-1.73v6.14A11.54 11.54 0 0 1 137 67a19.77 19.77 0 0 1-4.47.43ZM163.33 67l-1.39-3.58h-.19a10.6 10.6 0 0 1-3.75 3.13 12.05 12.05 0 0 1-5 .88 8.08 8.08 0 0 1-6-2.16 8.31 8.31 0 0 1-2.18-6.16 6.94 6.94 0 0 1 2.93-6.17q2.93-2 8.83-2.2l4.56-.14v-1.16q0-4-4.09-4a18.65 18.65 0 0 0-7.41 1.9l-2.38-4.85a21.38 21.38 0 0 1 10.07-2.38q5.29 0 8.12 2.3t2.82 7V67Zm-2.12-12.19-2.78.09a8.89 8.89 0 0 0-4.65 1.1 3.55 3.55 0 0 0-1.53 3.15q0 3 3.48 3a5.51 5.51 0 0 0 4-1.43 5 5 0 0 0 1.49-3.81ZM200 67h-7.18V51.6a7.38 7.38 0 0 0-1-4.27 3.68 3.68 0 0 0-3.22-1.42 4.84 4.84 0 0 0-4.35 2q-1.34 2-1.34 6.67V67h-7.17V40.66h5.48l1 3.36h.4a7.58 7.58 0 0 1 3.31-2.88 11.25 11.25 0 0 1 4.79-1q4.59 0 7 2.48t2.28 7.19Z"/></svg>