<svg xmlns="http://www.w3.org/2000/svg" viewBox="0 0 200 59" style="enable-background:new 0 0 200 59" xml:space="preserve"><path d="M0 28.6h3.9V32H4c.4-1.3 3.1-4 7.1-4 2.9-.2 5.7 1.4 6.9 4.1 1.4-2.5 4.1-4.1 7-4.1 6.8 0 8.4 4.8 8.4 9.8v12.8h-4.2V38.4c0-3.3-.7-6.4-4.7-6.4s-5.6 2.7-5.6 6.6v12.1h-4.2V39.1c0-4.2-.6-7.2-4.6-7.2-3 0-5.7 2.3-5.7 7.2v11.5H0v-22zM40.5 41.2c0 3.9 3.6 6.4 7.4 6.4 2.6 0 4.4-1.3 6.1-3.3l3.1 2.4c-2.3 3-5.5 4.5-9.8 4.5-7 0-11.3-5.1-11.3-11.6-.2-6.2 4.7-11.4 11-11.6h.5c7.8 0 10.7 5.9 10.7 11.6v1.5l-17.7.1zm13.2-3.4c-.1-3.7-2.1-6.4-6.4-6.4-3.6 0-6.6 2.8-6.8 6.4h13.2zM72.7 32.2h-6v10c0 2.5 0 5.1 3.1 5.1 1 .1 2.1-.2 3-.7v3.8c-1.2.5-2.5.8-3.8.8-6.5 0-6.6-4-6.6-7.5V32.2h-4.8v-3.6h4.8v-6.2h4.2v6.2h6l.1 3.6zM75.8 31.3c2.4-2.1 5.5-3.3 8.7-3.3 6.5 0 9.2 3.6 9.2 7.4v11.3c0 1.4.1 2.7.2 4h-3.7c-.1-1.1-.1-2.3-.1-3.3H90c-1.8 2.9-4.4 3.9-7.7 3.9-4.1 0-7.7-2.3-7.7-6.6 0-5.7 5.5-7.7 12.2-7.7H90v-1c0-2.3-1.6-4.6-5.3-4.6-3.2 0-4.7 1.4-6.3 2.5l-2.6-2.6zm11.9 8.8c-4 0-8.8.7-8.8 4.2 0 2.5 1.8 3.6 4.7 3.6 4.6 0 6.3-3.4 6.3-6.4v-1.4h-2.2zM110 34.1c-1.1-1.4-2.7-2.2-4.5-2.2-2 0-3.7.9-3.7 2.5 0 2.7 3.8 3 5.6 3.4 3.6.9 6.4 2.3 6.4 6.4 0 5-4.6 7-8.9 7-3.6 0-6.4-1-8.5-3.9l3.1-2.6c1.4 1.4 2.9 2.6 5.3 2.6 2.1 0 4.4-.9 4.4-2.8 0-2.5-3.5-3-5.3-3.4-3.6-.9-6.8-2-6.8-6.3 0-4.6 4.2-6.8 8.4-6.8 2.9 0 5.9 1 7.5 3.6l-3 2.5zM116.5 28.6h4.2v3.1h.1c1.8-2.4 4.7-3.7 7.7-3.7 6.8 0 11.2 5.1 11.2 11.6s-4.4 11.6-11.2 11.6c-3 .1-5.9-1.3-7.7-3.8h-.1V59h-4.2V28.6zm4.3 11c0 4.4 2.8 7.7 7.2 7.7s7.2-3.1 7.2-7.7-2.8-7.7-7.3-7.7-7.1 3.3-7.1 7.7zM143 15.5h4.2v35.2H143V15.5zM160.9 28.1c6.4 0 11.6 5.3 11.6 11.7 0 6.4-5.3 11.6-11.7 11.6-6.4 0-11.6-5.3-11.6-11.7 0-6.4 5.2-11.6 11.6-11.6h.1zm0 19.2c4.4 0 7.2-3.2 7.2-7.7s-2.8-7.7-7.2-7.7-7.2 3.2-7.2 7.7 2.7 7.7 7.2 7.7zM176.7 17.6c1.7 0 3.1 1.4 3.1 3.1s-1.4 3.1-3.1 3.1c-1.7 0-3.1-1.4-3.1-3.1 0-1.7 1.4-3.1 3.1-3.1zm-2.1 11h4.2v22.1h-4.2V28.6zM195.4 32.2h-6v10c0 2.5 0 5.1 3.1 5.1 1 .1 2.1-.2 3-.7v3.8c-1.2.5-2.5.8-3.8.8-6.5 0-6.6-4-6.6-7.5V32.2h-4.8v-3.6h4.8v-6.2h4.2v6.2h6v3.6h.1zM196.7 15.8c1.8 0 3.3 1.5 3.3 3.3 0 1.8-1.5 3.3-3.3 3.3s-3.3-1.5-3.3-3.3c0-1.8 1.5-3.3 3.3-3.3zm0 6c1.5 0 2.8-1.3 2.8-2.8 0-1.5-1.3-2.8-2.8-2.8-1.5 0-2.8 1.3-2.8 2.8 0 1.5 1.3 2.8 2.8 2.8zm-.7-.9h-.5v-3.8h1.4c.8 0 1.2.3 1.2 1 0 .6-.4 1-1 1.1l1.2 1.6h-.5l-1.1-1.6h-.7v1.7zm0-2.1h.6c.5 0 1.1 0 1.1-.7 0-.5-.4-.6-.8-.6h-.9v1.3zM9.8 7.1H5.9l.8-3.8h3.6c1.2 0 1.9.6 1.9 1.6 0 1.2-1 2.2-2.2 2.2h-.2m6.4-2.6c0-2.6-2-4.5-5.5-4.5H3.5L0 15.9h4l1.2-5.5h2.3l2.3 5.5h4l-2.5-5.7c2.8-.4 4.9-2.8 4.9-5.7M23 10l3.4-5.9 1.3 5.9H23zm1.8-10-9.2 15.9h4l1.5-2.6h7.4l.6 2.6h4L29.5 0h-4.7zM44.4 7.1h-3.5l.8-3.8h3.1c1.2 0 2 .6 2 1.6-.1 1.3-1.1 2.2-2.4 2.2m.8-7.1h-6.7L35 15.9h4l1.2-5.5h4.4c3.3.1 6-2.4 6.1-5.7v-.2c0-2.6-2.1-4.5-5.5-4.5M58.3 0h-3.9l-3.5 15.9h3.9z"/><path d="M86.8 0H74.3l.6.6c1.4 1.8 2.2 3.9 2.1 6.2 0 3.5-1.4 6.8-4 9.1h7.7l3.6-9.1h-4.6l.8-3.5h9.1l-4.8 12.6h1.9c4.4 0 7.3-3.6 7.3-8S91.2 0 86.8 0" style="fill:#e95f26"/><path d="M64.7 12.6h-2.2l2-9.3h2.1c1.9-.1 3.6 1.5 3.6 3.4v.4c.1 3-2.3 5.4-5.2 5.5h-.3m8-10C71.1.8 68.8-.1 66.4 0h-5.1l-3.5 15.9h6.4c2.1 0 4.1-.4 5.9-1.4 2.6-1.7 4.1-4.6 4-7.7 0-1.5-.5-3-1.4-4.2"/></svg>