<svg version="1.1" id="design" xmlns="http://www.w3.org/2000/svg" x="0" y="0" viewBox="0 0 213.6 51.5" style="enable-background:new 0 0 213.6 51.5" xml:space="preserve"><style>.st11{fill:#df4f4f}.st12{fill:#26262c}</style><path class="st11" d="m-176.7 0 44.7 47.4s1.5 1.1 2.7-.2.3-2.5.3-2.5L-176.7 0zM-162.5 4.5l34 36.7s1.5 1.1 2.7-.2.3-2.5.3-2.5l-37-34zM-172.5 14.1l34.1 36.7s1.5 1.1 2.7-.2.3-2.5.3-2.5l-37.1-34zM-150.5 8.3l23.8 25.6s1.1.7 1.9-.1.2-1.8.2-1.8l-25.9-23.7zM-169.2 25.2l23.8 25.6s1.1.7 1.9-.1.2-1.8.2-1.8l-25.9-23.7zM-138.3 13.9l10.8 11.7s.5.3.9-.1.1-.8.1-.8l-11.8-10.8zM-163.2 37l10.8 11.7s.5.3.9-.1.1-.8.1-.8L-163.2 37z" transform="translate(303.543)"/><path class="st12" d="M186.3-25V6.5h7.1V-3.7h5.4l6.9 10.2h8.1l-7.6-10.9s6.7-2.6 6.7-9.9c0-10.2-9.3-10.6-9.3-10.6h-17.3v-.1zm7.1 6.1v9.1h9.1s3.5 0 3.5-4.6c0-4.8-4.2-4.6-4.2-4.6l-8.4.1zm0 0v9.1h9.1s3.5 0 3.5-4.6c0-4.8-4.2-4.6-4.2-4.6l-8.4.1zM107.4-25V6.5h23.9V.4h-16.8v-6.6H129v-6.1h-14.5v-6.6h16.8V-25h-23.9zM72.9-25v6.1h9.4V6.5h7.1v-25.4h9.4V-25H72.9zM40.4-25V6.5h23.9V.4H47.5v-6.6H62v-6.1H47.5v-6.6h16.8V-25H40.4zM.2-25V6.5h7.1v-19.8L16-.6l8.7-12.7V6.4h7.1v-31.5h-7.1l-8.7 13-8.7-13-7.1.1z" transform="translate(0 44.184)"/><path d="M202 34.4h-8.5v-9.1h8.5c2.2 0 4.1 1.9 4.1 4.1v.9c0 2.3-1.9 4.1-4.1 4.1z" style="fill:#fff"/></svg>