<svg id="Layer_1" data-name="Layer 1" xmlns="http://www.w3.org/2000/svg" viewBox="0 0 200 51"><defs><style>.cls-1{fill:#001e2b}</style></defs><path class="cls-1" d="M14.94 5.47C13 3.15 11.3.79 11 .3a.08.08 0 0 0-.12 0c-.35.49-2 2.85-4 5.17C-10 26.9 9.48 41.36 9.48 41.36l.17.11c.14 2.23.51 5.45.51 5.45h1.45s.36-3.2.5-5.45l.17-.12S31.74 26.9 14.94 5.47ZM10.88 41a8.44 8.44 0 0 1-1.11-1.13l1.06-23.34a.05.05 0 1 1 .1 0L12 39.88A8.44 8.44 0 0 1 10.88 41ZM47.28 36.27l-8.11-19.79v-.05h-6.32v1.33h1a1.11 1.11 0 0 1 .81.34 1.14 1.14 0 0 1 .33.82l-.18 19.92A1.17 1.17 0 0 1 33.7 40h-1v1.31h6.14V40h-.64a1.16 1.16 0 0 1-1.12-1.15V20.07l8.83 21.25a.8.8 0 0 0 1.49 0L56 20.54l.13 18.3A1.17 1.17 0 0 1 55 40h-.65v1.31h7.19V40h-1a1.18 1.18 0 0 1-1.14-1.15l-.06-19.92a1.17 1.17 0 0 1 1.13-1.17h1.05v-1.33h-6.14ZM103.79 39.66a1.09 1.09 0 0 1-.31-.8v-9.79a5.75 5.75 0 0 0-1.64-4.36 6.15 6.15 0 0 0-4.43-1.57 7 7 0 0 0-6.1 3.14.15.15 0 0 1-.13.06.09.09 0 0 1-.09-.1l-.68-2.61h-1.12l-2.9 1.67v.91h.75a1.22 1.22 0 0 1 .83.27 1.08 1.08 0 0 1 .31.84v11.52a1.12 1.12 0 0 1-.31.81 1.09 1.09 0 0 1-.8.31h-.73v1.33h6.67V40h-.73a1.09 1.09 0 0 1-.8-.31 1.12 1.12 0 0 1-.31-.81v-7.67a7.39 7.39 0 0 1 .62-2.88A5.71 5.71 0 0 1 93.75 26a4.77 4.77 0 0 1 2.93-.9 3.31 3.31 0 0 1 2.84 1.21 5 5 0 0 1 .92 3.08v9.42a1.06 1.06 0 0 1-1.12 1.12h-.72v1.33h6.66v-1.32h-.73a.91.91 0 0 1-.74-.28ZM164.71 17.92a12.78 12.78 0 0 0-6.13-1.49h-8.67v1.32h.85a1.24 1.24 0 0 1 .9.42 1.29 1.29 0 0 1 .42.91v19.56a1.28 1.28 0 0 1-.42.9 1.24 1.24 0 0 1-.9.42h-.85v1.33h8.67a12.89 12.89 0 0 0 6.13-1.49 11.27 11.27 0 0 0 4.43-4.29 13 13 0 0 0 1.64-6.63 13.07 13.07 0 0 0-1.64-6.64 11.34 11.34 0 0 0-4.43-4.32Zm2.58 10.92a12.66 12.66 0 0 1-1.23 5.87 8.3 8.3 0 0 1-3.23 3.53 8.81 8.81 0 0 1-4.41 1.14h-1.75a1.24 1.24 0 0 1-.91-.42 1.27 1.27 0 0 1-.41-.91V19.61a1.23 1.23 0 0 1 .41-.91 1.27 1.27 0 0 1 .91-.42h1.75a8.81 8.81 0 0 1 4.41 1.14 8.3 8.3 0 0 1 3.23 3.58 12.86 12.86 0 0 1 1.23 5.84ZM191.28 30.17a8 8 0 0 0-4.17-2.17c2.52-1.25 3.81-3 3.81-5.29a5.63 5.63 0 0 0-1-3.29 6.48 6.48 0 0 0-2.76-2.23 10.09 10.09 0 0 0-4.14-.8h-9.82v1.32h.8a1.26 1.26 0 0 1 .91.42 1.29 1.29 0 0 1 .42.91v19.6A1.45 1.45 0 0 1 174 40h-.86v1.33h10.66a12 12 0 0 0 4.5-.82 7.24 7.24 0 0 0 3.24-2.4 6.16 6.16 0 0 0 1.2-3.83 6.06 6.06 0 0 0-1.46-4.11ZM179.06 39a1.29 1.29 0 0 1-.42-.91v-8.8h5.07a5.66 5.66 0 0 1 4.09 1.37 4.69 4.69 0 0 1 1.43 3.54 5.51 5.51 0 0 1-.62 2.51 4.77 4.77 0 0 1-1.88 1.93 5.83 5.83 0 0 1-3 .74H180a1.3 1.3 0 0 1-.94-.38Zm-.4-11.56v-7.8A1.45 1.45 0 0 1 180 18.3h2.4a5.07 5.07 0 0 1 3.81 1.27 4.6 4.6 0 0 1 1.2 3.29 4.82 4.82 0 0 1-1.13 3.33 4.36 4.36 0 0 1-3.37 1.23ZM78.4 24.3a9.52 9.52 0 0 0-4.63-1.16 9.24 9.24 0 0 0-4.62 1.16 8.57 8.57 0 0 0-3.31 3.26 10.12 10.12 0 0 0 0 9.67 8.5 8.5 0 0 0 3.31 3.26 9.51 9.51 0 0 0 4.62 1.16 9.25 9.25 0 0 0 4.63-1.16 8.5 8.5 0 0 0 3.31-3.26 10.12 10.12 0 0 0 0-9.67 8.57 8.57 0 0 0-3.31-3.26Zm1.34 8.1a8.13 8.13 0 0 1-1.63 5.34 5.75 5.75 0 0 1-8.67 0 8.13 8.13 0 0 1-1.63-5.34 8.16 8.16 0 0 1 1.63-5.35 5.75 5.75 0 0 1 8.67 0 8.16 8.16 0 0 1 1.63 5.35ZM142.47 24.3a9.55 9.55 0 0 0-4.63-1.16 9.31 9.31 0 0 0-4.63 1.16 8.63 8.63 0 0 0-3.31 3.26 9.51 9.51 0 0 0-1.22 4.84 9.47 9.47 0 0 0 1.22 4.83 8.57 8.57 0 0 0 3.31 3.26 9.55 9.55 0 0 0 4.63 1.16 9.31 9.31 0 0 0 4.63-1.16 8.57 8.57 0 0 0 3.31-3.26 10.12 10.12 0 0 0 0-9.67 8.77 8.77 0 0 0-3.31-3.26Zm1.34 8.1a8.18 8.18 0 0 1-1.63 5.34 5.77 5.77 0 0 1-8.68 0 8.18 8.18 0 0 1-1.63-5.34 8.18 8.18 0 0 1 1.63-5.35 5.77 5.77 0 0 1 8.68 0 8.27 8.27 0 0 1 1.63 5.35ZM116.63 23.14a8.59 8.59 0 0 0-4 .93 7.07 7.07 0 0 0-2.82 2.53 6.43 6.43 0 0 0-1 3.49 6.16 6.16 0 0 0 .79 3.1 7 7 0 0 0 2.07 2.25L109.06 39a1.43 1.43 0 0 0 1.14 2.28h.8a5.4 5.4 0 0 0-1.76 1.72 4.68 4.68 0 0 0-.71 2.44 4.49 4.49 0 0 0 2.06 3.82 9.5 9.5 0 0 0 5.62 1.46 13.77 13.77 0 0 0 4.68-.8 8.28 8.28 0 0 0 3.52-2.33 5.44 5.44 0 0 0 1.34-3.68 4.2 4.2 0 0 0-1.82-3.57A8.07 8.07 0 0 0 119 39h-7.32v-.06l1.89-2.55a6.66 6.66 0 0 0 1.4.48 7.45 7.45 0 0 0 1.48.12 8.85 8.85 0 0 0 4.11-.92 7.26 7.26 0 0 0 2.86-2.53 6.32 6.32 0 0 0 1-3.5A6.68 6.68 0 0 0 122 25l3.91.43v-1.8h-6.26a10.1 10.1 0 0 0-3.02-.49Zm2.19 11.39a4.67 4.67 0 0 1-2.19.57 4.52 4.52 0 0 1-3.2-1.3 4.87 4.87 0 0 1-1.37-3.71 4.87 4.87 0 0 1 1.37-3.71 4.53 4.53 0 0 1 7.1.95 5.45 5.45 0 0 1 .67 2.76 5.21 5.21 0 0 1-.67 2.77 4.35 4.35 0 0 1-1.71 1.67Zm-4.94 6.7h4.94a3.78 3.78 0 0 1 2.82.85 3.15 3.15 0 0 1 .87 2.28 3.93 3.93 0 0 1-1.58 3.24 6.75 6.75 0 0 1-4.23 1.23 6.38 6.38 0 0 1-3.73-1 3.37 3.37 0 0 1-1.4-2.93 3.9 3.9 0 0 1 .66-2.2 4.1 4.1 0 0 1 1.65-1.47ZM196.43 41a2.31 2.31 0 0 1-.84-.83 2.27 2.27 0 0 1-.31-1.14 2.24 2.24 0 0 1 .31-1.14 2 2 0 0 1 .84-.82 2.52 2.52 0 0 1 2.42 0 2.21 2.21 0 0 1 .84.82A2.27 2.27 0 0 1 200 39a2.24 2.24 0 0 1-.31 1.14 2 2 0 0 1-.84.83 2.55 2.55 0 0 1-1.21.3 2.39 2.39 0 0 1-1.21-.27Zm2.22-.25a2 2 0 0 0 .7-.7 2.14 2.14 0 0 0 .25-1 2.2 2.2 0 0 0-.25-1 1.66 1.66 0 0 0-.7-.69 2.17 2.17 0 0 0-2 0 1.93 1.93 0 0 0-.7.69 2.2 2.2 0 0 0-.25 1 2.14 2.14 0 0 0 .25 1 1.75 1.75 0 0 0 .7.7 2.13 2.13 0 0 0 1 .25 2.07 2.07 0 0 0 1-.26Zm-2-.63V40h.11a.19.19 0 0 0 .09 0 .1.1 0 0 0 0-.09v-1.76a.11.11 0 0 0 0-.09.09.09 0 0 0-.09 0h-.11v-.16h.94a1 1 0 0 1 .63.18.6.6 0 0 1 .23.5.55.55 0 0 1-.18.43.69.69 0 0 1-.45.22l.22.07.41.66a.16.16 0 0 0 .13.07h.11v.16h-.56l-.58-1h-.15v.65a.15.15 0 0 0 0 .09.12.12 0 0 0 .09 0h.11v.16h-1Zm.92-1.18a.42.42 0 0 0 .34-.12.5.5 0 0 0 .12-.34.51.51 0 0 0-.1-.34.39.39 0 0 0-.31-.13h-.07a.13.13 0 0 0-.09 0 .09.09 0 0 0 0 .09v.8Z"/></svg>