<svg version="1.1" id="design" xmlns="http://www.w3.org/2000/svg" x="0" y="0" viewBox="0 0 63.3 51.1" style="enable-background:new 0 0 63.3 51.1" xml:space="preserve"><style>.st0{fill:#0089d6}.st5,.st6{fill-rule:evenodd;clip-rule:evenodd;fill:#00678f}.st6{fill:#e38d1a}.st7{fill:#ed1c24}.st8{fill:#336791}.st9{fill:#fff}</style><g transform="matrix(.569 0 0 .569 199.451 -82.735)"><linearGradient id="SVGID_1_" gradientUnits="userSpaceOnUse" x1="-26184.731" y1="-17568.691" x2="-26163.459" y2="-17581.262" gradientTransform="translate(2807.805 2286.695) scale(.1187)"><stop offset="0" style="stop-color:#909ca9"/><stop offset="1" style="stop-color:#ededee"/></linearGradient><path d="m-275.2 174-12.3 4-10.7 4.7-3 .8c-.8.7-1.6 1.5-2.4 2.2-.9.8-1.8 1.6-2.5 2.1-.8.6-1.9 1.7-2.4 2.4-.8 1.1-1.5 2.2-1.8 3-.5 1.6-.3 3.1.7 4.6 1.3 1.9 3.8 3.7 6.7 5 1.5.7 4 1.5 5.9 2 3.1.8 9.2 1.7 12.6 1.8h1.6c.1 0 .6-1 1.2-2.3 2.1-4.2 3.5-8.1 4.4-11.5.5-2 .9-4.8 1.1-8 .1-.9.1-3.9 0-4.9-.1-1.7-.2-3-.5-4.4v-.4s.1-.1 1.7-.5l-.3-.6zm-2.8 1.7c.1 0 .4 2.8.5 4.6v.6c-.1 0-1.6-.9-2.6-1.5l-3-2c-.1-.1-.1-.1.7-.3 1.3-.5 4.3-1.4 4.4-1.4zm-6.2 2c.1 0 .3.1.8.4 1.9 1.2 4.5 2.6 5.6 3.1.3.1.4.1-.4.6-1.7 1.2-3.8 2.3-6.4 3.4-.5.2-.8.4-.8.4s0-.2.1-.5c.6-2.3 1-4.6 1-6.5 0-.9 0-.9.1-.9zm-1.3.5c.1.1 0 2.1-.1 2.7-.2 1.4-.4 2.6-.9 4l-.2.6s-1.3-1.2-1.7-1.7c-.7-.8-1.3-1.7-1.7-2.5-.2-.4-.5-1.2-.5-1.3.2.1 5.1-1.8 5.1-1.8zm-6.1 2.4s.1.2.2.3c.3.8 1 2 1.5 2.8.6.8 1.5 1.7 2.1 2.3.2.2.4.4.5.4.1.1.1 0-1.4.6-1.8.7-3.7 1.3-5.9 2-.5.2-1 .3-1.6.5-.1 0-.1 0 .2-.4 1.1-1.7 2.7-5 3.7-7.4.2-.4.3-.8.3-.9 0-.1.1-.2.2-.2h.2zm-1.8.8s-.4 1-.9 1.9c-.9 1.8-1.9 3.5-3.2 5.6-.2.4-.4.7-.5.7 0 .1-.1 0-.2-.2-.3-.6-.6-1.4-.7-2.2-.1-.7-.1-2 0-2.8.1-.6.1-.6.4-.7 1.2-.6 5-2.4 5.1-2.3zm16 .6v.4c0 2.1-.2 4.9-.5 7-.1.4-.1.7-.1.7l-.6-.2c-1.4-.4-2.9-1.1-4.3-1.8-.9-.5-2.2-1.3-2.2-1.3s.4-.2.9-.5c1.8-.9 3.6-2 5.1-3 .6-.4 1.4-1 1.6-1.2l.1-.1zm-23 2.8v.4c0 .2-.1.7-.1 1-.1 1.4.1 2.4.8 3.7.2.4.3.7.3.7-.1.1-6.2 1.9-8.1 2.4-.6.2-1.1.3-1.1.3-.1 0-.1 0 0-.1.2-1.4 1.3-3.1 2.7-4.6 1-1 1.7-1.6 3.1-2.3.8-.7 2.2-1.5 2.4-1.5-.1 0-.1 0 0 0zm14.4 2.6s.2.1.5.3c2 1.2 4.8 2.2 7.1 2.8h.2l-.3.2c-1.2.7-5.3 2.4-9.4 3.9-.6.2-1.2.4-1.3.5-.1 0-.2.1-.2.1s.2-.3.4-.7c1.2-2.2 2.3-4.8 2.9-6.7.1-.3.1-.4.1-.4zm-1.4.4-.2.4c-.8 2-1.9 4.1-3.2 6.5-.3.6-.6 1.1-.6 1.1l-.6-.4c-2-1.2-3.7-2.7-4.9-4.1l-.2-.2.8-.2c3-.8 5.6-1.7 8.1-2.8.5-.1.7-.3.8-.3zm9.1 3.2c0 .2-.5 2.1-.9 3.5-.3 1.2-.6 2.1-1.1 3.7-.2.7-.4 1.3-.4 1.3h-.1c-2.8-.5-5.2-1.2-7.5-2.1-.6-.3-1.6-.7-1.6-.7s.5-.3 1.2-.6c4.2-1.8 8.6-3.9 10.1-4.8l.3-.3zm-21.1.8s-1.2 1.7-2.8 4c-.6.8-1.2 1.8-1.5 2.1-.3.4-.6.9-.8 1.2l-.4.6-.4-.4c-.5-.4-1.3-1.3-1.7-1.8-.8-1-1.3-2-1.5-3-.1-.4-.1-.7 0-.7s2.6-.6 4.9-1.2c1.3-.3 2.8-.6 3.3-.8.4.1.9 0 .9 0zm1.1.4.3.3c1.3 1.5 2.7 2.6 4.4 3.6.3.2.5.3.5.3-.1 0-5.7 2.1-8.4 3l-2.7.9s-.1-.1-.2-.1l-.2-.1.3-.4c.9-1.3 2-2.6 4.4-5.5l1.6-2zm7.5 5.3s.4.1.9.3c1.2.5 2.2.7 3.4 1.1 1.6.4 3.9.8 5.2.9.2 0 .3 0 .3.1-.1 0-1.4.5-2.4.8-1.6.5-6.5 1.9-10.4 3.1l-1.4.4c-.1 0-.4-.1-.4-.1s.2-.3.5-.6c1.3-1.6 2.7-3.4 3.8-5.1.2-.5.5-.9.5-.9zm-1.7.1s-.6 1.1-1.8 2.9c-.5.8-1 1.6-1.2 1.9-.2.3-.5.8-.6 1l-.3.5h-.1c-.3-.1-2.7-.9-3.3-1.2-.8-.3-1.6-.7-2.2-1-.7-.4-1.7-1-1.6-1 0 0 1.3-.4 2.8-.8 4.1-1.1 6.3-1.7 7.8-2.2.3-.1.5-.1.5-.1zm11.6 2.7c0 .1-1.5 4.3-2 5.6-.1.3-.2.4-.2.4-.2 0-2.3-.3-3.7-.5-2.3-.4-6.2-1-7.2-1.3h-.2l1.4-.3c3-.7 4.4-1 5.8-1.5 1.8-.6 3.6-1.3 5.5-2.1.3-.2.5-.3.6-.3z" style="fill:url(#SVGID_1_)"/><linearGradient id="SVGID_2_" gradientUnits="userSpaceOnUse" x1="-26183.891" y1="-17985.035" x2="-26166.775" y2="-17985.035" gradientTransform="translate(2807.805 2286.695) scale(.1187)"><stop offset="0" style="stop-color:#939fab"/><stop offset="1" style="stop-color:#dcdee1"/></linearGradient><path d="M-287.8 145.4c-.2 0-3.5 1.2-5.6 2-2.9 1.2-5.1 2.3-6.5 3.2-.5.4-1.2 1-1.3 1.3 0 .1-.1.2-.1.3l1.2 1.2 3 .9 7 1.3 8.1 1.4.1-.7h-.1l-1.1-.2-.2-.4c-1.1-1.9-2.3-4.3-3-5.9-.5-1.3-1.1-2.7-1.4-3.7 0-.6 0-.7-.1-.7zm-.2.5s.1.3.1.6c.2 1.3.4 2.6.9 3.9.3 1 .3 1-.1.8-.9-.3-5.2-1-8.3-1.4-.5-.1-.9-.1-.9-.1s2.2-1.2 3.2-1.7c1.4-.6 4.9-2.1 5.1-2.1zm-8.9 4.1.4.1c2 .7 6.9 1.6 9.6 1.8.3 0 .6.1.6.1s-.3.1-.6.3c-1.3.7-2.8 1.5-3.8 2.1-.3.2-.6.3-.6.3s-.2 0-.4-.1l-.4-.1-.9-.9c-1.6-1.6-2.9-2.8-3.4-3.3l-.5-.3zm-.4.3 1.3 1.6c.7.9 1.4 1.8 1.6 2 .2.2.3.4.3.4s-1.9-.3-2.9-.6c-1-.2-1.4-.3-2.1-.5l-.5-.2v-.1c0-.6.8-1.5 2.1-2.5l.2-.1zm11.1 2.2s.1.1.2.3c.3.7 1.3 2.6 1.5 2.9.1.1.2.1-1.1-.1-3.1-.5-4.2-.7-4.2-.7s.1-.1.2-.1c1-.5 2-1.2 2.8-2 .4 0 .6-.2.6-.3z" style="fill:url(#SVGID_2_)"/><radialGradient id="SVGID_3_" cx="3890.363" cy="-11919.519" r="22.725" gradientTransform="matrix(-.114 -.01713 .03464 -.228 573.31 -2483.971)" gradientUnits="userSpaceOnUse"><stop offset="0" style="stop-color:#ee352c"/><stop offset="1" style="stop-color:#a91d22"/></radialGradient><path d="M-301.1 151.8s-.2.3 0 .8c.1.3.5.7.9 1 0 0 4.1 4 4.6 4.6 2.3 2.6 3.3 5.2 3.4 8.8.1 2.3-.4 4.3-1.5 6.7-1.9 4.2-6 8.9-12.3 14l.9-.3c.6-.4 1.4-.9 3.3-2 4.4-2.4 9.3-4.6 15.3-6.9 8.7-3.3 23-7.1 31.1-8.3l.8-.1-.1-.2c-.7-1.2-1.3-1.9-1.9-2.6-1.8-2.2-3.9-4-6.6-5.5-3.6-2-8.3-3.6-14.3-4.8-1.1-.2-3.6-.6-5.6-1-4.2-.7-7-1.1-10-1.6-1.1-.2-2.7-.5-3.8-.7-.6-.1-1.6-.4-2.5-.7-.5-.2-1.5-.4-1.7-1.2zm2.4 2.3s.2 0 .4.1c.4.1.8.3 1.3.4l1.2.3c.6.1 1 .3 1 .3.1.1 1 3.1 1.3 4.2l.2.8s-.1-.1-.2-.4a18.7 18.7 0 0 0-4.8-5.4c-.2-.1-.4-.3-.4-.3zm4.6 1.3s.3 0 .5.1c1.6.4 4.4.9 6.2 1.2.3 0 .5.1.5.1s-.1.1-.3.2c-.3.2-1.5.9-1.9 1.2-1 .7-2 1.4-2.6 2.1l-.5.5s-.1-.2-.1-.4c-.3-1.3-1-3.2-1.7-4.5-.1-.3-.1-.5-.1-.5zm8 1.5c.1 0 .1.3.3 1 .3 1.3.5 2.8.4 4.2 0 .4 0 .8-.1.8v.1l-.5-.2c-1-.3-2.6-.8-4-1.2-.8-.2-1.4-.4-1.4-.4 0-.1 1.2-1.2 1.6-1.6 1.1-.8 3.6-2.7 3.7-2.7zm.6.1s3.8.6 5.6 1c1.3.3 3.2.6 3.3.7.1 0-.1.1-.8.4-2.4 1.1-4.3 2.1-6.1 3.3-.5.3-.9.6-.9.6v-.6c0-1.8-.4-3.5-1-5 0-.2-.1-.4-.1-.4zm9.9 2s-.1.8-.2 1.2c-.3 1.4-1.2 3.4-2.3 5.4l-.4.6s-.3-.1-.6-.3c-1.1-.6-2.3-1.2-3.6-1.8-.4-.2-.7-.3-.7-.3-.1-.1 2.9-2 4.5-3 1.2-.8 3.3-1.9 3.3-1.8zm.7.1c.1 0 1.8.5 2.7.7 2.2.6 4.7 1.6 6.3 2.3l.7.3-.5.1c-4 .9-7.4 2-10.7 3.3-.3.1-.5.2-.5.2s.1-.2.2-.5c1-2.1 1.6-4.3 1.8-6.2-.1-.1 0-.2 0-.2zm-16.8 3.8s1.3.3 2 .5c1.1.3 3.3 1 3.3 1.1 0 0-.3.2-.5.5-1.2 1-2.4 2.1-3.8 3.4-.4.4-.8.7-.8.7v-.1c.2-1.6.2-3.6-.1-5.6-.1-.2-.1-.5-.1-.5zm27.1.1s-.6 1-1 1.5c-.6.8-1.4 1.9-3.2 4.2-1 1.2-2.1 2.6-2.4 3.1-.4.5-.7.9-.7.9s-.1-.2-.3-.4c-1-1.6-2.3-2.9-3.8-4.1-.3-.2-.6-.5-.7-.6-.1-.1-.2-.1-.2-.2 0 0 1.6-.7 2.8-1.2 2.1-.9 5-1.9 7.1-2.5 1.2-.4 2.4-.8 2.4-.7zm.7.1s.3.1.5.3c2.3 1.3 4.5 3 6.2 4.7.5.5 1.7 1.7 1.7 1.8 0 0-.4 0-.9.1-3.9.3-8.9 1.1-13.7 2.3-.3.1-.6.1-.6.1s.3-.4.8-.8c2.8-2.7 4.1-4.4 5.6-7.5.2-.5.4-.9.4-1zm-20.7 2.2c.1 0 1.3.6 2.2 1 .8.4 2.1 1.1 2.2 1.1l-1 .5c-1.7.9-3.2 1.7-4.8 2.6-.4.3-.8.5-.8.5l.2-.5c.8-1.5 1.5-3.3 1.9-5.1l.1-.1zm-1.2.2s-.3 1.2-.5 1.8c-.4 1.2-1 2.7-1.6 3.8-.1.3-.4.6-.5.9l-.2.4-.5-.5c-.6-.6-1.1-.9-1.7-1.3-.3-.1-.4-.2-.4-.3 0-.1 1.6-1.5 2.8-2.6.8-.8 2.6-2.3 2.6-2.2zm7.4 3 .5.3c1 .7 2.3 1.6 3.2 2.4.5.4 1.5 1.4 1.8 1.6l.1.1-.8.2c-4.2 1.2-7.5 2.2-11.4 3.6-.4.2-.8.3-.8.3-.1 0-.1 0 .9-.8 2.4-2.3 4.6-4.7 6.2-7.2l.3-.5zm-1.9.5s-1.3 1.8-2 2.8c-.9 1.2-2.5 3.2-3.6 4.5-.5.5-.9 1-.9 1v-.3c0-1.1-.3-2.3-.8-3.3-.2-.4-.3-.5-.2-.6.2-.2 2.9-1.7 4.6-2.6 1-.6 2.8-1.5 2.9-1.5zm-11.8 2.9s.2.1.5.2c.6.3 1.1.7 1.6 1.1 0 0-.2.2-.5.4a34 34 0 0 0-3 2.3c-.8.6-.8.7-.8.5.6-.9.9-1.5 1.2-2.1.3-.6.6-1.3.8-1.9.1-.3.2-.5.2-.5zm3.2 2.4.4.4c.5.8.9 1.8 1 2.7v.2l-1.3.5c-2.3.9-4.4 1.8-5.8 2.4-.4.2-1.1.5-1.5.7-.5.2-.8.4-.8.4s.3-.2.6-.5c2.8-2 5.2-4.2 7-6.4.2-.2.3-.4.4-.4zm-1.5.4s-1 1.2-1.7 2c-1.8 1.8-3.6 3.3-5.8 4.6-.3.2-.5.3-.6.4-.1 0 0-.1 1-1.1.6-.7 1.1-1.2 1.6-1.9.4-.5.4-.5.9-.9 1.5-1 4.6-3.2 4.6-3.1z" style="fill:url(#SVGID_3_)"/></g><path d="M11.4 38.5h-.3c-2 .1-3.3 1-4.1 2.7-.7 1.5-.6 3.5 0 5.1.7 1.5 1.8 2.3 3.7 2.6.4.1.7.3 1.4 1.2l.9 1.1h1.7l-1-1.2c-.6-.6-1.1-1.2-1.1-1.2s.2-.2.5-.2c1-.3 1.8-1 2.3-2.2.5-.9.5-1.2.6-2.3.1-3.5-1.7-5.6-4.6-5.6zm1.5 8.9c-.8.4-2 .5-2.8.2-.8-.3-1.6-1.2-2-2.1-.4-1.1-.3-3 .1-3.9.7-1.4 1.7-2 3.1-2 2.1 0 3.3 1.3 3.4 3.7.1 2-.5 3.5-1.8 4.1zm29.6-6c-.7 0-1.3.3-1.6.9l-.3.5v-1.2h-1.2v7.1h1.2v-2.3c0-2.1 0-2.3.3-2.9.4-.8 1.1-1.2 1.7-1l.4.1v-1.2h-.5zm-7.3-.1c-.2 0-.5 0-.8.1-1.7.4-2.6 2-2.5 3.7 0 1.4.3 2.1.9 2.8 1.4 1.1 2.6 1.2 4.2.6.3-.1.6-.3.6-.3v-1.1l-.6.3c-1.3.6-2.4.6-3.2-.1-.5-.5-.7-1.2-.8-1.9h5v-1c.1-1.9-1.1-3.1-2.8-3.1zm-2 3.2s.2-1.2.9-1.7c.3-.2.7-.3 1.1-.3.4 0 .7.1 1.1.4.6.5.7 1.7.7 1.7l-3.8-.1zM3.1 43.2c-1.4-.8-2-1.4-1.9-2.1.2-1.9 2.6-1.7 3.9-.9v-1.3s-.7-.3-1.8-.3c-1.6 0-2.6.5-3.1 1.6-.7 1.6-.1 2.8 2.2 4.1 1.3.7 1.8 1.4 1.8 2.1 0 1.5-1.8 2-3.6 1.1-.2-.4-.5-.5-.6-.5-.1.4 0 1.4 0 1.4s.6.2 1.4.4c2.1.4 4-.6 4.1-2.1.2-1.5-.3-2.3-2.4-3.5zm50.5-1.9c-.2 0-.5 0-.8.1-1.7.4-2.6 2-2.5 3.7 0 1.4.3 2.1.9 2.8 1.4 1.1 2.6 1.2 4.3.6.3-.1.6-.3.6-.3v-1.1l-.6.3c-1.3.6-2.4.6-3.2-.1-.5-.5-.7-1.1-.9-1.9h5v-1c0-1.9-1.1-3.1-2.8-3.1zm-2.1 3.1s.2-1.2.9-1.7c.3-.2.7-.3 1.1-.3.4 0 .7.1 1.1.4.6.5.7 1.7.7 1.7l-3.8-.1zm-22.8-1.2c-1.4-.8-1.9-1.4-1.9-2.1.2-1.9 2.6-1.7 3.9-.9v-1.3s-.7-.3-1.8-.3c-1.6 0-2.6.5-3.1 1.6-.7 1.6-.1 2.8 2.2 4.1 1.3.7 1.8 1.4 1.8 2.1 0 1.5-1.8 2-3.6 1.1-.4-.2-.7-.3-.7-.3-.1.4 0 1.4 0 1.4s.6.2 1.4.4c2.1.4 4-.6 4.1-2.1.2-1.7-.3-2.5-2.3-3.7zm32.2-1.8c-.7 0-1.3.3-1.6.9l-.3.5v-1.2h-1.2v7.1H59v-2.3c0-2.1 0-2.3.3-2.9.4-.8 1.1-1.2 1.7-1l.4.1v-1.2h-.5zm-42.1 1.8v-4.5h-1.3v10h5.3v-1.2h-4v-4.3zm29 1.4-1 2.7-1-2.7-1-3h-1.3c.8 2.4 1.7 4.8 2.7 7.1h1.2l1.4-3.5 1.4-3.6H49c-.1-.1-.6 1.4-1.2 3zm-26.1-8.7c.2 0 .4-.1.5-.2.1-.1.2-.3.2-.5s-.1-.4-.2-.5c-.1-.1-.3-.2-.5-.2s-.4.1-.5.2c-.2.1-.2.3-.2.5s.1.4.2.5c.1.1.3.2.5.2zm-.5-1.1c.1-.1.3-.2.5-.2s.3.1.4.2c.1.1.2.3.2.4 0 .2-.1.3-.2.5-.1.1-.3.2-.4.2-.2 0-.3-.1-.4-.2-.1-.1-.2-.3-.2-.5-.1-.2 0-.3.1-.4zm.3.5c.1 0 .2.1.2.2l.1.2h.2l-.1-.2c0-.1-.1-.2-.2-.2.1 0 .1 0 .2-.1 0 0 .1-.1.1-.2s0-.1-.1-.2c-.1 0-.1-.1-.3-.1h-.3v.9h.1l.1-.3zm0-.5H21.8v.1c0 .1-.1.2-.2.2h-.1v-.3zm-20.7.4v-.7c0 .2.1.3.1.4l1.2 2.7h.2l1.2-2.7c0-.1.1-.2.1-.3V37.7H4V34h-.5l-1.1 2.5c0 .1-.1.2-.2.4 0-.1-.1-.2-.2-.4L.9 34H.4v3.5h.4v-2.3zm4.1 0h.4v2.2h-.4v-2.2zm.2-.8c.1 0 .1 0 .2-.1 0 0 .1-.1.1-.2s0-.1-.1-.2c-.1 0-.1-.1-.2-.1s-.1 0-.2.1c0 0-.1.1-.1.2s0 .1.1.2c0 .1.1.1.2.1zm2.7 3V37c-.2.1-.4.2-.6.2-.3 0-.5-.1-.6-.3-.2-.2-.2-.4-.2-.7 0-.3.1-.5.3-.7.2-.2.4-.3.6-.3.2 0 .4.1.6.2V35h-.7c-.4 0-.7.1-1 .4-.2.3-.4.6-.4 1s.1.7.3.9c.2.2.5.4.9.4.4-.1.6-.1.8-.3zm1-1.1c0-.3.1-.5.2-.7.1-.1.3-.2.4-.2.1 0 .2 0 .3.1V35h-.2c-.1 0-.3 0-.4.1-.1.1-.2.2-.3.4V35h-.4v2.5h.4v-1.2zm2.3 1.3c.4 0 .7-.1.9-.4.2-.2.3-.6.3-1s-.1-.7-.3-1c-.2-.2-.5-.3-.9-.3s-.7.1-.9.3c-.2.2-.4.6-.4 1s.1.7.3.9c.3.4.6.5 1 .5zm-.6-2c.2-.2.4-.2.6-.2.3 0 .5.1.6.2.1.2.2.4.2.7 0 .3-.1.6-.2.7-.1.2-.3.3-.6.3s-.5-.1-.6-.3c-.2-.2-.2-.4-.2-.7 0-.3.1-.6.2-.7zm3.6 1.8c.2-.1.2-.3.2-.5s-.1-.3-.2-.5c-.1-.1-.3-.2-.5-.3-.2-.1-.3-.2-.4-.2-.1-.1-.1-.1-.1-.3 0-.1 0-.2.1-.3.1-.1.2-.1.3-.1.2 0 .4.1.6.2V35h-.4c-.3 0-.5.1-.6.2-.2.1-.3.3-.3.5s.1.3.2.5c.1.1.2.2.5.3.2.1.3.2.4.2.1.1.1.1.1.2 0 .2-.2.4-.5.4-.2 0-.5-.1-.7-.2v.4c.2.1.4.2.6.2.3-.1.6-.2.7-.3zm2-2.4c-.4 0-.7.1-.9.3-.2.2-.4.6-.4 1s.1.7.3.9c.2.2.5.4.9.4s.7-.1.9-.4c.2-.2.3-.6.3-1s-.1-.7-.3-1c-.2-.1-.5-.2-.8-.2zm.8 1.3c0 .3-.1.6-.2.7-.1.2-.3.3-.6.3s-.5-.1-.6-.3c-.2-.2-.2-.4-.2-.7 0-.3.1-.6.2-.7.2-.2.4-.2.6-.2.3 0 .5.1.6.2.1.1.2.4.2.7zm1 1.3h.4v-2.2h.6V35h-.6v-.4c0-.4.1-.5.4-.5.1 0 .2 0 .3.1v-.4h-.3c-.2 0-.4.1-.5.2-.2.2-.3.4-.3.7v.3h-.4v.3h.4v2.3zm1.7-.7c0 .5.2.7.7.7.2 0 .3 0 .4-.1v-.3c-.1.1-.2.1-.3.1-.1 0-.2 0-.3-.1-.1-.1-.1-.2-.1-.4v-1.4h.6V35H20v-.7c-.1 0-.3.1-.4.1v.6h-.4v.3h.4v1.6zM63 41.5c-.1-.1-.3-.2-.5-.2s-.4.1-.5.2c-.1.1-.2.3-.2.5s.1.4.2.5c.1.1.3.2.5.2s.4-.1.5-.2c.1-.1.2-.3.2-.5s0-.3-.2-.5zm0 1c-.1.1-.3.2-.4.2-.2 0-.3-.1-.4-.2-.1-.1-.2-.3-.2-.5s.1-.3.2-.4c.1-.1.3-.2.5-.2s.3.1.4.2c.1.1.2.3.2.4-.1.2-.2.4-.3.5zm-.4-.4c.1 0 .1 0 .2-.1 0 0 .1-.1.1-.2s0-.1-.1-.2c-.1 0-.1-.1-.3-.1h-.3v.9h.1V42h.1c.1 0 .1.1.2.2l.1.2h.2l-.1-.2c-.1-.1-.1-.1-.2-.1zm-.1-.1h-.1v-.3H62.7v.1c0 .1-.1.2-.2.2zm-22.6-7.1h.1V34h.3v-.1h-.7v.1h.3v.9zm.7-.7V34v.2l.4.7h.1l.3-.8V34 34.9h.1v-1h-.1l-.3.7v.1-.1l-.3-.7h-.2v1h.1l-.1-.7z" style="fill:#231f1f"/></svg>