<svg version="1.1" id="design" xmlns="http://www.w3.org/2000/svg" x="0" y="0" viewBox="0 0 98.6 51.3" style="enable-background:new 0 0 98.6 51.3" xml:space="preserve"><style>.st5,.st6{fill-rule:evenodd;clip-rule:evenodd;fill:#00678f}.st6{fill:#e38d1a}</style><path class="st5" d="M0 46.8h3.3V33.9l5.1 11.2c.6 1.4 1.4 1.9 3 1.9s2.4-.5 3-1.9l5.1-11.2v12.9h3.3V33.9c0-1.3-.5-1.9-1.6-2.2-2.5-.8-4.1-.1-4.9 1.6l-5 11.1-4.9-11.1C5.7 31.6 4 31 1.5 31.7c-1 .3-1.5.9-1.5 2.2v12.9zM25.4 36.3h3.3v7.1c0 .4.1 1.3 1.9 1.3h7.1v-8.5H41v11.6c0 2.9-3.5 3.5-5.2 3.5H25.4v-2.2h10.3c2.1-.2 1.9-1.3 1.9-1.6v-.9h-6.9c-3.2 0-5.3-1.5-5.3-3.1v-7.2zM95.7 28.1c-2-.1-3.6.2-4.9.7-.4.2-1 .2-1 .6.2.2.2.5.4.8.3.5.8 1.2 1.3 1.5.5.4 1.1.8 1.6 1.2 1 .6 2.1 1 3 1.6.6.4 1.1.8 1.7 1.2.3.2.5.5.8.7v-.1c-.2-.2-.2-.6-.4-.8-.3-.3-.5-.5-.8-.7-.7-1-1.6-1.8-2.6-2.5-.8-.6-2.6-1.3-2.9-2.2h-.1c.6-.1 1.2-.3 1.7-.4.9-.2 1.6-.2 2.5-.4.4-.1.8-.2 1.2-.4v-.2c-.5-.5-.8-1.1-1.3-1.5-1.3-1.1-2.7-2.2-4.1-3.1-.8-.5-1.8-.8-2.6-1.3-.3-.2-.8-.2-1-.5-.5-.6-.7-1.3-1-1.9-.7-1.4-1.4-2.9-2.1-4.4-.5-1-.7-2-1.3-2.9-2.6-4.3-5.4-6.8-9.7-9.4-.9-.5-2-.8-3.2-1-.6 0-1.3-.1-1.9-.1-.4-.2-.8-.7-1.2-.9C66.7.8 63-1.2 62 1.4c-.7 1.6 1 3.2 1.6 4.1.4.6 1 1.2 1.3 1.9.1.4.1.8.3 1.3.4 1.1.8 2.3 1.3 3.3.3.5.6 1.1.9 1.6.2.3.6.4.6.9-.4.5-.4 1.3-.6 1.9-.9 2.8-.6 6.3.7 8.4.4.6 1.4 2 2.6 1.5 1.1-.5.9-1.9 1.2-3.1.1-.3 0-.5.2-.7v.1c.4.7.7 1.4 1 2.1.8 1.2 2.1 2.5 3.3 3.4.6.5 1.1 1.2 1.8 1.5v-.1h-.1c-.2-.2-.4-.3-.6-.5-.5-.5-1-1-1.3-1.5-1.1-1.4-2-3-2.8-4.6-.4-.8-.8-1.6-1.1-2.4-.2-.3-.2-.8-.4-.9-.4.6-.9 1-1.2 1.7-.5 1.1-.5 2.4-.7 3.8-.1 0-.1 0-.1.1-.8-.2-1.1-1-1.4-1.7-.8-1.8-.9-4.6-.2-6.7.2-.5.9-2.2.6-2.7-.2-.5-.7-.8-.9-1.1-.3-.5-.7-1.1-.9-1.6-.6-1.4-.9-3-1.6-4.4-.3-.7-.8-1.3-1.3-1.9-.5-.7-1-1.2-1.4-2-.1-.3-.3-.7-.1-1 .1-.2.2-.3.4-.3.3-.3 1.3.1 1.6.2.9.4 1.7.7 2.5 1.3.4.3.7.7 1.2.9h.5c.8.2 1.7.1 2.5.3 1.3.4 2.5 1.1 3.6 1.7 3.3 2.1 6 5 7.8 8.6.3.6.4 1.1.7 1.7.5 1.2 1.2 2.5 1.7 3.7.5 1.2 1 2.4 1.8 3.4.4.5 1.9.8 2.6 1.1.5.2 1.3.4 1.7.7.9.5 1.7 1.1 2.5 1.7.6-.2 1.8.5 1.9 1z"/><path class="st5" d="M70.2 6.3c-.4 0-.7.1-1 .1v.1h.1c.2.4.6.7.8 1l.6 1.2v-.1c.3-.2.4-.6.4-1.2-.1-.2-.1-.3-.3-.5-.1-.3-.4-.4-.6-.6z"/><path class="st6" d="M43.4 46.8h9.4c1.1 0 2.2-.2 3-.6 1.4-.7 2.1-1.5 2.1-2.7v-2.4c0-.9-.8-1.8-2.3-2.4-.8-.3-1.8-.5-2.8-.5h-4c-1.3 0-2-.4-2.1-1.3v-2.1c.2-.7.5-.9 1.7-1H58v-2.2h-9.2c-1.3 0-2 .1-2.7.3-1.9.6-2.8 1.6-2.8 3.2V37c0 1.5 1.7 2.7 4.5 3H52.6c1 .1 1.5.3 1.8.7.2.2.3.4.3.6v1.9c0 .2-.2.5-.5.8-.3.3-.8.4-1.4.5h-9.3v2.3h-.1zM78.3 43c0 2.2 1.7 3.5 5 3.7.3 0 .6.1 1 .1h8.5v-2.2h-8.6c-1.9 0-2.6-.5-2.6-1.6V31.7h-3.3V43zM60 43.1v-7.8c0-2 1.4-3.2 4.1-3.6h8c2.7.4 4.1 1.6 4.1 3.6v7.8c0 1.6-.6 2.5-1.9 3l3.2 2.9h-3.8l-2.6-2.4-2.6.2H65c-.6 0-1.2-.1-1.9-.3-2-.5-3.1-1.6-3.1-3.4zm3.6-.2c0 .1.1.2.1.3.2.9 1 1.4 2.3 1.4h3l-2.7-2.5H70l2.4 2.2c.5-.3.7-.6.8-1.1v-8c-.2-.9-1-1.3-2.3-1.3H66c-1.5 0-2.4.6-2.4 1.6v7.4zM94.3 46.8h.5V45h.6v-.4h-1.8v.4h.7v1.8zm3.6 0h.5v-2.2h-.7l-.6 1.5-.6-1.5h-.7v2.2h.4v-1.7l.6 1.7h.3l.6-1.7v1.7h.2z"/></svg>