<svg version="1.1" id="Layer_1" xmlns="http://www.w3.org/2000/svg" x="0" y="0" viewBox="0 0 200 57" style="enable-background:new 0 0 200 57" xml:space="preserve"><style>.st0{fill:#00829b}</style><g id="Layer_2"><g id="Layer_1-2"><path class="st0" d="M83.5 13.6c1.2 1.2 1.8 2.9 1.8 5v16.2h-5.8V19.4c0-1.3-.2-2.3-.7-2.8-.5-.5-1.2-.8-2.2-.8-1 0-1.9.3-2.7.9-.9.7-1.7 1.6-2.3 2.5v15.6h-5.8V12.4h5l.4 2.9c2-2.4 4.4-3.6 7.3-3.6 2.1.1 3.8.7 5 1.9zM109.7 25.3h-15c.2 2.2.8 3.7 1.8 4.7s2.4 1.4 4.1 1.4c1 0 2-.2 3-.5 1-.4 2-.9 3-1.5l2.4 3.1c-2.5 2-5.6 3-8.8 3-3.6 0-6.4-1-8.4-3.1s-3-4.9-3-8.6c0-2.1.4-4.2 1.3-6.2.8-1.7 2-3.2 3.6-4.3 1.6-1 3.5-1.5 5.7-1.5 3.3 0 5.9 1 7.7 3 1.8 2 2.7 4.8 2.7 8.3 0 .3 0 1-.1 2.2zm-5.6-3.8c0-3.9-1.5-5.9-4.6-5.9-1.4 0-2.5.5-3.3 1.5-.8 1-1.3 2.5-1.4 4.7h9.4v-.3zM129.8 14.4l-2.3 3.2c-2-1.2-4-1.8-6-1.8-1.1 0-2 .2-2.6.6-.6.3-.9 1-.9 1.6 0 .5.1.9.4 1.3.3.3.8.7 1.5 1 1 .4 2.1.7 3.1 1 2.6.6 4.5 1.5 5.7 2.6 1.2 1.1 1.9 2.6 1.9 4.5 0 2.2-1 4-2.9 5.2s-4.3 1.9-7.2 1.9c-1.8 0-3.6-.3-5.3-.8-1.5-.5-2.9-1.3-4.2-2.3l2.9-3c2.1 1.5 4.2 2.2 6.5 2.2 1.3 0 2.3-.2 3.1-.7.7-.4 1.2-1.2 1.1-2 0-.5-.1-1.1-.4-1.5-.3-.4-.8-.7-1.5-1-1.1-.4-2.3-.8-3.4-1.1-2.4-.6-4.2-1.5-5.4-2.6-1.1-1.1-1.8-2.6-1.7-4.2 0-1.2.4-2.4 1.1-3.3.9-1.1 2-1.9 3.2-2.3 1.5-.6 3.2-.9 4.8-.8 3.3-.3 6.1.6 8.5 2.3zM150.5 14.4l-2.3 3.2c-2-1.2-4-1.8-6-1.8-1.1 0-2 .2-2.7.6-.6.3-.9 1-.9 1.6 0 .5.1.9.4 1.3.3.3.8.7 1.5 1 1 .4 2.1.7 3.1 1 2.6.6 4.5 1.5 5.7 2.6 1.2 1.1 1.9 2.6 1.9 4.5 0 2.2-1 4-2.9 5.2s-4.3 1.9-7.2 1.9c-1.8 0-3.6-.3-5.3-.8-1.5-.5-2.9-1.3-4.2-2.3l2.9-3c2.1 1.5 4.2 2.2 6.5 2.2 1.3 0 2.3-.2 3.1-.7.7-.4 1.2-1.2 1.1-2 0-.5-.1-1.1-.4-1.5-.3-.4-.8-.7-1.5-1-1.1-.4-2.3-.8-3.4-1.1-2.4-.6-4.2-1.5-5.4-2.6-1.1-1.1-1.8-2.6-1.7-4.2 0-1.2.4-2.4 1.1-3.3.9-1.1 2-1.9 3.2-2.3 1.5-.6 3.2-.9 4.8-.8 3.3-.3 6.1.6 8.6 2.3zM173.4 34.8h-5l-.3-3.1c-.8 1.2-1.8 2.2-3.1 2.8-1.3.6-2.8 1-4.2.9-2.1 0-3.8-.6-4.9-1.8-1.2-1.2-1.7-2.9-1.7-5.1V12.4h5.8v15.4c0 1.3.2 2.2.7 2.7s1.2.8 2.2.8c1.8 0 3.4-1.1 4.8-3.2V12.4h5.8l-.1 22.4zM194.7 14.4l-2.3 3.2c-2-1.2-4-1.8-6-1.8-1.1 0-2 .2-2.6.6-.6.3-.9 1-.9 1.6 0 .5.1.9.4 1.3.3.3.8.7 1.5 1 1 .4 2.1.7 3.1 1 2.6.6 4.5 1.5 5.7 2.6 1.2 1.1 1.9 2.6 1.9 4.5 0 2.2-1 4-2.9 5.2s-4.3 1.9-7.2 1.9c-1.8 0-3.6-.3-5.3-.8-1.5-.5-2.9-1.3-4.2-2.3l2.9-3c2.1 1.5 4.2 2.2 6.5 2.2 1.3 0 2.3-.2 3.1-.7.7-.4 1.2-1.2 1.1-2 0-.5-.1-1.1-.4-1.5-.3-.4-.8-.7-1.5-1-1.1-.4-2.3-.8-3.5-1.1-2.4-.6-4.2-1.5-5.4-2.6-1.1-1.1-1.8-2.6-1.7-4.2 0-1.2.4-2.4 1.1-3.3.9-1.1 2-1.9 3.2-2.3 1.5-.6 3.2-.9 4.8-.8 3.4-.3 6.2.6 8.6 2.3zM199.2 7.3c.2.1.4.3.6.6.1.2.2.5.2.8 0 .3-.1.6-.2.8-.1.2-.3.4-.6.6-.3.1-.5.2-.8.2-.3 0-.6-.1-.8-.2-.2-.1-.4-.3-.6-.6-.1-.2-.2-.5-.2-.8 0-.3.1-.6.2-.8.1-.2.3-.4.6-.6.5-.3 1.1-.3 1.6 0zm-.2 2.5c.2-.1.3-.3.4-.4.1-.2.2-.4.2-.6 0-.2 0-.4-.2-.6-.1-.2-.2-.3-.4-.4-.2-.1-.4-.2-.6-.2-.2 0-.4.1-.6.2-.2.1-.3.3-.4.4-.1.2-.2.4-.2.6 0 .2 0 .4.2.6.1.2.2.3.4.4.2.1.4.2.6.2.2-.1.4-.1.6-.2zm0-1.2c-.1.1-.2.1-.3.2l.5.7h-.5l-.4-.6h-.1v.6h-.4V7.8h.5c.5 0 .8.2.8.5 0 .1-.1.2-.1.3zm-.8 0h.2c.2 0 .3-.1.3-.2s-.1-.2-.3-.2h-.2v.4zM71.7 44.4c.9.7 1.4 1.6 1.4 2.9 0 1.4-.5 2.4-1.4 3.1-1 .7-2.2 1-3.8 1h-1.7v4.7h-1.9V43.4h3.6c1.6 0 2.9.3 3.8 1zm-1.4 5.1c.6-.4.9-1.1.9-2.1 0-.9-.3-1.6-.9-2-.6-.4-1.4-.6-2.4-.6h-1.7V50h1.6c1.1 0 1.9-.2 2.5-.5zM80.5 46.3l-.3 1.7c-.3-.1-.6-.1-.9-.1-.6 0-1.2.2-1.6.7-.4.4-.7 1.1-.9 2.1v5.6H75v-9.7h1.6l.2 2c.2-.6.6-1.2 1.1-1.6.5-.4 1.1-.6 1.6-.6.3-.3.7-.2 1-.1zM89.3 47.5c.8.9 1.2 2.1 1.2 3.7 0 .9-.2 1.8-.6 2.7-.3.7-.9 1.4-1.6 1.8-.7.4-1.6.7-2.5.6-1.5 0-2.6-.5-3.4-1.4s-1.2-2.1-1.2-3.7c0-.9.2-1.8.6-2.7.3-.7.9-1.4 1.6-1.8.8-.4 1.6-.7 2.5-.6 1.5 0 2.6.5 3.4 1.4zm-6.1 3.7c0 2.5.9 3.7 2.7 3.7 1.8 0 2.7-1.2 2.7-3.7s-.9-3.7-2.6-3.7c-1.9 0-2.8 1.3-2.8 3.7zM95.4 44c-.3.3-.4.6-.4 1v1.3h2.5l-.2 1.3H95V56h-1.8v-8.4h-1.8v-1.3h1.8V45c0-.8.3-1.5.9-2 .6-.5 1.4-.8 2.4-.8.4 0 .8 0 1.3.1.4.1.8.2 1.2.4l-.6 1.3c-.6-.2-1.2-.4-1.8-.4-.6 0-1 .1-1.2.4zM106.9 51.8h-6.6c.1 1.1.4 1.9.9 2.4s1.2.8 1.9.8c.5 0 .9-.1 1.4-.2.5-.2.9-.4 1.3-.6l.8 1c-1 .8-2.3 1.2-3.6 1.2-1.4 0-2.6-.4-3.4-1.3s-1.2-2.1-1.2-3.7c0-.9.2-1.8.5-2.7.3-.7.8-1.4 1.5-1.8.7-.5 1.5-.7 2.3-.7 1.4 0 2.4.4 3.2 1.3.7.8 1.1 2 1.1 3.5-.1.2-.1.5-.1.8zm-1.8-1.4c0-1-.2-1.7-.6-2.2-.4-.5-1-.8-1.8-.8-1.5 0-2.3 1-2.4 3.1h4.8v-.1zM114.2 46.4c.6.2 1.1.5 1.6.8l-.8 1.1c-.4-.3-.9-.5-1.3-.6-.4-.1-.9-.2-1.3-.2-.5 0-1 .1-1.4.3-.3.2-.5.6-.5.9 0 .4.2.7.5.9.3.2.9.4 1.7.6 1.2.3 2 .6 2.6 1.1.6.5.9 1.2.9 1.9 0 .9-.4 1.7-1.2 2.2-.9.5-1.9.8-2.9.8-1.6 0-2.9-.4-3.9-1.3l1-1c.8.6 1.9.9 2.9.9.6 0 1.1-.1 1.6-.4.4-.2.6-.6.6-1.1 0-.3-.1-.6-.2-.8-.2-.2-.5-.4-.7-.5-.5-.2-1-.4-1.6-.5-1.1-.3-1.9-.6-2.4-1.1-.5-.4-.8-1.1-.7-1.7 0-.5.2-1 .5-1.4.3-.4.8-.8 1.3-1 .6-.2 1.3-.4 1.9-.3.6.1 1.2.2 1.8.4zM123.3 46.4c.6.2 1.1.5 1.6.8l-.8 1.1c-.4-.3-.9-.5-1.3-.6-.4-.1-.9-.2-1.3-.2-.5 0-1 .1-1.4.3-.3.2-.5.6-.5.9 0 .4.2.7.5.9.5.3 1.1.5 1.7.6 1.2.3 2 .6 2.6 1.1.6.5.9 1.2.9 1.9 0 .9-.4 1.7-1.2 2.2-.9.5-1.9.8-2.9.8-1.6 0-2.9-.4-3.9-1.3l1-1c.8.6 1.9.9 2.9.9.6 0 1.1-.1 1.6-.4.4-.2.6-.6.6-1.1 0-.3-.1-.6-.2-.8-.2-.2-.5-.4-.7-.5-.5-.2-1-.4-1.6-.5-1.1-.3-1.9-.6-2.4-1.1-.5-.4-.8-1.1-.7-1.7 0-.5.2-1 .5-1.4.3-.4.8-.8 1.3-1 .6-.2 1.3-.4 1.9-.3.5.1 1.2.2 1.8.4zM129 42c.2.2.4.5.4.8 0 .3-.1.6-.4.8-.3.2-.6.3-.9.3-.3 0-.7-.1-.9-.3-.2-.2-.4-.5-.4-.8 0-.3.1-.6.4-.8.2-.2.6-.3.9-.3.3 0 .6.1.9.3zm0 4.4v9.7h-1.8v-9.7h1.8zM139.3 47.5c.8.9 1.2 2.1 1.2 3.7 0 .9-.2 1.8-.6 2.7-.3.7-.9 1.4-1.6 1.8-.7.4-1.6.7-2.5.6-1.4 0-2.6-.5-3.4-1.4-.8-.9-1.2-2.1-1.2-3.7 0-.9.2-1.8.6-2.7.3-.7.9-1.4 1.6-1.8.8-.4 1.6-.7 2.5-.6 1.5 0 2.6.5 3.4 1.4zm-6.1 3.7c0 2.5.9 3.7 2.7 3.7s2.7-1.2 2.7-3.7-.9-3.7-2.6-3.7c-1.9 0-2.8 1.3-2.8 3.7zM150 46.9c.5.5.8 1.3.8 2.2v7H149v-6.7c0-.7-.1-1.2-.4-1.5-.3-.3-.8-.5-1.2-.4-.5 0-1 .1-1.4.4-.5.3-.9.8-1.2 1.3v6.9H143v-9.7h1.6l.2 1.4c.4-.5.8-.9 1.4-1.2.6-.3 1.2-.5 1.8-.4.7-.1 1.4.2 2 .7zM160.9 54.7c.2.2.4.4.6.4l-.4 1.2c-.5 0-.9-.2-1.3-.4-.3-.3-.6-.6-.7-1-.7 1-1.7 1.4-3.1 1.4-1 0-1.8-.3-2.4-.8-1.2-1.2-1.2-3 0-4.2l.3-.3c.8-.6 1.9-.8 3.4-.8h1.6v-.7c0-.7-.2-1.2-.5-1.5s-.9-.4-1.6-.4c-.9 0-1.9.2-2.8.5l-.5-1.2c1.1-.4 2.4-.6 3.6-.7 1.2 0 2.1.3 2.7.8.6.6.9 1.4.9 2.4v4.4c0 .3.1.6.2.9zm-2-1.2v-2.2h-1.4c-1.9 0-2.9.7-2.9 2 0 .5.1 1 .5 1.3.4.3.8.5 1.3.4 1.1 0 1.9-.5 2.5-1.5zM164.2 55.7c-.4-.4-.6-1-.6-1.6V42.5l1.8-.2v11.9c0 .2 0 .4.1.6.1.1.3.2.5.2s.5 0 .7-.1l.5 1.2c-.4.2-.9.3-1.4.3-.6-.1-1.2-.3-1.6-.7zM56.2 34.6c-.2-.6-.7-2.7-1.3-4.7L50.6 14c-.5-2-1.1-4.1-1.3-4.7-.3-.9-1-1.7-2-2L42.7 6 26.8 1.7 22 .4c-1-.2-2 .1-2.7.7L.8 19.7c-.6.7-.9 1.5-.8 2.4l.1.5L5.6 43c.5 2 1.1 4.1 1.3 4.7.3.9 1 1.7 2 2l4 1.1 16.6 4.4 3.9 1.1.8.2c1 .2 2-.1 2.7-.7l3.5-3.5L52 40.7l3.5-3.5c.6-.7.9-1.7.7-2.6zM2.1 21 20.6 2.4c.3-.2.6-.3.9-.2L46.9 9c.3.1.6.4.7.7.2.6.7 2.7 1.3 4.7l5 18.8c.2.9.4 1.6.5 1.9 0 .3-.1.7-.3.9L35.6 54.6c-.3.2-.6.3-.9.2l-.7-.1-4.1-1.1L9.3 48c-.2 0-.3-.1-.4-.2-.1-.1-.2-.3-.3-.4-.1-.5-.5-1.9-.9-3.5L3.1 26.7c-.5-1.8-1-3.7-1.2-4.5l-.1-.3c0-.3.1-.6.3-.9z"/></g></g></svg>