<svg version="1.1" id="Layer_1" xmlns="http://www.w3.org/2000/svg" x="0" y="0" viewBox="0 0 200 173" style="enable-background:new 0 0 200 173" xml:space="preserve"><style>.st0{fill:#020202}.st1{fill:#f3f3f3}.st2{fill:#99c3d4}</style><path class="st0" d="M112.8.3c1.7.7 3.5.7 5.3 1 17.4 2.8 33.3 9.2 47.7 19.4 12.1 8.5 22.3 19 30.4 31.5 1.3 2 2.5 4 3.8 6.1-11 18.7-25.7 33.7-44.9 44.2-13.3 7.3-27.5 11.8-42.6 13.5-9.1 1-18.2 1-27.3-.2-28.6-3.8-52.4-16.7-71.8-37.9C8.9 73 5.5 67.4 1.5 62.1c-2.3-3-1.8-4.8 0-7.7 11.8-18.7 27.4-33 47.1-42.8 11.7-5.8 24.1-9.5 37-11 .1 0 .3-.2.4-.3h26.8zM82.1 52.9c-.1.7-.6 1.5-.2 2.3h5c1.2-.2 2.7.9 3.4-.9.9-2.2 2.5-3.6 4.6-4.6.7-.2 1.6-.1 1.6-1.1.1-2.4 0-4.8 0-7.5-1.7.5-3.1.8-4.5 1.2-.7-1-1.3-2.1-1.6-3.4 1.6-.6 3.2-1 4.9-1.2.6-.1 1.2-.2 1.2-1v-8.8c-1 0-1.8-.1-2.5 0-2.7.4-5.3 1.3-8 2.1-2.2-2.6-2-3.3 1.1-4.3 3.1-.9 6.2-1.4 9.3-1.9v-8.3c-21.3.6-39.3 18-40.3 39.6h7.7c.2-3.3.9-6.4 2.1-9.5 1.2.6 2.2 1.1 3.3 1.6-.6 2.6-1.6 5.1-1.5 7.9h10c.3-1.2.5-2.4.8-3.6 1.3.1 2.4 1 3.6 1.4zm50-37.5c13.7 12 20.7 26.7 19.8 44.7-.8 17.9-9.2 31.7-23.5 42.2.7.1 1.3 0 2-.2 9.8-2.9 18.9-7.2 27.4-12.9 7.5-5 14.4-10.8 20.2-17.8 3.2-3.9 6.5-7.7 9.3-11.9.7-1 .6-1.5 0-2.4-3.7-5.3-7.7-10.4-12.2-15.1-10.5-11.1-22.9-19.3-37.1-24.8-1.8-.8-3.5-1.8-5.9-1.8zm-69.7 1.4c-.8.2-1.1.2-1.4.3-20.5 8.2-36.9 21.6-49.1 40-.6.9-.5 1.4.1 2.2 12.6 19 29.6 32.5 50.8 40.6.6.2 1.1.6 2 .1-13-10.7-20.2-24.2-20.7-40.9s5.8-30.6 18.3-42.3zm34.2 82.5v-8.1c-19-2.3-29.9-12.7-33-31.5h-7.3c.3 19.2 16.8 38.8 40.3 39.6zm4.4-83.7v7.5c0 1.1.7 1 1.5 1.1 12.6 1.7 21.5 8.5 27.1 19.8 1.7 3.5 2.4 7.3 2.9 11.1h7.6c-1.5-23-20.3-38.4-39.1-39.5zm0 83.5c21.1-.7 38.8-19.8 38.8-39.3h-7.4c-.4 3.8-1 7.4-2.6 10.7-5.6 11.6-14.5 18.6-27.4 20.3-1 .1-1.4.4-1.4 1.4v6.9zM67.8 59.7c.5 16.3 17 28.5 28.6 27.2v-9.4C85.8 76 79.7 69.9 77.6 59.7h-9.8zm50.8-.1c-.6 2-.8 4-1.7 5.8-3 6.2-7.8 10.1-14.5 11.6-.7.2-1.5.1-1.4 1.2v8.7c13-.2 27.3-12.9 27.4-27.2-.4 0-.8-.1-1.1-.1h-8.7zm-17.5-22c8.1 1.4 15.6 7 17.5 17.6h9.9c-.3-14.6-14.7-27-27.4-27.2v9.6zM81.8 59.7c-.1 6.7 7.4 13.7 14.7 13.9v-7.8c-3.4-.7-5.5-3-6.6-6.1h-8.1zM101 73.5c7.2-1.3 12.9-7.1 13.5-13.8H107c-.7 0-.9.5-1 1-.7 2-2.1 3.3-3.9 4.4-.5.3-1.1.4-1.1 1.2v7.2zm0-32v7.3c0 .5.1.9.6 1.1 2.4 1 3.8 3 4.7 5.2h8.3c-1-6.9-6.6-12.6-13.6-13.6zM59 172.7v-6.9h4.4c.7-8.8 1.5-17.5 2.2-26.4H61V132h16.2c2.7 7.9 5.4 15.9 8.1 24 2.7-8.1 5.4-16 8.1-24.1h16.3v7.3h-4.6c.7 8.9 1.5 17.6 2.2 26.2 1.5.5 3-.1 4.6.5v6.7H93.2v-6.8c1.4-.4 2.7.1 4-.4-.2-6.2-1.1-12.4-.9-18.8-1.7 6.1-4.1 11.5-5.9 17.2-.5 1.5-1.3 1.9-2.7 1.8-1.7-.1-3.5-.1-5.2 0-1.1.1-1.7-.3-2-1.4-.6-1.8-1.2-3.6-1.9-5.4-1.3-3.7-2.6-7.4-4.1-11.4.1 6.3-.8 12.1-1 18.1 1.3.4 2.7-.1 4.2.5v6.7H59zM114.8 172.7c-.4-2.2 0-4.5-.2-6.6.3-.2.4-.3.5-.3 2.4.4 3.3-.8 4-3 3.3-10.3 6.8-20.5 10.3-30.9h10.9c1 0 1 .6 1.3 1.2 2.9 8.5 5.7 17 8.6 25.5.5 1.6 1.2 3.2 1.6 4.9.4 1.7 1.2 2.5 3 2.2.3-.1.6 0 1.2 0v7h-17.1v-6.8c1.2-.3 2.3.1 3.4-.4-.4-1.5-.9-3-1.3-4.5-.2-.6-.6-.8-1.2-.8h-8.9c-.6 0-1 .3-1.1.9-.4 1.5-.8 3-1.2 4.6 1.3.1 2.3.1 3.5.2v6.9c-5.9-.1-11.6-.1-17.3-.1zm23.4-20.4c-.9-4-2.3-7.7-2.9-11.8-1.1 4.1-2.2 7.9-3.2 11.8h6.1zM159.4 172.7v-6.9h4.5v-26.3h-4.4v-7.6h5.7c5.6 0 11.3.1 16.9.1 8.9 0 13.5 7.5 12.6 15.5-.8 6.8-4.7 11.4-10.2 12-2.8.3-5.7.2-8.5.3-.5 0-1 .1-1.7.1v5.6c1.5.5 2.9 0 4.6.4v6.8h-19.5zm14.9-20.9c3.3-.3 7 1.2 9.4-2.3 1.4-2.1 1.3-6-.3-7.7-2.6-2.8-6-1.4-9.1-1.7v11.7zM11.3 172.7c.1-1.2.1-2.5.2-4h5V137c-1.5-.5-3.2 0-4.9-.3-.4-1.3-.1-2.7-.2-4.3h10.4c.6 0 .8.5 1.1.9 6.2 9.1 12.5 18.2 18.8 27.3.6.9 1 1.8 1.8 3v-26.7h-4.7c-.5-1.5-.3-3-.2-4.5h15.8c.3 1.4.1 2.8.1 4.3h-5v35.9h-6.4c.1-.4-.2-.6-.3-.9-4.5-6.5-9-13.1-13.5-19.6-2.4-3.5-4.9-6.9-7.1-10.7v27.2h5.4v4c-5.5.1-10.9.1-16.3.1z"/><path class="st1" d="M132.1 15.4c2.4 0 4.1 1 5.8 1.7 14.2 5.5 26.7 13.7 37.1 24.8 4.4 4.7 8.4 9.8 12.2 15.1.6.9.7 1.4 0 2.4-2.8 4.2-6.1 8-9.3 11.9-5.8 7-12.7 12.8-20.2 17.8-8.5 5.7-17.6 10-27.4 12.9-.7.2-1.3.3-2 .2C142.5 91.7 150.9 78 151.8 60c.9-18-6-32.6-19.7-44.6zM62.4 16.8C49.9 28.5 43.6 42.4 44.1 59.1c.5 16.7 7.7 30.2 20.7 40.9-.8.5-1.4.1-2-.1C41.5 91.8 24.6 78.3 12 59.4c-.6-.8-.7-1.4-.1-2.2 12.3-18.4 28.6-31.7 49.1-40 .3-.2.6-.2 1.4-.4z"/><path class="st1" d="M94.9 49.7c-2 1-3.7 2.4-4.6 4.6-.7 1.7-2.2.7-3.4.9-1.6-.8-3.2-1.5-4.9-2.3-1.2-.4-2.2-1.3-3.5-1.4-2.9-1.9-6.1-3-9.2-4.3-1.1-.5-2.1-1-3.3-1.6-1.2 3.1-1.9 6.2-2.1 9.5h-7.7c1-21.6 18.9-39 40.3-39.6v8.3c-3 .5-6.2 1-9.3 1.9-3.1.9-3.3 1.7-1.1 4.3 1.3 3.1 2.6 6.1 4.4 9 .3 1.3.9 2.4 1.6 3.4 0 .8.5 1.3.8 2 .6 1.7 1.8 3.3 2 5.3zM96.6 99.3c-23.4-.9-40-20.4-40.3-39.6h7.3c3.1 18.7 14 29.1 33 31.5v8.1zM101 15.6c18.8 1.1 37.6 16.5 39 39.5h-7.6c-.5-3.7-1.1-7.6-2.9-11.1-5.6-11.3-14.5-18.1-27.1-19.8-.7-.1-1.5 0-1.5-1.1.1-2.5.1-4.9.1-7.5zM101 99.1v-6.9c0-1 .4-1.3 1.4-1.4 12.9-1.6 21.8-8.7 27.4-20.3 1.6-3.3 2.2-6.9 2.6-10.7h7.4c0 19.4-17.7 38.6-38.8 39.3z"/><path class="st2" d="M67.8 59.7h9.8c2.1 10.2 8.2 16.3 18.9 17.8v9.4C84.8 88.2 68.3 76 67.8 59.7zM118.6 59.6h8.7c.4 0 .8.1 1.1.1C128.3 74 114 86.8 101 87v-8.7c0-1.1.7-1 1.4-1.2 6.7-1.6 11.5-5.5 14.5-11.6.9-1.8 1.1-3.8 1.7-5.9zM101.1 37.6V28c12.6.1 27 12.6 27.4 27.2h-9.9c-2-10.7-9.4-16.2-17.5-17.6z"/><path class="st2" d="M81.8 59.7h8c1.2 3.1 3.2 5.4 6.6 6.1v7.8c-7.2-.2-14.7-7.2-14.6-13.9zM101 73.5v-7.3c0-.8.6-.9 1.1-1.2 1.7-1.1 3.2-2.4 3.9-4.4.2-.5.3-1 1-1h7.5c-.6 6.8-6.3 12.6-13.5 13.9zM101 41.5c7 1 12.6 6.7 13.5 13.6h-8.3c-.9-2.3-2.3-4.2-4.7-5.2-.5-.2-.6-.6-.6-1.1.1-2.4.1-4.7.1-7.3zM90.4 38.9c-1.8-2.8-3.1-5.9-4.4-9 2.6-.8 5.2-1.7 8-2.1.8-.1 1.5 0 2.5 0v8.8c0 .8-.6.9-1.2 1-1.6.3-3.3.7-4.9 1.3zM69.3 47.2c3.1 1.3 6.4 2.4 9.2 4.3-.3 1.2-.5 2.4-.8 3.6h-10c0-2.8.9-5.3 1.6-7.9zM94.9 49.7c-.2-2-1.4-3.6-2.1-5.4-.3-.7-.8-1.2-.8-2 1.4-.4 2.8-.7 4.5-1.2v7.5c0 1-.9.9-1.6 1.1zM82.1 52.9c1.6.8 3.2 1.5 4.9 2.3h-5c-.5-.8 0-1.6.1-2.3z"/></svg>