<svg version="1.1" id="svg26" xmlns="http://www.w3.org/2000/svg" x="0" y="0" viewBox="0 0 250 250" style="enable-background:new 0 0 250 250" xml:space="preserve"><style>.st0{fill:#f1592a}</style><switch><g><g id="Layer_2_1_" transform="matrix(.65763 0 0 .65763 34.875 4.875)"><g id="Layer_1-2"><path id="path8" class="st0" d="M136.5 372.7c-102.1 0-188.7-86.2-189.5-189-.4-50.1 19.3-98.2 54.7-133.7C37.3 13.5 86-7.1 137-7.4c50 0 98 19.9 133.3 55.4 35.9 35 56.3 82.8 56.8 132.9.5 105.1-84 190.8-189.1 191.8h-1.5zm.6-370.2C88.8 2.8 42.6 22.4 8.9 57c-33.6 33.5-52.3 79.1-52 126.6.7 97.4 82.8 179.1 179.6 179.1h1.3c99.6-.9 179.8-82.1 179.4-181.7-.5-47.5-19.8-92.8-53.8-125.9C230 21.4 184.5 2.5 137.1 2.5z"/><path id="path10" class="st0" d="M-10.4 238.3v-111h27v10H2.3v91.3h14.3v10l-27-.3z"/><path id="path12" class="st0" d="M81.3 181.6c0 20.2-12.3 31.8-29 31.8s-27.8-13-27.8-30.7c0-18.6 11.6-31.6 28.7-31.6s28.1 13.6 28.1 30.5zm-45.1.9c0 12.3 6.2 22 16.8 22s16.7-10 16.7-22.5c0-11.3-5.7-22-16.7-22s-16.9 10.4-16.9 22.8l.1-.3z"/><path id="path14" class="st0" d="M90.7 153.1c5.3-.9 10.7-1.4 16-1.3 6-.6 12.1.8 17.3 3.8 4 2.3 6.4 6.7 6.3 11.3-.1 6.1-4.2 11.3-10 13.1 7.1 1.4 12.2 7.7 12.2 14.9.1 4.8-2.1 9.4-5.8 12.4-4.3 3.8-11.4 5.6-22.4 5.6-4.5 0-9-.2-13.5-.8l-.1-59zm10.9 23.9h5.6c7.6 0 11.9-3.6 11.9-8.7s-4.3-8.3-11.3-8.3c-2.1-.1-4.2.1-6.3.4l.1 16.6zm0 27.7c1.9.2 3.9.3 5.8.2 7.1 0 13.3-2.7 13.3-10s-6.1-10-13.7-10h-5.5v19.8z"/><path id="path16" class="st0" d="M154.2 152.3h11v39.3c0 16.7-8.1 22.2-19.9 22.2-3.2 0-6.3-.6-9.3-1.6l1.3-8.9c2.2.7 4.5 1.1 6.8 1.1 6.3 0 10-2.9 10-13.3l.1-38.8z"/><path id="path18" class="st0" d="M196.5 185v7.6h-22.9V185h22.9z"/><path id="path20" class="st0" d="M250 210.9c-4.9 2-10.3 2.9-15.6 2.7-19.2 0-30.8-12-30.8-30.3-.9-16.7 12-31 28.7-31.9 1.2-.1 2.4-.1 3.5 0 5.1-.2 10.2.7 14.9 2.7l-2.4 8.8c-3.7-1.6-7.8-2.4-11.8-2.3-12.3 0-21.1 7.7-21.1 22.2 0 13.2 7.8 21.8 21 21.8 4.1.1 8.2-.7 12-2.2l1.6 8.5z"/><path id="path22" class="st0" d="M284.5 126.9v111.3h-27v-10h14.3v-91.4h-14.3v-10h27z"/></g></g></g></switch></svg>