<svg xmlns="http://www.w3.org/2000/svg" viewBox="0 0 597.3 738.32"><defs><style>.cls-4{fill:#050505}</style></defs><g id="Layer_2" data-name="Layer 2"><g id="Layer_1-2" data-name="Layer 1"><g id="red"><path id="cv_element" data-name="cv element" d="M225.65 260A139.3 139.3 0 1 1 365 260l-42-72.68a55.42 55.42 0 1 0-55.42 0Z" style="fill:#ff0101"/></g><g id="blue"><path id="cv_element-2" data-name="cv element" d="M524 293.69a139.3 139.3 0 1 1-139.3 0l41.94 72.64a55.42 55.42 0 1 0 55.42 0Z" style="fill:#0101ff"/></g><g id="green"><path id="cv_element-3" data-name="cv element" d="M278.6 414.32A139.3 139.3 0 1 1 209 293.69l-42 72.64a55.42 55.42 0 1 0 27.71 48Z" style="fill:#01ff01"/></g><g id="opencv_text" data-name="opencv text"><path id="n" class="cls-4" d="M326.26 626.2c6.92-4.8 15.86-5.47 24-4.53 6.93.73 14.27 3.37 18.36 9.35 3.63 5 4.64 11.28 4.69 17.29v55h-19v-52c-.19-3.79 0-8.17-2.89-11.09-3-3.29-7.81-3.93-12.06-3.9-5.14 0-10.7.85-14.66 4.4-3.87 3.3-5.34 8.62-5.36 13.54v49.07h-19v-81h18.67c0 4.74-.5 9.45-.64 14.19 2.01-3.84 4.15-7.88 7.89-10.32Z"/><path id="C" class="cls-4" d="M407.69 590.72c10.48-3.52 21.65-4 32.61-4.41 10.62 0 21.72.15 31.64 4.43 5 2.1 8.53 6.7 10.23 11.78 2.77 7.59 2.85 15.81 2.91 23.8h-21.92c-.12-5.62.31-11.92-3.17-16.7-3.52-3.6-9-3.59-13.69-4.14-9.5-.18-19.39-.79-28.49 2.49-3.28 1-5 4.32-5.64 7.48-1.87 8.48-1.88 17.23-1.87 25.88.11 11.56-.07 23.29 2.4 34.66.65 4.16 4.48 6.72 8.32 7.64 8.88 2.21 18.15 1.89 27.22 1.35 4.73-.62 10.49-.93 13.46-5.27 3.17-5.18 2.64-11.55 2.47-17.37h22.13c-.09 9.19-.25 18.68-3.59 27.38a17.36 17.36 0 0 1-9.87 10.15c-9 3.62-18.93 3.85-28.51 4.43-11.11.19-22.36-.08-33.22-2.67-6.37-1.66-13.33-4.58-16.28-10.91-3.77-8.37-4.46-17.68-5.43-26.69-.81-11.9-1.33-23.82-1-35.74.57-9.65 1.45-19.82 6.66-28.23 2.73-4.69 7.59-7.62 12.63-9.34Z"/><path id="V" class="cls-4" d="M489.9 587.35c7.62 0 15.24-.21 22.85.11 7.41 23.51 15.55 46.78 23 70.26 2.91 9 5 18.3 8 27.29 3.37-9.7 5.53-19.78 8.83-29.5 7.31-22.71 14.82-45.35 22.12-68.06 7.52-.32 15.06 0 22.59-.14v2.49c-12.38 37.73-24.47 75.56-36.6 113.38-11.32.23-22.66.26-34 0C514.66 664.49 502 626 489.9 587.35Z"/></g><path class="cls-4" d="M103.89 619.37c-1.25-8.13-2.65-17-8.34-23.3-5.43-5.27-13.1-7.14-20.33-8.42a153.32 153.32 0 0 0-35.44-.65c-9 .94-18.54 2.26-26 7.71-5.33 4.21-7.09 11.15-8.54 17.46-2.68 13.52-2.94 27.4-2.89 41.14.44 10.4.85 21 4.08 31 1.61 4.79 4 9.73 8.39 12.53 6.82 4.57 15.18 6 23.19 6.8a159.58 159.58 0 0 0 35.51-.64c8-1.26 16.68-3 22.57-8.94 5.4-6.7 6.59-15.6 7.8-23.84a224.1 224.1 0 0 0 0-50.85ZM80.14 678c-2.61 5.61-9.72 6.07-15.08 6.89-10.75.61-21.91 1.15-32.34-2-4.81-1.27-6.33-6.43-7.07-10.76-2-12.83-1.35-25.88-1.1-38.81.53-7.25.44-14.77 3-21.66 3-4.62 9.17-5 14.13-5.78 10-.8 20.19-1 30.07.9 3.83.77 8.35 2.63 9.07 7 3 12.27 2.3 25 2.42 37.59-.32 8.88-.11 18.1-3.1 26.63ZM191.78 631.94c-4.13-7.1-12.69-9.72-20.4-10.38-8.26-.75-17.15 0-24.31 4.54-3.28 2-5.51 5.24-7.91 8.17.11-4 .33-8 .55-11.94h-19.4v116h20v-46.72c2.71 4.12 6 8.14 10.71 10 8.75 3.62 18.73 3.38 27.81 1.15 5.93-1.49 11.47-5.27 13.88-11 4.22-9.5 4.41-20.17 4.63-30.39-.34-9.99-.63-20.52-5.56-29.43Zm-14.88 41.41c-.62 5.36-1.48 12.3-7.38 14.38a32.27 32.27 0 0 1-21.34-.24c-6.27-2.64-7-10.23-7.62-16.12-.37-9-.82-18.34 1.73-27.12 1.35-5 6.53-7.34 11.29-7.71 5.6-.43 11.52-.55 16.76 1.76 3.32 1.43 5.07 4.94 5.66 8.34 1.74 8.77 1.52 17.83.9 26.71ZM261.06 687.16c-5.17 2.61-11.21 2.15-16.82 2.11-4.54-.25-9.91-1.12-12.44-5.37-3-5.38-2.2-11.71-2.84-17.58h54.71c-.78-11.38.13-23.58-5.45-34-5-8.59-15.85-10.09-24.83-10.84-10.79-.51-22.3-.33-32.13 4.72-8 4.31-10.22 14.06-11.24 22.35a123.07 123.07 0 0 0 .59 31.62c1.16 7 3.26 15 9.85 18.92 8.14 4.48 17.74 4.94 26.83 5.21 10.3-.2 21.82-1 29.87-8.17 5.36-4.7 6.22-12.18 6.46-18.86h-19.2c-.42 3.45-.42 7.57-3.36 9.89ZM233 639c5.46-3.32 12.22-2.65 18.35-2.56 3.8.41 8.43.63 10.9 4 2.52 4.15 2.07 9.23 2.09 13.89-11.77 0-23.53.05-35.29 0 .13-5.22-.28-11.54 3.95-15.33Z"/></g></g></svg>