<svg version="1.1" id="design" xmlns="http://www.w3.org/2000/svg" x="0" y="0" viewBox="0 0 410.7 51.5" style="enable-background:new 0 0 410.7 51.5" xml:space="preserve"><style>.st7{fill:#ed1c24}</style><path class="st7" d="M170.9 33.5h26.2l-13.8-22.3-25.4 40.3h-11.6l30.9-48.3c1.3-2 3.6-3.1 6-3.1s4.7 1.1 6 3.1l31 48.4h-11.6l-5.4-9h-26.5l-5.8-9.1zm120 9V.5h-9.8v46.1c0 1.3.5 2.5 1.4 3.4 1 1 2.2 1.5 3.6 1.5h44.7l5.8-9h-45.7zM128.7 35c9.5 0 17.2-7.7 17.2-17.2S138.2.6 128.7.6H85.8v51h9.8v-42H128c4.6 0 8.2 3.7 8.2 8.3 0 4.6-3.7 8.3-8.2 8.3h-27.6l29.3 25.5h14.2L124.3 35h4.4zM25.5 51.5C11.4 51.5 0 40.1 0 26S11.4.5 25.5.5h29.6C69.2.5 80.6 11.9 80.6 26S69.2 51.5 55.1 51.5H25.5zm29-9C63.6 42.5 71 35.1 71 26S63.6 9.5 54.5 9.5H26.2C17 9.5 9.6 16.9 9.6 26S17 42.5 26.1 42.5h28.4zm186.2 9c-14.1 0-25.5-11.4-25.5-25.5S226.6.5 240.7.5h35.2l-5.8 9h-28.8c-9.1 0-16.5 7.4-16.5 16.5s7.4 16.5 16.5 16.5h35.3l-5.8 9h-30.1zm119.9-9c-7.5 0-13.9-5.1-15.9-12h41.9l5.8-9h-47.7c2-6.9 8.3-12 15.9-12h28.8l5.8-9H360c-14.1 0-25.5 11.4-25.5 25.5s11.4 25.5 25.5 25.5h30.3l5.8-9h-35.5zM400.4 5.9c0-2.5 2-4.5 4.5-4.5s4.5 2 4.5 4.5-2 4.5-4.5 4.5-4.5-2-4.5-4.5zm4.5 5.8c3.2 0 5.7-2.6 5.7-5.7 0-3.2-2.6-5.7-5.7-5.7-3.2 0-5.7 2.6-5.7 5.7s2.5 5.7 5.7 5.7zm-.6-9.2c.9 0 1.2 0 1.7.2 1.1.4 1.2 1.4 1.2 1.8 0 .1 0 .3-.1.5s-.2.7-.8 1.1c-.1 0-.1.1-.3.1l1.5 2.7h-1.4l-1.3-2.5h-.8V9h-1.3V2.5h1.6zm.5 3c.4 0 .8 0 1.1-.4.1-.2.1-.3.1-.6s-.2-.6-.5-.8c-.3-.1-.6-.1-1.2-.1h-.3v1.8h.8v.1z"/></svg>