<svg xmlns="http://www.w3.org/2000/svg" viewBox="0 0 209.06 299.14"><g data-name="Layer 2"><g data-name="Layer 1"><g data-name="Packer VerticalLogo FullColor"><path d="M7.62 232.88v-5.53h-5v5.5H0v-13.22h2.61v5.56h5v-5.56h2.61v13.25Zm12 0h-2l-.18-.7a5.61 5.61 0 0 1-3 .83c-1.83 0-2.61-1.2-2.61-2.84s.89-2.61 2.9-2.61h2.4v-1c0-1.07-.31-1.43-1.9-1.43a14.48 14.48 0 0 0-2.77.29l-.31-1.83a13.49 13.49 0 0 1 3.5-.47c3.13 0 4 1.07 4 3.44Zm-2.62-3.6h-1.69c-.81 0-1 .21-1 .94s.23 1 1 1a4 4 0 0 0 1.88-.5Zm7.83 3.81a12.18 12.18 0 0 1-3.44-.55l.34-1.83a11.58 11.58 0 0 0 3 .42c1.1 0 1.28-.23 1.28-1s0-.89-1.75-1.25c-2.43-.57-2.61-1.15-2.61-3s.89-2.77 3.73-2.77a13.62 13.62 0 0 1 3 .34l-.23 1.9a18.26 18.26 0 0 0-2.61-.29c-1.1 0-1.28.23-1.28.83s0 .83 1.41 1.15c2.79.7 3.05 1.07 3.05 3s-.83 2.95-3.83 2.95Zm11.43-.21v-6.68c0-.52-.23-.76-.81-.76a7.07 7.07 0 0 0-2.61.81v6.63h-2.58v-13.44l2.61.37V224a9.08 9.08 0 0 1 3.65-.91c1.64 0 2.24 1.12 2.24 2.82v6.94ZM40.88 222v-2.35h2.61V222Zm0 10.9v-9.6h2.61v9.55Zm4.49-9.47c0-2.4 1.46-3.78 4.85-3.78a16 16 0 0 1 3.7.44l-.29 2.14a20.87 20.87 0 0 0-3.37-.47c-1.77 0-2.35.6-2.35 2v5c0 1.38.57 2 2.35 2a20.87 20.87 0 0 0 3.34-.34l.29 2.14a16 16 0 0 1-3.7.44c-3.39 0-4.85-1.38-4.85-3.78Zm14.06 9.68c-3.42 0-4.33-1.8-4.33-3.76V227c0-2 .91-3.76 4.33-3.76s4.33 1.8 4.33 3.76v2.43c0 1.88-.94 3.68-4.36 3.68Zm0-7.83c-1.33 0-1.85.57-1.85 1.64v2.61c0 1.07.52 1.64 1.85 1.64s1.85-.57 1.85-1.64v-2.63c0-1.17-.55-1.75-1.88-1.75Zm11.35.16a19.77 19.77 0 0 0-2.61 1.38V233h-2.61v-9.7h2.27v1a11.35 11.35 0 0 1 2.61-1.25Zm10 4.15a2.95 2.95 0 0 1-3.29 3.37 14.3 14.3 0 0 1-2.61-.29v3.91l-2.61.37V223.3h2l.23.81a5.37 5.37 0 0 1 3.16-1c2 0 3.08 1.15 3.08 3.31Zm-5.95 1.07a11.5 11.5 0 0 0 2.22.26c.89 0 1.25-.42 1.25-1.28v-3.23c0-.78-.31-1.23-1.23-1.23a3.6 3.6 0 0 0-2.22.86Z"/><path data-name="Shape" d="M0 243.55h21.34c12.65 0 17.32 5.22 17.32 14.79v7.46c0 9.52-5.22 14.69-17.82 14.69H10.43v17.74H0Zm20.87 9.1H10.43v18.65h10.44c5.84 0 7.57-2.14 7.57-6.65v-5.5c-.11-4.52-1.99-6.5-7.57-6.5ZM73.67 298.23h-8.22l-.73-2.61a21.86 21.86 0 0 1-11.9 3.52c-7.3 0-10.43-5-10.43-11.9 0-8.14 3.52-11.24 11.66-11.24h9.6v-4.2c0-4.43-1.23-6-7.64-6a55.88 55.88 0 0 0-11.09 1.2l-1.23-7.64a52.17 52.17 0 0 1 13.7-2c12.57 0 16.25 4.43 16.25 14.45Zm-10-15.1h-7.43c-3.29 0-4.2.91-4.2 3.94s.91 4 4 4a15.65 15.65 0 0 0 7.59-2.07ZM79.64 283.7v-10.93c0-10.75 4.67-15.37 17.24-15.37a34.46 34.46 0 0 1 9.78 1.49l-1.23 8.22a36.52 36.52 0 0 0-8.3-1.07c-5.74 0-7.46 1.72-7.46 6.65v11.09c0 4.93 1.72 6.65 7.46 6.65a33.91 33.91 0 0 0 8.3-1.07l1.23 8.22a33 33 0 0 1-9.78 1.49c-12.54-.01-17.24-4.63-17.24-15.37ZM113 298.23V241.9l10-1.41v57.73Zm34-40-11.74 19.8 12.23 20.19h-11l-12.08-20.19 11.43-19.8ZM167.84 290.84a41.9 41.9 0 0 0 12.24-1.84l1.57 7.57a42.94 42.94 0 0 1-14.71 2.61c-12.57 0-16.9-5.84-16.9-15.44V273.1c0-8.45 3.78-15.65 16.59-15.65s15.65 7.46 15.65 16.1v8.53H160v2.06c0 4.86 1.74 6.7 7.84 6.7ZM160 274h12.73v-2c0-3.78-1.15-6.42-6.08-6.42S160 268.23 160 272ZM209.06 266.61a78.42 78.42 0 0 0-10.59 5.84v25.77h-10v-40h8.45l.65 4.43a44.82 44.82 0 0 1 10.43-5.17Z"/><path data-name="Shape" style="fill:#1daeff" d="m42.81 24.68 65.45 37.82v139.44l-65.45-37.8V24.68z"/><path data-name="Shape" d="M140.66 41 69.52 0v28.46l48.37 27.94v85.38l22.77 13c14.09 8.14 25.62 3.26 25.62-10.83V81.39c0-14.09-11.53-32.27-25.62-40.39Z" style="fill:#1d94dd"/></g></g></g></svg>