<svg version="1.1" id="design" xmlns="http://www.w3.org/2000/svg" x="0" y="0" viewBox="0 0 107.6 51.5" style="enable-background:new 0 0 107.6 51.5" xml:space="preserve"><style>.st105{fill-rule:evenodd;clip-rule:evenodd;fill:#6082bb}</style><path class="st105" d="M21.5 17.3c3.4 0 5.6.6 6.7 1.9 1.1 1.2 1.4 3.4.8 6.4-.6 3.1-1.8 5.4-3.5 6.7-1.7 1.3-4.4 2-8 2h-5.4l3.3-17h6.1zM0 51.5h8.8l2.1-10.8h7.6c3.3 0 6.1-.4 8.2-1.1 2.2-.7 4.1-1.9 5.9-3.5 1.5-1.4 2.7-2.9 3.6-4.5.9-1.6 1.6-3.5 2-5.4.9-4.8.2-8.6-2.1-11.2-2.3-2.7-6.1-4-11.2-4h-17L0 51.5zM44.7.1h8.8l-2.1 10.8h7.8c4.9 0 8.3.9 10.2 2.6 1.9 1.7 2.4 4.5 1.7 8.3l-3.7 18.9h-8.9L62 22.8c.4-2 .3-3.4-.4-4.2-.7-.7-2.2-1.1-4.4-1.1h-7l-4.5 23.2h-8.8L44.7.1zM90.5 17.3c3.4 0 5.6.6 6.7 1.9 1.1 1.2 1.4 3.4.8 6.4-.6 3.1-1.8 5.4-3.5 6.7-1.7 1.3-4.4 2-8 2h-5.4l3.3-17h6.1zM69 51.5h8.8l2.1-10.8h7.6c3.3 0 6.1-.4 8.2-1.1 2.2-.7 4.1-1.9 5.9-3.5 1.5-1.4 2.7-2.9 3.6-4.5.9-1.6 1.6-3.5 2-5.4.9-4.8.2-8.6-2.1-11.2-2.3-2.7-6.1-4-11.2-4h-17L69 51.5z"/></svg>