<svg xmlns="http://www.w3.org/2000/svg" xml:space="preserve" id="Layer_1" x="0" y="0" style="enable-background:new 0 0 250 70.1" version="1.1" viewBox="0 0 250 70.1"><style>.st0{fill:#ff6c37}.st1{fill:#fff}</style><switch><g><path d="M62.8 13.6C54.1 2.4 39.6-2.5 25.9 1.2S2.1 16.5.3 30.6s5 27.8 17.3 34.9 27.6 6 38.9-2.7C71.8 51 74.6 28.9 62.8 13.6z" class="st0"/><path d="M46.9 22.3 32.1 37.2l-4.2-4.3c14.6-14.5 16-13.2 19-10.6z" class="st1"/><path d="M32.1 37.6c-.1 0-.3-.1-.3-.1l-4.2-4.2c-.2-.2-.2-.5 0-.7C41.9 18.2 43.8 18.9 47.2 22c.1.1.2.2.2.4 0 .1 0 .3-.1.4L32.5 37.5c-.1.1-.3.1-.4.1zM28.6 33l3.4 3.4 14-14c-1-1.3-2.8-1.6-4.1-.7-2.5 1.2-6.6 4.6-13.3 11.3z" class="st0"/><path d="m36.3 41.4-4-4.1 14.8-14.6c4 3.8-1.9 10.3-10.8 18.7z" class="st1"/><path d="M36.3 41.9c-.1 0-.3-.1-.3-.1l-4.1-4c-.1-.1-.1-.3 0-.5v-.4l14.8-14.8c.2-.2.5-.2.8 0 1 .9 1.5 2.2 1.5 3.5 0 3.9-4.5 8.9-12.2 16.2-.2 0-.3.1-.5.1zm-3.2-4.7 3.3 3.3c5.9-5.5 11.4-11.2 11.5-15.1 0-.8-.2-1.6-.8-2.2l-14 14z" class="st0"/><path d="m28 33 2.9 2.9.1.1s0 .1-.1.1l-6.1 1.3c-.3.1-.6-.1-.7-.5 0-.2 0-.4.2-.5l3.6-3.6c0 .2.1.2.1.2z" class="st1"/><path d="M24.6 38.1c-.4 0-.8-.2-1-.6-.2-.4-.1-1 .2-1.3l3.6-3.6c.3-.2.7-.2.9 0l2.9 2.9c.2.2.2.4.2.6s-.3.4-.5.5l-6 1.4-.3.1zm3.3-4.4L24.6 37l5.5-1.2-2.2-2.1z" class="st0"/><path d="M54.7 14.1c-2.1-2-5.4-2.1-7.7-.2-2.2 1.9-2.6 5.2-.9 7.6 1.7 2.4 5 3 7.5 1.5l-4-4 5.1-4.9z" class="st1"/><path d="M50.8 24.4c-2.5 0-4.7-1.5-5.6-3.8s-.4-4.9 1.3-6.7c2.4-2.4 6.3-2.4 8.8 0 .2.2.2.5.1.7l-.1.1-4.7 4.5 3.6 3.5c.1.1.2.3.1.4 0 .2-.1.3-.2.4-1.1.5-2.2.9-3.3.9zm0-11.3c-2.8 0-5.1 2.3-5.1 5.2 0 1.3.5 2.6 1.5 3.6 1.5 1.5 3.7 1.9 5.7 1.1l-3.4-3.4c-.1-.1-.2-.2-.2-.4s.1-.3.2-.4l4.6-4.6c-1.1-.7-2.2-1.1-3.3-1.1z" class="st0"/><path d="m54.8 14.2-5 5 4 4c.4-.2.8-.5 1.1-.8 2.2-2.4 2.2-5.9-.1-8.2z" class="st1"/><path d="M53.7 23.6c-.1 0-.3 0-.3-.1l-4-4c-.1-.1-.2-.2-.2-.4s.1-.3.2-.4l5-4.9c.1-.1.3-.2.4-.2.2 0 .3.1.4.2 2.4 2.4 2.5 6.3.1 8.7l-.1.1c-.3.4-.7.7-1.2.9 0 .1-.2.1-.3.1zm-3.2-4.5 3.3 3.3c.2-.2.4-.3.6-.5 1-1 1.5-2.3 1.5-3.7 0-1.2-.4-2.4-1.3-3.3l-4.1 4.2z" class="st0"/><path d="M47.5 23c-.8-.8-2.1-.8-2.9 0L31.3 36.2l2.2 2.2 14-12.3c.9-.8.9-2.2.1-3.1h-.1z" class="st1"/><path d="M33.4 38.9c-.1 0-.3-.1-.3-.1l-2.2-2.2c-.2-.2-.2-.5 0-.7l13.2-13.1c1-1.1 2.7-1.1 3.8 0 .5.5.8 1.3.8 2s-.4 1.4-.9 1.9L33.8 39c-.2-.1-.3-.1-.4-.1zm-1.5-2.7 1.5 1.5 13.7-12c.3-.3.5-.7.6-1.2 0-.5-.2-.9-.5-1.2-.6-.6-1.7-.6-2.3 0l-13 12.9z" class="st0"/><path d="M21.1 51.2c-.1.1-.1.2 0 .3l.6 2.5c0 .3-.1.6-.4.8-.3.2-.6.2-.8 0l-4-3.8L29 38.4h4.3l2.9 2.9c-4.6 4-9.6 7.3-15.1 9.9z" class="st1"/><path d="M20.8 55.5c-.3 0-.6-.1-.9-.4l-3.8-3.8c-.1-.1-.1-.2-.1-.4 0-.1.1-.3.2-.4L28.7 38c.1-.1.2-.1.3-.1h4.7l2.9 2.9c.1.1.2.3.1.4 0 .1-.1.3-.2.4l-.2.2c-4.6 3.8-9.6 7-15 9.6l.6 2.3c.1.4 0 .8-.2 1.1-.2.3-.6.5-1 .5l.1.2zm-3.5-4.6 3.4 3.5c.1.1.2.1.2 0v-.2l-.6-2.5c-.1-.4.1-.8.4-.9 5.2-2.5 10.1-5.7 14.6-9.4L33 38.9h-3.9l-11.8 12z" class="st0"/><path d="m13.5 53.9 2.9-2.9 4.5 4.5-7.2-.5c-.3 0-.6-.3-.5-.6 0-.2.1-.4.3-.5z" class="st1"/><path d="m21 55.9-7.1-.5c-.6-.1-1.1-.6-1-1.2 0-.3.1-.5.3-.7l2.9-2.9c.2-.2.5-.2.7 0l4.5 4.5c.1.2.1.4 0 .6-.1.1-.2.2-.3.2zm-7.2-1.6 5.9.4-3.2-3-2.7 2.6z" class="st0"/><path d="m33.7 38.7-5.9.9 3.4-3.4 2.5 2.5z" class="st1"/><path d="M27.8 40.2c-.2 0-.4-.1-.5-.3-.1-.2-.1-.4 0-.6l3.4-3.4c.2-.2.5-.2.8 0l2.5 2.5c.1.2.1.4 0 .5 0 .2-.2.3-.4.4l-5.9.9h.1zm3.4-3.3-1.9 1.9 3.3-.5-1.4-1.4z" class="st0"/><path d="m33.7 38.7-4.1.5c-.2.1-.5-.1-.6-.3-.1-.2-.1-.5.1-.6l2.1-2.1 2.5 2.5z" class="st1"/><path d="M29.4 39.8c-.4 0-.7-.2-.9-.6-.2-.4-.2-.9.2-1.3l2.1-2.1c.2-.2.5-.2.8 0l2.5 2.5c.2.1.2.4.1.6s-.2.3-.5.3l-4.1.5-.2.1zm0-1.1 3.1-.4-1.4-1.4-1.7 1.8zm25.5-21.1c-.1-.2-.4-.3-.6-.2-.1 0-.2.1-.2.2-.1.1 0 .2 0 .3.2.4.1.9-.1 1.3-.1.1-.1.2-.1.3 0 .1 0 .2.1.3h.2c.1 0 .3 0 .4-.1.5-.6.6-1.4.3-2.1zm140.4 12.1-3.5 7.4c-.3.6-.5 1.5-1.1 1.5-.8 0-.9-.8-1.3-1.6l-2.8-6.2c-.2-.3-.2-.9-.6-.8-.5.1-.4.7-.4 1.1v12.7c0 .6 0 1.3-.1 1.9-.1.6-.5 1-1.1 1-.6-.1-.8-.5-.9-1V26c0-.8-.2-2 .7-2.3 1-.3 1.7.5 2.1 1.5l3.2 7.1c.3.6.4 1.8 1.3 1.9.9 0 1-1.3 1.4-1.9l3.2-6.9c.4-.9.9-1.9 2.1-1.7 1.1.3.8 1.5.8 2.4v18.2c0 .9.3 2.4-1 2.4-1.5 0-1.1-1.5-1.1-2.5v-12c-.2-.9 0-1.7-.9-2.5zm44.9.5c-.6.6-.4 1.5-.4 2.2v12.4c0 .7.2 1.9-.8 1.9-1.1.1-1.1-1-1.1-1.9V25.6c0-.7-.1-1.7.7-1.9.9-.3 1.5.4 1.9 1.3l5.1 11.4c.3.8.7 1.6 1 2.4.2.4.2 1 .8.8.5-.2.4-.8.4-1.3V26.1c0-.5 0-.9.1-1.5.1-.7.5-1 1.1-1 .6.1.8.6.8 1.3v19.4c0 .8.3 2-.7 2.3-1.1.4-1.6-.7-2-1.7l-5.9-13c-.1-.7-.2-1.4-1-1.7zm-118.7 4.9c-.1 2.3.1 4.5-.2 6.8-.5 3.2-2.3 4.8-5.5 4.8-3.5 0-5.4-1.5-5.9-4.7-.5-4.7-.6-9.5 0-14.2.4-3 2.5-4.5 5.6-4.5s5.1 1.6 5.6 4.5c.6 2.5.3 4.9.4 7.3zm-2.1 0v-5.3c-.1-2.7-1.6-4.3-4-4.2-2.3 0-3.7 1.5-3.8 4.2v10.8c.1 2.7 1.5 4.2 3.8 4.3 2.4 0 3.9-1.5 4-4.3.1-1.8 0-3.6 0-5.5zm105.4 10.2c0 .7-.1 1.3-.7 1.4-.5.1-.9 0-1.1-.6-.1-.4-.3-.9-.4-1.4-.9-3.2-.9-3.2-3.8-3.2h-.9c-3.6 0-3.6 0-4.8 3.8-.2.7-.3 1.8-1.4 1.5-1-.4-.7-1.5-.5-2.3l5.1-18.9c.3-.9.4-2.3 1.8-2.2 1.1.1 1.4 1.3 1.6 2.2l4.8 18c.1.5.2 1.1.3 1.7zm-7-5.9h1c2.3 0 2.4-.1 1.7-2.7l-2-7.4c-.1-.5 0-1.3-.6-1.3s-.7.7-.8 1.4l-1.7 6.3c-1 3.7-.9 3.7 2.4 3.7zM84.6 35.1v-9.7c0-1.6.5-2.1 1.8-2.1H90c4.8.1 6.6 2.3 6.5 7.8-.1 3.8-2 6-5.3 6.2-.9 0-1.8.1-2.7 0-1.5-.1-2 .6-1.9 2.2.1 1.9 0 3.8 0 5.5 0 .7-.1 1.6-1 1.6s-.9-.8-.9-1.7l-.1-9.8zm4.9.3c3 0 4.2-.7 4.7-2.9s.5-4.3-1-6c-1.7-1.7-3.9-.9-5.9-.8-.7 0-.7.9-.7 1.7v4.7c0 3.3 0 3.3 2.9 3.3zm50.6 11.5c-2.2 0-4-.4-5.3-2.1-.4-.5-.9-1.3-.3-2 .5-.6 1.1-.2 1.6.3 1.3 1.4 2.6 1.8 4.3 1.7 1.6-.1 2.7-.8 3.3-2.6.6-1.6.3-3.5-.9-4.7-1.1-1.3-2.6-1.8-4.1-2.5-2.1-.9-3.7-2.3-3.9-5.1-.3-3.8 1.4-5.9 5-6.6 1.6-.3 3 .1 4.4.6.7.2 1.4.8 1 1.8-.3 1-1 .6-1.7.3-1.4-.7-2.8-.7-4.2-.5-1.1.2-2.2.9-2.4 2.4-.2 1.5 0 2.7 1 3.7 1.4 1.1 2.9 1.6 4.4 2.3 2.3 1.1 3.6 3.1 3.6 6.1 0 2.7-.6 4.8-2.9 6.2-1 .6-2.2.5-2.9.7zM163 36v-8.1c.1-2-.6-2.6-2.2-2.4-.6.1-1.4 0-2 0s-1-.3-1-1.1c0-.6.4-1 .9-1h10.7c.5 0 .9.3.9.9 0 .7-.4 1.1-1 1.1-.7 0-1.6.1-2.3 0-1.5-.1-1.9.6-1.9 2.2v17.2c0 .8-.1 1.8-1 1.8-1 0-1-.9-1-1.8L163 36z" class="st0"/></g></switch></svg>