<svg xmlns="http://www.w3.org/2000/svg" xml:space="preserve" style="enable-background:new 0 0 503.4 170" viewBox="0 0 503.4 170"><path d="M191.1 92.1v23.5h-7.3V53.4h17.1c6.6 0 11.8 1.6 15.4 4.9 3.6 3.2 5.5 7.8 5.5 13.7s-2 10.7-6.1 14.5c-4.1 3.8-9.5 5.6-16.4 5.6h-8.2zm0-32.1v25.5h7.6c5 0 8.9-1.1 11.5-3.4 2.6-2.3 4-5.5 4-9.7 0-8.2-4.8-12.3-14.6-12.3h-8.5zm57.9 56.6c-6.6 0-11.8-2.1-15.7-6.2s-5.9-9.6-5.9-16.5c0-7.5 2-13.3 6.1-17.5s9.5-6.3 16.5-6.3c6.6 0 11.8 2 15.5 6.1s5.6 9.7 5.6 16.9c0 7.1-2 12.7-6 17-4.1 4.3-9.5 6.4-16.1 6.5zm.5-40.5c-4.6 0-8.2 1.6-10.8 4.7s-4 7.4-4 12.8c0 5.3 1.3 9.4 4 12.4 2.6 3 6.3 4.6 10.8 4.6 4.6 0 8.1-1.5 10.6-4.5s3.7-7.2 3.7-12.7c0-5.5-1.2-9.8-3.7-12.8s-6.1-4.5-10.6-4.5zm87.6-4.9-13.3 44.4h-7.4l-9.1-31.8c-.3-1.2-.6-2.6-.7-4.1h-.2c-.2 1.4-.5 2.7-.9 4l-9.9 31.8h-7.1L275 71.1h7.5l9.2 33.4c.3 1 .5 2.3.6 4h.3c.1-1.4.4-2.7.8-4.1l10.2-33.3h6.5l9.2 33.4c.3 1.1.5 2.4.6 4h.3c.1-1.1.3-2.5.7-4l9-33.4h7l.2.1zm42.6 23.9h-31.4c.1 4.9 1.5 8.8 4 11.4 2.5 2.7 6 4 10.4 4 5 0 9.6-1.6 13.8-4.9v6.7c-3.9 2.8-9.1 4.2-15.5 4.2-6.3 0-11.2-2-14.8-6s-5.4-9.7-5.4-17c0-7 2-12.5 5.9-16.9 3.9-4.3 8.8-6.5 14.6-6.5s10.3 1.9 13.5 5.6c3.2 3.8 4.8 9 4.8 15.6V95l.1.1zm-7.3-6c0-4.1-1-7.3-3-9.6s-4.7-3.5-8.1-3.5c-3.2-.1-6.3 1.2-8.5 3.6-2.3 2.4-3.8 5.5-4.3 9.4l23.9.1zm40.7-10.7c-1.2-1-3-1.4-5.4-1.4-3 0-5.6 1.4-7.6 4.3S397 88.1 397 93v22.6h-7V71.2h7.1v9.1h.2c1-3.1 2.6-5.5 4.6-7.3 2.1-1.8 4.4-2.6 7-2.6 1.8 0 3.3.2 4.2.6v7.4zm33 37.1V53.4h17.7c5.4 0 9.6 1.3 12.8 3.9 3.1 2.6 4.7 6.1 4.7 10.3 0 3.5-1 6.6-2.9 9.2s-4.5 4.4-7.9 5.5v.2c4.2.5 7.5 2.1 10 4.7 2.5 2.7 3.8 6.1 3.8 10.4 0 5.3-1.9 9.6-5.7 12.9-3.8 3.3-8.6 4.9-14.4 4.9 0 .1-18.1.1-18.1.1zm7.3-55.5v20h7.5c4 0 7.1-1 9.4-2.9 2.3-1.9 3.5-4.6 3.5-8.1 0-6-4-9.1-11.9-9.1l-8.5.1zm0 26.6V109h9.9c4.3 0 7.6-1 9.9-3 2.4-2 3.5-4.8 3.5-8.3 0-7.3-5-11-15-11l-8.3-.1zm50 28.9h-7.3V53.4h7.3v62.1z" style="fill:#333"/><defs><filter id="a" width="127.4" height="173.4" x="0" y="0" filterUnits="userSpaceOnUse"><feColorMatrix values="1 0 0 0 0 0 1 0 0 0 0 0 1 0 0 0 0 0 1 0"/></filter></defs><mask id="b" width="127.4" height="173.4" x="0" y="0" maskUnits="userSpaceOnUse"><path d="M70.8 7.1C70.8 3.2 74 0 77.9 0h42.5c3.9 0 7.1 3.2 7.1 7.1v155.7c0 3.9-3.2 7.1-7.1 7.1H7.1c-3.9 0-7.1-3.2-7.1-7.1V92c0-3.9 3.2-7.1 7.1-7.1h28.3V49.5c0-3.9 3.2-7.1 7.1-7.1h28.3V7.1z" style="fill:#fff;filter:url(#a)"/></mask><g style="mask:url(#b)"><linearGradient id="c" x1="59.434" x2="134.092" y1="171.104" y2="12.855" gradientTransform="matrix(1 0 0 -1 0 172)" gradientUnits="userSpaceOnUse"><stop offset="0" style="stop-color:#e6ad10"/><stop offset="1" style="stop-color:#c87e0e"/></linearGradient><path d="M127.4 0v169.8H70.8V0h56.6z" style="fill:url(#c)"/><path d="M92 50.2v120.3H35.4V43.2h49.5c3.9 0 7.1 3.1 7.1 7z" style="opacity:.2"/><path d="M92 53.1v120.3H35.4V46h49.5c3.9 0 7.1 3.2 7.1 7.1z" style="opacity:.18"/><linearGradient id="d" x1="30.712" x2="93.498" y1="127.13" y2="5.363" gradientTransform="matrix(1 0 0 -1 0 172)" gradientUnits="userSpaceOnUse"><stop offset="0" style="stop-color:#f6d751"/><stop offset="1" style="stop-color:#e6ad10"/></linearGradient><path d="M92 49.5v120.3H35.4V42.5h49.5c3.9 0 7.1 3.1 7.1 7z" style="fill:url(#d)"/><linearGradient id="e" x1="7.811" x2="42.506" y1="90.374" y2="8.146" gradientTransform="matrix(1 0 0 -1 0 172)" gradientUnits="userSpaceOnUse"><stop offset="0" style="stop-color:#f9e589"/><stop offset="1" style="stop-color:#f6d751"/></linearGradient><path d="M0 84.9v84.9h56.6V92c0-3.9-3.2-7.1-7.1-7.1H0z" style="fill:url(#e)"/></g></svg>