<svg xmlns="http://www.w3.org/2000/svg" viewBox="0 0 51.61 44.3"><g data-name="Layer 2"><g data-name="Layer 1"><path d="M25.82 0a16.71 16.71 0 1 0 16.71 16.71A16.71 16.71 0 0 0 25.82 0Zm0 31.28c-2.63 0-4.76-1.75-4.76-3.92h9.5c0 2.16-2.13 3.92-4.76 3.92Zm7.85-5.22H18v-2.84h15.7Zm-.06-4.32H18l-.15-.18a11.45 11.45 0 0 1-2.35-4s2 .4 3.34.71c.58.13 1.17.25 1.76.35a6.52 6.52 0 0 1-1.6-4.18c0-3.35 2.57-6.28 1.64-8.64.9.07 1.87 1.9 1.93 4.77a10.22 10.22 0 0 0 1.36-5.23c0-1.54 1-3.32 2-3.38-.9 1.49.23 2.76 1.24 5.93.38 1.2.33 3.2.62 4.46.1-2.64.55-6.48 2.22-7.81-.74 1.67.1 3.76.69 4.77a9 9 0 0 1 1.5 5.18 6.46 6.46 0 0 1-1.55 4.17c1.1-.21 1.87-.39 1.87-.39l3.58-.7a10.16 10.16 0 0 1-2.52 4.2Z" style="fill:#da4e31"/><path d="M0 37.22a10.53 10.53 0 0 1 1.75-.14 2.89 2.89 0 0 1 2 .59 1.93 1.93 0 0 1 .62 1.48 2.07 2.07 0 0 1-.54 1.51 2.94 2.94 0 0 1-2.15.77 3.6 3.6 0 0 1-.73-.06v2.82H0Zm.9 3.4a3 3 0 0 0 .75.07c1.1 0 1.77-.54 1.77-1.5s-.67-1.39-1.66-1.39a3.83 3.83 0 0 0-.86.07Zm4.46.08v-1.58h.81v1A1.53 1.53 0 0 1 7.61 39h.25v.87a1.44 1.44 0 0 0-.31 0 1.28 1.28 0 0 0-1.23 1.17 2.8 2.8 0 0 0 0 .43v2.7h-.96V40.7Zm7.9.9a2.48 2.48 0 0 1-2.52 2.69 2.41 2.41 0 0 1-2.43-2.6A2.47 2.47 0 0 1 10.83 39a2.39 2.39 0 0 1 2.44 2.59Zm-4 .05c0 1.11.62 1.95 1.53 1.95s1.54-.83 1.54-2c0-.86-.43-1.94-1.52-1.94s-1.55 1-1.55 2Zm5.17-1.17v-1.37h.81v.83a1.75 1.75 0 0 1 1.6-.93 1.49 1.49 0 0 1 1.42 1 2 2 0 0 1 .58-.66A1.69 1.69 0 0 1 20 39c.68 0 1.67.44 1.67 2.2v3h-.9v-2.87c0-1-.37-1.56-1.1-1.56a1.21 1.21 0 0 0-1.1.83 1.58 1.58 0 0 0-.07.46v3.13h-.9v-3c0-.81-.36-1.38-1.06-1.38a1.27 1.27 0 0 0-1.14.92 1.23 1.23 0 0 0-.07.45v3h-.9V40.5Zm9.24 1.33a1.62 1.62 0 0 0 1.74 1.76 3.27 3.27 0 0 0 1.4-.26L27 44a4.12 4.12 0 0 1-1.69.32 2.36 2.36 0 0 1-2.49-2.56A2.45 2.45 0 0 1 25.16 39a2.13 2.13 0 0 1 2.09 2.37 2.32 2.32 0 0 1 0 .43Zm2.7-.66a1.31 1.31 0 0 0-1.28-1.49 1.51 1.51 0 0 0-1.41 1.49Zm3.13-3.25v1.21h1.32v.7H29.5v2.73c0 .62.18 1 .69 1a2 2 0 0 0 .53-.06v.7a2.7 2.7 0 0 1-.82.13 1.32 1.32 0 0 1-1-.39 2 2 0 0 1-.36-1.33v-2.77h-.78v-.7h.79v-.94Zm2.35-1.16h.92v3.17a1.73 1.73 0 0 1 .66-.66 1.89 1.89 0 0 1 .97-.25c.68 0 1.77.42 1.77 2.15v3h-.92v-2.9c0-.82-.3-1.5-1.17-1.5a1.34 1.34 0 0 0-1.23.9 1.19 1.19 0 0 0-.06.44v3h-.92v-7.34Zm6.32 5.06a1.62 1.62 0 0 0 1.74 1.76 3.27 3.27 0 0 0 1.4-.26l.17.66a4.12 4.12 0 0 1-1.69.32 2.36 2.36 0 0 1-2.48-2.56A2.45 2.45 0 0 1 39.67 39a2.13 2.13 0 0 1 2.09 2.37 2.23 2.23 0 0 1 0 .43Zm2.7-.66a1.31 1.31 0 0 0-1.28-1.49 1.51 1.51 0 0 0-1.41 1.49Zm6.26 1.64v1.39h-.82l-.05-.83a1.89 1.89 0 0 1-1.67.94c-.8 0-1.75-.45-1.75-2.22v-3h.92v2.79c0 1 .3 1.62 1.13 1.62a1.33 1.33 0 0 0 1.21-.85 1.26 1.26 0 0 0 .08-.47v-3.1h.92Zm1.4.46a2.6 2.6 0 0 0 1.22.36c.66 0 1-.32 1-.75s-.26-.67-.93-.92c-.92-.33-1.36-.83-1.36-1.43a1.57 1.57 0 0 1 1.73-1.5 2.34 2.34 0 0 1 1.23.31l-.22.69a2 2 0 0 0-1-.3c-.54 0-.84.31-.84.69s.29.61 1 .87c.87.32 1.33.76 1.33 1.52s-.7 1.53-1.88 1.53a2.87 2.87 0 0 1-1.42-.36Z" style="fill:#e6522c"/></g></g></svg>