<svg xmlns="http://www.w3.org/2000/svg" xml:space="preserve" id="Layer_1" x="0" y="0" style="enable-background:new 0 0 250 50.3" version="1.1" viewBox="0 0 250 50.3"><style>.st1{fill:#b52e31}.st2{fill:#1d1e1c}</style><switch><g><path d="M24.3 50.2c-10.6.2-21-8.1-23.5-19C-2.6 17.8 5.5 4.2 18.9.8c13.4-3.4 27 4.7 30.4 18.1.4 1.6.7 3.3.7 5 0 .3 0 .6-.1.9-.4-.1-.7-.5-1-.8-2.3-2.2-4.5-4.5-6.8-6.7-.3-.3-.6-.9-1.3-.7l-.2-.3-.3-.3c-.7-.5-1-1.4-1.8-1.8 0-.4-.3-.7-.7-.8-3.4-3.4-7.6-4.9-12.3-5.2l-.1 1-1-.8c-.8-.5-1.7-.1-2.5 0-3.8.6-7.4 2.3-10.2 5.1l2.7 2.3c-.2.5-.6.9-1 1.1L11.3 14c-2.9 2.9-5.1 7.6-5.1 11.4 0 .4-.1.8.3 1.1l.5.9c-.4.1-1 .1-.9.8.1 1.2-.1 2.3.1 3.5.1.5.5.8.9 1.1 4.2 4.2 8.4 8.4 12.6 12.7 1.6 1.6 3.1 3.1 4.6 4.7z" style="fill:#e13439"/><path d="M24.3 50.2c-1.5-1.6-3-3.1-4.6-4.7-4.2-4.2-8.4-8.4-12.6-12.7-.3-.3-.8-.6-.9-1.1.2 0 .4.1.7.1h36c.3 0 .7 0 1.1-.1v-4.1h-2.7c-.4 0-.8 0-.8-.6s.5-.5.9-.5H44c0-3.7-1.2-6.9-3-10 .7-.2.9.4 1.3.7 2.3 2.2 4.5 4.5 6.8 6.7.3.3.6.7 1 .8.3 2.6 0 5.2-.9 7.7-3.4 10.1-10.5 16-21 17.6-1.4.4-2.7.4-3.9.2z" class="st1"/><path d="M62 28.7v10.7h-4.8V10.8c.3-.3.7-.2 1-.2 3.7.1 7.3-.3 11 .3 4.3.7 6.7 3.2 7.1 7.5.4 4.5-1.6 7.8-5.5 9.4-1.8.6-3.6 1-5.5 1-1.1-.1-2.1-.1-3.3-.1zm0-4c2.3 0 4.4.1 6.5-.7 2.1-.8 3-2.6 2.8-4.9 0-2-1.5-3.8-3.5-4.2-1.9-.5-3.9-.3-5.9-.3v10.1zM170.8 39.4h-3.4l-1-3.1c-2.6 3.4-6 4-9.8 3.1-2.4-.5-4.1-2.5-4.3-5-.3-2.8.3-5.3 3-6.8s5.9-1.5 8.9-1.6h1.6c.8-3.4-.7-5.3-4-5.3-2.1 0-3.9.8-5.9 1.6l-1.6-3.4c4-1.8 8.1-2.6 12.3-1.2 2.4.8 3.6 2.7 3.9 5.2.1.8.1 1.6.1 2.3.2 4.9.2 9.5.2 14.2zM165.9 29l-2.4.1c-1.4 0-2.9.2-4.2.7-1.6.6-2.5 2.3-2.1 4 .3 1.6 1.3 2.3 3.3 2.3.7 0 1.5-.1 2.2-.3 2.6-.8 3.7-3 3.2-6.8zM116.4 28.6c.1 3.1-.5 6-2.8 8.3-3.1 3.2-7 3.5-11 2.4-4-1.2-6-4.4-6.6-8.4-.4-2.2-.2-4.5.4-6.7 1.6-5.5 6.2-7.6 11.7-6.8 4.8.7 8 4.3 8.3 9.3.1.6 0 1.2 0 1.9zm-4.7-.4c0-1.6-.3-3.2-1-4.6-1.1-2.1-2.9-2.6-5-2.5-2 .1-3.5 1-4.2 2.9-1.1 2.8-1.1 5.9-.1 8.7 1 2.7 4.1 4 6.8 3 1.5-.6 2.6-1.7 3.1-3.2.3-1.4.4-2.8.4-4.3zM231.4 28.6c.1 3.1-.5 6-2.7 8.3-3.1 3.2-7 3.6-11.1 2.4-4.1-1.2-6-4.4-6.6-8.4-.4-2.2-.2-4.5.4-6.7 1.6-5.5 6.2-7.6 11.7-6.8 4.8.7 7.9 4.3 8.4 9.3-.1.5-.1 1.2-.1 1.9zm-15.8.3c0 1.5.3 2.9.9 4.3.9 2 2.6 2.8 4.7 2.8s3.7-.7 4.6-2.7c1.4-3.1 1.4-6.7-.1-9.8-1-2.1-2.9-2.6-5-2.5-1.8 0-3.5 1.1-4.2 2.8-.7 1.7-1 3.4-.9 5.1zM207.8 35.5V39c-2.1.8-4.3 1-6.4.6-2.6-.5-4.3-2.3-4.5-5-.3-3.7-.1-7.5-.1-11.2v-2.2H194c-.5-1.4-.2-2.5 1.3-2.9 1.6-.5 2.2-1.7 2.5-3.1.2-.8.5-1.6.8-2.3h2.9v4.7h6.2v3.6h-6.1V33c0 2 1.1 3.1 3.2 3.1.9-.1 1.9-.3 3-.6zM191.2 34.3v3.5c0 .4-.3.8-.7 1-4.9 2.9-11.2 1.2-14.1-3.7-.8-1.5-1.3-3.1-1.4-4.8-.2-2.2 0-4.4.6-6.5 1.1-3.6 3.5-5.8 7.3-6.4 3-.5 6-.2 8.8 1l-1.3 3.7c-1.2-.3-2.4-.7-3.6-.9-3.5-.7-6.1 1-6.7 4.6-.3 1.5-.3 3-.1 4.5.7 4.5 3.2 6.2 7.6 5.3 1.2-.2 2.4-.6 3.6-1.3zM126.9 12.8v4.8h6.1v3.5h-6.2c0 4.1-.1 8.1 0 12.1 0 1.8 1.2 2.7 3 2.8 1.1 0 2.3-.2 3.4-.5v3c0 .5-.3.7-.7.8-2 .6-4 .7-6 .3-2.9-.7-4.3-2.8-4.4-6.3s0-7.1 0-10.8v-1.3h-2.8c-.3-1.4-.2-2.5 1.3-2.9 1.5-.4 2.1-1.6 2.5-3 .2-.8.5-1.6.8-2.4l3-.1zM241.4 39.4h-4.6V17.6h3c.6 0 .7.4.7.8.1.9.3 1.9.5 3.1.9-1.6 2.2-2.9 3.8-3.7 1.6-.8 3.4-.8 5.1-.5 0 1.4-.1 2.9-.3 4.3-.9.2-1.9-.2-2.8 0-2.8.2-5 2.3-5.3 5.1-.4 2.6-.1 5.3-.2 8 0 1.5.1 3.1.1 4.7zM85.3 39.4h-4.6V17.7h3.5c.5 1.1.3 2.4.8 3.7 2.1-3.3 5-4.8 8.9-4 .1 1.5-.2 2.8-.3 4.3-.8-.1-1.5-.1-2.3-.1-3.6.2-6 2.6-6 6.4-.1 3.7 0 7.5 0 11.4zM142.3 39.4h-4.6V17.7c1.1-.2 2.3 0 3.5-.1l.7 3.9c2.2-3.4 5-4.9 9.1-4.1l-.4 4.2c-1 0-1.9-.1-2.7 0-3.1.1-5.5 2.7-5.5 5.7-.1 3.6-.1 7.1-.1 10.8v1.3z" class="st2"/><path d="M41 16.5c1.8 3 3 6.2 3 10h-2.6c-.4 0-.8-.1-.9.5 0 .6.4.6.8.6h2.6v4.2c-.4 0-.8.1-1.1.1h-36c-.2 0-.4 0-.7-.1-.3-1.1 0-2.3-.1-3.5 0-.7.6-.7 1-.8.7 0 1.3.1 1.9.1.9 0 .8-.5.5-1.1l-3 .1c-.4-.3-.3-.7-.3-1.1.1-3.8 2.2-8.6 5.1-11.4l2.3 2.7c.5-.2.8-.6 1-1.1l-2.7-2.3c2.8-2.7 6.3-4.5 10.2-5.1.8-.1 1.7-.6 2.5 0-.1 1.1-.1 2.2.1 3.3.6.1 1 .1 1-.6V9.1l.1-1c4.8.3 9 1.8 12.3 5.2-.7.7-1.3 1.4-2 2-.7.6-.4.9.2 1.2l2.5-2.4c.8.4 1.1 1.3 1.8 1.8l.3.3c-.1.2 0 .3.2.3zM12.8 26.9h24.4c.3-6.4-5.4-12.1-12.1-12.2s-12.5 5.7-12.3 12.2z" style="fill:#fdfdfd"/><path d="m38.7 14.1-2.5 2.4c-.6-.3-.8-.6-.2-1.2l2-2c.4.1.7.4.7.8zM6.5 26.6l3-.1c.3.7.4 1.2-.5 1.1-.7 0-1.3-.1-1.9-.1l-.6-.9zM25.6 9.1V11c0 .6-.4.7-1 .6-.1-1.1-.1-2.2-.1-3.3l1.1.8zM40.8 16.2l-.3-.3.3.3zM41 16.5c-.2 0-.2-.2-.2-.3l.2.3zM12.8 26.9c-.2-6.5 5.6-12.3 12.3-12.2s12.5 5.8 12.2 12.2H12.8z" class="st1"/></g></switch></svg>