<svg xmlns="http://www.w3.org/2000/svg" width="1000" height="433.23"><defs><clipPath id="a" clipPathUnits="userSpaceOnUse"><path d="M0 792h612V0H0v792Z"/></clipPath></defs><path d="M314.547 551.092h1000v-433.23h-1000v433.23z" style="fill:#ffa61a;fill-opacity:1;fill-rule:nonzero;stroke:none" transform="translate(-314.547 -117.862)"/><g clip-path="url(#a)" transform="matrix(10.86956 0 0 -10.86956 -355.653 8510.092)"><path d="M0 0h-3.068v13.807H0v-.883c.384.541 1.374 1.06 2.457 1.06 2.934 0 4.568-2.437 4.568-5.281 0-2.843-1.617-5.258-4.55-5.258-1.084 0-2.091.519-2.475 1.061V0Zm0 7.056c.384-.7 1.012-1.174 1.825-1.174 1.512 0 2.379 1.219 2.379 2.821 0 1.625-.849 2.844-2.361 2.844-.835 0-1.459-.497-1.843-1.174V7.056Z" style="fill:#fff;fill-opacity:1;fill-rule:nonzero;stroke:none" transform="translate(60.694 749.193)"/><path d="M0 0h-3.068v.761C-3.452.129-4.545-.39-5.719-.39c-2.257 0-3.486 1.489-3.486 3.723v6.639h2.685V3.898c0-1.061.53-1.783 1.636-1.783.857 0 1.816.519 1.816 1.399v6.458H0V0Z" style="fill:#fff;fill-opacity:1;fill-rule:nonzero;stroke:none" transform="translate(77.953 753.028)"/><path d="M0 0h-2.685v13.807H0v-.883c.384.541 1.411 1.06 2.494 1.06 2.934 0 4.587-2.437 4.587-5.281 0-2.843-1.645-5.258-4.579-5.258-1.083 0-2.118.519-2.502 1.061V0Zm0 7.056c.384-.7 1.05-1.174 1.862-1.174 1.512 0 2.398 1.219 2.398 2.821 0 1.625-.877 2.844-2.389 2.844-.835 0-1.487-.497-1.871-1.174V7.056Z" style="fill:#fff;fill-opacity:1;fill-rule:nonzero;stroke:none" transform="translate(82.555 749.193)"/><path d="M0 0h-2.685v13.807H0v-.883c.384.541 1.424 1.06 2.507 1.06 2.934 0 4.594-2.437 4.594-5.281 0-2.843-1.655-5.258-4.589-5.258-1.083 0-2.128.519-2.512 1.061V0Zm0 7.056c.384-.7 1.063-1.174 1.875-1.174 1.512 0 2.405 1.219 2.405 2.821 0 1.625-.887 2.844-2.399 2.844-.835 0-1.497-.497-1.881-1.174V7.056Z" style="fill:#fff;fill-opacity:1;fill-rule:nonzero;stroke:none" transform="translate(93.678 749.193)"/><path d="M0 0c-.361-1.918-1.941-3.49-4.469-3.49-2.933 0-4.896 2.16-4.896 5.274 0 3.047 2.059 5.289 4.88 5.289 2.957 0 4.61-2.046 4.61-5.002v-.92h-6.782c.09-1.534.948-2.415 2.188-2.415.949 0 1.648.497 1.874 1.264H0Zm-6.59 3.068h3.904c-.022.767-.654 1.896-1.805 1.896-1.083 0-1.851-.745-2.099-1.896" style="fill:#fff;fill-opacity:1;fill-rule:nonzero;stroke:none" transform="translate(110.811 756.096)"/><path d="M0 0h-1.534v2.301H0v2.685h2.685V2.301h2.301V0H2.685v-4.427c0-.79.394-1.151 1.116-1.151.429 0 .801.135 1.185.338v-2.482c-.384-.203-.981-.316-1.726-.316C1.207-8.038 0-7.023 0-4.788V0Z" style="fill:#fff;fill-opacity:1;fill-rule:nonzero;stroke:none" transform="translate(112.854 760.699)"/><path d="M53.407 769.136h-6.136V763h6.136v6.136zM43.819 757.631h-1.918v1.918h1.918v-1.918zm2.301 4.218H39.6v-6.52h6.52v6.52z" style="fill:#fff;fill-opacity:1;fill-rule:nonzero;stroke:none"/><path d="m0 0-3.874 3.874 1.496 1.496 3.874-3.874L0 0Z" style="fill:#fff;fill-opacity:1;fill-rule:nonzero;stroke:none" transform="translate(47.404 767.578)"/><path d="m0 0-1.496 1.496L1.57 4.562l1.496-1.496L0 0Z" style="fill:#fff;fill-opacity:1;fill-rule:nonzero;stroke:none" transform="translate(46.058 760.359)"/><path d="M43.819 772.588h-1.918v1.918h1.918v-1.918zm2.301 4.219H39.6v-6.52h6.52v6.52z" style="fill:#fff;fill-opacity:1;fill-rule:nonzero;stroke:none"/></g></svg>