<svg xmlns="http://www.w3.org/2000/svg" xml:space="preserve" viewBox="0 0 231.681 170"><path fill="#41CD52" d="M31.843 0h199.839v137.8a7813.68 7813.68 0 0 1-32.29 32.2H0V31.79C10.57 21.152 21.232 10.596 31.843-.001z"/><path fill="#FFF" d="M61.365 35.77c7.588-5.02 16.97-6.288 25.892-6.208 8.495.105 17.41 1.595 24.452 6.665 5.115 3.595 8.44 9.146 10.656 14.888 3.585 9.428 4.639 19.608 4.759 29.627.015 10.09-.441 20.4-3.781 30.014-2.237 6.54-6.494 12.346-12.11 16.378 4.041 6.55 8.163 13.048 12.205 19.598-5.08 2.342-10.145 4.699-15.23 7.03-4.327-7.14-8.635-14.297-12.978-21.428-5.872.963-11.88.888-17.782.236-7.071-.848-14.277-3.004-19.733-7.763-4.193-3.63-6.825-8.71-8.626-13.876-2.948-8.735-3.74-18.033-3.876-27.2-.07-9.909.561-19.974 3.55-29.481 2.312-7.151 6.138-14.287 12.602-18.48zM147.499 35.45c5.316-.006 10.631-.006 15.947 0 .015 7.03-.005 14.056.01 21.086 6.795.01 13.59 0 20.385.005-.116 4.564-.24 9.127-.371 13.69-6.79.016-13.575-.004-20.365.01.015 11.525-.035 23.049.025 34.572.13 3.155.06 6.485 1.45 9.398 1.012 2.247 3.74 2.823 5.962 2.899 4.187-.015 8.37-.261 12.557-.336.255 4.192.501 8.39.742 12.582-8.33 1.399-17.07 3.074-25.345.456-3.485-1.033-6.735-3.345-8.149-6.79-2.532-5.862-2.738-12.386-2.848-18.68-.01-11.368 0-22.732-.005-34.1-3.706-.01-7.412.005-11.118-.01-.01-4.559-.01-9.122 0-13.686 3.706-.015 7.407.005 11.113-.01.015-7.03-.005-14.056.01-21.087z"/><path fill="#41CD52" d="M80.492 43.98c5.16-.673 10.576-.492 15.46 1.459 3.957 1.564 7.317 4.628 9.092 8.51 2.723 5.882 3.766 12.376 4.293 18.79.571 8.535.491 17.15-.688 25.635-.827 5.05-2.005 10.371-5.425 14.353-3.47 3.996-8.821 5.712-13.957 6.113-5.415.396-11.127 0-16.017-2.563-2.853-1.52-5.275-3.901-6.69-6.82-1.714-3.495-2.657-7.311-3.32-11.133-1.995-12.115-2.476-24.652.252-36.698 1.123-4.543 2.758-9.207 6.078-12.632 2.888-2.934 6.91-4.448 10.922-5.015z"/></svg>