<svg xmlns="http://www.w3.org/2000/svg" xml:space="preserve" id="Layer_1" x="0" y="0" style="enable-background:new 0 0 300 70" version="1.1" viewBox="0 0 300 70"><style>.st0{fill:#fff}.st1{fill:#e10000}.st2{fill:#1d1e1c}</style><path id="_Path_" d="m46.4 53.7 7.5 10 4.3-2 6.1-8.4z" class="st0"/><path id="_Compound_Path_" d="M66.6 50c-8.6-4.1-19-15.2-19-15.2-.2.2-.4.3-.6.5 0 0 0-.1-.2-.2-3.1 2.8-5.9 5.8-8.9 9-.2.2-.3.4-.5.5 5 6.3 9.6 12.9 13.7 19.7.9 1.2 1.7 3 4 1.8C61.4 63.1 66 55 67 53.2c1-1.9.4-2.6-.4-3.2zm-4.7 5.6c-1.6 2.6-5.8 7.5-7.7 6.3-2.2-2-4-4.3-5.5-6.9v-.2h.2c5.8 4.7 10.2 1.9 12.7.4.2-.1.5.2.3.4z" class="st1"/><path id="_Path_2" d="M52.8 4.5c1.2-1.1 3-1.3 4.4-.6 5.5 1.9 14.9 8.5 12.7 16.7-.1.3-.3.6-.6.7C54.7 27.2 34 47.3 21.1 69c-.2.4-.6.6-1 .5C11 68.1 3.5 61.7.7 52.9c-.2-.4 0-.9.4-1.2C21.2 37.1 51.3 5.9 52.8 4.5z" class="st2"/><path id="_Path_3" d="M2 14.1S3.7 3.4 17.7 2.8c5.4 6.1 12.7 15 12.7 15L2 14.1z" class="st0"/><path id="_Compound_Path_2" d="m37.1 23.1-.4-.5-.9-1c-1.3-1.5-2.7-3.1-4.2-4.7C22.7 6.6 19.5 1.2 18.8.7 18 .1 12 .1 6.3 3.9-.1 8.1-1 14.9 1 16.2c8.3 4.2 16.1 9.3 23.3 15.1l1.7 1.5 9.1 7.7.3-2.6c.2-.1.4-.2.6-.4 2.1-2.1 2.7-10.8 1.1-14.4zm-9.7-7.3C18.7 8 11.8 9.1 3.5 13.7c-.1.1-.3.1-.4-.1-.1-.1-.1-.2 0-.3 1.9-8.2 11.8-10 14-9.8.2 0 .4.1.5.3 1.2 1.3 6.8 7.9 9.9 11.8.1.2 0 .3-.1.2 0 .1 0 .1 0 0z" class="st1"/><path id="_Compound_Path_3" d="M300 55.5h-7.2l-9.6-10.2-9.7 10.2h-6.6l13.2-13.2L267 28.9h7.2l9.6 10 9.5-10h6.7L286.7 42 300 55.5m-40.8-21.8c-2-1.4-4.4-2.1-6.8-1.9-2.6-.1-5.2.6-7.3 2.1-1.7 1.3-2.8 3.2-3.1 5.3h19.4c.1-2.2-.7-4.2-2.2-5.5zM242 42.6c0 1.4.3 2.9.9 4.2.6 1.2 1.5 2.2 2.6 3 1.1.8 2.4 1.4 3.7 1.7 1.6.4 3.2.6 4.8.6 2.4 0 4.7-.4 7-1.1 1.8-.4 3.4-1.1 5-2.1h.3v4.9c-1.9.6-3.9 1.2-5.9 1.6-2.1.4-4.2.7-6.3.7-4.7.3-9.3-1-13.1-3.6-3.2-2.4-4.9-6.2-4.8-10.1-.2-4 1.5-7.8 4.5-10.4 3.4-2.7 7.6-4 11.9-3.8 3.8-.2 7.5.9 10.6 3.1 2.5 2.2 3.9 5.5 3.7 8.9v2.4h-25 .1zm-5.8-8.9c-.9-.1-1.7-.3-2.5-.4-.8-.1-1.7 0-2.8 0-1.7 0-3.5.3-5.1.9-1.7.6-3.3 1.4-4.8 2.4v18.8h-5.7V28.9h5.7v3.9c1.9-1.2 3.9-2.3 6-3 1.7-.6 3.5-.9 5.3-.9h2.1l2.1.2v4.6h-.3zm-33.2.8c-4.2-3.3-10.2-3.3-14.4 0-1.9 2.1-2.8 4.9-2.6 7.7-.2 2.8.7 5.5 2.6 7.6 1.9 1.9 4.5 2.9 7.1 2.8 2.6.1 5.2-.8 7.1-2.6 1.9-2.1 2.8-4.8 2.6-7.6.2-2.8-.7-5.6-2.5-7.8v-.1zm4.2 17.8c-6.8 5-16 5-22.8 0-2.8-2.6-4.4-6.4-4.2-10.2-.2-3.9 1.3-7.6 4.2-10.2 6.8-5 16-5 22.8 0 2.8 2.6 4.4 6.4 4.2 10.2.2 3.9-1.2 7.7-4.1 10.3l-.1-.1zm-36.3 3.1v-15c0-1.1-.1-2.3-.3-3.4-.1-.9-.5-1.8-1-2.5-.6-.7-1.3-1.2-2.2-1.5-1.2-.4-2.4-.5-3.7-.5-1.7 0-3.3.3-4.9.9-1.7.6-3.3 1.4-4.9 2.3v19.8h-5.7V28.9h5.7v3c1.7-1.1 3.6-2 5.5-2.7 1.9-.7 3.9-1 5.9-1 3-.2 6 .7 8.3 2.6 2 1.9 3.1 4.7 2.9 7.5v17.2h-5.7l.1-.1zm-32.6-13.9-6.1.4c-1.9.1-3.7.3-5.6.7-1.4.3-2.8.8-4 1.7-1.8 1.5-2 4.1-.6 5.9.2.3.5.5.8.7 1.7.9 3.5 1.3 5.4 1.1 1.9 0 3.7-.3 5.5-.9 1.6-.6 3.1-1.3 4.6-2.2v-7.4zm0 13.9v-2.7c-.5.3-1.2.7-2.1 1.1-.8.4-1.6.8-2.5 1.2-1.1.4-2.2.7-3.3.9-1.4.3-2.9.4-4.3.4-2.8.1-5.5-.7-7.8-2.4-2-1.4-3.2-3.6-3.2-6-.1-1.8.5-3.5 1.6-4.9 1.3-1.4 2.9-2.4 4.7-2.9 2.4-.8 4.9-1.3 7.4-1.4 2.9-.3 6-.5 9.3-.6v-.7c0-.9-.2-1.8-.7-2.5-.5-.7-1.2-1.2-1.9-1.6-.9-.4-1.9-.6-2.9-.7-1.1 0-2.3-.2-3.5-.2-1.7 0-3.3.2-5 .5-1.9.3-3.8.8-5.7 1.3h-.3v-4.7c1.1-.3 2.7-.5 4.8-.8 2.1-.3 4.2-.4 6.3-.4 2.1 0 4.2.1 6.3.5 1.6.2 3.2.8 4.6 1.6 1.2.7 2.2 1.6 2.9 2.8.7 1.3 1.1 2.8 1 4.3v18l-5.7-.1zm-36.2-28c-.5-.9-1.3-1.6-2.3-2.1-1-.5-2-.8-3.1-1-1.4-.2-2.8-.3-4.2-.3h-7.1v13.3h6.3c1.7 0 3.3-.1 5-.4 1.3-.2 2.5-.7 3.6-1.5.9-.6 1.6-1.4 2.1-2.3.5-1 .7-2.1.7-3.3-.2-.7-.5-1.6-1-2.4zm-2.3 12.5 17 15.4H109l-15.1-14h-8.5v14h-6V20.1H92c2.3 0 4.5.1 6.8.4 1.7.2 3.4.7 4.9 1.5 1.5.7 2.8 1.8 3.8 3.1 1 1.4 1.4 3 1.4 4.6.1 2.4-.8 4.7-2.5 6.4-1.8 1.8-4.1 3.1-6.6 3.8z" class="st2"/><path id="_Compound_Path_4" d="M54.8 5.5c-.7 0-8.5 7.8-18.8 17.7-.1.2-4.2 3.9-3 7.4.9 4.2.6 6.8-1.2 6.5-2.1-1.2-4.1-2.6-6-4.2-7.1 6.9-14.7 13.5-22.5 19.5-.2.2-.3.4-.3.6.9 4.8 10.7 13.7 16.4 14 .2 0 .5-.1.6-.3C31.1 49.6 54.7 25.1 67.1 20c.3-.1.5-.3.5-.6 1.4-8.6-10-13.5-12.8-13.9zM19.3 63.8c-.9 1-3.7.2-8.3-3.5-2.1-1.6-3.8-3.7-5.1-6.1 0-.1 0-.4.3-.3 8.5 4.3 11.5 3.9 23.5-3.3.1 0 .2 0 .2.1v.2c-6.5 7.4-9.8 12-10.6 12.9zm29.6-49.7c-.1 0-.4 0-.3-.2 1.7-2.4 5.8-6.3 7-5.8 3.6 1.5 6.7 3.9 9 7 .1.1 0 .2-.1.3h-.2c-9.5-4.9-13.4-3-15.4-1.3z" class="st0"/></svg>