<svg xmlns="http://www.w3.org/2000/svg" xml:space="preserve" id="Layer_1" x="0" y="0" style="enable-background:new 0 0 245.7 172" version="1.1" viewBox="0 0 245.7 172"><style>.st11{fill:#fff}</style><path d="M102.3 18.8c7.9-8.3 19-13.4 31.2-13.4 16.2 0 30.4 9 37.9 22.5 6.5-2.9 13.8-4.6 21.4-4.6 29.3 0 53 23.9 53 53.4s-23.7 53.4-53 53.4c-3.6 0-7.1-.4-10.4-1C175.7 141 163 149 148.5 149c-6.1 0-11.8-1.4-16.9-3.9-6.7 15.8-22.4 26.9-40.7 26.9-19 0-35.2-12-41.5-28.9-2.7.6-5.5.9-8.4.9-22.7 0-41-18.6-41-41.4 0-15.3 8.3-28.7 20.5-35.9-2.5-5.8-3.9-12.2-3.9-19C16.6 21.3 38 0 64.3 0c15.5 0 29.2 7.4 38 18.8" style="fill:#00a1e0"/><path d="M35.6 89.2c-.2.4.1.5.1.6.5.3.9.6 1.4.8 2.5 1.3 4.9 1.7 7.3 1.7 5 0 8.2-2.7 8.2-7v-.1c0-4-3.5-5.4-6.8-6.5l-.4-.1c-2.5-.8-4.7-1.5-4.7-3.2v-.1c0-1.4 1.3-2.4 3.2-2.4 2.2 0 4.7.7 6.4 1.6 0 0 .5.3.7-.2.1-.3.9-2.5 1-2.8.1-.3-.1-.5-.2-.6-1.9-1.2-4.5-1.9-7.2-1.9h-.5c-4.6 0-7.8 2.8-7.8 6.8v.2c0 4.2 3.6 5.6 6.9 6.5l.5.2c2.4.7 4.5 1.4 4.5 3.1v.1c0 1.6-1.4 2.7-3.5 2.7-.9 0-3.6 0-6.5-1.9-.4-.2-.6-.4-.8-.5-.1-.1-.5-.2-.7.2l-1.1 2.8zM109.4 89.2c-.2.4.1.5.1.6.5.3.9.6 1.4.8 2.5 1.3 4.9 1.7 7.3 1.7 5 0 8.2-2.7 8.2-7v-.1c0-4-3.5-5.4-6.8-6.5l-.4-.1c-2.5-.8-4.7-1.5-4.7-3.2v-.1c0-1.4 1.3-2.4 3.2-2.4 2.2 0 4.7.7 6.4 1.6 0 0 .5.3.7-.2.1-.3.9-2.5 1-2.8.1-.3-.1-.5-.2-.6-1.9-1.2-4.5-1.9-7.2-1.9h-.5c-4.6 0-7.8 2.8-7.8 6.8v.2c0 4.2 3.6 5.6 6.9 6.5l.5.2c2.4.7 4.5 1.4 4.5 3.1v.1c0 1.6-1.4 2.7-3.6 2.7-.9 0-3.6 0-6.5-1.9-.4-.2-.6-.4-.8-.5-.1-.1-.5-.2-.7.2l-1 2.8zM159.8 80.7c0 2.4-.5 4.4-1.4 5.7-.9 1.3-2.2 2-4.1 2-1.9 0-3.2-.7-4.1-2-.9-1.4-1.3-3.3-1.3-5.7 0-2.4.4-4.4 1.3-5.7.9-1.3 2.2-2 4.1-2 1.9 0 3.2.6 4.1 2 .9 1.4 1.4 3.3 1.4 5.7m4.2-4.5c-.4-1.4-1.1-2.6-1.9-3.7-.9-1-1.9-1.9-3.2-2.5-1.3-.6-2.8-.9-4.5-.9-1.7 0-3.2.3-4.5.9-1.3.6-2.4 1.4-3.2 2.5-.9 1-1.5 2.3-1.9 3.7-.4 1.4-.6 2.9-.6 4.5s.2 3.1.6 4.5c.4 1.4 1.1 2.6 1.9 3.7.9 1 1.9 1.9 3.2 2.4 1.3.6 2.8.9 4.5.9 1.7 0 3.2-.3 4.5-.9 1.3-.6 2.4-1.4 3.2-2.4.9-1 1.5-2.3 1.9-3.7.4-1.4.6-2.9.6-4.5s-.2-3.1-.6-4.5M198.5 87.8c-.1-.4-.5-.3-.5-.3-.6.2-1.3.5-2 .6-.7.1-1.5.2-2.3.2-2 0-3.7-.6-4.8-1.8-1.2-1.2-1.8-3.1-1.8-5.8 0-2.4.6-4.2 1.6-5.5 1-1.4 2.6-2.1 4.7-2.1 1.7 0 3.1.2 4.4.6 0 0 .3.1.5-.3.4-1 .6-1.8 1-2.9.1-.3-.2-.5-.3-.5-.5-.2-1.8-.6-2.8-.7-.9-.1-2-.2-3.2-.2-1.8 0-3.3.3-4.7.9-1.3.6-2.5 1.4-3.4 2.5-.9 1-1.6 2.3-2 3.7-.5 1.4-.7 2.9-.7 4.5 0 3.5.9 6.3 2.8 8.4 1.9 2.1 4.7 3.1 8.3 3.1 2.2 0 4.4-.4 6-1.1 0 0 .3-.1.2-.5l-1-2.8zM205.9 78.4c.2-1.4.6-2.5 1.2-3.4.9-1.3 2.2-2.1 4.1-2.1s3.1.7 4 2.1c.6.9.8 2.1.9 3.4h-10.2zm14.2-3c-.4-1.3-1.2-2.7-1.8-3.3-.9-1-1.8-1.7-2.7-2.1-1.2-.5-2.6-.8-4.1-.8-1.8 0-3.4.3-4.7.9-1.3.6-2.4 1.5-3.3 2.5-.9 1-1.5 2.3-1.9 3.7-.4 1.4-.6 2.9-.6 4.5s.2 3.2.6 4.5c.4 1.4 1.1 2.6 2.1 3.6.9 1 2.1 1.8 3.6 2.4 1.4.6 3.2.8 5.2.8 4.1 0 6.3-.9 7.2-1.4.2-.1.3-.2.1-.7l-.9-2.6c-.1-.4-.5-.2-.5-.2-1 .4-2.5 1.1-5.8 1.1-2.2 0-3.8-.7-4.9-1.7-1.1-1-1.6-2.6-1.7-4.7h14.2s.4 0 .4-.4c-.1-.1.4-2.9-.5-6.1zM91.8 78.4c.2-1.4.6-2.5 1.2-3.4.9-1.3 2.2-2.1 4.1-2.1s3.1.7 4 2.1c.6.9.8 2.1.9 3.4H91.8zm14.2-3c-.4-1.3-1.2-2.7-1.8-3.3-.9-1-1.8-1.7-2.7-2.1-1.2-.5-2.6-.8-4.1-.8-1.8 0-3.4.3-4.7.9-1.3.6-2.4 1.5-3.3 2.5-.9 1-1.5 2.3-1.9 3.7-.4 1.4-.6 2.9-.6 4.5s.2 3.2.6 4.5c.4 1.4 1.1 2.6 2.1 3.6.9 1 2.1 1.8 3.6 2.4 1.4.6 3.2.8 5.2.8 4.1 0 6.3-.9 7.2-1.4.2-.1.3-.2.1-.7l-.9-2.6c-.1-.4-.5-.2-.5-.2-1 .4-2.5 1.1-5.8 1.1-2.2 0-3.8-.7-4.9-1.7-1.1-1-1.6-2.6-1.7-4.7h14.2s.4 0 .4-.4c-.1-.1.4-2.9-.5-6.1zM61 87.7c-.6-.4-.6-.6-.8-.8-.3-.4-.4-1.1-.4-1.9 0-1.3.4-2.2 1.3-2.8 0 0 1.2-1.1 4.1-1 2 0 3.9.3 3.9.3V88s-1.8.4-3.8.5c-3 .2-4.3-.8-4.3-.8m5.7-10c-.6 0-1.3-.1-2.2-.1-1.2 0-2.4.2-3.5.5s-2.1.8-3 1.4c-.9.6-1.6 1.4-2.1 2.3-.5.9-.8 2-.8 3.3 0 1.3.2 2.4.7 3.3.4.9 1.1 1.6 1.9 2.2.8.6 1.8 1 2.9 1.3 1.1.3 2.4.4 3.8.4 1.5 0 2.9-.1 4.3-.4 1.4-.2 3.1-.6 3.6-.7.5-.1 1-.3 1-.3.4-.1.3-.5.3-.5v-13c0-2.9-.8-5-2.3-6.3-1.5-1.3-3.7-2-6.5-2-1.1 0-2.8.1-3.8.4 0 0-3.1.6-4.4 1.6 0 0-.3.2-.1.6l1 2.7c.1.4.5.2.5.2s.1 0 .2-.1c2.7-1.5 6.2-1.4 6.2-1.4 1.5 0 2.7.3 3.5.9.8.6 1.2 1.5 1.2 3.4v.6c-1.3-.2-2.4-.3-2.4-.3M181.6 70.4c.1-.3-.1-.5-.2-.5-.2-.1-1.5-.4-2.4-.4-1.8-.1-2.8.2-3.7.6-.9.4-1.9 1-2.4 1.8v-1.7c0-.2-.2-.4-.4-.4h-3.7c-.2 0-.4.2-.4.4v21.2c0 .2.2.4.4.4h3.7c.2 0 .4-.2.4-.4V80.7c0-1.4.2-2.8.5-3.7.3-.9.7-1.6 1.2-2.1s1.1-.9 1.8-1.1c.7-.2 1.4-.3 1.9-.3.7 0 1.6.2 1.6.2.3 0 .4-.1.5-.4.3-.6 1-2.5 1.2-2.9" class="st11"/><path d="M146.5 60.5c-.5-.1-.9-.2-1.4-.3-.5-.1-1.2-.1-1.9-.1-2.6 0-4.6.7-6 2.2-1.4 1.4-2.4 3.6-2.9 6.5l-.2 1h-3.2s-.4 0-.5.4l-.5 3c0 .3.1.5.5.5h3.1l-3.2 17.8c-.2 1.4-.5 2.6-.9 3.5-.3.9-.6 1.5-1 2s-.7.8-1.3 1c-.5.2-1.1.2-1.7.2-.3 0-.8-.1-1.1-.1-.3-.1-.5-.1-.8-.2 0 0-.4-.1-.5.2-.1.3-1 2.6-1.1 2.9-.1.3 0 .5.2.6.4.1.7.2 1.3.4.8.2 1.5.2 2.1.2 1.3 0 2.5-.2 3.5-.5 1-.4 1.9-1 2.6-1.8.8-.9 1.4-1.9 1.8-3.2.5-1.3.9-2.9 1.3-4.8l3.2-18.2h4.7s.4 0 .5-.4l.5-3c0-.3-.1-.5-.5-.5h-4.6c0-.1.2-1.7.8-3.2.2-.6.6-1.2 1-1.5.4-.4.8-.6 1.2-.7.5-.1 1-.2 1.5-.2.4 0 .9 0 1.2.1.4.1.6.1.7.2.5.1.5 0 .6-.2l1.1-3c.2-.6-.1-.7-.1-.8M82.8 91.3c0 .2-.2.4-.4.4h-3.8c-.2 0-.4-.2-.4-.4V60.9c0-.2.2-.4.4-.4h3.8c.2 0 .4.2.4.4v30.4z" class="st11"/></svg>