<svg xmlns="http://www.w3.org/2000/svg" data-name="Layer 1" viewBox="0 0 300 44.25"><path d="M9.75 0c0 1.87.05 3.73.06 5.59V9.7a3.06 3.06 0 0 1-.49.09h-9A2.25 2.25 0 0 1 0 9.73V0ZM259.09 6.02h7.57v15.12c1.24-1.31 2.34-2.46 3.42-3.62l10.41-11.07a1.34 1.34 0 0 1 .79-.44h9.3a1.48 1.48 0 0 1 .3.08l-15.22 15 16 21.83a5 5 0 0 1-.54.07h-8.85a1 1 0 0 1-.9-.5q-5.32-7.55-10.67-15.08c-.1-.14-.2-.28-.38-.51-.81.8-1.54 1.65-2.39 2.35a3.75 3.75 0 0 0-1.32 3.33c.09 3.16 0 6.33 0 9.5v.85h-7.58ZM186.14 42.94l2.43-6.82q5.25-14.66 10.48-29.32a1 1 0 0 1 1.15-.83c2.45.06 4.9 0 7.35 0a.7.7 0 0 1 .79.56L221 42.3c.07.18.11.37.19.64H213.55c-.56 0-.77-.19-.93-.69-.65-2.12-1.35-4.22-2-6.34a.73.73 0 0 0-.84-.61h-12.3a.77.77 0 0 0-.88.66c-.69 2.15-1.41 4.3-2.14 6.44-.07.21-.32.5-.49.5-2.62.05-5.18.04-7.83.04Zm22.17-14-4.58-14.2h-.15c-1.56 4.71-3.11 9.42-4.69 14.18ZM37.14 42.92c.71-2 1.38-3.87 2-5.76q5.5-15.22 10.93-30.44a.92.92 0 0 1 1.06-.74h7.27a.84.84 0 0 1 1 .65q6.26 17.81 12.6 35.6c.07.2.12.42.2.68h-8.39l-1.43-4.42c-.29-.9-.55-1.81-.89-2.69a.87.87 0 0 0-.62-.45H48.28c-.46 0-.59.22-.71.58-.69 2.13-1.4 4.26-2.1 6.38-.07.21-.15.42-.23.64Zm22.16-14c-1.55-4.8-3.06-9.51-4.64-14.42l-4.77 14.43ZM254.49 30.01a16.78 16.78 0 0 1-2.8 7.5 14.34 14.34 0 0 1-11.25 6.36 18.55 18.55 0 0 1-8.39-1.1 14.53 14.53 0 0 1-8.41-8.56 26 26 0 0 1-.28-18.64c2.44-6.74 8.31-10.68 16.2-10.28 3.87.2 7.47 1.14 10.36 3.88a13.83 13.83 0 0 1 4.42 8.76c-.73 0-1.39.08-2.05.09-1.72 0-3.44.06-5.17.11-.36 0-.64 0-.69-.47a2.09 2.09 0 0 0-.13-.35c-1.63-4.53-5.65-6.5-10.25-5a7.35 7.35 0 0 0-4.7 4.33 19.44 19.44 0 0 0 .1 16 8.1 8.1 0 0 0 10.08 4.3 6.71 6.71 0 0 0 4.21-3.67 14.72 14.72 0 0 0 .65-1.59c.51-1.49.5-1.49 2.12-1.5s3.4-.06 5.1-.1ZM127 31.8h6.74c.43 0 .64.07.74.57.7 3.47 2.53 5.06 6.09 5.41a15.41 15.41 0 0 0 6.23-.48 4.33 4.33 0 0 0 3.31-3.4 3.17 3.17 0 0 0-1.9-3.87 39.37 39.37 0 0 0-5.41-1.68 72.35 72.35 0 0 1-9.6-2.59c-4.15-1.66-6-5.48-5.52-9.86h7.06c-.07 2.2 1.26 3.28 3.15 3.78 3.33.88 6.69 1.65 10 2.53a29.35 29.35 0 0 1 4.36 1.42 8.53 8.53 0 0 1 5.36 8.19A10.9 10.9 0 0 1 150 42.91a21.82 21.82 0 0 1-16.24-.46 10.8 10.8 0 0 1-6.88-10.32 2.35 2.35 0 0 1 .12-.33ZM6.36 15.57h7c0 .08.1.14.09.21a3.21 3.21 0 0 0 2.46 3.34c1.8.6 3.64 1.05 5.48 1.53 2.6.68 5.24 1.26 7.83 2A10.26 10.26 0 0 1 34 25.39a9.58 9.58 0 0 1 2.35 7.24 11.16 11.16 0 0 1-8.3 10.29 22.25 22.25 0 0 1-15.6-.77 10.69 10.69 0 0 1-6.76-9.78 4.69 4.69 0 0 1 0-.53 2.46 2.46 0 0 1 .07-.33h6.69c.35 0 .64 0 .7.46.58 4.08 3.22 5.24 6.52 5.54a14.17 14.17 0 0 0 6-.58 4.27 4.27 0 0 0 3.19-4.58 3 3 0 0 0-1.94-2.62 55.47 55.47 0 0 0-5.63-1.74 67.3 67.3 0 0 1-9.45-2.56c-4.4-1.8-5.84-5.8-5.48-9.86ZM115.37 42.92h-7.78V12.63H96.48V6.05h29.9v6.49h-11ZM159.62 12.63v-6.6h29.9v6.49h-11v30.37h-7.85V12.63ZM75.79 6.02h7.64v30.2h18.48v6.67H75.79ZM35.16 16.99H27.8a2.93 2.93 0 0 1-.1-.37c-.36-3.16-2.59-4.66-5.41-5.09a11.39 11.39 0 0 0-6.65.74V5.45A20.3 20.3 0 0 1 21 4.93a15.65 15.65 0 0 1 10.75 3.88 10.88 10.88 0 0 1 3.41 8.18ZM136.86 5.63c5.49-1 10.76-.76 15.41 2.78 2.87 2.18 4 5.21 4.18 8.84h-6.83c-.32 0-.62.06-.68-.44-.34-3-2.35-4.51-5.15-5a11 11 0 0 0-6.93.78ZM300 40.24a2.86 2.86 0 1 1-2.83-2.85 2.82 2.82 0 0 1 2.83 2.85Zm-2.87-2.35a2.39 2.39 0 0 0-2.35 2.33 2.43 2.43 0 0 0 2.37 2.4 2.47 2.47 0 0 0 2.37-2.35 2.42 2.42 0 0 0-2.39-2.38Z"/><path d="M296 38.53c.86.1 1.74-.32 2.29.52.38.57.09 1.09-.41 1.49l.66 1.29c-.58.27-.74-.09-.94-.47s-.29-.91-1-.64l-.05 1.1-.17.15c-.14-.16-.38-.32-.39-.48.01-.95.01-1.86.01-2.96Zm.64.39v1.32a6.6 6.6 0 0 0 1.06-.4.59.59 0 0 0 0-.52 6.6 6.6 0 0 0-1.08-.4Z"/></svg>