<svg xmlns="http://www.w3.org/2000/svg" xml:space="preserve" id="Layer_1" x="0" y="0" style="enable-background:new 0 0 347.6 172" version="1.1" viewBox="0 0 347.6 172"><style>.st0{fill:url(#SVGID_1_)}.st1{fill:#ea3e24}.st2{fill-rule:evenodd;clip-rule:evenodd;fill:url(#SVGID_2_)}</style><linearGradient id="SVGID_1_" x1="173.825" x2="173.825" y1="172.217" y2=".244" gradientUnits="userSpaceOnUse"><stop offset="0" style="stop-color:#225fbc"/><stop offset="1" style="stop-color:#1fb2f0"/></linearGradient><path d="M0 172h175.7l172-172H0v172" style="fill-rule:evenodd;clip-rule:evenodd;fill:url(#SVGID_1_)"/><path d="M206.3 32.3h-34.2v81.4l-29.9-81.4h-29.6l-25.5 68c-2.7-17.1-20.5-23.1-34.4-27.5-9.2-3-19-7.3-18.9-12.1.1-3.9 5.3-7.6 15.5-7.1 6.9.4 13 .9 25 6.8l11.9-20.7c-11-5.6-26.3-9.2-38.8-9.2h-.1c-14.6 0-26.7 4.7-34.2 12.5C7.8 48.4 5 55.3 4.9 63c-.2 10.5 3.6 17.9 11.7 23.9 6.8 5 15.6 8.3 23.3 10.7 9.5 2.9 17.3 5.5 17.2 10.9 0 2-.8 3.8-2.2 5.3-2.4 2.5-6 3.4-11 3.5-9.7.2-16.9-1.3-28.3-8.1L5 130.2c11.4 6.5 25 10.3 38.7 10.3h1.8c12-.2 21.7-3.7 29.5-9.9.4-.3.8-.7 1.2-1.1l-3.4 9.2h31.1l5.2-15.9c5.5 1.8 11.7 2.9 18.3 2.9 6.4 0 12.5-1 17.8-2.7l5 15.7h50.7v-32.9H212c26.7 0 42.5-13.6 42.5-36.4-.1-25.4-15.5-37.1-48.2-37.1zM127.2 102c-4 0-7.7-.7-11-1.9l10.9-34.2h.2l10.6 34.3c-3.1 1.1-6.8 1.8-10.7 1.8zm81.1-19.7h-7.5V54.7h7.5c10.1 0 18.1 3.3 18.1 13.6 0 10.7-8 14-18.1 14" style="fill-rule:evenodd;clip-rule:evenodd;fill:#fff"/><path d="M217.7 160.8c0-5.3 4-9.3 9.1-9.3 5 0 9 4 9 9.3 0 5.4-4 9.3-9 9.3-5.1 0-9.1-3.9-9.1-9.3zm9.1 11.2c6.1 0 11.3-4.7 11.3-11.2 0-6.4-5.2-11.1-11.3-11.1-6.1 0-11.3 4.7-11.3 11.1 0 6.5 5.2 11.2 11.3 11.2zm-2.3-10.3h2.2l3.4 5.6h2.2l-3.7-5.7c1.9-.2 3.3-1.2 3.3-3.5 0-2.5-1.5-3.7-4.5-3.7h-4.9v12.9h1.9v-5.6zm0-1.7v-4h2.7c1.3 0 2.8.3 2.8 1.9 0 2-1.5 2.1-3.1 2.1h-2.4z" style="fill:#225fbc"/></svg>