<svg xmlns="http://www.w3.org/2000/svg" xml:space="preserve" id="Layer_1" x="0" y="0" style="enable-background:new 0 0 315.2 170" version="1.1" viewBox="0 0 315.2 170"><style>.st2{fill:#010101}</style><g id="g3" transform="translate(-120.609 -220.26)"><path id="path5" d="M362.4 364.7c38.5-38.5 44.9-94.5 14.3-125.1-30.6-30.6-86.6-24.2-125.1 14.3s-27.4 112-14.3 125.1c10.5 10.6 86.6 24.2 125.1-14.3z" style="fill:#f89939"/><path id="path7" d="M204.4 309.1c-22.3-22.3-54.8-26.1-72.6-8.3-17.8 17.8-14 50.3 8.3 72.6 22.3 22.3 65 15.9 72.6 8.3 6.2-6.1 14.1-50.3-8.3-72.6z" style="fill:#3499cd"/></g><g id="g9" transform="translate(-120.609 -220.26)"><g id="g11"><path id="path13" d="M281.5 355.3c-3.9 3.6-7.4 6.3-10.4 8-3 1.7-5.8 2.6-8.5 2.6-3.1 0-5.6-1.2-7.5-3.6-1.9-2.4-2.9-5.6-2.9-9.7 0-6.1 1.3-13.4 4-21.9 2.6-8.5 5.8-16.4 9.6-23.6l11.1-4.1c.3-.1.6-.2.8-.2.8 0 1.5.6 2.1 1.8.5 1.2.8 2.9.8 5 0 5.9-1.4 11.7-4.1 17.2-2.7 5.5-7 11.5-12.8 17.8-.2 3-.3 5.1-.3 6.2 0 2.5.5 4.5 1.4 6 .9 1.5 2.2 2.2 3.7 2.2 1.6 0 3.2-.6 5-1.7 1.8-1.1 4.5-3.5 8.1-7.1l-.1 5.1zm-16.7-17c3.7-4.1 6.7-8.7 9-13.8 2.3-5.1 3.4-9.5 3.4-13.1 0-1.1-.2-1.9-.5-2.6-.3-.7-.7-1-1.2-1-1.1 0-2.6 2.7-4.7 8-2 5.4-4 12.8-6 22.5z" class="st2"/><path id="path15" d="M314.1 355.3c-3.7 3.6-7 6.3-9.9 8-2.9 1.7-6.2 2.6-9.7 2.6-3.9 0-7.1-1.3-9.6-3.8-2.4-2.5-3.6-5.8-3.6-10 0-6.2 2.1-11.7 6.4-16.7 4.3-5 9-7.5 14.2-7.5 2.7 0 4.9.7 6.5 2.1 1.6 1.4 2.4 3.2 2.4 5.5 0 6-6.4 10.9-19.2 14.6 1.2 5.7 4.2 8.5 9.1 8.5 1.9 0 3.7-.5 5.5-1.5 1.7-1 4.4-3.3 7.9-6.9v5.1zm-22.9-8.1c7.4-2.1 11.1-5.9 11.1-11.6 0-2.8-1-4.2-3-4.2-1.9 0-3.7 1.5-5.5 4.4-1.7 3-2.6 6.8-2.6 11.4z" class="st2"/><path id="path17" d="M360.6 355.3c-4.6 4.4-8 7.3-10 8.6-2 1.3-3.9 2-5.7 2-4.6 0-6.7-4-6.5-12.1-2.9 4.1-5.6 7.2-8 9.2-2.5 2-5 3-7.6 3-2.6 0-4.7-1.2-6.5-3.6-1.8-2.4-2.7-5.3-2.7-8.8 0-4.4 1.2-8.5 3.6-12.5 2.4-3.9 5.5-7.1 9.2-9.6 3.7-2.4 7.1-3.7 9.9-3.7 3.6 0 6.2 1.7 7.6 5l8.9-4.9h2.4l-3.8 12.8c-2 6.4-3 10.8-3 13.2 0 2.5.9 3.7 2.7 3.7 1.1 0 2.4-.6 3.7-1.8s3.3-3 5.7-5.5l.1 5zm-31.9 2.4c2.9 0 5.6-2.5 8.2-7.4 2.6-5 3.9-9.5 3.9-13.7 0-1.6-.4-2.9-1.1-3.8-.7-.9-1.7-1.4-2.9-1.4-2.9 0-5.7 2.5-8.2 7.4-2.6 4.9-3.9 9.5-3.9 13.6 0 1.6.4 2.8 1.2 3.8.6 1 1.6 1.5 2.8 1.5z" class="st2"/><path id="path19" d="M393.1 355.3c-7.3 7.1-12.9 10.7-16.9 10.7-1.8 0-3.3-.7-4.5-2.2-1.2-1.5-1.8-3.3-1.8-5.6 0-4.1 2.2-9.6 6.6-16.5-2.1 1.1-4.5 1.9-7.1 2.3-1.9 3.5-4.8 7.2-8.9 11.2h-1v-3.9c2.3-2.4 4.3-4.9 6.1-7.6-2.5-1.1-3.7-2.7-3.7-4.9s.8-4.6 2.3-7.2c1.5-2.5 3.6-3.8 6.3-3.8 2.3 0 3.4 1.2 3.4 3.5 0 1.8-.7 4.4-2 7.8 4.8-.5 9-4.2 12.6-11.1l4-.2-4 11.1c-1.7 4.7-2.8 7.9-3.3 9.6s-.7 3.2-.7 4.5c0 1.2.3 2.2.8 2.9.6.7 1.3 1.1 2.3 1.1 1 0 2-.4 3-1.1 1-.7 3.1-2.7 6.4-5.9l.1 5.3z" class="st2"/><path id="path21" d="M435.8 355.3c-6.7 7.1-12.5 10.6-17.2 10.6-1.9 0-3.5-.7-4.7-2-1.2-1.4-1.8-3.2-1.8-5.5 0-3.1 1.3-7.9 3.8-14.2 1.4-3.4 2-5.6 2-6.5 0-.9-.4-1.4-1.1-1.4-.4 0-.9.2-1.6.6-.6.4-1.3 1-2.1 1.7l-2.4 2.4c-.8.8-1.6 1.7-2.5 2.8l-2.4 2.8a9.22 9.22 0 0 0-2 4.1c-.4 2.5-.7 4.7-.9 6.8-.1 1.5-.1 3.6-.1 6.2l-9.6 2.3c-.3-3.9-.5-6.8-.5-8.7 0-4.7.5-9.1 1.6-13.3 1.1-4.2 2.8-8.9 5.2-14.1l10.6-2c-2.2 6-3.7 10.7-4.4 14.2 4.8-5.3 8.5-9 11.3-11 2.8-2 5.3-3.1 7.5-3.1 1.5 0 2.7.6 3.7 1.7s1.5 2.5 1.5 4.2c0 2.8-1.2 7.4-3.7 13.8-1.7 4.4-2.6 7.2-2.6 8.5 0 1.7.7 2.6 2.1 2.6 2.1 0 5.6-2.8 10.3-8.4v4.9z" class="st2"/></g></g><text id="text25" style="font-size:26.2339px;font-family:&quot;ArialMT&quot;;fill:#fff" transform="translate(174.29 93.145)">scikit</text></svg>