<svg xmlns="http://www.w3.org/2000/svg" viewBox="0 0 148.89 22"><defs><style>.cls-1,.cls-2{fill:#293e40}.cls-1{fill-rule:evenodd}</style></defs><g id="Layer_2" data-name="Layer 2"><g id="Layer_1-2" data-name="Layer 1"><path d="M36.27 6.78a6.47 6.47 0 0 0-4.15 1.49V6.93h-3.79v14.76h3.94v-9.43a4.69 4.69 0 0 1 3.58-1.83 3.92 3.92 0 0 1 1.58.24V6.88a6.41 6.41 0 0 0-1.16-.1M1.91 17.19a6.2 6.2 0 0 0 4 1.46c1.06 0 1.88-.52 1.88-1.25C7.82 15.18.7 16 .7 11.22c0-2.83 2.73-4.59 5.64-4.59a9.1 9.1 0 0 1 5 1.49L9.46 11a5 5 0 0 0-2.82-1c-1.09 0-2 .43-2 1.19 0 1.92 7.12 1.16 7.12 6.27C11.76 20.26 9 22 5.91 22A10.2 10.2 0 0 1 0 20ZM26.65 14.17c0-4.11-2.88-7.54-6.95-7.54-4.36 0-7.15 3.59-7.15 7.69a7.36 7.36 0 0 0 7.7 7.68 8 8 0 0 0 6-2.64L24 17.09a5.21 5.21 0 0 1-3.7 1.71 3.86 3.86 0 0 1-4-3.5h10.25a6.6 6.6 0 0 0 .1-1.13Zm-10.1-1.76a3.2 3.2 0 0 1 3.15-2.59 2.93 2.93 0 0 1 2.91 2.59ZM46.82 15.94l4.03-9.01h4.1l-6.77 14.76h-2.72L38.7 6.93h4.09l4.03 9.01zM58.25 0a2.53 2.53 0 1 1-2.57 2.53A2.53 2.53 0 0 1 58.25 0" class="cls-1"/><path d="M56.28 6.93h3.94v14.76h-3.94z" class="cls-2"/><path d="M76.52 18.68A7.79 7.79 0 0 1 69.85 22a7.68 7.68 0 1 1 0-15.36 7.83 7.83 0 0 1 6.19 3L73.28 12a4.27 4.27 0 0 0-3.4-1.76 4 4 0 0 0-4 4.05 3.89 3.89 0 0 0 4.06 4 4.3 4.3 0 0 0 3.52-1.95ZM90.83 19.35a8 8 0 0 1-6 2.64 7.37 7.37 0 0 1-7.7-7.67c0-4.1 2.79-7.69 7.16-7.69 4.06 0 6.94 3.43 6.94 7.54a6.64 6.64 0 0 1-.09 1.13H80.92a3.86 3.86 0 0 0 4 3.5 5.21 5.21 0 0 0 3.7-1.71Zm-3.66-6.94a3 3 0 0 0-2.91-2.59 3.2 3.2 0 0 0-3.16 2.59ZM92.76 21.69V6.93h3.79v1.19a6.46 6.46 0 0 1 4.16-1.49A6.61 6.61 0 0 1 105.8 9c1 1.16 1.52 2.65 1.52 5.17v7.52h-3.95v-7.82a3.61 3.61 0 0 0-.87-2.77 3.1 3.1 0 0 0-2.22-.82 4.68 4.68 0 0 0-3.57 1.82v9.59Z" class="cls-1"/><path d="M117.46 6.63a8.63 8.63 0 0 0-5.94 14.9 1.71 1.71 0 0 0 2.22.12 6.15 6.15 0 0 1 7.35 0 1.72 1.72 0 0 0 2.23-.13 8.63 8.63 0 0 0-5.86-14.89m0 12.93a4.18 4.18 0 0 1-4.29-4.29 4.3 4.3 0 1 1 8.59 0 4.18 4.18 0 0 1-4.3 4.29" style="fill:#81b5a1;fill-rule:evenodd"/><path d="M133.81 21.69h-2.94l-5.85-14.76h3.93l3.21 8.44 3.15-8.44h3.29l3.12 8.44 3.23-8.44h3.94l-5.86 14.76h-2.93l-3.15-8.4-3.14 8.4z" class="cls-1"/><path d="M146.73 19.82v.32h-.5v1.55h-.36v-1.55h-.5v-.32h1.36zM147.95 20.94l.68-1.12h.26v1.87h-.36v-1.05l-.45.74h-.26l-.44-.74v1.05h-.37v-1.87h.26l.68 1.12z" class="cls-2"/></g></g></svg>