<svg xmlns="http://www.w3.org/2000/svg" xml:space="preserve" id="Layer_1" x="0" y="0" style="enable-background:new 0 0 628.9 250" version="1.1" viewBox="0 0 628.9 250"><style>.st1{fill:#2d2d2d}</style><switch><g><g style="enable-background:new"><path d="M116.4 141.3c0 16.2-5.7 28.7-17.2 38.1s-27.7 14.1-48.5 14.1c-19.3 0-36-3.7-50.6-11V147c12 5.2 22.4 9.4 30.8 11.5 8.4 2.1 16.2 3.1 23 3.1 8.4 0 14.6-1.6 19.3-4.7 4.7-3.1 6.8-7.8 6.8-14.1 0-3.7-1-6.8-3.1-9.4s-4.7-5.2-8.9-7.8c-4.2-2.6-11.5-6.8-23-12-11-5.2-19.3-9.9-24.5-14.6s-9.9-10.4-13-16.7C4.4 76 2.8 68.7 2.8 60.4 2.8 44.7 8 32.2 19 23.3S44.4 9.8 63.2 9.8c9.4 0 18.3 1 26.6 3.1s17.2 5.2 26.6 9.4l-12 29.2c-9.4-4.2-17.2-6.8-23.5-8.4S68.4 41 62.6 41c-7.3 0-12.5 1.6-16.7 5.2s-5.7 7.8-5.7 13c0 3.1.5 6.3 2.1 8.9 1.6 2.6 4.2 4.7 7.3 7.3s11.5 6.3 24 12.5c16.7 7.8 28.2 16.2 34.4 24s8.4 18 8.4 29.4zM144.1 19.2c0-12 6.8-18.3 20.4-18.3s20.4 6.3 20.4 18.3c0 5.7-1.6 10.4-5.2 13.6s-8.4 4.7-15.1 4.7c-13.7 0-20.5-6.3-20.5-18.3zm39.1 172.3h-37.1V54.2h37.1v137.3zM284 193.5c-21.9 0-39.1-6.3-51.7-18.3-12.5-12-18.8-29.2-18.8-51.7 0-23 5.7-40.7 17.2-53.2s27.1-18.8 47.5-18.8c19.3 0 34.4 5.7 44.9 16.7 10.4 11 16.2 26.1 16.2 45.4V132h-87.7c.5 10.4 3.7 18.8 9.4 25.1 5.7 6.3 14.1 8.9 24.5 8.9 8.4 0 16.2-1 23.5-2.6 7.3-1.6 15.1-4.7 23-8.4v28.7c-6.8 3.1-13.6 5.7-20.9 7.3-7.3 1.5-16.2 2.5-27.1 2.5zm-5.2-115.3c-7.8 0-14.1 2.6-18.8 7.3-4.7 4.7-7.3 12-7.8 21.4h52.2c0-9.4-2.6-16.2-7.3-21.4s-10.5-7.3-18.3-7.3zM489.1 54.2V73l-21.4 5.7c4.2 6.3 5.7 13 5.7 20.4 0 14.6-5.2 26.1-15.1 34.4-9.9 8.4-24.5 12.5-42.8 12.5l-6.8-.5-5.7-.5c-3.7 3.1-5.7 6.3-5.7 9.9 0 5.2 6.8 7.8 20.4 7.8h23.5c15.1 0 26.6 3.1 34.4 9.9s12 15.7 12 28.2c0 16.2-6.8 28.2-19.8 37.1-13 8.9-32.4 13-57.4 13-19.3 0-33.4-3.1-43.8-9.9-10.4-6.8-15.1-16.2-15.1-28.2 0-8.4 2.6-15.1 7.8-20.9 5.2-5.7 12.5-9.4 22.4-12-3.7-1.6-7.3-4.2-9.9-7.8-2.6-3.7-4.2-7.8-4.2-12 0-5.2 1.6-9.4 4.7-13 3.1-3.7 7.3-6.8 13-10.4-7.3-3.1-13-7.8-17.2-15.1-4.2-7.3-6.3-15.1-6.3-24 0-15.1 4.7-26.6 14.6-34.4s23.5-12 41.8-12c3.7 0 8.4.5 13.6 1 5.2.5 8.9 1 9.9 1.6h47.5v.4zM383.7 210.8c0 5.2 2.6 9.4 7.3 12s12 4.2 20.9 4.2c13.6 0 24-2.1 31.3-5.7 7.3-3.7 11.5-8.9 11.5-15.1 0-5.2-2.1-8.9-6.8-10.4-4.7-2.1-11.5-3.1-20.9-3.1h-19.3c-6.8 0-12.5 1.6-17.2 4.7s-6.8 7.6-6.8 13.4zm13.5-111.7c0 7.3 1.6 13 5.2 17.7 3.7 4.7 8.4 6.3 15.7 6.3 6.8 0 12-2.1 15.7-6.3s4.7-10.4 4.7-17.7c0-16.7-6.8-24.5-20.4-24.5-14.1-.1-20.9 8.3-20.9 24.5zM573.6 193.5c-21.9 0-39.1-6.3-51.7-18.3-12.5-12-18.8-29.2-18.8-51.7 0-23 5.7-40.7 17.2-53.2s27.1-18.8 47.5-18.8c19.3 0 34.4 5.7 44.9 16.7S629 94.4 629 113.7V132h-88.2c.5 10.4 3.7 18.8 9.4 25.1 5.7 6.3 14.1 8.9 24.5 8.9 8.4 0 16.2-1 23.5-2.6 7.3-1.6 15.1-4.7 23-8.4v28.7c-6.8 3.1-13.6 5.7-20.9 7.3-7.3 1.5-15.7 2.5-26.7 2.5zm-5.2-115.3c-7.8 0-14.1 2.6-18.8 7.3-4.7 4.7-7.3 12-7.8 21.4H594c0-9.4-2.6-16.2-7.3-21.4-4.7-5.2-10.4-7.3-18.3-7.3z" class="st1"/></g></g></switch></svg>