<svg xmlns="http://www.w3.org/2000/svg" xml:space="preserve" style="enable-background:new 0 0 539.1 170" viewBox="0 0 539.1 170"><path d="M67.4 67.4c-12.4-1.5-13.3-18-29.1-16.6-7.7 0-14.8 3.2-14.8 10.3 0 10.6 16.4 11.6 26.3 14.3C66.7 80.5 83 84 83 102.3c0 23.3-18.2 31.3-42.3 31.3C20.4 133.6 0 126.5 0 108c0-5.1 4.9-9.2 9.7-9.2 6 0 8.2 2.6 10.3 6.8 4.7 8.2 9.9 12.6 22.9 12.6 8.2 0 16.7-3.1 16.7-10.3 0-10.2-10.4-12.4-21.1-14.8-19-5.3-35.3-8-37.2-29.1-2-35.9 72.8-37.3 77.1-5.8-.1 5.7-5.4 9.2-11 9.2zm89-31.5c26.3 0 41.2 22 41.2 49.1 0 27.2-14.5 49.1-41.2 49.1-14.8 0-24.1-6.3-30.8-16V154c0 10.8-3.5 16-11.4 16-9.6 0-11.4-6.1-11.4-16V49.5c0-8.5 3.6-13.7 11.4-13.7 7.3 0 11.4 5.8 11.4 13.7v2.9c7.5-9.3 16-16.5 30.8-16.5zm-6.2 79.5c15.4 0 22.3-14.2 22.3-30.8 0-16.2-7-30.8-22.3-30.8-16 0-23.4 13.2-23.4 30.8 0 17.1 7.5 30.8 23.4 30.8zm65.3-53.9c0-18.9 21.7-25.6 42.8-25.6 29.6 0 41.8 8.6 41.8 37.2v27.5c0 6.5 4 19.5 4 23.4 0 6-5.5 9.7-11.4 9.7-6.5 0-11.4-7.7-14.8-13.2-9.6 7.7-19.8 13.2-35.4 13.2-17.2 0-30.8-10.2-30.8-26.9 0-14.8 10.6-23.4 23.4-26.3 0 .1 41.2-9.7 41.2-9.8 0-12.6-4.5-18.2-17.8-18.2-11.7 0-17.7 3.2-22.3 10.3-3.7 5.3-3.2 8.5-10.3 8.5-5.4-.2-10.4-4-10.4-9.8zm35.2 56.7c18 0 25.6-9.5 25.6-28.5v-4c-4.9 1.6-24.5 6.5-29.8 7.3-5.7 1.1-11.4 5.3-11.4 12 .3 7.4 7.8 13.2 15.6 13.2zM383.2.1c25.5 0 53 15.2 53 39.4 0 6.2-4.7 11.4-10.8 11.4-8.3 0-9.5-4.5-13.2-10.8-6.1-11.3-13.4-18.8-29.1-18.8-24.4-.2-35.3 20.7-35.3 46.7 0 26.2 9.1 45.1 34.3 45.1 16.8 0 26-9.7 30.8-22.3 1.9-5.8 5.4-11.4 12.6-11.4 5.7 0 11.4 5.8 11.4 12 0 25.6-26.2 43.4-53.1 43.4-29.5 0-46.2-12.5-55.3-33.2-4.5-9.9-7.3-20.2-7.3-34.3-.3-39.7 22.9-67.2 62-67.2zm145.7 35.8c6.5 0 10.3 4.2 10.3 10.8 0 2.7-2.1 8-2.9 10.8L505 139.8c-7 17.9-12.2 30.2-35.9 30.2-11.3 0-21.1-1-21.1-10.8 0-5.7 4.3-8.5 10.3-8.5 1.1 0 2.9.5 4 .5 1.7 0 2.9.5 4 .5 11.9 0 13.6-12.2 17.8-20.6l-30.2-74.8c-1.7-4-2.9-6.8-2.9-9.2 0-6.6 5.1-11.4 12-11.4 7.7 0 10.7 6 12.6 12.6l20 59.4 20-54.9c2.8-8.3 3.1-16.9 13.3-16.9z" style="fill:#09a3d5"/></svg>