<svg xmlns="http://www.w3.org/2000/svg" viewBox="0 0 227.06 151.85"><defs><style>.cls-2{fill:#3c3a3e}</style></defs><g id="Layer_2" data-name="Layer 2"><g id="design"><path d="M207.74 59.5a9 9 0 0 0-.42-.83c-2.85-5.42-5.7-10.84-8.55-16.19a1 1 0 0 1 .14-1.32c4.52-5.28 9-10.56 13.55-15.92a2.17 2.17 0 0 0 .35-.7l-4 1L192.45 30a.72.72 0 0 1-1-.42c-3.13-5.21-6.26-10.36-9.38-15.57a1.8 1.8 0 0 0-.7-.76c-.28 1.39-.49 2.78-.76 4.17-.83 4.87-1.74 9.8-2.57 14.67-.07.56-.21 1-.28 1.6a.89.89 0 0 1-.76.83c-6.46 2-12.86 4.1-19.32 6.12a1.75 1.75 0 0 0-.83.49l15.92 6.32c-.21.14-.35.28-.49.35-3.27 2.15-6.6 4.24-9.87 6.39a1 1 0 0 1-1.18.07c-4-1.74-7.85-3.54-11.82-5.28a12 12 0 0 1-4.59-3.34c-2.78-3.41-2.22-7.3 1.46-9.73a18.38 18.38 0 0 1 4-1.81c6.32-2.09 12.65-4 19-6a1.11 1.11 0 0 0 .9-1c.83-4.87 1.74-9.8 2.57-14.67.49-2.64.7-5.28 2-7.65a12.86 12.86 0 0 1 1.74-2.57 5.61 5.61 0 0 1 8.66-.21 17.08 17.08 0 0 1 2.37 3c2.92 4.8 5.84 9.59 8.69 14.39.35.56.63.7 1.25.49l21.2-5.63a9.62 9.62 0 0 1 4.44-.25c3.27.63 4.66 3.06 3.61 6.26a12.13 12.13 0 0 1-2.36 3.82c-4.93 5.77-9.87 11.61-14.8 17.38a1 1 0 0 0-.14 1.32c2.92 5.56 5.91 11.12 8.83 16.75a9.11 9.11 0 0 1 1.25 4.24 6.77 6.77 0 0 1-6 6.81 12.55 12.55 0 0 1-5.56-.7c-4.45-1.39-8.9-2.71-13.27-4-.42-.14-.56-.28-.63-.7-.49-3.13-1-6.26-1.6-9.38v-.4l15.29 4.1" style="fill:#e25a1c"/><path d="M199.12 105h-12a1.07 1.07 0 0 1-1.11-.63c-4.73-7.23-9.45-14.39-14.25-21.62l-.56-.83c-1 7.78-2 15.36-3 23h-10.5c.14-1 .21-2 .35-3 1-7.78 2-15.57 3.06-23.42 1-7.44 1.95-14.87 2.92-22.38a1.13 1.13 0 0 1 .35-.63c3.61-2.36 7.23-4.66 10.84-7 .07 0 .14-.07.28-.07l-3.27 24.88.14.07 17.1-19A25.69 25.69 0 0 0 190 57c.42 2.36.76 4.73 1.25 7.09a1.28 1.28 0 0 1-.35 1.11c-3.68 3.82-7.3 7.71-11 11.54-.14.14-.28.35-.49.56.14.21.21.35.35.56 6.32 8.83 12.58 17.72 18.9 26.55l.42.42v.17M75.13 82a22.52 22.52 0 0 0-.63-3.13c-1.74-5.42-7.3-8.34-13.07-7A14.55 14.55 0 0 0 50 84.66a10.48 10.48 0 0 0 6.81 11.05 12.31 12.31 0 0 0 11-1.25c4.54-2.71 6.97-6.74 7.32-12.46Zm-27.66 20.11c-.28 2.29-.63 4.52-.9 6.74-.42 2.92-.76 5.84-1.11 8.76-.07.35-.14.49-.49.49h-8.62c-.07 0-.14-.07-.28-.07.21-1.39.35-2.78.56-4.17l1.88-14.53c.76-5.56 1.32-11.05 2.29-16.54 1.67-9.73 9.94-18.14 19.6-20.23 5.63-1.18 11-.63 15.92 2.5a17.71 17.71 0 0 1 8.34 13.48c.9 8.13-2.09 14.87-7.85 20.43a24.78 24.78 0 0 1-13.55 6.81 19.89 19.89 0 0 1-15-3.27c-.28-.14-.49-.28-.76-.42m-4.69-46.2-9.45 7c-.49-.76-1-1.6-1.46-2.29a7.21 7.21 0 0 0-5.49-3.48 6.25 6.25 0 0 0-5.14 2 3.61 3.61 0 0 0-.21 4.8 53.39 53.39 0 0 0 4.1 4.8c2.36 2.57 4.8 5 7.16 7.58a16.11 16.11 0 0 1 4.38 8.13 16.57 16.57 0 0 1-1.95 10.77 20.39 20.39 0 0 1-15.5 10.91 20.17 20.17 0 0 1-9.1-.49 13.29 13.29 0 0 1-8.48-7.44C1 96.9.56 95.58 0 94.19l10.22-5.49a8.15 8.15 0 0 0 .35.76 20.57 20.57 0 0 0 1.81 3.48 6.91 6.91 0 0 0 9.1 2.57 11.78 11.78 0 0 0 2.5-1.6 5.29 5.29 0 0 0 1-7.3 31.14 31.14 0 0 0-3.34-4c-2.78-3.13-5.7-6.12-8.41-9.24a14.69 14.69 0 0 1-3.54-7.65 13.27 13.27 0 0 1 1.88-8.9c4.1-6.67 10.08-10.15 18-9.87a14.21 14.21 0 0 1 10.91 5.77c.63 1 1.39 2 2.29 3.2m76.52 35.79c-.56 4-1 7.85-1.53 11.68a.78.78 0 0 1-.35.56c-7.74 3.58-18.02 3.05-24.41-4.2a19 19 0 0 1-4.66-13.69c.49-12 10.43-22.38 22.24-23.84 7-.83 13 1 17.65 6.39a17.9 17.9 0 0 1 4.45 12.86c-.14 3.2-.63 6.32-1 9.52-.56 4.52-1.18 9-1.74 13.48 0 .14-.07.35-.07.49h-9.31c.14-1 .21-2 .35-3.06.7-5.21 1.39-10.36 2-15.57a17 17 0 0 0-1.32-9.45 9.11 9.11 0 0 0-7.71-5.21A14.6 14.6 0 0 0 98.28 83a10.72 10.72 0 0 0 4.31 11.61c3.61 2.43 7.51 2.43 11.47.83a16.79 16.79 0 0 0 5.28-3.75M158.6 63l-1.25 9.66h-5.84a3.68 3.68 0 0 0-3.48 2.5 7.57 7.57 0 0 0-.35 1.81l-2.92 22.31c-.28 1.88-.49 3.75-.76 5.63h-9.73c.21-1.46.35-2.78.56-4.17.63-4.8 1.25-9.59 1.88-14.46.56-4.17 1-8.34 1.67-12.51A13.59 13.59 0 0 1 150.4 63c2.71-.07 5.42 0 8.2 0M210.59 105v-4.1L209 105h-.56l-1.6-4.1v4.1H206v-5h1.25l1.46 3.75 1.46-3.75h1.25v5Zm-7.16-4.31v4.24h-.83v-4.24h-1.53V100H205v.63h-1.53M55.81 48.94h2.43l-.63-3.61Zm2.78 2.36h-4l-1.25 2.5h-2.88l6.26-11.68h2.71l2.15 11.68h-2.64l-.35-2.5m14.32-6.81h-1.46L71 47.2h1.46A1.48 1.48 0 0 0 74 45.6a1 1 0 0 0-1.09-1.11Zm-3.48-2.36h3.75a3.07 3.07 0 0 1 3.34 3.2 4.11 4.11 0 0 1-4.31 4.24h-1.6l-.76 4.31h-2.43l2-11.75m15.36 6.81h2.43l-.56-3.61Zm2.85 2.36h-4l-1.25 2.5h-2.87l6.26-11.68h2.71l2.15 11.68H88l-.35-2.5m15.78 2.09a7 7 0 0 1-2.64.63 4.87 4.87 0 0 1-5-5.21 6.91 6.91 0 0 1 6.8-6.81 4.7 4.7 0 0 1 2.43.63l-.35 2.78a3.11 3.11 0 0 0-2.36-1 4.2 4.2 0 0 0-4 4.17 2.82 2.82 0 0 0 2.78 3.06 4.43 4.43 0 0 0 2.71-1l-.35 2.71m14.94-4.31h-5.07l-.83 4.73H110l2.09-11.68h2.43l-.83 4.66h5.07l.83-4.66H122l-2 11.72h-2.43l.83-4.73m9 4.73 2.09-11.68h6.46l-.42 2.36h-4l-.53 2.3h3.68l-.42 2.36h-3.66l-.42 2.36h4l-.42 2.36h-6.46M121 151.25h-4V121h5.88l8.65 25.73 8.55-25.73H146v30.23h-4v-25.57l-8.52 25.59h-3.95L121 125.74ZM152.2 151.25V121h4.09v26.61h15.32v3.62ZM175.23 121h3.7v30.23h-3.7ZM184.59 121h3.79v4.2h-3.79Zm0 8.23h3.7v22h-3.7ZM193.58 121h3.7v11.1a7.22 7.22 0 0 1 6.27-3.52 8.5 8.5 0 0 1 6.84 3 12 12 0 0 1 2.52 8q0 5.74-2.54 9a8.43 8.43 0 0 1-7 3.26 7.09 7.09 0 0 1-5.97-2.84l-.35-.45v2.71h-3.48Zm9.56 27.62a5 5 0 0 0 4.4-2.19 11.28 11.28 0 0 0 1.5-6.39q0-4.13-1.44-6.12a5.12 5.12 0 0 0-4.44-2 4.89 4.89 0 0 0-4.47 2.24q-1.41 2.24-1.41 7.1a8.54 8.54 0 0 0 1.52 5.43 5.22 5.22 0 0 0 4.34 1.95Z" class="cls-2"/></g></g></svg>