<svg xmlns="http://www.w3.org/2000/svg" xml:space="preserve" id="design" x="0" y="0" style="enable-background:new 0 0 326.9 170" version="1.1" viewBox="0 0 326.9 170"><style>.st1{fill:#3c3a3e}</style><path d="M299 85.8c-.3-.6-.4-.9-.6-1.2-4.1-7.8-8.2-15.6-12.3-23.3-.4-.8-.4-1.2.2-1.9 6.5-7.6 13-15.2 19.5-22.9.2-.3.4-.6.5-1l-5.7 1.5c-7.9 2.1-15.7 4.2-23.6 6.3-.7.2-1.1 0-1.4-.6-4.5-7.5-9-14.9-13.5-22.4-.2-.4-.5-.8-1-1.1-.4 2-.7 4-1.1 6-1.2 7-2.5 14.1-3.7 21.1-.1.8-.3 1.5-.4 2.3-.1.7-.4 1-1.1 1.2-9.3 2.9-18.5 5.9-27.8 8.8-.4.1-.8.3-1.2.7l22.9 9.1c-.3.2-.5.4-.7.5-4.7 3.1-9.5 6.1-14.2 9.2-.6.4-1 .4-1.7.1-5.7-2.5-11.3-5.1-17-7.6-2.5-1.1-4.8-2.6-6.6-4.8-4-4.9-3.2-10.5 2.1-14 1.8-1.1 3.8-2 5.7-2.6 9.1-3 18.2-5.8 27.3-8.7.8-.2 1.1-.6 1.3-1.4 1.2-7 2.5-14.1 3.7-21.1.7-3.8 1-7.6 2.9-11 .7-1.3 1.5-2.6 2.5-3.7 3.6-4 8.7-4.2 12.5-.3 1.3 1.3 2.4 2.8 3.4 4.4 4.2 6.9 8.4 13.8 12.5 20.7.5.8.9 1 1.8.7 10.2-2.7 20.3-5.4 30.5-8.1 2.1-.6 4.2-.8 6.4-.4 4.7.9 6.7 4.4 5.2 9-.7 2.1-2 3.8-3.4 5.5-7.1 8.3-14.2 16.7-21.3 25-.6.7-.6 1.2-.2 1.9 4.2 8 8.5 16 12.7 24.1 1 1.9 1.8 3.9 1.8 6.1.1 5-3.6 9.1-8.6 9.8-2.8.4-5.4-.2-8-1-6.4-2-12.8-3.9-19.1-5.8-.6-.2-.8-.4-.9-1-.7-4.5-1.5-9-2.3-13.5v-.5l22 5.9" style="fill:#e25a1c"/><path d="M286.6 151.2h-17.2c-.8 0-1.2-.2-1.6-.9-6.8-10.4-13.6-20.7-20.5-31.1l-.8-1.2c-1.5 11.2-2.9 22.1-4.3 33.1H227c.2-1.5.3-2.9.5-4.3 1.5-11.2 2.9-22.4 4.4-33.7 1.4-10.7 2.8-21.4 4.2-32.2 0-.3.3-.7.5-.9 5.2-3.4 10.4-6.7 15.6-10.1.1 0 .2-.1.4-.1l-4.7 35.8.2.1 24.6-27.3c.2 1.4.4 2.6.7 3.8.6 3.4 1.1 6.8 1.8 10.2.1.7-.1 1.1-.5 1.6-5.3 5.5-10.5 11.1-15.8 16.6-.2.2-.4.5-.7.8.2.3.3.5.5.8 9.1 12.7 18.1 25.5 27.2 38.2l.6.6v.2m-178.3-33c-.2-1.2-.4-2.9-.9-4.5-2.5-7.8-10.5-12-18.8-10.1-9 2-15.5 9.2-16.5 18.4-.7 6.8 3 13.4 9.8 15.9 5.5 2 10.8 1.2 15.8-1.8 6.6-3.9 10.1-9.7 10.6-17.9zm-39.8 28.9c-.4 3.3-.9 6.5-1.3 9.7-.6 4.2-1.1 8.4-1.6 12.6-.1.5-.2.7-.7.7H52.4c-.1 0-.2-.1-.4-.1.3-2 .5-4 .8-6 .9-7 1.8-13.9 2.7-20.9 1.1-8 1.9-15.9 3.3-23.8 2.4-14 14.3-26.1 28.2-29.1 8.1-1.7 15.8-.9 22.9 3.6 7 4.5 11.1 11.1 12 19.4 1.3 11.7-3 21.4-11.3 29.4-5.5 5.3-12 8.6-19.5 9.8-7.8 1.2-15-.1-21.6-4.7-.4-.2-.7-.4-1.1-.6m-6.7-66.5L48.1 90.7c-.7-1.1-1.4-2.3-2.1-3.3-1.9-2.7-4.4-4.8-7.9-5-2.9-.2-5.4.8-7.4 2.9-1.8 1.9-2 4.7-.3 6.9 1.8 2.4 3.8 4.7 5.9 6.9 3.4 3.7 6.9 7.2 10.3 10.9 3.1 3.4 5.5 7.1 6.3 11.7.9 5.5-.2 10.7-2.8 15.5-4.8 8.9-12.3 14.1-22.3 15.7-4.4.7-8.8.6-13.1-.7-5.7-1.7-9.7-5.4-12.2-10.7-.9-1.9-1.6-3.8-2.4-5.8l14.7-7.9c.2.4.3.8.5 1.1.8 1.7 1.5 3.5 2.6 5 3.1 4.6 8 6 13.1 3.7 1.3-.6 2.5-1.4 3.6-2.3 3.3-2.9 3.9-6.9 1.5-10.5-1.4-2.1-3.1-4-4.8-5.8-4-4.5-8.2-8.8-12.1-13.3-2.7-3.1-4.5-6.8-5.1-11-.6-4.6.3-8.9 2.7-12.8 5.9-9.6 14.5-14.6 25.9-14.2 6.5.2 11.7 3.3 15.7 8.3.9 1.4 2 2.9 3.3 4.6m110.1 51.5c-.8 5.8-1.5 11.3-2.2 16.8 0 .3-.3.7-.5.8-11.2 5.2-26 4.5-35.2-6-4.9-5.6-7-12.3-6.7-19.7.7-17.2 15-32.2 32-34.3 10-1.2 18.7 1.5 25.4 9.2 4.6 5.3 6.7 11.6 6.4 18.5-.2 4.6-.9 9.1-1.5 13.7-.8 6.5-1.7 12.9-2.5 19.4 0 .2-.1.5-.1.7h-13.4c.2-1.5.3-2.9.5-4.4 1-7.5 2-14.9 2.9-22.4.5-4.7.2-9.3-1.9-13.6-2.3-4.6-6.1-7-11.1-7.5-10.3-1.1-20.2 6.1-22.4 16.3-1.5 6.7.8 13.1 6.2 16.7 5.2 3.5 10.8 3.5 16.5 1.2 2.8-1.2 5.2-3 7.6-5.4m56.5-41.2-1.8 13.9h-8.4c-2.3 0-4.3 1.5-5 3.6-.3.8-.4 1.7-.5 2.6l-4.2 32.1c-.4 2.7-.7 5.4-1.1 8.1h-14c.3-2.1.5-4 .8-6 .9-6.9 1.8-13.8 2.7-20.8.8-6 1.5-12 2.4-18 1.3-8 9.2-15.1 17.3-15.5 3.9-.1 7.8 0 11.8 0M303.1 151.2v-5.9l-2.3 5.9h-.8l-2.3-5.9v5.9h-1.2v-7.1h1.8l2.1 5.4 2.1-5.4h1.8v7.1h-1.2zm-10.3-6.2v6.1h-1.2V145h-2.2v-.9h5.6v.9h-2.2M80.4 70.6h3.5l-.9-5.2-2.6 5.2zm4 3.4h-5.8l-1.8 3.6h-4.1l9-16.8h3.9l3.1 16.8h-3.8l-.5-3.6m20.6-9.8h-2.1l-.7 3.9h2.1c1.2 0 2.2-.8 2.2-2.3 0-1.1-.6-1.6-1.5-1.6zm-5-3.4h5.4c2.8 0 4.8 1.7 4.8 4.6 0 3.6-2.6 6.1-6.2 6.1h-2.3l-1.1 6.2h-3.5l2.9-16.9m22.1 9.8h3.5l-.8-5.2-2.7 5.2zm4.1 3.4h-5.8l-1.8 3.6h-4.1l9-16.8h3.9l3.1 16.8h-3.8l-.5-3.6m22.7 3c-1.2.5-2.5.9-3.8.9-4.5 0-7.2-3.3-7.2-7.5 0-5.3 4.5-9.8 9.8-9.8 1.3 0 2.5.3 3.5.9l-.5 4c-.7-.8-1.9-1.4-3.4-1.4-3.1 0-5.8 2.8-5.8 6 0 2.4 1.5 4.4 4 4.4 1.5 0 2.9-.6 3.9-1.4l-.5 3.9m21.5-6.2h-7.3l-1.2 6.8h-3.5l3-16.8h3.5l-1.2 6.7h7.3l1.2-6.7h3.5l-3 16.8h-3.5l1.2-6.8m12.9 6.8 3-16.8h9.3l-.6 3.4h-5.8l-.6 3.3h5.3l-.6 3.4H188l-.6 3.4h5.8l-.6 3.4h-9.3" class="st1"/></svg>