<svg xmlns="http://www.w3.org/2000/svg" xml:space="preserve" id="Layer_1" x="0" y="0" style="enable-background:new 0 0 546.1 170" version="1.1" viewBox="0 0 546.1 170"><style>.st0{fill:#00a4d3}.st1{fill:#a179dc}.st2{fill:#280068}.st3{fill:#390091}.st5{fill:#000400}.st6{fill:url(#SVGID_1_)}.st7{fill:url(#SVGID_2_)}.st8{fill:url(#SVGID_3_)}.st9{fill:#ec2024}.st10{fill:#008ac7}.st12{fill:#4a4a4a}</style><switch><g><path d="M169.5 46.9v-5.1c0-3.7-.3-7.5-1.1-11.2-.5-3.7-1.9-7.2-3.5-10.7-3.2-6.4-8.8-11.8-15.5-15.3-3.2-1.6-7-2.9-10.7-3.5S131.2.3 127.5 0H38.7c-2.7 0-5.6.3-8.3.8s-5.4 1.3-8 2.4C18.2 5.1 14.2 7.5 11 11c-2.7 2.7-4.8 5.6-6.4 9.1-1.6 3.5-2.9 7-3.5 10.7S.3 38.3 0 42v86c0 3.7.3 7.5 1.1 11.2.5 3.7 1.9 7.2 3.5 10.7 3.5 6.7 8.8 12 15.5 15.5 3.5 1.6 7 2.9 10.7 3.5 3.7.5 7.5.8 11.2 1.1h86c3.7 0 7.5-.3 11.2-1.1 3.7-.5 7.2-1.9 10.7-3.5 6.7-3.5 12-8.8 15.5-15.5 1.6-3.5 2.9-7 3.5-10.7.5-3.7.8-7.5 1.1-11.2V53c-.5-1.9-.5-4-.5-6.1z" style="fill:#f05138"/><path d="M134.4 104.7c.3-.5.3-1.3.5-1.9 7-28.1-10.2-61.3-39.1-78.7 12.9 17.1 18.5 38.3 13.4 56.5-.5 1.6-1.1 3.2-1.6 4.8-.8-.5-1.6-1.1-2.4-1.6 0 0-28.9-17.9-60.2-49.5-.8-.8 16.6 25.2 36.7 46C72.3 75 46 56 29.7 41c2.1 3.5 4.6 6.7 7.2 9.9 14 17.4 31.9 39.1 53.3 55.7-15.3 9.4-36.7 9.9-57.8 0-5.4-2.4-10.2-5.4-14.7-8.8 9.6 15.3 23.6 27 39.9 34.3 20.1 8.6 40.2 8 55.1.3 0 0 .3 0 .3-.3.5-.3 1.3-.5 1.9-1.1 7.2-3.7 21.4-7.5 28.9 7.2 1 3.7 5.1-15.6-9.4-33.5z" style="fill:#fff"/><path d="M234 110c1.3 11.8 12.6 19.5 28.1 19.5 14.7 0 25.4-7.8 25.4-18.5 0-9.1-6.4-14.7-21.4-18.5l-14.5-3.7c-20.6-5.1-30-14.5-30-30 0-19 16.6-32.1 40.2-32.1 23 0 39.1 13.1 39.6 32.4h-15.3c-1.1-11.8-10.7-18.7-24.9-18.7s-23.8 7.2-23.8 17.9c0 8.3 6.2 13.1 21.1 16.9l12 3.2c23.3 5.6 32.7 14.7 32.7 31.1 0 20.6-16.3 33.7-42.6 33.7-24.4 0-41-12.9-42-32.9l15.4-.3zm165.7 31.1h-15.3L366.5 79h-.3l-17.7 62.1h-15.3l-22.5-81.4h14.7l15.8 65.3h.3l17.7-65.3h14.5l17.9 65.3h.3l15.8-65.3h14.7l-22.7 81.4zm32.4-103.4c0-4.8 4-8.8 8.8-8.8 5.1 0 9.1 4 9.1 8.8s-4 8.8-9.1 8.8c-4.8.4-8.8-3.7-8.8-8.8zm1.6 22h15v81.4h-15V59.7zm112.2 12v-12h-15.8V40.2h-14.7v19.5H487v-7.2c0-7.2 2.9-10.2 9.6-10.2 2.1 0 4.3.3 6.2.5V31.1c-2.7-.5-5.4-.5-7.8-.5-15.8 0-22.5 6.7-22.5 21.7v7.5h-11.2v12h11.2v69.3h14.7V71.7h28.4v48.2c0 15.8 5.9 21.7 21.7 21.7 3.5 0 7.2-.3 8.8-.5v-12c-1.9.3-3.7.3-5.6.3-7 0-10.2-3.2-10.2-10.7v-47h15.6z"/></g></switch></svg>