<svg xmlns="http://www.w3.org/2000/svg" xmlns:xlink="http://www.w3.org/1999/xlink" data-name="Layer 1" viewBox="0 0 200 200"><defs><linearGradient id="b" x1="-382.71" x2="-385.94" y1="1211.72" y2="1207.73" gradientTransform="translate(7578.66 -23542.92) scale(19.53)" gradientUnits="userSpaceOnUse"><stop offset=".06" stop-color="#0cb0f2"/><stop offset=".21" stop-color="#10adf2"/><stop offset=".37" stop-color="#1ea5f3"/><stop offset=".54" stop-color="#3497f5"/><stop offset=".71" stop-color="#5283f7"/><stop offset=".88" stop-color="#796af9"/><stop offset=".97" stop-color="#905cfb"/></linearGradient><linearGradient id="a" x1="-386.38" x2="-384.76" y1="1215.2" y2="1211.46" gradientTransform="translate(7578.66 -23542.92) scale(19.53)" gradientUnits="userSpaceOnUse"><stop offset=".06" stop-color="#0cb0f2"/><stop offset=".2" stop-color="#0db2ee"/><stop offset=".35" stop-color="#12b7e0"/><stop offset=".51" stop-color="#19c0ca"/><stop offset=".68" stop-color="#23ccac"/><stop offset=".85" stop-color="#30dc85"/><stop offset=".97" stop-color="#3bea62"/></linearGradient><linearGradient xlink:href="#a" id="c" x1="-384.16" x2="-381" y1="1210.29" y2="1206.23"/><linearGradient id="d" x1="-382.93" x2="-382.93" y1="1207.49" y2="1213.89" gradientTransform="translate(7578.66 -23542.92) scale(19.53)" gradientUnits="userSpaceOnUse"><stop offset="0"/><stop offset="1"/></linearGradient></defs><path d="M71.89 4.6a39.06 39.06 0 0 0-8.64-3.12C23.1-8.05-6.73 31.32 9.67 67.09c.16.16 29.21 63.89 33.9 74 0 0 53.43-24.53 64.36-49.68C118.06 68 101 25.25 97.86 18.83Z" style="fill:url(#b)"/><path d="M192.6 75.7a38.06 38.06 0 0 0-13.43-12.5c-.16 0-37.65-20.62-37.65-20.62S12.79 117.21 12.65 117.41C-1.88 134-5.16 160.21 11.56 183a39.4 39.4 0 0 0 20.31 14.37c15.15 4.69 28.59 2.81 39.84-3.12.31-.16 105.76-56.08 106.07-56.4 20.61-10.78 30.15-38.27 14.83-62.18Z" style="fill:#0cb0f2"/><path d="m60.18 59.31-34.37 42.18-13.33 15.92C-2 134-5.33 160.21 11.39 183a39.4 39.4 0 0 0 20.31 14.39c15.15 4.69 28.74 2.81 40-3.12 0 0 2.66-1.41 7.19-3.91 14.28-7.72 34-59.6 47.41-99.72Z" style="fill:url(#a)"/><path d="m114.2 99.91 27.32-57.69a.16.16 0 0 1 .16-.16c.16-.47 2.34-6.09 2.5-6.41a26.56 26.56 0 0 0-2.81-24.84A22.32 22.32 0 0 0 127.46 1a25.62 25.62 0 0 0-26.71 8.9c-.16.16-6.09 7-6.09 7L50.91 70.81Z" style="fill:url(#c)"/><path d="M37.63 37.42h125v125h-125Z" style="fill:url(#d)"/><path d="M67 65.07H50.13V54.14H95.9v10.93H79.19v43.1H67Zm28.9 16.2C95.9 65.65 107.46 53 124.18 53c10.15 0 16.4 3.44 21.4 8.44l-7.65 8.75c-4.22-3.75-8.44-6.09-13.9-6.09-9.06 0-15.78 7.65-15.78 16.87v.16c0 9.37 6.41 17 15.78 17 6.25 0 10-2.5 14.22-6.41l7.65 7.65c-5.62 5.94-11.72 9.69-22.18 9.69A27.2 27.2 0 0 1 95.9 82.51v-1.23m-45.77 56.13H95.9v8.28H50.13Z" style="fill:#fff"/></svg>