<svg xmlns="http://www.w3.org/2000/svg" xmlns:xlink="http://www.w3.org/1999/xlink" viewBox="0 0 223.58 119.44"><defs><linearGradient id="linear-gradient" x1="80.25" x2="148.26" y1="-150.38" y2="-150.38" gradientTransform="matrix(1 0 0 -1 0 -117.79)" gradientUnits="userSpaceOnUse"><stop offset="0" stop-color="#ff6f00"/><stop offset="1" stop-color="#ffa800"/></linearGradient><linearGradient xlink:href="#linear-gradient" id="linear-gradient-2" x1="79.88" x2="147.89" y1="-150.38" y2="-150.38"/><clipPath id="clip-path"><path d="M140.75 16.02 113.02.25v64.8l11.09-6.4V40.41l8.38 4.81-.12-12.45-8.26-4.8V20.7l16.64 9.73V16.02z" class="cls-1"/></clipPath><clipPath id="clip-path-2"><path d="M82.84 16.02 110.56.25v64.8l-11.09-6.4V20.7l-16.63 9.73V16.02z" class="cls-1"/></clipPath><style>.cls-1{fill:none}.cls-6{fill:#425066}</style></defs><g id="Layer_2" data-name="Layer 2"><g id="Layer_1-2" data-name="Layer 1"><g style="clip-path:url(#clip-path)"><path d="M80.25 0h68v65.18h-68Z" style="fill:url(#linear-gradient)"/></g><g style="clip-path:url(#clip-path-2)"><path d="M79.88 0h68v65.18h-68Z" style="fill:url(#linear-gradient-2)"/></g><path d="M25.72 91.09h-10v27.83H10V91.09H0v-4.52h25.72Z" class="cls-6"/><path d="M32.46 119.33a11.36 11.36 0 0 1-8.34-3.22 11.76 11.76 0 0 1-3.22-8.64v-.7a14.29 14.29 0 0 1 1.41-6.43 11.09 11.09 0 0 1 3.92-4.42 10.18 10.18 0 0 1 5.63-1.61c3.32 0 5.83 1 7.64 3.12s2.71 5 2.71 8.84v2.21H26.43a7.46 7.46 0 0 0 2 4.72 5.61 5.61 0 0 0 4.42 1.71 7.16 7.16 0 0 0 6-3l2.91 2.81A10.07 10.07 0 0 1 38 118a10 10 0 0 1-5.54 1.33Zm-.6-20.6a4.45 4.45 0 0 0-3.62 1.51 7.46 7.46 0 0 0-1.71 4.32h10.35v-.4a6.7 6.7 0 0 0-1.41-4.16 5.35 5.35 0 0 0-3.62-1.27Zm19.49-3.92.2 2.81a8.67 8.67 0 0 1 7-3.22c5 0 7.54 2.91 7.64 8.64v15.88h-5.4v-15.57a5 5 0 0 0-1-3.42 4.28 4.28 0 0 0-3.22-1.11 5.26 5.26 0 0 0-4.92 2.91v17.08h-5.43v-24.1Zm32.36 17.59a2.52 2.52 0 0 0-1.21-2.21 11.28 11.28 0 0 0-3.92-1.31 19.14 19.14 0 0 1-4.58-1.51c-2.71-1.31-4-3.22-4-5.63a6.67 6.67 0 0 1 2.61-5.23 10.28 10.28 0 0 1 6.63-2.11 10.58 10.58 0 0 1 6.93 2.11 6.67 6.67 0 0 1 2.56 5.49H83.3a3.38 3.38 0 0 0-1.21-2.61 4.32 4.32 0 0 0-3.12-1 5.12 5.12 0 0 0-2.91.8 2.67 2.67 0 0 0-1.06 2.25 2.29 2.29 0 0 0 1 1.91 14.17 14.17 0 0 0 4.22 1.41 18.57 18.57 0 0 1 5 1.71 6.7 6.7 0 0 1 2.71 2.31 6.44 6.44 0 0 1-1.81 8.54 13.14 13.14 0 0 1-12.26.9 8.5 8.5 0 0 1-3.62-2.91 7.36 7.36 0 0 1-1.31-4h5.23a3.71 3.71 0 0 0 1.41 2.91 5.54 5.54 0 0 0 3.52 1 5.6 5.6 0 0 0 3.22-.8 2.09 2.09 0 0 0 1.41-2Zm8.14-5.73a13.59 13.59 0 0 1 1.41-6.33A10.2 10.2 0 0 1 97.17 96a11 11 0 0 1 5.83-1.49 10.52 10.52 0 0 1 7.94 3.12 12.58 12.58 0 0 1 3.32 8.34v1.31a13.88 13.88 0 0 1-1.41 6.33 9.6 9.6 0 0 1-3.92 4.32 11.1 11.1 0 0 1-5.93 1.51 10.2 10.2 0 0 1-8.14-3.44c-2-2.21-3-5.23-3.12-9Zm5.33.5a9.81 9.81 0 0 0 1.5 5.83 5.41 5.41 0 0 0 7.54 1 4.76 4.76 0 0 0 1-1 10.76 10.76 0 0 0 1.51-6.23 9.53 9.53 0 0 0-1.61-5.83 5.38 5.38 0 0 0-7.44-1.11 11 11 0 0 0-1.11 1 12.83 12.83 0 0 0-1.4 6.34Zm33.26-7.34a16.43 16.43 0 0 0-2.21-.2c-2.51 0-4.12.9-5 2.81v16.48h-5.43V94.81h5.12l.1 2.71a6 6 0 0 1 5.43-3.12 6.31 6.31 0 0 1 1.91.3l.1 5.12Zm22.56 5.33h-13v13.77h-5.63V86.57H155v4.52h-15v9.65h13Zm10.75 13.77h-5.43V86.47h5.43Zm3.92-12.26a13.59 13.59 0 0 1 1.41-6.33A10.2 10.2 0 0 1 173 96a11 11 0 0 1 5.83-1.51 10.52 10.52 0 0 1 7.94 3.12 12.58 12.58 0 0 1 3.32 8.34v1.31a15.21 15.21 0 0 1-1.31 6.33 9.6 9.6 0 0 1-3.92 4.32 11.1 11.1 0 0 1-5.93 1.51 10.2 10.2 0 0 1-8.14-3.42 13 13 0 0 1-3.12-9v-.3Zm5.43.5a9.81 9.81 0 0 0 1.51 5.83 5 5 0 0 0 4.32 2.11 4.67 4.67 0 0 0 4.22-2.11 10.76 10.76 0 0 0 1.51-6.23 9.53 9.53 0 0 0-1.61-5.83 5.38 5.38 0 0 0-7.44-1.11 11 11 0 0 0-1.11 1 11.81 11.81 0 0 0-1.36 6.34Zm41.4 4.32 3.82-16.58h5.23l-6.5 24.09h-4.42l-5.12-16.58-5.13 16.58H198l-6.63-24.12h5.33l3.92 16.48 4.92-16.48h4.12l4.92 16.58Z" class="cls-6"/></g></g></svg>