<svg xmlns="http://www.w3.org/2000/svg" xml:space="preserve" id="Layer_1" x="0" y="0" style="enable-background:new 0 0 300 117" version="1.1" viewBox="0 0 300 117"><style>.st1{fill:#fcfdfc}.st2{fill:#4abd4a}.st3{fill:#1d1e1c}</style><path d="M0 116.4V.2h116.3v116.3c-38.9-.1-77.6-.1-116.3-.1zm36.5-45.8c-7-.4-14.1-.9-21.2-1.3v13.4c0 .7.5.9 1 1 4.1 1.3 8.2 2.3 12.3 3.4 5.7 1.5 11.3 3.3 17.1 4.6 5.5 1.2 10.8 2.9 16.2 4.4 5.8 1.6 11.7 3.2 17.5 4.8.9.2 1.9.6 2.8.1 2.1-1.1 4.3-1.9 6.5-2.8 3.5-1.4 7.1-2.9 10.6-4.4.4.1.8 0 .9-.5.2-.1.4-.2.6-.4.8-.3.5-1 .5-1.5V82c0-.7.2-1.3-.2-2v-7.3c-.5-.8-1.6-.8-2.7 0-1.9.1-3.8.2-5.6.3-4.9.2-9.7 1-14.6.5-.9-.7-1.9-.5-2.9-.3-.7 0-1.3-.1-2-.1-1.2-.7-2.6-.4-3.9-.3-5.3 0-10.6-.9-15.9-1-1.3-.9-2.8-.4-4.2-.4-.6 0-1.3 0-1.9-.1-1.5-.4-3.1-.8-4.6-.3h-2.4c-1.2-.9-2.5-.4-3.9-.4zM15 47.5c3.3-.4 6.4-.4 9.5-.6l28.8-2.1c5.7-.4 11.5-.5 17.2-1.1 7.7-.8 15.3-.8 23 0 2.4.2 4.8 0 7.2 0V24.5c0-.7-.4-.9-.9-1.1-2.9-1.2-5.7-2.4-8.6-3.6-3.3-1.4-6.5-2.8-9.8-4.2-.5-.2-.9-.2-1.5 0-3.8 1.1-7.7 2.2-11.5 3.2-4.4 1.2-8.8 2.4-13.2 3.5-4.5 1.2-9 2.5-13.6 3.7-4.3 1.2-8.7 2.3-13.1 3.5-4 1.1-8.1 2.1-12.1 3.2-.4.2-1.4.2-1.4 1.3v13.5zm.2 19.7c28.6 1 57 1.9 85.6 2.9V47.5c0-1-.6-.9-1.3-.9-2 .1-4.1.2-6.1.3-10.9.4-21.9.7-32.8 1.1-14.8.5-29.5 1.1-44.3 1.7-.4 0-.9-.1-1.1.1v17.4z" style="fill:#7d7d7d"/><path d="M0 116.4h116.3V.1c.6.3.3.8.3 1.2v115.4H1.4c-.5 0-1.1.4-1.4-.3z" class="st1"/><path d="M15 47.5V34.1c0-1.1 1-1.1 1.6-1.3 4-1.1 8.1-2.2 12.1-3.2 4.4-1.2 8.7-2.3 13.1-3.5 4.5-1.2 9-2.5 13.6-3.7 4.4-1.2 8.8-2.4 13.2-3.5 3.8-1 7.7-2.1 11.5-3.2.5-.2.9-.2 1.5 0 3.2 1.4 6.5 2.9 9.8 4.2 2.9 1.2 5.7 2.4 8.6 3.6.5.2.9.4.9 1.1v19.2c-2.4 0-4.8.2-7.2 0-7.7-.8-15.3-.8-23 0-5.7.6-11.5.7-17.2 1.1L24.7 47c-3.3 0-6.4.1-9.7.5zM99.4 93.8c-3.5 1.5-7 3-10.6 4.4-2.2.9-4.4 1.7-6.5 2.8-.9.5-1.9.2-2.8-.1-5.8-1.6-11.7-3.2-17.5-4.8-5.4-1.5-10.7-3.2-16.2-4.4-5.8-1.3-11.4-3.1-17.1-4.6-4.1-1.1-8.3-2.1-12.3-3.4-.5-.2-1-.3-1-1V69.3c7.1.4 14.2.9 21.2 1.3 1.3.6 2.6.5 3.9.4.8 0 1.5.1 2.3.1 1.5.3 3.1.5 4.6.3.6 0 1.3 0 1.9.1 1.4.6 2.8.5 4.2.4 5.3.1 10.6 1 15.9 1 1.3.4 2.5.6 3.9.3.7 0 1.3.1 2 .1 1 .3 1.9.4 2.9.3 4.9.5 9.8-.2 14.6-.5 1.9-.1 3.8-.2 5.6-.3h2.7v7.3c-.3.3-.2.7-.2 1.1-.1 3.9-.1 7.8-.1 11.7-.2.1-.4.2-.6.4-.3-.1-.6.1-.8.5zM15.2 67.2V49.8c.3-.2.7-.1 1.1-.1 14.8-.6 29.5-1.1 44.3-1.7 10.9-.4 21.9-.7 32.8-1.1 2-.1 4.1-.2 6.1-.3.6 0 1.3-.1 1.3.9v22.6c-28.5-.9-56.9-1.9-85.6-2.9z" class="st1"/><path d="M100.9 92.9c0-3.9.1-7.8.1-11.7 0-.4-.1-.8.2-1.1.4.6.2 1.3.2 2v9.4c0 .5.3 1.1-.5 1.4zM47.4 71.4c-1.6.2-3.1-.1-4.6-.3 1.5-.5 3-.1 4.6.3zM53.5 71.9c-1.4.1-2.8.1-4.2-.4 1.4-.1 2.9-.5 4.2.4zM40.4 71c-1.3.1-2.6.1-3.9-.4 1.4 0 2.7-.5 3.9.4zM73.3 73.2c-1.3.2-2.6.1-3.9-.3 1.3-.1 2.7-.4 3.9.3zM101.2 72.8h-2.7c1.1-.7 2.2-.7 2.7 0zM78.2 73.6c-1 .2-2 0-2.9-.3 1-.2 2-.5 2.9.3zM99.4 93.8c.2-.3.5-.6.9-.5-.2.4-.5.6-.9.5z" class="st2"/><path d="M144.5 46.6h-2.9V24.3h-7.9v-2.6h18.7v2.6h-7.9v22.3zM163.6 46.9c-2.8 0-4.9-.8-6.5-2.5-1.6-1.7-2.4-4-2.4-7s.7-5.4 2.2-7.2c1.5-1.8 3.5-2.7 6-2.7 2.3 0 4.2.8 5.6 2.3 1.4 1.5 2 3.6 2 6.1v1.8h-12.9c.1 2.2.6 3.9 1.7 5s2.5 1.7 4.4 1.7c2 0 4-.4 6-1.3v2.5c-1 .4-1.9.7-2.8.9-.9.3-2 .4-3.3.4zm-.7-17c-1.5 0-2.7.5-3.6 1.5-.9 1-1.4 2.3-1.6 4.1h9.8c0-1.8-.4-3.2-1.2-4.1-.8-1-1.9-1.5-3.4-1.5zM187.4 41.5c0 1.7-.6 3.1-1.9 4-1.3.9-3.1 1.4-5.5 1.4-2.5 0-4.4-.4-5.8-1.2v-2.6c.9.5 1.9.8 2.9 1.1 1 .3 2 .4 3 .4 1.5 0 2.6-.2 3.4-.7.8-.5 1.2-1.2 1.2-2.2 0-.7-.3-1.3-.9-1.9-.6-.5-1.9-1.1-3.7-1.8-1.7-.6-3-1.2-3.7-1.7-.7-.5-1.3-1-1.6-1.6-.4-.6-.5-1.3-.5-2.2 0-1.5.6-2.7 1.9-3.6 1.2-.9 2.9-1.3 5.1-1.3 2 0 4 .4 5.9 1.2l-1 2.3c-1.9-.8-3.6-1.2-5.1-1.2-1.3 0-2.4.2-3 .6-.7.4-1 1-1 1.7 0 .5.1.9.4 1.3.3.4.7.7 1.2 1 .6.3 1.7.8 3.3 1.4 2.2.8 3.7 1.6 4.5 2.4.5.9.9 2 .9 3.2zM198 44.6c.5 0 1 0 1.4-.1.5-.1.8-.2 1.1-.2v2.2c-.3.1-.8.3-1.4.4-.6.1-1.1.1-1.6.1-3.6 0-5.4-1.9-5.4-5.7V30.1h-2.7v-1.4l2.7-1.2 1.2-4h1.6v4.3h5.4V30H195v11c0 1.1.3 2 .8 2.6.6.7 1.3 1 2.2 1zM218.8 40c0 2.2-.8 3.9-2.4 5.1s-3.7 1.8-6.5 1.8c-3 0-5.2-.4-6.8-1.1V43c1 .4 2.1.8 3.3 1 1.2.3 2.4.4 3.6.4 1.9 0 3.4-.4 4.4-1.1s1.5-1.8 1.5-3.1c0-.9-.2-1.6-.5-2.1-.3-.6-.9-1.1-1.7-1.5-.8-.5-2-1-3.7-1.6-2.3-.8-4-1.8-5-2.9-1-1.1-1.5-2.6-1.5-4.4 0-1.9.7-3.4 2.2-4.6 1.4-1.1 3.4-1.7 5.7-1.7 2.5 0 4.8.5 6.8 1.4l-.9 2.5c-2.1-.9-4.1-1.3-6-1.3-1.5 0-2.7.3-3.6 1-.9.7-1.3 1.6-1.3 2.7 0 .9.2 1.6.5 2.1.3.6.9 1.1 1.6 1.5.8.5 1.9 1 3.5 1.5 2.6.9 4.4 1.9 5.4 3 .9 1.1 1.4 2.5 1.4 4.2zM229.5 44.6c.5 0 1 0 1.4-.1.5-.1.8-.2 1.1-.2v2.2c-.3.1-.8.3-1.4.4-.6.1-1.1.1-1.6.1-3.6 0-5.4-1.9-5.4-5.7V30.1H221v-1.4l2.7-1.2 1.2-4h1.6v4.3h5.4V30h-5.4v11c0 1.1.3 2 .8 2.6.5.7 1.3 1 2.2 1zM247.3 46.6l-.6-2.7h-.1c-.9 1.2-1.9 2-2.8 2.4-.9.4-2.1.6-3.5.6-1.9 0-3.3-.5-4.4-1.4-1.1-1-1.6-2.3-1.6-4.1 0-3.8 3-5.7 9.1-5.9l3.2-.1v-1.2c0-1.5-.3-2.5-.9-3.2-.6-.7-1.6-1-3-1-1.6 0-3.3.5-5.3 1.4l-.9-2.2c.9-.5 1.9-.9 3-1.2 1.1-.3 2.2-.4 3.3-.4 2.2 0 3.9.5 5 1.5s1.6 2.6 1.6 4.8v12.7h-2.1zm-6.4-2c1.8 0 3.1-.5 4.2-1.4 1-1 1.5-2.3 1.5-4.1v-1.7l-2.8.1c-2.2.1-3.9.4-4.9 1-1 .6-1.5 1.6-1.5 2.9 0 1 .3 1.8.9 2.3.6.6 1.5.9 2.6.9zM262.7 46.9c-2.7 0-4.8-.8-6.3-2.5s-2.2-4-2.2-7.1c0-3.1.8-5.5 2.3-7.2 1.5-1.7 3.7-2.6 6.4-2.6.9 0 1.8.1 2.7.3.9.2 1.6.4 2.1.7l-.9 2.4c-.6-.2-1.3-.5-2-.6-.7-.2-1.4-.2-2-.2-3.8 0-5.7 2.4-5.7 7.3 0 2.3.5 4.1 1.4 5.3.9 1.2 2.3 1.8 4.1 1.8 1.6 0 3.2-.3 4.8-1V46c-1.3.6-2.8.9-4.7.9zM274.6 37c.5-.7 1.2-1.6 2.2-2.7l6-6.4h3.4l-7.6 8 8.1 10.7h-3.4l-6.6-8.8-2.1 1.8v7h-2.8V20.1h2.8v14.1c0 .6 0 1.6-.1 2.9h.1zM158.6 83.1h-2.9l-5-16.7c-.2-.7-.5-1.7-.8-2.8-.3-1.1-.4-1.8-.5-2-.2 1.5-.6 3.1-1.2 4.9l-4.9 16.6h-2.9l-6.6-24.9h3.1l3.9 15.4c.5 2.2.9 4.1 1.2 5.9.3-2.1.8-4.1 1.4-6.1l4.5-15.2h3.1l4.7 15.3c.5 1.8 1 3.7 1.4 6 .2-1.6.6-3.6 1.2-5.9l3.9-15.4h3.1l-6.7 24.9zM188.1 83.1h-2.9V71.4h-13.1v11.7h-2.9V58.2h2.9v10.6h13.1V58.2h2.9v24.9zM194.9 83.1V58.2h2.9v24.9h-2.9zM212.3 83.1h-2.9V60.7h-7.9v-2.6h18.7v2.6h-7.9v22.4zM237.9 83.1H224V58.2h13.9v2.6h-11v8h10.3v2.6h-10.3v9.2h11v2.5zM134.8 115.8v-7h-1.1v-1.1h1.1v-.4c0-1.1.3-2.2.9-2.9.6-.5 1.3-.8 2-.8.5 0 1 .1 1.3.2l-.2 1.1c-.2-.1-.5-.2-.9-.2-1.3 0-1.6 1.1-1.6 2.4v.4h2v1.1h-2v7h-1.5zM139.6 110.1c0-1 0-1.8-.1-2.6h1.3l.1 1.6h.1c.4-1.1 1.3-1.8 2.3-1.8.2 0 .3 0 .4.1v1.4c-.2 0-.3-.1-.5-.1-1 0-1.8.8-2 1.9 0 .2-.1.4-.1.7v4.4h-1.5v-5.6zM149.6 115.8l-.1-1h-.1c-.5.6-1.3 1.2-2.5 1.2-1.7 0-2.5-1.2-2.5-2.3 0-2 1.8-3.1 4.9-3v-.2c0-.7-.2-1.9-1.9-1.9-.8 0-1.6.2-2.1.6l-.3-1c.7-.4 1.7-.7 2.7-.7 2.5 0 3.1 1.7 3.1 3.3v3.1c0 .7 0 1.4.1 2h-1.3zm-.2-4.2c-1.6 0-3.5.3-3.5 1.8 0 1 .6 1.4 1.4 1.4 1.1 0 1.7-.7 2-1.4 0-.2.1-.3.1-.5v-1.3zM153.2 109.8c0-.8 0-1.5-.1-2.2h1.3l.1 1.3h.1c.5-.8 1.2-1.5 2.6-1.5 1.1 0 2 .7 2.3 1.6.3-.5.6-.8.9-1.1.5-.4 1-.6 1.8-.6 1.1 0 2.7.7 2.7 3.5v4.8h-1.5V111c0-1.6-.6-2.5-1.8-2.5-.8 0-1.5.6-1.8 1.4-.1.2-.1.5-.1.7v5.1h-1.5v-4.9c0-1.3-.6-2.2-1.7-2.2-.9 0-1.6.7-1.8 1.5-.1.2-.1.5-.1.7v4.9h-1.5v-5.9zM168.1 111.9c0 2 1.3 2.8 2.8 2.8 1.1 0 1.7-.2 2.3-.4l.3 1.1c-.5.2-1.4.5-2.7.5-2.5 0-4-1.7-4-4.1 0-2.5 1.5-4.4 3.8-4.4 2.7 0 3.4 2.3 3.4 3.9v.7h-5.9zm4.4-1c0-.9-.4-2.4-2.1-2.4-1.5 0-2.2 1.4-2.3 2.4h4.4zM176.3 107.6l1.1 4.2c.2.9.5 1.8.6 2.6.2-.8.5-1.7.7-2.6l1.3-4.2h1.3l1.3 4.1c.3 1 .5 1.8.7 2.7h.1c.1-.8.4-1.7.6-2.7l1.2-4.1h1.5l-2.6 8.2h-1.4l-1.3-3.9c-.3-.9-.5-1.7-.7-2.7-.2 1-.5 1.8-.7 2.7l-1.3 3.9h-1.4l-2.5-8.2h1.5zM195.4 111.6c0 3-2.1 4.3-4.1 4.3-2.2 0-3.9-1.6-3.9-4.2 0-2.7 1.8-4.3 4.1-4.3s3.9 1.7 3.9 4.2zm-6.5.1c0 1.8 1 3.1 2.5 3.1 1.4 0 2.5-1.3 2.5-3.2 0-1.4-.7-3.1-2.5-3.1-1.7 0-2.5 1.6-2.5 3.2zM197.3 110.1c0-1 0-1.8-.1-2.6h1.3l.1 1.6h.1c.4-1.1 1.3-1.8 2.3-1.8.2 0 .3 0 .4.1v1.4c-.2 0-.3-.1-.5-.1-1 0-1.8.8-2 1.9 0 .2-.1.4-.1.7v4.4h-1.5v-5.6zM204.3 111.3c.2-.3.5-.6.8-.9l2.4-2.8h1.8l-3.2 3.4 3.6 4.8h-1.8l-2.8-3.9-.8.8v3.1h-1.5v-12h1.5v7.5zM214.5 115.8v-7h-1.1v-1.1h1.1v-.4c0-1.1.3-2.2.9-2.9.6-.5 1.3-.8 2-.8.5 0 1 .1 1.3.2l-.2 1.1c-.2-.1-.5-.2-.9-.2-1.3 0-1.6 1.1-1.6 2.4v.4h2v1.1h-2v7h-1.5zM226.5 111.6c0 3-2.1 4.3-4.1 4.3-2.2 0-3.9-1.6-3.9-4.2 0-2.7 1.8-4.3 4.1-4.3s3.9 1.7 3.9 4.2zm-6.5.1c0 1.8 1 3.1 2.5 3.1 1.4 0 2.5-1.3 2.5-3.2 0-1.4-.7-3.1-2.5-3.1s-2.5 1.6-2.5 3.2zM228.4 110.1c0-1 0-1.8-.1-2.6h1.3l.1 1.6h.1c.4-1.1 1.3-1.8 2.3-1.8.2 0 .3 0 .4.1v1.4c-.2 0-.3-.1-.5-.1-1 0-1.8.8-2 1.9 0 .2-.1.4-.1.7v4.4h-1.5v-5.6zM238.8 115.8l-2.9-11.4h1.6l1.4 5.8c.3 1.4.6 2.8.8 3.9.2-1.1.5-2.5.9-4l1.5-5.7h1.5l1.4 5.8c.3 1.4.6 2.7.8 3.9.2-1.3.6-2.5.9-3.9l1.5-5.7h1.5l-3.2 11.4H245l-1.4-5.9c-.4-1.5-.6-2.6-.7-3.7-.2 1.1-.5 2.2-.9 3.7l-1.6 5.9h-1.6zM252.5 105.3c0 .5-.4.9-.9.9s-.9-.4-.9-.9.4-.9.9-.9c.6 0 .9.4.9.9zm-1.6 10.5v-8.2h1.5v8.2h-1.5zM254.8 109.8c0-.8 0-1.5-.1-2.2h1.3l.1 1.4c.4-.8 1.4-1.5 2.7-1.5 1.1 0 2.9.7 2.9 3.5v4.9h-1.5V111c0-1.3-.5-2.4-1.9-2.4-1 0-1.7.7-2 1.5-.1.2-.1.4-.1.7v4.9h-1.5v-5.9zM271.3 103.8v9.9c0 .7 0 1.6.1 2.1H270l-.1-1.4c-.5.9-1.5 1.6-2.8 1.6-2 0-3.5-1.7-3.5-4.2 0-2.7 1.7-4.4 3.7-4.4 1.3 0 2.1.6 2.5 1.3v-4.9h1.5zm-1.5 7.1c0-.2 0-.4-.1-.6-.2-.9-1-1.7-2.1-1.7-1.5 0-2.4 1.4-2.4 3.2 0 1.7.8 3 2.4 3 1 0 1.9-.7 2.2-1.8 0-.2.1-.4.1-.6v-1.5zM281.1 111.6c0 3-2.1 4.3-4.1 4.3-2.2 0-3.9-1.6-3.9-4.2 0-2.7 1.8-4.3 4.1-4.3s3.9 1.7 3.9 4.2zm-6.5.1c0 1.8 1 3.1 2.5 3.1 1.4 0 2.5-1.3 2.5-3.2 0-1.4-.7-3.1-2.5-3.1s-2.5 1.6-2.5 3.2zM283.5 107.6l1.1 4.2c.2.9.5 1.8.6 2.6.2-.8.5-1.7.7-2.6l1.3-4.2h1.3l1.3 4.1c.3 1 .5 1.8.7 2.7h.1c.1-.8.4-1.7.6-2.7l1.2-4.1h1.5l-2.6 8.2h-1.4l-1.3-3.9c-.3-.9-.5-1.7-.7-2.7-.2 1-.5 1.8-.7 2.7l-1.3 3.9h-1.4l-2.5-8.2h1.5zM295 114.2c.4.3 1.2.6 2 .6 1.1 0 1.6-.5 1.6-1.2s-.4-1.1-1.5-1.5c-1.5-.5-2.2-1.3-2.2-2.3 0-1.3 1.1-2.4 2.8-2.4.8 0 1.6.2 2 .5l-.4 1.1c-.3-.2-.9-.5-1.7-.5-.9 0-1.4.5-1.4 1.1 0 .7.5 1 1.6 1.4 1.4.5 2.1 1.3 2.1 2.5 0 1.4-1.1 2.5-3.1 2.5-.9 0-1.7-.2-2.3-.6l.5-1.2z" class="st3"/></svg>