<svg xmlns="http://www.w3.org/2000/svg" viewBox="0 0 744.8 170" style="enable-background:new 0 0 744.8 170" xml:space="preserve"><path d="M50.5 12.3v33.2h43.7v14.9H50.5V124c0 8.6 1.6 14.7 4.9 18.1 3.3 3.4 9 5.1 17.1 5.1h21.6v15.4H70.7c-14.4 0-24.6-2.9-30.5-8.7-5.9-5.8-8.9-15.8-8.9-29.9V60.5H0V45.6h31.3V12.3h19.2zm174.4 77.8v72.5h-19.3V90.1c0-10.5-1.8-18.3-5.5-23.2-3.7-4.9-9.5-7.4-17.4-7.4-9 0-15.9 3.2-20.8 9.6-4.8 6.3-7.2 15.5-7.2 27.4v66.2h-19.2V0h19.2v63.1c3.4-6.7 8-11.7 13.9-15.2s12.8-5.2 20.8-5.2c11.9 0 20.8 3.9 26.7 11.8 5.9 7.9 8.8 19.7 8.8 35.6zM446 103.8h-6.4c-11.2 0-19.7 2-25.4 6-5.6 3.9-8.5 9.8-8.5 17.6 0 7 2.1 12.5 6.4 16.4 4.3 3.9 10.1 5.9 17.7 5.9 10.6 0 18.9-3.7 25-11 6.1-7.4 9.1-17.6 9.2-30.5v-4.3h-18zm37.3-7.9v66.8H464v-17.4c-4.1 7-9.3 12.1-15.6 15.5-6.2 3.3-13.8 4.9-22.7 4.9-11.9 0-21.4-3.3-28.5-10-7.1-6.8-10.7-15.8-10.7-27.1 0-13 4.4-22.9 13.1-29.7 8.8-6.8 21.6-10.1 38.6-10.1H464v-3c-.1-9.3-2.4-16.1-7.1-20.3-4.7-4.3-12.1-6.4-22.4-6.4-6.6 0-13.2.9-19.9 2.8-6.7 1.9-13.2 4.6-19.5 8.3V50.9c7.1-2.7 13.9-4.7 20.4-6.1 6.5-1.4 12.9-2.1 19-2.1 9.7 0 17.9 1.4 24.8 4.3 6.9 2.9 12.5 7.1 16.7 12.9 2.6 3.5 4.5 7.8 5.6 13 1.2 5 1.7 12.7 1.7 23zm128-5.8v72.5H592V90.1c0-10.5-1.8-18.3-5.5-23.2-3.7-4.9-9.5-7.4-17.4-7.4-9 0-15.9 3.2-20.8 9.6-4.8 6.3-7.2 15.5-7.2 27.4v66.2h-19.2V45.6H541v17.6c3.4-6.7 8-11.7 13.9-15.2s12.8-5.2 20.8-5.2c11.9 0 20.8 3.9 26.7 11.8 5.9 7.8 8.9 19.6 8.9 35.5zm83.3-31c-9.8 0-17.1 3.8-22.2 11.4-5 7.6-7.5 18.8-7.5 33.8 0 14.8 2.5 26.1 7.5 33.8 5 7.6 12.4 11.4 22.2 11.4 9.8 0 17.2-3.8 22.3-11.4 5-7.7 7.5-18.9 7.5-33.8 0-14.9-2.5-26.2-7.5-33.8s-12.5-11.4-22.3-11.4zm0-16.3c16.2 0 28.6 5.3 37.2 15.8 8.6 10.5 13 25.7 13 45.7 0 20-4.3 35.3-12.9 45.8-8.6 10.5-21 15.7-37.3 15.7-16.2 0-28.6-5.2-37.2-15.7-8.6-10.5-12.9-25.8-12.9-45.8 0-19.9 4.3-35.2 12.9-45.7 8.5-10.6 21-15.8 37.2-15.8z" style="fill:#11557c;stroke:#fff;stroke-width:.7;stroke-linejoin:round;stroke-miterlimit:1.414"/><path d="M299.4 168.9c-15.5-3-24.5-7.1-33.3-19.6-6.3-9.1-7.3-16.5-7.5-29.3-.1-6.1.1-7.4 1.4-10.4l1.4-3.4 1.7 3.7c2 4.2 3.9 7.2 5.1 8 .7.5.9-.5 1.3-6.8.3-4 .6-8.5.9-9.9.4-2.6.4-2.6 3.8-3.8 6.4-2.4 18.4-2.8 39.9-1 9.9.8 31.1 1.2 33.3-.7 2.3-2 2.6-2.9 1.9-8.5-.9-6.6.1-8-2.7-13.5-7.2-14.2-19.1-20.2-34.9-20.3-14.2 0-25.6 5.2-32.5 16.7-6.1 10.2-8.8 21.1-10.4 41.9l-.4 5.8-1.3-1.9c-6.5-9.3-10.5-25.5-7.7-37.8 2.2-9.6 6.5-17.8 13.7-25.8 6.2-6.9 16.3-10.8 28.4-13.2 7.8-1.5 13.2-1.5 21 0 12.2 2.3 21 6.7 27.1 13.6 7.1 7.9 11.5 16.3 13.6 25.5 1.4 6.2 1.6 15.7.5 18.7-1 2.6-8.7 11.1-8.9 10-.1-.5.1-1.3.5-1.8 1.1-1.5.1-2.1-1.5-1-1.2.9-1.5.9-2.2.2-1.5-1.4-2.1.1-.7 1.8 1.6 2 1.6 2.7.1 2.7-.7 0-1.3.2-1.5.4-1.5 1.8-24.1 2.2-42.1.8-13.3-1.1-23.9-.8-26.3.6-2 1.1-4.7 5.2-5.6 8.5-.9 3.1-.4 12.6.9 16.4 1.2 3.8 5.6 9.4 10.2 13 12.8 10 34 10.1 46.9.3 6.5-4.9 11.7-12.9 10.2-15.5-.4-.6-.7-1.9-.7-2.8 0-1.6 1.9-5 3.1-5.6 1.7-.8 3.7-4 3.7-6.1 0-2.4.8-3.9 2.1-3.9 2 0 1.7-6.1-.3-8.7-1.6-2-1.4-2.4.4-1.1 1.2.8 1.5.9 1.5.4 0-.4.5-1 1-1.4.9-.6 1-.5.5.3-.3.5-.5 3-.4 5.5.2 4.2.3 4.7 1.6 5.5 1.2.7 1.5 1.4 1.7 4 .2 2.2.9 4.1 2.3 6.3 1.6 2.6 1.9 3.6 1.7 5.3-.2 1.2-.9 2.5-1.5 3.1-1.5 1.3-7.8 9.5-8.4 11-1.1 2.9-5 8.9-7.5 11.7-3.9 4.4-8 7.1-15.2 9.7-10.8 3.7-19.2 4.4-29.9 2.4z" style="fill:#11557c;stroke:#fff;stroke-width:.74"/></svg>