<svg xmlns="http://www.w3.org/2000/svg" viewBox="0 0 200 55" style="enable-background:new 0 0 200 55" xml:space="preserve"><path d="M5.9 54.7 0 30.6h3l3.4 15.8c.3 1.6.6 3.3.9 4.9.6-2.6.9-4.1 1-4.5l4.2-16.3H16l3.2 12.2c.8 3 1.4 5.9 1.7 8.5.3-1.5.6-3.3 1.1-5.2l3.5-15.5h2.9l-6.1 24.1h-2.8l-4.7-18.3c-.4-1.5-.6-2.5-.7-2.8-.2 1.1-.4 2-.6 2.8L8.8 54.7H5.9zm25.7 0V30.6h2.9v24.1h-2.9zm8.1 0V30.6h9.8c2 0 3.5.2 4.5.6 1 .4 1.8 1.2 2.5 2.3.6 1.1.9 2.3.9 3.6 0 1.7-.5 3.1-1.5 4.3-1 1.2-2.6 1.9-4.7 2.2.8.4 1.4.8 1.8 1.2.9.9 1.7 1.9 2.4 3.2l3.8 6.6h-3.7l-2.9-5c-.9-1.4-1.6-2.6-2.1-3.3-.6-.8-1-1.3-1.5-1.6-.4-.3-.9-.5-1.3-.6-.4-.1-1-.1-1.7-.1h-3.4v10.7h-2.9zm2.9-13.5h6.3c1.3 0 2.4-.2 3.1-.5.8-.3 1.3-.8 1.7-1.4.4-.7.6-1.4.6-2.2 0-1.1-.4-2.1-1.1-2.8-.8-.7-2-1.1-3.6-1.1h-7v8zM62 54.7V30.6h16v2.8H65v7.4h12.2v2.8H64.9v8.2h13.5v2.8H62zm19.2-7.8 4.3-.5c.3 1.6.8 2.8 1.6 3.5.9.7 1.9 1.1 3.3 1.1s2.5-.3 3.2-1c.7-.7 1.1-1.4 1.1-2.3 0-.6-.2-1.1-.5-1.5-.3-.4-.8-.7-1.6-1-.5-.2-1.7-.5-3.6-1.1-2.4-.6-4.1-1.4-5-2.4-1.4-1.3-2-2.9-2-4.8 0-1.2.3-2.4 1-3.4.6-1.1 1.6-1.9 2.8-2.4 1.2-.6 2.6-.8 4.3-.8 2.8 0 4.9.7 6.3 2 1.4 1.3 2.1 3.1 2.2 5.3l-4.5.2c-.2-1.2-.6-2.1-1.2-2.7-.6-.5-1.6-.8-2.8-.8-1.3 0-2.3.3-3 .9-.5.4-.7.9-.7 1.5s.2 1.1.7 1.5c.6.5 1.9 1.1 4.1 1.6 2.2.6 3.8 1.1 4.8 1.7 1 .6 1.9 1.4 2.4 2.4.6 1 .9 2.3.9 3.8 0 1.4-.4 2.7-1.1 3.9-.7 1.2-1.7 2.1-3 2.7-1.3.6-2.9.9-4.8.9-2.8 0-4.9-.7-6.4-2.1-1.6-1.5-2.5-3.6-2.8-6.2zm21.8 7.8V30.6h4.5v9.5h8.7v-9.5h4.5v24.1h-4.5V44.2h-8.7v10.5H103zm42.1 0h-4.8l-1.9-5.5h-8.8l-1.8 5.5H123l8.6-24.1h4.7l8.8 24.1zm-8.2-9.5-3-8.9-3 8.9h6zm10.6 9.5V30.6h9.4c2.4 0 4.1.2 5.1.6 1.1.4 1.9 1.2 2.6 2.3.6 1.1 1 2.4 1 3.8 0 1.8-.5 3.3-1.5 4.5-1 1.2-2.4 1.9-4.4 2.2 1 .6 1.8 1.3 2.4 2 .6.7 1.5 2 2.5 3.9l2.7 4.7H162l-3.2-5.2c-1.1-1.9-1.9-3.1-2.3-3.5-.4-.5-.9-.8-1.3-1-.5-.2-1.2-.3-2.2-.3h-1v10.1h-4.5zm4.5-13.9h3.3c2.1 0 3.5-.1 4-.3.5-.2.9-.5 1.2-1 .3-.5.5-1.1.5-1.8 0-.8-.2-1.5-.6-2-.4-.5-1-.8-1.7-.9-.4-.1-1.4-.1-3.3-.1H152v6.1zm17.9 13.9V30.6h4.5v10.7l9-10.7h6L181 40l8.8 14.7H184l-6.1-11.3-3.6 4v7.3h-4.4z"/><path d="M.3 26.2h79.8s2.1-23.8 23.4-24.1c-6.9 10.6-.4 24.2-.4 24.2H200" style="fill:none;stroke:#000;stroke-width:4.2972;stroke-linejoin:round"/></svg>