<svg version="1.1" id="Layer_1" xmlns="http://www.w3.org/2000/svg" x="0" y="0" viewBox="0 0 300 87" style="enable-background:new 0 0 300 87" xml:space="preserve"><style>.st0{fill:#67217a}</style><path class="st0" d="M216.9 16.5H227c.2 1.1.3 2.2.4 3.4-.2 12.8 0 25.6-.9 38.2-.4 7.4-5.6 11.3-12.6 12.9-2.2.5-4.4.8-6.7.9-15.9.4-22.7-5.9-23.2-21.7-.3-11.1 0-22.3 0-33.7h10.6V38c0 5.5 0 11 .6 16.5s4.6 8.8 10.9 8.8 10.3-2.9 10.6-8.8c.5-10.5.3-21.1.4-31.6-.2-2-.2-3.9-.2-6.4zM173 30.9l-8.3 2.1c-3.5-2.9-5.9-6.3-9.2-7.8-6.2-2.8-13.5 0-16.3 6.2-.4 1-.7 2-.9 3-1 6.2-1 12.5 0 18.6.8 5.6 5.6 9.7 11.2 9.8 6.2.5 10.1-1.9 13-7.9l1.5-3.3 9.2 2.9c-1.9 10.3-8.8 16.2-19.5 17.4-10.7 1.4-20.9-4.4-25.2-14.3-3.9-9.4-3.6-20.1.9-29.3 4.6-9.5 13-13.3 23.1-13 9 .3 16.3 3.9 19.9 12.9.3.9.4 1.8.6 2.7zM300 16.2V25h-16.1v45.8h-10.6V25h-16.9v-8.8H300zM249.5 70.8h-9.9V16.7h9.9v54.1zM77.8.3 35.7 35.2 10.4 19.1 0 22v42.9l10.4 2.9 25.3-16 42 34.9 25.1-9V9.2L77.8.3zM10.4 56.1V30.9l15.3 12.7-15.3 12.5zm67.4 5.6L48.9 43.5l28.9-18.3v36.5z"/></svg>