<svg version="1.1" id="Layer_1" xmlns="http://www.w3.org/2000/svg" x="0" y="0" viewBox="0 0 250 311.5" style="enable-background:new 0 0 250 311.5" xml:space="preserve"><style>.st0{fill:#64c14a}</style><switch><g><path class="st0" d="M125.5.5c13.8-2.4 23.7 4.1 33 13.5 25.6 25.9 51.5 51.5 77.2 77.3 19 19.1 19 44.7 0 63.8-26.2 26.3-52.5 52.6-78.8 78.8-18.8 18.7-44.4 18.9-63.3.3-26-25.5-51.7-51.4-77.4-77.2-21.2-21.4-21.7-45.4-.6-66.9 26.2-26.7 52.8-53 79.3-79.4 7.8-8.4 19.4-12.2 30.6-10.2zM184.4 85l-20.1-20.7c-18.8 26-34.6 53.7-53.2 80.9-5.6-9.4-10.5-17.7-15.5-25.9-1.2-2.2-2-4.8-5.1-4.8H53.9l57.4 85.8L184.4 85z"/><path d="m184.4 85-72.9 115.2L54 114.4h36.6c3.2 0 3.9 2.7 5.1 4.8 5 8.3 9.9 16.6 15.5 25.9 18.5-27.2 34.5-54.9 53.2-80.9l20 20.8z" style="fill:#fefefd"/><path class="st0" d="m54.3 310.8-6-10.4c-2.4-4-4-6.5-5.5-9.3h-.1c-1.3 2.7-2.6 5.2-5.1 9.4l-5.7 10.3h-7L39.4 287l-13.8-23.3h7l6.2 11c1.7 3.1 3.1 5.5 4.3 8h.2c1.3-2.8 2.5-5 4.3-8l6.5-11h6.8l-14.3 22.9 14.7 24.2h-7zM99.2 309.3c-3.9 1.6-8.2 2.3-12.4 2.2-13.3 0-23.3-8.4-23.3-23.8 0-14.7 10-24.7 24.6-24.7 3.8-.1 7.7.6 11.2 2.2l-1.5 5c-3-1.3-6.2-2-9.5-2-11 0-18.4 7-18.4 19.4 0 11.5 6.6 18.9 18.1 18.9 3.4 0 6.8-.6 9.9-2l1.3 4.8zM117.7 268.9h-14.3v-5.2h34.9v5.2h-14.4v41.9h-6.1v-41.9zM141.8 295c.2 8.3 5.5 11.7 11.6 11.7 3.2.1 6.4-.5 9.4-1.7l1.1 4.3c-3.6 1.5-7.4 2.2-11.2 2.2-10.4 0-16.6-6.9-16.6-17 0-10.2 6-18.2 15.9-18.2 11 0 14 9.7 14 15.9 0 1-.1 1.9-.2 2.9l-24-.1zm18-4.3c0-3.9-1.6-10-8.6-10-6.2 0-8.9 5.7-9.4 10h18zM172.5 304.5c2.4 1.5 5.2 2.4 8.1 2.4 4.5 0 6.5-2.2 6.5-5s-1.7-4.5-6.3-6.2c-6.1-2.2-8.9-5.5-8.9-9.6 0-5.5 4.3-9.9 11.7-9.9 2.9 0 5.8.7 8.3 2.2l-1.5 4.5c-2.1-1.3-4.5-2-6.9-2-3.6 0-5.7 2.2-5.7 4.6s2 4.1 6.5 5.7c5.9 2.2 8.9 5.2 8.9 10.2 0 5.9-4.6 10.1-12.6 10.1-3.3.1-6.6-.7-9.5-2.3l1.4-4.7zM208.4 267.3v9.7h8.8v4.7h-8.8v18.2c0 4.2 1.2 6.5 4.6 6.5 1.2 0 2.4-.1 3.6-.4l.3 4.6c-1.7.6-3.6.9-5.5.8-2.5.1-4.9-.8-6.6-2.6-1.7-1.8-2.4-4.8-2.4-8.8v-18.4h-5.2v-4.7h5.2v-8l6-1.6z"/></g></switch></svg>