<svg xmlns="http://www.w3.org/2000/svg" viewBox="0 0 368 96.39"><g data-name="Layer 2"><g data-name="Layer 1"><path d="M0 0h368v96.39H0Z" style="fill:#d40000"/><path d="M15.74 14.69h53.21v6.91L26.12 74.07H70v7.63H14.69v-6.91l42.83-52.47H15.74ZM106 23.62 93.55 57h24.91Zm-5.18-8.93h10.38L137 81.7h-9.53l-6.16-17.19H90.78L84.61 81.7h-9.67ZM156 49.7v24.55h14.7q7.4 0 11-3t3.54-9.25q0-6.28-3.56-9.27t-11-3Zm0-27.56v20.2h13.57q6.72 0 10-2.49t3.29-7.6c0-3.38-1.1-5.91-3.29-7.58s-5.53-2.52-10-2.52H156Zm-9.16-7.45h23.41q10.48 0 16.15 4.31t5.66 12.26q0 6.14-2.9 9.79a13.06 13.06 0 0 1-8.53 4.54 17.85 17.85 0 0 1 10.5 6 17.32 17.32 0 0 1 3.75 11.38q0 9-6.17 13.87t-17.53 4.86h-24.32Zm71.91 35v24.56h14.71q7.4 0 11-3T248 62q0-6.28-3.56-9.27t-11-3Zm0-27.56v20.2h13.57q6.72 0 10-2.49t3.29-7.6c0-3.38-1.09-5.91-3.29-7.58s-5.53-2.52-10-2.52h-13.56Zm-9.16-7.45H233q10.48 0 16.15 4.31t5.67 12.26q0 6.14-2.9 9.79a13.06 13.06 0 0 1-8.53 4.54 17.85 17.85 0 0 1 10.5 6 17.32 17.32 0 0 1 3.75 11.38q0 9-6.17 13.87t-17.54 4.87H209.6Zm89.28 0H309l15.93 24.06L341 14.69h9.74l-21 31.39 23.58 35.62h-10.08l-18.55-28-18.74 28h-9.74l23.63-35.37Zm-26.54 0h9.16v67h-9.16Z" style="fill:#fff"/></g></g></svg>