<svg version="1.1" id="Layer_1" xmlns="http://www.w3.org/2000/svg" x="0" y="0" viewBox="0 0 200 55" style="enable-background:new 0 0 200 55" xml:space="preserve"><style>.st0{fill:#fdfcfc}.st1{fill:#6f7073}.st2{fill:#f37225}.st3{fill:#9fa0a3}</style><path class="st0" d="M172.1 54.6H0V.4h200v21.9c-.7-.5-.6-1.4-.8-2.1-1.5-5.5-5.5-8.6-11.1-8.7h-15.8c-.5 1-.3 1.8-.3 2.6V45c-.1 3.1 0 6.4.1 9.6zM33.9 41c2.1 2.3 3 2.3 4.3-.2 1.3.5 2.6-.1 3.8 0 .6.6-.2 1.6.8 2.2 1.2-.5.2-2.7 1.9-2.7 1.2 0 2.4-.7 3.6-.4.6.9-.7 2 .9 3.2-.5-4 2.7-4.1 5.3-5.1-1.7-1-3 .4-4.4-.3v-1.5c-.1-2.1 0-4.1 3-3.9.6 0 1.1-.4.8-1.3-1-.4-2.2.6-3.3-.1 0-1.1.1-2.2 0-3.3-.1-1.4.3-2.1 1.8-2.1.7 0 1.7.1 1.6-1.2-1-.7-2.1.2-3.3-.3v-5c.8-.4 1.6-.2 2.4-.3.4 0 .9-.1.9-.6.1-.6-.4-.7-.9-.8-.8-.1-1.7.3-2.6-.4.1-1.5-.7-2.9-.2-4.4 1.3-.5 2.6.3 3.9-.6-1.4-1.5-3.9.2-5-2.5-.1 2.1-1.2 1.7-2.1 1.7-1.3 0-2.5-.3-3.7-.2-3.6.2-7.3.6-10.9 1.1-7.5 1-15.3 1.2-22.8 3.7-.7.2-1.3.2-2-.9C7.1 22.9 5 30.3 5.5 38c.1 1.1-.1 2-1.1 2.7.5.5 1 .5 1.2 1.2.1.5-.1 1.2.6 1.5.9-.6-.2-1.4.6-1.9 2.6.4 2.6.4 3.8 1.8 1.2-1.6 3.8-1.6 5.4 0 1.5-1.4 4.3-1.4 6.4-.1 1.3-1.1 4.5-1.5 6-.5.4.3 1 .6 1.2.2.6-1.5 1.9-.9 2.9-1 .6-.1 1.2-.1 1.4-.9zm-31.1-.8c-.1.5-.2.9.1 1.5.4-.6.6-1 .3-1.5 1.3-8.3 1.4-16.7 2.6-25 .2-1.4.4-2 2-2.2 7.2-.5 14.4-1.9 21.6-2.4 6.4-.5 12.7-1.5 19-2.2 2.3-.2 4.7-.8 7.1-.6v36.6H10.8v.8l48.3 2.7V3.5C40.5 5.7 21.9 7.8 2.8 9.9v30.3zm112.9-25.6c-2.4-3.7-6.3-3.2-10-3.1h-7.4c-3.5 0-4.8 1.3-4.8 4.8v24.5c0 .7-.2 1.5.3 2.2h7.2V21.4c0-3.1.2-3.2 3.3-3.2h3.2c3.1 0 4.4 1.3 4.4 4.3v18.8c0 1.3.3 2 1.8 1.9 1.2-.1 2.4-.1 3.6 0 1.6.2 2.2-.4 2.2-2.1-.1-5.5 0-10.9 0-16.4 0-6.4.2-6.6 6.6-6.5 3.3 0 4.9 1.7 4.9 4.9v14.4c0 5.8 0 5.7 5.7 5.7 1.4 0 1.8-.5 1.8-1.9-.1-6.4 0-12.8 0-19.2 0-3.8-1.7-6.6-4.8-8.7-4.9-3.3-13-2.8-18 1.2zm27.3 4.2h15.4c.9 0 1.9 0 2.6.8.6.8 1 1.6.5 2.6-.6 1.2-1.6 1.7-2.9 1.7-3.2 0-6.4.1-9.6 0-2.9-.1-4.9 1.2-6.1 3.7-2 4.1-2.1 8.3-.1 12.5 1 2.1 2.6 3.2 5.1 3.2 6.4-.1 12.9-.1 19.3 0 1.7 0 2-.6 2-2.1-.1-6.1 0-12.2 0-18.3 0-1.9-.2-3.7-.9-5.5-1.4-4-4-5.8-8.2-5.8h-15c-.7 0-1.5-.2-2.1.4v6.8zM75.9 35.6c.1-1.1.7-1.5 1.2-2 4.1-4.1 8.1-8.2 12.3-12.3 2.2-2.1 2.4-4.5 1.5-7.1-.9-2.5-3.2-2.7-5.5-2.7H66.2c-.5 0-1.1-.2-1.6.3v7c5.1.2 10.2-.1 15.2.2-.1 1.2-.8 1.6-1.2 2-3 3.1-6.1 6.1-9.2 9.2-1.5 1.6-3.2 3-4.5 4.7-2.7 3.4-.9 7.6 3.4 8.1.9.1 1.7.1 2.6.1h18.2c.6 0 1.3.2 1.8-.3v-7.2h-15zM29.8 51.9c1.4 0 3.5 0 5.6-1.1.7-.4 1.4-.5 1.4-1.4 0-.8-.7-1.2-1.3-1.4-4.3-1.5-8.6-1.6-12.9 0-.6.2-1.3.6-1.3 1.4 0 .9.7 1.2 1.4 1.5 2 .8 4.1 1 7.1 1z"/><path class="st1" d="M172.1 54.6c0-3.3-.1-6.5-.1-9.8V13.9c0-.8-.2-1.6.3-2.6h15.8c5.7.1 9.6 3.2 11.1 8.7.2.7.1 1.6.8 2.1v9.2c-.7.5-.6 1.4-.8 2.1-1.5 4.9-4.4 8.3-9.6 9.3-2.8.5-5.6.3-8.3.2-1.5 0-1.9.5-1.9 2 .1 3.2 0 6.4 0 9.6-2.6.1-5 .1-7.3.1zm7.2-27.3c0 2.3.1 4.5 0 6.8 0 1.3.5 1.8 1.7 1.7 1.9-.1 3.7 0 5.6 0 3.4 0 6-2.3 6.2-5.7.1-1.9.1-3.7 0-5.6-.2-2.9-2.7-5.6-5.2-5.7-2.3-.1-4.5 0-6.8 0-1.3 0-1.6.6-1.5 1.7v6.8z"/><path class="st0" d="M179.2 54.6c0-3.2.1-6.4 0-9.6 0-1.5.4-2 1.9-2 2.8 0 5.6.3 8.3-.2 5.2-1 8.2-4.4 9.6-9.3.2-.7.1-1.6.8-2.1v23.2h-20.6z"/><path class="st1" d="M115.7 14.6c4.9-4 13.1-4.4 17.9-1.1 3 2.1 4.8 5 4.8 8.7v19.2c0 1.4-.4 1.8-1.8 1.9-5.7.1-5.7.1-5.7-5.7V23.2c0-3.3-1.6-4.9-4.9-4.9-6.4-.1-6.6.1-6.6 6.5 0 5.5-.1 10.9 0 16.4 0 1.7-.5 2.2-2.2 2.1-1.2-.1-2.4-.1-3.6 0-1.5.1-1.8-.5-1.8-1.9V22.6c0-3.1-1.3-4.3-4.4-4.3h-3.2c-3.1 0-3.3.2-3.3 3.2V43.1h-7.2c-.5-.7-.3-1.4-.3-2.2V16.4c0-3.5 1.3-4.8 4.8-4.8h7.4c3.8-.2 7.7-.8 10.1 3zM143 18.8v-7c.6-.6 1.4-.4 2.1-.4h15c4.2 0 6.8 1.8 8.2 5.8.6 1.8.9 3.6.9 5.5V41c0 1.5-.3 2.1-2 2.1-6.4-.1-12.9-.1-19.3 0-2.5 0-4.1-1.1-5.1-3.2-2-4.2-2-8.4.1-12.5 1.2-2.5 3.2-3.8 6.1-3.7 3.2.1 6.4 0 9.6 0 1.3 0 2.4-.5 2.9-1.7.4-.9.1-1.8-.5-2.6-.7-.8-1.6-.8-2.6-.8h-13c-.7.2-1.4.2-2.4.2zm18.7 17.1v-3.7c0-.7-.3-1.1-1-1.1-3.4 0-6.9-.1-10.3 0-1.3 0-1.9 1.1-1.9 2.4 0 1.2.5 2.3 1.9 2.4 3.6.1 7.3 0 11.3 0z"/><path class="st2" d="M75.9 35.6h15v7.2c-.5.5-1.2.3-1.8.3H70.9c-.9 0-1.7 0-2.6-.1-4.3-.6-6-4.8-3.4-8.1 1.4-1.7 3-3.2 4.5-4.7 3-3.1 6.1-6.1 9.2-9.2.5-.5 1.1-.8 1.2-2-5-.3-10.1 0-15.2-.2v-7c.5-.5 1-.3 1.6-.3h19.2c2.3 0 4.5.2 5.5 2.7.9 2.6.7 5-1.5 7.1-4.1 4-8.2 8.2-12.3 12.3-.5.5-1.2.9-1.2 2zM2.8 40.2V9.9c19-2.2 37.7-4.3 56.5-6.4v44.4L11 45.2v-.8h44.7V7.8c-2.4-.2-4.8.3-7.1.6-6.3.7-12.7 1.6-19 2.2-7.2.6-14.4 1.9-21.6 2.4-1.6.1-1.8.8-2 2.2-1.2 8.3-1.4 16.7-2.6 25h-.6z"/><path class="st3" d="M33.9 41c-.2.8-.8.7-1.4.8-1 .1-2.3-.4-2.9 1-.2.4-.7.1-1.2-.2-1.5-.9-4.7-.6-6 .5-2.1-1.4-4.9-1.3-6.4.1-1.6-1.6-4.2-1.6-5.4 0-1.2-1.4-1.2-1.4-3.8-1.8-.8.6.3 1.4-.5 1.9-.7-.3-.5-1-.6-1.5-.2-.6-.8-.7-1.2-1.2.9-.6 1.1-1.5 1-2.6-.5-7.7 1.6-15.1 2.2-23.2.8 1.1 1.3 1.1 2 .9 7.4-2.5 15.2-2.7 22.9-3.7 3.6-.5 7.2-.9 10.9-1.1 1.2-.1 2.5.3 3.7.2.9 0 2 .3 2.1-1.7 1.2 2.7 3.6 1.1 5 2.5-1.3.9-2.6.1-3.9.6-.4 1.5.3 2.9.2 4.4.8.7 1.7.3 2.6.4.5.1 1 .2.9.8 0 .5-.5.5-.9.6-.8.1-1.6-.1-2.4.3v5c1.1.5 2.2-.4 3.3.3.1 1.2-.9 1.2-1.6 1.2-1.6-.1-1.9.7-1.8 2.1.1 1.1 0 2.2 0 3.3 1.1.7 2.3-.3 3.3.1.4.9-.1 1.3-.8 1.3-3-.2-3.1 1.8-3 3.9v1.5c1.3.7 2.6-.7 4.4.3-2.6 1-5.8 1-5.3 5.1-1.5-1.2-.3-2.2-.9-3.2-1.2-.3-2.4.4-3.6.4-1.7 0-.7 2.2-1.9 2.7-1-.6-.2-1.5-.8-2.2-1.2-.1-2.5.5-3.8 0 0-.8.4-1 1.1-1.1 1-.1 2.1-.3 3.2-.5.1-1.9.3-3.7.4-5.6-1.4.1-2.6.2-3.8.2-1.4 0-2 .7-2 2.1 0 .9.2 1.8-.4 2.6-1.3-.4-.7-1.3-.8-2-.1-.8.3-1.6-.3-2.4-1.7.2-3.4.3-5 .5-.6.9 0 2.1-1.2 2.7-1.2-.5-.2-1.8-1-2.4-2.3-.3-4.5.1-6.8.4-.5-.1-1-.3-1.6-.4-.2-.4-.5-.5-.9-.4.4-1.5 2-.3 2.8-1.3v-2.3c.4.1.7 0 .8-.4 1.1.8-.1 2.2.9 3.2 1.6-.1 3.3-.3 5.1-.5.2-2.3 1.2-4.6-.8-6.7.5-.4 1.1-.8 1.6-1.2 2.2.5 4.4 0 6.8-.2v-3.3c0-.4.1-.8.6-.8.6 0 .8.3.8.9.1 1-.3 2 .3 3.1 1.3-.1 2.7-.1 4.1-.2.6-.1 1.2-.3 1.2-1.1v-4.4c-1-.5-1.8-.2-2.5-.3-.5 0-1.2.3-1.3-.5-.1-1 .8-.8 1.3-.7 1.8 0 2.7-.7 2.3-2.6-.2-.9.1-1.8-.3-2.8-1.6-.1-3.2-.2-4.8.2-.6 1.4.3 2.9-.8 4.3-1.3-1.2-.2-2.8-1-4.1-1.7 0-3.4-.1-4.8.5-1 1.6 0 3.5-1.6 5-.7-1.7 0-3.2-.5-4.7-1.7-.2-3.4-.1-4.8.6-.7 1.6.1 3.5-1.4 4.8-.8-1.7.1-3.1-.2-4.5-1-.2-1.9.1-2.9.2-1.5.1-2.3.7-2.2 2.3 0 .6 0 1.4-.9 1.8-.7-1.1.1-2.3-.4-3.3-4.3.5-5.2 1.7-4.3 5.4h2.4v.5c-.7 1.1-1.8 1.2-3 1.2.1 1.7-.7 3.3-.3 5 1.5.1 2.8.2 4.1-.5.4-1.2-.2-2.8 1.5-3.5.4.6.2 1.2.3 1.7 0 .6-.2 1.2.2 1.7.1 0 .3.1.4.1 1.4-.1 3 .1 4.1-.6 1.2-.8.4-2.6.6-3.9.1-.8.4-1.2 1.3-.9 0 1 0 2-.2 3-.2 1.1.2 1.7 1.2 2.1-.2.1-.3.3-.5.4l-1.5 1.2h-4c-1.4-.1-2.1.4-2 1.9 0 .6.3 1.4-.8 1.7-.8-.9 0-2.2-.6-3.2-1.3.1-2.7-.2-4.1.4-.1.9-.1 1.8-.2 2.6s-.4 1.7.1 2.5c.6.6 1.8-.4 2.1.9-.6.9-1.6.1-2.2.8-.4 5.4-.8 5.5 4.2 5 .7-1-.3-2.4.7-3.2.5.1.7.4.7.7.2 2.8.2 2.8 2.9 2.8.7 0 1.3.1 1.8-.1.9-1-.4-3 1.8-3 0 1-.2 2.1.3 3.3 3.3-.8 6.8-1.4 10.3-.5zm-3.4-7.8c1.4-.1 2.8-.2 4.2-.2.9 0 1.4-.4 1.4-1.3.1-1.6.3-3.3 0-4.9-6.1.5-6.1.5-5.7 6 0 .2 0 .2.1.4zm7.1-6.4v5.8c1.9.2 3.6-.3 5.4-.5.2-2 .3-3.8.1-5.7-1.9-.3-3.6.3-5.5.4zm11.9 4.5c-.1-1.9.3-3.6-.1-5.5-1.6 0-3.1-.1-4.6.3 0 1.9-.7 3.7-.2 5.6 1.6.4 3.1-.1 4.9-.4zM44.1 39c1.4.2 2.7-.3 4-.5.6-.1.9-.5 1-1.1.1-1.5.2-3 .3-4.6-1.4.2-2.6.3-3.9.5-.6.1-1.2.1-1.2 1 0 1.5-.6 3-.2 4.7zm.7-20.2v5.9c1.7-.2 3.3-.4 5-.5-.1-1.9-.2-3.6-.3-5.3-1.7-.1-3.1-.1-4.7-.1zm-.3-6.4c-.3 1.7.1 3.3.3 4.9.8.4 1.6.2 2.3.2.8 0 1.6.2 2.3-.3.5-4.8 0-5.3-4.9-4.8zM9.9 34.1v-4.8c-3.6-.4-3.9-.5-3.3 4.8 1 .3 2 .3 3.3 0zm-3.4 1.5c-.5 4.4-.6 5.5 3.4 4.7 0-1.5.2-3.1-.2-4.7-.7 0-1.3-.1-1.8-.1s-.9.1-1.4.1zm4.1-13C6.9 22.7 6 24 7 27.7c3.2.3 3.2.3 3.4-2.8 0-.7.1-1.5.2-2.3zm-2.9-1.1c3.2 0 4.3-1.5 3.5-5-3.5.6-4 1.2-3.5 5z"/><path class="st2" d="M14.6 21.1v-.5c.8-1.3 1.8-2.2 3.3-1.1.6.4 1.3.3 1.9.3 3.8-.4 7.5-.7 11.3-1.3 1.8-.3 3.7.2 5.2-1.3.5-.5 1.4-.3 2 .3.5.5.8 1.1.5 1.8-.3.7-.7 1.2-1.6 1.4-.6.1-1.3-.2-1.9.3-1.9 1.6-4.2 2.8-6 4.5-.5.4-1.1.8-1.6 1.2-2.2.7-3.7 2.4-5.2 3.9-.5-.2-.7 0-.8.4-1.4.5-2.4 1.5-3.5 2.4-.9.8-.5 1.3.7 1.2.1.5.5.4.9.4.5.1 1 .3 1.6.4 4 1.8 8.4 2.7 12.6 4 .2.1.6.1.8-.1 1.8-1 2.7 0 3.4 1.5-1.3 2.5-2.3 2.5-4.3.2-3.5-1.3-7.1-2.4-10.8-3.2-2.2-.7-4.1-2.4-6.8-1.2-1.1.5-2.1-.3-2.3-1.5-.2-1.2.4-2.3 1.6-2.3 3.2-.2 4.9-2.7 7.1-4.4l1.5-1.2c.2-.1.6.1.5-.4 2.1-.7 3.6-2.2 5.3-3.5.2-.2.5-.3.7-.5 1.5-.8 2.8-1.8 4.5-3.3-5.7.6-10.8 1.1-16 1.7-.3 0-.6.1-.7.2-2.2 1.8-2.3 1.8-3.9-.3zM29.8 51.9c-3 0-5.1-.2-7-1-.7-.3-1.4-.7-1.4-1.5 0-.7.7-1.2 1.3-1.4 4.3-1.6 8.6-1.5 12.9 0 .6.2 1.3.6 1.3 1.4 0 .9-.7 1.1-1.4 1.4-2.2 1-4.3 1-5.7 1.1z"/><path d="M2.8 40.2c.1 0 .3-.1.4-.1.3.5.1 1-.3 1.5-.3-.5-.2-.9-.1-1.4z" style="fill:#f7aa7f"/><path class="st0" d="M179.3 27.3v-6.8c0-1.1.3-1.8 1.5-1.7 2.3.1 4.5 0 6.8 0 2.6.1 5.1 2.8 5.2 5.7.1 1.9.1 3.7 0 5.6-.2 3.4-2.8 5.7-6.2 5.7-1.9 0-3.7-.1-5.6 0-1.3.1-1.8-.4-1.7-1.7.1-2.3 0-4.6 0-6.8zM161.7 35.9c-4 0-7.7.1-11.4 0-1.4 0-1.9-1.1-1.9-2.4 0-1.3.5-2.3 1.9-2.4 3.4-.1 6.9 0 10.3 0 .8 0 1.1.4 1 1.1.1 1.2.1 2.3.1 3.7zM29.5 25.5c1.8-1.7 4-2.9 6-4.5.6-.5 1.3-.2 1.9-.3.8-.1 1.3-.6 1.6-1.4.2-.7 0-1.3-.5-1.8-.6-.6-1.5-.8-2-.3-1.5 1.6-3.5 1.1-5.2 1.3-3.7.5-7.5.9-11.3 1.3-.6.1-1.3.2-1.9-.3-1.5-1.1-2.5-.2-3.3 1.1h-2.4c-.9-3.7 0-4.9 4.3-5.4.6 1-.3 2.2.4 3.3.9-.4.9-1.1.9-1.8-.1-1.6.6-2.2 2.2-2.3.9-.1 1.8-.4 2.9-.2.3 1.4-.6 2.8.2 4.5 1.6-1.4.8-3.2 1.4-4.8 1.4-.6 3.1-.7 4.8-.6.5 1.5-.2 3 .5 4.7 1.6-1.5.5-3.4 1.6-5 1.4-.5 3.1-.5 4.8-.5.8 1.3-.2 2.9 1 4.1 1.1-1.4.2-2.9.8-4.3 1.5-.3 3.2-.3 4.8-.2.4 1 .1 1.9.3 2.8.3 1.9-.5 2.6-2.3 2.6-.5 0-1.4-.2-1.3.7.1.8.8.5 1.3.5.8.1 1.6-.2 2.5.3v4.4c0 .8-.6 1-1.2 1.1-1.4.1-2.7.2-4.1.2-.6-.7-.3-1.7-.4-2.7 0-.5-.2-.9-.8-.9-.5 0-.6.4-.6.8v3.3c-2.5.3-4.6.9-6.9.3zM22.7 28.3c-2.2 1.8-3.9 4.2-7.1 4.4-1.2.1-1.8 1.1-1.6 2.3.2 1.2 1.3 2 2.3 1.5 2.6-1.2 4.6.5 6.8 1.2-2.2 0-1 2.1-1.8 3-.5.3-1.2.1-1.8.1-2.7 0-2.7 0-2.9-2.8 0-.4-.2-.6-.7-.7-1 .9 0 2.3-.7 3.2-5 .5-4.6.4-4.2-5 .6-.6 1.6.1 2.2-.8-.2-1.3-1.5-.3-2.1-.9-.5-.8-.2-1.6-.1-2.5.1-.9.1-1.7.2-2.6 1.4-.5 2.8-.3 4.1-.4.6 1.1-.2 2.4.6 3.2 1.1-.4.8-1.2.8-1.7-.1-1.5.6-2 2-1.9 1.4.4 2.7.4 4 .4z"/><path class="st0" d="M30 23.2c-1.7 1.3-3.2 2.8-5.3 3.5-1-.4-1.4-1-1.2-2.1.1-1 .1-2 .2-3-1-.4-1.2 0-1.3.9-.2 1.3.6 3.1-.6 3.9-1 .7-2.7.4-4.1.6-.1 0-.2-.1-.4-.1-.4-.5-.2-1.1-.2-1.7 0-.5.1-1.1-.3-1.7-1.6.7-1.1 2.3-1.5 3.5-1.3.7-2.6.6-4.1.5-.3-1.8.4-3.3.3-5 1.2-.1 2.4-.1 3-1.2 1.5 2.1 1.6 2.1 3.8.2.2-.2.5-.2.7-.2 5.2-.5 10.3-1.1 16-1.7-1.7 1.4-3 2.5-4.5 3.3-.2-.6.2-1.3-.6-2.3-.9.9-1.6 1.5-.2 2.7.2-.2.3-.1.3-.1zM38.3 40.9c-.7-1.5-1.6-2.4-3.4-1.5-.2.1-.5.1-.8.1-4.2-1.3-8.6-2.1-12.6-4 2.3-.3 4.6-.7 6.8-.4.8.6-.2 2 1 2.4 1.2-.6.5-1.9 1.2-2.7 1.6-.2 3.3-.3 5-.5.6.8.2 1.6.3 2.4.1.7-.5 1.6.8 2 .7-.8.4-1.8.4-2.6 0-1.4.6-2.1 2-2.1 1.2 0 2.4-.1 3.8-.2-.1 1.8-.2 3.7-.4 5.6-1.1.2-2.1.4-3.2.5-.5 0-.9.2-.9 1zM30.5 33.2c-.1-.2-.2-.3-.2-.3-.4-5.5-.4-5.5 5.7-6 .3 1.6.1 3.2 0 4.9-.1.9-.5 1.3-1.4 1.3-1.3-.1-2.7.1-4.1.1zM37.6 26.8c1.9-.1 3.6-.7 5.4-.4.2 1.9.1 3.8-.1 5.7-1.8.2-3.5.7-5.4.5.1-2 .1-3.8.1-5.8zM22.7 30.6c1.6-1.6 3-3.3 5.2-3.9 2 2 1 4.3.8 6.7-1.8.2-3.5.3-5.1.5-1-1.1.2-2.4-.9-3.3zM49.5 31.3c-1.8.2-3.3.7-4.9.5-.5-1.9.1-3.7.2-5.6 1.6-.4 3.1-.3 4.6-.3.4 1.8 0 3.6.1 5.4zM44.1 39c-.4-1.7.3-3.2.2-4.7 0-.9.7-.9 1.2-1 1.2-.2 2.5-.3 3.9-.5-.1 1.6-.2 3.1-.3 4.6 0 .6-.4 1-1 1.1-1.3.1-2.6.6-4 .5zM44.8 18.8h4.6c.1 1.7.2 3.5.3 5.3-1.7.2-3.2.4-5 .5.1-1.9.1-3.7.1-5.8zM44.5 12.4c4.9-.5 5.4 0 4.9 4.8-.7.5-1.5.2-2.3.3-.7 0-1.4.2-2.3-.2-.2-1.6-.7-3.3-.3-4.9zM9.9 34.1c-1.3.2-2.3.3-3.3 0-.6-5.3-.3-5.3 3.3-4.8v4.8zM6.5 35.6c.4 0 .9-.1 1.3-.1.6 0 1.2.1 1.8.1.3 1.6.2 3.2.2 4.7-3.9.8-3.8-.3-3.3-4.7zM10.6 22.6c-.1.8-.2 1.6-.2 2.3-.2 3.1-.2 3.1-3.4 2.8-1-3.7-.1-5 3.6-5.1zM23.1 37.8c3.7.8 7.3 1.9 10.8 3.2-3.5-.9-7-.3-10.5.1-.5-1.2-.3-2.2-.3-3.3zM7.7 21.5c-.4-3.8 0-4.4 3.5-5 .7 3.5-.3 5-3.5 5zM19.1 34.7c-1.2.1-1.6-.4-.7-1.2 1-.9 2.1-1.9 3.5-2.4v2.3c-.8 1-2.4-.2-2.8 1.3z"/><path class="st0" d="M21.9 31.1c.1-.4.4-.6.8-.4-.1.3-.4.5-.8.4zM20 35.1c-.4 0-.8.2-.9-.4.4-.1.7 0 .9.4zM24.7 26.7c.1.5-.3.3-.5.4.2-.2.4-.3.5-.4zM30.7 22.7c-.2.2-.5.3-.7.5 0-.1-.1-.1-.1-.2.1-.3.4-.4.8-.3z"/><path class="st3" d="M30.7 22.7c-.4-.1-.7 0-.8.4-1.3-1.1-.6-1.8.2-2.7.8.9.4 1.6.6 2.3z"/></svg>